  0
SECTION
  2
HEADER
  9
$ACADVER
  1
AC1014
  9
$HANDSEED
  5
FFFF
  9
$MEASUREMENT
 70
     1
  0
ENDSEC
  0
SECTION
  2
TABLES
  0
TABLE
  2
VPORT
  5
8
330
0
100
AcDbSymbolTable
 70
     4
  0
VPORT
  5
2E
330
8
100
AcDbSymbolTableRecord
100
AcDbViewportTableRecord
  2
*ACTIVE
 70
     0
 10
0.0
 20
0.0
 11
1.0
 21
1.0
 12
210.0
 22
148.5
 13
0.0
 23
0.0
 14
10.0
 24
10.0
 15
10.0
 25
10.0
 16
0.0
 26
0.0
 36
1.0
 17
0.0
 27
0.0
 37
0.0
 40
341.0
 41
1.24
 42
50.0
 43
0.0
 44
0.0
 50
0.0
 51
0.0
 71
     0
 72
   100
 73
     1
 74
     3
 75
     0
 76
     0
 77
     0
 78
     0
  0
ENDTAB
  0
TABLE
  2
LTYPE
  5
5
330
0
100
AcDbSymbolTable
 70
     1
  0
LTYPE
  5
14
330
5
100
AcDbSymbolTableRecord
100
AcDbLinetypeTableRecord
  2
BYBLOCK
 70
     0
  3

 72
    65
 73
     0
 40
0.0
  0
LTYPE
  5
15
330
5
100
AcDbSymbolTableRecord
100
AcDbLinetypeTableRecord
  2
BYLAYER
 70
     0
  3

 72
    65
 73
     0
 40
0.0
  0
LTYPE
  5
16
330
5
100
AcDbSymbolTableRecord
100
AcDbLinetypeTableRecord
  2
CONTINUOUS
 70
     0
  3
Solid line
 72
    65
 73
     0
 40
0.0
  0
ENDTAB
  0
TABLE
  2
LAYER
  5
2
100
AcDbSymbolTable
 70
2
  0
LAYER
  5
50
100
AcDbSymbolTableRecord
100
AcDbLayerTableRecord
  2
0
 70
0
  6
CONTINUOUS
  0
LAYER
  5
51
100
AcDbSymbolTableRecord
100
AcDbLayerTableRecord
  2
Imprimir
 70
0
  6
CONTINUOUS
  0
ENDTAB
  0
TABLE
  2
STYLE
  5
3
330
0
100
AcDbSymbolTable
 70
     1
  0
STYLE
  5
11
330
3
100
AcDbSymbolTableRecord
100
AcDbTextStyleTableRecord
  2
STANDARD
 70
     0
 40
0.0
 41
1.0
 50
0.0
 71
     0
 42
2.5
  3
txt
  4

  0
ENDTAB
  0
TABLE
  2
VIEW
  5
6
330
0
100
AcDbSymbolTable
 70
     0
  0
ENDTAB
  0
TABLE
  2
UCS
  5
7
330
0
100
AcDbSymbolTable
 70
     0
  0
ENDTAB
  0
TABLE
  2
APPID
  5
9
330
0
100
AcDbSymbolTable
 70
     2
  0
APPID
  5
12
330
9
100
AcDbSymbolTableRecord
100
AcDbRegAppTableRecord
  2
ACAD
 70
     0
  0
ENDTAB
  0
TABLE
  2
DIMSTYLE
  5
A
330
0
100
AcDbSymbolTable
 70
     1
  0
DIMSTYLE
105
27
330
A
100
AcDbSymbolTableRecord
100
AcDbDimStyleTableRecord
  2
ISO-25
 70
     0
  3

  4

  5

  6

  7

 40
1.0
 41
2.5
 42
0.625
 43
3.75
 44
1.25
 45
0.0
 46
0.0
 47
0.0
 48
0.0
140
2.5
141
2.5
142
0.0
143
0.03937007874016
144
1.0
145
0.0
146
1.0
147
0.625
 71
     0
 72
     0
 73
     0
 74
     0
 75
     0
 76
     0
 77
     1
 78
     8
170
     0
171
     3
172
     1
173
     0
174
     0
175
     0
176
     0
177
     0
178
     0
270
     2
271
     2
272
     2
273
     2
274
     3
340
11
275
     0
280
     0
281
     0
282
     0
283
     0
284
     8
285
     0
286
     0
287
     3
288
     0
  0
ENDTAB
  0
TABLE
  2
BLOCK_RECORD
  5
1
330
0
100
AcDbSymbolTable
 70
     1
  0
BLOCK_RECORD
  5
1F
330
1
100
AcDbSymbolTableRecord
100
AcDbBlockTableRecord
  2
*MODEL_SPACE
  0
BLOCK_RECORD
  5
1B
330
1
100
AcDbSymbolTableRecord
100
AcDbBlockTableRecord
  2
*PAPER_SPACE
  0
ENDTAB
  0
ENDSEC
  0
SECTION
  2
BLOCKS
  0
BLOCK
  5
20
330
1F
100
AcDbEntity
  8
0
100
AcDbBlockBegin
  2
*MODEL_SPACE
 70
     0
 10
0.0
 20
0.0
 30
0.0
  3
*MODEL_SPACE
  1

  0
ENDBLK
  5
21
330
1F
100
AcDbEntity
  8
0
100
AcDbBlockEnd
  0
BLOCK
  5
1C
330
1B
100
AcDbEntity
 67
     1
  8
0
100
AcDbBlockBegin
  2
*PAPER_SPACE
  1

  0
ENDBLK
  5
1D
330
1B
100
AcDbEntity
 67
     1
  8
0
100
AcDbBlockEnd
  0
ENDSEC
  0
SECTION
  2
ENTITIES
  0
LWPOLYLINE
  5
100
100
AcDbEntity
  8
0
 62
5
100
AcDbPolyline
 90
85
 70
1
 10
229.467932
 20
27.049938
 30
0.0
 10
229.467932
 20
33.049943
 30
0.0
 10
232.467954
 20
33.049943
 30
0.0
 10
232.467954
 20
39.049948
 30
0.0
 10
229.467932
 20
39.049948
 30
0.0
 10
229.467932
 20
45.049956
 30
0.0
 10
232.467954
 20
45.049956
 30
0.0
 10
232.467954
 20
51.049961
 30
0.0
 10
229.467932
 20
51.049961
 30
0.0
 10
229.467932
 20
57.049965
 30
0.0
 10
232.467954
 20
57.049965
 30
0.0
 10
232.467954
 20
63.049970
 30
0.0
 10
229.467932
 20
63.049970
 30
0.0
 10
229.467932
 20
69.049974
 30
0.0
 10
232.467954
 20
69.049974
 30
0.0
 10
232.467954
 20
75.049981
 30
0.0
 10
229.467932
 20
75.049981
 30
0.0
 10
229.467932
 20
81.049981
 30
0.0
 10
232.467954
 20
81.049981
 30
0.0
 10
232.467954
 20
88.550000
 30
0.0
 10
229.467932
 20
88.550000
 30
0.0
 10
229.467932
 20
96.049999
 30
0.0
 10
239.217948
 20
96.049999
 30
0.0
 10
239.217948
 20
93.049976
 30
0.0
 10
248.967964
 20
93.049976
 30
0.0
 10
248.967964
 20
96.049999
 30
0.0
 10
254.967988
 20
96.049999
 30
0.0
 10
254.967988
 20
93.049976
 30
0.0
 10
260.967976
 20
93.049976
 30
0.0
 10
260.967976
 20
96.049999
 30
0.0
 10
266.967993
 20
96.049999
 30
0.0
 10
266.967993
 20
93.049976
 30
0.0
 10
276.718006
 20
93.049976
 30
0.0
 10
276.718006
 20
96.049999
 30
0.0
 10
286.468002
 20
96.049999
 30
0.0
 10
286.468002
 20
88.550000
 30
0.0
 10
283.468008
 20
88.550000
 30
0.0
 10
283.468008
 20
81.049981
 30
0.0
 10
286.468002
 20
81.049981
 30
0.0
 10
286.468002
 20
75.049981
 30
0.0
 10
283.468008
 20
75.049981
 30
0.0
 10
283.468008
 20
69.049974
 30
0.0
 10
286.468002
 20
69.049974
 30
0.0
 10
286.468002
 20
63.049970
 30
0.0
 10
283.468008
 20
63.049970
 30
0.0
 10
283.468008
 20
57.049965
 30
0.0
 10
286.468002
 20
57.049965
 30
0.0
 10
286.468002
 20
51.049961
 30
0.0
 10
283.468008
 20
51.049961
 30
0.0
 10
283.468008
 20
45.049956
 30
0.0
 10
286.468002
 20
45.049956
 30
0.0
 10
286.468002
 20
39.049948
 30
0.0
 10
283.468008
 20
39.049948
 30
0.0
 10
283.468008
 20
33.049943
 30
0.0
 10
286.468002
 20
33.049943
 30
0.0
 10
286.468002
 20
27.049938
 30
0.0
 10
283.468008
 20
27.049938
 30
0.0
 10
283.468008
 20
21.049933
 30
0.0
 10
286.468002
 20
21.049933
 30
0.0
 10
286.468002
 20
15.049931
 30
0.0
 10
283.468008
 20
15.049931
 30
0.0
 10
283.468008
 20
7.549921
 30
0.0
 10
286.468002
 20
7.549921
 30
0.0
 10
286.468002
 20
0.049916
 30
0.0
 10
276.718006
 20
0.049916
 30
0.0
 10
276.718006
 20
3.049918
 30
0.0
 10
266.967993
 20
3.049918
 30
0.0
 10
266.967993
 20
0.049916
 30
0.0
 10
260.967976
 20
0.049916
 30
0.0
 10
260.967976
 20
3.049918
 30
0.0
 10
254.967988
 20
3.049918
 30
0.0
 10
254.967988
 20
0.049916
 30
0.0
 10
248.967964
 20
0.049916
 30
0.0
 10
248.967964
 20
3.049918
 30
0.0
 10
239.217948
 20
3.049918
 30
0.0
 10
239.217948
 20
0.049916
 30
0.0
 10
229.467932
 20
0.049916
 30
0.0
 10
229.467932
 20
7.549921
 30
0.0
 10
232.467954
 20
7.549921
 30
0.0
 10
232.467954
 20
15.049931
 30
0.0
 10
229.467932
 20
15.049931
 30
0.0
 10
229.467932
 20
21.049933
 30
0.0
 10
232.467954
 20
21.049933
 30
0.0
 10
232.467954
 20
27.049938
 30
0.0
 10
229.467932
 20
27.049938
 30
0.0
  0
SPLINE
  5
101
100
AcDbEntity
  8
0
 62
5
100
AcDbSpline
 70
8
 71
3
 72
8
 73
4
 74
0
 40
0
 40
0
 40
0
 40
0
 40
1
 40
1
 40
1
 40
1
 10
46.689583
 20
43.030862
 30
0.0
 10
46.689583
 20
42.297451
 30
0.0
 10
46.099174
 20
41.707014
 30
0.0
 10
45.365763
 20
41.707014
 30
0.0
  0
LWPOLYLINE
  5
102
100
AcDbEntity
  8
0
 62
5
100
AcDbPolyline
 90
2
 70
1
 10
46.689583
 20
56.264233
 30
0.0
 10
46.689583
 20
43.030862
 30
0.0
  0
SPLINE
  5
103
100
AcDbEntity
  8
0
 62
5
100
AcDbSpline
 70
8
 71
3
 72
8
 73
4
 74
0
 40
0
 40
0
 40
0
 40
0
 40
1
 40
1
 40
1
 40
1
 10
31.229105
 20
41.707014
 30
0.0
 10
30.495694
 20
41.707014
 30
0.0
 10
29.905285
 20
42.297451
 30
0.0
 10
29.905285
 20
43.030862
 30
0.0
  0
LWPOLYLINE
  5
104
100
AcDbEntity
  8
0
 62
5
100
AcDbPolyline
 90
2
 70
1
 10
45.365763
 20
41.707014
 30
0.0
 10
31.229105
 20
41.707014
 30
0.0
  0
SPLINE
  5
105
100
AcDbEntity
  8
0
 62
5
100
AcDbSpline
 70
8
 71
3
 72
8
 73
4
 74
0
 40
0
 40
0
 40
0
 40
0
 40
1
 40
1
 40
1
 40
1
 10
29.905285
 20
56.264233
 30
0.0
 10
29.905285
 20
56.997644
 30
0.0
 10
30.495694
 20
57.588081
 30
0.0
 10
31.229105
 20
57.588081
 30
0.0
  0
LWPOLYLINE
  5
106
100
AcDbEntity
  8
0
 62
5
100
AcDbPolyline
 90
2
 70
1
 10
29.905285
 20
43.030862
 30
0.0
 10
29.905285
 20
56.264233
 30
0.0
  0
SPLINE
  5
107
100
AcDbEntity
  8
0
 62
5
100
AcDbSpline
 70
8
 71
3
 72
8
 73
4
 74
0
 40
0
 40
0
 40
0
 40
0
 40
1
 40
1
 40
1
 40
1
 10
45.365763
 20
57.588081
 30
0.0
 10
46.099174
 20
57.588081
 30
0.0
 10
46.689583
 20
56.997644
 30
0.0
 10
46.689583
 20
56.264233
 30
0.0
  0
LWPOLYLINE
  5
108
100
AcDbEntity
  8
0
 62
5
100
AcDbPolyline
 90
2
 70
1
 10
31.229105
 20
57.588081
 30
0.0
 10
45.365763
 20
57.588081
 30
0.0
  0
LWPOLYLINE
  5
109
100
AcDbEntity
  8
0
 62
5
100
AcDbPolyline
 90
2
 70
1
 10
46.689583
 20
56.264233
 30
0.0
 10
46.689583
 20
56.264233
 30
0.0
  0
SPLINE
  5
10a
100
AcDbEntity
  8
0
 62
5
100
AcDbSpline
 70
8
 71
3
 72
8
 73
4
 74
0
 40
0
 40
0
 40
0
 40
0
 40
1
 40
1
 40
1
 40
1
 10
46.621680
 20
25.349185
 30
0.0
 10
46.621680
 20
24.575924
 30
0.0
 10
45.999154
 20
23.953399
 30
0.0
 10
45.225894
 20
23.953399
 30
0.0
  0
LWPOLYLINE
  5
10b
100
AcDbEntity
  8
0
 62
5
100
AcDbPolyline
 90
2
 70
1
 10
46.621680
 20
38.799557
 30
0.0
 10
46.621680
 20
25.349185
 30
0.0
  0
SPLINE
  5
10c
100
AcDbEntity
  8
0
 62
5
100
AcDbSpline
 70
8
 71
3
 72
8
 73
4
 74
0
 40
0
 40
0
 40
0
 40
0
 40
1
 40
1
 40
1
 40
1
 10
31.233169
 20
23.953399
 30
0.0
 10
30.459909
 20
23.953399
 30
0.0
 10
29.837383
 20
24.575924
 30
0.0
 10
29.837383
 20
25.349185
 30
0.0
  0
LWPOLYLINE
  5
10d
100
AcDbEntity
  8
0
 62
5
100
AcDbPolyline
 90
2
 70
1
 10
45.225894
 20
23.953399
 30
0.0
 10
31.233169
 20
23.953399
 30
0.0
  0
SPLINE
  5
10e
100
AcDbEntity
  8
0
 62
5
100
AcDbSpline
 70
8
 71
3
 72
8
 73
4
 74
0
 40
0
 40
0
 40
0
 40
0
 40
1
 40
1
 40
1
 40
1
 10
29.837383
 20
38.799557
 30
0.0
 10
29.837383
 20
39.572846
 30
0.0
 10
30.459909
 20
40.195372
 30
0.0
 10
31.233169
 20
40.195372
 30
0.0
  0
LWPOLYLINE
  5
10f
100
AcDbEntity
  8
0
 62
5
100
AcDbPolyline
 90
2
 70
1
 10
29.837383
 20
25.349185
 30
0.0
 10
29.837383
 20
38.799557
 30
0.0
  0
SPLINE
  5
110
100
AcDbEntity
  8
0
 62
5
100
AcDbSpline
 70
8
 71
3
 72
8
 73
4
 74
0
 40
0
 40
0
 40
0
 40
0
 40
1
 40
1
 40
1
 40
1
 10
45.225894
 20
40.195372
 30
0.0
 10
45.999154
 20
40.195372
 30
0.0
 10
46.621680
 20
39.572846
 30
0.0
 10
46.621680
 20
38.799557
 30
0.0
  0
LWPOLYLINE
  5
111
100
AcDbEntity
  8
0
 62
5
100
AcDbPolyline
 90
2
 70
1
 10
31.233169
 20
40.195372
 30
0.0
 10
45.225894
 20
40.195372
 30
0.0
  0
LWPOLYLINE
  5
112
100
AcDbEntity
  8
0
 62
5
100
AcDbPolyline
 90
2
 70
1
 10
46.621680
 20
38.799557
 30
0.0
 10
46.621680
 20
38.799557
 30
0.0
  0
SPLINE
  5
113
100
AcDbEntity
  8
0
 62
5
100
AcDbSpline
 70
8
 71
3
 72
8
 73
4
 74
0
 40
0
 40
0
 40
0
 40
0
 40
1
 40
1
 40
1
 40
1
 10
47.231026
 20
6.032570
 30
0.0
 10
47.231026
 20
5.525303
 30
0.0
 10
46.822651
 20
5.116928
 30
0.0
 10
46.315384
 20
5.116928
 30
0.0
  0
LWPOLYLINE
  5
114
100
AcDbEntity
  8
0
 62
5
100
AcDbPolyline
 90
2
 70
1
 10
47.231026
 20
21.345581
 30
0.0
 10
47.231026
 20
6.032570
 30
0.0
  0
SPLINE
  5
115
100
AcDbEntity
  8
0
 62
5
100
AcDbSpline
 70
8
 71
3
 72
8
 73
4
 74
0
 40
0
 40
0
 40
0
 40
0
 40
1
 40
1
 40
1
 40
1
 10
33.528062
 20
5.116928
 30
0.0
 10
33.020796
 20
5.116928
 30
0.0
 10
32.612420
 20
5.525303
 30
0.0
 10
32.612420
 20
6.032570
 30
0.0
  0
LWPOLYLINE
  5
116
100
AcDbEntity
  8
0
 62
5
100
AcDbPolyline
 90
2
 70
1
 10
46.315384
 20
5.116928
 30
0.0
 10
33.528062
 20
5.116928
 30
0.0
  0
SPLINE
  5
117
100
AcDbEntity
  8
0
 62
5
100
AcDbSpline
 70
8
 71
3
 72
8
 73
4
 74
0
 40
0
 40
0
 40
0
 40
0
 40
1
 40
1
 40
1
 40
1
 10
32.612420
 20
21.345581
 30
0.0
 10
32.612420
 20
21.852847
 30
0.0
 10
33.020796
 20
22.261222
 30
0.0
 10
33.528062
 20
22.261222
 30
0.0
  0
LWPOLYLINE
  5
118
100
AcDbEntity
  8
0
 62
5
100
AcDbPolyline
 90
2
 70
1
 10
32.612420
 20
6.032570
 30
0.0
 10
32.612420
 20
21.345581
 30
0.0
  0
SPLINE
  5
119
100
AcDbEntity
  8
0
 62
5
100
AcDbSpline
 70
8
 71
3
 72
8
 73
4
 74
0
 40
0
 40
0
 40
0
 40
0
 40
1
 40
1
 40
1
 40
1
 10
46.315384
 20
22.261222
 30
0.0
 10
46.822651
 20
22.261222
 30
0.0
 10
47.231026
 20
21.852847
 30
0.0
 10
47.231026
 20
21.345581
 30
0.0
  0
LWPOLYLINE
  5
11a
100
AcDbEntity
  8
0
 62
5
100
AcDbPolyline
 90
2
 70
1
 10
33.528062
 20
22.261222
 30
0.0
 10
46.315384
 20
22.261222
 30
0.0
  0
LWPOLYLINE
  5
11b
100
AcDbEntity
  8
0
 62
5
100
AcDbPolyline
 90
2
 70
1
 10
47.231026
 20
21.345581
 30
0.0
 10
47.231026
 20
21.345581
 30
0.0
  0
LWPOLYLINE
  5
11c
100
AcDbEntity
  8
0
 62
5
100
AcDbPolyline
 90
85
 70
1
 10
57.050034
 20
33.049971
 30
0.0
 10
57.050034
 20
27.049955
 30
0.0
 10
54.050040
 20
27.049955
 30
0.0
 10
54.050040
 20
21.049967
 30
0.0
 10
57.050034
 20
21.049967
 30
0.0
 10
57.050034
 20
15.049954
 30
0.0
 10
54.050040
 20
15.049954
 30
0.0
 10
54.050040
 20
7.549952
 30
0.0
 10
57.050034
 20
7.549952
 30
0.0
 10
57.050034
 20
0.049924
 30
0.0
 10
47.300047
 20
0.049924
 30
0.0
 10
47.300047
 20
3.049946
 30
0.0
 10
37.550031
 20
3.049946
 30
0.0
 10
37.550031
 20
0.049924
 30
0.0
 10
31.550009
 20
0.049924
 30
0.0
 10
31.550009
 20
3.049946
 30
0.0
 10
25.550019
 20
3.049946
 30
0.0
 10
25.550019
 20
0.049924
 30
0.0
 10
19.550003
 20
0.049924
 30
0.0
 10
19.550003
 20
3.049946
 30
0.0
 10
9.799987
 20
3.049946
 30
0.0
 10
9.799987
 20
0.049924
 30
0.0
 10
0.050000
 20
0.049924
 30
0.0
 10
0.050000
 20
7.549952
 30
0.0
 10
3.049994
 20
7.549952
 30
0.0
 10
3.049994
 20
15.049954
 30
0.0
 10
0.050000
 20
15.049954
 30
0.0
 10
0.050000
 20
21.049967
 30
0.0
 10
3.049994
 20
21.049967
 30
0.0
 10
3.049994
 20
27.049955
 30
0.0
 10
0.050000
 20
27.049955
 30
0.0
 10
0.050000
 20
33.049971
 30
0.0
 10
3.049994
 20
33.049971
 30
0.0
 10
3.049994
 20
39.049959
 30
0.0
 10
0.050000
 20
39.049959
 30
0.0
 10
0.050000
 20
45.049978
 30
0.0
 10
3.049994
 20
45.049978
 30
0.0
 10
3.049994
 20
51.049994
 30
0.0
 10
0.050000
 20
51.049994
 30
0.0
 10
0.050000
 20
57.049982
 30
0.0
 10
3.049994
 20
57.049982
 30
0.0
 10
3.049994
 20
63.049999
 30
0.0
 10
0.050000
 20
63.049999
 30
0.0
 10
0.050000
 20
69.049985
 30
0.0
 10
3.049994
 20
69.049985
 30
0.0
 10
3.049994
 20
75.050018
 30
0.0
 10
0.050000
 20
75.050018
 30
0.0
 10
0.050000
 20
81.050034
 30
0.0
 10
3.049994
 20
81.050034
 30
0.0
 10
3.049994
 20
88.550005
 30
0.0
 10
0.050000
 20
88.550005
 30
0.0
 10
0.050000
 20
96.050004
 30
0.0
 10
9.799987
 20
96.050004
 30
0.0
 10
9.799987
 20
93.050010
 30
0.0
 10
19.550003
 20
93.050010
 30
0.0
 10
19.550003
 20
96.050004
 30
0.0
 10
25.550019
 20
96.050004
 30
0.0
 10
25.550019
 20
93.050010
 30
0.0
 10
31.550009
 20
93.050010
 30
0.0
 10
31.550009
 20
96.050004
 30
0.0
 10
37.550031
 20
96.050004
 30
0.0
 10
37.550031
 20
93.050010
 30
0.0
 10
47.300047
 20
93.050010
 30
0.0
 10
47.300047
 20
96.050004
 30
0.0
 10
57.050034
 20
96.050004
 30
0.0
 10
57.050034
 20
88.550005
 30
0.0
 10
54.050040
 20
88.550005
 30
0.0
 10
54.050040
 20
81.050034
 30
0.0
 10
57.050034
 20
81.050034
 30
0.0
 10
57.050034
 20
75.050018
 30
0.0
 10
54.050040
 20
75.050018
 30
0.0
 10
54.050040
 20
69.049985
 30
0.0
 10
57.050034
 20
69.049985
 30
0.0
 10
57.050034
 20
63.049999
 30
0.0
 10
54.050040
 20
63.049999
 30
0.0
 10
54.050040
 20
57.049982
 30
0.0
 10
57.050034
 20
57.049982
 30
0.0
 10
57.050034
 20
51.049994
 30
0.0
 10
54.050040
 20
51.049994
 30
0.0
 10
54.050040
 20
45.049978
 30
0.0
 10
57.050034
 20
45.049978
 30
0.0
 10
57.050034
 20
39.049959
 30
0.0
 10
54.050040
 20
39.049959
 30
0.0
 10
54.050040
 20
33.049971
 30
0.0
 10
57.050034
 20
33.049971
 30
0.0
  0
SPLINE
  5
11d
100
AcDbEntity
  8
Imprimir
 62
5
100
AcDbSpline
 70
8
 71
3
 72
8
 73
4
 74
0
 40
0
 40
0
 40
0
 40
0
 40
1
 40
1
 40
1
 40
1
 10
117.252779
 20
53.654023
 30
0.0
 10
117.202024
 20
53.654023
 30
0.0
 10
117.161158
 20
53.694889
 30
0.0
 10
117.161158
 20
53.745660
 30
0.0
  0
LWPOLYLINE
  5
11e
100
AcDbEntity
  8
Imprimir
 62
5
100
AcDbPolyline
 90
2
 70
1
 10
118.757500
 20
53.654023
 30
0.0
 10
117.252779
 20
53.654023
 30
0.0
  0
SPLINE
  5
11f
100
AcDbEntity
  8
Imprimir
 62
5
100
AcDbSpline
 70
8
 71
3
 72
8
 73
4
 74
0
 40
0
 40
0
 40
0
 40
0
 40
1
 40
1
 40
1
 40
1
 10
117.161158
 20
68.272613
 30
0.0
 10
117.161158
 20
68.323385
 30
0.0
 10
117.202024
 20
68.364251
 30
0.0
 10
117.252779
 20
68.364251
 30
0.0
  0
LWPOLYLINE
  5
120
100
AcDbEntity
  8
Imprimir
 62
5
100
AcDbPolyline
 90
2
 70
1
 10
117.161158
 20
53.745660
 30
0.0
 10
117.161158
 20
68.272613
 30
0.0
  0
SPLINE
  5
121
100
AcDbEntity
  8
Imprimir
 62
5
100
AcDbSpline
 70
8
 71
3
 72
8
 73
4
 74
0
 40
0
 40
0
 40
0
 40
0
 40
1
 40
1
 40
1
 40
1
 10
118.757500
 20
68.364251
 30
0.0
 10
118.808261
 20
68.364251
 30
0.0
 10
118.849121
 20
68.323385
 30
0.0
 10
118.849121
 20
68.272613
 30
0.0
  0
LWPOLYLINE
  5
122
100
AcDbEntity
  8
Imprimir
 62
5
100
AcDbPolyline
 90
2
 70
1
 10
117.252779
 20
68.364251
 30
0.0
 10
118.757500
 20
68.364251
 30
0.0
  0
SPLINE
  5
123
100
AcDbEntity
  8
Imprimir
 62
5
100
AcDbSpline
 70
8
 71
3
 72
8
 73
4
 74
0
 40
0
 40
0
 40
0
 40
0
 40
1
 40
1
 40
1
 40
1
 10
118.849121
 20
53.745660
 30
0.0
 10
118.849121
 20
53.694889
 30
0.0
 10
118.808261
 20
53.654023
 30
0.0
 10
118.757500
 20
53.654023
 30
0.0
  0
LWPOLYLINE
  5
124
100
AcDbEntity
  8
Imprimir
 62
5
100
AcDbPolyline
 90
2
 70
1
 10
118.849121
 20
68.272613
 30
0.0
 10
118.849121
 20
53.745660
 30
0.0
  0
LWPOLYLINE
  5
125
100
AcDbEntity
  8
Imprimir
 62
5
100
AcDbPolyline
 90
2
 70
1
 10
118.757500
 20
53.654023
 30
0.0
 10
118.757500
 20
53.654023
 30
0.0
  0
SPLINE
  5
126
100
AcDbEntity
  8
Imprimir
 62
5
100
AcDbSpline
 70
8
 71
3
 72
8
 73
4
 74
0
 40
0
 40
0
 40
0
 40
0
 40
1
 40
1
 40
1
 40
1
 10
113.205117
 20
53.654023
 30
0.0
 10
113.154357
 20
53.654023
 30
0.0
 10
113.113494
 20
53.694889
 30
0.0
 10
113.113494
 20
53.745660
 30
0.0
  0
LWPOLYLINE
  5
127
100
AcDbEntity
  8
Imprimir
 62
5
100
AcDbPolyline
 90
2
 70
1
 10
114.709836
 20
53.654023
 30
0.0
 10
113.205117
 20
53.654023
 30
0.0
  0
SPLINE
  5
128
100
AcDbEntity
  8
Imprimir
 62
5
100
AcDbSpline
 70
8
 71
3
 72
8
 73
4
 74
0
 40
0
 40
0
 40
0
 40
0
 40
1
 40
1
 40
1
 40
1
 10
113.113494
 20
68.272613
 30
0.0
 10
113.113494
 20
68.323385
 30
0.0
 10
113.154357
 20
68.364251
 30
0.0
 10
113.205117
 20
68.364251
 30
0.0
  0
LWPOLYLINE
  5
129
100
AcDbEntity
  8
Imprimir
 62
5
100
AcDbPolyline
 90
2
 70
1
 10
113.113494
 20
53.745660
 30
0.0
 10
113.113494
 20
68.272613
 30
0.0
  0
SPLINE
  5
12a
100
AcDbEntity
  8
Imprimir
 62
5
100
AcDbSpline
 70
8
 71
3
 72
8
 73
4
 74
0
 40
0
 40
0
 40
0
 40
0
 40
1
 40
1
 40
1
 40
1
 10
114.709836
 20
68.364251
 30
0.0
 10
114.760596
 20
68.364251
 30
0.0
 10
114.801459
 20
68.323385
 30
0.0
 10
114.801459
 20
68.272613
 30
0.0
  0
LWPOLYLINE
  5
12b
100
AcDbEntity
  8
Imprimir
 62
5
100
AcDbPolyline
 90
2
 70
1
 10
113.205117
 20
68.364251
 30
0.0
 10
114.709836
 20
68.364251
 30
0.0
  0
SPLINE
  5
12c
100
AcDbEntity
  8
Imprimir
 62
5
100
AcDbSpline
 70
8
 71
3
 72
8
 73
4
 74
0
 40
0
 40
0
 40
0
 40
0
 40
1
 40
1
 40
1
 40
1
 10
114.801459
 20
53.745660
 30
0.0
 10
114.801459
 20
53.694889
 30
0.0
 10
114.760596
 20
53.654023
 30
0.0
 10
114.709836
 20
53.654023
 30
0.0
  0
LWPOLYLINE
  5
12d
100
AcDbEntity
  8
Imprimir
 62
5
100
AcDbPolyline
 90
2
 70
1
 10
114.801459
 20
68.272613
 30
0.0
 10
114.801459
 20
53.745660
 30
0.0
  0
LWPOLYLINE
  5
12e
100
AcDbEntity
  8
Imprimir
 62
5
100
AcDbPolyline
 90
2
 70
1
 10
114.709836
 20
53.654023
 30
0.0
 10
114.709836
 20
53.654023
 30
0.0
  0
SPLINE
  5
12f
100
AcDbEntity
  8
Imprimir
 62
5
100
AcDbSpline
 70
8
 71
3
 72
8
 73
4
 74
0
 40
0
 40
0
 40
0
 40
0
 40
1
 40
1
 40
1
 40
1
 10
109.157444
 20
53.774616
 30
0.0
 10
109.106683
 20
53.774616
 30
0.0
 10
109.065821
 20
53.815482
 30
0.0
 10
109.065821
 20
53.866226
 30
0.0
  0
LWPOLYLINE
  5
130
100
AcDbEntity
  8
Imprimir
 62
5
100
AcDbPolyline
 90
2
 70
1
 10
110.662165
 20
53.774616
 30
0.0
 10
109.157444
 20
53.774616
 30
0.0
  0
SPLINE
  5
131
100
AcDbEntity
  8
Imprimir
 62
5
100
AcDbSpline
 70
8
 71
3
 72
8
 73
4
 74
0
 40
0
 40
0
 40
0
 40
0
 40
1
 40
1
 40
1
 40
1
 10
109.065821
 20
68.393207
 30
0.0
 10
109.065821
 20
68.443950
 30
0.0
 10
109.106683
 20
68.484816
 30
0.0
 10
109.157444
 20
68.484816
 30
0.0
  0
LWPOLYLINE
  5
132
100
AcDbEntity
  8
Imprimir
 62
5
100
AcDbPolyline
 90
2
 70
1
 10
109.065821
 20
53.866226
 30
0.0
 10
109.065821
 20
68.393207
 30
0.0
  0
SPLINE
  5
133
100
AcDbEntity
  8
Imprimir
 62
5
100
AcDbSpline
 70
8
 71
3
 72
8
 73
4
 74
0
 40
0
 40
0
 40
0
 40
0
 40
1
 40
1
 40
1
 40
1
 10
110.662165
 20
68.484816
 30
0.0
 10
110.712923
 20
68.484816
 30
0.0
 10
110.753786
 20
68.443950
 30
0.0
 10
110.753786
 20
68.393207
 30
0.0
  0
LWPOLYLINE
  5
134
100
AcDbEntity
  8
Imprimir
 62
5
100
AcDbPolyline
 90
2
 70
1
 10
109.157444
 20
68.484816
 30
0.0
 10
110.662165
 20
68.484816
 30
0.0
  0
SPLINE
  5
135
100
AcDbEntity
  8
Imprimir
 62
5
100
AcDbSpline
 70
8
 71
3
 72
8
 73
4
 74
0
 40
0
 40
0
 40
0
 40
0
 40
1
 40
1
 40
1
 40
1
 10
110.753786
 20
53.866226
 30
0.0
 10
110.753786
 20
53.815482
 30
0.0
 10
110.712923
 20
53.774616
 30
0.0
 10
110.662165
 20
53.774616
 30
0.0
  0
LWPOLYLINE
  5
136
100
AcDbEntity
  8
Imprimir
 62
5
100
AcDbPolyline
 90
2
 70
1
 10
110.753786
 20
68.393207
 30
0.0
 10
110.753786
 20
53.866226
 30
0.0
  0
LWPOLYLINE
  5
137
100
AcDbEntity
  8
Imprimir
 62
5
100
AcDbPolyline
 90
2
 70
1
 10
110.662165
 20
53.774616
 30
0.0
 10
110.662165
 20
53.774616
 30
0.0
  0
SPLINE
  5
138
100
AcDbEntity
  8
Imprimir
 62
5
100
AcDbSpline
 70
8
 71
3
 72
8
 73
4
 74
0
 40
0
 40
0
 40
0
 40
0
 40
1
 40
1
 40
1
 40
1
 10
105.109776
 20
53.533458
 30
0.0
 10
105.059022
 20
53.533458
 30
0.0
 10
105.018159
 20
53.574323
 30
0.0
 10
105.018159
 20
53.625067
 30
0.0
  0
LWPOLYLINE
  5
139
100
AcDbEntity
  8
Imprimir
 62
5
100
AcDbPolyline
 90
2
 70
1
 10
106.614503
 20
53.533458
 30
0.0
 10
105.109776
 20
53.533458
 30
0.0
  0
SPLINE
  5
13a
100
AcDbEntity
  8
Imprimir
 62
5
100
AcDbSpline
 70
8
 71
3
 72
8
 73
4
 74
0
 40
0
 40
0
 40
0
 40
0
 40
1
 40
1
 40
1
 40
1
 10
105.018159
 20
68.152048
 30
0.0
 10
105.018159
 20
68.202820
 30
0.0
 10
105.059022
 20
68.243686
 30
0.0
 10
105.109776
 20
68.243686
 30
0.0
  0
LWPOLYLINE
  5
13b
100
AcDbEntity
  8
Imprimir
 62
5
100
AcDbPolyline
 90
2
 70
1
 10
105.018159
 20
53.625067
 30
0.0
 10
105.018159
 20
68.152048
 30
0.0
  0
SPLINE
  5
13c
100
AcDbEntity
  8
Imprimir
 62
5
100
AcDbSpline
 70
8
 71
3
 72
8
 73
4
 74
0
 40
0
 40
0
 40
0
 40
0
 40
1
 40
1
 40
1
 40
1
 10
106.614503
 20
68.243686
 30
0.0
 10
106.665258
 20
68.243686
 30
0.0
 10
106.706121
 20
68.202820
 30
0.0
 10
106.706121
 20
68.152048
 30
0.0
  0
LWPOLYLINE
  5
13d
100
AcDbEntity
  8
Imprimir
 62
5
100
AcDbPolyline
 90
2
 70
1
 10
105.109776
 20
68.243686
 30
0.0
 10
106.614503
 20
68.243686
 30
0.0
  0
SPLINE
  5
13e
100
AcDbEntity
  8
Imprimir
 62
5
100
AcDbSpline
 70
8
 71
3
 72
8
 73
4
 74
0
 40
0
 40
0
 40
0
 40
0
 40
1
 40
1
 40
1
 40
1
 10
106.706121
 20
53.625067
 30
0.0
 10
106.706121
 20
53.574323
 30
0.0
 10
106.665258
 20
53.533458
 30
0.0
 10
106.614503
 20
53.533458
 30
0.0
  0
LWPOLYLINE
  5
13f
100
AcDbEntity
  8
Imprimir
 62
5
100
AcDbPolyline
 90
2
 70
1
 10
106.706121
 20
68.152048
 30
0.0
 10
106.706121
 20
53.625067
 30
0.0
  0
LWPOLYLINE
  5
140
100
AcDbEntity
  8
Imprimir
 62
5
100
AcDbPolyline
 90
2
 70
1
 10
106.614503
 20
53.533458
 30
0.0
 10
106.614503
 20
53.533458
 30
0.0
  0
SPLINE
  5
141
100
AcDbEntity
  8
Imprimir
 62
5
100
AcDbSpline
 70
8
 71
3
 72
8
 73
4
 74
0
 40
0
 40
0
 40
0
 40
0
 40
1
 40
1
 40
1
 40
1
 10
101.062106
 20
53.533458
 30
0.0
 10
101.011348
 20
53.533458
 30
0.0
 10
100.970488
 20
53.574323
 30
0.0
 10
100.970488
 20
53.625067
 30
0.0
  0
LWPOLYLINE
  5
142
100
AcDbEntity
  8
Imprimir
 62
5
100
AcDbPolyline
 90
2
 70
1
 10
102.566830
 20
53.533458
 30
0.0
 10
101.062106
 20
53.533458
 30
0.0
  0
SPLINE
  5
143
100
AcDbEntity
  8
Imprimir
 62
5
100
AcDbSpline
 70
8
 71
3
 72
8
 73
4
 74
0
 40
0
 40
0
 40
0
 40
0
 40
1
 40
1
 40
1
 40
1
 10
100.970488
 20
68.152048
 30
0.0
 10
100.970488
 20
68.202820
 30
0.0
 10
101.011348
 20
68.243686
 30
0.0
 10
101.062106
 20
68.243686
 30
0.0
  0
LWPOLYLINE
  5
144
100
AcDbEntity
  8
Imprimir
 62
5
100
AcDbPolyline
 90
2
 70
1
 10
100.970488
 20
53.625067
 30
0.0
 10
100.970488
 20
68.152048
 30
0.0
  0
SPLINE
  5
145
100
AcDbEntity
  8
Imprimir
 62
5
100
AcDbSpline
 70
8
 71
3
 72
8
 73
4
 74
0
 40
0
 40
0
 40
0
 40
0
 40
1
 40
1
 40
1
 40
1
 10
102.566830
 20
68.243686
 30
0.0
 10
102.617588
 20
68.243686
 30
0.0
 10
102.658451
 20
68.202820
 30
0.0
 10
102.658451
 20
68.152048
 30
0.0
  0
LWPOLYLINE
  5
146
100
AcDbEntity
  8
Imprimir
 62
5
100
AcDbPolyline
 90
2
 70
1
 10
101.062106
 20
68.243686
 30
0.0
 10
102.566830
 20
68.243686
 30
0.0
  0
SPLINE
  5
147
100
AcDbEntity
  8
Imprimir
 62
5
100
AcDbSpline
 70
8
 71
3
 72
8
 73
4
 74
0
 40
0
 40
0
 40
0
 40
0
 40
1
 40
1
 40
1
 40
1
 10
102.658451
 20
53.625067
 30
0.0
 10
102.658451
 20
53.574323
 30
0.0
 10
102.617588
 20
53.533458
 30
0.0
 10
102.566830
 20
53.533458
 30
0.0
  0
LWPOLYLINE
  5
148
100
AcDbEntity
  8
Imprimir
 62
5
100
AcDbPolyline
 90
2
 70
1
 10
102.658451
 20
68.152048
 30
0.0
 10
102.658451
 20
53.625067
 30
0.0
  0
LWPOLYLINE
  5
149
100
AcDbEntity
  8
Imprimir
 62
5
100
AcDbPolyline
 90
2
 70
1
 10
102.566830
 20
53.533458
 30
0.0
 10
102.566830
 20
53.533458
 30
0.0
  0
SPLINE
  5
14a
100
AcDbEntity
  8
Imprimir
 62
5
100
AcDbSpline
 70
8
 71
3
 72
8
 73
4
 74
0
 40
0
 40
0
 40
0
 40
0
 40
1
 40
1
 40
1
 40
1
 10
97.014436
 20
53.654023
 30
0.0
 10
96.963675
 20
53.654023
 30
0.0
 10
96.922815
 20
53.694889
 30
0.0
 10
96.922815
 20
53.745660
 30
0.0
  0
LWPOLYLINE
  5
14b
100
AcDbEntity
  8
Imprimir
 62
5
100
AcDbPolyline
 90
2
 70
1
 10
98.519157
 20
53.654023
 30
0.0
 10
97.014436
 20
53.654023
 30
0.0
  0
SPLINE
  5
14c
100
AcDbEntity
  8
Imprimir
 62
5
100
AcDbSpline
 70
8
 71
3
 72
8
 73
4
 74
0
 40
0
 40
0
 40
0
 40
0
 40
1
 40
1
 40
1
 40
1
 10
96.922815
 20
68.272613
 30
0.0
 10
96.922815
 20
68.323385
 30
0.0
 10
96.963675
 20
68.364251
 30
0.0
 10
97.014436
 20
68.364251
 30
0.0
  0
LWPOLYLINE
  5
14d
100
AcDbEntity
  8
Imprimir
 62
5
100
AcDbPolyline
 90
2
 70
1
 10
96.922815
 20
53.745660
 30
0.0
 10
96.922815
 20
68.272613
 30
0.0
  0
SPLINE
  5
14e
100
AcDbEntity
  8
Imprimir
 62
5
100
AcDbSpline
 70
8
 71
3
 72
8
 73
4
 74
0
 40
0
 40
0
 40
0
 40
0
 40
1
 40
1
 40
1
 40
1
 10
98.519157
 20
68.364251
 30
0.0
 10
98.569915
 20
68.364251
 30
0.0
 10
98.610778
 20
68.323385
 30
0.0
 10
98.610778
 20
68.272613
 30
0.0
  0
LWPOLYLINE
  5
14f
100
AcDbEntity
  8
Imprimir
 62
5
100
AcDbPolyline
 90
2
 70
1
 10
97.014436
 20
68.364251
 30
0.0
 10
98.519157
 20
68.364251
 30
0.0
  0
SPLINE
  5
150
100
AcDbEntity
  8
Imprimir
 62
5
100
AcDbSpline
 70
8
 71
3
 72
8
 73
4
 74
0
 40
0
 40
0
 40
0
 40
0
 40
1
 40
1
 40
1
 40
1
 10
98.610778
 20
53.745660
 30
0.0
 10
98.610778
 20
53.694889
 30
0.0
 10
98.569915
 20
53.654023
 30
0.0
 10
98.519157
 20
53.654023
 30
0.0
  0
LWPOLYLINE
  5
151
100
AcDbEntity
  8
Imprimir
 62
5
100
AcDbPolyline
 90
2
 70
1
 10
98.610778
 20
68.272613
 30
0.0
 10
98.610778
 20
53.745660
 30
0.0
  0
LWPOLYLINE
  5
152
100
AcDbEntity
  8
Imprimir
 62
5
100
AcDbPolyline
 90
2
 70
1
 10
98.519157
 20
53.654023
 30
0.0
 10
98.519157
 20
53.654023
 30
0.0
  0
SPLINE
  5
153
100
AcDbEntity
  8
Imprimir
 62
5
100
AcDbSpline
 70
8
 71
3
 72
8
 73
4
 74
0
 40
0
 40
0
 40
0
 40
0
 40
1
 40
1
 40
1
 40
1
 10
92.966765
 20
53.533458
 30
0.0
 10
92.916005
 20
53.533458
 30
0.0
 10
92.875145
 20
53.574323
 30
0.0
 10
92.875145
 20
53.625067
 30
0.0
  0
LWPOLYLINE
  5
154
100
AcDbEntity
  8
Imprimir
 62
5
100
AcDbPolyline
 90
2
 70
1
 10
94.471484
 20
53.533458
 30
0.0
 10
92.966765
 20
53.533458
 30
0.0
  0
SPLINE
  5
155
100
AcDbEntity
  8
Imprimir
 62
5
100
AcDbSpline
 70
8
 71
3
 72
8
 73
4
 74
0
 40
0
 40
0
 40
0
 40
0
 40
1
 40
1
 40
1
 40
1
 10
92.875145
 20
68.152048
 30
0.0
 10
92.875145
 20
68.202820
 30
0.0
 10
92.916005
 20
68.243686
 30
0.0
 10
92.966765
 20
68.243686
 30
0.0
  0
LWPOLYLINE
  5
156
100
AcDbEntity
  8
Imprimir
 62
5
100
AcDbPolyline
 90
2
 70
1
 10
92.875145
 20
53.625067
 30
0.0
 10
92.875145
 20
68.152048
 30
0.0
  0
SPLINE
  5
157
100
AcDbEntity
  8
Imprimir
 62
5
100
AcDbSpline
 70
8
 71
3
 72
8
 73
4
 74
0
 40
0
 40
0
 40
0
 40
0
 40
1
 40
1
 40
1
 40
1
 10
94.471484
 20
68.243686
 30
0.0
 10
94.522241
 20
68.243686
 30
0.0
 10
94.563107
 20
68.202820
 30
0.0
 10
94.563107
 20
68.152048
 30
0.0
  0
LWPOLYLINE
  5
158
100
AcDbEntity
  8
Imprimir
 62
5
100
AcDbPolyline
 90
2
 70
1
 10
92.966765
 20
68.243686
 30
0.0
 10
94.471484
 20
68.243686
 30
0.0
  0
SPLINE
  5
159
100
AcDbEntity
  8
Imprimir
 62
5
100
AcDbSpline
 70
8
 71
3
 72
8
 73
4
 74
0
 40
0
 40
0
 40
0
 40
0
 40
1
 40
1
 40
1
 40
1
 10
94.563107
 20
53.625067
 30
0.0
 10
94.563107
 20
53.574323
 30
0.0
 10
94.522241
 20
53.533458
 30
0.0
 10
94.471484
 20
53.533458
 30
0.0
  0
LWPOLYLINE
  5
15a
100
AcDbEntity
  8
Imprimir
 62
5
100
AcDbPolyline
 90
2
 70
1
 10
94.563107
 20
68.152048
 30
0.0
 10
94.563107
 20
53.625067
 30
0.0
  0
LWPOLYLINE
  5
15b
100
AcDbEntity
  8
Imprimir
 62
5
100
AcDbPolyline
 90
2
 70
1
 10
94.471484
 20
53.533458
 30
0.0
 10
94.471484
 20
53.533458
 30
0.0
  0
SPLINE
  5
15c
100
AcDbEntity
  8
Imprimir
 62
5
100
AcDbSpline
 70
8
 71
3
 72
8
 73
4
 74
0
 40
0
 40
0
 40
0
 40
0
 40
1
 40
1
 40
1
 40
1
 10
88.919078
 20
53.654023
 30
0.0
 10
88.868317
 20
53.654023
 30
0.0
 10
88.827457
 20
53.694889
 30
0.0
 10
88.827457
 20
53.745660
 30
0.0
  0
LWPOLYLINE
  5
15d
100
AcDbEntity
  8
Imprimir
 62
5
100
AcDbPolyline
 90
2
 70
1
 10
90.423802
 20
53.654023
 30
0.0
 10
88.919078
 20
53.654023
 30
0.0
  0
SPLINE
  5
15e
100
AcDbEntity
  8
Imprimir
 62
5
100
AcDbSpline
 70
8
 71
3
 72
8
 73
4
 74
0
 40
0
 40
0
 40
0
 40
0
 40
1
 40
1
 40
1
 40
1
 10
88.827457
 20
68.272613
 30
0.0
 10
88.827457
 20
68.323385
 30
0.0
 10
88.868317
 20
68.364251
 30
0.0
 10
88.919078
 20
68.364251
 30
0.0
  0
LWPOLYLINE
  5
15f
100
AcDbEntity
  8
Imprimir
 62
5
100
AcDbPolyline
 90
2
 70
1
 10
88.827457
 20
53.745660
 30
0.0
 10
88.827457
 20
68.272613
 30
0.0
  0
SPLINE
  5
160
100
AcDbEntity
  8
Imprimir
 62
5
100
AcDbSpline
 70
8
 71
3
 72
8
 73
4
 74
0
 40
0
 40
0
 40
0
 40
0
 40
1
 40
1
 40
1
 40
1
 10
90.423802
 20
68.364251
 30
0.0
 10
90.474557
 20
68.364251
 30
0.0
 10
90.515420
 20
68.323385
 30
0.0
 10
90.515420
 20
68.272613
 30
0.0
  0
LWPOLYLINE
  5
161
100
AcDbEntity
  8
Imprimir
 62
5
100
AcDbPolyline
 90
2
 70
1
 10
88.919078
 20
68.364251
 30
0.0
 10
90.423802
 20
68.364251
 30
0.0
  0
SPLINE
  5
162
100
AcDbEntity
  8
Imprimir
 62
5
100
AcDbSpline
 70
8
 71
3
 72
8
 73
4
 74
0
 40
0
 40
0
 40
0
 40
0
 40
1
 40
1
 40
1
 40
1
 10
90.515420
 20
53.745660
 30
0.0
 10
90.515420
 20
53.694889
 30
0.0
 10
90.474557
 20
53.654023
 30
0.0
 10
90.423802
 20
53.654023
 30
0.0
  0
LWPOLYLINE
  5
163
100
AcDbEntity
  8
Imprimir
 62
5
100
AcDbPolyline
 90
2
 70
1
 10
90.515420
 20
68.272613
 30
0.0
 10
90.515420
 20
53.745660
 30
0.0
  0
SPLINE
  5
164
100
AcDbEntity
  8
Imprimir
 62
5
100
AcDbSpline
 70
8
 71
3
 72
8
 73
4
 74
0
 40
0
 40
0
 40
0
 40
0
 40
1
 40
1
 40
1
 40
1
 10
84.654455
 20
40.843354
 30
0.0
 10
84.654469
 20
41.599625
 30
0.0
 10
85.267518
 20
42.212696
 30
0.0
 10
86.023746
 20
42.212696
 30
0.0
  0
SPLINE
  5
165
100
AcDbEntity
  8
Imprimir
 62
5
100
AcDbSpline
 70
8
 71
3
 72
8
 73
4
 74
0
 40
0
 40
0
 40
0
 40
0
 40
1
 40
1
 40
1
 40
1
 10
86.023746
 20
42.212696
 30
0.0
 10
86.779975
 20
42.212696
 30
0.0
 10
87.393023
 20
41.599625
 30
0.0
 10
87.393038
 20
40.843354
 30
0.0
  0
SPLINE
  5
166
100
AcDbEntity
  8
Imprimir
 62
5
100
AcDbSpline
 70
8
 71
3
 72
8
 73
4
 74
0
 40
0
 40
0
 40
0
 40
0
 40
1
 40
1
 40
1
 40
1
 10
87.393038
 20
40.843354
 30
0.0
 10
87.393039
 20
40.480174
 30
0.0
 10
87.248775
 20
40.131868
 30
0.0
 10
86.991983
 20
39.875061
 30
0.0
  0
SPLINE
  5
167
100
AcDbEntity
  8
Imprimir
 62
5
100
AcDbSpline
 70
8
 71
3
 72
8
 73
4
 74
0
 40
0
 40
0
 40
0
 40
0
 40
1
 40
1
 40
1
 40
1
 10
86.991983
 20
39.875061
 30
0.0
 10
86.735191
 20
39.618253
 30
0.0
 10
86.386906
 20
39.473980
 30
0.0
 10
86.023746
 20
39.473980
 30
0.0
  0
SPLINE
  5
168
100
AcDbEntity
  8
Imprimir
 62
5
100
AcDbSpline
 70
8
 71
3
 72
8
 73
4
 74
0
 40
0
 40
0
 40
0
 40
0
 40
1
 40
1
 40
1
 40
1
 10
86.023746
 20
39.473980
 30
0.0
 10
85.660587
 20
39.473980
 30
0.0
 10
85.312301
 20
39.618253
 30
0.0
 10
85.055509
 20
39.875061
 30
0.0
  0
SPLINE
  5
169
100
AcDbEntity
  8
Imprimir
 62
5
100
AcDbSpline
 70
8
 71
3
 72
8
 73
4
 74
0
 40
0
 40
0
 40
0
 40
0
 40
1
 40
1
 40
1
 40
1
 10
85.055509
 20
39.875061
 30
0.0
 10
84.798717
 20
40.131868
 30
0.0
 10
84.654454
 20
40.480174
 30
0.0
 10
84.654455
 20
40.843354
 30
0.0
  0
LWPOLYLINE
  5
16a
100
AcDbEntity
  8
Imprimir
 62
5
100
AcDbPolyline
 90
2
 70
1
 10
90.423802
 20
53.654023
 30
0.0
 10
90.423802
 20
53.654023
 30
0.0
  0
SPLINE
  5
16b
100
AcDbEntity
  8
Imprimir
 62
5
100
AcDbSpline
 70
8
 71
3
 72
8
 73
4
 74
0
 40
0
 40
0
 40
0
 40
0
 40
1
 40
1
 40
1
 40
1
 10
143.612598
 20
41.084513
 30
0.0
 10
143.612613
 20
41.840783
 30
0.0
 10
144.225659
 20
42.453854
 30
0.0
 10
144.981887
 20
42.453855
 30
0.0
  0
SPLINE
  5
16c
100
AcDbEntity
  8
Imprimir
 62
5
100
AcDbSpline
 70
8
 71
3
 72
8
 73
4
 74
0
 40
0
 40
0
 40
0
 40
0
 40
1
 40
1
 40
1
 40
1
 10
144.981887
 20
42.453855
 30
0.0
 10
145.738115
 20
42.453855
 30
0.0
 10
146.351164
 20
41.840784
 30
0.0
 10
146.351178
 20
41.084513
 30
0.0
  0
SPLINE
  5
16d
100
AcDbEntity
  8
Imprimir
 62
5
100
AcDbSpline
 70
8
 71
3
 72
8
 73
4
 74
0
 40
0
 40
0
 40
0
 40
0
 40
1
 40
1
 40
1
 40
1
 10
146.351178
 20
41.084513
 30
0.0
 10
146.351179
 20
40.721333
 30
0.0
 10
146.206915
 20
40.373028
 30
0.0
 10
145.950123
 20
40.116222
 30
0.0
  0
SPLINE
  5
16e
100
AcDbEntity
  8
Imprimir
 62
5
100
AcDbSpline
 70
8
 71
3
 72
8
 73
4
 74
0
 40
0
 40
0
 40
0
 40
0
 40
1
 40
1
 40
1
 40
1
 10
145.950123
 20
40.116222
 30
0.0
 10
145.693331
 20
39.859415
 30
0.0
 10
145.345046
 20
39.715142
 30
0.0
 10
144.981887
 20
39.715142
 30
0.0
  0
SPLINE
  5
16f
100
AcDbEntity
  8
Imprimir
 62
5
100
AcDbSpline
 70
8
 71
3
 72
8
 73
4
 74
0
 40
0
 40
0
 40
0
 40
0
 40
1
 40
1
 40
1
 40
1
 10
144.981887
 20
39.715142
 30
0.0
 10
144.225648
 20
39.715144
 30
0.0
 10
143.612597
 20
40.328232
 30
0.0
 10
143.612598
 20
41.084513
 30
0.0
  0
LWPOLYLINE
  5
170
100
AcDbEntity
  8
Imprimir
 62
5
100
AcDbPolyline
 90
2
 70
1
 10
84.654455
 20
40.843354
 30
0.0
 10
84.654455
 20
40.843354
 30
0.0
  0
SPLINE
  5
171
100
AcDbEntity
  8
Imprimir
 62
5
100
AcDbSpline
 70
8
 71
3
 72
8
 73
4
 74
0
 40
0
 40
0
 40
0
 40
0
 40
1
 40
1
 40
1
 40
1
 10
143.612598
 20
90.038203
 30
0.0
 10
143.612597
 20
90.401382
 30
0.0
 10
143.756860
 20
90.749687
 30
0.0
 10
144.013652
 20
91.006495
 30
0.0
  0
SPLINE
  5
172
100
AcDbEntity
  8
Imprimir
 62
5
100
AcDbSpline
 70
8
 71
3
 72
8
 73
4
 74
0
 40
0
 40
0
 40
0
 40
0
 40
1
 40
1
 40
1
 40
1
 10
144.013652
 20
91.006495
 30
0.0
 10
144.270443
 20
91.263302
 30
0.0
 10
144.618728
 20
91.407576
 30
0.0
 10
144.981887
 20
91.407576
 30
0.0
  0
SPLINE
  5
173
100
AcDbEntity
  8
Imprimir
 62
5
100
AcDbSpline
 70
8
 71
3
 72
8
 73
4
 74
0
 40
0
 40
0
 40
0
 40
0
 40
1
 40
1
 40
1
 40
1
 10
144.981887
 20
91.407576
 30
0.0
 10
145.345046
 20
91.407576
 30
0.0
 10
145.693332
 20
91.263303
 30
0.0
 10
145.950124
 20
91.006496
 30
0.0
  0
SPLINE
  5
174
100
AcDbEntity
  8
Imprimir
 62
5
100
AcDbSpline
 70
8
 71
3
 72
8
 73
4
 74
0
 40
0
 40
0
 40
0
 40
0
 40
1
 40
1
 40
1
 40
1
 10
145.950124
 20
91.006496
 30
0.0
 10
146.206916
 20
90.749688
 30
0.0
 10
146.351180
 20
90.401383
 30
0.0
 10
146.351178
 20
90.038203
 30
0.0
  0
SPLINE
  5
175
100
AcDbEntity
  8
Imprimir
 62
5
100
AcDbSpline
 70
8
 71
3
 72
8
 73
4
 74
0
 40
0
 40
0
 40
0
 40
0
 40
1
 40
1
 40
1
 40
1
 10
146.351178
 20
90.038203
 30
0.0
 10
146.351179
 20
89.675023
 30
0.0
 10
146.206915
 20
89.326719
 30
0.0
 10
145.950123
 20
89.069912
 30
0.0
  0
SPLINE
  5
176
100
AcDbEntity
  8
Imprimir
 62
5
100
AcDbSpline
 70
8
 71
3
 72
8
 73
4
 74
0
 40
0
 40
0
 40
0
 40
0
 40
1
 40
1
 40
1
 40
1
 10
145.950123
 20
89.069912
 30
0.0
 10
145.693331
 20
88.813105
 30
0.0
 10
145.345046
 20
88.668832
 30
0.0
 10
144.981887
 20
88.668832
 30
0.0
  0
SPLINE
  5
177
100
AcDbEntity
  8
Imprimir
 62
5
100
AcDbSpline
 70
8
 71
3
 72
8
 73
4
 74
0
 40
0
 40
0
 40
0
 40
0
 40
1
 40
1
 40
1
 40
1
 10
144.981887
 20
88.668832
 30
0.0
 10
144.225648
 20
88.668834
 30
0.0
 10
143.612597
 20
89.281922
 30
0.0
 10
143.612598
 20
90.038203
 30
0.0
  0
LWPOLYLINE
  5
178
100
AcDbEntity
  8
Imprimir
 62
5
100
AcDbPolyline
 90
2
 70
1
 10
143.612598
 20
41.084513
 30
0.0
 10
143.612598
 20
41.084513
 30
0.0
  0
SPLINE
  5
179
100
AcDbEntity
  8
Imprimir
 62
5
100
AcDbSpline
 70
8
 71
3
 72
8
 73
4
 74
0
 40
0
 40
0
 40
0
 40
0
 40
1
 40
1
 40
1
 40
1
 10
84.895594
 20
90.038203
 30
0.0
 10
84.895593
 20
90.401383
 30
0.0
 10
85.039857
 20
90.749689
 30
0.0
 10
85.296649
 20
91.006497
 30
0.0
  0
SPLINE
  5
17a
100
AcDbEntity
  8
Imprimir
 62
5
100
AcDbSpline
 70
8
 71
3
 72
8
 73
4
 74
0
 40
0
 40
0
 40
0
 40
0
 40
1
 40
1
 40
1
 40
1
 10
85.296649
 20
91.006497
 30
0.0
 10
85.553442
 20
91.263304
 30
0.0
 10
85.901728
 20
91.407577
 30
0.0
 10
86.264888
 20
91.407576
 30
0.0
  0
SPLINE
  5
17b
100
AcDbEntity
  8
Imprimir
 62
5
100
AcDbSpline
 70
8
 71
3
 72
8
 73
4
 74
0
 40
0
 40
0
 40
0
 40
0
 40
1
 40
1
 40
1
 40
1
 10
86.264888
 20
91.407576
 30
0.0
 10
86.628047
 20
91.407576
 30
0.0
 10
86.976332
 20
91.263302
 30
0.0
 10
87.233123
 20
91.006495
 30
0.0
  0
SPLINE
  5
17c
100
AcDbEntity
  8
Imprimir
 62
5
100
AcDbSpline
 70
8
 71
3
 72
8
 73
4
 74
0
 40
0
 40
0
 40
0
 40
0
 40
1
 40
1
 40
1
 40
1
 10
87.233123
 20
91.006495
 30
0.0
 10
87.489915
 20
90.749687
 30
0.0
 10
87.634178
 20
90.401382
 30
0.0
 10
87.634177
 20
90.038203
 30
0.0
  0
SPLINE
  5
17d
100
AcDbEntity
  8
Imprimir
 62
5
100
AcDbSpline
 70
8
 71
3
 72
8
 73
4
 74
0
 40
0
 40
0
 40
0
 40
0
 40
1
 40
1
 40
1
 40
1
 10
87.634177
 20
90.038203
 30
0.0
 10
87.634178
 20
89.281922
 30
0.0
 10
87.021127
 20
88.668834
 30
0.0
 10
86.264888
 20
88.668832
 30
0.0
  0
SPLINE
  5
17e
100
AcDbEntity
  8
Imprimir
 62
5
100
AcDbSpline
 70
8
 71
3
 72
8
 73
4
 74
0
 40
0
 40
0
 40
0
 40
0
 40
1
 40
1
 40
1
 40
1
 10
86.264888
 20
88.668832
 30
0.0
 10
85.901729
 20
88.668832
 30
0.0
 10
85.553443
 20
88.813104
 30
0.0
 10
85.296650
 20
89.069911
 30
0.0
  0
SPLINE
  5
17f
100
AcDbEntity
  8
Imprimir
 62
5
100
AcDbSpline
 70
8
 71
3
 72
8
 73
4
 74
0
 40
0
 40
0
 40
0
 40
0
 40
1
 40
1
 40
1
 40
1
 10
85.296650
 20
89.069911
 30
0.0
 10
85.039858
 20
89.326718
 30
0.0
 10
84.895593
 20
89.675023
 30
0.0
 10
84.895594
 20
90.038203
 30
0.0
  0
LWPOLYLINE
  5
180
100
AcDbEntity
  8
Imprimir
 62
5
100
AcDbPolyline
 90
2
 70
1
 10
143.612598
 20
90.038203
 30
0.0
 10
143.612598
 20
90.038203
 30
0.0
  0
LWPOLYLINE
  5
181
100
AcDbEntity
  8
Imprimir
 62
5
100
AcDbPolyline
 90
2
 70
1
 10
84.895594
 20
90.038203
 30
0.0
 10
84.895594
 20
90.038203
 30
0.0
  0
SPLINE
  5
182
100
AcDbEntity
  8
Imprimir
 62
5
100
AcDbSpline
 70
8
 71
3
 72
8
 73
4
 74
0
 40
0
 40
0
 40
0
 40
0
 40
1
 40
1
 40
1
 40
1
 10
159.260140
 20
24.086947
 30
0.0
 10
159.260153
 20
24.843219
 30
0.0
 10
159.873202
 20
25.456292
 30
0.0
 10
160.629432
 20
25.456292
 30
0.0
  0
SPLINE
  5
183
100
AcDbEntity
  8
Imprimir
 62
5
100
AcDbSpline
 70
8
 71
3
 72
8
 73
4
 74
0
 40
0
 40
0
 40
0
 40
0
 40
1
 40
1
 40
1
 40
1
 10
160.629432
 20
25.456292
 30
0.0
 10
161.385661
 20
25.456292
 30
0.0
 10
161.998710
 20
24.843219
 30
0.0
 10
161.998723
 20
24.086947
 30
0.0
  0
SPLINE
  5
184
100
AcDbEntity
  8
Imprimir
 62
5
100
AcDbSpline
 70
8
 71
3
 72
8
 73
4
 74
0
 40
0
 40
0
 40
0
 40
0
 40
1
 40
1
 40
1
 40
1
 10
161.998723
 20
24.086947
 30
0.0
 10
161.998724
 20
23.723767
 30
0.0
 10
161.854460
 20
23.375462
 30
0.0
 10
161.597668
 20
23.118656
 30
0.0
  0
SPLINE
  5
185
100
AcDbEntity
  8
Imprimir
 62
5
100
AcDbSpline
 70
8
 71
3
 72
8
 73
4
 74
0
 40
0
 40
0
 40
0
 40
0
 40
1
 40
1
 40
1
 40
1
 10
161.597668
 20
23.118656
 30
0.0
 10
161.340876
 20
22.861849
 30
0.0
 10
160.992591
 20
22.717576
 30
0.0
 10
160.629432
 20
22.717576
 30
0.0
  0
SPLINE
  5
186
100
AcDbEntity
  8
Imprimir
 62
5
100
AcDbSpline
 70
8
 71
3
 72
8
 73
4
 74
0
 40
0
 40
0
 40
0
 40
0
 40
1
 40
1
 40
1
 40
1
 10
160.629432
 20
22.717576
 30
0.0
 10
160.266273
 20
22.717576
 30
0.0
 10
159.917988
 20
22.861849
 30
0.0
 10
159.661196
 20
23.118656
 30
0.0
  0
SPLINE
  5
187
100
AcDbEntity
  8
Imprimir
 62
5
100
AcDbSpline
 70
8
 71
3
 72
8
 73
4
 74
0
 40
0
 40
0
 40
0
 40
0
 40
1
 40
1
 40
1
 40
1
 10
159.661196
 20
23.118656
 30
0.0
 10
159.404404
 20
23.375462
 30
0.0
 10
159.260140
 20
23.723767
 30
0.0
 10
159.260140
 20
24.086947
 30
0.0
  0
LWPOLYLINE
  5
188
100
AcDbEntity
  8
Imprimir
 62
5
100
AcDbPolyline
 90
157
 70
1
 10
59.804417
 20
33.049978
 30
0.0
 10
59.804417
 20
39.049998
 30
0.0
 10
62.804422
 20
39.049998
 30
0.0
 10
62.804422
 20
45.049992
 30
0.0
 10
59.804417
 20
45.049992
 30
0.0
 10
59.804417
 20
51.050015
 30
0.0
 10
62.804422
 20
51.050015
 30
0.0
 10
62.804422
 20
57.050034
 30
0.0
 10
59.804417
 20
57.050034
 30
0.0
 10
59.804417
 20
63.050029
 30
0.0
 10
62.804422
 20
63.050029
 30
0.0
 10
62.804422
 20
69.050051
 30
0.0
 10
59.804417
 20
69.050051
 30
0.0
 10
59.804417
 20
75.050045
 30
0.0
 10
62.804422
 20
75.050045
 30
0.0
 10
62.804422
 20
81.050096
 30
0.0
 10
59.804417
 20
81.050096
 30
0.0
 10
59.804417
 20
88.550101
 30
0.0
 10
62.804422
 20
88.550101
 30
0.0
 10
62.804422
 20
93.050110
 30
0.0
 10
69.804433
 20
93.050110
 30
0.0
 10
69.804433
 20
96.050135
 30
0.0
 10
79.804449
 20
96.050135
 30
0.0
 10
79.804449
 20
93.050110
 30
0.0
 10
85.804460
 20
93.050110
 30
0.0
 10
85.804460
 20
96.050135
 30
0.0
 10
91.804467
 20
96.050135
 30
0.0
 10
91.804467
 20
93.050110
 30
0.0
 10
97.804477
 20
93.050110
 30
0.0
 10
97.804477
 20
96.050135
 30
0.0
 10
103.804487
 20
96.050135
 30
0.0
 10
103.804487
 20
93.050110
 30
0.0
 10
109.804498
 20
93.050110
 30
0.0
 10
109.804498
 20
96.050135
 30
0.0
 10
115.804505
 20
96.050135
 30
0.0
 10
115.804505
 20
93.050110
 30
0.0
 10
121.804515
 20
93.050110
 30
0.0
 10
121.804515
 20
96.050135
 30
0.0
 10
127.804525
 20
96.050135
 30
0.0
 10
127.804525
 20
93.050110
 30
0.0
 10
133.804536
 20
93.050110
 30
0.0
 10
133.804536
 20
96.050135
 30
0.0
 10
139.804546
 20
96.050135
 30
0.0
 10
139.804546
 20
93.050110
 30
0.0
 10
145.804553
 20
93.050110
 30
0.0
 10
145.804553
 20
96.050135
 30
0.0
 10
151.804564
 20
96.050135
 30
0.0
 10
151.804564
 20
93.050110
 30
0.0
 10
157.804574
 20
93.050110
 30
0.0
 10
157.804574
 20
96.050135
 30
0.0
 10
163.804584
 20
96.050135
 30
0.0
 10
163.804584
 20
93.050110
 30
0.0
 10
169.804591
 20
93.050110
 30
0.0
 10
169.804591
 20
96.050135
 30
0.0
 10
175.804602
 20
96.050135
 30
0.0
 10
175.804602
 20
93.050110
 30
0.0
 10
181.804612
 20
93.050110
 30
0.0
 10
181.804612
 20
96.050135
 30
0.0
 10
187.804622
 20
96.050135
 30
0.0
 10
187.804622
 20
93.050110
 30
0.0
 10
193.804632
 20
93.050110
 30
0.0
 10
193.804632
 20
96.050135
 30
0.0
 10
199.804647
 20
96.050135
 30
0.0
 10
199.804647
 20
93.050110
 30
0.0
 10
205.804657
 20
93.050110
 30
0.0
 10
205.804657
 20
96.050135
 30
0.0
 10
215.804672
 20
96.050135
 30
0.0
 10
215.804672
 20
93.050110
 30
0.0
 10
222.804682
 20
93.050110
 30
0.0
 10
222.804682
 20
88.550101
 30
0.0
 10
225.804687
 20
88.550101
 30
0.0
 10
225.804687
 20
81.050096
 30
0.0
 10
222.804682
 20
81.050096
 30
0.0
 10
222.804682
 20
75.050045
 30
0.0
 10
225.804687
 20
75.050045
 30
0.0
 10
225.804687
 20
69.050051
 30
0.0
 10
222.804682
 20
69.050051
 30
0.0
 10
222.804682
 20
63.050029
 30
0.0
 10
225.804687
 20
63.050029
 30
0.0
 10
225.804687
 20
57.050034
 30
0.0
 10
222.804682
 20
57.050034
 30
0.0
 10
222.804682
 20
51.050015
 30
0.0
 10
225.804687
 20
51.050015
 30
0.0
 10
225.804687
 20
45.049992
 30
0.0
 10
222.804682
 20
45.049992
 30
0.0
 10
222.804682
 20
39.049998
 30
0.0
 10
225.804687
 20
39.049998
 30
0.0
 10
225.804687
 20
33.049978
 30
0.0
 10
222.804682
 20
33.049978
 30
0.0
 10
222.804682
 20
27.049973
 30
0.0
 10
225.804687
 20
27.049973
 30
0.0
 10
225.804687
 20
21.049950
 30
0.0
 10
222.804682
 20
21.049950
 30
0.0
 10
222.804682
 20
15.049931
 30
0.0
 10
225.804687
 20
15.049931
 30
0.0
 10
225.804687
 20
7.549925
 30
0.0
 10
222.804682
 20
7.549925
 30
0.0
 10
222.804682
 20
3.049914
 30
0.0
 10
215.804672
 20
3.049914
 30
0.0
 10
215.804672
 20
0.049920
 30
0.0
 10
205.804657
 20
0.049920
 30
0.0
 10
205.804657
 20
3.049914
 30
0.0
 10
199.804647
 20
3.049914
 30
0.0
 10
199.804647
 20
0.049920
 30
0.0
 10
193.804632
 20
0.049920
 30
0.0
 10
193.804632
 20
3.049914
 30
0.0
 10
187.804622
 20
3.049914
 30
0.0
 10
187.804622
 20
0.049920
 30
0.0
 10
181.804612
 20
0.049920
 30
0.0
 10
181.804612
 20
3.049914
 30
0.0
 10
175.804602
 20
3.049914
 30
0.0
 10
175.804602
 20
0.049920
 30
0.0
 10
169.804591
 20
0.049920
 30
0.0
 10
169.804591
 20
3.049914
 30
0.0
 10
163.804584
 20
3.049914
 30
0.0
 10
163.804584
 20
0.049920
 30
0.0
 10
157.804574
 20
0.049920
 30
0.0
 10
157.804574
 20
3.049914
 30
0.0
 10
151.804564
 20
3.049914
 30
0.0
 10
151.804564
 20
0.049920
 30
0.0
 10
145.804553
 20
0.049920
 30
0.0
 10
145.804553
 20
3.049914
 30
0.0
 10
139.804546
 20
3.049914
 30
0.0
 10
139.804546
 20
0.049920
 30
0.0
 10
133.804536
 20
0.049920
 30
0.0
 10
133.804536
 20
3.049914
 30
0.0
 10
127.804525
 20
3.049914
 30
0.0
 10
127.804525
 20
0.049920
 30
0.0
 10
121.804515
 20
0.049920
 30
0.0
 10
121.804515
 20
3.049914
 30
0.0
 10
115.804505
 20
3.049914
 30
0.0
 10
115.804505
 20
0.049920
 30
0.0
 10
109.804498
 20
0.049920
 30
0.0
 10
109.804498
 20
3.049914
 30
0.0
 10
103.804487
 20
3.049914
 30
0.0
 10
103.804487
 20
0.049920
 30
0.0
 10
97.804477
 20
0.049920
 30
0.0
 10
97.804477
 20
3.049914
 30
0.0
 10
91.804467
 20
3.049914
 30
0.0
 10
91.804467
 20
0.049920
 30
0.0
 10
85.804460
 20
0.049920
 30
0.0
 10
85.804460
 20
3.049914
 30
0.0
 10
79.804449
 20
3.049914
 30
0.0
 10
79.804449
 20
0.049920
 30
0.0
 10
69.804433
 20
0.049920
 30
0.0
 10
69.804433
 20
3.049914
 30
0.0
 10
62.804422
 20
3.049914
 30
0.0
 10
62.804422
 20
7.549925
 30
0.0
 10
59.804417
 20
7.549925
 30
0.0
 10
59.804417
 20
15.049931
 30
0.0
 10
62.804422
 20
15.049931
 30
0.0
 10
62.804422
 20
21.049950
 30
0.0
 10
59.804417
 20
21.049950
 30
0.0
 10
59.804417
 20
27.049973
 30
0.0
 10
62.804422
 20
27.049973
 30
0.0
 10
62.804422
 20
33.049978
 30
0.0
 10
59.804417
 20
33.049978
 30
0.0
  0
SPLINE
  5
189
100
AcDbEntity
  8
Imprimir
 62
5
100
AcDbSpline
 70
8
 71
3
 72
8
 73
4
 74
0
 40
0
 40
0
 40
0
 40
0
 40
1
 40
1
 40
1
 40
1
 10
198.760208
 20
14.086929
 30
0.0
 10
198.760221
 20
14.843201
 30
0.0
 10
199.373269
 20
15.456274
 30
0.0
 10
200.129499
 20
15.456274
 30
0.0
  0
SPLINE
  5
18a
100
AcDbEntity
  8
Imprimir
 62
5
100
AcDbSpline
 70
8
 71
3
 72
8
 73
4
 74
0
 40
0
 40
0
 40
0
 40
0
 40
1
 40
1
 40
1
 40
1
 10
200.129499
 20
15.456274
 30
0.0
 10
200.885729
 20
15.456275
 30
0.0
 10
201.498778
 20
14.843202
 30
0.0
 10
201.498791
 20
14.086929
 30
0.0
  0
SPLINE
  5
18b
100
AcDbEntity
  8
Imprimir
 62
5
100
AcDbSpline
 70
8
 71
3
 72
8
 73
4
 74
0
 40
0
 40
0
 40
0
 40
0
 40
1
 40
1
 40
1
 40
1
 10
201.498791
 20
14.086929
 30
0.0
 10
201.498792
 20
13.723749
 30
0.0
 10
201.354528
 20
13.375444
 30
0.0
 10
201.097735
 20
13.118637
 30
0.0
  0
SPLINE
  5
18c
100
AcDbEntity
  8
Imprimir
 62
5
100
AcDbSpline
 70
8
 71
3
 72
8
 73
4
 74
0
 40
0
 40
0
 40
0
 40
0
 40
1
 40
1
 40
1
 40
1
 10
201.097735
 20
13.118637
 30
0.0
 10
200.840943
 20
12.861831
 30
0.0
 10
200.492658
 20
12.717558
 30
0.0
 10
200.129499
 20
12.717558
 30
0.0
  0
SPLINE
  5
18d
100
AcDbEntity
  8
Imprimir
 62
5
100
AcDbSpline
 70
8
 71
3
 72
8
 73
4
 74
0
 40
0
 40
0
 40
0
 40
0
 40
1
 40
1
 40
1
 40
1
 10
200.129499
 20
12.717558
 30
0.0
 10
199.766340
 20
12.717559
 30
0.0
 10
199.418055
 20
12.861831
 30
0.0
 10
199.161263
 20
13.118638
 30
0.0
  0
SPLINE
  5
18e
100
AcDbEntity
  8
Imprimir
 62
5
100
AcDbSpline
 70
8
 71
3
 72
8
 73
4
 74
0
 40
0
 40
0
 40
0
 40
0
 40
1
 40
1
 40
1
 40
1
 10
199.161263
 20
13.118638
 30
0.0
 10
198.904471
 20
13.375445
 30
0.0
 10
198.760207
 20
13.723750
 30
0.0
 10
198.760208
 20
14.086929
 30
0.0
  0
LWPOLYLINE
  5
18f
100
AcDbEntity
  8
Imprimir
 62
5
100
AcDbPolyline
 90
2
 70
1
 10
159.260140
 20
24.086947
 30
0.0
 10
159.260140
 20
24.086947
 30
0.0
  0
LWPOLYLINE
  5
190
100
AcDbEntity
  8
Imprimir
 62
5
100
AcDbPolyline
 90
2
 70
1
 10
198.760208
 20
14.086929
 30
0.0
 10
198.760208
 20
14.086929
 30
0.0
  0
ENDSEC
  0
SECTION
  2
OBJECTS
  0
DICTIONARY
  5
C
330
0
100
AcDbDictionary
  3
ACAD_GROUP
350
D
  3
ACAD_MLINESTYLE
350
17
  0
DICTIONARY
  5
D
330
C
100
AcDbDictionary
  0
DICTIONARY
  5
1A
330
C
100
AcDbDictionary
  0
DICTIONARY
  5
17
330
C
100
AcDbDictionary
  3
STANDARD
350
18
  0
DICTIONARY
  5
19
330
C
100
AcDbDictionary
  0
ENDSEC
  0
EOF
