  0
SECTION
  2
HEADER
  9
$ACADVER
  1
AC1014
  9
$HANDSEED
  5
FFFF
  9
$MEASUREMENT
 70
     1
  0
ENDSEC
  0
SECTION
  2
TABLES
  0
TABLE
  2
VPORT
  5
8
330
0
100
AcDbSymbolTable
 70
     4
  0
VPORT
  5
2E
330
8
100
AcDbSymbolTableRecord
100
AcDbViewportTableRecord
  2
*ACTIVE
 70
     0
 10
0.0
 20
0.0
 11
1.0
 21
1.0
 12
210.0
 22
148.5
 13
0.0
 23
0.0
 14
10.0
 24
10.0
 15
10.0
 25
10.0
 16
0.0
 26
0.0
 36
1.0
 17
0.0
 27
0.0
 37
0.0
 40
341.0
 41
1.24
 42
50.0
 43
0.0
 44
0.0
 50
0.0
 51
0.0
 71
     0
 72
   100
 73
     1
 74
     3
 75
     0
 76
     0
 77
     0
 78
     0
  0
ENDTAB
  0
TABLE
  2
LTYPE
  5
5
330
0
100
AcDbSymbolTable
 70
     1
  0
LTYPE
  5
14
330
5
100
AcDbSymbolTableRecord
100
AcDbLinetypeTableRecord
  2
BYBLOCK
 70
     0
  3

 72
    65
 73
     0
 40
0.0
  0
LTYPE
  5
15
330
5
100
AcDbSymbolTableRecord
100
AcDbLinetypeTableRecord
  2
BYLAYER
 70
     0
  3

 72
    65
 73
     0
 40
0.0
  0
LTYPE
  5
16
330
5
100
AcDbSymbolTableRecord
100
AcDbLinetypeTableRecord
  2
CONTINUOUS
 70
     0
  3
Solid line
 72
    65
 73
     0
 40
0.0
  0
ENDTAB
  0
TABLE
  2
LAYER
  5
2
100
AcDbSymbolTable
 70
2
  0
LAYER
  5
50
100
AcDbSymbolTableRecord
100
AcDbLayerTableRecord
  2
0
 70
0
  6
CONTINUOUS
  0
LAYER
  5
51
100
AcDbSymbolTableRecord
100
AcDbLayerTableRecord
  2
Imprimir
 70
0
  6
CONTINUOUS
  0
ENDTAB
  0
TABLE
  2
STYLE
  5
3
330
0
100
AcDbSymbolTable
 70
     1
  0
STYLE
  5
11
330
3
100
AcDbSymbolTableRecord
100
AcDbTextStyleTableRecord
  2
STANDARD
 70
     0
 40
0.0
 41
1.0
 50
0.0
 71
     0
 42
2.5
  3
txt
  4

  0
ENDTAB
  0
TABLE
  2
VIEW
  5
6
330
0
100
AcDbSymbolTable
 70
     0
  0
ENDTAB
  0
TABLE
  2
UCS
  5
7
330
0
100
AcDbSymbolTable
 70
     0
  0
ENDTAB
  0
TABLE
  2
APPID
  5
9
330
0
100
AcDbSymbolTable
 70
     2
  0
APPID
  5
12
330
9
100
AcDbSymbolTableRecord
100
AcDbRegAppTableRecord
  2
ACAD
 70
     0
  0
ENDTAB
  0
TABLE
  2
DIMSTYLE
  5
A
330
0
100
AcDbSymbolTable
 70
     1
  0
DIMSTYLE
105
27
330
A
100
AcDbSymbolTableRecord
100
AcDbDimStyleTableRecord
  2
ISO-25
 70
     0
  3

  4

  5

  6

  7

 40
1.0
 41
2.5
 42
0.625
 43
3.75
 44
1.25
 45
0.0
 46
0.0
 47
0.0
 48
0.0
140
2.5
141
2.5
142
0.0
143
0.03937007874016
144
1.0
145
0.0
146
1.0
147
0.625
 71
     0
 72
     0
 73
     0
 74
     0
 75
     0
 76
     0
 77
     1
 78
     8
170
     0
171
     3
172
     1
173
     0
174
     0
175
     0
176
     0
177
     0
178
     0
270
     2
271
     2
272
     2
273
     2
274
     3
340
11
275
     0
280
     0
281
     0
282
     0
283
     0
284
     8
285
     0
286
     0
287
     3
288
     0
  0
ENDTAB
  0
TABLE
  2
BLOCK_RECORD
  5
1
330
0
100
AcDbSymbolTable
 70
     1
  0
BLOCK_RECORD
  5
1F
330
1
100
AcDbSymbolTableRecord
100
AcDbBlockTableRecord
  2
*MODEL_SPACE
  0
BLOCK_RECORD
  5
1B
330
1
100
AcDbSymbolTableRecord
100
AcDbBlockTableRecord
  2
*PAPER_SPACE
  0
ENDTAB
  0
ENDSEC
  0
SECTION
  2
BLOCKS
  0
BLOCK
  5
20
330
1F
100
AcDbEntity
  8
0
100
AcDbBlockBegin
  2
*MODEL_SPACE
 70
     0
 10
0.0
 20
0.0
 30
0.0
  3
*MODEL_SPACE
  1

  0
ENDBLK
  5
21
330
1F
100
AcDbEntity
  8
0
100
AcDbBlockEnd
  0
BLOCK
  5
1C
330
1B
100
AcDbEntity
 67
     1
  8
0
100
AcDbBlockBegin
  2
*PAPER_SPACE
  1

  0
ENDBLK
  5
1D
330
1B
100
AcDbEntity
 67
     1
  8
0
100
AcDbBlockEnd
  0
ENDSEC
  0
SECTION
  2
ENTITIES
  0
SPLINE
  5
100
100
AcDbEntity
  8
0
 62
5
100
AcDbSpline
 70
8
 71
3
 72
8
 73
4
 74
0
 40
0
 40
0
 40
0
 40
0
 40
1
 40
1
 40
1
 40
1
 10
46.689583
 20
56.264233
 30
0.0
 10
46.685039
 20
51.807922
 30
0.0
 10
46.698642
 20
47.351159
 30
0.0
 10
46.682781
 20
42.895132
 30
0.0
  0
SPLINE
  5
101
100
AcDbEntity
  8
0
 62
5
100
AcDbSpline
 70
8
 71
3
 72
8
 73
4
 74
0
 40
0
 40
0
 40
0
 40
0
 40
1
 40
1
 40
1
 40
1
 10
46.682781
 20
42.895132
 30
0.0
 10
46.628013
 20
42.083769
 30
0.0
 10
45.795257
 20
41.596504
 30
0.0
 10
45.040299
 20
41.707014
 30
0.0
  0
SPLINE
  5
102
100
AcDbEntity
  8
0
 62
5
100
AcDbSpline
 70
8
 71
3
 72
8
 73
4
 74
0
 40
0
 40
0
 40
0
 40
0
 40
1
 40
1
 40
1
 40
1
 10
45.040299
 20
41.707014
 30
0.0
 10
40.391385
 20
41.711557
 30
0.0
 10
35.742014
 20
41.697926
 30
0.0
 10
31.093385
 20
41.713815
 30
0.0
  0
SPLINE
  5
103
100
AcDbEntity
  8
0
 62
5
100
AcDbSpline
 70
8
 71
3
 72
8
 73
4
 74
0
 40
0
 40
0
 40
0
 40
0
 40
1
 40
1
 40
1
 40
1
 10
31.093385
 20
41.713815
 30
0.0
 10
30.282018
 20
41.768595
 30
0.0
 10
29.794790
 20
42.601373
 30
0.0
 10
29.905294
 20
43.356326
 30
0.0
  0
SPLINE
  5
104
100
AcDbEntity
  8
0
 62
5
100
AcDbSpline
 70
8
 71
3
 72
8
 73
4
 74
0
 40
0
 40
0
 40
0
 40
0
 40
1
 40
1
 40
1
 40
1
 10
29.905294
 20
43.356326
 30
0.0
 10
29.909838
 20
47.704146
 30
0.0
 10
29.896235
 20
52.052420
 30
0.0
 10
29.912096
 20
56.399954
 30
0.0
  0
SPLINE
  5
105
100
AcDbEntity
  8
0
 62
5
100
AcDbSpline
 70
8
 71
3
 72
8
 73
4
 74
0
 40
0
 40
0
 40
0
 40
0
 40
1
 40
1
 40
1
 40
1
 10
29.912096
 20
56.399954
 30
0.0
 10
29.966864
 20
57.211318
 30
0.0
 10
30.799619
 20
57.698583
 30
0.0
 10
31.554578
 20
57.588073
 30
0.0
  0
SPLINE
  5
106
100
AcDbEntity
  8
0
 62
5
100
AcDbSpline
 70
8
 71
3
 72
8
 73
4
 74
0
 40
0
 40
0
 40
0
 40
0
 40
1
 40
1
 40
1
 40
1
 10
31.554578
 20
57.588073
 30
0.0
 10
36.203492
 20
57.583529
 30
0.0
 10
40.852863
 20
57.597160
 30
0.0
 10
45.501492
 20
57.581271
 30
0.0
  0
SPLINE
  5
107
100
AcDbEntity
  8
0
 62
5
100
AcDbSpline
 70
8
 71
3
 72
8
 73
4
 74
0
 40
0
 40
0
 40
0
 40
0
 40
1
 40
1
 40
1
 40
1
 10
45.501492
 20
57.581271
 30
0.0
 10
46.160851
 20
57.527646
 30
0.0
 10
46.703626
 20
56.925779
 30
0.0
 10
46.689583
 20
56.264233
 30
0.0
  0
LWPOLYLINE
  5
108
100
AcDbEntity
  8
0
 62
5
100
AcDbPolyline
 90
85
 70
1
 10
229.467932
 20
27.049938
 30
0.0
 10
229.467932
 20
33.049943
 30
0.0
 10
232.467954
 20
33.049943
 30
0.0
 10
232.467954
 20
39.049948
 30
0.0
 10
229.467932
 20
39.049948
 30
0.0
 10
229.467932
 20
45.049956
 30
0.0
 10
232.467954
 20
45.049956
 30
0.0
 10
232.467954
 20
51.049961
 30
0.0
 10
229.467932
 20
51.049961
 30
0.0
 10
229.467932
 20
57.049965
 30
0.0
 10
232.467954
 20
57.049965
 30
0.0
 10
232.467954
 20
63.049970
 30
0.0
 10
229.467932
 20
63.049970
 30
0.0
 10
229.467932
 20
69.049974
 30
0.0
 10
232.467954
 20
69.049974
 30
0.0
 10
232.467954
 20
75.049981
 30
0.0
 10
229.467932
 20
75.049981
 30
0.0
 10
229.467932
 20
81.049981
 30
0.0
 10
232.467954
 20
81.049981
 30
0.0
 10
232.467954
 20
88.550000
 30
0.0
 10
229.467932
 20
88.550000
 30
0.0
 10
229.467932
 20
96.049999
 30
0.0
 10
239.217948
 20
96.049999
 30
0.0
 10
239.217948
 20
93.049976
 30
0.0
 10
248.967964
 20
93.049976
 30
0.0
 10
248.967964
 20
96.049999
 30
0.0
 10
254.967988
 20
96.049999
 30
0.0
 10
254.967988
 20
93.049976
 30
0.0
 10
260.967976
 20
93.049976
 30
0.0
 10
260.967976
 20
96.049999
 30
0.0
 10
266.967993
 20
96.049999
 30
0.0
 10
266.967993
 20
93.049976
 30
0.0
 10
276.718006
 20
93.049976
 30
0.0
 10
276.718006
 20
96.049999
 30
0.0
 10
286.468002
 20
96.049999
 30
0.0
 10
286.468002
 20
88.550000
 30
0.0
 10
283.468008
 20
88.550000
 30
0.0
 10
283.468008
 20
81.049981
 30
0.0
 10
286.468002
 20
81.049981
 30
0.0
 10
286.468002
 20
75.049981
 30
0.0
 10
283.468008
 20
75.049981
 30
0.0
 10
283.468008
 20
69.049974
 30
0.0
 10
286.468002
 20
69.049974
 30
0.0
 10
286.468002
 20
63.049970
 30
0.0
 10
283.468008
 20
63.049970
 30
0.0
 10
283.468008
 20
57.049965
 30
0.0
 10
286.468002
 20
57.049965
 30
0.0
 10
286.468002
 20
51.049961
 30
0.0
 10
283.468008
 20
51.049961
 30
0.0
 10
283.468008
 20
45.049956
 30
0.0
 10
286.468002
 20
45.049956
 30
0.0
 10
286.468002
 20
39.049948
 30
0.0
 10
283.468008
 20
39.049948
 30
0.0
 10
283.468008
 20
33.049943
 30
0.0
 10
286.468002
 20
33.049943
 30
0.0
 10
286.468002
 20
27.049938
 30
0.0
 10
283.468008
 20
27.049938
 30
0.0
 10
283.468008
 20
21.049933
 30
0.0
 10
286.468002
 20
21.049933
 30
0.0
 10
286.468002
 20
15.049931
 30
0.0
 10
283.468008
 20
15.049931
 30
0.0
 10
283.468008
 20
7.549921
 30
0.0
 10
286.468002
 20
7.549921
 30
0.0
 10
286.468002
 20
0.049916
 30
0.0
 10
276.718006
 20
0.049916
 30
0.0
 10
276.718006
 20
3.049918
 30
0.0
 10
266.967993
 20
3.049918
 30
0.0
 10
266.967993
 20
0.049916
 30
0.0
 10
260.967976
 20
0.049916
 30
0.0
 10
260.967976
 20
3.049918
 30
0.0
 10
254.967988
 20
3.049918
 30
0.0
 10
254.967988
 20
0.049916
 30
0.0
 10
248.967964
 20
0.049916
 30
0.0
 10
248.967964
 20
3.049918
 30
0.0
 10
239.217948
 20
3.049918
 30
0.0
 10
239.217948
 20
0.049916
 30
0.0
 10
229.467932
 20
0.049916
 30
0.0
 10
229.467932
 20
7.549921
 30
0.0
 10
232.467954
 20
7.549921
 30
0.0
 10
232.467954
 20
15.049931
 30
0.0
 10
229.467932
 20
15.049931
 30
0.0
 10
229.467932
 20
21.049933
 30
0.0
 10
232.467954
 20
21.049933
 30
0.0
 10
232.467954
 20
27.049938
 30
0.0
 10
229.467932
 20
27.049938
 30
0.0
  0
SPLINE
  5
109
100
AcDbEntity
  8
0
 62
5
100
AcDbSpline
 70
8
 71
3
 72
8
 73
4
 74
0
 40
0
 40
0
 40
0
 40
0
 40
1
 40
1
 40
1
 40
1
 10
46.621680
 20
38.799557
 30
0.0
 10
46.616882
 20
34.268457
 30
0.0
 10
46.631248
 20
29.736880
 30
0.0
 10
46.614512
 20
25.206081
 30
0.0
  0
SPLINE
  5
10a
100
AcDbEntity
  8
0
 62
5
100
AcDbSpline
 70
8
 71
3
 72
8
 73
4
 74
0
 40
0
 40
0
 40
0
 40
0
 40
1
 40
1
 40
1
 40
1
 10
46.614512
 20
25.206081
 30
0.0
 10
46.557080
 20
24.358136
 30
0.0
 10
45.689125
 20
23.838881
 30
0.0
 10
44.896938
 20
23.953399
 30
0.0
  0
SPLINE
  5
10b
100
AcDbEntity
  8
0
 62
5
100
AcDbSpline
 70
8
 71
3
 72
8
 73
4
 74
0
 40
0
 40
0
 40
0
 40
0
 40
1
 40
1
 40
1
 40
1
 10
44.896938
 20
23.953399
 30
0.0
 10
40.294710
 20
23.958168
 30
0.0
 10
35.692004
 20
23.943831
 30
0.0
 10
31.090077
 20
23.960567
 30
0.0
  0
SPLINE
  5
10c
100
AcDbEntity
  8
0
 62
5
100
AcDbSpline
 70
8
 71
3
 72
8
 73
4
 74
0
 40
0
 40
0
 40
0
 40
0
 40
1
 40
1
 40
1
 40
1
 10
31.090077
 20
23.960567
 30
0.0
 10
30.242132
 20
24.017999
 30
0.0
 10
29.722877
 20
24.885954
 30
0.0
 10
29.837394
 20
25.678140
 30
0.0
  0
SPLINE
  5
10d
100
AcDbEntity
  8
0
 62
5
100
AcDbSpline
 70
8
 71
3
 72
8
 73
4
 74
0
 40
0
 40
0
 40
0
 40
0
 40
1
 40
1
 40
1
 40
1
 10
29.837394
 20
25.678140
 30
0.0
 10
29.842164
 20
30.099586
 30
0.0
 10
29.827827
 20
34.521512
 30
0.0
 10
29.844563
 20
38.942655
 30
0.0
  0
SPLINE
  5
10e
100
AcDbEntity
  8
0
 62
5
100
AcDbSpline
 70
8
 71
3
 72
8
 73
4
 74
0
 40
0
 40
0
 40
0
 40
0
 40
1
 40
1
 40
1
 40
1
 10
29.844563
 20
38.942655
 30
0.0
 10
29.901986
 20
39.790606
 30
0.0
 10
30.769941
 20
40.309884
 30
0.0
 10
31.562136
 20
40.195361
 30
0.0
  0
SPLINE
  5
10f
100
AcDbEntity
  8
0
 62
5
100
AcDbSpline
 70
8
 71
3
 72
8
 73
4
 74
0
 40
0
 40
0
 40
0
 40
0
 40
1
 40
1
 40
1
 40
1
 10
31.562136
 20
40.195361
 30
0.0
 10
36.164365
 20
40.190591
 30
0.0
 10
40.767071
 20
40.204928
 30
0.0
 10
45.368997
 20
40.188192
 30
0.0
  0
SPLINE
  5
110
100
AcDbEntity
  8
0
 62
5
100
AcDbSpline
 70
8
 71
3
 72
8
 73
4
 74
0
 40
0
 40
0
 40
0
 40
0
 40
1
 40
1
 40
1
 40
1
 10
45.368997
 20
40.188192
 30
0.0
 10
46.065861
 20
40.130153
 30
0.0
 10
46.635182
 20
39.498887
 30
0.0
 10
46.621680
 20
38.799557
 30
0.0
  0
LWPOLYLINE
  5
111
100
AcDbEntity
  8
0
 62
5
100
AcDbPolyline
 90
2
 70
1
 10
46.689583
 20
56.264233
 30
0.0
 10
46.689583
 20
56.264233
 30
0.0
  0
SPLINE
  5
112
100
AcDbEntity
  8
0
 62
5
100
AcDbSpline
 70
8
 71
3
 72
8
 73
4
 74
0
 40
0
 40
0
 40
0
 40
0
 40
1
 40
1
 40
1
 40
1
 10
47.231026
 20
21.345581
 30
0.0
 10
47.227894
 20
16.209991
 30
0.0
 10
47.237320
 20
11.074086
 30
0.0
 10
47.226313
 20
5.938691
 30
0.0
  0
SPLINE
  5
113
100
AcDbEntity
  8
0
 62
5
100
AcDbSpline
 70
8
 71
3
 72
8
 73
4
 74
0
 40
0
 40
0
 40
0
 40
0
 40
1
 40
1
 40
1
 40
1
 10
47.226313
 20
5.938691
 30
0.0
 10
47.178341
 20
5.239474
 30
0.0
 10
46.440942
 20
5.048514
 30
0.0
 10
45.861949
 20
5.116928
 30
0.0
  0
SPLINE
  5
114
100
AcDbEntity
  8
0
 62
5
100
AcDbSpline
 70
8
 71
3
 72
8
 73
4
 74
0
 40
0
 40
0
 40
0
 40
0
 40
1
 40
1
 40
1
 40
1
 10
45.861949
 20
5.116928
 30
0.0
 10
41.719398
 20
5.120061
 30
0.0
 10
37.576534
 20
5.110634
 30
0.0
 10
33.434181
 20
5.121641
 30
0.0
  0
SPLINE
  5
115
100
AcDbEntity
  8
0
 62
5
100
AcDbSpline
 70
8
 71
3
 72
8
 73
4
 74
0
 40
0
 40
0
 40
0
 40
0
 40
1
 40
1
 40
1
 40
1
 10
33.434181
 20
5.121641
 30
0.0
 10
32.734964
 20
5.169613
 30
0.0
 10
32.544004
 20
5.907012
 30
0.0
 10
32.612417
 20
6.486005
 30
0.0
  0
SPLINE
  5
116
100
AcDbEntity
  8
0
 62
5
100
AcDbSpline
 70
8
 71
3
 72
8
 73
4
 74
0
 40
0
 40
0
 40
0
 40
0
 40
1
 40
1
 40
1
 40
1
 10
32.612417
 20
6.486005
 30
0.0
 10
32.615550
 20
11.470450
 30
0.0
 10
32.606152
 20
16.455211
 30
0.0
 10
32.617131
 20
21.439462
 30
0.0
  0
SPLINE
  5
117
100
AcDbEntity
  8
0
 62
5
100
AcDbSpline
 70
8
 71
3
 72
8
 73
4
 74
0
 40
0
 40
0
 40
0
 40
0
 40
1
 40
1
 40
1
 40
1
 10
32.617131
 20
21.439462
 30
0.0
 10
32.665103
 20
22.138679
 30
0.0
 10
33.402501
 20
22.329639
 30
0.0
 10
33.981494
 20
22.261225
 30
0.0
  0
SPLINE
  5
118
100
AcDbEntity
  8
0
 62
5
100
AcDbSpline
 70
8
 71
3
 72
8
 73
4
 74
0
 40
0
 40
0
 40
0
 40
0
 40
1
 40
1
 40
1
 40
1
 10
33.981494
 20
22.261225
 30
0.0
 10
38.124045
 20
22.258093
 30
0.0
 10
42.266910
 20
22.267519
 30
0.0
 10
46.409263
 20
22.256512
 30
0.0
  0
SPLINE
  5
119
100
AcDbEntity
  8
0
 62
5
100
AcDbSpline
 70
8
 71
3
 72
8
 73
4
 74
0
 40
0
 40
0
 40
0
 40
0
 40
1
 40
1
 40
1
 40
1
 10
46.409263
 20
22.256512
 30
0.0
 10
46.865373
 20
22.220199
 30
0.0
 10
47.240591
 20
21.801841
 30
0.0
 10
47.231026
 20
21.345581
 30
0.0
  0
LWPOLYLINE
  5
11a
100
AcDbEntity
  8
0
 62
5
100
AcDbPolyline
 90
2
 70
1
 10
46.621680
 20
38.799557
 30
0.0
 10
46.621680
 20
38.799557
 30
0.0
  0
LWPOLYLINE
  5
11b
100
AcDbEntity
  8
0
 62
5
100
AcDbPolyline
 90
2
 70
1
 10
47.231026
 20
21.345581
 30
0.0
 10
47.231026
 20
21.345581
 30
0.0
  0
SPLINE
  5
11c
100
AcDbEntity
  8
Imprimir
 62
5
100
AcDbSpline
 70
8
 71
3
 72
8
 73
4
 74
0
 40
0
 40
0
 40
0
 40
0
 40
1
 40
1
 40
1
 40
1
 10
118.757500
 20
53.654022
 30
0.0
 10
118.255926
 20
53.654022
 30
0.0
 10
117.754352
 20
53.654022
 30
0.0
 10
117.252778
 20
53.654022
 30
0.0
  0
SPLINE
  5
11d
100
AcDbEntity
  8
Imprimir
 62
5
100
AcDbSpline
 70
8
 71
3
 72
8
 73
4
 74
0
 40
0
 40
0
 40
0
 40
0
 40
1
 40
1
 40
1
 40
1
 10
117.252778
 20
53.654022
 30
0.0
 10
117.075879
 20
53.772739
 30
0.0
 10
117.196720
 20
54.058063
 30
0.0
 10
117.161158
 20
54.252864
 30
0.0
  0
SPLINE
  5
11e
100
AcDbEntity
  8
Imprimir
 62
5
100
AcDbSpline
 70
8
 71
3
 72
8
 73
4
 74
0
 40
0
 40
0
 40
0
 40
0
 40
1
 40
1
 40
1
 40
1
 10
117.161158
 20
54.252864
 30
0.0
 10
117.161158
 20
58.926114
 30
0.0
 10
117.161158
 20
63.599364
 30
0.0
 10
117.161158
 20
68.272613
 30
0.0
  0
SPLINE
  5
11f
100
AcDbEntity
  8
Imprimir
 62
5
100
AcDbSpline
 70
8
 71
3
 72
8
 73
4
 74
0
 40
0
 40
0
 40
0
 40
0
 40
1
 40
1
 40
1
 40
1
 10
117.161158
 20
68.272613
 30
0.0
 10
117.279841
 20
68.449544
 30
0.0
 10
117.565190
 20
68.328683
 30
0.0
 10
117.759982
 20
68.364251
 30
0.0
  0
SPLINE
  5
120
100
AcDbEntity
  8
Imprimir
 62
5
100
AcDbSpline
 70
8
 71
3
 72
8
 73
4
 74
0
 40
0
 40
0
 40
0
 40
0
 40
1
 40
1
 40
1
 40
1
 10
117.759982
 20
68.364251
 30
0.0
 10
118.092488
 20
68.364251
 30
0.0
 10
118.424994
 20
68.364251
 30
0.0
 10
118.757500
 20
68.364251
 30
0.0
  0
SPLINE
  5
121
100
AcDbEntity
  8
Imprimir
 62
5
100
AcDbSpline
 70
8
 71
3
 72
8
 73
4
 74
0
 40
0
 40
0
 40
0
 40
0
 40
1
 40
1
 40
1
 40
1
 10
118.757500
 20
68.364251
 30
0.0
 10
118.934399
 20
68.245537
 30
0.0
 10
118.813557
 20
67.960209
 30
0.0
 10
118.849120
 20
67.765410
 30
0.0
  0
SPLINE
  5
122
100
AcDbEntity
  8
Imprimir
 62
5
100
AcDbSpline
 70
8
 71
3
 72
8
 73
4
 74
0
 40
0
 40
0
 40
0
 40
0
 40
1
 40
1
 40
1
 40
1
 10
118.849120
 20
67.765410
 30
0.0
 10
118.849120
 20
63.092160
 30
0.0
 10
118.849120
 20
58.418910
 30
0.0
 10
118.849120
 20
53.745660
 30
0.0
  0
LWPOLYLINE
  5
123
100
AcDbEntity
  8
0
 62
5
100
AcDbPolyline
 90
85
 70
1
 10
57.050034
 20
33.049971
 30
0.0
 10
57.050034
 20
27.049955
 30
0.0
 10
54.050040
 20
27.049955
 30
0.0
 10
54.050040
 20
21.049967
 30
0.0
 10
57.050034
 20
21.049967
 30
0.0
 10
57.050034
 20
15.049954
 30
0.0
 10
54.050040
 20
15.049954
 30
0.0
 10
54.050040
 20
7.549952
 30
0.0
 10
57.050034
 20
7.549952
 30
0.0
 10
57.050034
 20
0.049924
 30
0.0
 10
47.300047
 20
0.049924
 30
0.0
 10
47.300047
 20
3.049946
 30
0.0
 10
37.550031
 20
3.049946
 30
0.0
 10
37.550031
 20
0.049924
 30
0.0
 10
31.550009
 20
0.049924
 30
0.0
 10
31.550009
 20
3.049946
 30
0.0
 10
25.550019
 20
3.049946
 30
0.0
 10
25.550019
 20
0.049924
 30
0.0
 10
19.550003
 20
0.049924
 30
0.0
 10
19.550003
 20
3.049946
 30
0.0
 10
9.799987
 20
3.049946
 30
0.0
 10
9.799987
 20
0.049924
 30
0.0
 10
0.050000
 20
0.049924
 30
0.0
 10
0.050000
 20
7.549952
 30
0.0
 10
3.049994
 20
7.549952
 30
0.0
 10
3.049994
 20
15.049954
 30
0.0
 10
0.050000
 20
15.049954
 30
0.0
 10
0.050000
 20
21.049967
 30
0.0
 10
3.049994
 20
21.049967
 30
0.0
 10
3.049994
 20
27.049955
 30
0.0
 10
0.050000
 20
27.049955
 30
0.0
 10
0.050000
 20
33.049971
 30
0.0
 10
3.049994
 20
33.049971
 30
0.0
 10
3.049994
 20
39.049959
 30
0.0
 10
0.050000
 20
39.049959
 30
0.0
 10
0.050000
 20
45.049978
 30
0.0
 10
3.049994
 20
45.049978
 30
0.0
 10
3.049994
 20
51.049994
 30
0.0
 10
0.050000
 20
51.049994
 30
0.0
 10
0.050000
 20
57.049982
 30
0.0
 10
3.049994
 20
57.049982
 30
0.0
 10
3.049994
 20
63.049999
 30
0.0
 10
0.050000
 20
63.049999
 30
0.0
 10
0.050000
 20
69.049985
 30
0.0
 10
3.049994
 20
69.049985
 30
0.0
 10
3.049994
 20
75.050018
 30
0.0
 10
0.050000
 20
75.050018
 30
0.0
 10
0.050000
 20
81.050034
 30
0.0
 10
3.049994
 20
81.050034
 30
0.0
 10
3.049994
 20
88.550005
 30
0.0
 10
0.050000
 20
88.550005
 30
0.0
 10
0.050000
 20
96.050004
 30
0.0
 10
9.799987
 20
96.050004
 30
0.0
 10
9.799987
 20
93.050010
 30
0.0
 10
19.550003
 20
93.050010
 30
0.0
 10
19.550003
 20
96.050004
 30
0.0
 10
25.550019
 20
96.050004
 30
0.0
 10
25.550019
 20
93.050010
 30
0.0
 10
31.550009
 20
93.050010
 30
0.0
 10
31.550009
 20
96.050004
 30
0.0
 10
37.550031
 20
96.050004
 30
0.0
 10
37.550031
 20
93.050010
 30
0.0
 10
47.300047
 20
93.050010
 30
0.0
 10
47.300047
 20
96.050004
 30
0.0
 10
57.050034
 20
96.050004
 30
0.0
 10
57.050034
 20
88.550005
 30
0.0
 10
54.050040
 20
88.550005
 30
0.0
 10
54.050040
 20
81.050034
 30
0.0
 10
57.050034
 20
81.050034
 30
0.0
 10
57.050034
 20
75.050018
 30
0.0
 10
54.050040
 20
75.050018
 30
0.0
 10
54.050040
 20
69.049985
 30
0.0
 10
57.050034
 20
69.049985
 30
0.0
 10
57.050034
 20
63.049999
 30
0.0
 10
54.050040
 20
63.049999
 30
0.0
 10
54.050040
 20
57.049982
 30
0.0
 10
57.050034
 20
57.049982
 30
0.0
 10
57.050034
 20
51.049994
 30
0.0
 10
54.050040
 20
51.049994
 30
0.0
 10
54.050040
 20
45.049978
 30
0.0
 10
57.050034
 20
45.049978
 30
0.0
 10
57.050034
 20
39.049959
 30
0.0
 10
54.050040
 20
39.049959
 30
0.0
 10
54.050040
 20
33.049971
 30
0.0
 10
57.050034
 20
33.049971
 30
0.0
  0
SPLINE
  5
124
100
AcDbEntity
  8
Imprimir
 62
5
100
AcDbSpline
 70
8
 71
3
 72
8
 73
4
 74
0
 40
0
 40
0
 40
0
 40
0
 40
1
 40
1
 40
1
 40
1
 10
114.709835
 20
53.654022
 30
0.0
 10
114.208261
 20
53.654022
 30
0.0
 10
113.706690
 20
53.654022
 30
0.0
 10
113.205116
 20
53.654022
 30
0.0
  0
SPLINE
  5
125
100
AcDbEntity
  8
Imprimir
 62
5
100
AcDbSpline
 70
8
 71
3
 72
8
 73
4
 74
0
 40
0
 40
0
 40
0
 40
0
 40
1
 40
1
 40
1
 40
1
 10
113.205116
 20
53.654022
 30
0.0
 10
113.028214
 20
53.772733
 30
0.0
 10
113.149055
 20
54.058063
 30
0.0
 10
113.113493
 20
54.252864
 30
0.0
  0
SPLINE
  5
126
100
AcDbEntity
  8
Imprimir
 62
5
100
AcDbSpline
 70
8
 71
3
 72
8
 73
4
 74
0
 40
0
 40
0
 40
0
 40
0
 40
1
 40
1
 40
1
 40
1
 10
113.113493
 20
54.252864
 30
0.0
 10
113.113493
 20
58.926114
 30
0.0
 10
113.113493
 20
63.599364
 30
0.0
 10
113.113493
 20
68.272613
 30
0.0
  0
SPLINE
  5
127
100
AcDbEntity
  8
Imprimir
 62
5
100
AcDbSpline
 70
8
 71
3
 72
8
 73
4
 74
0
 40
0
 40
0
 40
0
 40
0
 40
1
 40
1
 40
1
 40
1
 10
113.113493
 20
68.272613
 30
0.0
 10
113.232176
 20
68.449543
 30
0.0
 10
113.517525
 20
68.328683
 30
0.0
 10
113.712320
 20
68.364251
 30
0.0
  0
SPLINE
  5
128
100
AcDbEntity
  8
Imprimir
 62
5
100
AcDbSpline
 70
8
 71
3
 72
8
 73
4
 74
0
 40
0
 40
0
 40
0
 40
0
 40
1
 40
1
 40
1
 40
1
 10
113.712320
 20
68.364251
 30
0.0
 10
114.044826
 20
68.364251
 30
0.0
 10
114.377329
 20
68.364251
 30
0.0
 10
114.709835
 20
68.364251
 30
0.0
  0
SPLINE
  5
129
100
AcDbEntity
  8
Imprimir
 62
5
100
AcDbSpline
 70
8
 71
3
 72
8
 73
4
 74
0
 40
0
 40
0
 40
0
 40
0
 40
1
 40
1
 40
1
 40
1
 10
114.709835
 20
68.364251
 30
0.0
 10
114.886737
 20
68.245540
 30
0.0
 10
114.765895
 20
67.960210
 30
0.0
 10
114.801458
 20
67.765410
 30
0.0
  0
SPLINE
  5
12a
100
AcDbEntity
  8
Imprimir
 62
5
100
AcDbSpline
 70
8
 71
3
 72
8
 73
4
 74
0
 40
0
 40
0
 40
0
 40
0
 40
1
 40
1
 40
1
 40
1
 10
114.801458
 20
67.765410
 30
0.0
 10
114.801458
 20
63.092160
 30
0.0
 10
114.801458
 20
58.418910
 30
0.0
 10
114.801458
 20
53.745660
 30
0.0
  0
LWPOLYLINE
  5
12b
100
AcDbEntity
  8
Imprimir
 62
5
100
AcDbPolyline
 90
4
 70
1
 10
118.849120
 20
53.745660
 30
0.0
 10
118.822337
 20
53.680802
 30
0.0
 10
118.757491
 20
53.654019
 30
0.0
 10
118.757500
 20
53.654022
 30
0.0
  0
SPLINE
  5
12c
100
AcDbEntity
  8
Imprimir
 62
5
100
AcDbSpline
 70
8
 71
3
 72
8
 73
4
 74
0
 40
0
 40
0
 40
0
 40
0
 40
1
 40
1
 40
1
 40
1
 10
110.662164
 20
53.774616
 30
0.0
 10
110.160590
 20
53.774616
 30
0.0
 10
109.659016
 20
53.774616
 30
0.0
 10
109.157443
 20
53.774616
 30
0.0
  0
SPLINE
  5
12d
100
AcDbEntity
  8
Imprimir
 62
5
100
AcDbSpline
 70
8
 71
3
 72
8
 73
4
 74
0
 40
0
 40
0
 40
0
 40
0
 40
1
 40
1
 40
1
 40
1
 10
109.157443
 20
53.774616
 30
0.0
 10
108.980534
 20
53.893307
 30
0.0
 10
109.101385
 20
54.178639
 30
0.0
 10
109.065819
 20
54.373429
 30
0.0
  0
SPLINE
  5
12e
100
AcDbEntity
  8
Imprimir
 62
5
100
AcDbSpline
 70
8
 71
3
 72
8
 73
4
 74
0
 40
0
 40
0
 40
0
 40
0
 40
1
 40
1
 40
1
 40
1
 10
109.065819
 20
54.373429
 30
0.0
 10
109.065819
 20
59.046688
 30
0.0
 10
109.065819
 20
63.719946
 30
0.0
 10
109.065819
 20
68.393207
 30
0.0
  0
SPLINE
  5
12f
100
AcDbEntity
  8
Imprimir
 62
5
100
AcDbSpline
 70
8
 71
3
 72
8
 73
4
 74
0
 40
0
 40
0
 40
0
 40
0
 40
1
 40
1
 40
1
 40
1
 10
109.065819
 20
68.393207
 30
0.0
 10
109.184539
 20
68.570089
 30
0.0
 10
109.469851
 20
68.449255
 30
0.0
 10
109.664647
 20
68.484816
 30
0.0
  0
SPLINE
  5
130
100
AcDbEntity
  8
Imprimir
 62
5
100
AcDbSpline
 70
8
 71
3
 72
8
 73
4
 74
0
 40
0
 40
0
 40
0
 40
0
 40
1
 40
1
 40
1
 40
1
 10
109.664647
 20
68.484816
 30
0.0
 10
109.997153
 20
68.484816
 30
0.0
 10
110.329658
 20
68.484816
 30
0.0
 10
110.662164
 20
68.484816
 30
0.0
  0
SPLINE
  5
131
100
AcDbEntity
  8
Imprimir
 62
5
100
AcDbSpline
 70
8
 71
3
 72
8
 73
4
 74
0
 40
0
 40
0
 40
0
 40
0
 40
1
 40
1
 40
1
 40
1
 10
110.662164
 20
68.484816
 30
0.0
 10
110.839069
 20
68.366120
 30
0.0
 10
110.718219
 20
68.080793
 30
0.0
 10
110.753785
 20
67.886004
 30
0.0
  0
SPLINE
  5
132
100
AcDbEntity
  8
Imprimir
 62
5
100
AcDbSpline
 70
8
 71
3
 72
8
 73
4
 74
0
 40
0
 40
0
 40
0
 40
0
 40
1
 40
1
 40
1
 40
1
 10
110.753785
 20
67.886004
 30
0.0
 10
110.753785
 20
63.212745
 30
0.0
 10
110.753785
 20
58.539484
 30
0.0
 10
110.753785
 20
53.866225
 30
0.0
  0
LWPOLYLINE
  5
133
100
AcDbEntity
  8
Imprimir
 62
5
100
AcDbPolyline
 90
4
 70
1
 10
114.801458
 20
53.745660
 30
0.0
 10
114.774675
 20
53.680802
 30
0.0
 10
114.709829
 20
53.654019
 30
0.0
 10
114.709835
 20
53.654022
 30
0.0
  0
SPLINE
  5
134
100
AcDbEntity
  8
Imprimir
 62
5
100
AcDbSpline
 70
8
 71
3
 72
8
 73
4
 74
0
 40
0
 40
0
 40
0
 40
0
 40
1
 40
1
 40
1
 40
1
 10
106.614505
 20
53.533457
 30
0.0
 10
106.112928
 20
53.533457
 30
0.0
 10
105.611354
 20
53.533457
 30
0.0
 10
105.109778
 20
53.533457
 30
0.0
  0
SPLINE
  5
135
100
AcDbEntity
  8
Imprimir
 62
5
100
AcDbSpline
 70
8
 71
3
 72
8
 73
4
 74
0
 40
0
 40
0
 40
0
 40
0
 40
1
 40
1
 40
1
 40
1
 10
105.109778
 20
53.533457
 30
0.0
 10
104.932878
 20
53.652157
 30
0.0
 10
105.053725
 20
53.937481
 30
0.0
 10
105.018160
 20
54.132270
 30
0.0
  0
SPLINE
  5
136
100
AcDbEntity
  8
Imprimir
 62
5
100
AcDbSpline
 70
8
 71
3
 72
8
 73
4
 74
0
 40
0
 40
0
 40
0
 40
0
 40
1
 40
1
 40
1
 40
1
 10
105.018160
 20
54.132270
 30
0.0
 10
105.018160
 20
58.805529
 30
0.0
 10
105.018160
 20
63.478790
 30
0.0
 10
105.018160
 20
68.152048
 30
0.0
  0
SPLINE
  5
137
100
AcDbEntity
  8
Imprimir
 62
5
100
AcDbSpline
 70
8
 71
3
 72
8
 73
4
 74
0
 40
0
 40
0
 40
0
 40
0
 40
1
 40
1
 40
1
 40
1
 10
105.018160
 20
68.152048
 30
0.0
 10
105.136840
 20
68.328979
 30
0.0
 10
105.422189
 20
68.208117
 30
0.0
 10
105.616982
 20
68.243686
 30
0.0
  0
SPLINE
  5
138
100
AcDbEntity
  8
Imprimir
 62
5
100
AcDbSpline
 70
8
 71
3
 72
8
 73
4
 74
0
 40
0
 40
0
 40
0
 40
0
 40
1
 40
1
 40
1
 40
1
 10
105.616982
 20
68.243686
 30
0.0
 10
105.949490
 20
68.243686
 30
0.0
 10
106.281996
 20
68.243686
 30
0.0
 10
106.614505
 20
68.243686
 30
0.0
  0
SPLINE
  5
139
100
AcDbEntity
  8
Imprimir
 62
5
100
AcDbSpline
 70
8
 71
3
 72
8
 73
4
 74
0
 40
0
 40
0
 40
0
 40
0
 40
1
 40
1
 40
1
 40
1
 10
106.614505
 20
68.243686
 30
0.0
 10
106.791399
 20
68.124967
 30
0.0
 10
106.670560
 20
67.839646
 30
0.0
 10
106.706122
 20
67.644845
 30
0.0
  0
SPLINE
  5
13a
100
AcDbEntity
  8
Imprimir
 62
5
100
AcDbSpline
 70
8
 71
3
 72
8
 73
4
 74
0
 40
0
 40
0
 40
0
 40
0
 40
1
 40
1
 40
1
 40
1
 10
106.706122
 20
67.644845
 30
0.0
 10
106.706122
 20
62.971586
 30
0.0
 10
106.706122
 20
58.298325
 30
0.0
 10
106.706122
 20
53.625066
 30
0.0
  0
LWPOLYLINE
  5
13b
100
AcDbEntity
  8
Imprimir
 62
5
100
AcDbPolyline
 90
4
 70
1
 10
110.753785
 20
53.866225
 30
0.0
 10
110.727002
 20
53.801390
 30
0.0
 10
110.662158
 20
53.774607
 30
0.0
 10
110.662164
 20
53.774616
 30
0.0
  0
SPLINE
  5
13c
100
AcDbEntity
  8
Imprimir
 62
5
100
AcDbSpline
 70
8
 71
3
 72
8
 73
4
 74
0
 40
0
 40
0
 40
0
 40
0
 40
1
 40
1
 40
1
 40
1
 10
102.566831
 20
53.533457
 30
0.0
 10
102.065257
 20
53.533457
 30
0.0
 10
101.563681
 20
53.533457
 30
0.0
 10
101.062107
 20
53.533457
 30
0.0
  0
SPLINE
  5
13d
100
AcDbEntity
  8
Imprimir
 62
5
100
AcDbSpline
 70
8
 71
3
 72
8
 73
4
 74
0
 40
0
 40
0
 40
0
 40
0
 40
1
 40
1
 40
1
 40
1
 10
101.062107
 20
53.533457
 30
0.0
 10
100.885207
 20
53.652157
 30
0.0
 10
101.006055
 20
53.937481
 30
0.0
 10
100.970489
 20
54.132270
 30
0.0
  0
SPLINE
  5
13e
100
AcDbEntity
  8
Imprimir
 62
5
100
AcDbSpline
 70
8
 71
3
 72
8
 73
4
 74
0
 40
0
 40
0
 40
0
 40
0
 40
1
 40
1
 40
1
 40
1
 10
100.970489
 20
54.132270
 30
0.0
 10
100.970489
 20
58.805529
 30
0.0
 10
100.970489
 20
63.478790
 30
0.0
 10
100.970489
 20
68.152048
 30
0.0
  0
SPLINE
  5
13f
100
AcDbEntity
  8
Imprimir
 62
5
100
AcDbSpline
 70
8
 71
3
 72
8
 73
4
 74
0
 40
0
 40
0
 40
0
 40
0
 40
1
 40
1
 40
1
 40
1
 10
100.970489
 20
68.152048
 30
0.0
 10
101.089169
 20
68.328979
 30
0.0
 10
101.374519
 20
68.208117
 30
0.0
 10
101.569311
 20
68.243686
 30
0.0
  0
SPLINE
  5
140
100
AcDbEntity
  8
Imprimir
 62
5
100
AcDbSpline
 70
8
 71
3
 72
8
 73
4
 74
0
 40
0
 40
0
 40
0
 40
0
 40
1
 40
1
 40
1
 40
1
 10
101.569311
 20
68.243686
 30
0.0
 10
101.901817
 20
68.243686
 30
0.0
 10
102.234325
 20
68.243686
 30
0.0
 10
102.566831
 20
68.243686
 30
0.0
  0
SPLINE
  5
141
100
AcDbEntity
  8
Imprimir
 62
5
100
AcDbSpline
 70
8
 71
3
 72
8
 73
4
 74
0
 40
0
 40
0
 40
0
 40
0
 40
1
 40
1
 40
1
 40
1
 10
102.566831
 20
68.243686
 30
0.0
 10
102.743731
 20
68.124971
 30
0.0
 10
102.622889
 20
67.839646
 30
0.0
 10
102.658452
 20
67.644845
 30
0.0
  0
SPLINE
  5
142
100
AcDbEntity
  8
Imprimir
 62
5
100
AcDbSpline
 70
8
 71
3
 72
8
 73
4
 74
0
 40
0
 40
0
 40
0
 40
0
 40
1
 40
1
 40
1
 40
1
 10
102.658452
 20
67.644845
 30
0.0
 10
102.658452
 20
62.971586
 30
0.0
 10
102.658452
 20
58.298325
 30
0.0
 10
102.658452
 20
53.625066
 30
0.0
  0
LWPOLYLINE
  5
143
100
AcDbEntity
  8
Imprimir
 62
5
100
AcDbPolyline
 90
4
 70
1
 10
106.706122
 20
53.625066
 30
0.0
 10
106.679340
 20
53.560231
 30
0.0
 10
106.614496
 20
53.533448
 30
0.0
 10
106.614505
 20
53.533457
 30
0.0
  0
SPLINE
  5
144
100
AcDbEntity
  8
Imprimir
 62
5
100
AcDbSpline
 70
8
 71
3
 72
8
 73
4
 74
0
 40
0
 40
0
 40
0
 40
0
 40
1
 40
1
 40
1
 40
1
 10
98.519158
 20
53.654022
 30
0.0
 10
98.017584
 20
53.654022
 30
0.0
 10
97.516010
 20
53.654022
 30
0.0
 10
97.014436
 20
53.654022
 30
0.0
  0
SPLINE
  5
145
100
AcDbEntity
  8
Imprimir
 62
5
100
AcDbSpline
 70
8
 71
3
 72
8
 73
4
 74
0
 40
0
 40
0
 40
0
 40
0
 40
1
 40
1
 40
1
 40
1
 10
97.014436
 20
53.654022
 30
0.0
 10
96.837537
 20
53.772736
 30
0.0
 10
96.958379
 20
54.058063
 30
0.0
 10
96.922816
 20
54.252864
 30
0.0
  0
SPLINE
  5
146
100
AcDbEntity
  8
Imprimir
 62
5
100
AcDbSpline
 70
8
 71
3
 72
8
 73
4
 74
0
 40
0
 40
0
 40
0
 40
0
 40
1
 40
1
 40
1
 40
1
 10
96.922816
 20
54.252864
 30
0.0
 10
96.922816
 20
58.926114
 30
0.0
 10
96.922816
 20
63.599364
 30
0.0
 10
96.922816
 20
68.272613
 30
0.0
  0
SPLINE
  5
147
100
AcDbEntity
  8
Imprimir
 62
5
100
AcDbSpline
 70
8
 71
3
 72
8
 73
4
 74
0
 40
0
 40
0
 40
0
 40
0
 40
1
 40
1
 40
1
 40
1
 10
96.922816
 20
68.272613
 30
0.0
 10
97.041496
 20
68.449544
 30
0.0
 10
97.326848
 20
68.328683
 30
0.0
 10
97.521641
 20
68.364251
 30
0.0
  0
SPLINE
  5
148
100
AcDbEntity
  8
Imprimir
 62
5
100
AcDbSpline
 70
8
 71
3
 72
8
 73
4
 74
0
 40
0
 40
0
 40
0
 40
0
 40
1
 40
1
 40
1
 40
1
 10
97.521641
 20
68.364251
 30
0.0
 10
97.854146
 20
68.364251
 30
0.0
 10
98.186652
 20
68.364251
 30
0.0
 10
98.519158
 20
68.364251
 30
0.0
  0
SPLINE
  5
149
100
AcDbEntity
  8
Imprimir
 62
5
100
AcDbSpline
 70
8
 71
3
 72
8
 73
4
 74
0
 40
0
 40
0
 40
0
 40
0
 40
1
 40
1
 40
1
 40
1
 10
98.519158
 20
68.364251
 30
0.0
 10
98.696058
 20
68.245536
 30
0.0
 10
98.575216
 20
67.960210
 30
0.0
 10
98.610778
 20
67.765410
 30
0.0
  0
SPLINE
  5
14a
100
AcDbEntity
  8
Imprimir
 62
5
100
AcDbSpline
 70
8
 71
3
 72
8
 73
4
 74
0
 40
0
 40
0
 40
0
 40
0
 40
1
 40
1
 40
1
 40
1
 10
98.610778
 20
67.765410
 30
0.0
 10
98.610778
 20
63.092160
 30
0.0
 10
98.610778
 20
58.418910
 30
0.0
 10
98.610778
 20
53.745660
 30
0.0
  0
LWPOLYLINE
  5
14b
100
AcDbEntity
  8
Imprimir
 62
5
100
AcDbPolyline
 90
4
 70
1
 10
102.658452
 20
53.625066
 30
0.0
 10
102.631669
 20
53.560231
 30
0.0
 10
102.566826
 20
53.533448
 30
0.0
 10
102.566831
 20
53.533457
 30
0.0
  0
SPLINE
  5
14c
100
AcDbEntity
  8
Imprimir
 62
5
100
AcDbSpline
 70
8
 71
3
 72
8
 73
4
 74
0
 40
0
 40
0
 40
0
 40
0
 40
1
 40
1
 40
1
 40
1
 10
94.471484
 20
53.533457
 30
0.0
 10
93.969911
 20
53.533457
 30
0.0
 10
93.468340
 20
53.533457
 30
0.0
 10
92.966766
 20
53.533457
 30
0.0
  0
SPLINE
  5
14d
100
AcDbEntity
  8
Imprimir
 62
5
100
AcDbSpline
 70
8
 71
3
 72
8
 73
4
 74
0
 40
0
 40
0
 40
0
 40
0
 40
1
 40
1
 40
1
 40
1
 10
92.966766
 20
53.533457
 30
0.0
 10
92.789860
 20
53.652151
 30
0.0
 10
92.910711
 20
53.937481
 30
0.0
 10
92.875145
 20
54.132270
 30
0.0
  0
SPLINE
  5
14e
100
AcDbEntity
  8
Imprimir
 62
5
100
AcDbSpline
 70
8
 71
3
 72
8
 73
4
 74
0
 40
0
 40
0
 40
0
 40
0
 40
1
 40
1
 40
1
 40
1
 10
92.875145
 20
54.132270
 30
0.0
 10
92.875145
 20
58.805529
 30
0.0
 10
92.875145
 20
63.478790
 30
0.0
 10
92.875145
 20
68.152048
 30
0.0
  0
SPLINE
  5
14f
100
AcDbEntity
  8
Imprimir
 62
5
100
AcDbSpline
 70
8
 71
3
 72
8
 73
4
 74
0
 40
0
 40
0
 40
0
 40
0
 40
1
 40
1
 40
1
 40
1
 10
92.875145
 20
68.152048
 30
0.0
 10
92.993825
 20
68.328979
 30
0.0
 10
93.279177
 20
68.208118
 30
0.0
 10
93.473970
 20
68.243686
 30
0.0
  0
SPLINE
  5
150
100
AcDbEntity
  8
Imprimir
 62
5
100
AcDbSpline
 70
8
 71
3
 72
8
 73
4
 74
0
 40
0
 40
0
 40
0
 40
0
 40
1
 40
1
 40
1
 40
1
 10
93.473970
 20
68.243686
 30
0.0
 10
93.806476
 20
68.243686
 30
0.0
 10
94.138979
 20
68.243686
 30
0.0
 10
94.471484
 20
68.243686
 30
0.0
  0
SPLINE
  5
151
100
AcDbEntity
  8
Imprimir
 62
5
100
AcDbSpline
 70
8
 71
3
 72
8
 73
4
 74
0
 40
0
 40
0
 40
0
 40
0
 40
1
 40
1
 40
1
 40
1
 10
94.471484
 20
68.243686
 30
0.0
 10
94.648387
 20
68.124973
 30
0.0
 10
94.527545
 20
67.839646
 30
0.0
 10
94.563108
 20
67.644845
 30
0.0
  0
SPLINE
  5
152
100
AcDbEntity
  8
Imprimir
 62
5
100
AcDbSpline
 70
8
 71
3
 72
8
 73
4
 74
0
 40
0
 40
0
 40
0
 40
0
 40
1
 40
1
 40
1
 40
1
 10
94.563108
 20
67.644845
 30
0.0
 10
94.563108
 20
62.971586
 30
0.0
 10
94.563108
 20
58.298325
 30
0.0
 10
94.563108
 20
53.625066
 30
0.0
  0
LWPOLYLINE
  5
153
100
AcDbEntity
  8
Imprimir
 62
5
100
AcDbPolyline
 90
4
 70
1
 10
98.610778
 20
53.745660
 30
0.0
 10
98.583996
 20
53.680802
 30
0.0
 10
98.519152
 20
53.654019
 30
0.0
 10
98.519158
 20
53.654022
 30
0.0
  0
SPLINE
  5
154
100
AcDbEntity
  8
Imprimir
 62
5
100
AcDbSpline
 70
8
 71
3
 72
8
 73
4
 74
0
 40
0
 40
0
 40
0
 40
0
 40
1
 40
1
 40
1
 40
1
 10
90.423802
 20
53.654022
 30
0.0
 10
89.922229
 20
53.654022
 30
0.0
 10
89.420652
 20
53.654022
 30
0.0
 10
88.919078
 20
53.654022
 30
0.0
  0
SPLINE
  5
155
100
AcDbEntity
  8
Imprimir
 62
5
100
AcDbSpline
 70
8
 71
3
 72
8
 73
4
 74
0
 40
0
 40
0
 40
0
 40
0
 40
1
 40
1
 40
1
 40
1
 10
88.919078
 20
53.654022
 30
0.0
 10
88.742179
 20
53.772736
 30
0.0
 10
88.863020
 20
54.058063
 30
0.0
 10
88.827458
 20
54.252864
 30
0.0
  0
SPLINE
  5
156
100
AcDbEntity
  8
Imprimir
 62
5
100
AcDbSpline
 70
8
 71
3
 72
8
 73
4
 74
0
 40
0
 40
0
 40
0
 40
0
 40
1
 40
1
 40
1
 40
1
 10
88.827458
 20
54.252864
 30
0.0
 10
88.827458
 20
58.926114
 30
0.0
 10
88.827458
 20
63.599364
 30
0.0
 10
88.827458
 20
68.272613
 30
0.0
  0
SPLINE
  5
157
100
AcDbEntity
  8
Imprimir
 62
5
100
AcDbSpline
 70
8
 71
3
 72
8
 73
4
 74
0
 40
0
 40
0
 40
0
 40
0
 40
1
 40
1
 40
1
 40
1
 10
88.827458
 20
68.272613
 30
0.0
 10
88.946138
 20
68.449544
 30
0.0
 10
89.231490
 20
68.328683
 30
0.0
 10
89.426282
 20
68.364251
 30
0.0
  0
SPLINE
  5
158
100
AcDbEntity
  8
Imprimir
 62
5
100
AcDbSpline
 70
8
 71
3
 72
8
 73
4
 74
0
 40
0
 40
0
 40
0
 40
0
 40
1
 40
1
 40
1
 40
1
 10
89.426282
 20
68.364251
 30
0.0
 10
89.758788
 20
68.364251
 30
0.0
 10
90.091297
 20
68.364251
 30
0.0
 10
90.423802
 20
68.364251
 30
0.0
  0
SPLINE
  5
159
100
AcDbEntity
  8
Imprimir
 62
5
100
AcDbSpline
 70
8
 71
3
 72
8
 73
4
 74
0
 40
0
 40
0
 40
0
 40
0
 40
1
 40
1
 40
1
 40
1
 10
90.423802
 20
68.364251
 30
0.0
 10
90.600697
 20
68.245532
 30
0.0
 10
90.479857
 20
67.960210
 30
0.0
 10
90.515420
 20
67.765410
 30
0.0
  0
SPLINE
  5
15a
100
AcDbEntity
  8
Imprimir
 62
5
100
AcDbSpline
 70
8
 71
3
 72
8
 73
4
 74
0
 40
0
 40
0
 40
0
 40
0
 40
1
 40
1
 40
1
 40
1
 10
90.515420
 20
67.765410
 30
0.0
 10
90.515420
 20
63.092160
 30
0.0
 10
90.515420
 20
58.418910
 30
0.0
 10
90.515420
 20
53.745660
 30
0.0
  0
LWPOLYLINE
  5
15b
100
AcDbEntity
  8
Imprimir
 62
5
100
AcDbPolyline
 90
4
 70
1
 10
94.563108
 20
53.625066
 30
0.0
 10
94.536325
 20
53.560231
 30
0.0
 10
94.471479
 20
53.533448
 30
0.0
 10
94.471484
 20
53.533457
 30
0.0
  0
SPLINE
  5
15c
100
AcDbEntity
  8
Imprimir
 62
5
100
AcDbSpline
 70
8
 71
3
 72
8
 73
4
 74
0
 40
0
 40
0
 40
0
 40
0
 40
1
 40
1
 40
1
 40
1
 10
84.654455
 20
40.843354
 30
0.0
 10
84.654469
 20
41.599625
 30
0.0
 10
85.267518
 20
42.212697
 30
0.0
 10
86.023746
 20
42.212697
 30
0.0
  0
SPLINE
  5
15d
100
AcDbEntity
  8
Imprimir
 62
5
100
AcDbSpline
 70
8
 71
3
 72
8
 73
4
 74
0
 40
0
 40
0
 40
0
 40
0
 40
1
 40
1
 40
1
 40
1
 10
86.023746
 20
42.212697
 30
0.0
 10
86.779975
 20
42.212697
 30
0.0
 10
87.393023
 20
41.599625
 30
0.0
 10
87.393038
 20
40.843354
 30
0.0
  0
SPLINE
  5
15e
100
AcDbEntity
  8
Imprimir
 62
5
100
AcDbSpline
 70
8
 71
3
 72
8
 73
4
 74
0
 40
0
 40
0
 40
0
 40
0
 40
1
 40
1
 40
1
 40
1
 10
87.393038
 20
40.843354
 30
0.0
 10
87.393039
 20
40.480174
 30
0.0
 10
87.248775
 20
40.131869
 30
0.0
 10
86.991983
 20
39.875061
 30
0.0
  0
SPLINE
  5
15f
100
AcDbEntity
  8
Imprimir
 62
5
100
AcDbSpline
 70
8
 71
3
 72
8
 73
4
 74
0
 40
0
 40
0
 40
0
 40
0
 40
1
 40
1
 40
1
 40
1
 10
86.991983
 20
39.875061
 30
0.0
 10
86.735191
 20
39.618254
 30
0.0
 10
86.386906
 20
39.473981
 30
0.0
 10
86.023746
 20
39.473981
 30
0.0
  0
SPLINE
  5
160
100
AcDbEntity
  8
Imprimir
 62
5
100
AcDbSpline
 70
8
 71
3
 72
8
 73
4
 74
0
 40
0
 40
0
 40
0
 40
0
 40
1
 40
1
 40
1
 40
1
 10
86.023746
 20
39.473981
 30
0.0
 10
85.660587
 20
39.473981
 30
0.0
 10
85.312301
 20
39.618254
 30
0.0
 10
85.055509
 20
39.875061
 30
0.0
  0
SPLINE
  5
161
100
AcDbEntity
  8
Imprimir
 62
5
100
AcDbSpline
 70
8
 71
3
 72
8
 73
4
 74
0
 40
0
 40
0
 40
0
 40
0
 40
1
 40
1
 40
1
 40
1
 10
85.055509
 20
39.875061
 30
0.0
 10
84.798717
 20
40.131869
 30
0.0
 10
84.654454
 20
40.480174
 30
0.0
 10
84.654455
 20
40.843354
 30
0.0
  0
LWPOLYLINE
  5
162
100
AcDbEntity
  8
Imprimir
 62
5
100
AcDbPolyline
 90
4
 70
1
 10
90.515420
 20
53.745660
 30
0.0
 10
90.488637
 20
53.680802
 30
0.0
 10
90.423797
 20
53.654019
 30
0.0
 10
90.423802
 20
53.654022
 30
0.0
  0
SPLINE
  5
163
100
AcDbEntity
  8
Imprimir
 62
5
100
AcDbSpline
 70
8
 71
3
 72
8
 73
4
 74
0
 40
0
 40
0
 40
0
 40
0
 40
1
 40
1
 40
1
 40
1
 10
143.612599
 20
41.084513
 30
0.0
 10
143.612613
 20
41.840783
 30
0.0
 10
144.225660
 20
42.453854
 30
0.0
 10
144.981888
 20
42.453855
 30
0.0
  0
SPLINE
  5
164
100
AcDbEntity
  8
Imprimir
 62
5
100
AcDbSpline
 70
8
 71
3
 72
8
 73
4
 74
0
 40
0
 40
0
 40
0
 40
0
 40
1
 40
1
 40
1
 40
1
 10
144.981888
 20
42.453855
 30
0.0
 10
145.738116
 20
42.453856
 30
0.0
 10
146.351165
 20
41.840784
 30
0.0
 10
146.351179
 20
41.084513
 30
0.0
  0
SPLINE
  5
165
100
AcDbEntity
  8
Imprimir
 62
5
100
AcDbSpline
 70
8
 71
3
 72
8
 73
4
 74
0
 40
0
 40
0
 40
0
 40
0
 40
1
 40
1
 40
1
 40
1
 10
146.351179
 20
41.084513
 30
0.0
 10
146.351180
 20
40.721334
 30
0.0
 10
146.206916
 20
40.373029
 30
0.0
 10
145.950124
 20
40.116222
 30
0.0
  0
SPLINE
  5
166
100
AcDbEntity
  8
Imprimir
 62
5
100
AcDbSpline
 70
8
 71
3
 72
8
 73
4
 74
0
 40
0
 40
0
 40
0
 40
0
 40
1
 40
1
 40
1
 40
1
 10
145.950124
 20
40.116222
 30
0.0
 10
145.693332
 20
39.859415
 30
0.0
 10
145.345047
 20
39.715143
 30
0.0
 10
144.981888
 20
39.715143
 30
0.0
  0
SPLINE
  5
167
100
AcDbEntity
  8
Imprimir
 62
5
100
AcDbSpline
 70
8
 71
3
 72
8
 73
4
 74
0
 40
0
 40
0
 40
0
 40
0
 40
1
 40
1
 40
1
 40
1
 10
144.981888
 20
39.715143
 30
0.0
 10
144.225649
 20
39.715144
 30
0.0
 10
143.612598
 20
40.328232
 30
0.0
 10
143.612599
 20
41.084513
 30
0.0
  0
LWPOLYLINE
  5
168
100
AcDbEntity
  8
Imprimir
 62
5
100
AcDbPolyline
 90
2
 70
1
 10
84.654455
 20
40.843354
 30
0.0
 10
84.654455
 20
40.843354
 30
0.0
  0
SPLINE
  5
169
100
AcDbEntity
  8
Imprimir
 62
5
100
AcDbSpline
 70
8
 71
3
 72
8
 73
4
 74
0
 40
0
 40
0
 40
0
 40
0
 40
1
 40
1
 40
1
 40
1
 10
143.612599
 20
90.038203
 30
0.0
 10
143.612598
 20
90.401382
 30
0.0
 10
143.756861
 20
90.749687
 30
0.0
 10
144.013652
 20
91.006495
 30
0.0
  0
SPLINE
  5
16a
100
AcDbEntity
  8
Imprimir
 62
5
100
AcDbSpline
 70
8
 71
3
 72
8
 73
4
 74
0
 40
0
 40
0
 40
0
 40
0
 40
1
 40
1
 40
1
 40
1
 10
144.013652
 20
91.006495
 30
0.0
 10
144.270444
 20
91.263302
 30
0.0
 10
144.618729
 20
91.407576
 30
0.0
 10
144.981888
 20
91.407576
 30
0.0
  0
SPLINE
  5
16b
100
AcDbEntity
  8
Imprimir
 62
5
100
AcDbSpline
 70
8
 71
3
 72
8
 73
4
 74
0
 40
0
 40
0
 40
0
 40
0
 40
1
 40
1
 40
1
 40
1
 10
144.981888
 20
91.407576
 30
0.0
 10
145.345047
 20
91.407576
 30
0.0
 10
145.693333
 20
91.263303
 30
0.0
 10
145.950125
 20
91.006496
 30
0.0
  0
SPLINE
  5
16c
100
AcDbEntity
  8
Imprimir
 62
5
100
AcDbSpline
 70
8
 71
3
 72
8
 73
4
 74
0
 40
0
 40
0
 40
0
 40
0
 40
1
 40
1
 40
1
 40
1
 10
145.950125
 20
91.006496
 30
0.0
 10
146.206917
 20
90.749688
 30
0.0
 10
146.351180
 20
90.401383
 30
0.0
 10
146.351179
 20
90.038203
 30
0.0
  0
SPLINE
  5
16d
100
AcDbEntity
  8
Imprimir
 62
5
100
AcDbSpline
 70
8
 71
3
 72
8
 73
4
 74
0
 40
0
 40
0
 40
0
 40
0
 40
1
 40
1
 40
1
 40
1
 10
146.351179
 20
90.038203
 30
0.0
 10
146.351180
 20
89.675023
 30
0.0
 10
146.206916
 20
89.326719
 30
0.0
 10
145.950124
 20
89.069912
 30
0.0
  0
SPLINE
  5
16e
100
AcDbEntity
  8
Imprimir
 62
5
100
AcDbSpline
 70
8
 71
3
 72
8
 73
4
 74
0
 40
0
 40
0
 40
0
 40
0
 40
1
 40
1
 40
1
 40
1
 10
145.950124
 20
89.069912
 30
0.0
 10
145.693332
 20
88.813105
 30
0.0
 10
145.345047
 20
88.668832
 30
0.0
 10
144.981888
 20
88.668832
 30
0.0
  0
SPLINE
  5
16f
100
AcDbEntity
  8
Imprimir
 62
5
100
AcDbSpline
 70
8
 71
3
 72
8
 73
4
 74
0
 40
0
 40
0
 40
0
 40
0
 40
1
 40
1
 40
1
 40
1
 10
144.981888
 20
88.668832
 30
0.0
 10
144.225649
 20
88.668834
 30
0.0
 10
143.612598
 20
89.281922
 30
0.0
 10
143.612599
 20
90.038203
 30
0.0
  0
LWPOLYLINE
  5
170
100
AcDbEntity
  8
Imprimir
 62
5
100
AcDbPolyline
 90
2
 70
1
 10
143.612599
 20
41.084513
 30
0.0
 10
143.612599
 20
41.084513
 30
0.0
  0
SPLINE
  5
171
100
AcDbEntity
  8
Imprimir
 62
5
100
AcDbSpline
 70
8
 71
3
 72
8
 73
4
 74
0
 40
0
 40
0
 40
0
 40
0
 40
1
 40
1
 40
1
 40
1
 10
84.895594
 20
90.038203
 30
0.0
 10
84.895593
 20
90.401383
 30
0.0
 10
85.039857
 20
90.749689
 30
0.0
 10
85.296649
 20
91.006497
 30
0.0
  0
SPLINE
  5
172
100
AcDbEntity
  8
Imprimir
 62
5
100
AcDbSpline
 70
8
 71
3
 72
8
 73
4
 74
0
 40
0
 40
0
 40
0
 40
0
 40
1
 40
1
 40
1
 40
1
 10
85.296649
 20
91.006497
 30
0.0
 10
85.553442
 20
91.263304
 30
0.0
 10
85.901728
 20
91.407577
 30
0.0
 10
86.264888
 20
91.407576
 30
0.0
  0
SPLINE
  5
173
100
AcDbEntity
  8
Imprimir
 62
5
100
AcDbSpline
 70
8
 71
3
 72
8
 73
4
 74
0
 40
0
 40
0
 40
0
 40
0
 40
1
 40
1
 40
1
 40
1
 10
86.264888
 20
91.407576
 30
0.0
 10
86.628047
 20
91.407576
 30
0.0
 10
86.976332
 20
91.263302
 30
0.0
 10
87.233124
 20
91.006495
 30
0.0
  0
SPLINE
  5
174
100
AcDbEntity
  8
Imprimir
 62
5
100
AcDbSpline
 70
8
 71
3
 72
8
 73
4
 74
0
 40
0
 40
0
 40
0
 40
0
 40
1
 40
1
 40
1
 40
1
 10
87.233124
 20
91.006495
 30
0.0
 10
87.489915
 20
90.749687
 30
0.0
 10
87.634178
 20
90.401382
 30
0.0
 10
87.634177
 20
90.038203
 30
0.0
  0
SPLINE
  5
175
100
AcDbEntity
  8
Imprimir
 62
5
100
AcDbSpline
 70
8
 71
3
 72
8
 73
4
 74
0
 40
0
 40
0
 40
0
 40
0
 40
1
 40
1
 40
1
 40
1
 10
87.634177
 20
90.038203
 30
0.0
 10
87.634178
 20
89.281922
 30
0.0
 10
87.021127
 20
88.668834
 30
0.0
 10
86.264888
 20
88.668832
 30
0.0
  0
SPLINE
  5
176
100
AcDbEntity
  8
Imprimir
 62
5
100
AcDbSpline
 70
8
 71
3
 72
8
 73
4
 74
0
 40
0
 40
0
 40
0
 40
0
 40
1
 40
1
 40
1
 40
1
 10
86.264888
 20
88.668832
 30
0.0
 10
85.901729
 20
88.668832
 30
0.0
 10
85.553443
 20
88.813104
 30
0.0
 10
85.296650
 20
89.069911
 30
0.0
  0
SPLINE
  5
177
100
AcDbEntity
  8
Imprimir
 62
5
100
AcDbSpline
 70
8
 71
3
 72
8
 73
4
 74
0
 40
0
 40
0
 40
0
 40
0
 40
1
 40
1
 40
1
 40
1
 10
85.296650
 20
89.069911
 30
0.0
 10
85.039858
 20
89.326718
 30
0.0
 10
84.895593
 20
89.675023
 30
0.0
 10
84.895594
 20
90.038203
 30
0.0
  0
LWPOLYLINE
  5
178
100
AcDbEntity
  8
Imprimir
 62
5
100
AcDbPolyline
 90
2
 70
1
 10
143.612599
 20
90.038203
 30
0.0
 10
143.612599
 20
90.038203
 30
0.0
  0
LWPOLYLINE
  5
179
100
AcDbEntity
  8
Imprimir
 62
5
100
AcDbPolyline
 90
2
 70
1
 10
84.895594
 20
90.038203
 30
0.0
 10
84.895594
 20
90.038203
 30
0.0
  0
SPLINE
  5
17a
100
AcDbEntity
  8
Imprimir
 62
5
100
AcDbSpline
 70
8
 71
3
 72
8
 73
4
 74
0
 40
0
 40
0
 40
0
 40
0
 40
1
 40
1
 40
1
 40
1
 10
159.260139
 20
24.086946
 30
0.0
 10
159.260152
 20
24.843218
 30
0.0
 10
159.873201
 20
25.456291
 30
0.0
 10
160.629431
 20
25.456291
 30
0.0
  0
SPLINE
  5
17b
100
AcDbEntity
  8
Imprimir
 62
5
100
AcDbSpline
 70
8
 71
3
 72
8
 73
4
 74
0
 40
0
 40
0
 40
0
 40
0
 40
1
 40
1
 40
1
 40
1
 10
160.629431
 20
25.456291
 30
0.0
 10
161.385660
 20
25.456291
 30
0.0
 10
161.998709
 20
24.843218
 30
0.0
 10
161.998722
 20
24.086946
 30
0.0
  0
SPLINE
  5
17c
100
AcDbEntity
  8
Imprimir
 62
5
100
AcDbSpline
 70
8
 71
3
 72
8
 73
4
 74
0
 40
0
 40
0
 40
0
 40
0
 40
1
 40
1
 40
1
 40
1
 10
161.998722
 20
24.086946
 30
0.0
 10
161.998723
 20
23.723767
 30
0.0
 10
161.854459
 20
23.375462
 30
0.0
 10
161.597667
 20
23.118655
 30
0.0
  0
SPLINE
  5
17d
100
AcDbEntity
  8
Imprimir
 62
5
100
AcDbSpline
 70
8
 71
3
 72
8
 73
4
 74
0
 40
0
 40
0
 40
0
 40
0
 40
1
 40
1
 40
1
 40
1
 10
161.597667
 20
23.118655
 30
0.0
 10
161.340875
 20
22.861848
 30
0.0
 10
160.992590
 20
22.717576
 30
0.0
 10
160.629431
 20
22.717576
 30
0.0
  0
SPLINE
  5
17e
100
AcDbEntity
  8
Imprimir
 62
5
100
AcDbSpline
 70
8
 71
3
 72
8
 73
4
 74
0
 40
0
 40
0
 40
0
 40
0
 40
1
 40
1
 40
1
 40
1
 10
160.629431
 20
22.717576
 30
0.0
 10
160.266272
 20
22.717576
 30
0.0
 10
159.917987
 20
22.861848
 30
0.0
 10
159.661195
 20
23.118655
 30
0.0
  0
SPLINE
  5
17f
100
AcDbEntity
  8
Imprimir
 62
5
100
AcDbSpline
 70
8
 71
3
 72
8
 73
4
 74
0
 40
0
 40
0
 40
0
 40
0
 40
1
 40
1
 40
1
 40
1
 10
159.661195
 20
23.118655
 30
0.0
 10
159.404403
 20
23.375462
 30
0.0
 10
159.260139
 20
23.723767
 30
0.0
 10
159.260139
 20
24.086946
 30
0.0
  0
LWPOLYLINE
  5
180
100
AcDbEntity
  8
Imprimir
 62
5
100
AcDbPolyline
 90
157
 70
1
 10
59.804419
 20
33.049980
 30
0.0
 10
59.804419
 20
39.049999
 30
0.0
 10
62.804421
 20
39.049999
 30
0.0
 10
62.804421
 20
45.049992
 30
0.0
 10
59.804419
 20
45.049992
 30
0.0
 10
59.804419
 20
51.050014
 30
0.0
 10
62.804421
 20
51.050014
 30
0.0
 10
62.804421
 20
57.050033
 30
0.0
 10
59.804419
 20
57.050033
 30
0.0
 10
59.804419
 20
63.050030
 30
0.0
 10
62.804421
 20
63.050030
 30
0.0
 10
62.804421
 20
69.050051
 30
0.0
 10
59.804419
 20
69.050051
 30
0.0
 10
59.804419
 20
75.050045
 30
0.0
 10
62.804421
 20
75.050045
 30
0.0
 10
62.804421
 20
81.050096
 30
0.0
 10
59.804419
 20
81.050096
 30
0.0
 10
59.804419
 20
88.550101
 30
0.0
 10
62.804421
 20
88.550101
 30
0.0
 10
62.804421
 20
93.050110
 30
0.0
 10
69.804432
 20
93.050110
 30
0.0
 10
69.804432
 20
96.050135
 30
0.0
 10
79.804449
 20
96.050135
 30
0.0
 10
79.804449
 20
93.050110
 30
0.0
 10
85.804460
 20
93.050110
 30
0.0
 10
85.804460
 20
96.050135
 30
0.0
 10
91.804467
 20
96.050135
 30
0.0
 10
91.804467
 20
93.050110
 30
0.0
 10
97.804478
 20
93.050110
 30
0.0
 10
97.804478
 20
96.050135
 30
0.0
 10
103.804489
 20
96.050135
 30
0.0
 10
103.804489
 20
93.050110
 30
0.0
 10
109.804496
 20
93.050110
 30
0.0
 10
109.804496
 20
96.050135
 30
0.0
 10
115.804504
 20
96.050135
 30
0.0
 10
115.804504
 20
93.050110
 30
0.0
 10
121.804515
 20
93.050110
 30
0.0
 10
121.804515
 20
96.050135
 30
0.0
 10
127.804525
 20
96.050135
 30
0.0
 10
127.804525
 20
93.050110
 30
0.0
 10
133.804536
 20
93.050110
 30
0.0
 10
133.804536
 20
96.050135
 30
0.0
 10
139.804546
 20
96.050135
 30
0.0
 10
139.804546
 20
93.050110
 30
0.0
 10
145.804554
 20
93.050110
 30
0.0
 10
145.804554
 20
96.050135
 30
0.0
 10
151.804565
 20
96.050135
 30
0.0
 10
151.804565
 20
93.050110
 30
0.0
 10
157.804572
 20
93.050110
 30
0.0
 10
157.804572
 20
96.050135
 30
0.0
 10
163.804583
 20
96.050135
 30
0.0
 10
163.804583
 20
93.050110
 30
0.0
 10
169.804591
 20
93.050110
 30
0.0
 10
169.804591
 20
96.050135
 30
0.0
 10
175.804601
 20
96.050135
 30
0.0
 10
175.804601
 20
93.050110
 30
0.0
 10
181.804612
 20
93.050110
 30
0.0
 10
181.804612
 20
96.050135
 30
0.0
 10
187.804623
 20
96.050135
 30
0.0
 10
187.804623
 20
93.050110
 30
0.0
 10
193.804633
 20
93.050110
 30
0.0
 10
193.804633
 20
96.050135
 30
0.0
 10
199.804647
 20
96.050135
 30
0.0
 10
199.804647
 20
93.050110
 30
0.0
 10
205.804657
 20
93.050110
 30
0.0
 10
205.804657
 20
96.050135
 30
0.0
 10
215.804674
 20
96.050135
 30
0.0
 10
215.804674
 20
93.050110
 30
0.0
 10
222.804682
 20
93.050110
 30
0.0
 10
222.804682
 20
88.550101
 30
0.0
 10
225.804688
 20
88.550101
 30
0.0
 10
225.804688
 20
81.050096
 30
0.0
 10
222.804682
 20
81.050096
 30
0.0
 10
222.804682
 20
75.050045
 30
0.0
 10
225.804688
 20
75.050045
 30
0.0
 10
225.804688
 20
69.050051
 30
0.0
 10
222.804682
 20
69.050051
 30
0.0
 10
222.804682
 20
63.050030
 30
0.0
 10
225.804688
 20
63.050030
 30
0.0
 10
225.804688
 20
57.050033
 30
0.0
 10
222.804682
 20
57.050033
 30
0.0
 10
222.804682
 20
51.050014
 30
0.0
 10
225.804688
 20
51.050014
 30
0.0
 10
225.804688
 20
45.049992
 30
0.0
 10
222.804682
 20
45.049992
 30
0.0
 10
222.804682
 20
39.049999
 30
0.0
 10
225.804688
 20
39.049999
 30
0.0
 10
225.804688
 20
33.049980
 30
0.0
 10
222.804682
 20
33.049980
 30
0.0
 10
222.804682
 20
27.049972
 30
0.0
 10
225.804688
 20
27.049972
 30
0.0
 10
225.804688
 20
21.049950
 30
0.0
 10
222.804682
 20
21.049950
 30
0.0
 10
222.804682
 20
15.049931
 30
0.0
 10
225.804688
 20
15.049931
 30
0.0
 10
225.804688
 20
7.549926
 30
0.0
 10
222.804682
 20
7.549926
 30
0.0
 10
222.804682
 20
3.049913
 30
0.0
 10
215.804674
 20
3.049913
 30
0.0
 10
215.804674
 20
0.049919
 30
0.0
 10
205.804657
 20
0.049919
 30
0.0
 10
205.804657
 20
3.049913
 30
0.0
 10
199.804647
 20
3.049913
 30
0.0
 10
199.804647
 20
0.049919
 30
0.0
 10
193.804633
 20
0.049919
 30
0.0
 10
193.804633
 20
3.049913
 30
0.0
 10
187.804623
 20
3.049913
 30
0.0
 10
187.804623
 20
0.049919
 30
0.0
 10
181.804612
 20
0.049919
 30
0.0
 10
181.804612
 20
3.049913
 30
0.0
 10
175.804601
 20
3.049913
 30
0.0
 10
175.804601
 20
0.049919
 30
0.0
 10
169.804591
 20
0.049919
 30
0.0
 10
169.804591
 20
3.049913
 30
0.0
 10
163.804583
 20
3.049913
 30
0.0
 10
163.804583
 20
0.049919
 30
0.0
 10
157.804572
 20
0.049919
 30
0.0
 10
157.804572
 20
3.049913
 30
0.0
 10
151.804565
 20
3.049913
 30
0.0
 10
151.804565
 20
0.049919
 30
0.0
 10
145.804554
 20
0.049919
 30
0.0
 10
145.804554
 20
3.049913
 30
0.0
 10
139.804546
 20
3.049913
 30
0.0
 10
139.804546
 20
0.049919
 30
0.0
 10
133.804536
 20
0.049919
 30
0.0
 10
133.804536
 20
3.049913
 30
0.0
 10
127.804525
 20
3.049913
 30
0.0
 10
127.804525
 20
0.049919
 30
0.0
 10
121.804515
 20
0.049919
 30
0.0
 10
121.804515
 20
3.049913
 30
0.0
 10
115.804504
 20
3.049913
 30
0.0
 10
115.804504
 20
0.049919
 30
0.0
 10
109.804496
 20
0.049919
 30
0.0
 10
109.804496
 20
3.049913
 30
0.0
 10
103.804489
 20
3.049913
 30
0.0
 10
103.804489
 20
0.049919
 30
0.0
 10
97.804478
 20
0.049919
 30
0.0
 10
97.804478
 20
3.049913
 30
0.0
 10
91.804467
 20
3.049913
 30
0.0
 10
91.804467
 20
0.049919
 30
0.0
 10
85.804460
 20
0.049919
 30
0.0
 10
85.804460
 20
3.049913
 30
0.0
 10
79.804449
 20
3.049913
 30
0.0
 10
79.804449
 20
0.049919
 30
0.0
 10
69.804432
 20
0.049919
 30
0.0
 10
69.804432
 20
3.049913
 30
0.0
 10
62.804421
 20
3.049913
 30
0.0
 10
62.804421
 20
7.549926
 30
0.0
 10
59.804419
 20
7.549926
 30
0.0
 10
59.804419
 20
15.049931
 30
0.0
 10
62.804421
 20
15.049931
 30
0.0
 10
62.804421
 20
21.049950
 30
0.0
 10
59.804419
 20
21.049950
 30
0.0
 10
59.804419
 20
27.049972
 30
0.0
 10
62.804421
 20
27.049972
 30
0.0
 10
62.804421
 20
33.049980
 30
0.0
 10
59.804419
 20
33.049980
 30
0.0
  0
SPLINE
  5
181
100
AcDbEntity
  8
Imprimir
 62
5
100
AcDbSpline
 70
8
 71
3
 72
8
 73
4
 74
0
 40
0
 40
0
 40
0
 40
0
 40
1
 40
1
 40
1
 40
1
 10
198.760207
 20
14.086929
 30
0.0
 10
198.760220
 20
14.843202
 30
0.0
 10
199.373269
 20
15.456275
 30
0.0
 10
200.129498
 20
15.456274
 30
0.0
  0
SPLINE
  5
182
100
AcDbEntity
  8
Imprimir
 62
5
100
AcDbSpline
 70
8
 71
3
 72
8
 73
4
 74
0
 40
0
 40
0
 40
0
 40
0
 40
1
 40
1
 40
1
 40
1
 10
200.129498
 20
15.456274
 30
0.0
 10
200.885728
 20
15.456275
 30
0.0
 10
201.498777
 20
14.843202
 30
0.0
 10
201.498790
 20
14.086929
 30
0.0
  0
SPLINE
  5
183
100
AcDbEntity
  8
Imprimir
 62
5
100
AcDbSpline
 70
8
 71
3
 72
8
 73
4
 74
0
 40
0
 40
0
 40
0
 40
0
 40
1
 40
1
 40
1
 40
1
 10
201.498790
 20
14.086929
 30
0.0
 10
201.498790
 20
13.723750
 30
0.0
 10
201.354526
 20
13.375445
 30
0.0
 10
201.097734
 20
13.118638
 30
0.0
  0
SPLINE
  5
184
100
AcDbEntity
  8
Imprimir
 62
5
100
AcDbSpline
 70
8
 71
3
 72
8
 73
4
 74
0
 40
0
 40
0
 40
0
 40
0
 40
1
 40
1
 40
1
 40
1
 10
201.097734
 20
13.118638
 30
0.0
 10
200.840942
 20
12.861832
 30
0.0
 10
200.492657
 20
12.717559
 30
0.0
 10
200.129498
 20
12.717559
 30
0.0
  0
SPLINE
  5
185
100
AcDbEntity
  8
Imprimir
 62
5
100
AcDbSpline
 70
8
 71
3
 72
8
 73
4
 74
0
 40
0
 40
0
 40
0
 40
0
 40
1
 40
1
 40
1
 40
1
 10
200.129498
 20
12.717559
 30
0.0
 10
199.766339
 20
12.717559
 30
0.0
 10
199.418054
 20
12.861832
 30
0.0
 10
199.161262
 20
13.118638
 30
0.0
  0
SPLINE
  5
186
100
AcDbEntity
  8
Imprimir
 62
5
100
AcDbSpline
 70
8
 71
3
 72
8
 73
4
 74
0
 40
0
 40
0
 40
0
 40
0
 40
1
 40
1
 40
1
 40
1
 10
199.161262
 20
13.118638
 30
0.0
 10
198.904470
 20
13.375445
 30
0.0
 10
198.760206
 20
13.723750
 30
0.0
 10
198.760207
 20
14.086929
 30
0.0
  0
LWPOLYLINE
  5
187
100
AcDbEntity
  8
Imprimir
 62
5
100
AcDbPolyline
 90
2
 70
1
 10
159.260139
 20
24.086946
 30
0.0
 10
159.260139
 20
24.086946
 30
0.0
  0
LWPOLYLINE
  5
188
100
AcDbEntity
  8
Imprimir
 62
5
100
AcDbPolyline
 90
2
 70
1
 10
198.760207
 20
14.086929
 30
0.0
 10
198.760207
 20
14.086929
 30
0.0
  0
ENDSEC
  0
SECTION
  2
OBJECTS
  0
DICTIONARY
  5
C
330
0
100
AcDbDictionary
  3
ACAD_GROUP
350
D
  3
ACAD_MLINESTYLE
350
17
  0
DICTIONARY
  5
D
330
C
100
AcDbDictionary
  0
DICTIONARY
  5
1A
330
C
100
AcDbDictionary
  0
DICTIONARY
  5
17
330
C
100
AcDbDictionary
  3
STANDARD
350
18
  0
DICTIONARY
  5
19
330
C
100
AcDbDictionary
  0
ENDSEC
  0
EOF
