<?xml version="1.0" encoding="UTF-8" standalone="no"?>
<!-- Created with Inkscape (http://www.inkscape.org/) -->

<svg
   xmlns:dc="http://purl.org/dc/elements/1.1/"
   xmlns:cc="http://creativecommons.org/ns#"
   xmlns:rdf="http://www.w3.org/1999/02/22-rdf-syntax-ns#"
   xmlns:svg="http://www.w3.org/2000/svg"
   xmlns="http://www.w3.org/2000/svg"
   xmlns:sodipodi="http://sodipodi.sourceforge.net/DTD/sodipodi-0.dtd"
   xmlns:inkscape="http://www.inkscape.org/namespaces/inkscape"
   width="41.264584mm"
   height="61.269184mm"
   viewBox="0 0 41.264584 61.269184"
   version="1.1"
   id="svg9207"
   inkscape:version="0.92.2 5c3e80d, 2017-08-06"
   sodipodi:docname="knob.svg">
  <defs
     id="defs9201">
    <marker
       style="overflow:visible"
       refY="0"
       refX="0"
       orient="auto"
       id="DistanceX">
      <path
         id="path9773"
         style="stroke:#000000;stroke-width:0.5"
         d="M 3,-3 -3,3 M 0,-5 V 5"
         inkscape:connector-curvature="0" />
    </marker>
    <pattern
       y="0"
       x="0"
       width="8"
       patternUnits="userSpaceOnUse"
       id="Hatch"
       height="8">
      <path
         id="path9776"
         stroke-width="0.25"
         stroke="#000000"
         linecap="square"
         d="M8 4 l-4,4" />
      <path
         id="path9778"
         stroke-width="0.25"
         stroke="#000000"
         linecap="square"
         d="M6 2 l-4,4" />
      <path
         id="path9780"
         stroke-width="0.25"
         stroke="#000000"
         linecap="square"
         d="M4 0 l-4,4" />
    </pattern>
    <symbol
       id="*Model_Space" />
    <symbol
       id="*Paper_Space" />
    <symbol
       id="*Paper_Space0" />
  </defs>
  <sodipodi:namedview
     id="base"
     pagecolor="#ffffff"
     bordercolor="#666666"
     borderopacity="1.0"
     inkscape:pageopacity="0.0"
     inkscape:pageshadow="2"
     inkscape:zoom="2.2844205"
     inkscape:cx="77.980308"
     inkscape:cy="115.78427"
     inkscape:document-units="mm"
     inkscape:current-layer="layer1"
     showgrid="false"
     fit-margin-top="0"
     fit-margin-left="0"
     fit-margin-right="0"
     fit-margin-bottom="0"
     inkscape:window-width="1280"
     inkscape:window-height="755"
     inkscape:window-x="0"
     inkscape:window-y="1"
     inkscape:window-maximized="1" />
  <metadata
     id="metadata9204">
    <rdf:RDF>
      <cc:Work
         rdf:about="">
        <dc:format>image/svg+xml</dc:format>
        <dc:type
           rdf:resource="http://purl.org/dc/dcmitype/StillImage" />
        <dc:title></dc:title>
      </cc:Work>
    </rdf:RDF>
  </metadata>
  <g
     inkscape:label="Layer 1"
     inkscape:groupmode="layer"
     id="layer1"
     transform="translate(-235.63557,-245.95469)">
    <g
       id="g9930"
       inkscape:label="0"
       transform="matrix(0.26458333,0,0,0.26458333,235.76786,10.089801)">
      <path
         id="path9788"
         style="fill:none;stroke:#ff0000"
         d="m 68.031496,1077.1654 a 22.677165,22.677165 0 1 0 -45.354331,0 22.677166,22.677166 0 1 0 45.354331,0 z"
         inkscape:connector-curvature="0" />
      <path
         id="path9790"
         style="fill:none;stroke:#000000"
         d="m 90.708661,1077.1654 a 45.354331,45.354331 0 1 0 -90.708661,0 45.354331,45.354331 0 1 0 90.708661,0 z"
         inkscape:connector-curvature="0" />
      <path
         id="path9792"
         style="fill:none;stroke:#0000ff"
         d="m 83.149606,1077.1654 a 37.795276,37.795276 0 1 0 -75.590551,0 37.795276,37.795276 0 1 0 75.590551,0 z"
         inkscape:connector-curvature="0" />
      <path
         id="path9794"
         style="fill:none;stroke:#ff0000"
         d="m 136.06299,929.76378 a 22.677165,22.677165 0 1 0 -45.354329,0 22.677165,22.677165 0 1 0 45.354329,0 z"
         inkscape:connector-curvature="0" />
      <path
         id="path9796"
         style="fill:none;stroke:#000000"
         d="m 151.1811,929.76378 a 37.795276,37.795276 0 1 0 -75.590549,0 37.795276,37.795276 0 1 0 75.590549,0 z"
         inkscape:connector-curvature="0" />
      <path
         id="path9798"
         style="fill:none;stroke:#ff0000"
         d="m 128.4574,1011.1073 a 11.338583,11.338583 0 1 0 -19.63901,0"
         inkscape:connector-curvature="0" />
      <path
         id="path9800"
         style="fill:none;stroke:#ff0000"
         d="M 128.4574,1011.1073 H 108.81839"
         inkscape:connector-curvature="0" />
      <path
         id="path9802"
         style="fill:none;stroke:#ff0000"
         d="m 55.173831,1001.5748 a 11.338583,11.338583 0 1 0 -19.639001,0"
         inkscape:connector-curvature="0" />
      <path
         id="path9804"
         style="fill:none;stroke:#ff0000"
         d="M 55.173831,1001.5748 H 35.53483"
         inkscape:connector-curvature="0" />
      <path
         id="path9806"
         style="fill:none;stroke:#ff0000"
         d="m 132.65415,1082.8346 a 11.338583,11.338583 0 1 0 -19.639,0"
         inkscape:connector-curvature="0" />
      <path
         id="path9808"
         style="fill:none;stroke:#ff0000"
         d="m 132.65415,1082.8346 h -19.639"
         inkscape:connector-curvature="0" />
      <path
         id="path9810"
         style="fill:none;stroke:#0000ff"
         d="m 32.193406,915.83402 a 3.466342,3.466342 0 0 0 -3.466342,3.46634"
         inkscape:connector-curvature="0" />
      <path
         id="path9812"
         style="fill:none;stroke:#0000ff"
         d="m 32.193406,914.81478 a 4.485578,4.485578 0 0 0 -4.485578,4.48558"
         inkscape:connector-curvature="0" />
      <path
         id="path9814"
         style="fill:none;stroke:#0000ff"
         d="M 32.193406,914.81478 H 58.515255"
         inkscape:connector-curvature="0" />
      <path
         id="path9816"
         style="fill:none;stroke:#0000ff"
         d="M 32.193406,915.83402 H 58.515255"
         inkscape:connector-curvature="0" />
      <path
         id="path9818"
         style="fill:none;stroke:#0000ff"
         d="M 27.707828,919.30036 V 940.2272"
         inkscape:connector-curvature="0" />
      <path
         id="path9820"
         style="fill:none;stroke:#0000ff"
         d="m 28.727064,940.2272 a 3.466342,3.466342 0 0 0 3.466342,3.46634"
         inkscape:connector-curvature="0" />
      <path
         id="path9822"
         style="fill:none;stroke:#0000ff"
         d="m 27.707828,940.2272 a 4.485578,4.485578 0 0 0 4.485578,4.48558"
         inkscape:connector-curvature="0" />
      <path
         id="path9824"
         style="fill:none;stroke:#0000ff"
         d="M 32.193406,944.71278 H 58.515255"
         inkscape:connector-curvature="0" />
      <path
         id="path9826"
         style="fill:none;stroke:#0000ff"
         d="M 32.193406,943.69354 H 58.515255"
         inkscape:connector-curvature="0" />
      <path
         id="path9828"
         style="fill:none;stroke:#0000ff"
         d="m 46.498334,922.67758 a 1.144003,1.144003 0 0 0 -2.288006,0"
         inkscape:connector-curvature="0" />
      <path
         id="path9830"
         style="fill:none;stroke:#0000ff"
         d="m 47.555288,922.67758 a 2.200958,2.200958 0 0 0 -4.401915,0"
         inkscape:connector-curvature="0" />
      <path
         id="path9832"
         style="fill:none;stroke:#0000ff"
         d="m 40.865367,936.84998 a 1.144003,1.144003 0 0 0 2.288006,0"
         inkscape:connector-curvature="0" />
      <path
         id="path9834"
         style="fill:none;stroke:#0000ff"
         d="m 39.808412,936.84998 a 2.200958,2.200958 0 0 0 4.401916,0"
         inkscape:connector-curvature="0" />
      <path
         id="path9836"
         style="fill:none;stroke:#0000ff"
         d="m 44.210328,922.67758 v 14.1724"
         inkscape:connector-curvature="0" />
      <path
         id="path9838"
         style="fill:none;stroke:#0000ff"
         d="m 43.153373,922.67758 v 14.1724"
         inkscape:connector-curvature="0" />
      <path
         id="path9840"
         style="fill:none;stroke:#0000ff"
         d="m 34.173655,932.85681 a 1.1440035,1.1440035 0 0 0 2.288007,0"
         inkscape:connector-curvature="0" />
      <path
         id="path9842"
         style="fill:none;stroke:#0000ff"
         d="m 33.116701,932.85681 a 2.200958,2.200958 0 0 0 4.401915,0"
         inkscape:connector-curvature="0" />
      <path
         id="path9844"
         style="fill:none;stroke:#0000ff"
         d="m 39.808412,925.51259 a 1.144003,1.144003 0 0 0 -2.288006,0"
         inkscape:connector-curvature="0" />
      <path
         id="path9846"
         style="fill:none;stroke:#0000ff"
         d="m 40.865367,925.51259 a 2.200958,2.200958 0 0 0 -4.401915,0"
         inkscape:connector-curvature="0" />
      <path
         id="path9848"
         style="fill:none;stroke:#0000ff"
         d="m 33.116701,930.062 a 1.144003,1.144003 0 0 0 -1.144003,-1.144"
         inkscape:connector-curvature="0" />
      <path
         id="path9850"
         style="fill:none;stroke:#0000ff"
         d="m 34.173655,930.062 a 2.200958,2.200958 0 0 0 -2.200957,-2.20096"
         inkscape:connector-curvature="0" />
      <path
         id="path9852"
         style="fill:none;stroke:#0000ff"
         d="m 28.727511,927.86104 v -8.61632"
         inkscape:connector-curvature="0" />
      <path
         id="path9854"
         style="fill:none;stroke:#0000ff"
         d="M 28.727511,940.28284 V 928.918"
         inkscape:connector-curvature="0" />
      <path
         id="path9856"
         style="fill:none;stroke:#0000ff"
         d="M 40.865367,936.84998 V 925.51259"
         inkscape:connector-curvature="0" />
      <path
         id="path9858"
         style="fill:none;stroke:#0000ff"
         d="m 36.463452,932.85681 v -7.34422"
         inkscape:connector-curvature="0" />
      <path
         id="path9860"
         style="fill:none;stroke:#0000ff"
         d="m 37.520406,932.85681 v -7.34422"
         inkscape:connector-curvature="0" />
      <path
         id="path9862"
         style="fill:none;stroke:#0000ff"
         d="M 39.808412,936.84998 V 925.51259"
         inkscape:connector-curvature="0" />
      <path
         id="path9864"
         style="fill:none;stroke:#0000ff"
         d="m 28.727511,928.918 h 3.245187"
         inkscape:connector-curvature="0" />
      <path
         id="path9866"
         style="fill:none;stroke:#0000ff"
         d="m 28.727511,927.86104 h 3.245187"
         inkscape:connector-curvature="0" />
      <path
         id="path9868"
         style="fill:none;stroke:#0000ff"
         d="m 34.173655,930.062 v 2.79481"
         inkscape:connector-curvature="0" />
      <path
         id="path9870"
         style="fill:none;stroke:#0000ff"
         d="m 33.116701,930.062 v 2.79481"
         inkscape:connector-curvature="0" />
      <path
         id="path9872"
         style="fill:none;stroke:#0000ff"
         d="m 61.981597,919.30036 a 3.466342,3.466342 0 0 0 -3.466342,-3.46634"
         inkscape:connector-curvature="0" />
      <path
         id="path9874"
         style="fill:none;stroke:#0000ff"
         d="m 63.000833,919.30036 a 4.485578,4.485578 0 0 0 -4.485578,-4.48558"
         inkscape:connector-curvature="0" />
      <path
         id="path9876"
         style="fill:none;stroke:#0000ff"
         d="M 63.000833,919.30036 V 940.2272"
         inkscape:connector-curvature="0" />
      <path
         id="path9878"
         style="fill:none;stroke:#0000ff"
         d="m 58.515255,943.69354 a 3.466342,3.466342 0 0 0 3.466342,-3.46634"
         inkscape:connector-curvature="0" />
      <path
         id="path9880"
         style="fill:none;stroke:#0000ff"
         d="m 58.515255,944.71278 a 4.485578,4.485578 0 0 0 4.485578,-4.48558"
         inkscape:connector-curvature="0" />
      <path
         id="path9882"
         style="fill:none;stroke:#0000ff"
         d="m 47.555288,936.84998 a 1.144003,1.144003 0 0 0 2.288006,0"
         inkscape:connector-curvature="0" />
      <path
         id="path9884"
         style="fill:none;stroke:#0000ff"
         d="m 46.498334,936.84998 a 2.200958,2.200958 0 0 0 4.401915,0"
         inkscape:connector-curvature="0" />
      <path
         id="path9886"
         style="fill:none;stroke:#0000ff"
         d="m 46.498334,922.67758 v 14.1724"
         inkscape:connector-curvature="0" />
      <path
         id="path9888"
         style="fill:none;stroke:#0000ff"
         d="m 47.555288,922.67758 v 14.1724"
         inkscape:connector-curvature="0" />
      <path
         id="path9890"
         style="fill:none;stroke:#0000ff"
         d="m 54.247,932.85681 a 1.144003,1.144003 0 0 0 2.288006,0"
         inkscape:connector-curvature="0" />
      <path
         id="path9892"
         style="fill:none;stroke:#0000ff"
         d="m 53.190045,932.85681 a 2.200958,2.200958 0 0 0 4.401916,0"
         inkscape:connector-curvature="0" />
      <path
         id="path9894"
         style="fill:none;stroke:#0000ff"
         d="m 53.188255,925.51259 a 1.144003,1.144003 0 0 0 -2.288006,0"
         inkscape:connector-curvature="0" />
      <path
         id="path9896"
         style="fill:none;stroke:#0000ff"
         d="m 54.24521,925.51259 a 2.200958,2.200958 0 0 0 -4.401916,0"
         inkscape:connector-curvature="0" />
      <path
         id="path9898"
         style="fill:none;stroke:#0000ff"
         d="m 58.735964,928.918 a 1.144003,1.144003 0 0 0 -1.144003,1.144"
         inkscape:connector-curvature="0" />
      <path
         id="path9900"
         style="fill:none;stroke:#0000ff"
         d="M 58.735964,927.86104 A 2.200958,2.200958 0 0 0 56.535006,930.062"
         inkscape:connector-curvature="0" />
      <path
         id="path9902"
         style="fill:none;stroke:#0000ff"
         d="m 61.981151,927.86104 v -8.61632"
         inkscape:connector-curvature="0" />
      <path
         id="path9904"
         style="fill:none;stroke:#0000ff"
         d="M 61.981151,940.28284 V 928.918"
         inkscape:connector-curvature="0" />
      <path
         id="path9906"
         style="fill:none;stroke:#0000ff"
         d="M 49.843294,936.84998 V 925.51259"
         inkscape:connector-curvature="0" />
      <path
         id="path9908"
         style="fill:none;stroke:#0000ff"
         d="m 54.24521,932.85681 v -7.34422"
         inkscape:connector-curvature="0" />
      <path
         id="path9910"
         style="fill:none;stroke:#0000ff"
         d="m 53.188255,932.85681 v -7.34422"
         inkscape:connector-curvature="0" />
      <path
         id="path9912"
         style="fill:none;stroke:#0000ff"
         d="M 50.900249,936.84998 V 925.51259"
         inkscape:connector-curvature="0" />
      <path
         id="path9914"
         style="fill:none;stroke:#0000ff"
         d="M 61.981151,928.918 H 58.735964"
         inkscape:connector-curvature="0" />
      <path
         id="path9916"
         style="fill:none;stroke:#0000ff"
         d="M 61.981151,927.86104 H 58.735964"
         inkscape:connector-curvature="0" />
      <path
         id="path9918"
         style="fill:none;stroke:#0000ff"
         d="m 56.535006,930.062 v 2.79481"
         inkscape:connector-curvature="0" />
      <path
         id="path9920"
         style="fill:none;stroke:#0000ff"
         d="m 57.591961,930.062 v 2.79481"
         inkscape:connector-curvature="0" />
      <path
         id="path9922"
         style="fill:none;stroke:#000000"
         d="m 75.590551,929.76378 a 30.236221,30.236221 0 1 0 -60.472441,0 30.236221,30.236221 0 1 0 60.472441,0 z"
         inkscape:connector-curvature="0" />
      <path
         id="path9924"
         style="fill:none;stroke:#000000"
         d="m 81.259843,995.90551 a 35.905512,35.905512 0 1 0 -71.811024,0 35.905512,35.905512 0 1 0 71.811024,0 z"
         inkscape:connector-curvature="0" />
      <path
         id="path9926"
         style="fill:none;stroke:#000000"
         d="m 152.65364,1005.438 a 34.015748,34.015748 0 1 0 -68.031493,0 34.015749,34.015749 0 1 0 68.031493,0 z"
         inkscape:connector-curvature="0" />
      <path
         id="path9928"
         style="fill:none;stroke:#000000"
         d="m 154.96063,1077.1654 a 32.125985,32.125985 0 1 0 -64.251969,0 32.125985,32.125985 0 1 0 64.251969,0 z"
         inkscape:connector-curvature="0" />
    </g>
  </g>
</svg>
