<?xml version="1.0" encoding="UTF-8" standalone="no"?>
<svg
   xmlns:dc="http://purl.org/dc/elements/1.1/"
   xmlns:cc="http://creativecommons.org/ns#"
   xmlns:rdf="http://www.w3.org/1999/02/22-rdf-syntax-ns#"
   xmlns:svg="http://www.w3.org/2000/svg"
   xmlns="http://www.w3.org/2000/svg"
   xmlns:sodipodi="http://sodipodi.sourceforge.net/DTD/sodipodi-0.dtd"
   xmlns:inkscape="http://www.inkscape.org/namespaces/inkscape"
   version="1.1"
   width="410.254mm"
   height="141.254mm"
   viewBox="0 0 1453.657 500.50672"
   id="svg4477"
   inkscape:version="0.91 r13725"
   sodipodi:docname="Zynthian 3 NETA.svg"
   style="enable-background:new">
  <metadata
     id="metadata4507">
    <rdf:RDF>
      <cc:Work
         rdf:about="">
        <dc:format>image/svg+xml</dc:format>
        <dc:type
           rdf:resource="http://purl.org/dc/dcmitype/StillImage" />
        <dc:title></dc:title>
      </cc:Work>
    </rdf:RDF>
  </metadata>
  <defs
     id="defs4505">
    <inkscape:path-effect
       effect="skeletal"
       id="path-effect8006"
       is_visible="true"
       pattern="m -24.251285,32.68298 c 0,-2.76 2.240002,-5 5.000004,-5 2.760002,0 5.000004,2.24 5.000004,5 0,2.76001 -2.240002,5.00001 -5.000004,5.00001 -2.760002,0 -5.000004,-2.24 -5.000004,-5.00001 z"
       copytype="single_stretched"
       prop_scale="1"
       scale_y_rel="false"
       spacing="0"
       normal_offset="0"
       tang_offset="0"
       prop_units="false"
       vertical_pattern="false"
       fuse_tolerance="0" />
    <inkscape:path-effect
       effect="skeletal"
       id="path-effect8002"
       is_visible="true"
       pattern="m -24.251285,32.68298 c 0,-2.76 2.240002,-5 5.000004,-5 2.760002,0 5.000004,2.24 5.000004,5 0,2.76001 -2.240002,5.00001 -5.000004,5.00001 -2.760002,0 -5.000004,-2.24 -5.000004,-5.00001 z"
       copytype="single_stretched"
       prop_scale="1"
       scale_y_rel="false"
       spacing="0"
       normal_offset="0"
       tang_offset="0"
       prop_units="false"
       vertical_pattern="false"
       fuse_tolerance="0" />
    <inkscape:path-effect
       effect="skeletal"
       id="path-effect7996"
       is_visible="true"
       pattern="M 0,5.0000039 C 0,2.2400017 2.2400017,0 5.0000039,0 7.760006,0 10.000008,2.2400017 10.000008,5.0000039 c 0,2.7600021 -2.240002,5.0000041 -5.0000041,5.0000041 C 2.2400017,10.000008 0,7.760006 0,5.0000039 Z"
       copytype="single_stretched"
       prop_scale="1"
       scale_y_rel="false"
       spacing="0"
       normal_offset="0"
       tang_offset="0"
       prop_units="false"
       vertical_pattern="false"
       fuse_tolerance="0" />
    <inkscape:path-effect
       effect="skeletal"
       id="path-effect6917"
       is_visible="true"
       pattern="M 0,5.0000039 C 0,2.2400017 2.2400017,0 5.0000039,0 7.760006,0 10.000008,2.2400017 10.000008,5.0000039 c 0,2.7600021 -2.240002,5.0000041 -5.0000041,5.0000041 C 2.2400017,10.000008 0,7.760006 0,5.0000039 Z"
       copytype="single_stretched"
       prop_scale="1"
       scale_y_rel="false"
       spacing="0"
       normal_offset="0"
       tang_offset="0"
       prop_units="false"
       vertical_pattern="false"
       fuse_tolerance="0" />
    <clipPath
       id="clipPath5494"
       clipPathUnits="userSpaceOnUse">
      <path
         inkscape:connector-curvature="0"
         id="path5496"
         d="m 0,595.276 1,0 0,-595 -1,0 0,595 z" />
    </clipPath>
    <clipPath
       id="clipPath5506"
       clipPathUnits="userSpaceOnUse">
      <path
         inkscape:connector-curvature="0"
         id="path5508"
         d="m 0,1.276 841,0 0,-1 -841,0 0,1 z" />
    </clipPath>
    <clipPath
       id="clipPath5518"
       clipPathUnits="userSpaceOnUse">
      <path
         inkscape:connector-curvature="0"
         id="path5520"
         d="m 0,595.276 841,0 0,-1 -841,0 0,1 z" />
    </clipPath>
    <clipPath
       id="clipPath5647"
       clipPathUnits="userSpaceOnUse">
      <path
         inkscape:connector-curvature="0"
         id="path5649"
         d="m 105.882,281.68 164.641,0 0,262.08 -164.641,0 0,-262.08 z" />
    </clipPath>
    <clipPath
       id="clipPath5667"
       clipPathUnits="userSpaceOnUse">
      <path
         inkscape:connector-curvature="0"
         id="path5669"
         d="m 382.023,68.928 462,0 0,164.641 -462,0 0,-164.641 z" />
    </clipPath>
    <clipPath
       id="clipPath5697"
       clipPathUnits="userSpaceOnUse">
      <path
         inkscape:connector-curvature="0"
         id="path5699"
         d="m 0,841.89 1190.55,0 L 1190.55,0 0,0 0,841.89 Z" />
    </clipPath>
    <clipPath
       id="clipPath5763"
       clipPathUnits="userSpaceOnUse">
      <path
         inkscape:connector-curvature="0"
         id="path5765"
         d="m 0,841.89 1190.55,0 L 1190.55,0 0,0 0,841.89 Z" />
    </clipPath>
    <clipPath
       id="clipPath5829"
       clipPathUnits="userSpaceOnUse">
      <path
         inkscape:connector-curvature="0"
         id="path5831"
         d="m 0,841.89 1190.55,0 L 1190.55,0 0,0 0,841.89 Z" />
    </clipPath>
    <clipPath
       id="clipPath6370"
       clipPathUnits="userSpaceOnUse">
      <path
         inkscape:connector-curvature="0"
         id="path6372"
         d="m 105.882,281.68 164.641,0 0,262.08 -164.641,0 0,-262.08 z" />
    </clipPath>
    <clipPath
       id="clipPath6390"
       clipPathUnits="userSpaceOnUse">
      <path
         inkscape:connector-curvature="0"
         id="path6392"
         d="m 382.023,68.928 462,0 0,164.641 -462,0 0,-164.641 z" />
    </clipPath>
    <clipPath
       id="clipPath6420"
       clipPathUnits="userSpaceOnUse">
      <path
         inkscape:connector-curvature="0"
         id="path6422"
         d="m 0,841.89 1190.55,0 L 1190.55,0 0,0 0,841.89 Z" />
    </clipPath>
    <clipPath
       id="clipPath6486"
       clipPathUnits="userSpaceOnUse">
      <path
         inkscape:connector-curvature="0"
         id="path6488"
         d="m 0,841.89 1190.55,0 L 1190.55,0 0,0 0,841.89 Z" />
    </clipPath>
    <clipPath
       id="clipPath6552"
       clipPathUnits="userSpaceOnUse">
      <path
         inkscape:connector-curvature="0"
         id="path6554"
         d="m 0,841.89 1190.55,0 L 1190.55,0 0,0 0,841.89 Z" />
    </clipPath>
    <clipPath
       id="clipPath7595"
       clipPathUnits="userSpaceOnUse">
      <path
         inkscape:connector-curvature="0"
         id="path7597"
         d="m 0,841.89 1,0 0,-841 -1,0 0,841 z" />
    </clipPath>
    <clipPath
       id="clipPath7607"
       clipPathUnits="userSpaceOnUse">
      <path
         inkscape:connector-curvature="0"
         id="path7609"
         d="m 0,841.89 1190,0 0,-1 -1190,0 0,1 z" />
    </clipPath>
    <clipPath
       id="clipPath7619"
       clipPathUnits="userSpaceOnUse">
      <path
         inkscape:connector-curvature="0"
         id="path7621"
         d="m 1189,841.89 1,0 0,-841 -1,0 0,841 z" />
    </clipPath>
  </defs>
  <sodipodi:namedview
     pagecolor="#ffffff"
     bordercolor="#666666"
     borderopacity="1"
     objecttolerance="10"
     gridtolerance="10"
     guidetolerance="10"
     inkscape:pageopacity="0"
     inkscape:pageshadow="2"
     inkscape:window-width="1629"
     inkscape:window-height="863"
     id="namedview4503"
     showgrid="false"
     inkscape:zoom="0.77872627"
     inkscape:cx="726.82792"
     inkscape:cy="250.25315"
     inkscape:window-x="0"
     inkscape:window-y="0"
     inkscape:window-maximized="0"
     inkscape:current-layer="layer5"
     showguides="false"
     fit-margin-top="0"
     fit-margin-left="0"
     fit-margin-right="0"
     fit-margin-bottom="0" />
  <!-- Front-->
  <!-- Back-->
  <!-- Left-->
  <!-- Right-->
  <!-- Top-->
  <!-- Bottom-->
  <g
     inkscape:groupmode="layer"
     id="layer5"
     inkscape:label="Gravar"
     style="display:inline">
    <g
       transform="scale(-0.999972,-1.000028)"
       style="font-variant:normal;font-weight:normal;font-stretch:normal;font-size:8.64856339px;font-family:Minitel;-inkscape-font-specification:Minitel;writing-mode:lr-tb;display:inline;opacity:1;fill:#ff00ff;fill-opacity:1;fill-rule:nonzero;stroke:none;stroke-width:0.0579096;stroke-miterlimit:10;stroke-dasharray:none;enable-background:new"
       id="text6534">
      <path
         d="m -453.18006,-152.7029 0,-5.59562 2.53403,5.32752 0.0778,0.13838 0.0259,0.0605 c 0.0692,0.12108 0.19892,0.14702 0.2854,0.0778 0.0346,-0.0259 0.0692,-0.0692 0.0951,-0.11243 l 0.12108,-0.23351 2.44754,-5.24968 0,5.58697 0.31135,0 0,-5.86372 0,-0.19027 0,-0.0519 c -0.009,-0.14703 -0.12108,-0.22486 -0.22486,-0.18162 -0.0605,0.0259 -0.10379,0.0605 -0.18162,0.19027 -0.0173,0.0259 -0.0346,0.0605 -0.0519,0.0865 l -2.62052,5.61292 -2.66376,-5.58697 c -0.0605,-0.12973 -0.0865,-0.18162 -0.12108,-0.22486 -0.0778,-0.11244 -0.21621,-0.11244 -0.2854,-0.0259 -0.0346,0.0432 -0.0519,0.0865 -0.0519,0.12973 l -0.009,0.0778 0,0.10378 0,5.92426 0.31135,0 z"
         style=""
         id="path6955" />
      <path
         d="m -445.72498,-152.7029 0,-6.22696 -0.31135,0 0,6.22696 0.31135,0 z"
         style=""
         id="path6957" />
      <path
         d="m -441.40074,-152.7029 c 0.45837,0 0.83891,-0.17297 1.10702,-0.49296 0.21621,-0.26811 0.31134,-0.54486 0.31134,-1.01189 l 0,-3.2951 c 0,-0.38054 -0.0519,-0.5881 -0.18162,-0.77837 -0.33729,-0.48432 -0.65729,-0.64864 -1.21944,-0.64864 l -3.09619,0 0,6.22696 3.07889,0 z m -2.76754,-0.31134 0,-5.60427 2.76754,0 c 0.44972,0 0.71783,0.13837 0.96864,0.53621 0.0951,0.15567 0.13838,0.31999 0.13838,0.57945 l 0,3.30375 c 0,0.0778 0,0.15568 -0.0173,0.23351 -0.0778,0.52757 -0.36324,0.83027 -0.86486,0.9254 -0.0778,0.0173 -0.15567,0.0259 -0.23351,0.0259 l -2.75889,0 z"
         style=""
         id="path6959" />
      <path
         d="m -438.4256,-152.7029 0,-6.22696 -0.31135,0 0,6.22696 0.31135,0 z"
         style=""
         id="path6961" />
      <path
         d="m -434.36085,-152.7029 0,-6.22696 -0.31134,0 0,6.22696 0.31134,0 z"
         style=""
         id="path6963" />
      <path
         d="m -432.80408,-152.7029 0,-5.73399 3.67564,5.53508 0.0432,0.0605 0.0865,0.11243 c 0.0259,0.0346 0.0605,0.0605 0.10379,0.0778 0.10378,0.0346 0.20756,-0.0259 0.23351,-0.15568 0.009,-0.0432 0.009,-0.11243 0.009,-0.27675 l 0,-5.84643 -0.31135,0 0,5.7167 -3.6497,-5.50049 c -0.0173,-0.0346 -0.0432,-0.0605 -0.0605,-0.0951 -0.0865,-0.11243 -0.11243,-0.13838 -0.17297,-0.16432 -0.11243,-0.0519 -0.2508,0.0259 -0.2681,0.17297 l 0,0.0259 0,0.19027 0,5.88102 0.31135,0 z"
         style=""
         id="path6965" />
      <path
         d="m -515.70061,-35.618692 c 0.19891,0.06919 0.3027,0.07784 0.86485,0.07784 l 2.30052,0 0,-0.311349 -2.30916,0 c -1.05513,0 -1.43567,-0.337294 -1.43567,-1.14161 l 0,-4.774007 -0.31134,0 0,4.774007 c 0,0.761074 0.2508,1.158907 0.8908,1.375122 z"
         style="fill:#ff00ff;fill-opacity:1;stroke-width:0.0579096;stroke-miterlimit:10;stroke-dasharray:none"
         id="path6967" />
      <path
         d="m -225.45473,-101.92722 c 0.19891,0.0692 0.3027,0.0778 0.86485,0.0778 l 2.30052,0 0,-0.31135 -2.30916,0 c -1.05513,0 -1.43567,-0.33729 -1.43567,-1.14161 l 0,-4.77401 -0.31134,0 0,4.77401 c 0,0.76107 0.2508,1.15891 0.8908,1.37512 z"
         style="fill:#ff00ff;fill-opacity:1;stroke-width:0.0579096;stroke-miterlimit:10;stroke-dasharray:none"
         id="path6969" />
      <path
         d="m -203.86793,-64.833519 0,-2.923214 3.87456,0 0,2.923214 0.31135,0 0,-6.226966 -0.31135,0 0,2.992403 -3.87456,0 0,-2.992403 -0.31134,0 0,6.226966 0.31134,0 z"
         style=""
         id="path6971" />
      <path
         d="m -195.35771,-64.833519 c 0.45837,0 0.83891,-0.172971 1.10702,-0.492968 0.21621,-0.268106 0.31134,-0.54486 0.31134,-1.011882 l 0,-3.295103 c 0,-0.380536 -0.0519,-0.588102 -0.18162,-0.77837 -0.33729,-0.48432 -0.65729,-0.648643 -1.21944,-0.648643 l -3.09619,0 0,6.226966 3.07889,0 z m -2.76754,-0.311348 0,-5.604269 2.76754,0 c 0.44972,0 0.71783,0.138377 0.96864,0.536211 0.0951,0.155674 0.13838,0.319996 0.13838,0.579453 l 0,3.303752 c 0,0.07784 0,0.155674 -0.0173,0.233511 -0.0778,0.527562 -0.36324,0.830262 -0.86486,0.925396 -0.0778,0.0173 -0.15567,0.02595 -0.23351,0.02595 l -2.75889,0 z"
         style=""
         id="path6973" />
      <path
         d="m -192.38264,-64.833519 0,-5.59562 2.53403,5.327515 0.0778,0.138377 0.0259,0.06054 c 0.0692,0.121079 0.19891,0.147025 0.2854,0.07784 0.0346,-0.02595 0.0692,-0.06919 0.0951,-0.112432 l 0.12108,-0.233511 2.44755,-5.249678 0,5.586972 0.31134,0 0,-5.863726 0,-0.190268 0,-0.05189 c -0.009,-0.147025 -0.12108,-0.224862 -0.22486,-0.18162 -0.0605,0.02595 -0.10378,0.06054 -0.18162,0.190269 -0.0173,0.02595 -0.0346,0.06054 -0.0519,0.08648 l -2.62051,5.612918 -2.66376,-5.586972 c -0.0605,-0.129728 -0.0865,-0.18162 -0.12108,-0.224862 -0.0778,-0.112432 -0.21622,-0.112432 -0.2854,-0.02595 -0.0346,0.04324 -0.0519,0.08648 -0.0519,0.129728 l -0.009,0.07784 0,0.103783 0,5.924266 0.31134,0 z"
         style=""
         id="path6975" />
      <path
         d="m -184.92756,-64.833519 0,-6.226966 -0.31135,0 0,6.226966 0.31135,0 z"
         style=""
         id="path6978" />
      <path
         d="m -136.36589,-67.073497 1.10702,0 c 0.55351,0 0.76107,0.224863 0.78702,0.821614 l 0.0173,0.233511 c 0,0.06054 0,0.12108 -0.009,0.18162 -0.0433,0.501616 -0.31135,0.726479 -0.84756,0.726479 l -2.36106,0 0,0.276754 2.35241,0 c 0.55351,0 0.81296,-0.138377 1.02053,-0.527562 0.0865,-0.155674 0.12108,-0.328646 0.12108,-0.657291 l 0,-0.233511 c 0,-0.735128 -0.37189,-1.124314 -1.05512,-1.124314 l -1.12432,0 c -0.76107,0 -1.05512,-0.259457 -1.05512,-0.83891 l 0,-0.294051 c 0,-0.233512 0.11243,-0.449726 0.31135,-0.596751 0.17297,-0.129729 0.2681,-0.147026 0.69188,-0.147026 l 2.26592,0 0,-0.285402 -2.27457,0 c -0.73513,0 -1.09837,0.250808 -1.24539,0.804316 -0.0173,0.07784 -0.0259,0.155674 -0.0259,0.233511 l 0,0.294051 c 0,0.761074 0.40649,1.132962 1.32323,1.132962 z"
         style=""
         id="path6980" />
      <path
         d="m -130.56265,-63.276778 c 0.80431,0 1.26269,-0.458373 1.26269,-1.228096 l 0,-5.033463 -0.27676,0 0,4.428064 -2.23998,0 c -0.35459,0 -0.5535,-0.06919 -0.74377,-0.233511 -0.20757,-0.18162 -0.31135,-0.415131 -0.31135,-0.761074 l 0,-3.433479 -0.27675,0 0,3.433479 c 0,0.441077 0.12108,0.735128 0.38918,0.977288 0.25081,0.216214 0.47567,0.294051 0.94269,0.294051 l 2.23998,0 0,0.354591 c 0,0.311348 -0.0605,0.475671 -0.25081,0.665939 -0.19026,0.18162 -0.32864,0.233512 -0.72648,0.233512 l -2.59456,0 0,0.302699 2.58592,0 z"
         style=""
         id="path6982" />
      <path
         d="m -127.77783,-64.833519 0,-3.537262 c 0,-0.579454 0.3546,-0.882154 1.08107,-0.882154 l 1.11567,0 c 0.70918,0 1.06377,0.3027 1.06377,0.882154 l 0,3.537262 0.27676,0 0,-3.519965 c 0,-0.804317 -0.40649,-1.184853 -1.34053,-1.184853 l -1.11567,0 c -0.91674,0 -1.35782,0.406482 -1.35782,1.184853 l 0,3.519965 0.27675,0 z"
         style=""
         id="path6984" />
      <path
         d="m -122.35515,-64.954599 c 0.18162,0.08649 0.35459,0.12108 0.75242,0.12108 l 1.71242,0 0,-0.276754 -1.69512,0 c -0.43243,0 -0.59675,-0.05189 -0.79567,-0.216214 -0.22486,-0.190268 -0.33729,-0.432428 -0.33729,-0.830262 l 0,-2.136195 c 0,-0.449726 0.0865,-0.639994 0.38918,-0.830262 0.13838,-0.08649 0.3027,-0.129729 0.63135,-0.129729 l 1.7816,0 0,-0.285402 -1.82485,0 c -0.84755,0 -1.25404,0.423779 -1.25404,1.288635 l 0,2.127547 c 0,0.588102 0.19892,0.942693 0.64,1.167556 z"
         style=""
         id="path6986" />
      <path
         d="m -117.04499,-67.203225 0,-0.311349 -2.22268,0 0,0.311349 2.22268,0 z"
         style=""
         id="path6988" />
      <path
         d="m -115.42769,-64.928653 c 0.17297,0.07784 0.29405,0.09513 0.69189,0.09513 l 1.13296,0 c 0.46702,0 0.63999,-0.05189 0.8908,-0.24216 0.3027,-0.250808 0.41513,-0.510265 0.41513,-1.072422 l 0,-2.006466 c 0,-0.951342 -0.42378,-1.38377 -1.30593,-1.38377 l -1.13296,0 c -0.50162,0 -0.68324,0.05189 -0.94269,0.268105 -0.32865,0.259457 -0.43243,0.518914 -0.43243,1.115665 l 0,2.006466 c 0,0.648643 0.19027,0.994585 0.68323,1.219448 z m -0.40648,-1.141611 0,-2.170789 c 0,-0.501617 0.14703,-0.761074 0.51891,-0.934045 0.13838,-0.06919 0.23352,-0.07784 0.58811,-0.07784 l 1.10701,0 c 0.41513,0 0.54486,0.03459 0.73513,0.198917 0.22486,0.190268 0.3027,0.389185 0.3027,0.812965 l 0,2.196735 c 0,0.449725 -0.13838,0.700534 -0.48432,0.856208 -0.12973,0.06054 -0.22486,0.07784 -0.55351,0.07784 l -1.10701,0 c -0.35459,0 -0.44973,-0.0173 -0.58811,-0.07784 -0.37188,-0.164323 -0.51891,-0.406483 -0.51891,-0.882154 z"
         style=""
         id="path6990" />
      <path
         d="m -110.44614,-64.971896 c 0.19027,0.103783 0.37189,0.138377 0.84756,0.138377 l 1.02053,0 c 0.47567,0 0.64865,-0.03459 0.83891,-0.138377 0.40649,-0.224863 0.6054,-0.579454 0.6054,-1.124313 l 0,-3.442128 -0.2854,0 0,3.468073 c 0,0.639994 -0.37189,0.959991 -1.15891,0.959991 l -1.02053,0 c -0.79567,0 -1.1762,-0.319997 -1.1762,-0.985936 l 0,-3.442128 -0.27676,0 0,3.442128 c 0,0.544859 0.19892,0.89945 0.6054,1.124313 z"
         style=""
         id="path6992" />
      <path
         d="m -105.6116,-64.833519 0,-4.419416 1.33188,0 0,-0.285402 -1.33188,0 0,-1.522148 -0.27675,0 0,6.226966 0.27675,0 z"
         style=""
         id="path6994" />
      <path
         d="m -270.63481,-64.833519 c 0.45837,0 0.83891,-0.172971 1.10702,-0.492968 0.21621,-0.268106 0.31134,-0.54486 0.31134,-1.011882 l 0,-3.295103 c 0,-0.380536 -0.0519,-0.588102 -0.18162,-0.77837 -0.33729,-0.48432 -0.65729,-0.648643 -1.21944,-0.648643 l -3.09619,0 0,6.226966 3.07889,0 z m -2.76754,-0.311348 0,-5.604269 2.76754,0 c 0.44973,0 0.71783,0.138377 0.96864,0.536211 0.0951,0.155674 0.13838,0.319996 0.13838,0.579453 l 0,3.303752 c 0,0.07784 0,0.155674 -0.0173,0.233511 -0.0778,0.527562 -0.36324,0.830262 -0.86486,0.925396 -0.0778,0.0173 -0.15567,0.02595 -0.23351,0.02595 l -2.75889,0 z"
         style=""
         id="path6996" />
      <path
         d="m -267.54724,-65.162164 c 0.31134,0.276754 0.49296,0.328645 1.12431,0.328645 l 2.48214,0 0,-0.311348 -2.48214,0 c -0.38054,0 -0.51891,-0.02595 -0.67459,-0.103783 -0.38918,-0.198917 -0.56215,-0.518914 -0.56215,-1.029179 l 0,-3.459425 c 0,-0.328646 0.11243,-0.579454 0.33729,-0.778371 0.22486,-0.190269 0.37189,-0.233511 0.79567,-0.233511 l 2.60321,0 0,-0.311349 -2.61186,0 c -0.48432,0 -0.72648,0.08649 -0.98594,0.294052 -0.29405,0.250808 -0.44972,0.588102 -0.44972,1.046476 l 0,3.459425 c 0,0.527562 0.11243,0.812965 0.42378,1.098368 z"
         style=""
         id="path6998" />
      <path
         d="m -371.70197,-35.540855 0,-5.915618 2.62051,0 c 0.79567,0 1.2108,0.397834 1.2108,1.063774 l 0,0.89945 c 0,0.04324 -0.009,0.09513 -0.0173,0.147026 -0.0865,0.553508 -0.40648,0.83891 -1.06377,0.83891 l -2.41295,0.0173 c -0.22486,0 -0.32864,0.09513 -0.2681,0.259457 0.009,0.0346 0.0259,0.06054 0.0432,0.07784 l 0.0173,0.0173 0.11243,0.08649 3.32105,2.508084 0.53621,0 -3.53727,-2.655109 2.19674,0 c 0.83891,0 1.38377,-0.510266 1.38377,-1.331879 l 0,-0.838911 c 0,-0.890802 -0.53621,-1.401067 -1.52215,-1.401067 l -2.93186,0 0,6.226966 0.31135,0 z"
         style="fill:#ff00ff;fill-opacity:1;stroke-width:0.0579096;stroke-miterlimit:10;stroke-dasharray:none"
         id="path7000" />
      <path
         d="m -89.274459,-101.84938 0,-5.91562 2.620515,0 c 0.795668,0 1.210799,0.39784 1.210799,1.06378 l 0,0.89945 c 0,0.0432 -0.0086,0.0951 -0.0173,0.14702 -0.08649,0.55351 -0.406483,0.83891 -1.063774,0.83891 l -2.412949,0.0173 c -0.224863,0 -0.328645,0.0951 -0.268105,0.25946 0.0086,0.0346 0.02594,0.0605 0.04324,0.0778 l 0.0173,0.0173 0.112431,0.0865 3.321048,2.50808 0.536211,0 -3.537262,-2.65511 2.196735,0 c 0.83891,0 1.38377,-0.51026 1.38377,-1.33188 l 0,-0.83891 c 0,-0.8908 -0.536211,-1.40107 -1.522147,-1.40107 l -2.931863,0 0,6.22697 0.311348,0 z"
         style="fill:#ff00ff;fill-opacity:1;stroke-width:0.0579096;stroke-miterlimit:10;stroke-dasharray:none"
         id="path7002" />
    </g>
    <path
       inkscape:connector-curvature="0"
       id="path6528"
       style="display:inline;opacity:0.52100004;fill:#ff00ff;fill-opacity:1;fill-rule:nonzero;stroke:none"
       d="m 84.024503,159.09042 c 0,-0.30023 0.242855,-0.5431 0.543068,-0.5431 0.300212,0 0.543067,0.24287 0.543067,0.5431 0,0.30023 -0.242855,0.5431 -0.543067,0.5431 -0.300213,0 -0.543068,-0.24287 -0.543068,-0.5431" />
    <path
       d="m 113.59557,143.15739 4.08094,0 0,0.65294 -4.10169,0 c -0.86402,0 -1.13861,0.10618 -1.55964,0.52723 -0.42103,0.40031 -0.54795,0.77864 -0.54795,1.43158 l 0,0.80061 3.30234,0 c 1.01047,0 1.49496,0.14768 2.04291,0.6322 0.58944,0.54797 0.86403,1.20091 0.86403,2.16995 l 0,8.17088 -0.58944,0 0,-8.17088 c 0,-0.77865 -0.25384,-1.30588 -0.71758,-1.70619 -0.39907,-0.31609 -0.82132,-0.48451 -1.59992,-0.48451 l -3.30234,0 0,10.36158 -0.63215,0 0,-1.36934 0,-10.32009 c 0,-1.68421 1.03244,-2.69596 2.76049,-2.69596"
       style="display:inline;opacity:0.52100004;fill:#ff00ff;fill-opacity:1;fill-rule:nonzero;stroke:none"
       id="path6496"
       inkscape:connector-curvature="0" />
    <path
       d="m 101.78965,146.57 0,8.36005 c 0,1.3071 0.77982,1.96003 2.35899,1.96003 l 1.0959,0 c 1.58038,0 2.38095,-0.65293 2.38095,-1.96003 l 0,-8.36005 0.58944,0 0,8.3393 c 0,1.72693 -0.94701,2.63372 -2.97039,2.63372 l -1.0959,0 c -2.08441,0 -2.99115,-0.84211 -2.99115,-2.63372 l 0,-8.3393 0.63216,0 z"
       style="display:inline;opacity:0.52100004;fill:#ff00ff;fill-opacity:1;fill-rule:nonzero;stroke:none"
       id="path6500"
       inkscape:connector-curvature="0" />
    <path
       d="m 65.8199,146.57 0,8.36005 c 0,1.3071 0.7786,1.96003 2.358988,1.96003 l 1.095898,0 c 1.580388,0 2.379735,-0.65293 2.379735,-1.96003 l 0,-8.36005 0.590662,0 0,8.3393 c 0,1.72693 -0.948232,2.63372 -2.970397,2.63372 l -1.095898,0 c -2.085624,0 -2.991143,-0.84211 -2.991143,-2.63372 l 0,-8.3393 0.632155,0 z"
       style="display:inline;opacity:0.52100004;fill:#ff00ff;fill-opacity:1;fill-rule:nonzero;stroke:none"
       id="path6504"
       inkscape:connector-curvature="0" />
    <path
       d="m 98.130349,156.89008 0,-10.32008 0.677309,0 0,4.58887 0,9.71352 -0.677309,0 0,-3.32937 -2.927684,0 0,-0.65294 2.927684,0 z"
       style="display:inline;opacity:0.52100004;fill:#ff00ff;fill-opacity:1;fill-rule:nonzero;stroke:none"
       id="path6508"
       inkscape:connector-curvature="0" />
    <path
       d="m 88.105687,146.57 0,7.87553 c 0,1.7489 0.695615,2.44455 2.443194,2.44455 l 3.021653,0 0,-10.32008 0.677309,0 0,4.58887 0,9.71353 -0.677309,0 0,-3.32938 -2.683609,0 c -2.52862,0 -3.43414,-0.84211 -3.43414,-3.07552 l 0,-7.8975 0.652902,0 z"
       style="display:inline;opacity:0.52100004;fill:#ff00ff;fill-opacity:1;fill-rule:nonzero;stroke:none"
       id="path6512"
       inkscape:connector-curvature="0" />
    <path
       d="m 75.357876,153.47686 3.689199,0 c 0.104952,0 0.230651,-0.0207 0.35757,-0.0427 1.095898,-0.16842 1.706087,-0.88482 1.706087,-2.04302 l 0,-2.1248 c 0,-1.17895 -0.546729,-1.83188 -1.790293,-2.06377 -0.08421,-0.0207 -0.211125,-0.0207 -0.338044,-0.0207 l -1.643848,0 c -1.285056,0 -1.980671,0.73715 -1.980671,2.04303 l 0,4.25203 z m 0,-6.08514 c 0.48449,-0.54676 1.073931,-0.82136 2.001418,-0.82136 l 1.581608,0 c 0.168412,0 0.336824,0.0207 0.505236,0.0415 1.453469,0.2331 2.255256,1.24363 2.255256,2.61297 l 0,2.14554 c 0,1.66469 -1.032439,2.69596 -2.697032,2.69596 l -3.646486,0 0,0.67491 c 0,1.39009 0.800567,2.1492 2.16983,2.1492 l 4.173688,0 0,0.65294 -3.835644,0 c -2.10759,0 -3.160776,-0.96903 -3.140029,-2.90832 l 0,-5.26256 c 0,-1.01175 0.168412,-1.47429 0.632155,-1.98078"
       style="display:inline;opacity:0.52100004;fill:#ff00ff;fill-opacity:1;fill-rule:nonzero;stroke:none"
       id="path6516"
       inkscape:connector-curvature="0" />
    <path
       d="m 125.85633,146.56744 -4.48488,0 c -0.12204,0 -0.25872,0 -0.38076,0.0146 -0.97264,0.0915 -1.27774,0.42593 -1.3534,1.46087 l 0,0.28924 0,1.56706 0.66877,0 0,-1.49139 0,-0.25751 0.0159,-0.22945 c 0.0305,-0.47231 0.24286,-0.6688 0.92749,-0.71518 0.0757,-0.0146 0.15255,-0.0146 0.22821,-0.0146 l 4.35064,0 c -5.73699,9.15578 -5.66133,9.03861 -5.86635,9.35349 -0.28801,0.43936 -0.072,0.97758 0.47107,0.97758 l 6.15802,0 0,-0.62487 -6.02622,0 c 0,0 5.16707,-8.31245 5.81143,-9.3242 0.3356,-0.52724 0.29533,-1.00565 -0.51988,-1.00565"
       style="display:inline;opacity:0.52100004;fill:#ff00ff;fill-opacity:1;fill-rule:nonzero;stroke:none"
       id="path6520"
       inkscape:connector-curvature="0" />
    <path
       d="m 84.895974,146.57 0,0.61144 0,10.36158 -0.656563,0 0,-0.65294 0,-10.32008 0.656563,0 z"
       style="display:inline;opacity:0.52100004;fill:#ff00ff;fill-opacity:1;fill-rule:nonzero;stroke:none"
       id="path6524"
       inkscape:connector-curvature="0" />
    <g
       transform="scale(-0.99997198,-1.000028)"
       style="font-variant:normal;font-weight:normal;font-stretch:normal;font-size:7.08643818px;font-family:Minitel;-inkscape-font-specification:Minitel;writing-mode:lr-tb;display:inline;opacity:0.52100004;fill:#ff00ff;fill-opacity:1;fill-rule:nonzero;stroke:none"
       id="text6530">
      <path
         d="m -149.16188,-133.61309 c 0.0354,0.0638 0.0496,0.0921 0.0638,0.11338 0.0567,0.085 0.17007,0.085 0.22677,0 0.0142,-0.0213 0.0283,-0.0496 0.0567,-0.11338 l 1.74326,-3.71329 -0.2622,0 -1.65114,3.54322 -1.65114,-3.54322 -0.2622,0 1.73618,3.71329 z"
         style=""
         id="path7005" />
      <path
         d="m -146.79501,-133.49262 c 0.0921,0.1063 0.25511,0.1063 0.35432,0.007 0.1063,-0.1063 0.0992,-0.28346 -0.007,-0.38267 -0.0992,-0.0921 -0.25512,-0.085 -0.34724,0.0142 -0.0425,0.0496 -0.0709,0.11339 -0.0709,0.17716 0,0.0638 0.0213,0.13465 0.0709,0.18425 z"
         style=""
         id="path7007" />
      <path
         d="m -143.66989,-133.47136 0,-5.10223 -0.25511,0 0,5.10223 0.25511,0 z"
         style=""
         id="path7009" />
      <path
         d="m -141.1613,-133.49262 c 0.0921,0.1063 0.25512,0.1063 0.35433,0.007 0.10629,-0.1063 0.0992,-0.28346 -0.007,-0.38267 -0.0992,-0.0921 -0.25511,-0.085 -0.34724,0.0142 -0.0425,0.0496 -0.0709,0.11339 -0.0709,0.17716 0,0.0638 0.0213,0.13465 0.0709,0.18425 z"
         style=""
         id="path7011" />
      <path
         d="m -137.9157,-133.47136 0.91415,0 c 0.87163,0 1.32516,-0.43936 1.32516,-1.22595 l 0,-2.62907 c 0,-0.80077 -0.45353,-1.24721 -1.32516,-1.24721 l -0.91415,0 c -0.87163,0 -1.32516,0.44644 -1.32516,1.24721 l 0,2.62907 c 0,0.78659 0.45353,1.22595 1.32516,1.22595 z m -1.07005,-1.24721 0,-2.58655 c 0,-0.70156 0.33306,-1.01336 1.06296,-1.01336 l 0.93541,0 c 0.72282,0 1.05588,0.3118 1.05588,1.01336 l 0,2.58655 c 0,0.68738 -0.32597,0.9921 -1.05588,0.9921 l -0.93541,0 c -0.7299,0 -1.06296,-0.30472 -1.06296,-0.9921 z"
         style=""
         id="path7013" />
      <path
         d="m -130.40408,-135.41304 0,-0.25512 -1.82122,0 0,0.25512 1.82122,0 z"
         style=""
         id="path7015" />
      <path
         d="m -127.02385,-133.54931 c 0.14173,0.0638 0.24094,0.0779 0.56691,0.0779 l 0.92833,0 c 0.38267,0 0.52439,-0.0425 0.7299,-0.19842 0.24803,-0.20551 0.34015,-0.4181 0.34015,-0.87872 l 0,-1.64405 c 0,-0.77951 -0.34724,-1.13383 -1.07005,-1.13383 l -0.92833,0 c -0.41101,0 -0.55982,0.0425 -0.77242,0.21968 -0.26928,0.21259 -0.35432,0.42518 -0.35432,0.91415 l 0,1.64405 c 0,0.53149 0.1559,0.81494 0.55983,0.99919 z m -0.33306,-0.93541 0,-1.7787 c 0,-0.41101 0.12047,-0.6236 0.42518,-0.76533 0.11339,-0.0567 0.19134,-0.0638 0.48188,-0.0638 l 0.90707,0 c 0.34014,0 0.44644,0.0284 0.60234,0.16299 0.18425,0.1559 0.24803,0.31889 0.24803,0.66612 l 0,1.79996 c 0,0.36849 -0.11339,0.574 -0.39684,0.70156 -0.1063,0.0496 -0.18425,0.0638 -0.45353,0.0638 l -0.90707,0 c -0.29054,0 -0.36849,-0.0142 -0.48188,-0.0638 -0.30471,-0.13465 -0.42518,-0.33307 -0.42518,-0.72282 z"
         style=""
         id="path7017" />
      <path
         d="m -123.21134,-132.1958 0,-1.27556 1.90625,0 c 0.44644,0 0.69447,-0.12047 0.89998,-0.44644 0.10629,-0.15591 0.14172,-0.30472 0.14172,-0.64487 l 0,-1.73618 c 0,-0.68738 -0.37558,-1.02753 -1.17634,-1.02753 l -0.8929,0 c -0.75824,0 -1.10548,0.32597 -1.10548,1.03462 l 0,4.09596 0.22677,0 z m 0,-1.50233 0,-2.57237 c 0,-0.56692 0.29054,-0.82203 0.90706,-0.82203 l 0.87163,0 c 0.40393,0 0.56692,0.0567 0.72282,0.21968 0.13464,0.14173 0.21259,0.33306 0.21259,0.58109 l 0,1.74326 c 0,0.56692 -0.25511,0.84329 -0.80785,0.85037 l -1.90625,0 z"
         style=""
         id="path7019" />
      <path
         d="m -118.05242,-133.47136 1.9842,0 0,-0.22677 -2.04089,0 c -0.65195,0 -0.85746,-0.21967 -0.89289,-0.89997 l -0.0142,-0.17008 2.94796,-1.28973 0,-0.1063 c 0,-0.84328 -0.29054,-1.148 -1.06296,-1.16217 l -0.93541,-0.007 c -0.0567,0 -0.1063,0 -0.16299,0.007 -0.70865,0.0496 -1.01336,0.36849 -1.01336,1.11257 l 0,1.64405 c 0,0.75825 0.35432,1.0984 1.19052,1.0984 z m -0.96376,-1.55193 0,-1.2543 c 0,-0.58109 0.28346,-0.81494 1.00628,-0.81494 l 0.77951,0 c 0.6236,0 0.91415,0.24803 0.93541,0.73699 0,0.0496 -0.007,0.0992 -0.0142,0.14882 l -2.70702,1.18343 z"
         style=""
         id="path7021" />
      <path
         d="m -115.02651,-133.47136 0,-2.89835 c 0,-0.47479 0.29055,-0.72282 0.88581,-0.72282 l 0.91415,0 c 0.58109,0 0.87163,0.24803 0.87163,0.72282 l 0,2.89835 0.22677,0 0,-2.88418 c 0,-0.65904 -0.33307,-0.97084 -1.0984,-0.97084 l -0.91415,0 c -0.75116,0 -1.11257,0.33306 -1.11257,0.97084 l 0,2.88418 0.22676,0 z"
         style=""
         id="path7023" />
      <path
         d="m -108.17392,-135.30675 0.90706,0 c 0.45353,0 0.62361,0.18425 0.64487,0.67321 l 0.0142,0.19134 c 0,0.0496 0,0.0992 -0.007,0.14881 -0.0354,0.41102 -0.25511,0.59526 -0.69447,0.59526 l -1.9346,0 0,0.22677 1.92751,0 c 0.45354,0 0.66613,-0.11338 0.8362,-0.43227 0.0709,-0.12756 0.0992,-0.26929 0.0992,-0.53857 l 0,-0.19134 c 0,-0.60234 -0.30471,-0.92123 -0.86454,-0.92123 l -0.92124,0 c -0.6236,0 -0.86454,-0.2126 -0.86454,-0.68739 l 0,-0.24094 c 0,-0.19133 0.0921,-0.36849 0.25511,-0.48896 0.14173,-0.1063 0.21968,-0.12047 0.56691,-0.12047 l 1.85665,0 0,-0.23385 -1.86373,0 c -0.60235,0 -0.89998,0.20551 -1.02045,0.65904 -0.0142,0.0638 -0.0213,0.12755 -0.0213,0.19133 l 0,0.24094 c 0,0.62361 0.33306,0.92832 1.08423,0.92832 z"
         style=""
         id="path7025" />
      <path
         d="m -103.41892,-132.1958 c 0.65904,0 1.03462,-0.37558 1.03462,-1.00627 l 0,-4.12431 -0.22677,0 0,3.62825 -1.83538,0 c -0.29055,0 -0.45354,-0.0567 -0.60944,-0.19133 -0.17007,-0.14881 -0.25511,-0.34015 -0.25511,-0.62361 l 0,-2.81331 -0.22677,0 0,2.81331 c 0,0.36141 0.0992,0.60235 0.31889,0.80077 0.20551,0.17716 0.38976,0.24094 0.77243,0.24094 l 1.83538,0 0,0.29054 c 0,0.25512 -0.0496,0.38976 -0.2055,0.54566 -0.1559,0.14882 -0.26929,0.19133 -0.59526,0.19133 l -2.12594,0 0,0.24803 2.11885,0 z"
         style=""
         id="path7028" />
      <path
         d="m -101.13709,-133.47136 0,-2.89835 c 0,-0.47479 0.29055,-0.72282 0.88581,-0.72282 l 0.914148,0 c 0.581088,0 0.871632,0.24803 0.871632,0.72282 l 0,2.89835 0.226766,0 0,-2.88418 c 0,-0.65904 -0.333063,-0.97084 -1.098398,-0.97084 l -0.914148,0 c -0.75116,0 -1.11257,0.33306 -1.11257,0.97084 l 0,2.88418 0.22676,0 z"
         style=""
         id="path7030" />
      <path
         d="m -96.991526,-133.47136 0,-3.62117 1.091311,0 0,-0.23385 -1.091311,0 0,-1.24721 -0.226766,0 0,5.10223 0.226766,0 z"
         style=""
         id="path7032" />
      <path
         d="m -95.418337,-133.47136 0,-3.62117 1.807041,0 c 0.644866,0 0.914151,0.2622 0.914151,0.91415 l 0,2.70702 0.226766,0 0,-2.72119 c 0,-0.82203 -0.340149,-1.13383 -1.275559,-1.13383 l -1.672399,0 0,-1.24721 -0.226766,0 0,5.10223 0.226766,0 z"
         style=""
         id="path7034" />
      <path
         d="m -89.168101,-132.1958 0,-1.27556 1.906252,0 c 0.446446,0 0.694471,-0.12047 0.899978,-0.44644 0.106296,-0.15591 0.141729,-0.30472 0.141729,-0.64487 l 0,-1.73618 c 0,-0.68738 -0.375582,-1.02753 -1.176349,-1.02753 l -0.892891,0 c -0.758249,0 -1.105485,0.32597 -1.105485,1.03462 l 0,4.09596 0.226766,0 z m 0,-1.50233 0,-2.57237 c 0,-0.56692 0.290544,-0.82203 0.907064,-0.82203 l 0.871632,0 c 0.403927,0 0.566915,0.0567 0.722817,0.21968 0.134642,0.14173 0.212593,0.33306 0.212593,0.58109 l 0,1.74326 c 0,0.56692 -0.255112,0.84329 -0.807854,0.85037 l -1.906252,0 z"
         style=""
         id="path7036" />
      <path
         d="m -84.972926,-133.47136 0,-5.10223 -0.226766,0 0,5.10223 0.226766,0 z"
         style=""
         id="path7038" />
      <path
         d="m -83.109198,-133.48553 c 0.06378,0.007 0.127556,0.0142 0.184248,0.0142 l 1.162175,0 c 0.347236,0 0.574002,-0.0992 0.758249,-0.30472 0.162988,-0.19133 0.21968,-0.3614 0.21968,-0.73699 l 0,-1.73617 c 0.0071,-0.72282 -0.382668,-1.07714 -1.162176,-1.07714 l -1.998376,0 0,0.23385 2.111759,0 c 0.51731,0 0.829113,0.28346 0.829113,0.80077 l 0,0.24802 -1.941684,0 c -0.61652,0 -1.006274,0.38976 -1.006274,1.01336 l 0,0.57401 c 0,0.52439 0.29763,0.8858 0.843286,0.97084 z m -0.61652,-0.98502 0,-0.56691 c 0,-0.43936 0.226766,-0.70156 0.637779,-0.76534 0.04252,-0.007 0.08504,-0.0142 0.127556,-0.0142 l 1.948771,0 0,1.3606 c 0,0.48187 -0.262198,0.75824 -0.744076,0.75824 l -1.183435,0 c -0.04252,0 -0.08504,-0.007 -0.12047,-0.0142 -0.467705,-0.0779 -0.666125,-0.33306 -0.666125,-0.75825 z"
         style=""
         id="path7040" />
      <path
         d="m -79.53763,-133.47136 0,-3.62117 1.091311,0 0,-0.23385 -1.091311,0 0,-1.24721 -0.226767,0 0,5.10223 0.226767,0 z"
         style=""
         id="path7042" />
      <path
         d="m -77.964434,-133.47136 0,-3.62117 1.055879,0 0,-0.23385 -1.055879,0 0,-0.24094 c 0,-0.0496 0.0071,-0.0992 0.01417,-0.14882 0.06378,-0.3614 0.248025,-0.54565 0.609433,-0.61652 0.04252,-0.007 0.09212,-0.0142 0.134643,-0.0142 l 0.29763,0 0,-0.22676 -0.31889,0 c -0.05669,0 -0.106296,0.007 -0.162988,0.0142 -0.531482,0.0779 -0.800767,0.4181 -0.800767,1.01336 l 0,4.0747 0.226766,0 z"
         style=""
         id="path7044" />
      <path
         d="m -76.093621,-133.54931 c 0.141729,0.0638 0.240939,0.0779 0.566915,0.0779 l 0.928323,0 c 0.382668,0 0.524397,-0.0425 0.729903,-0.19842 0.248026,-0.20551 0.340149,-0.4181 0.340149,-0.87872 l 0,-1.64405 c 0,-0.77951 -0.347235,-1.13383 -1.070052,-1.13383 l -0.928323,0 c -0.411014,0 -0.559829,0.0425 -0.772422,0.21968 -0.269285,0.21259 -0.354322,0.42518 -0.354322,0.91415 l 0,1.64405 c 0,0.53149 0.155902,0.81494 0.559829,0.99919 z m -0.333063,-0.93541 0,-1.7787 c 0,-0.41101 0.12047,-0.6236 0.425186,-0.76533 0.113383,-0.0567 0.191334,-0.0638 0.481878,-0.0638 l 0.907064,0 c 0.340149,0 0.446446,0.0284 0.602348,0.16299 0.184247,0.1559 0.248025,0.31889 0.248025,0.66612 l 0,1.79996 c 0,0.36849 -0.113383,0.574 -0.396841,0.70156 -0.106296,0.0496 -0.184247,0.0638 -0.453532,0.0638 l -0.907064,0 c -0.290544,0 -0.368495,-0.0142 -0.481878,-0.0638 -0.304716,-0.13465 -0.425186,-0.33307 -0.425186,-0.72282 z"
         style=""
         id="path7046" />
      <path
         d="m -72.274029,-133.47136 0,-2.76371 c 0,-0.54566 0.226766,-0.80785 0.694471,-0.85037 0.03543,-0.007 0.06378,-0.007 0.09921,-0.007 l 0.29763,0 0,-0.23385 -0.262198,0 c -0.04252,0 -0.09212,0.007 -0.134643,0.007 -0.644865,0.0638 -0.921237,0.38976 -0.921237,1.08423 l -0.0071,2.76371 0.233852,0 z"
         style=""
         id="path7048" />
      <path
         d="m -70.495341,-133.47136 0,-2.80623 c 0,-0.54565 0.304717,-0.81494 0.8362,-0.81494 l 0.368495,0 c 0.05669,0 0.120469,0.007 0.177161,0.0213 0.368494,0.0921 0.510223,0.32598 0.510223,0.90706 l 0,2.69285 0.233853,0 0,-2.69285 c 0,-0.56691 0.155901,-0.80785 0.538569,-0.90706 0.05669,-0.0142 0.120469,-0.0213 0.184247,-0.0213 l 0.368495,0 c 0.488964,0 0.793681,0.27637 0.793681,0.81494 l 0,2.80623 0.226766,0 0,-2.69993 c 0,-0.7866 -0.361408,-1.15509 -1.006274,-1.15509 l -0.382668,0 c -0.304716,0 -0.538569,0.10629 -0.701557,0.29763 -0.0496,0.0567 -0.09212,0.12047 -0.120469,0.19133 -0.03543,-0.0709 -0.07086,-0.13464 -0.12047,-0.19133 -0.162988,-0.19134 -0.39684,-0.29763 -0.701557,-0.29763 l -0.382668,0 c -0.673212,0 -1.048793,0.36849 -1.048793,1.15509 l 0,2.69993 0.226766,0 z"
         style=""
         id="path7050" />
    </g>
    <path
       d="m 134.0403,143.79568 14.78486,0 c 1.33754,0 2.42001,1.08253 2.42001,2.42014 l 0,6.29628 -2.39316,0 c -0.40028,0 -0.41493,-0.22212 -0.41493,-0.56385 l 0,-1.70374 c 0,-1.70496 -2.38705,-1.91244 -2.38705,0.0147 l 0,3.98719 c 0,1.30466 -1.39245,1.18627 -1.39245,0 l 0,-6.21084 c 0,-1.92709 -2.55059,-2.04547 -2.55059,0 l 0,8.13792 c 0,0.66759 -0.67365,0.69688 -0.67365,0.69688 0,0 -0.67487,-0.0293 -0.67487,-0.69688 l 0,-8.13792 c 0,-2.04547 -2.54936,-1.92709 -2.54936,0 l 0,6.21084 c 0,1.18627 -1.39367,1.30466 -1.39367,0 l 0,-3.98719 c 0,-1.92709 -2.38584,-1.71961 -2.38584,-0.0147 l 0,1.70374 c 0,0.34173 -0.0159,0.56385 -0.41493,0.56385 l -2.39438,0 0,-6.29628 c 0,-1.33761 1.0837,-2.42014 2.42001,-2.42014 m 14.78486,16.44306 -14.78486,0 c -1.33631,0 -2.42001,-1.08376 -2.42001,-2.42015 l 0,-4.68406 2.20156,0 c 1.00681,0 1.23014,-0.35515 1.23014,-1.4084 l 0,-1.49748 c 0,-0.919 1.1557,-1.02274 1.1557,0 l 0,4.03235 c 0,2.10526 2.63845,2.03082 2.63845,0 0,-1.37789 -0.0293,-5.3065 -0.0293,-6.1962 0,-1.14112 1.31923,-1.23021 1.31923,-0.0146 l 0,8.0647 c 0,0.88116 0.58578,1.37789 1.29726,1.37422 0.71148,0.004 1.29726,-0.49306 1.29726,-1.37422 l 0,-8.0647 c 0,-1.21556 1.31801,-1.12647 1.31801,0.0146 0,0.8897 -0.0293,4.81831 -0.0293,6.1962 0,2.03082 2.63845,2.10526 2.63845,0 l 0,-4.03235 c 0,-1.02274 1.15692,-0.919 1.15692,0 l 0,1.49748 c 0,1.05325 0.22211,1.4084 1.23014,1.4084 l 2.20034,0 0,4.68406 c 0,1.33639 -1.08247,2.42015 -2.42001,2.42015 m -14.84832,0.60168 14.91178,0 c 1.63287,0 2.9582,-1.32541 2.9582,-2.95836 l 0,-11.7297 c 0,-1.63418 -1.32533,-2.95836 -2.9582,-2.95836 l -14.91178,0 c -1.63286,0 -2.95819,1.32418 -2.95819,2.95836 l 0,11.7297 c 0,1.63295 1.32533,2.95836 2.95819,2.95836"
       style="fill:#ff00ff;fill-opacity:1;fill-rule:nonzero;stroke:none"
       id="path6558"
       inkscape:connector-curvature="0" />
    <path
       d="m 793.74768,236.48599 -128.31655,0 c -2.67995,0 -4.85344,2.1724 -4.85344,4.9965 l 0,30.8858"
       style="opacity:1;fill:none;stroke:#ff00ff;stroke-width:1.21063721;stroke-linecap:butt;stroke-linejoin:miter;stroke-miterlimit:10;stroke-dasharray:none;stroke-opacity:1"
       id="path6574"
       inkscape:connector-curvature="0" />
    <path
       d="m 1041.9822,271.75679 0,-30.4171 c 0,-2.6813 -2.1723,-4.8537 -4.8534,-4.8537 l -130.67922,0"
       style="opacity:1;fill:none;stroke:#ff00ff;stroke-width:1.21064758;stroke-linecap:butt;stroke-linejoin:miter;stroke-miterlimit:10;stroke-dasharray:none;stroke-opacity:1"
       id="path6562"
       inkscape:connector-curvature="0" />
    <path
       d="m 826.02788,247.10839 -5.6491,0 0,-0.9044 5.6784,0 c 1.196,0 1.5743,-0.1452 2.1576,-0.7286 0.5834,-0.5541 0.7591,-1.0789 0.7591,-1.9832 l 0,-1.107 -4.5703,0 c -1.3998,0 -2.0698,-0.205 -2.8289,-0.875 -0.8164,-0.7591 -1.1959,-1.6623 -1.1959,-3.0035 l 0,-11.3099 0.8176,0 0,11.3099 c 0,1.0776 0.3503,1.8074 0.991,2.3615 0.554,0.4369 1.1374,0.6701 2.2162,0.6701 l 4.5703,0 0,-14.3415 0.8738,0 0,1.8941 0,14.2853 c 0,2.3323 -1.4279,3.7322 -3.8198,3.7322"
       style="opacity:1;fill:#ff00ff;fill-opacity:1;fill-rule:nonzero;stroke:none"
       id="path6438"
       inkscape:connector-curvature="0" />
    <path
       d="m 842.36938,242.38479 0,-11.5723 c 0,-1.8087 -1.08,-2.7131 -3.2657,-2.7131 l -1.517,0 c -2.1869,0 -3.295,0.9044 -3.295,2.7131 l 0,11.5723 -0.8164,0 0,-11.543 c 0,-2.3909 1.3119,-3.6455 4.1114,-3.6455 l 1.517,0 c 2.8862,0 4.1407,1.1655 4.1407,3.6455 l 0,11.543 -0.875,0 z"
       style="opacity:1;fill:#ff00ff;fill-opacity:1;fill-rule:nonzero;stroke:none"
       id="path6442"
       inkscape:connector-curvature="0" />
    <path
       d="m 892.15828,242.38479 0,-11.5723 c 0,-1.8087 -1.0776,-2.7131 -3.2657,-2.7131 l -1.5157,0 c -2.1882,0 -3.2951,0.9044 -3.2951,2.7131 l 0,11.5723 -0.8164,0 0,-11.543 c 0,-2.3909 1.3119,-3.6455 4.1115,-3.6455 l 1.5157,0 c 2.8862,0 4.1407,1.1655 4.1407,3.6455 l 0,11.543 -0.875,0 z"
       style="opacity:1;fill:#ff00ff;fill-opacity:1;fill-rule:nonzero;stroke:none"
       id="path6446"
       inkscape:connector-curvature="0" />
    <path
       d="m 847.43458,228.09979 0,14.2853 -0.9372,0 0,-6.3524 0,-13.4444 0.9372,0 0,4.6084 4.0529,0 0,0.9031 -4.0529,0 z"
       style="opacity:1;fill:#ff00ff;fill-opacity:1;fill-rule:nonzero;stroke:none"
       id="path6450"
       inkscape:connector-curvature="0" />
    <path
       d="m 861.31058,242.38479 0,-10.9011 c 0,-2.4213 -0.9617,-3.3843 -3.3829,-3.3843 l -4.181,0 0,14.2854 -0.9372,0 0,-6.3525 0,-13.4444 0.9372,0 0,4.6084 3.7148,0 c 3.5001,0 4.7522,1.1655 4.7522,4.2569 l 0,10.9315 -0.9031,0 z"
       style="opacity:1;fill:#ff00ff;fill-opacity:1;fill-rule:nonzero;stroke:none"
       id="path6454"
       inkscape:connector-curvature="0" />
    <path
       d="m 878.95578,232.82439 -5.1061,0 c -0.1452,0 -0.3197,0.029 -0.4942,0.059 -1.5169,0.2331 -2.3639,1.2253 -2.3639,2.829 l 0,2.94 c 0,1.633 0.7579,2.5361 2.4798,2.8571 0.116,0.029 0.2917,0.029 0.4662,0.029 l 2.276,0 c 1.7805,0 2.7422,-1.0215 2.7422,-2.829 l 0,-5.885 z m 0,8.4223 c -0.67,0.7579 -1.4864,1.1387 -2.7703,1.1387 l -2.1893,0 c -0.2331,0 -0.4662,-0.029 -0.6993,-0.059 -2.0124,-0.3222 -3.1217,-1.7221 -3.1217,-3.6174 l 0,-2.9682 c 0,-2.3042 1.4291,-3.7333 3.7331,-3.7333 l 5.0475,0 0,-0.9324 c 0,-1.9259 -1.1093,-2.9755 -3.0033,-2.9755 l -5.7773,0 0,-0.9031 5.3098,0 c 2.9167,0 4.3751,1.3401 4.3458,4.0238 l 0,7.2861 c 0,1.3986 -0.2343,2.0393 -0.875,2.7399"
       style="opacity:1;fill:#ff00ff;fill-opacity:1;fill-rule:nonzero;stroke:none"
       id="path6458"
       inkscape:connector-curvature="0" />
    <path
       d="m 809.05668,242.38829 6.2081,0 c 0.1696,0 0.3587,0 0.5259,-0.021 1.3486,-0.1257 1.7696,-0.5895 1.8745,-2.0223 l 0,-0.4003 0,-2.1687 -0.9262,0 0,2.0637 0,0.3576 -0.021,0.3174 c -0.043,0.6529 -0.3368,0.9263 -1.2838,0.9885 -0.1062,0.022 -0.2111,0.022 -0.3161,0.022 l -6.0225,0 c 7.9409,-12.6731 7.836,-12.5108 8.1203,-12.9465 0.3979,-0.609 0.1001,-1.3534 -0.6516,-1.3534 l -8.5256,0 0,0.864 8.3425,0 c 0,0 -7.1526,11.5064 -8.0435,12.9062 -0.465,0.7299 -0.4088,1.3926 0.7188,1.3926"
       style="opacity:1;fill:#ff00ff;fill-opacity:1;fill-rule:nonzero;stroke:none"
       id="path6462"
       inkscape:connector-curvature="0" />
    <path
       d="m 865.75348,242.38479 0,-0.847 0,-14.3415 0.9092,0 0,0.9031 0,14.2854 -0.9092,0 z"
       style="opacity:1;fill:#ff00ff;fill-opacity:1;fill-rule:nonzero;stroke:none"
       id="path6466"
       inkscape:connector-curvature="0" />
    <path
       d="m 866.95968,225.05409 c 0,0.4149 -0.3368,0.7518 -0.7518,0.7518 -0.4149,0 -0.7517,-0.3369 -0.7517,-0.7518 0,-0.415 0.3368,-0.7518 0.7517,-0.7518 0.415,0 0.7518,0.3368 0.7518,0.7518"
       style="opacity:1;fill:#ff00ff;fill-opacity:1;fill-rule:nonzero;stroke:none"
       id="path6470"
       inkscape:connector-curvature="0" />
    <g
       transform="scale(0.999972,1.000028)"
       style="font-variant:normal;font-weight:normal;font-stretch:normal;font-size:13.83775139px;font-family:Minitel;-inkscape-font-specification:Minitel;writing-mode:lr-tb;opacity:1;fill:#ff00ff;fill-opacity:1;fill-rule:nonzero;stroke:none"
       id="text6476">
      <path
         d="m 649.93475,364.50092 c 0.15221,0 0.29059,-0.0138 0.44281,-0.0415 1.16237,-0.19373 1.75739,-0.94096 1.75739,-2.32474 l 0,-0.69189 c 0,-1.05167 -0.42897,-1.67437 -1.14853,-1.88193 0.7334,-0.26292 1.14853,-0.91329 1.14853,-1.93729 l 0,-0.8441 c 0,-0.52583 -0.0969,-0.91329 -0.29059,-1.23156 -0.45665,-0.77491 -0.95481,-1.01016 -2.04799,-1.01016 l -4.8017,0 0,9.96319 4.94008,0 z m -4.44192,-0.49816 0,-4.179 4.4004,0 c 1.10702,0 1.61902,0.42897 1.72972,1.41145 0.0138,0.083 0.0138,0.16605 0.0138,0.23524 l 0,0.70572 c 0,0.0969 0,0.19373 -0.0138,0.2906 -0.12454,1.03783 -0.70572,1.53599 -1.81274,1.53599 l -4.31738,0 z m 0.0277,-4.67716 0,-4.28971 4.30355,0 c 0.8441,0 1.23156,0.19373 1.59134,0.80259 0.13837,0.23524 0.2214,0.53968 0.2214,0.94097 l 0.0277,0.85794 c 0,0.083 -0.0138,0.16605 -0.0138,0.24908 -0.13838,0.99632 -0.67805,1.43913 -1.78507,1.43913 l -4.34506,0 z"
         style=""
         id="path6926" />
      <path
         d="m 653.74015,364.50092 1.13469,-2.93361 5.17532,0 1.1347,2.93361 0.60886,0 -3.90225,-9.72794 c -0.0138,-0.0554 -0.0415,-0.0969 -0.0692,-0.15222 -0.12454,-0.23524 -0.47048,-0.27675 -0.65037,-0.0692 -0.0553,0.0415 -0.0969,0.1107 -0.13838,0.22141 l -3.90224,9.72794 0.60886,0 z m 1.3561,-3.4456 2.36625,-6.13013 2.36626,6.13013 -4.73251,0 z"
         style=""
         id="path6928" />
      <path
         d="m 663.46807,363.97508 c 0.49816,0.44281 0.78875,0.52584 1.79891,0.52584 l 3.97143,0 0,-0.49816 -3.97143,0 c -0.60886,0 -0.83027,-0.0415 -1.07935,-0.16606 -0.6227,-0.31826 -0.89945,-0.83026 -0.89945,-1.64669 l 0,-5.5351 c 0,-0.52583 0.17989,-0.92713 0.53967,-1.2454 0.35978,-0.30443 0.59502,-0.37362 1.27307,-0.37362 l 4.16517,0 0,-0.49816 -4.179,0 c -0.77492,0 -1.16238,0.13838 -1.57751,0.47049 -0.47048,0.40129 -0.71956,0.94097 -0.71956,1.67437 l 0,5.5351 c 0,0.8441 0.17989,1.30075 0.67805,1.75739 z"
         style=""
         id="path6930" />
      <path
         d="m 671.25876,364.50092 0,-9.96319 -0.49816,0 0,9.96319 0.49816,0 z m 0.26292,-5.39673 c -0.30443,0.26292 -0.30443,0.42897 -0.0138,0.70573 l 0.27675,0.24908 4.76019,4.44192 0.74724,0 -5.4244,-5.05078 5.27218,-4.91241 -0.76107,0 -4.5803,4.30355 -0.27675,0.26291 z"
         style=""
         id="path6932" />
      <path
         d="m 1019.6793,358.0802 c 0.2076,0.98248 0.8164,1.48064 2.0895,1.60518 0.1384,0.0138 0.2768,0.0138 0.429,0.0138 l 1.5221,0 c 1.3008,0 1.9097,0.58118 1.9097,1.70204 l 0,0.98248 c 0,0.67805 -0.2214,1.09318 -0.7334,1.39761 -0.2491,0.15222 -0.5397,0.22141 -1.1901,0.22141 l -4.0545,0 0,0.49816 4.0545,0 c 0.9133,0 1.2454,-0.11071 1.7297,-0.512 0.4843,-0.41513 0.6919,-0.88562 0.6919,-1.64669 l 0,-0.99632 c 0,-1.31459 -0.8718,-2.17253 -2.4078,-2.17253 l -1.5359,0 c -0.8995,0 -1.0517,-0.0277 -1.453,-0.34594 -0.4151,-0.31827 -0.595,-0.70573 -0.595,-1.27308 l 0,-0.76107 c 0,-1.12086 0.6642,-1.7574 1.9373,-1.7574 l 4.0821,0 0,-0.49816 -4.0683,0 c -0.8995,0 -1.3008,0.13838 -1.7712,0.56735 -0.4705,0.44281 -0.6781,0.92713 -0.6781,1.70205 l 0,0.83026 c 0,0.15222 0.014,0.30443 0.042,0.44281 z"
         style=""
         id="path6934" />
      <path
         d="m 1029.5457,364.4594 c 0.1384,0.0277 0.2906,0.0415 0.4428,0.0415 l 4.179,0 0,-0.49816 -4.1236,0 c -1.107,0 -1.7989,-0.67805 -1.7989,-1.7574 l 0,-2.4216 5.9225,0 0.014,-0.49816 -5.9503,0 0,-2.51847 c 0,-0.98248 0.4843,-1.57751 1.4668,-1.74356 0.1107,-0.0138 0.2353,-0.0277 0.346,-0.0277 l 4.1513,0 0,-0.49816 -4.1098,0 c -0.1522,0 -0.3044,0.0138 -0.4428,0.0415 -1.2177,0.19373 -1.8958,1.01015 -1.8958,2.22788 l 0,5.50742 c 0,1.16237 0.6504,1.95112 1.7989,2.14485 z"
         style=""
         id="path6936" />
      <path
         d="m 1037.4194,364.37638 c 0.3183,0.1107 0.4843,0.12454 1.3838,0.12454 l 3.6808,0 0,-0.49816 -3.6947,0 c -1.6882,0 -2.297,-0.53968 -2.297,-1.82659 l 0,-7.63844 -0.4982,0 0,7.63844 c 0,1.21773 0.4013,1.85426 1.4253,2.20021 z"
         style=""
         id="path6938" />
      <path
         d="m 1045.1824,364.4594 c 0.1384,0.0277 0.2906,0.0415 0.4428,0.0415 l 4.179,0 0,-0.49816 -4.1236,0 c -1.107,0 -1.7989,-0.67805 -1.7989,-1.7574 l 0,-2.4216 5.9225,0 0.014,-0.49816 -5.9503,0 0,-2.51847 c 0,-0.98248 0.4844,-1.57751 1.4668,-1.74356 0.1108,-0.0138 0.2353,-0.0277 0.346,-0.0277 l 4.1513,0 0,-0.49816 -4.1098,0 c -0.1522,0 -0.3044,0.0138 -0.4428,0.0415 -1.2177,0.19373 -1.8958,1.01015 -1.8958,2.22788 l 0,5.50742 c 0,1.16237 0.6504,1.95112 1.7989,2.14485 z"
         style=""
         id="path6940" />
      <path
         d="m 1052.3089,363.97508 c 0.4981,0.44281 0.7887,0.52584 1.7989,0.52584 l 3.9714,0 0,-0.49816 -3.9714,0 c -0.6089,0 -0.8303,-0.0415 -1.0793,-0.16606 -0.6227,-0.31826 -0.8995,-0.83026 -0.8995,-1.64669 l 0,-5.5351 c 0,-0.52583 0.1799,-0.92713 0.5397,-1.2454 0.3598,-0.30443 0.595,-0.37362 1.273,-0.37362 l 4.1652,0 0,-0.49816 -4.179,0 c -0.7749,0 -1.1624,0.13838 -1.5775,0.47049 -0.4705,0.40129 -0.7196,0.94097 -0.7196,1.67437 l 0,5.5351 c 0,0.8441 0.1799,1.30075 0.6781,1.75739 z"
         style=""
         id="path6942" />
      <path
         d="m 1061.5386,355.03589 0,9.46503 0.4981,0 0,-9.46503 2.9475,0 0,-0.49816 -6.3792,0 0,0.49816 2.9336,0 z"
         style=""
         id="path6944" />
      <path
         d="m 653.69866,340.85216 c 0.49816,0.4428 0.78875,0.52583 1.79891,0.52583 l 3.97143,0 0,-0.49816 -3.97143,0 c -0.60886,0 -0.83027,-0.0415 -1.07935,-0.16605 -0.6227,-0.31827 -0.89945,-0.83027 -0.89945,-1.64669 l 0,-5.5351 c 0,-0.52584 0.17989,-0.92713 0.53967,-1.2454 0.35978,-0.30443 0.59502,-0.37362 1.27307,-0.37362 l 4.16517,0 0,-0.49816 -4.179,0 c -0.77492,0 -1.16237,0.13838 -1.57751,0.47048 -0.47048,0.4013 -0.71956,0.94097 -0.71956,1.67437 l 0,5.5351 c 0,0.8441 0.17989,1.30075 0.67805,1.7574 z"
         style=""
         id="path6946" />
      <path
         d="m 661.48929,341.37799 0,-4.67716 6.19931,0 0,4.67716 0.49816,0 0,-9.96318 -0.49816,0 0,4.78786 -6.19931,0 0,-4.78786 -0.49816,0 0,9.96318 0.49816,0 z"
         style=""
         id="path6948" />
      <path
         d="m 1036.8935,341.25345 c 0.3183,0.1107 0.4844,0.12454 1.3838,0.12454 l 3.6808,0 0,-0.49816 -3.6946,0 c -1.6882,0 -2.2971,-0.53967 -2.2971,-1.82658 l 0,-7.63844 -0.4982,0 0,7.63844 c 0,1.21772 0.4013,1.85426 1.4253,2.2002 z"
         style=""
         id="path6950" />
      <path
         d="m 1042.4979,334.95727 c 0.2075,0.98248 0.8164,1.48064 2.0895,1.60518 0.1383,0.0138 0.2767,0.0138 0.4289,0.0138 l 1.5222,0 c 1.3007,0 1.9096,0.58119 1.9096,1.70204 l 0,0.98248 c 0,0.67805 -0.2214,1.09319 -0.7334,1.39762 -0.2491,0.15221 -0.5397,0.2214 -1.19,0.2214 l -4.0545,0 0,0.49816 4.0545,0 c 0.9132,0 1.2453,-0.1107 1.7297,-0.512 0.4843,-0.41513 0.6919,-0.88561 0.6919,-1.64669 l 0,-0.99632 c 0,-1.31458 -0.8718,-2.17252 -2.4078,-2.17252 l -1.536,0 c -0.8995,0 -1.0517,-0.0277 -1.453,-0.34595 -0.4151,-0.31827 -0.595,-0.70572 -0.595,-1.27307 l 0,-0.76108 c 0,-1.12085 0.6642,-1.75739 1.9373,-1.75739 l 4.0821,0 0,-0.49816 -4.0683,0 c -0.8994,0 -1.3007,0.13838 -1.7712,0.56735 -0.4705,0.44281 -0.678,0.92713 -0.678,1.70204 l 0,0.83027 c 0,0.15221 0.014,0.30443 0.042,0.4428 z"
         style=""
         id="path6952" />
    </g>
    <path
       d="m 1018.0414,347.76699 52.3249,0"
       style="opacity:1;fill:none;stroke:#ff00ff;stroke-width:1.21064758;stroke-linecap:butt;stroke-linejoin:miter;stroke-miterlimit:10;stroke-dasharray:none;stroke-opacity:1"
       id="path6578"
       inkscape:connector-curvature="0" />
    <path
       d="m 635.62185,347.76699 48.97128,0"
       style="opacity:1;fill:none;stroke:#ff00ff;stroke-width:1.21064758;stroke-linecap:butt;stroke-linejoin:miter;stroke-miterlimit:10;stroke-dasharray:none;stroke-opacity:1"
       id="path6582"
       inkscape:connector-curvature="0" />
    <path
       d="m 863.08058,463.28899 -23.3849,0 c -2.1137,0 -3.8271,-1.7123 -3.8271,-3.8274 l 0,-9.9588 3.7856,0 c 0.6334,0 0.6566,0.3515 0.6566,0.8909 l 0,2.6972 c 0,2.696 3.7746,3.0243 3.7746,-0.024 l 0,-6.306 c 0,-2.0638 2.204,-1.8758 2.204,0 l 0,9.8233 c 0,3.0475 4.0322,3.2354 4.0322,0 l 0,-12.872 c 0,-1.0544 1.0666,-1.102 1.0666,-1.102 0,0 1.0666,0.047 1.0666,1.102 l 0,12.872 c 0,3.2354 4.0321,3.0475 4.0321,0 l 0,-9.8233 c 0,-1.8758 2.204,-2.0638 2.204,0 l 0,6.306 c 0,3.0487 3.7746,2.7204 3.7746,0.024 l 0,-2.6972 c 0,-0.5394 0.023,-0.8909 0.6566,-0.8909 l 3.7856,0 0,9.9588 c 0,2.1151 -1.7122,3.8274 -3.8271,3.8274 m -23.3849,-26.0065 23.3849,0 c 2.1149,0 3.8271,1.7147 3.8271,3.8285 l 0,7.4069 -3.4805,0 c -1.5938,0 -1.9465,0.5639 -1.9465,2.2286 l 0,2.3676 c 0,1.4536 -1.8281,1.6171 -1.8281,0 l 0,-6.378 c 0,-3.3282 -4.1737,-3.2123 -4.1737,0 0,2.1809 0.048,8.3942 0.048,9.8014 0,1.805 -2.0869,1.9454 -2.0869,0.023 l 0,-12.7549 c 0,-1.395 -0.9262,-2.1809 -2.0514,-2.1748 -1.1252,-0.01 -2.0515,0.7798 -2.0515,2.1748 l 0,12.7549 c 0,1.9222 -2.0856,1.7818 -2.0856,-0.023 0,-1.4072 0.046,-7.6205 0.046,-9.8014 0,-3.2123 -4.1737,-3.3282 -4.1737,0 l 0,6.378 c 0,1.6171 -1.8281,1.4536 -1.8281,0 l 0,-2.3676 c 0,-1.6647 -0.3515,-2.2286 -1.9465,-2.2286 l -3.4806,0 0,-7.4069 c 0,-2.1138 1.7134,-3.8285 3.8271,-3.8285 m 23.4838,-0.9507 -23.5826,0 c -2.5835,0 -4.6789,2.0943 -4.6789,4.6792 l 0,18.5495 c 0,2.5849 2.0954,4.6792 4.6789,4.6792 l 23.5826,0 c 2.5835,0 4.6789,-2.0943 4.6789,-4.6792 l 0,-18.5495 c 0,-2.585 -2.0954,-4.6792 -4.6789,-4.6792"
       style="opacity:1;fill:#ff00ff;fill-opacity:1;fill-rule:nonzero;stroke:none"
       id="path6474"
       inkscape:connector-curvature="0" />
    <path
       d="m 867.85818,449.05329 169.27112,0 c 2.68,0 4.8535,-2.1724 4.8535,-4.8537 l 0,-24.5651"
       style="opacity:1;fill:none;stroke:#ff00ff;stroke-width:1.21064758;stroke-linecap:butt;stroke-linejoin:miter;stroke-miterlimit:10;stroke-dasharray:none;stroke-opacity:1"
       id="path6566"
       inkscape:connector-curvature="0" />
    <path
       d="m 660.5783,418.61749 0,25.7258 c 0,2.5373 2.17227,4.7097 4.85344,4.7097 l 169.48594,0"
       style="opacity:1;fill:none;stroke:#ff00ff;stroke-width:1.21064758;stroke-linecap:butt;stroke-linejoin:miter;stroke-miterlimit:10;stroke-dasharray:none;stroke-opacity:1"
       id="path6570"
       inkscape:connector-curvature="0" />
    <path
       inkscape:connector-curvature="0"
       id="path7027"
       style="display:inline;opacity:1;fill:#ff00ff;fill-opacity:1;fill-rule:nonzero;stroke:none;enable-background:new"
       d="m 868.12233,114.50761 -33.8329,0 c -3.058,0 -5.537,-2.47733 -5.537,-5.53732 l 0,-14.408302 5.477,0 c 0.9164,0 0.9499,0.50852 0.9499,1.288981 l 0,3.902243 c 0,3.900498 5.4611,4.375458 5.4611,-0.0353 l 0,-9.123487 c 0,-2.985833 3.1887,-2.713923 3.1887,0 l 0,14.212315 c 0,4.409 5.8336,4.68092 5.8336,0 l 0,-18.623099 c 0,-1.525581 1.5432,-1.59445 1.5432,-1.59445 0,0 1.5431,0.0689 1.5431,1.59445 l 0,18.623099 c 0,4.68092 5.8336,4.409 5.8336,0 l 0,-14.212315 c 0,-2.713923 3.1888,-2.985833 3.1888,0 l 0,9.123487 c 0,4.410778 5.461,3.935818 5.461,0.0353 l 0,-3.902243 c 0,-0.780461 0.034,-1.288981 0.9499,-1.288981 l 5.477,0 0,14.408302 c 0,3.05999 -2.4772,5.53732 -5.537,5.53732 m -33.8329,-37.625816 33.8329,0 c 3.0598,0 5.537,2.480842 5.537,5.539065 l 0,10.716178 -5.0356,0 c -2.3059,0 -2.8161,0.81577 -2.8161,3.224222 l 0,3.425503 c 0,2.102988 -2.6449,2.339588 -2.6449,0 l 0,-9.227677 c 0,-4.815124 -6.0385,-4.647384 -6.0385,0 0,3.155352 0.069,12.144665 0.069,14.180545 0,2.61149 -3.0192,2.81454 -3.0192,0.0335 l 0,-18.453589 c 0,-2.018221 -1.3401,-3.155352 -2.968,-3.146522 -1.6279,-0.009 -2.968,1.128301 -2.968,3.146522 l 0,18.453589 c 0,2.78099 -3.0175,2.57794 -3.0175,-0.0335 0,-2.03588 0.067,-11.025193 0.067,-14.180545 0,-4.647384 -6.0384,-4.815124 -6.0384,0 l 0,9.227677 c 0,2.339588 -2.6449,2.102988 -2.6449,0 l 0,-3.425503 c 0,-2.408452 -0.5085,-3.224222 -2.8162,-3.224222 l -5.0356,0 0,-10.716178 c 0,-3.058223 2.479,-5.539065 5.537,-5.539065 m 33.9759,-1.375511 -34.1189,0 c -3.7378,0 -6.7694,3.029993 -6.7694,6.769796 l 0,26.837241 c 0,3.73979 3.0316,6.76979 6.7694,6.76979 l 34.1189,0 c 3.7379,0 6.7694,-3.03 6.7694,-6.76979 l 0,-26.837241 c 0,-3.739803 -3.0315,-6.769796 -6.7694,-6.769796" />
  </g>
  <g
     inkscape:groupmode="layer"
     id="layer6"
     inkscape:label="Tallar"
     style="display:inline">
    <g
       style="display:inline;opacity:1;fill:none;enable-background:new"
       transform="translate(0.44993934,0.45000038)"
       id="g4895">
      <polygon
         style="fill:none;stroke:#000000;stroke-width:0.90000075"
         points="294.09473,170.07888 294.09473,180.70881 272.83487,180.70881 272.83487,170.07888 251.57501,170.07888 251.57501,180.70881 230.31515,180.70881 230.31515,170.07888 209.05529,170.07888 209.05529,180.70881 187.79543,180.70881 187.79543,170.07888 166.53557,170.07888 166.53557,180.70881 145.27571,180.70881 145.27571,170.07888 124.01585,170.07888 124.01585,180.70881 102.75599,180.70881 102.75599,170.07888 81.49613,170.07888 81.49613,180.70881 60.23627,180.70881 60.23627,170.07888 30.118135,170.07888 30.118135,180.70881 0,180.70881 0,151.4765 10.62993,151.4765 10.62993,122.24419 0,122.24419 0,100.98434 10.62993,100.98434 10.62993,79.724475 0,79.724475 0,58.464615 10.62993,58.464615 10.62993,29.232308 0,29.232308 0,0 30.118135,0 30.118135,10.62993 60.23627,10.62993 60.23627,0 81.49613,0 81.49613,10.62993 102.75599,10.62993 102.75599,0 124.01585,0 124.01585,10.62993 145.27571,10.62993 145.27571,0 166.53557,0 166.53557,10.62993 187.79543,10.62993 187.79543,0 209.05529,0 209.05529,10.62993 230.31515,10.62993 230.31515,0 251.57501,0 251.57501,10.62993 272.83487,10.62993 272.83487,0 294.09473,0 294.09473,10.62993 315.35459,10.62993 315.35459,0 336.61445,0 336.61445,10.62993 357.87431,10.62993 357.87431,0 379.13417,0 379.13417,10.62993 400.39403,10.62993 400.39403,0 421.65389,0 421.65389,10.62993 442.91375,10.62993 442.91375,0 464.17361,0 464.17361,10.62993 485.43347,10.62993 485.43347,0 506.69333,0 506.69333,10.62993 536.81146,10.62993 536.81146,0 566.9296,0 566.9296,29.232308 556.29967,29.232308 556.29967,58.464615 566.9296,58.464615 566.9296,79.724475 556.29967,79.724475 556.29967,100.98434 566.9296,100.98434 566.9296,122.24419 556.29967,122.24419 556.29967,151.4765 566.9296,151.4765 566.9296,180.70881 536.81146,180.70881 536.81146,170.07888 506.69333,170.07888 506.69333,180.70881 485.43347,180.70881 485.43347,170.07888 464.17361,170.07888 464.17361,180.70881 442.91375,180.70881 442.91375,170.07888 421.65389,170.07888 421.65389,180.70881 400.39403,180.70881 400.39403,170.07888 379.13417,170.07888 379.13417,180.70881 357.87431,180.70881 357.87431,170.07888 336.61445,170.07888 336.61445,180.70881 315.35459,180.70881 315.35459,170.07888 "
         id="polygon4897" />
    </g>
    <g
       style="display:inline;opacity:1;fill:none;enable-background:new"
       transform="translate(567.37954,0.45000038)"
       id="g4899">
      <polygon
         style="fill:none;stroke:#000000;stroke-width:0.90000075"
         points="294.09473,170.07888 294.09473,180.70881 272.83487,180.70881 272.83487,170.07888 251.57501,170.07888 251.57501,180.70881 230.31515,180.70881 230.31515,170.07888 209.05529,170.07888 209.05529,180.70881 187.79543,180.70881 187.79543,170.07888 166.53557,170.07888 166.53557,180.70881 145.27571,180.70881 145.27571,170.07888 124.01585,170.07888 124.01585,180.70881 102.75599,180.70881 102.75599,170.07888 81.49613,170.07888 81.49613,180.70881 60.23627,180.70881 60.23627,170.07888 30.118135,170.07888 30.118135,180.70881 0,180.70881 0,151.4765 10.62993,151.4765 10.62993,122.24419 0,122.24419 0,100.98434 10.62993,100.98434 10.62993,79.724475 0,79.724475 0,58.464615 10.62993,58.464615 10.62993,29.232308 0,29.232308 0,0 30.118135,0 30.118135,10.62993 60.23627,10.62993 60.23627,0 81.49613,0 81.49613,10.62993 102.75599,10.62993 102.75599,0 124.01585,0 124.01585,10.62993 145.27571,10.62993 145.27571,0 166.53557,0 166.53557,10.62993 187.79543,10.62993 187.79543,0 209.05529,0 209.05529,10.62993 230.31515,10.62993 230.31515,0 251.57501,0 251.57501,10.62993 272.83487,10.62993 272.83487,0 294.09473,0 294.09473,10.62993 315.35459,10.62993 315.35459,0 336.61445,0 336.61445,10.62993 357.87431,10.62993 357.87431,0 379.13417,0 379.13417,10.62993 400.39403,10.62993 400.39403,0 421.65389,0 421.65389,10.62993 442.91375,10.62993 442.91375,0 464.17361,0 464.17361,10.62993 485.43347,10.62993 485.43347,0 506.69333,0 506.69333,10.62993 536.81146,10.62993 536.81146,0 566.9296,0 566.9296,29.232308 556.29967,29.232308 556.29967,58.464615 566.9296,58.464615 566.9296,79.724475 556.29967,79.724475 556.29967,100.98434 566.9296,100.98434 566.9296,122.24419 556.29967,122.24419 556.29967,151.4765 566.9296,151.4765 566.9296,180.70881 536.81146,180.70881 536.81146,170.07888 506.69333,170.07888 506.69333,180.70881 485.43347,180.70881 485.43347,170.07888 464.17361,170.07888 464.17361,180.70881 442.91375,180.70881 442.91375,170.07888 421.65389,170.07888 421.65389,180.70881 400.39403,180.70881 400.39403,170.07888 379.13417,170.07888 379.13417,180.70881 357.87431,180.70881 357.87431,170.07888 336.61445,170.07888 336.61445,180.70881 315.35459,180.70881 315.35459,170.07888 "
         id="polygon4901" />
    </g>
    <g
       style="display:inline;opacity:1;fill:none;enable-background:new"
       transform="translate(1134.3091,0.45000038)"
       id="g4903">
      <polygon
         style="fill:none;stroke:#000000;stroke-width:0.90000075"
         points="127.55916,0 127.55916,10.62993 148.81902,10.62993 148.81902,0 170.07888,0 170.07888,10.62993 191.33874,10.62993 191.33874,0 212.5986,0 212.5986,10.62993 233.85846,10.62993 233.85846,0 255.11832,0 255.11832,10.62993 287.00811,10.62993 287.00811,0 308.26797,0 308.26797,29.232308 318.8979,29.232308 318.8979,58.464615 308.26797,58.464615 308.26797,79.724475 318.8979,79.724475 318.8979,100.98434 308.26797,100.98434 308.26797,122.24419 318.8979,122.24419 318.8979,151.4765 308.26797,151.4765 308.26797,180.70881 287.00811,180.70881 287.00811,170.07888 255.11832,170.07888 255.11832,180.70881 233.85846,180.70881 233.85846,170.07888 212.5986,170.07888 212.5986,180.70881 191.33874,180.70881 191.33874,170.07888 170.07888,170.07888 170.07888,180.70881 148.81902,180.70881 148.81902,170.07888 127.55916,170.07888 127.55916,180.70881 106.2993,180.70881 106.2993,170.07888 85.03944,170.07888 85.03944,180.70881 63.77958,180.70881 63.77958,170.07888 31.88979,170.07888 31.88979,180.70881 10.62993,180.70881 10.62993,151.4765 0,151.4765 0,122.24419 10.62993,122.24419 10.62993,100.98434 0,100.98434 0,79.724475 10.62993,79.724475 10.62993,58.464615 0,58.464615 0,29.232308 10.62993,29.232308 10.62993,0 31.88979,0 31.88979,10.62993 63.77958,10.62993 63.77958,0 85.03944,0 85.03944,10.62993 106.2993,10.62993 106.2993,0 "
         id="polygon4905" />
    </g>
    <g
       style="display:inline;opacity:1;fill:none;enable-background:new"
       transform="translate(1134.3091,181.15881)"
       id="g4907">
      <polygon
         style="fill:none;stroke:#000000;stroke-width:0.90000075"
         points="127.55916,0 127.55916,10.62993 148.81902,10.62993 148.81902,0 170.07888,0 170.07888,10.62993 191.33874,10.62993 191.33874,0 212.5986,0 212.5986,10.62993 233.85846,10.62993 233.85846,0 255.11832,0 255.11832,10.62993 287.00811,10.62993 287.00811,0 308.26797,0 308.26797,29.232308 318.8979,29.232308 318.8979,58.464615 308.26797,58.464615 308.26797,79.724475 318.8979,79.724475 318.8979,100.98434 308.26797,100.98434 308.26797,122.24419 318.8979,122.24419 318.8979,151.4765 308.26797,151.4765 308.26797,180.70881 287.00811,180.70881 287.00811,170.07888 255.11832,170.07888 255.11832,180.70881 233.85846,180.70881 233.85846,170.07888 212.5986,170.07888 212.5986,180.70881 191.33874,180.70881 191.33874,170.07888 170.07888,170.07888 170.07888,180.70881 148.81902,180.70881 148.81902,170.07888 127.55916,170.07888 127.55916,180.70881 106.2993,180.70881 106.2993,170.07888 85.03944,170.07888 85.03944,180.70881 63.77958,180.70881 63.77958,170.07888 31.88979,170.07888 31.88979,180.70881 10.62993,180.70881 10.62993,151.4765 0,151.4765 0,122.24419 10.62993,122.24419 10.62993,100.98434 0,100.98434 0,79.724475 10.62993,79.724475 10.62993,58.464615 0,58.464615 0,29.232308 10.62993,29.232308 10.62993,0 31.88979,0 31.88979,10.62993 63.77958,10.62993 63.77958,0 85.03944,0 85.03944,10.62993 106.2993,10.62993 106.2993,0 "
         id="polygon4909" />
    </g>
    <g
       style="display:inline;opacity:1;fill:none;enable-background:new"
       transform="translate(0.44993934,181.15881)"
       id="g4911">
      <polygon
         style="fill:none;stroke:#000000;stroke-width:0.90000075"
         points="421.65389,318.8979 421.65389,308.26797 400.39403,308.26797 400.39403,318.8979 379.13417,318.8979 379.13417,308.26797 357.87431,308.26797 357.87431,318.8979 336.61445,318.8979 336.61445,308.26797 315.35459,308.26797 315.35459,318.8979 294.09473,318.8979 294.09473,308.26797 272.83487,308.26797 272.83487,318.8979 251.57501,318.8979 251.57501,308.26797 230.31515,308.26797 230.31515,318.8979 209.05529,318.8979 209.05529,308.26797 187.79543,308.26797 187.79543,318.8979 166.53557,318.8979 166.53557,308.26797 145.27571,308.26797 145.27571,318.8979 124.01585,318.8979 124.01585,308.26797 102.75599,308.26797 102.75599,318.8979 81.49613,318.8979 81.49613,308.26797 60.23627,308.26797 60.23627,318.8979 30.118135,318.8979 30.118135,308.26797 10.62993,308.26797 10.62993,287.00811 0,287.00811 0,255.11832 10.62993,255.11832 10.62993,233.85846 0,233.85846 0,212.5986 10.62993,212.5986 10.62993,191.33874 0,191.33874 0,170.07888 10.62993,170.07888 10.62993,148.81902 0,148.81902 0,127.55916 10.62993,127.55916 10.62993,106.2993 0,106.2993 0,85.03944 10.62993,85.03944 10.62993,63.77958 0,63.77958 0,31.88979 10.62993,31.88979 10.62993,10.62993 30.118135,10.62993 30.118135,0 60.23627,0 60.23627,10.62993 81.49613,10.62993 81.49613,0 102.75599,0 102.75599,10.62993 124.01585,10.62993 124.01585,0 145.27571,0 145.27571,10.62993 166.53557,10.62993 166.53557,0 187.79543,0 187.79543,10.62993 209.05529,10.62993 209.05529,0 230.31515,0 230.31515,10.62993 251.57501,10.62993 251.57501,0 272.83487,0 272.83487,10.62993 294.09473,10.62993 294.09473,0 315.35459,0 315.35459,10.62993 336.61445,10.62993 336.61445,0 357.87431,0 357.87431,10.62993 379.13417,10.62993 379.13417,0 400.39403,0 400.39403,10.62993 421.65389,10.62993 421.65389,0 442.91375,0 442.91375,10.62993 464.17361,10.62993 464.17361,0 485.43347,0 485.43347,10.62993 506.69333,10.62993 506.69333,0 536.81146,0 536.81146,10.62993 556.29967,10.62993 556.29967,31.88979 566.9296,31.88979 566.9296,63.77958 556.29967,63.77958 556.29967,85.03944 566.9296,85.03944 566.9296,106.2993 556.29967,106.2993 556.29967,127.55916 566.9296,127.55916 566.9296,148.81902 556.29967,148.81902 556.29967,170.07888 566.9296,170.07888 566.9296,191.33874 556.29967,191.33874 556.29967,212.5986 566.9296,212.5986 566.9296,233.85846 556.29967,233.85846 556.29967,255.11832 566.9296,255.11832 566.9296,287.00811 556.29967,287.00811 556.29967,308.26797 536.81146,308.26797 536.81146,318.8979 506.69333,318.8979 506.69333,308.26797 485.43347,308.26797 485.43347,318.8979 464.17361,318.8979 464.17361,308.26797 442.91375,308.26797 442.91375,318.8979 "
         id="polygon4913" />
    </g>
    <g
       style="display:inline;opacity:1;fill:none;enable-background:new"
       transform="translate(567.37954,181.15881)"
       id="g4915">
      <polygon
         style="fill:none;stroke:#000000;stroke-width:0.90000075"
         points="421.65389,318.8979 421.65389,308.26797 400.39403,308.26797 400.39403,318.8979 379.13417,318.8979 379.13417,308.26797 357.87431,308.26797 357.87431,318.8979 336.61445,318.8979 336.61445,308.26797 315.35459,308.26797 315.35459,318.8979 294.09473,318.8979 294.09473,308.26797 272.83487,308.26797 272.83487,318.8979 251.57501,318.8979 251.57501,308.26797 230.31515,308.26797 230.31515,318.8979 209.05529,318.8979 209.05529,308.26797 187.79543,308.26797 187.79543,318.8979 166.53557,318.8979 166.53557,308.26797 145.27571,308.26797 145.27571,318.8979 124.01585,318.8979 124.01585,308.26797 102.75599,308.26797 102.75599,318.8979 81.49613,318.8979 81.49613,308.26797 60.23627,308.26797 60.23627,318.8979 30.118135,318.8979 30.118135,308.26797 10.62993,308.26797 10.62993,287.00811 0,287.00811 0,255.11832 10.62993,255.11832 10.62993,233.85846 0,233.85846 0,212.5986 10.62993,212.5986 10.62993,191.33874 0,191.33874 0,170.07888 10.62993,170.07888 10.62993,148.81902 0,148.81902 0,127.55916 10.62993,127.55916 10.62993,106.2993 0,106.2993 0,85.03944 10.62993,85.03944 10.62993,63.77958 0,63.77958 0,31.88979 10.62993,31.88979 10.62993,10.62993 30.118135,10.62993 30.118135,0 60.23627,0 60.23627,10.62993 81.49613,10.62993 81.49613,0 102.75599,0 102.75599,10.62993 124.01585,10.62993 124.01585,0 145.27571,0 145.27571,10.62993 166.53557,10.62993 166.53557,0 187.79543,0 187.79543,10.62993 209.05529,10.62993 209.05529,0 230.31515,0 230.31515,10.62993 251.57501,10.62993 251.57501,0 272.83487,0 272.83487,10.62993 294.09473,10.62993 294.09473,0 315.35459,0 315.35459,10.62993 336.61445,10.62993 336.61445,0 357.87431,0 357.87431,10.62993 379.13417,10.62993 379.13417,0 400.39403,0 400.39403,10.62993 421.65389,10.62993 421.65389,0 442.91375,0 442.91375,10.62993 464.17361,10.62993 464.17361,0 485.43347,0 485.43347,10.62993 506.69333,10.62993 506.69333,0 536.81146,0 536.81146,10.62993 556.29967,10.62993 556.29967,31.88979 566.9296,31.88979 566.9296,63.77958 556.29967,63.77958 556.29967,85.03944 566.9296,85.03944 566.9296,106.2993 556.29967,106.2993 556.29967,127.55916 566.9296,127.55916 566.9296,148.81902 556.29967,148.81902 556.29967,170.07888 566.9296,170.07888 566.9296,191.33874 556.29967,191.33874 556.29967,212.5986 566.9296,212.5986 566.9296,233.85846 556.29967,233.85846 556.29967,255.11832 566.9296,255.11832 566.9296,287.00811 556.29967,287.00811 556.29967,308.26797 536.81146,308.26797 536.81146,318.8979 506.69333,318.8979 506.69333,308.26797 485.43347,308.26797 485.43347,318.8979 464.17361,318.8979 464.17361,308.26797 442.91375,308.26797 442.91375,318.8979 "
         id="polygon4917" />
    </g>
    <ellipse
       style="display:inline;opacity:1;fill:none;fill-opacity:1;stroke:#010000;stroke-width:0.70677358;stroke-miterlimit:10;stroke-dasharray:none;stroke-opacity:0.98930485;enable-background:new"
       id="path7826"
       cx="403.6405"
       cy="37.712921"
       rx="17.602758"
       ry="17.603745" />
    <ellipse
       cy="37.644104"
       cx="479.74146"
       id="circle7828"
       style="display:inline;opacity:1;fill:none;fill-opacity:1;stroke:#010000;stroke-width:0.70677358;stroke-miterlimit:10;stroke-dasharray:none;stroke-opacity:0.98930485;enable-background:new"
       rx="17.602758"
       ry="17.603745" />
    <ellipse
       cy="103.91561"
       cx="188.26216"
       id="circle7830"
       style="display:inline;opacity:1;fill:none;fill-opacity:1;stroke:#010000;stroke-width:0.70677358;stroke-miterlimit:10;stroke-dasharray:none;stroke-opacity:0.98930485;enable-background:new"
       rx="18.317783"
       ry="18.31881" />
    <ellipse
       style="display:inline;opacity:1;fill:none;fill-opacity:1;stroke:#010000;stroke-width:0.70677358;stroke-miterlimit:10;stroke-dasharray:none;stroke-opacity:0.98930485;enable-background:new"
       id="circle7832"
       cx="128.2643"
       cy="104.06362"
       rx="18.746798"
       ry="18.747847" />
    <ellipse
       cy="41.160191"
       cx="121.70734"
       id="circle7992"
       style="display:inline;opacity:1;fill:none;fill-opacity:1;stroke:#010000;stroke-width:0.70677358;stroke-miterlimit:10;stroke-dasharray:none;stroke-opacity:0.98930485;enable-background:new"
       rx="13.312613"
       ry="13.313359" />
    <ellipse
       cy="114.12503"
       cx="441.66815"
       id="circle8008"
       style="display:inline;opacity:1;fill:none;fill-opacity:1;stroke:#010000;stroke-width:0.70677358;stroke-miterlimit:10;stroke-dasharray:none;stroke-opacity:0.98930485;enable-background:new"
       rx="31.271791"
       ry="31.273544" />
    <g
       style="enable-background:new"
       id="g6716">
      <rect
         ry="2.0998256"
         y="119.10194"
         x="221.2664"
         height="40.244175"
         width="5.4380975"
         id="rect8010"
         style="opacity:1;fill:none;fill-opacity:1;stroke:#010000;stroke-width:0.70677358;stroke-miterlimit:10;stroke-dasharray:none;stroke-opacity:0.98930485" />
      <rect
         style="opacity:1;fill:none;fill-opacity:1;stroke:#010000;stroke-width:0.70677358;stroke-miterlimit:10;stroke-dasharray:none;stroke-opacity:0.98930485"
         id="rect8012"
         width="5.4380975"
         height="40.244175"
         x="235.10884"
         y="119.10194"
         ry="2.0998256" />
      <rect
         ry="2.0998256"
         y="119.64583"
         x="248.95131"
         height="40.244175"
         width="5.4380975"
         id="rect8014"
         style="opacity:1;fill:none;fill-opacity:1;stroke:#010000;stroke-width:0.70677358;stroke-miterlimit:10;stroke-dasharray:none;stroke-opacity:0.98930485" />
      <rect
         style="opacity:1;fill:none;fill-opacity:1;stroke:#010000;stroke-width:0.70677358;stroke-miterlimit:10;stroke-dasharray:none;stroke-opacity:0.98930485"
         id="rect8016"
         width="5.4380975"
         height="40.244175"
         x="262.79376"
         y="119.10194"
         ry="2.0998256" />
      <rect
         ry="2.0998256"
         y="119.30141"
         x="276.63623"
         height="40.244175"
         width="5.4380975"
         id="rect8018"
         style="opacity:1;fill:none;fill-opacity:1;stroke:#010000;stroke-width:0.70677358;stroke-miterlimit:10;stroke-dasharray:none;stroke-opacity:0.98930485" />
      <rect
         style="opacity:1;fill:none;fill-opacity:1;stroke:#010000;stroke-width:0.70677358;stroke-miterlimit:10;stroke-dasharray:none;stroke-opacity:0.98930485"
         id="rect8020"
         width="5.4380975"
         height="40.244175"
         x="290.47861"
         y="119.10194"
         ry="2.0998256" />
      <rect
         ry="2.0998256"
         y="119.10194"
         x="304.32104"
         height="40.244175"
         width="5.4380975"
         id="rect8180"
         style="opacity:1;fill:none;fill-opacity:1;stroke:#010000;stroke-width:0.70677358;stroke-miterlimit:10;stroke-dasharray:none;stroke-opacity:0.98930485" />
      <rect
         style="opacity:1;fill:none;fill-opacity:1;stroke:#010000;stroke-width:0.70677358;stroke-miterlimit:10;stroke-dasharray:none;stroke-opacity:0.98930485"
         id="rect8182"
         width="5.4380975"
         height="40.244175"
         x="318.16351"
         y="119.10194"
         ry="2.0998256" />
      <rect
         ry="2.0998256"
         y="118.95705"
         x="332.00592"
         height="40.244175"
         width="5.4380975"
         id="rect8184"
         style="opacity:1;fill:none;fill-opacity:1;stroke:#010000;stroke-width:0.70677358;stroke-miterlimit:10;stroke-dasharray:none;stroke-opacity:0.98930485" />
      <rect
         style="opacity:1;fill:none;fill-opacity:1;stroke:#010000;stroke-width:0.70677358;stroke-miterlimit:10;stroke-dasharray:none;stroke-opacity:0.98930485"
         id="rect8186"
         width="5.4380975"
         height="40.244175"
         x="345.84839"
         y="119.15651"
         ry="2.0998256" />
      <rect
         ry="2.0998256"
         y="119.30141"
         x="359.69086"
         height="40.244175"
         width="5.4380975"
         id="rect8188"
         style="opacity:1;fill:none;fill-opacity:1;stroke:#010000;stroke-width:0.70677358;stroke-miterlimit:10;stroke-dasharray:none;stroke-opacity:0.98930485" />
      <rect
         style="opacity:1;fill:none;fill-opacity:1;stroke:#010000;stroke-width:0.70677358;stroke-miterlimit:10;stroke-dasharray:none;stroke-opacity:0.98930485"
         id="rect8190"
         width="5.4380975"
         height="40.244175"
         x="373.53326"
         y="119.30141"
         ry="2.0998256" />
    </g>
    <path
       style="display:inline;opacity:1;fill:none;fill-rule:evenodd;stroke:#000000;stroke-width:1px;stroke-linecap:butt;stroke-linejoin:miter;stroke-opacity:1;enable-background:new"
       d="m 167.75875,35.141218 6.1292,-5.221174 45.17472,2e-5 5.44819,4.994174 0.45402,16.344564 -4.76718,3.632133 -48.12567,0 -4.54015,-3.178113 z"
       id="path5600"
       inkscape:connector-curvature="0" />
    <path
       style="display:inline;opacity:1;fill:none;fill-rule:evenodd;stroke:#000000;stroke-width:1px;stroke-linecap:butt;stroke-linejoin:miter;stroke-opacity:1;enable-background:new"
       d="m 259.01584,28.557993 22.01997,-0.22698 3.85914,4.767164 0.22701,7.037245 -3.85914,2.270072 -23.1548,0.227011 -3.85913,-3.405113 -10e-5,-6.015735 z"
       id="path5602"
       inkscape:connector-curvature="0"
       sodipodi:nodetypes="ccccccccc" />
    <ellipse
       style="display:inline;opacity:1;fill:none;fill-opacity:1;stroke:#000000;stroke-width:0.70673507;stroke-miterlimit:4;stroke-dasharray:none;stroke-opacity:0.96791448;enable-background:new"
       id="path6977"
       cx="660.88654"
       cy="405.7139"
       rx="11.46554"
       ry="11.466183" />
    <ellipse
       cy="284.67557"
       cx="660.76422"
       id="circle6979"
       style="display:inline;opacity:1;fill:none;fill-opacity:1;stroke:#000000;stroke-width:0.70677358;stroke-miterlimit:4;stroke-dasharray:none;stroke-opacity:0.96791448;enable-background:new"
       rx="11.46554"
       ry="11.466183" />
    <ellipse
       cy="405.79105"
       cx="1041.5336"
       id="circle6981"
       style="display:inline;opacity:1;fill:none;fill-opacity:1;stroke:#000000;stroke-width:0.70673507;stroke-miterlimit:4;stroke-dasharray:none;stroke-opacity:0.96791448;enable-background:new"
       rx="11.46554"
       ry="11.466183" />
    <ellipse
       style="display:inline;opacity:1;fill:none;fill-opacity:1;stroke:#000000;stroke-width:0.70673507;stroke-miterlimit:4;stroke-dasharray:none;stroke-opacity:0.96791448;enable-background:new"
       id="circle6983"
       cx="1041.4111"
       cy="284.75272"
       rx="11.46554"
       ry="11.466183" />
    <rect
       style="opacity:1;fill:none;fill-opacity:1;stroke:#000000;stroke-width:0.70677358;stroke-miterlimit:4;stroke-dasharray:none;stroke-opacity:1;enable-background:new"
       id="rect6989"
       width="203.7739"
       height="149.58156"
       x="750.00507"
       y="269.47086"
       ry="4.6907105" />
    <ellipse
       style="display:inline;opacity:1;fill:none;fill-opacity:1;stroke:#000000;stroke-width:0.70677358;stroke-miterlimit:4;stroke-dasharray:none;stroke-opacity:0.96791448;enable-background:new"
       id="circle6991"
       cx="708.82526"
       cy="273.37442"
       rx="4.8518157"
       ry="4.8520875" />
    <ellipse
       cy="437.74185"
       cx="709.19379"
       id="circle6993"
       style="display:inline;opacity:1;fill:none;fill-opacity:1;stroke:#000000;stroke-width:0.70677358;stroke-miterlimit:4;stroke-dasharray:none;stroke-opacity:0.96791448;enable-background:new"
       rx="4.8518157"
       ry="4.8520875" />
    <ellipse
       cy="273.37442"
       cx="977.10516"
       id="circle7025"
       style="display:inline;opacity:1;fill:none;fill-opacity:1;stroke:#000000;stroke-width:0.70677358;stroke-miterlimit:4;stroke-dasharray:none;stroke-opacity:0.96791448;enable-background:new"
       rx="4.8518157"
       ry="4.8520875" />
    <g
       style="display:inline;opacity:1;fill:none;enable-background:new"
       id="g8429"
       transform="matrix(0.0997253,0,0,0.09973089,-0.17932,-0.45292)">
      <rect
         ry="3.2553327"
         y="3605.9644"
         x="3714.1304"
         height="522.63428"
         width="59.974422"
         id="rect8413"
         style="opacity:1;fill:none;fill-opacity:1;stroke:#010000;stroke-width:7.08700562;stroke-miterlimit:10;stroke-dasharray:none;stroke-opacity:0.98930485" />
      <rect
         style="opacity:1;fill:none;fill-opacity:1;stroke:#010000;stroke-width:7.08700562;stroke-miterlimit:10;stroke-dasharray:none;stroke-opacity:0.98930485"
         id="rect8415"
         width="59.974422"
         height="522.63428"
         x="3857.9465"
         y="3605.9644"
         ry="3.2553327" />
      <rect
         ry="3.2553327"
         y="3610.2483"
         x="4001.7629"
         height="522.63428"
         width="59.974422"
         id="rect8417"
         style="opacity:1;fill:none;fill-opacity:1;stroke:#010000;stroke-width:7.08700562;stroke-miterlimit:10;stroke-dasharray:none;stroke-opacity:0.98930485" />
      <rect
         style="opacity:1;fill:none;fill-opacity:1;stroke:#010000;stroke-width:7.08700562;stroke-miterlimit:10;stroke-dasharray:none;stroke-opacity:0.98930485"
         id="rect8419"
         width="59.974422"
         height="522.63428"
         x="4145.5791"
         y="3601.6804"
         ry="3.2553327" />
      <rect
         ry="3.2553327"
         y="3601.6804"
         x="4289.3955"
         height="522.63428"
         width="59.974422"
         id="rect8421"
         style="opacity:1;fill:none;fill-opacity:1;stroke:#010000;stroke-width:7.08700562;stroke-miterlimit:10;stroke-dasharray:none;stroke-opacity:0.98930485" />
      <rect
         style="opacity:1;fill:none;fill-opacity:1;stroke:#010000;stroke-width:7.08700562;stroke-miterlimit:10;stroke-dasharray:none;stroke-opacity:0.98930485"
         id="rect8423"
         width="59.974422"
         height="522.63428"
         x="4433.2119"
         y="3605.9644"
         ry="3.2553327" />
      <rect
         ry="3.2553327"
         y="3601.6804"
         x="4577.0283"
         height="522.63428"
         width="59.974422"
         id="rect8425"
         style="opacity:1;fill:none;fill-opacity:1;stroke:#010000;stroke-width:7.08700562;stroke-miterlimit:10;stroke-dasharray:none;stroke-opacity:0.98930485" />
      <rect
         style="opacity:1;fill:none;fill-opacity:1;stroke:#010000;stroke-width:7.08700562;stroke-miterlimit:10;stroke-dasharray:none;stroke-opacity:0.98930485"
         id="rect8427"
         width="59.974422"
         height="522.63428"
         x="4720.8452"
         y="3605.9644"
         ry="3.2553327" />
    </g>
    <ellipse
       cy="298.27866"
       cx="477.70901"
       id="circle8405"
       style="display:inline;opacity:1;fill:none;fill-opacity:1;stroke:#000000;stroke-width:0.70677358;stroke-miterlimit:4;stroke-dasharray:none;stroke-opacity:0.96791448;enable-background:new"
       rx="4.8518157"
       ry="4.8520875" />
    <ellipse
       style="display:inline;opacity:1;fill:none;fill-opacity:1;stroke:#000000;stroke-width:0.70677358;stroke-miterlimit:4;stroke-dasharray:none;stroke-opacity:0.96791448;enable-background:new"
       id="circle8407"
       cx="268.8024"
       cy="299.13315"
       rx="4.8518157"
       ry="4.8520875" />
    <ellipse
       cy="472.59091"
       cx="268.8024"
       id="circle8409"
       style="display:inline;opacity:1;fill:none;fill-opacity:1;stroke:#000000;stroke-width:0.70677358;stroke-miterlimit:4;stroke-dasharray:none;stroke-opacity:0.96791448;enable-background:new"
       rx="4.8518157"
       ry="4.8520875" />
    <ellipse
       style="display:inline;opacity:1;fill:none;fill-opacity:1;stroke:#000000;stroke-width:0.70677358;stroke-miterlimit:4;stroke-dasharray:none;stroke-opacity:0.96791448;enable-background:new"
       id="circle8411"
       cx="476.85458"
       cy="472.59091"
       rx="4.8518157"
       ry="4.8520875" />
    <g
       style="display:inline;opacity:1;enable-background:new"
       id="g5498"
       transform="translate(-236.90542,-871.88669)">
      <rect
         style="opacity:1;fill:none;fill-opacity:1;stroke:#010000;stroke-width:0.70677358;stroke-miterlimit:10;stroke-dasharray:none;stroke-opacity:0.98930485"
         id="rect7032"
         width="56.271412"
         height="59.471981"
         x="1488.5909"
         y="1086.5656"
         ry="4.6907163" />
      <rect
         style="opacity:1;fill:none;fill-opacity:1;stroke:#010000;stroke-width:0.70677358;stroke-miterlimit:10;stroke-dasharray:none;stroke-opacity:0.98930485"
         id="rect7034"
         width="57.550304"
         height="59.471981"
         x="1550.2186"
         y="1086.8062"
         ry="4.9457664" />
      <rect
         style="opacity:1;fill:none;fill-opacity:1;stroke:#010000;stroke-width:0.70677358;stroke-miterlimit:10;stroke-dasharray:none;stroke-opacity:0.98930485"
         id="rect7036"
         width="60.747543"
         height="51.798176"
         x="1613.7648"
         y="1084.6471"
         ry="3.2443943" />
    </g>
  </g>
</svg>
