<?xml version="1.0" encoding="UTF-8" standalone="no"?>
<!-- Created with Inkscape (http://www.inkscape.org/) -->

<svg
   xmlns:dc="http://purl.org/dc/elements/1.1/"
   xmlns:cc="http://creativecommons.org/ns#"
   xmlns:rdf="http://www.w3.org/1999/02/22-rdf-syntax-ns#"
   xmlns:svg="http://www.w3.org/2000/svg"
   xmlns="http://www.w3.org/2000/svg"
   xmlns:sodipodi="http://sodipodi.sourceforge.net/DTD/sodipodi-0.dtd"
   xmlns:inkscape="http://www.inkscape.org/namespaces/inkscape"
   width="96.40007mm"
   height="143.8924mm"
   viewBox="0 0 341.57505 509.85494"
   id="svg4379"
   version="1.1"
   inkscape:version="0.91 r13725"
   sodipodi:docname="slopes.svg">
  <defs
     id="defs4381" />
  <sodipodi:namedview
     id="base"
     pagecolor="#ffffff"
     bordercolor="#666666"
     borderopacity="1.0"
     inkscape:pageopacity="0.0"
     inkscape:pageshadow="2"
     inkscape:zoom="0.35"
     inkscape:cx="-202.78391"
     inkscape:cy="20.641771"
     inkscape:document-units="px"
     inkscape:current-layer="layer1"
     showgrid="false"
     fit-margin-top="0"
     fit-margin-left="0"
     fit-margin-right="0"
     fit-margin-bottom="0"
     inkscape:window-width="1920"
     inkscape:window-height="955"
     inkscape:window-x="0"
     inkscape:window-y="1"
     inkscape:window-maximized="1" />
  <metadata
     id="metadata4384">
    <rdf:RDF>
      <cc:Work
         rdf:about="">
        <dc:format>image/svg+xml</dc:format>
        <dc:type
           rdf:resource="http://purl.org/dc/dcmitype/StillImage" />
        <dc:title></dc:title>
      </cc:Work>
    </rdf:RDF>
  </metadata>
  <g
     inkscape:label="Capa 1"
     inkscape:groupmode="layer"
     id="layer1"
     transform="translate(-34.926763,-43.14901)">
    <path
       style="opacity:1;fill:none;fill-opacity:1;stroke:#0000ff;stroke-width:0.35433102;stroke-miterlimit:7.48837233;stroke-dasharray:none;stroke-opacity:1"
       d="m 234.28964,208.58563 c -15.7903,-0.0161 -31.5806,0.0321 -47.3708,-0.0241 -3.4178,-0.20912 -4.7381,-4.05486 -4.2089,-6.97805 0.013,-16.08664 -0.032,-32.17335 0.023,-48.25995 0.2045,-3.37795 3.9981,-4.73768 6.9032,-4.20874 15.0448,0.0129 30.0896,-0.0318 45.1343,0.0231 3.4178,0.20912 4.7381,4.05486 4.2089,6.97805 -0.051,16.22964 0.1077,32.46963 -0.081,48.69279 -0.3902,2.13251 -2.4322,3.83287 -4.6087,3.77693 z"
       id="rect7032"
       inkscape:connector-curvature="0" />
    <path
       style="opacity:1;fill:none;fill-opacity:1;stroke:#0000ff;stroke-width:0.35433102;stroke-miterlimit:7.48837233;stroke-dasharray:none;stroke-opacity:1"
       d="m 172.40694,208.34503 c -16.0553,-0.017 -32.1107,0.0339 -48.1659,-0.0254 -3.5385,-0.21446 -4.9951,-4.1786 -4.4375,-7.23249 0.014,-15.9251 -0.034,-31.85027 0.024,-47.77533 0.2117,-3.51454 4.1445,-4.99451 7.1875,-4.43755 15.2995,0.0136 30.5992,-0.0336 45.8987,0.0243 3.5385,0.21443 4.9952,4.17857 4.4376,7.23249 -0.053,16.07587 0.1138,32.16266 -0.085,48.2317 -0.4115,2.24841 -2.5645,4.04125 -4.8593,3.98227 z"
       id="rect7034"
       inkscape:connector-curvature="0" />
    <path
       style="opacity:1;fill:none;fill-opacity:1;stroke:#0000ff;stroke-width:0.35433102;stroke-miterlimit:7.48837233;stroke-dasharray:none;stroke-opacity:1"
       d="m 110.56214,210.50413 c -18.197101,-0.0111 -36.394201,0.0223 -54.591301,-0.0167 -2.8922,-0.20191 -3.1683,-3.63109 -2.9111,-5.86643 0.01,-14.33444 -0.022,-28.66891 0.016,-43.00332 0.2253,-2.99386 3.7951,-3.14565 6.0762,-2.91105 17.2476,0.009 34.4952,-0.022 51.742801,0.016 2.8922,0.20191 3.1683,3.63109 2.9111,5.86643 -0.01,14.33444 0.022,28.66891 -0.016,43.00332 -0.12,1.60576 -1.6203,2.95297 -3.2277,2.91176 z"
       id="rect7036"
       inkscape:connector-curvature="0" />
    <path
       inkscape:connector-curvature="0"
       style="fill:none;stroke:#0000ff;stroke-width:0.35433102;stroke-miterlimit:4;stroke-dasharray:none;stroke-opacity:1"
       d="m 35.103929,43.327086 0,34.54688 10.63081,0 0,34.546874 -10.63081,0 0,21.26172 10.63081,0 0,21.25977 -10.63081,0 0,21.25976 10.63081,0 0,34.54688 -10.63081,0 0,34.46679 0,0.0801 0,89.7461 339.578111,-89.7461 0.5762,0 0,-34.54687 -10.6309,0 0,-34.54688 10.6309,0 0,-21.25976 -10.6309,0 0,-21.25977 10.6309,0 0,-21.26172 -10.6309,0 0,-34.546874 10.6309,0 0,-34.54688 -26.5762,0 0,10.63086 -26.5742,0 0,-10.63086 -21.2598,0 0,10.63086 -21.2598,0 0,-10.63086 -21.2597,0 0,10.63086 -21.2598,0 0,-10.63086 -21.2598,0 0,10.63086 -21.2597,0 0,-10.63086 -21.2598,0 0,10.63086 -21.2597,0 0,-10.63086 -21.2598,0 0,10.63086 -21.2598,0 0,-10.63086 -21.259701,0 0,10.63086 -26.5762,0 0,-10.63086 -26.57421,0 z m 26.57421,191.337894 26.5762,0 0,10.55078 -26.5762,0 0,-10.55078 z m 47.835901,0 21.2598,0 0,10.55078 -21.2598,0 0,-10.55078 z m 42.5196,0 21.2597,0 0,10.55078 -21.2597,0 0,-10.55078 z m 42.5195,0 21.2597,0 0,10.55078 -21.2597,0 0,-10.55078 z m 42.5195,0 21.2598,0 0,10.55078 -21.2598,0 0,-10.55078 z m 42.5195,0 21.2598,0 0,10.55078 -21.2598,0 0,-10.55078 z m 42.5196,0 26.5742,0 0,10.55078 -26.5742,0 0,-10.55078 z"
       id="polygon7668" />
    <path
       id="path4350"
       d="m 376.32464,552.82671 0,-34.5469 -10.6308,0 0,-34.5468 10.6308,0 0,-21.2617 -10.6308,0 0,-21.2598 10.6308,0 0,-21.2598 -10.6308,0 0,-34.5469 10.6308,0 0,-34.46671 0,-0.08 0,-89.7461 -339.578111,89.7461 -0.5762,0 0,34.54681 10.63091,0 0,34.5469 -10.63091,0 0,21.2598 10.63091,0 0,21.2598 -10.63091,0 0,21.2617 10.63091,0 0,34.5468 -10.63091,0 0,34.5469 26.57621,0 0,-10.6308 26.5742,0 0,10.6308 21.259801,0 0,-10.6308 21.2598,0 0,10.6308 21.2597,0 0,-10.6308 21.2598,0 0,10.6308 21.2598,0 0,-10.6308 21.2597,0 0,10.6308 21.2598,0 0,-10.6308 21.2597,0 0,10.6308 21.2598,0 0,-10.6308 21.2598,0 0,10.6308 21.2597,0 0,-10.6308 26.5762,0 0,10.6308 26.5742,0 z m -26.5742,-191.3379 -26.5762,0 0,-10.55071 26.5762,0 0,10.55071 z m -47.8359,0 -21.2598,0 0,-10.55071 21.2598,0 0,10.55071 z m -42.5196,0 -21.2597,0 0,-10.55071 21.2597,0 0,10.55071 z m -42.5195,0 -21.2597,0 0,-10.55071 21.2597,0 0,10.55071 z m -42.5195,0 -21.2598,0 0,-10.55071 21.2598,0 0,10.55071 z m -42.5195,0 -21.2598,0 0,-10.55071 21.2598,0 0,10.55071 z m -42.519601,0 -26.5742,0 0,-10.55071 26.5742,0 0,10.55071 z"
       style="fill:none;stroke:#0000ff;stroke-width:0.35433102;stroke-miterlimit:4;stroke-dasharray:none;stroke-opacity:1"
       inkscape:connector-curvature="0" />
  </g>
</svg>
