  0
SECTION
  2
HEADER
  9
$ACADVER
  1
AC1014
  9
$HANDSEED
  5
FFFF
  9
$MEASUREMENT
 70
     1
  0
ENDSEC
  0
SECTION
  2
TABLES
  0
TABLE
  2
VPORT
  5
8
330
0
100
AcDbSymbolTable
 70
     4
  0
VPORT
  5
2E
330
8
100
AcDbSymbolTableRecord
100
AcDbViewportTableRecord
  2
*ACTIVE
 70
     0
 10
0.0
 20
0.0
 11
1.0
 21
1.0
 12
210.0
 22
148.5
 13
0.0
 23
0.0
 14
10.0
 24
10.0
 15
10.0
 25
10.0
 16
0.0
 26
0.0
 36
1.0
 17
0.0
 27
0.0
 37
0.0
 40
341.0
 41
1.24
 42
50.0
 43
0.0
 44
0.0
 50
0.0
 51
0.0
 71
     0
 72
   100
 73
     1
 74
     3
 75
     0
 76
     0
 77
     0
 78
     0
  0
ENDTAB
  0
TABLE
  2
LTYPE
  5
5
330
0
100
AcDbSymbolTable
 70
     1
  0
LTYPE
  5
14
330
5
100
AcDbSymbolTableRecord
100
AcDbLinetypeTableRecord
  2
BYBLOCK
 70
     0
  3

 72
    65
 73
     0
 40
0.0
  0
LTYPE
  5
15
330
5
100
AcDbSymbolTableRecord
100
AcDbLinetypeTableRecord
  2
BYLAYER
 70
     0
  3

 72
    65
 73
     0
 40
0.0
  0
LTYPE
  5
16
330
5
100
AcDbSymbolTableRecord
100
AcDbLinetypeTableRecord
  2
CONTINUOUS
 70
     0
  3
Solid line
 72
    65
 73
     0
 40
0.0
  0
ENDTAB
  0
TABLE
  2
LAYER
  5
2
100
AcDbSymbolTable
 70
2
  0
LAYER
  5
50
100
AcDbSymbolTableRecord
100
AcDbLayerTableRecord
  2
0
 70
0
  6
CONTINUOUS
  0
LAYER
  5
51
100
AcDbSymbolTableRecord
100
AcDbLayerTableRecord
  2
Capa_1
 70
0
  6
CONTINUOUS
  0
ENDTAB
  0
TABLE
  2
STYLE
  5
3
330
0
100
AcDbSymbolTable
 70
     1
  0
STYLE
  5
11
330
3
100
AcDbSymbolTableRecord
100
AcDbTextStyleTableRecord
  2
STANDARD
 70
     0
 40
0.0
 41
1.0
 50
0.0
 71
     0
 42
2.5
  3
txt
  4

  0
ENDTAB
  0
TABLE
  2
VIEW
  5
6
330
0
100
AcDbSymbolTable
 70
     0
  0
ENDTAB
  0
TABLE
  2
UCS
  5
7
330
0
100
AcDbSymbolTable
 70
     0
  0
ENDTAB
  0
TABLE
  2
APPID
  5
9
330
0
100
AcDbSymbolTable
 70
     2
  0
APPID
  5
12
330
9
100
AcDbSymbolTableRecord
100
AcDbRegAppTableRecord
  2
ACAD
 70
     0
  0
ENDTAB
  0
TABLE
  2
DIMSTYLE
  5
A
330
0
100
AcDbSymbolTable
 70
     1
  0
DIMSTYLE
105
27
330
A
100
AcDbSymbolTableRecord
100
AcDbDimStyleTableRecord
  2
ISO-25
 70
     0
  3

  4

  5

  6

  7

 40
1.0
 41
2.5
 42
0.625
 43
3.75
 44
1.25
 45
0.0
 46
0.0
 47
0.0
 48
0.0
140
2.5
141
2.5
142
0.0
143
0.03937007874016
144
1.0
145
0.0
146
1.0
147
0.625
 71
     0
 72
     0
 73
     0
 74
     0
 75
     0
 76
     0
 77
     1
 78
     8
170
     0
171
     3
172
     1
173
     0
174
     0
175
     0
176
     0
177
     0
178
     0
270
     2
271
     2
272
     2
273
     2
274
     3
340
11
275
     0
280
     0
281
     0
282
     0
283
     0
284
     8
285
     0
286
     0
287
     3
288
     0
  0
ENDTAB
  0
TABLE
  2
BLOCK_RECORD
  5
1
330
0
100
AcDbSymbolTable
 70
     1
  0
BLOCK_RECORD
  5
1F
330
1
100
AcDbSymbolTableRecord
100
AcDbBlockTableRecord
  2
*MODEL_SPACE
  0
BLOCK_RECORD
  5
1B
330
1
100
AcDbSymbolTableRecord
100
AcDbBlockTableRecord
  2
*PAPER_SPACE
  0
ENDTAB
  0
ENDSEC
  0
SECTION
  2
BLOCKS
  0
BLOCK
  5
20
330
1F
100
AcDbEntity
  8
0
100
AcDbBlockBegin
  2
*MODEL_SPACE
 70
     0
 10
0.0
 20
0.0
 30
0.0
  3
*MODEL_SPACE
  1

  0
ENDBLK
  5
21
330
1F
100
AcDbEntity
  8
0
100
AcDbBlockEnd
  0
BLOCK
  5
1C
330
1B
100
AcDbEntity
 67
     1
  8
0
100
AcDbBlockBegin
  2
*PAPER_SPACE
  1

  0
ENDBLK
  5
1D
330
1B
100
AcDbEntity
 67
     1
  8
0
100
AcDbBlockEnd
  0
ENDSEC
  0
SECTION
  2
ENTITIES
  0
SPLINE
  5
100
100
AcDbEntity
  8
Capa_1
 62
5
100
AcDbSpline
 70
8
 71
3
 72
8
 73
4
 74
0
 40
0
 40
0
 40
0
 40
0
 40
1
 40
1
 40
1
 40
1
 10
56.264634
 20
97.202509
 30
0.0
 10
51.808261
 20
97.207053
 30
0.0
 10
47.351887
 20
97.193450
 30
0.0
 10
42.895542
 20
97.209311
 30
0.0
  0
SPLINE
  5
101
100
AcDbEntity
  8
Capa_1
 62
5
100
AcDbSpline
 70
8
 71
3
 72
8
 73
4
 74
0
 40
0
 40
0
 40
0
 40
0
 40
1
 40
1
 40
1
 40
1
 10
42.895542
 20
97.209311
 30
0.0
 10
41.930963
 20
97.268329
 30
0.0
 10
41.558345
 20
98.353683
 30
0.0
 10
41.707697
 20
99.178672
 30
0.0
  0
SPLINE
  5
102
100
AcDbEntity
  8
Capa_1
 62
5
100
AcDbSpline
 70
8
 71
3
 72
8
 73
4
 74
0
 40
0
 40
0
 40
0
 40
0
 40
1
 40
1
 40
1
 40
1
 10
41.707697
 20
99.178672
 30
0.0
 10
41.711366
 20
103.718679
 30
0.0
 10
41.698666
 20
108.258706
 30
0.0
 10
41.714188
 20
112.798702
 30
0.0
  0
SPLINE
  5
103
100
AcDbEntity
  8
Capa_1
 62
5
100
AcDbSpline
 70
8
 71
3
 72
8
 73
4
 74
0
 40
0
 40
0
 40
0
 40
0
 40
1
 40
1
 40
1
 40
1
 10
41.714188
 20
112.798702
 30
0.0
 10
41.771902
 20
113.752035
 30
0.0
 10
42.842540
 20
114.135781
 30
0.0
 10
43.662424
 20
113.986502
 30
0.0
  0
SPLINE
  5
104
100
AcDbEntity
  8
Capa_1
 62
5
100
AcDbSpline
 70
8
 71
3
 72
8
 73
4
 74
0
 40
0
 40
0
 40
0
 40
0
 40
1
 40
1
 40
1
 40
1
 10
43.662424
 20
113.986502
 30
0.0
 10
47.908401
 20
113.982861
 30
0.0
 10
52.154378
 20
113.995477
 30
0.0
 10
56.400327
 20
113.979983
 30
0.0
  0
SPLINE
  5
105
100
AcDbEntity
  8
Capa_1
 62
5
100
AcDbSpline
 70
8
 71
3
 72
8
 73
4
 74
0
 40
0
 40
0
 40
0
 40
0
 40
1
 40
1
 40
1
 40
1
 10
56.400327
 20
113.979983
 30
0.0
 10
57.364906
 20
113.920964
 30
0.0
 10
57.737524
 20
112.835611
 30
0.0
 10
57.588172
 20
112.010622
 30
0.0
  0
SPLINE
  5
106
100
AcDbEntity
  8
Capa_1
 62
5
100
AcDbSpline
 70
8
 71
3
 72
8
 73
4
 74
0
 40
0
 40
0
 40
0
 40
0
 40
1
 40
1
 40
1
 40
1
 10
57.588172
 20
112.010622
 30
0.0
 10
57.573778
 20
107.430257
 30
0.0
 10
57.618567
 20
102.846971
 30
0.0
 10
57.565312
 20
98.268435
 30
0.0
  0
SPLINE
  5
107
100
AcDbEntity
  8
Capa_1
 62
5
100
AcDbSpline
 70
8
 71
3
 72
8
 73
4
 74
0
 40
0
 40
0
 40
0
 40
0
 40
1
 40
1
 40
1
 40
1
 10
57.565312
 20
98.268435
 30
0.0
 10
57.455189
 20
97.666593
 30
0.0
 10
56.878891
 20
97.186713
 30
0.0
 10
56.264634
 20
97.202501
 30
0.0
  0
SPLINE
  5
108
100
AcDbEntity
  8
Capa_1
 62
5
100
AcDbSpline
 70
8
 71
3
 72
8
 73
4
 74
0
 40
0
 40
0
 40
0
 40
0
 40
1
 40
1
 40
1
 40
1
 10
38.799961
 20
97.270412
 30
0.0
 10
34.268799
 20
97.275210
 30
0.0
 10
29.737608
 20
97.260845
 30
0.0
 10
25.206474
 20
97.277581
 30
0.0
  0
SPLINE
  5
109
100
AcDbEntity
  8
Capa_1
 62
5
100
AcDbSpline
 70
8
 71
3
 72
8
 73
4
 74
0
 40
0
 40
0
 40
0
 40
0
 40
1
 40
1
 40
1
 40
1
 10
25.206474
 20
97.277581
 30
0.0
 10
24.207830
 20
97.338106
 30
0.0
 10
23.796746
 20
98.456874
 30
0.0
 10
23.954113
 20
99.318750
 30
0.0
  0
SPLINE
  5
10a
100
AcDbEntity
  8
Capa_1
 62
5
100
AcDbSpline
 70
8
 71
3
 72
8
 73
4
 74
0
 40
0
 40
0
 40
0
 40
0
 40
1
 40
1
 40
1
 40
1
 10
23.954113
 20
99.318750
 30
0.0
 10
23.958064
 20
103.813167
 30
0.0
 10
23.944517
 20
108.307604
 30
0.0
 10
23.960886
 20
112.802010
 30
0.0
  0
SPLINE
  5
10b
100
AcDbEntity
  8
Capa_1
 62
5
100
AcDbSpline
 70
8
 71
3
 72
8
 73
4
 74
0
 40
0
 40
0
 40
0
 40
0
 40
1
 40
1
 40
1
 40
1
 10
23.960886
 20
112.802010
 30
0.0
 10
24.020632
 20
113.793891
 30
0.0
 10
25.130556
 20
114.211571
 30
0.0
 10
25.989358
 20
114.054385
 30
0.0
  0
SPLINE
  5
10c
100
AcDbEntity
  8
Capa_1
 62
5
100
AcDbSpline
 70
8
 71
3
 72
8
 73
4
 74
0
 40
0
 40
0
 40
0
 40
0
 40
1
 40
1
 40
1
 40
1
 10
25.989358
 20
114.054385
 30
0.0
 10
30.307217
 20
114.050547
 30
0.0
 10
34.625132
 20
114.063868
 30
0.0
 10
38.942991
 20
114.047527
 30
0.0
  0
SPLINE
  5
10d
100
AcDbEntity
  8
Capa_1
 62
5
100
AcDbSpline
 70
8
 71
3
 72
8
 73
4
 74
0
 40
0
 40
0
 40
0
 40
0
 40
1
 40
1
 40
1
 40
1
 10
38.942991
 20
114.047527
 30
0.0
 10
39.941635
 20
113.987010
 30
0.0
 10
40.352748
 20
112.868242
 30
0.0
 10
40.195381
 20
112.006358
 30
0.0
  0
SPLINE
  5
10e
100
AcDbEntity
  8
Capa_1
 62
5
100
AcDbSpline
 70
8
 71
3
 72
8
 73
4
 74
0
 40
0
 40
0
 40
0
 40
0
 40
1
 40
1
 40
1
 40
1
 10
40.195381
 20
112.006358
 30
0.0
 10
40.180423
 20
107.469390
 30
0.0
 10
40.227498
 20
102.929340
 30
0.0
 10
40.171392
 20
98.394300
 30
0.0
  0
SPLINE
  5
10f
100
AcDbEntity
  8
Capa_1
 62
5
100
AcDbSpline
 70
8
 71
3
 72
8
 73
4
 74
0
 40
0
 40
0
 40
0
 40
0
 40
1
 40
1
 40
1
 40
1
 10
40.171392
 20
98.394300
 30
0.0
 10
40.055257
 20
97.759749
 30
0.0
 10
39.447633
 20
97.253769
 30
0.0
 10
38.799989
 20
97.270415
 30
0.0
  0
LWPOLYLINE
  5
110
100
AcDbEntity
  8
Capa_1
 62
5
100
AcDbPolyline
 90
2
 70
1
 10
56.264634
 20
97.202501
 30
0.0
 10
56.264634
 20
97.202509
 30
0.0
  0
SPLINE
  5
111
100
AcDbEntity
  8
Capa_1
 62
5
100
AcDbSpline
 70
8
 71
3
 72
8
 73
4
 74
0
 40
0
 40
0
 40
0
 40
0
 40
1
 40
1
 40
1
 40
1
 10
21.345984
 20
96.661066
 30
0.0
 10
16.210358
 20
96.664199
 30
0.0
 10
11.074732
 20
96.654773
 30
0.0
 10
5.939106
 20
96.665779
 30
0.0
  0
SPLINE
  5
112
100
AcDbEntity
  8
Capa_1
 62
5
100
AcDbSpline
 70
8
 71
3
 72
8
 73
4
 74
0
 40
0
 40
0
 40
0
 40
0
 40
1
 40
1
 40
1
 40
1
 10
5.939106
 20
96.665779
 30
0.0
 10
5.122863
 20
96.722763
 30
0.0
 10
5.044941
 20
97.690554
 30
0.0
 10
5.117529
 20
98.321416
 30
0.0
  0
SPLINE
  5
113
100
AcDbEntity
  8
Capa_1
 62
5
100
AcDbSpline
 70
8
 71
3
 72
8
 73
4
 74
0
 40
0
 40
0
 40
0
 40
0
 40
1
 40
1
 40
1
 40
1
 10
5.117529
 20
98.321416
 30
0.0
 10
5.120351
 20
102.366914
 30
0.0
 10
5.111320
 20
106.412420
 30
0.0
 10
5.122044
 20
110.457909
 30
0.0
  0
SPLINE
  5
114
100
AcDbEntity
  8
Capa_1
 62
5
100
AcDbSpline
 70
8
 71
3
 72
8
 73
4
 74
0
 40
0
 40
0
 40
0
 40
0
 40
1
 40
1
 40
1
 40
1
 10
5.122044
 20
110.457909
 30
0.0
 10
5.185629
 20
111.302843
 30
0.0
 10
6.193106
 20
111.345681
 30
0.0
 10
6.836883
 20
111.279472
 30
0.0
  0
SPLINE
  5
115
100
AcDbEntity
  8
Capa_1
 62
5
100
AcDbSpline
 70
8
 71
3
 72
8
 73
4
 74
0
 40
0
 40
0
 40
0
 40
0
 40
1
 40
1
 40
1
 40
1
 10
6.836883
 20
111.279472
 30
0.0
 10
11.704539
 20
111.276932
 30
0.0
 10
16.572195
 20
111.285681
 30
0.0
 10
21.439851
 20
111.274956
 30
0.0
  0
SPLINE
  5
116
100
AcDbEntity
  8
Capa_1
 62
5
100
AcDbSpline
 70
8
 71
3
 72
8
 73
4
 74
0
 40
0
 40
0
 40
0
 40
0
 40
1
 40
1
 40
1
 40
1
 10
21.439851
 20
111.274956
 30
0.0
 10
22.256094
 20
111.217973
 30
0.0
 10
22.334016
 20
110.250182
 30
0.0
 10
22.261428
 20
109.619319
 30
0.0
  0
SPLINE
  5
117
100
AcDbEntity
  8
Capa_1
 62
5
100
AcDbSpline
 70
8
 71
3
 72
8
 73
4
 74
0
 40
0
 40
0
 40
0
 40
0
 40
1
 40
1
 40
1
 40
1
 10
22.261428
 20
109.619319
 30
0.0
 10
22.258606
 20
105.573822
 30
0.0
 10
22.267637
 20
101.528316
 30
0.0
 10
22.256913
 20
97.482827
 30
0.0
  0
SPLINE
  5
118
100
AcDbEntity
  8
Capa_1
 62
5
100
AcDbSpline
 70
8
 71
3
 72
8
 73
4
 74
0
 40
0
 40
0
 40
0
 40
0
 40
1
 40
1
 40
1
 40
1
 10
22.256913
 20
97.482827
 30
0.0
 10
22.223046
 20
97.029646
 30
0.0
 10
21.799628
 20
96.649433
 30
0.0
 10
21.345984
 20
96.661063
 30
0.0
  0
LWPOLYLINE
  5
119
100
AcDbEntity
  8
Capa_1
 62
5
100
AcDbPolyline
 90
2
 70
1
 10
38.799989
 20
97.270415
 30
0.0
 10
38.799961
 20
97.270412
 30
0.0
  0
LWPOLYLINE
  5
11a
100
AcDbEntity
  8
Capa_1
 62
5
100
AcDbPolyline
 90
2
 70
1
 10
21.345984
 20
96.661063
 30
0.0
 10
21.345984
 20
96.661066
 30
0.0
  0
LWPOLYLINE
  5
11b
100
AcDbEntity
  8
Capa_1
 62
5
100
AcDbPolyline
 90
61
 70
1
 10
0.050000
 20
143.842143
 30
0.0
 10
0.050000
 20
134.092246
 30
0.0
 10
3.050251
 20
134.092246
 30
0.0
 10
3.050251
 20
124.342350
 30
0.0
 10
0.050000
 20
124.342350
 30
0.0
 10
0.050000
 20
118.341820
 30
0.0
 10
3.050251
 20
118.341820
 30
0.0
 10
3.050251
 20
112.341841
 30
0.0
 10
0.050000
 20
112.341841
 30
0.0
 10
0.050000
 20
106.341864
 30
0.0
 10
3.050251
 20
106.341864
 30
0.0
 10
3.050251
 20
96.591967
 30
0.0
 10
0.050000
 20
96.591967
 30
0.0
 10
0.050000
 20
86.864673
 30
0.0
 10
0.050000
 20
86.842067
 30
0.0
 10
0.050000
 20
61.513723
 30
0.0
 10
95.886489
 20
86.842067
 30
0.0
 10
96.049106
 20
86.842067
 30
0.0
 10
96.049106
 20
96.591961
 30
0.0
 10
93.048830
 20
96.591961
 30
0.0
 10
93.048830
 20
106.341858
 30
0.0
 10
96.049106
 20
106.341858
 30
0.0
 10
96.049106
 20
112.341835
 30
0.0
 10
93.048830
 20
112.341835
 30
0.0
 10
93.048830
 20
118.341815
 30
0.0
 10
96.049106
 20
118.341815
 30
0.0
 10
96.049106
 20
124.342345
 30
0.0
 10
93.048830
 20
124.342345
 30
0.0
 10
93.048830
 20
134.092240
 30
0.0
 10
96.049106
 20
134.092240
 30
0.0
 10
96.049106
 20
143.842137
 30
0.0
 10
88.548712
 20
143.842137
 30
0.0
 10
88.548712
 20
140.841872
 30
0.0
 10
81.048882
 20
140.841872
 30
0.0
 10
81.048882
 20
143.842137
 30
0.0
 10
75.048894
 20
143.842137
 30
0.0
 10
75.048894
 20
140.841872
 30
0.0
 10
69.048906
 20
140.841872
 30
0.0
 10
69.048906
 20
143.842137
 30
0.0
 10
63.048946
 20
143.842137
 30
0.0
 10
63.048946
 20
140.841872
 30
0.0
 10
57.048958
 20
140.841872
 30
0.0
 10
57.048958
 20
143.842137
 30
0.0
 10
51.048970
 20
143.842137
 30
0.0
 10
51.048970
 20
140.841872
 30
0.0
 10
45.049010
 20
140.841872
 30
0.0
 10
45.049010
 20
143.842137
 30
0.0
 10
39.049022
 20
143.842137
 30
0.0
 10
39.049022
 20
140.841872
 30
0.0
 10
33.049062
 20
140.841872
 30
0.0
 10
33.049062
 20
143.842137
 30
0.0
 10
27.049074
 20
143.842137
 30
0.0
 10
27.049074
 20
140.841872
 30
0.0
 10
21.049086
 20
140.841872
 30
0.0
 10
21.049086
 20
143.842137
 30
0.0
 10
15.049126
 20
143.842137
 30
0.0
 10
15.049126
 20
140.841872
 30
0.0
 10
7.548732
 20
140.841872
 30
0.0
 10
7.548732
 20
143.842137
 30
0.0
 10
0.048900
 20
143.842137
 30
0.0
 10
0.050000
 20
143.842143
 30
0.0
  0
LWPOLYLINE
  5
11c
100
AcDbEntity
  8
Capa_1
 62
5
100
AcDbPolyline
 90
6
 70
1
 10
7.549833
 20
89.842337
 30
0.0
 10
15.050227
 20
89.842337
 30
0.0
 10
15.050227
 20
86.864673
 30
0.0
 10
7.549833
 20
86.864673
 30
0.0
 10
7.549833
 20
89.842337
 30
0.0
 10
7.549833
 20
89.842337
 30
0.0
  0
LWPOLYLINE
  5
11d
100
AcDbEntity
  8
Capa_1
 62
5
100
AcDbPolyline
 90
6
 70
1
 10
21.050187
 20
89.842337
 30
0.0
 10
27.050175
 20
89.842337
 30
0.0
 10
27.050175
 20
86.864673
 30
0.0
 10
21.050187
 20
86.864673
 30
0.0
 10
21.050187
 20
89.842337
 30
0.0
 10
21.050187
 20
89.842337
 30
0.0
  0
LWPOLYLINE
  5
11e
100
AcDbEntity
  8
Capa_1
 62
5
100
AcDbPolyline
 90
6
 70
1
 10
33.050163
 20
89.842337
 30
0.0
 10
39.050123
 20
89.842337
 30
0.0
 10
39.050123
 20
86.864673
 30
0.0
 10
33.050163
 20
86.864673
 30
0.0
 10
33.050163
 20
89.842337
 30
0.0
 10
33.050163
 20
89.842337
 30
0.0
  0
LWPOLYLINE
  5
11f
100
AcDbEntity
  8
Capa_1
 62
5
100
AcDbPolyline
 90
6
 70
1
 10
45.050111
 20
89.842337
 30
0.0
 10
51.050071
 20
89.842337
 30
0.0
 10
51.050071
 20
86.864673
 30
0.0
 10
45.050111
 20
86.864673
 30
0.0
 10
45.050111
 20
89.842337
 30
0.0
 10
45.050111
 20
89.842337
 30
0.0
  0
LWPOLYLINE
  5
120
100
AcDbEntity
  8
Capa_1
 62
5
100
AcDbPolyline
 90
6
 70
1
 10
57.050059
 20
89.842337
 30
0.0
 10
63.050047
 20
89.842337
 30
0.0
 10
63.050047
 20
86.864673
 30
0.0
 10
57.050059
 20
86.864673
 30
0.0
 10
57.050059
 20
89.842337
 30
0.0
 10
57.050059
 20
89.842337
 30
0.0
  0
LWPOLYLINE
  5
121
100
AcDbEntity
  8
Capa_1
 62
5
100
AcDbPolyline
 90
6
 70
1
 10
69.050006
 20
89.842337
 30
0.0
 10
75.049994
 20
89.842337
 30
0.0
 10
75.049994
 20
86.864673
 30
0.0
 10
69.050006
 20
86.864673
 30
0.0
 10
69.050006
 20
89.842337
 30
0.0
 10
69.050006
 20
89.842337
 30
0.0
  0
LWPOLYLINE
  5
122
100
AcDbEntity
  8
Capa_1
 62
5
100
AcDbPolyline
 90
6
 70
1
 10
81.049982
 20
89.842337
 30
0.0
 10
88.549812
 20
89.842337
 30
0.0
 10
88.549812
 20
86.864673
 30
0.0
 10
81.049982
 20
86.864673
 30
0.0
 10
81.049982
 20
89.842337
 30
0.0
 10
81.049982
 20
89.842337
 30
0.0
  0
LWPOLYLINE
  5
123
100
AcDbEntity
  8
Capa_1
 62
5
100
AcDbPolyline
 90
61
 70
1
 10
96.350068
 20
0.050027
 30
0.0
 10
96.350068
 20
9.799930
 30
0.0
 10
93.349820
 20
9.799930
 30
0.0
 10
93.349820
 20
19.549804
 30
0.0
 10
96.350068
 20
19.549804
 30
0.0
 10
96.350068
 20
25.550329
 30
0.0
 10
93.349820
 20
25.550329
 30
0.0
 10
93.349820
 20
31.550317
 30
0.0
 10
96.350068
 20
31.550317
 30
0.0
 10
96.350068
 20
37.550305
 30
0.0
 10
93.349820
 20
37.550305
 30
0.0
 10
93.349820
 20
47.300208
 30
0.0
 10
96.350068
 20
47.300208
 30
0.0
 10
96.350068
 20
57.027479
 30
0.0
 10
96.350068
 20
57.050057
 30
0.0
 10
96.350068
 20
82.378401
 30
0.0
 10
0.513578
 20
57.050057
 30
0.0
 10
0.350962
 20
57.050057
 30
0.0
 10
0.350962
 20
47.300179
 30
0.0
 10
3.351241
 20
47.300179
 30
0.0
 10
3.351241
 20
37.550276
 30
0.0
 10
0.350962
 20
37.550276
 30
0.0
 10
0.350962
 20
31.550288
 30
0.0
 10
3.351241
 20
31.550288
 30
0.0
 10
3.351241
 20
25.550300
 30
0.0
 10
0.350962
 20
25.550300
 30
0.0
 10
0.350962
 20
19.549776
 30
0.0
 10
3.351241
 20
19.549776
 30
0.0
 10
3.351241
 20
9.799902
 30
0.0
 10
0.350962
 20
9.799902
 30
0.0
 10
0.350962
 20
0.049999
 30
0.0
 10
7.851359
 20
0.049999
 30
0.0
 10
7.851359
 20
3.050247
 30
0.0
 10
15.351189
 20
3.050247
 30
0.0
 10
15.351189
 20
0.049999
 30
0.0
 10
21.351177
 20
0.049999
 30
0.0
 10
21.351177
 20
3.050247
 30
0.0
 10
27.351165
 20
3.050247
 30
0.0
 10
27.351165
 20
0.049999
 30
0.0
 10
33.351125
 20
0.049999
 30
0.0
 10
33.351125
 20
3.050247
 30
0.0
 10
39.351113
 20
3.050247
 30
0.0
 10
39.351113
 20
0.049999
 30
0.0
 10
45.351101
 20
0.049999
 30
0.0
 10
45.351101
 20
3.050247
 30
0.0
 10
51.351061
 20
3.050247
 30
0.0
 10
51.351061
 20
0.049999
 30
0.0
 10
57.351049
 20
0.049999
 30
0.0
 10
57.351049
 20
3.050247
 30
0.0
 10
63.351008
 20
3.050247
 30
0.0
 10
63.351008
 20
0.049999
 30
0.0
 10
69.350996
 20
0.049999
 30
0.0
 10
69.350996
 20
3.050247
 30
0.0
 10
75.350984
 20
3.050247
 30
0.0
 10
75.350984
 20
0.049999
 30
0.0
 10
81.350944
 20
0.049999
 30
0.0
 10
81.350944
 20
3.050247
 30
0.0
 10
88.851338
 20
3.050247
 30
0.0
 10
88.851338
 20
0.049999
 30
0.0
 10
96.351168
 20
0.049999
 30
0.0
 10
96.350068
 20
0.050027
 30
0.0
  0
LWPOLYLINE
  5
124
100
AcDbEntity
  8
Capa_1
 62
5
100
AcDbPolyline
 90
6
 70
1
 10
88.850238
 20
54.049834
 30
0.0
 10
81.349844
 20
54.049834
 30
0.0
 10
81.349844
 20
57.027479
 30
0.0
 10
88.850238
 20
57.027479
 30
0.0
 10
88.850238
 20
54.049834
 30
0.0
 10
88.850238
 20
54.049834
 30
0.0
  0
LWPOLYLINE
  5
125
100
AcDbEntity
  8
Capa_1
 62
5
100
AcDbPolyline
 90
6
 70
1
 10
75.349884
 20
54.049834
 30
0.0
 10
69.349896
 20
54.049834
 30
0.0
 10
69.349896
 20
57.027479
 30
0.0
 10
75.349884
 20
57.027479
 30
0.0
 10
75.349884
 20
54.049834
 30
0.0
 10
75.349884
 20
54.049834
 30
0.0
  0
LWPOLYLINE
  5
126
100
AcDbEntity
  8
Capa_1
 62
5
100
AcDbPolyline
 90
6
 70
1
 10
63.349908
 20
54.049834
 30
0.0
 10
57.349948
 20
54.049834
 30
0.0
 10
57.349948
 20
57.027479
 30
0.0
 10
63.349908
 20
57.027479
 30
0.0
 10
63.349908
 20
54.049834
 30
0.0
 10
63.349908
 20
54.049834
 30
0.0
  0
LWPOLYLINE
  5
127
100
AcDbEntity
  8
Capa_1
 62
5
100
AcDbPolyline
 90
6
 70
1
 10
51.349960
 20
54.049834
 30
0.0
 10
45.350000
 20
54.049834
 30
0.0
 10
45.350000
 20
57.027479
 30
0.0
 10
51.349960
 20
57.027479
 30
0.0
 10
51.349960
 20
54.049834
 30
0.0
 10
51.349960
 20
54.049834
 30
0.0
  0
LWPOLYLINE
  5
128
100
AcDbEntity
  8
Capa_1
 62
5
100
AcDbPolyline
 90
6
 70
1
 10
39.350012
 20
54.049834
 30
0.0
 10
33.350024
 20
54.049834
 30
0.0
 10
33.350024
 20
57.027479
 30
0.0
 10
39.350012
 20
57.027479
 30
0.0
 10
39.350012
 20
54.049834
 30
0.0
 10
39.350012
 20
54.049834
 30
0.0
  0
LWPOLYLINE
  5
129
100
AcDbEntity
  8
Capa_1
 62
5
100
AcDbPolyline
 90
6
 70
1
 10
27.350064
 20
54.049834
 30
0.0
 10
21.350076
 20
54.049834
 30
0.0
 10
21.350076
 20
57.027479
 30
0.0
 10
27.350064
 20
57.027479
 30
0.0
 10
27.350064
 20
54.049834
 30
0.0
 10
27.350064
 20
54.049834
 30
0.0
  0
LWPOLYLINE
  5
12a
100
AcDbEntity
  8
Capa_1
 62
5
100
AcDbPolyline
 90
6
 70
1
 10
15.350088
 20
54.049834
 30
0.0
 10
7.850258
 20
54.049834
 30
0.0
 10
7.850258
 20
57.027479
 30
0.0
 10
15.350088
 20
57.027479
 30
0.0
 10
15.350088
 20
54.049834
 30
0.0
 10
15.350088
 20
54.049834
 30
0.0
  0
ENDSEC
  0
SECTION
  2
OBJECTS
  0
DICTIONARY
  5
C
330
0
100
AcDbDictionary
  3
ACAD_GROUP
350
D
  3
ACAD_MLINESTYLE
350
17
  0
DICTIONARY
  5
D
330
C
100
AcDbDictionary
  0
DICTIONARY
  5
1A
330
C
100
AcDbDictionary
  0
DICTIONARY
  5
17
330
C
100
AcDbDictionary
  3
STANDARD
350
18
  0
DICTIONARY
  5
19
330
C
100
AcDbDictionary
  0
ENDSEC
  0
EOF
