  0
SECTION
  2
HEADER
  9
$ACADVER
  1
AC1014
  9
$HANDSEED
  5
FFFF
  9
$MEASUREMENT
 70
     1
  0
ENDSEC
  0
SECTION
  2
TABLES
  0
TABLE
  2
VPORT
  5
8
330
0
100
AcDbSymbolTable
 70
     4
  0
VPORT
  5
2E
330
8
100
AcDbSymbolTableRecord
100
AcDbViewportTableRecord
  2
*ACTIVE
 70
     0
 10
0.0
 20
0.0
 11
1.0
 21
1.0
 12
210.0
 22
148.5
 13
0.0
 23
0.0
 14
10.0
 24
10.0
 15
10.0
 25
10.0
 16
0.0
 26
0.0
 36
1.0
 17
0.0
 27
0.0
 37
0.0
 40
341.0
 41
1.24
 42
50.0
 43
0.0
 44
0.0
 50
0.0
 51
0.0
 71
     0
 72
   100
 73
     1
 74
     3
 75
     0
 76
     0
 77
     0
 78
     0
  0
ENDTAB
  0
TABLE
  2
LTYPE
  5
5
330
0
100
AcDbSymbolTable
 70
     1
  0
LTYPE
  5
14
330
5
100
AcDbSymbolTableRecord
100
AcDbLinetypeTableRecord
  2
BYBLOCK
 70
     0
  3

 72
    65
 73
     0
 40
0.0
  0
LTYPE
  5
15
330
5
100
AcDbSymbolTableRecord
100
AcDbLinetypeTableRecord
  2
BYLAYER
 70
     0
  3

 72
    65
 73
     0
 40
0.0
  0
LTYPE
  5
16
330
5
100
AcDbSymbolTableRecord
100
AcDbLinetypeTableRecord
  2
CONTINUOUS
 70
     0
  3
Solid line
 72
    65
 73
     0
 40
0.0
  0
ENDTAB
  0
TABLE
  2
LAYER
  5
2
100
AcDbSymbolTable
 70
3
  0
LAYER
  5
50
100
AcDbSymbolTableRecord
100
AcDbLayerTableRecord
  2
0
 70
0
  6
CONTINUOUS
  0
LAYER
  5
51
100
AcDbSymbolTableRecord
100
AcDbLayerTableRecord
  2
Capa_1
 70
0
  6
CONTINUOUS
  0
LAYER
  5
52
100
AcDbSymbolTableRecord
100
AcDbLayerTableRecord
  2
base
 70
0
  6
CONTINUOUS
  0
ENDTAB
  0
TABLE
  2
STYLE
  5
3
330
0
100
AcDbSymbolTable
 70
     1
  0
STYLE
  5
11
330
3
100
AcDbSymbolTableRecord
100
AcDbTextStyleTableRecord
  2
STANDARD
 70
     0
 40
0.0
 41
1.0
 50
0.0
 71
     0
 42
2.5
  3
txt
  4

  0
ENDTAB
  0
TABLE
  2
VIEW
  5
6
330
0
100
AcDbSymbolTable
 70
     0
  0
ENDTAB
  0
TABLE
  2
UCS
  5
7
330
0
100
AcDbSymbolTable
 70
     0
  0
ENDTAB
  0
TABLE
  2
APPID
  5
9
330
0
100
AcDbSymbolTable
 70
     2
  0
APPID
  5
12
330
9
100
AcDbSymbolTableRecord
100
AcDbRegAppTableRecord
  2
ACAD
 70
     0
  0
ENDTAB
  0
TABLE
  2
DIMSTYLE
  5
A
330
0
100
AcDbSymbolTable
 70
     1
  0
DIMSTYLE
105
27
330
A
100
AcDbSymbolTableRecord
100
AcDbDimStyleTableRecord
  2
ISO-25
 70
     0
  3

  4

  5

  6

  7

 40
1.0
 41
2.5
 42
0.625
 43
3.75
 44
1.25
 45
0.0
 46
0.0
 47
0.0
 48
0.0
140
2.5
141
2.5
142
0.0
143
0.03937007874016
144
1.0
145
0.0
146
1.0
147
0.625
 71
     0
 72
     0
 73
     0
 74
     0
 75
     0
 76
     0
 77
     1
 78
     8
170
     0
171
     3
172
     1
173
     0
174
     0
175
     0
176
     0
177
     0
178
     0
270
     2
271
     2
272
     2
273
     2
274
     3
340
11
275
     0
280
     0
281
     0
282
     0
283
     0
284
     8
285
     0
286
     0
287
     3
288
     0
  0
ENDTAB
  0
TABLE
  2
BLOCK_RECORD
  5
1
330
0
100
AcDbSymbolTable
 70
     1
  0
BLOCK_RECORD
  5
1F
330
1
100
AcDbSymbolTableRecord
100
AcDbBlockTableRecord
  2
*MODEL_SPACE
  0
BLOCK_RECORD
  5
1B
330
1
100
AcDbSymbolTableRecord
100
AcDbBlockTableRecord
  2
*PAPER_SPACE
  0
ENDTAB
  0
ENDSEC
  0
SECTION
  2
BLOCKS
  0
BLOCK
  5
20
330
1F
100
AcDbEntity
  8
0
100
AcDbBlockBegin
  2
*MODEL_SPACE
 70
     0
 10
0.0
 20
0.0
 30
0.0
  3
*MODEL_SPACE
  1

  0
ENDBLK
  5
21
330
1F
100
AcDbEntity
  8
0
100
AcDbBlockEnd
  0
BLOCK
  5
1C
330
1B
100
AcDbEntity
 67
     1
  8
0
100
AcDbBlockBegin
  2
*PAPER_SPACE
  1

  0
ENDBLK
  5
1D
330
1B
100
AcDbEntity
 67
     1
  8
0
100
AcDbBlockEnd
  0
ENDSEC
  0
SECTION
  2
ENTITIES
  0
SPLINE
  5
100
100
AcDbEntity
  8
Capa_1
 62
7
100
AcDbSpline
 70
8
 71
3
 72
8
 73
4
 74
0
 40
0
 40
0
 40
0
 40
0
 40
1
 40
1
 40
1
 40
1
 10
140.966616
 20
17.299236
 30
0.0
 10
140.548008
 20
17.295950
 30
0.0
 10
140.130137
 20
17.263487
 30
0.0
 10
139.716044
 20
17.202083
 30
0.0
  0
SPLINE
  5
101
100
AcDbEntity
  8
Capa_1
 62
7
100
AcDbSpline
 70
8
 71
3
 72
8
 73
4
 74
0
 40
0
 40
0
 40
0
 40
0
 40
1
 40
1
 40
1
 40
1
 10
139.716044
 20
17.202083
 30
0.0
 10
139.716044
 20
17.202083
 30
0.0
 10
139.716044
 20
16.250721
 30
0.0
 10
139.716044
 20
16.250721
 30
0.0
  0
SPLINE
  5
102
100
AcDbEntity
  8
Capa_1
 62
7
100
AcDbSpline
 70
8
 71
3
 72
8
 73
4
 74
0
 40
0
 40
0
 40
0
 40
0
 40
1
 40
1
 40
1
 40
1
 10
139.716044
 20
16.250721
 30
0.0
 10
135.796200
 20
15.635350
 30
0.0
 10
132.906823
 20
12.259369
 30
0.0
 10
132.904058
 20
8.291517
 30
0.0
  0
SPLINE
  5
103
100
AcDbEntity
  8
Capa_1
 62
7
100
AcDbSpline
 70
8
 71
3
 72
8
 73
4
 74
0
 40
0
 40
0
 40
0
 40
0
 40
1
 40
1
 40
1
 40
1
 10
132.904058
 20
8.291517
 30
0.0
 10
132.904010
 20
6.153179
 30
0.0
 10
133.753440
 20
4.102408
 30
0.0
 10
135.265473
 20
2.590375
 30
0.0
  0
SPLINE
  5
104
100
AcDbEntity
  8
Capa_1
 62
7
100
AcDbSpline
 70
8
 71
3
 72
8
 73
4
 74
0
 40
0
 40
0
 40
0
 40
0
 40
1
 40
1
 40
1
 40
1
 10
135.265473
 20
2.590375
 30
0.0
 10
136.777507
 20
1.078342
 30
0.0
 10
138.828278
 20
0.228912
 30
0.0
 10
140.966616
 20
0.228961
 30
0.0
  0
SPLINE
  5
105
100
AcDbEntity
  8
Capa_1
 62
7
100
AcDbSpline
 70
8
 71
3
 72
8
 73
4
 74
0
 40
0
 40
0
 40
0
 40
0
 40
1
 40
1
 40
1
 40
1
 10
140.966616
 20
0.228961
 30
0.0
 10
143.104953
 20
0.228913
 30
0.0
 10
145.155724
 20
1.078343
 30
0.0
 10
146.667757
 20
2.590376
 30
0.0
  0
SPLINE
  5
106
100
AcDbEntity
  8
Capa_1
 62
7
100
AcDbSpline
 70
8
 71
3
 72
8
 73
4
 74
0
 40
0
 40
0
 40
0
 40
0
 40
1
 40
1
 40
1
 40
1
 10
146.667757
 20
2.590376
 30
0.0
 10
148.179789
 20
4.102409
 30
0.0
 10
149.029219
 20
6.153180
 30
0.0
 10
149.029171
 20
8.291517
 30
0.0
  0
SPLINE
  5
107
100
AcDbEntity
  8
Capa_1
 62
7
100
AcDbSpline
 70
8
 71
3
 72
8
 73
4
 74
0
 40
0
 40
0
 40
0
 40
0
 40
1
 40
1
 40
1
 40
1
 10
149.029171
 20
8.291517
 30
0.0
 10
149.024118
 20
12.257607
 30
0.0
 10
146.135291
 20
15.630975
 30
0.0
 10
142.217185
 20
16.246070
 30
0.0
  0
SPLINE
  5
108
100
AcDbEntity
  8
Capa_1
 62
7
100
AcDbSpline
 70
8
 71
3
 72
8
 73
4
 74
0
 40
0
 40
0
 40
0
 40
0
 40
1
 40
1
 40
1
 40
1
 10
142.217185
 20
16.246070
 30
0.0
 10
142.217185
 20
16.246070
 30
0.0
 10
142.217185
 20
17.201049
 30
0.0
 10
142.217185
 20
17.201049
 30
0.0
  0
SPLINE
  5
109
100
AcDbEntity
  8
Capa_1
 62
7
100
AcDbSpline
 70
8
 71
3
 72
8
 73
4
 74
0
 40
0
 40
0
 40
0
 40
0
 40
1
 40
1
 40
1
 40
1
 10
142.217185
 20
17.201049
 30
0.0
 10
141.803117
 20
17.262799
 30
0.0
 10
141.385248
 20
17.295609
 30
0.0
 10
140.966616
 20
17.299239
 30
0.0
  0
SPLINE
  5
10a
100
AcDbEntity
  8
Capa_1
 62
7
100
AcDbSpline
 70
8
 71
3
 72
8
 73
4
 74
0
 40
0
 40
0
 40
0
 40
0
 40
1
 40
1
 40
1
 40
1
 10
89.560476
 20
17.336660
 30
0.0
 10
89.174218
 20
17.332849
 30
0.0
 10
88.788605
 20
17.304196
 30
0.0
 10
88.406025
 20
17.250880
 30
0.0
  0
SPLINE
  5
10b
100
AcDbEntity
  8
Capa_1
 62
7
100
AcDbSpline
 70
8
 71
3
 72
8
 73
4
 74
0
 40
0
 40
0
 40
0
 40
0
 40
1
 40
1
 40
1
 40
1
 10
88.406025
 20
17.250880
 30
0.0
 10
88.406025
 20
17.250880
 30
0.0
 10
88.406025
 20
16.300033
 30
0.0
 10
88.406025
 20
16.300033
 30
0.0
  0
SPLINE
  5
10c
100
AcDbEntity
  8
Capa_1
 62
7
100
AcDbSpline
 70
8
 71
3
 72
8
 73
4
 74
0
 40
0
 40
0
 40
0
 40
0
 40
1
 40
1
 40
1
 40
1
 10
88.406025
 20
16.300033
 30
0.0
 10
84.443550
 20
15.726832
 30
0.0
 10
81.502009
 20
12.332662
 30
0.0
 10
81.497922
 20
8.328944
 30
0.0
  0
SPLINE
  5
10d
100
AcDbEntity
  8
Capa_1
 62
7
100
AcDbSpline
 70
8
 71
3
 72
8
 73
4
 74
0
 40
0
 40
0
 40
0
 40
0
 40
1
 40
1
 40
1
 40
1
 10
81.497922
 20
8.328944
 30
0.0
 10
81.497874
 20
6.190607
 30
0.0
 10
82.347305
 20
4.139837
 30
0.0
 10
83.859337
 20
2.627805
 30
0.0
  0
SPLINE
  5
10e
100
AcDbEntity
  8
Capa_1
 62
7
100
AcDbSpline
 70
8
 71
3
 72
8
 73
4
 74
0
 40
0
 40
0
 40
0
 40
0
 40
1
 40
1
 40
1
 40
1
 10
83.859337
 20
2.627805
 30
0.0
 10
85.371370
 20
1.115773
 30
0.0
 10
87.422140
 20
0.266343
 30
0.0
 10
89.560476
 20
0.266391
 30
0.0
  0
SPLINE
  5
10f
100
AcDbEntity
  8
Capa_1
 62
7
100
AcDbSpline
 70
8
 71
3
 72
8
 73
4
 74
0
 40
0
 40
0
 40
0
 40
0
 40
1
 40
1
 40
1
 40
1
 10
89.560476
 20
0.266391
 30
0.0
 10
94.013143
 20
0.266575
 30
0.0
 10
97.622617
 20
3.876278
 30
0.0
 10
97.622518
 20
8.328944
 30
0.0
  0
SPLINE
  5
110
100
AcDbEntity
  8
Capa_1
 62
7
100
AcDbSpline
 70
8
 71
3
 72
8
 73
4
 74
0
 40
0
 40
0
 40
0
 40
0
 40
1
 40
1
 40
1
 40
1
 10
97.622518
 20
8.328944
 30
0.0
 10
97.617443
 20
12.331709
 30
0.0
 10
94.676424
 20
15.724649
 30
0.0
 10
90.714928
 20
16.297967
 30
0.0
  0
LWPOLYLINE
  5
111
100
AcDbEntity
  8
Capa_1
 62
7
100
AcDbPolyline
 90
1
 70
1
 10
140.966616
 20
17.299239
 30
0.0
  0
SPLINE
  5
112
100
AcDbEntity
  8
Capa_1
 62
7
100
AcDbSpline
 70
8
 71
3
 72
8
 73
4
 74
0
 40
0
 40
0
 40
0
 40
0
 40
1
 40
1
 40
1
 40
1
 10
90.714928
 20
17.252943
 30
0.0
 10
90.332303
 20
17.305570
 30
0.0
 10
89.946690
 20
17.333534
 30
0.0
 10
89.560476
 20
17.336663
 30
0.0
  0
LWPOLYLINE
  5
113
100
AcDbEntity
  8
Capa_1
 62
7
100
AcDbPolyline
 90
2
 70
0
 10
90.714928
 20
16.297967
 30
0.0
 10
90.714928
 20
17.252943
 30
0.0
  0
SPLINE
  5
114
100
AcDbEntity
  8
Capa_1
 62
7
100
AcDbSpline
 70
8
 71
3
 72
8
 73
4
 74
0
 40
0
 40
0
 40
0
 40
0
 40
1
 40
1
 40
1
 40
1
 10
115.919073
 20
17.293552
 30
0.0
 10
115.516470
 20
17.289983
 30
0.0
 10
115.114559
 20
17.259426
 30
0.0
 10
114.716044
 20
17.202086
 30
0.0
  0
SPLINE
  5
115
100
AcDbEntity
  8
Capa_1
 62
7
100
AcDbSpline
 70
8
 71
3
 72
8
 73
4
 74
0
 40
0
 40
0
 40
0
 40
0
 40
1
 40
1
 40
1
 40
1
 10
114.716044
 20
17.202086
 30
0.0
 10
114.716044
 20
17.202086
 30
0.0
 10
114.716044
 20
16.250721
 30
0.0
 10
114.716044
 20
16.250721
 30
0.0
  0
SPLINE
  5
116
100
AcDbEntity
  8
Capa_1
 62
7
100
AcDbSpline
 70
8
 71
3
 72
8
 73
4
 74
0
 40
0
 40
0
 40
0
 40
0
 40
1
 40
1
 40
1
 40
1
 10
114.716044
 20
16.250721
 30
0.0
 10
110.775186
 20
15.656122
 30
0.0
 10
107.860101
 20
12.271295
 30
0.0
 10
107.856515
 20
8.285834
 30
0.0
  0
SPLINE
  5
117
100
AcDbEntity
  8
Capa_1
 62
7
100
AcDbSpline
 70
8
 71
3
 72
8
 73
4
 74
0
 40
0
 40
0
 40
0
 40
0
 40
1
 40
1
 40
1
 40
1
 10
107.856515
 20
8.285834
 30
0.0
 10
107.856468
 20
6.147497
 30
0.0
 10
108.705898
 20
4.096726
 30
0.0
 10
110.217931
 20
2.584694
 30
0.0
  0
SPLINE
  5
118
100
AcDbEntity
  8
Capa_1
 62
7
100
AcDbSpline
 70
8
 71
3
 72
8
 73
4
 74
0
 40
0
 40
0
 40
0
 40
0
 40
1
 40
1
 40
1
 40
1
 10
110.217931
 20
2.584694
 30
0.0
 10
111.729965
 20
1.072661
 30
0.0
 10
113.780736
 20
0.223232
 30
0.0
 10
115.919073
 20
0.223281
 30
0.0
  0
SPLINE
  5
119
100
AcDbEntity
  8
Capa_1
 62
7
100
AcDbSpline
 70
8
 71
3
 72
8
 73
4
 74
0
 40
0
 40
0
 40
0
 40
0
 40
1
 40
1
 40
1
 40
1
 10
115.919073
 20
0.223281
 30
0.0
 10
120.371738
 20
0.223466
 30
0.0
 10
123.981211
 20
3.833169
 30
0.0
 10
123.981112
 20
8.285834
 30
0.0
  0
SPLINE
  5
11a
100
AcDbEntity
  8
Capa_1
 62
7
100
AcDbSpline
 70
8
 71
3
 72
8
 73
4
 74
0
 40
0
 40
0
 40
0
 40
0
 40
1
 40
1
 40
1
 40
1
 10
123.981112
 20
8.285834
 30
0.0
 10
123.975994
 20
12.270118
 30
0.0
 10
121.061280
 20
15.653198
 30
0.0
 10
117.121583
 20
16.247620
 30
0.0
  0
LWPOLYLINE
  5
11b
100
AcDbEntity
  8
Capa_1
 62
7
100
AcDbPolyline
 90
1
 70
1
 10
89.560476
 20
17.336663
 30
0.0
  0
SPLINE
  5
11c
100
AcDbEntity
  8
Capa_1
 62
7
100
AcDbSpline
 70
8
 71
3
 72
8
 73
4
 74
0
 40
0
 40
0
 40
0
 40
0
 40
1
 40
1
 40
1
 40
1
 10
117.121583
 20
17.202602
 30
0.0
 10
116.723228
 20
17.259746
 30
0.0
 10
116.321491
 20
17.290131
 30
0.0
 10
115.919073
 20
17.293552
 30
0.0
  0
LWPOLYLINE
  5
11d
100
AcDbEntity
  8
Capa_1
 62
7
100
AcDbPolyline
 90
2
 70
0
 10
117.121583
 20
16.247620
 30
0.0
 10
117.121583
 20
17.202602
 30
0.0
  0
SPLINE
  5
11e
100
AcDbEntity
  8
Capa_1
 62
7
100
AcDbSpline
 70
8
 71
3
 72
8
 73
4
 74
0
 40
0
 40
0
 40
0
 40
0
 40
1
 40
1
 40
1
 40
1
 10
62.283008
 20
17.335864
 30
0.0
 10
61.912926
 20
17.332091
 30
0.0
 10
61.543428
 20
17.305514
 30
0.0
 10
61.176615
 20
17.256284
 30
0.0
  0
LWPOLYLINE
  5
11f
100
AcDbEntity
  8
Capa_1
 62
7
100
AcDbPolyline
 90
1
 70
1
 10
115.919073
 20
17.293552
 30
0.0
  0
SPLINE
  5
120
100
AcDbEntity
  8
Capa_1
 62
7
100
AcDbSpline
 70
8
 71
3
 72
8
 73
4
 74
0
 40
0
 40
0
 40
0
 40
0
 40
1
 40
1
 40
1
 40
1
 10
61.176615
 20
16.304922
 30
0.0
 10
57.192921
 20
15.753117
 30
0.0
 10
54.225116
 20
12.349874
 30
0.0
 10
54.220452
 20
8.328147
 30
0.0
  0
SPLINE
  5
121
100
AcDbEntity
  8
Capa_1
 62
7
100
AcDbSpline
 70
8
 71
3
 72
8
 73
4
 74
0
 40
0
 40
0
 40
0
 40
0
 40
1
 40
1
 40
1
 40
1
 10
54.220452
 20
8.328147
 30
0.0
 10
54.220404
 20
6.189809
 30
0.0
 10
55.069834
 20
4.139039
 30
0.0
 10
56.581867
 20
2.627006
 30
0.0
  0
SPLINE
  5
122
100
AcDbEntity
  8
Capa_1
 62
7
100
AcDbSpline
 70
8
 71
3
 72
8
 73
4
 74
0
 40
0
 40
0
 40
0
 40
0
 40
1
 40
1
 40
1
 40
1
 10
56.581867
 20
2.627006
 30
0.0
 10
58.093900
 20
1.114973
 30
0.0
 10
60.144670
 20
0.265543
 30
0.0
 10
62.283008
 20
0.265591
 30
0.0
  0
SPLINE
  5
123
100
AcDbEntity
  8
Capa_1
 62
7
100
AcDbSpline
 70
8
 71
3
 72
8
 73
4
 74
0
 40
0
 40
0
 40
0
 40
0
 40
1
 40
1
 40
1
 40
1
 10
62.283008
 20
0.265591
 30
0.0
 10
66.735675
 20
0.265775
 30
0.0
 10
70.345149
 20
3.875480
 30
0.0
 10
70.345048
 20
8.328147
 30
0.0
  0
SPLINE
  5
124
100
AcDbEntity
  8
Capa_1
 62
7
100
AcDbSpline
 70
8
 71
3
 72
8
 73
4
 74
0
 40
0
 40
0
 40
0
 40
0
 40
1
 40
1
 40
1
 40
1
 10
70.345048
 20
8.328147
 30
0.0
 10
70.340163
 20
12.349507
 30
0.0
 10
67.372696
 20
15.752394
 30
0.0
 10
63.389400
 20
16.304406
 30
0.0
  0
SPLINE
  5
125
100
AcDbEntity
  8
Capa_1
 62
7
100
AcDbSpline
 70
8
 71
3
 72
8
 73
4
 74
0
 40
0
 40
0
 40
0
 40
0
 40
1
 40
1
 40
1
 40
1
 10
63.389400
 20
16.304406
 30
0.0
 10
63.389400
 20
16.304406
 30
0.0
 10
63.389400
 20
17.259385
 30
0.0
 10
63.389400
 20
17.259385
 30
0.0
  0
SPLINE
  5
126
100
AcDbEntity
  8
Capa_1
 62
7
100
AcDbSpline
 70
8
 71
3
 72
8
 73
4
 74
0
 40
0
 40
0
 40
0
 40
0
 40
1
 40
1
 40
1
 40
1
 10
63.389400
 20
17.259385
 30
0.0
 10
63.022524
 20
17.307578
 30
0.0
 10
62.653026
 20
17.333120
 30
0.0
 10
62.283008
 20
17.335865
 30
0.0
  0
LWPOLYLINE
  5
127
100
AcDbEntity
  8
Capa_1
 62
7
100
AcDbPolyline
 90
2
 70
0
 10
61.176615
 20
17.256284
 30
0.0
 10
61.176615
 20
16.304922
 30
0.0
  0
SPLINE
  5
128
100
AcDbEntity
  8
Capa_1
 62
7
100
AcDbSpline
 70
8
 71
3
 72
8
 73
4
 74
0
 40
0
 40
0
 40
0
 40
0
 40
1
 40
1
 40
1
 40
1
 10
36.134430
 20
17.320727
 30
0.0
 10
35.780507
 20
17.316907
 30
0.0
 10
35.427116
 20
17.292231
 30
0.0
 10
35.076097
 20
17.246827
 30
0.0
  0
SPLINE
  5
129
100
AcDbEntity
  8
Capa_1
 62
7
100
AcDbSpline
 70
8
 71
3
 72
8
 73
4
 74
0
 40
0
 40
0
 40
0
 40
0
 40
1
 40
1
 40
1
 40
1
 10
35.076097
 20
17.246827
 30
0.0
 10
35.076097
 20
17.246827
 30
0.0
 10
35.076097
 20
16.295465
 30
0.0
 10
35.076097
 20
16.295465
 30
0.0
  0
SPLINE
  5
12a
100
AcDbEntity
  8
Capa_1
 62
7
100
AcDbSpline
 70
8
 71
3
 72
8
 73
4
 74
0
 40
0
 40
0
 40
0
 40
0
 40
1
 40
1
 40
1
 40
1
 10
35.076097
 20
16.295465
 30
0.0
 10
31.071392
 20
15.765019
 30
0.0
 10
28.077456
 20
12.352686
 30
0.0
 10
28.072391
 20
8.313007
 30
0.0
  0
SPLINE
  5
12b
100
AcDbEntity
  8
Capa_1
 62
7
100
AcDbSpline
 70
8
 71
3
 72
8
 73
4
 74
0
 40
0
 40
0
 40
0
 40
0
 40
1
 40
1
 40
1
 40
1
 10
28.072391
 20
8.313007
 30
0.0
 10
28.072290
 20
3.860341
 30
0.0
 10
31.681764
 20
0.250636
 30
0.0
 10
36.134430
 20
0.250451
 30
0.0
  0
SPLINE
  5
12c
100
AcDbEntity
  8
Capa_1
 62
7
100
AcDbSpline
 70
8
 71
3
 72
8
 73
4
 74
0
 40
0
 40
0
 40
0
 40
0
 40
1
 40
1
 40
1
 40
1
 10
36.134430
 20
0.250451
 30
0.0
 10
38.272768
 20
0.250402
 30
0.0
 10
40.323539
 20
1.099832
 30
0.0
 10
41.835573
 20
2.611865
 30
0.0
  0
SPLINE
  5
12d
100
AcDbEntity
  8
Capa_1
 62
7
100
AcDbSpline
 70
8
 71
3
 72
8
 73
4
 74
0
 40
0
 40
0
 40
0
 40
0
 40
1
 40
1
 40
1
 40
1
 10
41.835573
 20
2.611865
 30
0.0
 10
43.347606
 20
4.123898
 30
0.0
 10
44.197036
 20
6.174669
 30
0.0
 10
44.196988
 20
8.313007
 30
0.0
  0
SPLINE
  5
12e
100
AcDbEntity
  8
Capa_1
 62
7
100
AcDbSpline
 70
8
 71
3
 72
8
 73
4
 74
0
 40
0
 40
0
 40
0
 40
0
 40
1
 40
1
 40
1
 40
1
 10
44.196988
 20
8.313007
 30
0.0
 10
44.192405
 20
12.353252
 30
0.0
 10
41.198062
 20
15.766235
 30
0.0
 10
37.192763
 20
16.296496
 30
0.0
  0
SPLINE
  5
12f
100
AcDbEntity
  8
Capa_1
 62
7
100
AcDbSpline
 70
8
 71
3
 72
8
 73
4
 74
0
 40
0
 40
0
 40
0
 40
0
 40
1
 40
1
 40
1
 40
1
 10
37.192763
 20
16.296496
 30
0.0
 10
37.192763
 20
16.296496
 30
0.0
 10
37.192763
 20
17.251994
 30
0.0
 10
37.192763
 20
17.251994
 30
0.0
  0
SPLINE
  5
130
100
AcDbEntity
  8
Capa_1
 62
7
100
AcDbSpline
 70
8
 71
3
 72
8
 73
4
 74
0
 40
0
 40
0
 40
0
 40
0
 40
1
 40
1
 40
1
 40
1
 10
37.192763
 20
17.251994
 30
0.0
 10
36.841641
 20
17.295669
 30
0.0
 10
36.488251
 20
17.318619
 30
0.0
 10
36.134430
 20
17.320724
 30
0.0
  0
LWPOLYLINE
  5
131
100
AcDbEntity
  8
Capa_1
 62
7
100
AcDbPolyline
 90
1
 70
1
 10
62.283008
 20
17.335865
 30
0.0
  0
SPLINE
  5
132
100
AcDbEntity
  8
Capa_1
 62
7
100
AcDbSpline
 70
8
 71
3
 72
8
 73
4
 74
0
 40
0
 40
0
 40
0
 40
0
 40
1
 40
1
 40
1
 40
1
 10
8.112556
 20
17.120275
 30
0.0
 10
7.774786
 20
17.116498
 30
0.0
 10
7.437496
 20
17.093726
 30
0.0
 10
7.102284
 20
17.052065
 30
0.0
  0
LWPOLYLINE
  5
133
100
AcDbEntity
  8
Capa_1
 62
7
100
AcDbPolyline
 90
1
 70
1
 10
36.134430
 20
17.320724
 30
0.0
  0
SPLINE
  5
134
100
AcDbEntity
  8
Capa_1
 62
7
100
AcDbSpline
 70
8
 71
3
 72
8
 73
4
 74
0
 40
0
 40
0
 40
0
 40
0
 40
1
 40
1
 40
1
 40
1
 10
7.102284
 20
16.101221
 30
0.0
 10
3.075965
 20
15.592783
 30
0.0
 10
0.055130
 20
12.170854
 30
0.0
 10
0.050000
 20
8.112562
 30
0.0
  0
SPLINE
  5
135
100
AcDbEntity
  8
Capa_1
 62
7
100
AcDbSpline
 70
8
 71
3
 72
8
 73
4
 74
0
 40
0
 40
0
 40
0
 40
0
 40
1
 40
1
 40
1
 40
1
 10
0.050000
 20
8.112562
 30
0.0
 10
0.049950
 20
5.974224
 30
0.0
 10
0.899380
 20
3.923452
 30
0.0
 10
2.411413
 20
2.411417
 30
0.0
  0
SPLINE
  5
136
100
AcDbEntity
  8
Capa_1
 62
7
100
AcDbSpline
 70
8
 71
3
 72
8
 73
4
 74
0
 40
0
 40
0
 40
0
 40
0
 40
1
 40
1
 40
1
 40
1
 10
2.411413
 20
2.411417
 30
0.0
 10
3.923446
 20
0.899383
 30
0.0
 10
5.974218
 20
0.049953
 30
0.0
 10
8.112556
 20
0.050001
 30
0.0
  0
SPLINE
  5
137
100
AcDbEntity
  8
Capa_1
 62
7
100
AcDbSpline
 70
8
 71
3
 72
8
 73
4
 74
0
 40
0
 40
0
 40
0
 40
0
 40
1
 40
1
 40
1
 40
1
 10
8.112556
 20
0.050001
 30
0.0
 10
10.250895
 20
0.049952
 30
0.0
 10
12.301667
 20
0.899383
 30
0.0
 10
13.813700
 20
2.411417
 30
0.0
  0
SPLINE
  5
138
100
AcDbEntity
  8
Capa_1
 62
7
100
AcDbSpline
 70
8
 71
3
 72
8
 73
4
 74
0
 40
0
 40
0
 40
0
 40
0
 40
1
 40
1
 40
1
 40
1
 10
13.813700
 20
2.411417
 30
0.0
 10
15.325734
 20
3.923451
 30
0.0
 10
16.175164
 20
5.974223
 30
0.0
 10
16.175114
 20
8.112562
 30
0.0
  0
SPLINE
  5
139
100
AcDbEntity
  8
Capa_1
 62
7
100
AcDbSpline
 70
8
 71
3
 72
8
 73
4
 74
0
 40
0
 40
0
 40
0
 40
0
 40
1
 40
1
 40
1
 40
1
 10
16.175114
 20
8.112562
 30
0.0
 10
16.171024
 20
12.171641
 30
0.0
 10
13.149929
 20
15.594750
 30
0.0
 10
9.122830
 20
16.103288
 30
0.0
  0
SPLINE
  5
13a
100
AcDbEntity
  8
Capa_1
 62
7
100
AcDbSpline
 70
8
 71
3
 72
8
 73
4
 74
0
 40
0
 40
0
 40
0
 40
0
 40
1
 40
1
 40
1
 40
1
 10
9.122830
 20
16.103288
 30
0.0
 10
9.122830
 20
16.103288
 30
0.0
 10
9.122830
 20
17.058785
 30
0.0
 10
9.122830
 20
17.058785
 30
0.0
  0
SPLINE
  5
13b
100
AcDbEntity
  8
Capa_1
 62
7
100
AcDbSpline
 70
8
 71
3
 72
8
 73
4
 74
0
 40
0
 40
0
 40
0
 40
0
 40
1
 40
1
 40
1
 40
1
 10
9.122830
 20
17.058785
 30
0.0
 10
8.787491
 20
17.098200
 30
0.0
 10
8.450200
 20
17.118729
 30
0.0
 10
8.112556
 20
17.120275
 30
0.0
  0
LWPOLYLINE
  5
13c
100
AcDbEntity
  8
Capa_1
 62
7
100
AcDbPolyline
 90
2
 70
0
 10
7.102284
 20
17.052065
 30
0.0
 10
7.102284
 20
16.101221
 30
0.0
  0
LWPOLYLINE
  5
13d
100
AcDbEntity
  8
Capa_1
 62
7
100
AcDbPolyline
 90
1
 70
1
 10
8.112556
 20
17.120275
 30
0.0
  0
ENDSEC
  0
SECTION
  2
OBJECTS
  0
DICTIONARY
  5
C
330
0
100
AcDbDictionary
  3
ACAD_GROUP
350
D
  3
ACAD_MLINESTYLE
350
17
  0
DICTIONARY
  5
D
330
C
100
AcDbDictionary
  0
DICTIONARY
  5
1A
330
C
100
AcDbDictionary
  0
DICTIONARY
  5
17
330
C
100
AcDbDictionary
  3
STANDARD
350
18
  0
DICTIONARY
  5
19
330
C
100
AcDbDictionary
  0
ENDSEC
  0
EOF
