  0
SECTION
  2
HEADER
  9
$ACADVER
  1
AC1012
  9
$DWGCODEPAGE
  3
ansi_1252
  9
$INSBASE
 10
0.0
 20
0.0
 30
0.0
  9
$EXTMIN
 10
0.0
 20
0.0
 30
0.0
  9
$EXTMAX
 10
271.9999914169312
 20
38.00000004768371
 30
15.70697764643652
  9
$LIMMIN
 10
0.0
 20
0.0
  9
$LIMMAX
 10
420.0
 20
297.0
  9
$ORTHOMODE
 70
     0
  9
$REGENMODE
 70
     1
  9
$FILLMODE
 70
     1
  9
$QTEXTMODE
 70
     0
  9
$MIRRTEXT
 70
     1
  9
$DRAGMODE
 70
     2
  9
$LTSCALE
 40
1.0
  9
$OSMODE
 70
    37
  9
$ATTMODE
 70
     1
  9
$TEXTSIZE
 40
2.5
  9
$TRACEWID
 40
1.0
  9
$TEXTSTYLE
  7
STANDARD
  9
$CLAYER
  8
0
  9
$CELTYPE
  6
BYLAYER
  9
$CECOLOR
 62
   256
  9
$CELTSCALE
 40
1.0
  9
$DELOBJ
 70
     1
  9
$DISPSILH
 70
     0
  9
$DIMSCALE
 40
1.0
  9
$DIMASZ
 40
2.5
  9
$DIMEXO
 40
0.625
  9
$DIMDLI
 40
3.75
  9
$DIMRND
 40
0.0
  9
$DIMDLE
 40
0.0
  9
$DIMEXE
 40
1.25
  9
$DIMTP
 40
0.0
  9
$DIMTM
 40
0.0
  9
$DIMTXT
 40
2.5
  9
$DIMCEN
 40
2.5
  9
$DIMTSZ
 40
0.0
  9
$DIMTOL
 70
     0
  9
$DIMLIM
 70
     0
  9
$DIMTIH
 70
     0
  9
$DIMTOH
 70
     0
  9
$DIMSE1
 70
     0
  9
$DIMSE2
 70
     0
  9
$DIMTAD
 70
     1
  9
$DIMZIN
 70
     8
  9
$DIMBLK
  1

  9
$DIMASO
 70
     1
  9
$DIMSHO
 70
     1
  9
$DIMPOST
  1

  9
$DIMAPOST
  1

  9
$DIMALT
 70
     0
  9
$DIMALTD
 70
     3
  9
$DIMALTF
 40
0.03937007874016
  9
$DIMLFAC
 40
1.0
  9
$DIMTOFL
 70
     1
  9
$DIMTVP
 40
0.0
  9
$DIMTIX
 70
     0
  9
$DIMSOXD
 70
     0
  9
$DIMSAH
 70
     0
  9
$DIMBLK1
  1

  9
$DIMBLK2
  1

  9
$DIMSTYLE
  2
ISO-25
  9
$DIMCLRD
 70
     0
  9
$DIMCLRE
 70
     0
  9
$DIMCLRT
 70
     0
  9
$DIMTFAC
 40
1.0
  9
$DIMGAP
 40
0.625
  9
$DIMJUST
 70
     0
  9
$DIMSD1
 70
     0
  9
$DIMSD2
 70
     0
  9
$DIMTOLJ
 70
     0
  9
$DIMTZIN
 70
     8
  9
$DIMALTZ
 70
     0
  9
$DIMALTTZ
 70
     0
  9
$DIMFIT
 70
     3
  9
$DIMUPT
 70
     0
  9
$DIMUNIT
 70
     2
  9
$DIMDEC
 70
     2
  9
$DIMTDEC
 70
     2
  9
$DIMALTU
 70
     2
  9
$DIMALTTD
 70
     3
  9
$DIMTXSTY
  7
STANDARD
  9
$DIMAUNIT
 70
     0
  9
$LUNITS
 70
     2
  9
$LUPREC
 70
     4
  9
$SKETCHINC
 40
1.0
  9
$FILLETRAD
 40
10.0
  9
$AUNITS
 70
     0
  9
$AUPREC
 70
     0
  9
$MENU
  1
.
  9
$ELEVATION
 40
0.0
  9
$PELEVATION
 40
0.0
  9
$THICKNESS
 40
0.0
  9
$LIMCHECK
 70
     0
  9
$CHAMFERA
 40
0.0
  9
$CHAMFERB
 40
0.0
  9
$CHAMFERC
 40
0.0
  9
$CHAMFERD
 40
0.0
  9
$SKPOLY
 70
     0
  9
$TDCREATE
 40
2305814.641388889
  9
$TDUPDATE
 40
2458837.599729294
  9
$TDINDWG
 40
0.0000000116
  9
$TDUSRTIMER
 40
0.0000000116
  9
$USRTIMER
 70
     1
  9
$ANGBASE
 50
0.0
  9
$ANGDIR
 70
     0
  9
$PDMODE
 70
     0
  9
$PDSIZE
 40
0.0
  9
$PLINEWID
 40
0.0
  9
$COORDS
 70
     1
  9
$SPLFRAME
 70
     0
  9
$SPLINETYPE
 70
     6
  9
$SPLINESEGS
 70
     8
  9
$ATTDIA
 70
     0
  9
$ATTREQ
 70
     1
  9
$HANDLING
 70
     1
  9
$HANDSEED
  5
12E
  9
$SURFTAB1
 70
     6
  9
$SURFTAB2
 70
     6
  9
$SURFTYPE
 70
     6
  9
$SURFU
 70
     6
  9
$SURFV
 70
     6
  9
$UCSNAME
  2

  9
$UCSORG
 10
0.0
 20
0.0
 30
0.0
  9
$UCSXDIR
 10
1.0
 20
0.0
 30
0.0
  9
$UCSYDIR
 10
0.0
 20
1.0
 30
0.0
  9
$PUCSNAME
  2

  9
$PUCSORG
 10
0.0
 20
0.0
 30
0.0
  9
$PUCSXDIR
 10
1.0
 20
0.0
 30
0.0
  9
$PUCSYDIR
 10
0.0
 20
1.0
 30
0.0
  9
$USERI1
 70
     0
  9
$USERI2
 70
     0
  9
$USERI3
 70
     0
  9
$USERI4
 70
     0
  9
$USERI5
 70
     0
  9
$USERR1
 40
0.0
  9
$USERR2
 40
0.0
  9
$USERR3
 40
0.0
  9
$USERR4
 40
0.0
  9
$USERR5
 40
0.0
  9
$WORLDVIEW
 70
     1
  9
$SHADEDGE
 70
     3
  9
$SHADEDIF
 70
    70
  9
$TILEMODE
 70
     1
  9
$MAXACTVP
 70
    64
  9
$PINSBASE
 10
0.0
 20
0.0
 30
0.0
  9
$PLIMCHECK
 70
     0
  9
$PEXTMIN
 10
1.000000000000000E+20
 20
1.000000000000000E+20
 30
1.000000000000000E+20
  9
$PEXTMAX
 10
-1.000000000000000E+20
 20
-1.000000000000000E+20
 30
-1.000000000000000E+20
  9
$PLIMMIN
 10
0.0
 20
0.0
  9
$PLIMMAX
 10
420.0
 20
297.0
  9
$UNITMODE
 70
     0
  9
$VISRETAIN
 70
     1
  9
$PLINEGEN
 70
     0
  9
$PSLTSCALE
 70
     1
  9
$TREEDEPTH
 70
  3020
  9
$PICKSTYLE
 70
     1
  9
$CMLSTYLE
  2
STANDARD
  9
$CMLJUST
 70
     0
  9
$CMLSCALE
 40
20.0
  9
$SAVEIMAGES
 70
     1
  0
ENDSEC
  0
SECTION
  2
CLASSES
  0
CLASS
  1
ACDBDICTIONARYWDFLT
  2
AcDbDictionaryWithDefault
  3
ObjectDBX Classes
 90
    32768
280
     0
281
     0
  0
CLASS
  1
VISUALSTYLE
  2
AcDbVisualStyle
  3
ObjectDBX Classes
 90
     4095
280
     0
281
     0
  0
CLASS
  1
MATERIAL
  2
AcDbMaterial
  3
ObjectDBX Classes
 90
     1153
280
     0
281
     0
  0
CLASS
  1
SCALE
  2
AcDbScale
  3
ObjectDBX Classes
 90
     1153
280
     0
281
     0
  0
CLASS
  1
TABLESTYLE
  2
AcDbTableStyle
  3
ObjectDBX Classes
 90
     4095
280
     0
281
     0
  0
CLASS
  1
MLEADERSTYLE
  2
AcDbMLeaderStyle
  3
ACDB_MLEADERSTYLE_CLASS
 90
     4095
280
     0
281
     0
  0
CLASS
  1
SUN
  2
AcDbSun
  3
SCENEOE
 90
     1153
280
     0
281
     0
  0
CLASS
  1
DICTIONARYVAR
  2
AcDbDictionaryVar
  3
ObjectDBX Classes
 90
        0
280
     0
281
     0
  0
CLASS
  1
XRECORD
  2
AcDbXrecord
  3
ObjectDBX Classes
 90
    32768
280
     0
281
     0
  0
CLASS
  1
LWPOLYLINE
  2
AcDbPolyline
  3
ObjectDBX Classes
 90
    32768
280
     0
281
     1
  0
CLASS
  1
HATCH
  2
AcDbHatch
  3
ObjectDBX Classes
 90
    32768
280
     0
281
     1
  0
CLASS
  1
ACDBPLACEHOLDER
  2
AcDbPlaceHolder
  3
ObjectDBX Classes
 90
        0
280
     0
281
     0
  0
CLASS
  1
LAYOUT
  2
AcDbLayout
  3
ObjectDBX Classes
 90
        0
280
     0
281
     0
  0
ENDSEC
  0
SECTION
  2
TABLES
  0
TABLE
  2
VPORT
  5
8
330
0
100
AcDbSymbolTable
 70
     1
  0
VPORT
  5
29
330
8
100
AcDbSymbolTableRecord
100
AcDbViewportTableRecord
  2
*ACTIVE
 70
     0
 10
0.0
 20
0.0
 11
1.0
 21
1.0
 12
344.1869158878504
 22
148.5
 13
0.0
 23
0.0
 14
10.0
 24
10.0
 15
10.0
 25
10.0
 16
0.0
 26
0.0
 36
1.0
 17
0.0
 27
0.0
 37
0.0
 40
297.0
 41
1.972972972850329
 42
50.0
 43
0.0
 44
0.0
 50
0.0
 51
0.0
 71
     0
 72
   100
 73
     1
 74
     3
 75
     0
 76
     0
 77
     0
 78
     0
  0
ENDTAB
  0
TABLE
  2
LTYPE
  5
5
330
0
100
AcDbSymbolTable
 70
    11
  0
LTYPE
  5
14
330
5
100
AcDbSymbolTableRecord
100
AcDbLinetypeTableRecord
  2
BYBLOCK
 70
     0
  3

 72
    65
 73
     0
 40
0.0
  0
LTYPE
  5
15
330
5
100
AcDbSymbolTableRecord
100
AcDbLinetypeTableRecord
  2
BYLAYER
 70
     0
  3

 72
    65
 73
     0
 40
0.0
  0
LTYPE
  5
16
330
5
100
AcDbSymbolTableRecord
100
AcDbLinetypeTableRecord
  2
CONTINUOUS
 70
     0
  3
Solid line
 72
    65
 73
     0
 40
0.0
  0
LTYPE
  5
70
330
5
100
AcDbSymbolTableRecord
100
AcDbLinetypeTableRecord
  2
BORDER
 70
     0
  3
__ __ . __ __ . __ 
 72
    65
 73
     6
 40
0.875
 49
0.25
 74
     0
 49
-0.125
 74
     0
 49
0.25
 74
     0
 49
-0.125
 74
     0
 49
0.0
 74
     0
 49
-0.125
 74
     0
  0
LTYPE
  5
71
330
5
100
AcDbSymbolTableRecord
100
AcDbLinetypeTableRecord
  2
CENTER
 70
     0
  3
___ _ ___ _ ___ _ _
 72
    65
 73
     4
 40
1.125
 49
0.75
 74
     0
 49
-0.125
 74
     0
 49
0.125
 74
     0
 49
-0.125
 74
     0
  0
LTYPE
  5
72
330
5
100
AcDbSymbolTableRecord
100
AcDbLinetypeTableRecord
  2
DASHDOT
 70
     0
  3
_._._._._._._._._._
 72
    65
 73
     4
 40
0.5
 49
0.25
 74
     0
 49
-0.125
 74
     0
 49
0.0
 74
     0
 49
-0.125
 74
     0
  0
LTYPE
  5
73
330
5
100
AcDbSymbolTableRecord
100
AcDbLinetypeTableRecord
  2
DASHED
 70
     0
  3
_ _ _ _ _ _ _ _ _ _
 72
    65
 73
     2
 40
0.375
 49
0.25
 74
     0
 49
-0.125
 74
     0
  0
LTYPE
  5
74
330
5
100
AcDbSymbolTableRecord
100
AcDbLinetypeTableRecord
  2
DIVIDE
 70
     0
  3
__..__..__..__..__.
 72
    65
 73
     6
 40
0.625
 49
0.25
 74
     0
 49
-0.125
 74
     0
 49
0.0
 74
     0
 49
-0.125
 74
     0
 49
0.0
 74
     0
 49
-0.125
 74
     0
  0
LTYPE
  5
75
330
5
100
AcDbSymbolTableRecord
100
AcDbLinetypeTableRecord
  2
DOT
 70
     0
  3
...................
 72
    65
 73
     2
 40
0.125
 49
0.0
 74
     0
 49
-0.125
 74
     0
  0
LTYPE
  5
76
330
5
100
AcDbSymbolTableRecord
100
AcDbLinetypeTableRecord
  2
HIDDEN
 70
     0
  3
__ __ __ __ __ __ _
 72
    65
 73
     2
 40
0.1875
 49
0.125
 74
     0
 49
-0.0625
 74
     0
  0
LTYPE
  5
77
330
5
100
AcDbSymbolTableRecord
100
AcDbLinetypeTableRecord
  2
PHANTOM
 70
     0
  3
___ _ _ ___ _ _ ___
 72
    65
 73
     6
 40
1.25
 49
0.625
 74
     0
 49
-0.125
 74
     0
 49
0.125
 74
     0
 49
-0.125
 74
     0
 49
0.125
 74
     0
 49
-0.125
 74
     0
  0
LTYPE
  5
78
330
5
100
AcDbSymbolTableRecord
100
AcDbLinetypeTableRecord
  2
CUTTING
 70
     0
  3
________ _ _ ______
 72
    65
 73
     6
 40
1.4675
 49
1.0
 74
     0
 49
-0.0725
 74
     0
 49
0.125
 74
     0
 49
-0.0725
 74
     0
 49
0.125
 74
     0
 49
-0.0725
 74
     0
  0
LTYPE
  5
79
330
5
100
AcDbSymbolTableRecord
100
AcDbLinetypeTableRecord
  2
STITCH
 70
     0
  3
_ _ _ _ _ _ _ _ _ _
 72
    65
 73
     2
 40
0.145
 49
0.0725
 74
     0
 49
-0.0725
 74
     0
  0
ENDTAB
  0
TABLE
  2
LAYER
  5
2
330
0
100
AcDbSymbolTable
 70
     2
  0
LAYER
  5
10
330
2
100
AcDbSymbolTableRecord
100
AcDbLayerTableRecord
  2
0
 70
     0
 62
     7
  6
CONTINUOUS
  0
LAYER
  5
6F
330
2
100
AcDbSymbolTableRecord
100
AcDbLayerTableRecord
  2
LAYER1
 70
     0
 62
     7
  6
CONTINUOUS
  0
ENDTAB
  0
TABLE
  2
STYLE
  5
3
330
0
100
AcDbSymbolTable
 70
     1
  0
STYLE
  5
11
330
3
100
AcDbSymbolTableRecord
100
AcDbTextStyleTableRecord
  2
STANDARD
 70
     0
 40
0.0
 41
1.0
 50
0.0
 71
     0
 42
2.5
  3
txt
  4

  0
ENDTAB
  0
TABLE
  2
VIEW
  5
6
330
0
100
AcDbSymbolTable
 70
     0
  0
ENDTAB
  0
TABLE
  2
UCS
  5
7
330
0
100
AcDbSymbolTable
 70
     0
  0
ENDTAB
  0
TABLE
  2
APPID
  5
9
330
0
100
AcDbSymbolTable
 70
     3
  0
APPID
  5
12
330
9
100
AcDbSymbolTableRecord
100
AcDbRegAppTableRecord
  2
ACAD
 70
     0
  0
APPID
  5
6E
330
9
100
AcDbSymbolTableRecord
100
AcDbRegAppTableRecord
  2
ENCORE_SOFTWARE_VIACAD
 70
     0
  0
APPID
  5
12D
330
9
100
AcDbSymbolTableRecord
100
AcDbRegAppTableRecord
  2
ACAD_MLEADERVER
 70
     0
  0
ENDTAB
  0
TABLE
  2
DIMSTYLE
  5
A
330
0
100
AcDbSymbolTable
 70
     1
  0
DIMSTYLE
105
27
330
A
100
AcDbSymbolTableRecord
100
AcDbDimStyleTableRecord
  2
ISO-25
 70
     0
  3

  4

  5

  6

  7

 40
1.0
 41
2.5
 42
0.625
 43
3.75
 44
1.25
 45
0.0
 46
0.0
 47
0.0
 48
0.0
140
2.5
141
2.5
142
0.0
143
0.03937007874016
144
1.0
145
0.0
146
1.0
147
0.625
 71
     0
 72
     0
 73
     0
 74
     0
 75
     0
 76
     0
 77
     1
 78
     8
170
     0
171
     3
172
     1
173
     0
174
     0
175
     0
176
     0
177
     0
178
     0
270
     2
271
     2
272
     2
273
     2
274
     3
340
11
275
     0
280
     0
281
     0
282
     0
283
     0
284
     8
285
     0
286
     0
287
     3
288
     0
  0
ENDTAB
  0
TABLE
  2
BLOCK_RECORD
  5
1
330
0
100
AcDbSymbolTable
 70
     0
  0
BLOCK_RECORD
  5
1F
330
1
100
AcDbSymbolTableRecord
100
AcDbBlockTableRecord
  2
*MODEL_SPACE
  0
BLOCK_RECORD
  5
1B
330
1
100
AcDbSymbolTableRecord
100
AcDbBlockTableRecord
  2
*PAPER_SPACE
  0
ENDTAB
  0
ENDSEC
  0
SECTION
  2
BLOCKS
  0
BLOCK
  5
20
330
1F
100
AcDbEntity
  8
0
100
AcDbBlockBegin
  2
*MODEL_SPACE
 70
     0
 10
0.0
 20
0.0
 30
0.0
  3
*MODEL_SPACE
  1

  0
ENDBLK
  5
21
330
1F
100
AcDbEntity
  8
0
100
AcDbBlockEnd
  0
BLOCK
  5
1C
330
1B
100
AcDbEntity
 67
     1
  8
0
100
AcDbBlockBegin
  2
*PAPER_SPACE
 70
     0
 10
0.0
 20
0.0
 30
0.0
  3
*PAPER_SPACE
  1

  0
ENDBLK
  5
1D
330
1B
100
AcDbEntity
 67
     1
  8
0
100
AcDbBlockEnd
  0
ENDSEC
  0
SECTION
  2
ENTITIES
  0
POLYLINE
  5
7A
330
1F
100
AcDbEntity
  8
LAYER1
 62
    18
 48
25.39999961853027
100
AcDb3dPolyline
 66
     1
 10
0.0
 20
0.0
 30
0.0
 70
     8
  0
VERTEX
  5
7B
330
7A
100
AcDbEntity
  8
LAYER1
 62
    18
 48
25.39999961853027
100
AcDbVertex
100
AcDb3dPolylineVertex
 10
0.0
 20
0.0
 30
0.0
 70
    32
  0
VERTEX
  5
7C
330
7A
100
AcDbEntity
  8
LAYER1
 62
    18
 48
25.39999961853027
100
AcDbVertex
100
AcDb3dPolylineVertex
 10
272.0
 20
0.0
 30
0.0
 70
    32
  0
VERTEX
  5
7D
330
7A
100
AcDbEntity
  8
LAYER1
 62
    18
 48
25.39999961853027
100
AcDbVertex
100
AcDb3dPolylineVertex
 10
272.0
 20
38.0
 30
0.0
 70
    32
  0
VERTEX
  5
7E
330
7A
100
AcDbEntity
  8
LAYER1
 62
    18
 48
25.39999961853027
100
AcDbVertex
100
AcDb3dPolylineVertex
 10
0.0
 20
38.0
 30
0.0
 70
    32
  0
VERTEX
  5
7F
330
7A
100
AcDbEntity
  8
LAYER1
 62
    18
 48
25.39999961853027
100
AcDbVertex
100
AcDb3dPolylineVertex
 10
0.0
 20
0.0
 30
0.0
 70
    32
  0
SEQEND
  5
80
330
7A
100
AcDbEntity
  8
LAYER1
 62
    18
 48
25.39999961853027
  0
SPLINE
  5
81
330
1F
100
AcDbEntity
  8
LAYER1
 62
     1
 48
25.39999961853027
100
AcDbSpline
210
0.0
220
0.0
230
1.0
 70
    24
 71
     3
 72
     8
 73
     4
 74
     0
 42
0.000000001
 43
0.0000001
 40
0.0
 40
0.0
 40
0.0
 40
0.0
 40
1.0
 40
1.0
 40
1.0
 40
1.0
 10
123.1955176445523
 20
0.7846952665882971
 30
0.0
 10
122.5415516445523
 20
0.7846952665882971
 30
0.0
 10
121.8875846445523
 20
0.7846952665882971
 30
0.0
 10
121.2336176445523
 20
0.7846952665882971
 30
0.0
  0
SPLINE
  5
82
330
1F
100
AcDbEntity
  8
LAYER1
 62
     1
 48
25.39999961853027
100
AcDbSpline
210
0.0
220
0.0
230
1.0
 70
     8
 71
     3
 72
     8
 73
     4
 74
     0
 42
0.000000001
 43
0.0000001
 40
0.0
 40
0.0
 40
0.0
 40
0.0
 40
1.0
 40
1.0
 40
1.0
 40
1.0
 10
121.2336176445523
 20
0.7846952665882971
 30
0.0
 10
121.0748896445523
 20
1.313001266588291
 30
0.0
 10
121.7284096445523
 20
1.029055266588278
 30
0.0
 10
122.0282376445523
 20
1.098791266588304
 30
0.0
  0
SPLINE
  5
83
330
1F
100
AcDbEntity
  8
LAYER1
 62
     1
 48
25.39999961853027
100
AcDbSpline
210
0.0
220
0.0
230
1.0
 70
     8
 71
     3
 72
     8
 73
     4
 74
     0
 42
0.000000001
 43
0.0000001
 40
0.0
 40
0.0
 40
0.0
 40
0.0
 40
1.0
 40
1.0
 40
1.0
 40
1.0
 10
122.0282376445523
 20
1.098791266588304
 30
0.0
 10
122.6697486445523
 20
1.164499266588304
 30
0.0
 10
123.4189276445523
 20
0.9175722665882987
 30
0.0
 10
123.9550186445523
 20
1.351827266588297
 30
0.0
  0
SPLINE
  5
84
330
1F
100
AcDbEntity
  8
LAYER1
 62
     1
 48
25.39999961853027
100
AcDbSpline
210
0.0
220
0.0
230
1.0
 70
     8
 71
     3
 72
     8
 73
     4
 74
     0
 42
0.000000001
 43
0.0000001
 40
0.0
 40
0.0
 40
0.0
 40
0.0
 40
1.0
 40
1.0
 40
1.0
 40
1.0
 10
123.9550186445523
 20
1.351827266588297
 30
0.0
 10
124.2903676445523
 20
1.68443226658828
 30
0.0
 10
124.4669266445523
 20
2.686828266588283
 30
0.0
 10
123.7296516445523
 20
2.425039266588275
 30
0.0
  0
SPLINE
  5
85
330
1F
100
AcDbEntity
  8
LAYER1
 62
     1
 48
25.39999961853027
100
AcDbSpline
210
0.0
220
0.0
230
1.0
 70
     8
 71
     3
 72
     8
 73
     4
 74
     0
 42
0.000000001
 43
0.0000001
 40
0.0
 40
0.0
 40
0.0
 40
0.0
 40
1.0
 40
1.0
 40
1.0
 40
1.0
 10
123.7296516445523
 20
2.425039266588275
 30
0.0
 10
122.9236796445523
 20
2.476959266588286
 30
0.0
 10
121.8632706445523
 20
2.184328266588302
 30
0.0
 10
121.3929336445523
 20
3.052007266588295
 30
0.0
  0
SPLINE
  5
86
330
1F
100
AcDbEntity
  8
LAYER1
 62
     1
 48
25.39999961853027
100
AcDbSpline
210
0.0
220
0.0
230
1.0
 70
     8
 71
     3
 72
     8
 73
     4
 74
     0
 42
0.000000001
 43
0.0000001
 40
0.0
 40
0.0
 40
0.0
 40
0.0
 40
1.0
 40
1.0
 40
1.0
 40
1.0
 10
121.3929336445523
 20
3.052007266588295
 30
0.0
 10
121.1015906445523
 20
3.84290126658829
 30
0.0
 10
121.2856406445523
 20
4.715200266588261
 30
0.0
 10
121.2336176445523
 20
5.5446452665883
 30
0.0
  0
SPLINE
  5
87
330
1F
100
AcDbEntity
  8
LAYER1
 62
     1
 48
25.39999961853027
100
AcDbSpline
210
0.0
220
0.0
230
1.0
 70
    24
 71
     3
 72
     8
 73
     4
 74
     0
 42
0.000000001
 43
0.0000001
 40
0.0
 40
0.0
 40
0.0
 40
0.0
 40
1.0
 40
1.0
 40
1.0
 40
1.0
 10
121.2336176445523
 20
5.5446452665883
 30
0.0
 10
121.2336176445523
 20
6.263058266588278
 30
0.0
 10
121.2336176445523
 20
6.981472266588289
 30
0.0
 10
121.2336176445523
 20
7.699886266588301
 30
0.0
  0
SPLINE
  5
88
330
1F
100
AcDbEntity
  8
LAYER1
 62
     1
 48
25.39999961853027
100
AcDbSpline
210
0.0
220
0.0
230
1.0
 70
     8
 71
     3
 72
     8
 73
     4
 74
     0
 42
0.000000001
 43
0.0000001
 40
0.0
 40
0.0
 40
0.0
 40
0.0
 40
1.0
 40
1.0
 40
1.0
 40
1.0
 10
121.2336176445523
 20
7.699886266588301
 30
0.0
 10
121.7407516445523
 20
7.827097266588287
 30
0.0
 10
121.4350956445523
 20
7.141574266588303
 30
0.0
 10
121.5175636445523
 20
6.844151266588287
 30
0.0
  0
SPLINE
  5
89
330
1F
100
AcDbEntity
  8
LAYER1
 62
     1
 48
25.39999961853027
100
AcDbSpline
210
0.0
220
0.0
230
1.0
 70
     8
 71
     3
 72
     8
 73
     4
 74
     0
 42
0.000000001
 43
0.0000001
 40
0.0
 40
0.0
 40
0.0
 40
0.0
 40
1.0
 40
1.0
 40
1.0
 40
1.0
 10
121.5175636445523
 20
6.844151266588287
 30
0.0
 10
121.5315786445523
 20
5.734129266588289
 30
0.0
 10
121.4889006445523
 20
4.620983266588292
 30
0.0
 10
121.5400776445523
 20
3.513040266588299
 30
0.0
  0
SPLINE
  5
8A
330
1F
100
AcDbEntity
  8
LAYER1
 62
     1
 48
25.39999961853027
100
AcDbSpline
210
0.0
220
0.0
230
1.0
 70
     8
 71
     3
 72
     8
 73
     4
 74
     0
 42
0.000000001
 43
0.0000001
 40
0.0
 40
0.0
 40
0.0
 40
0.0
 40
1.0
 40
1.0
 40
1.0
 40
1.0
 10
121.5400776445523
 20
3.513040266588299
 30
0.0
 10
121.7038786445523
 20
2.592158266588294
 30
0.0
 10
122.7248456445523
 20
2.716070266588281
 30
0.0
 10
123.4260526445523
 20
2.719162266588293
 30
0.0
  0
SPLINE
  5
8B
330
1F
100
AcDbEntity
  8
LAYER1
 62
     1
 48
25.39999961853027
100
AcDbSpline
210
0.0
220
0.0
230
1.0
 70
     8
 71
     3
 72
     8
 73
     4
 74
     0
 42
0.000000001
 43
0.0000001
 40
0.0
 40
0.0
 40
0.0
 40
0.0
 40
1.0
 40
1.0
 40
1.0
 40
1.0
 10
123.4260526445523
 20
2.719162266588293
 30
0.0
 10
123.7661406445523
 20
2.765525266588289
 30
0.0
 10
124.3882566445523
 20
2.52985026658829
 30
0.0
 10
124.2186736445523
 20
3.085905266588294
 30
0.0
  0
SPLINE
  5
8C
330
1F
100
AcDbEntity
  8
LAYER1
 62
     1
 48
25.39999961853027
100
AcDbSpline
210
0.0
220
0.0
230
1.0
 70
    24
 71
     3
 72
     8
 73
     4
 74
     0
 42
0.000000001
 43
0.0000001
 40
0.0
 40
0.0
 40
0.0
 40
0.0
 40
1.0
 40
1.0
 40
1.0
 40
1.0
 10
124.2186736445523
 20
3.085905266588294
 30
0.0
 10
124.2186736445523
 20
4.623899266588304
 30
0.0
 10
124.2186736445523
 20
6.161892266588291
 30
0.0
 10
124.2186736445523
 20
7.699886266588301
 30
0.0
  0
SPLINE
  5
8D
330
1F
100
AcDbEntity
  8
LAYER1
 62
     1
 48
25.39999961853027
100
AcDbSpline
210
0.0
220
0.0
230
1.0
 70
     8
 71
     3
 72
     8
 73
     4
 74
     0
 42
0.000000001
 43
0.0000001
 40
0.0
 40
0.0
 40
0.0
 40
0.0
 40
1.0
 40
1.0
 40
1.0
 40
1.0
 10
124.2186736445523
 20
7.699886266588301
 30
0.0
 10
124.7374946445523
 20
7.837134266588302
 30
0.0
 10
124.4490686445523
 20
7.167167266588283
 30
0.0
 10
124.5221416445523
 20
6.858704266588282
 30
0.0
  0
SPLINE
  5
8E
330
1F
100
AcDbEntity
  8
LAYER1
 62
     1
 48
25.39999961853027
100
AcDbSpline
210
0.0
220
0.0
230
1.0
 70
     8
 71
     3
 72
     8
 73
     4
 74
     0
 42
0.000000001
 43
0.0000001
 40
0.0
 40
0.0
 40
0.0
 40
0.0
 40
1.0
 40
1.0
 40
1.0
 40
1.0
 10
124.5221416445523
 20
6.858704266588282
 30
0.0
 10
124.5074476445523
 20
5.170365266588298
 30
0.0
 10
124.5518896445523
 20
3.479042266588303
 30
0.0
 10
124.4992196445523
 20
1.792615266588294
 30
0.0
  0
SPLINE
  5
8F
330
1F
100
AcDbEntity
  8
LAYER1
 62
     1
 48
25.39999961853027
100
AcDbSpline
210
0.0
220
0.0
230
1.0
 70
     8
 71
     3
 72
     8
 73
     4
 74
     0
 42
0.000000001
 43
0.0000001
 40
0.0
 40
0.0
 40
0.0
 40
0.0
 40
1.0
 40
1.0
 40
1.0
 40
1.0
 10
124.4992196445523
 20
1.792615266588294
 30
0.0
 10
124.4252246445523
 20
1.153247266588286
 30
0.0
 10
123.8114676445523
 20
0.7504892665882796
 30
0.0
 10
123.1955546445523
 20
0.7846952665882971
 30
0.0
  0
SPLINE
  5
90
330
1F
100
AcDbEntity
  8
LAYER1
 62
     1
 48
25.39999961853027
100
AcDbSpline
210
0.0
220
0.0
230
1.0
 70
     8
 71
     3
 72
     8
 73
     4
 74
     0
 42
0.000000001
 43
0.0000001
 40
0.0
 40
0.0
 40
0.0
 40
0.0
 40
1.0
 40
1.0
 40
1.0
 40
1.0
 10
128.8708296445523
 20
2.425175266588273
 30
0.0
 10
128.8597536445523
 20
3.838249266588303
 30
0.0
 10
128.8933896445523
 20
5.253090266588296
 30
0.0
 10
128.8532426445523
 20
6.6650162665883
 30
0.0
  0
SPLINE
  5
91
330
1F
100
AcDbEntity
  8
LAYER1
 62
     1
 48
25.39999961853027
100
AcDbSpline
210
0.0
220
0.0
230
1.0
 70
     8
 71
     3
 72
     8
 73
     4
 74
     0
 42
0.000000001
 43
0.0000001
 40
0.0
 40
0.0
 40
0.0
 40
0.0
 40
1.0
 40
1.0
 40
1.0
 40
1.0
 10
128.8532426445523
 20
6.6650162665883
 30
0.0
 10
128.6757346445523
 20
7.547804266588295
 30
0.0
 10
127.6238166445523
 20
7.385685266588272
 30
0.0
 10
126.9426106445523
 20
7.371693266588286
 30
0.0
  0
SPLINE
  5
92
330
1F
100
AcDbEntity
  8
LAYER1
 62
     1
 48
25.39999961853027
100
AcDbSpline
210
0.0
220
0.0
230
1.0
 70
     8
 71
     3
 72
     8
 73
     4
 74
     0
 42
0.000000001
 43
0.0000001
 40
0.0
 40
0.0
 40
0.0
 40
0.0
 40
1.0
 40
1.0
 40
1.0
 40
1.0
 10
126.9426106445523
 20
7.371693266588286
 30
0.0
 10
126.0192516445523
 20
7.362651266588292
 30
0.0
 10
126.0300926445523
 20
6.381834266588292
 30
0.0
 10
126.0655056445523
 20
5.710688266588281
 30
0.0
  0
SPLINE
  5
93
330
1F
100
AcDbEntity
  8
LAYER1
 62
     1
 48
25.39999961853027
100
AcDbSpline
210
0.0
220
0.0
230
1.0
 70
    24
 71
     3
 72
     8
 73
     4
 74
     0
 42
0.000000001
 43
0.0000001
 40
0.0
 40
0.0
 40
0.0
 40
0.0
 40
1.0
 40
1.0
 40
1.0
 40
1.0
 10
126.0655056445523
 20
5.710688266588281
 30
0.0
 10
126.0655056445523
 20
4.615494266588275
 30
0.0
 10
126.0655056445523
 20
3.520337266588292
 30
0.0
 10
126.0655056445523
 20
2.425175266588273
 30
0.0
  0
SPLINE
  5
94
330
1F
100
AcDbEntity
  8
LAYER1
 62
     1
 48
25.39999961853027
100
AcDbSpline
210
0.0
220
0.0
230
1.0
 70
     8
 71
     3
 72
     8
 73
     4
 74
     0
 42
0.000000001
 43
0.0000001
 40
0.0
 40
0.0
 40
0.0
 40
0.0
 40
1.0
 40
1.0
 40
1.0
 40
1.0
 10
126.0655056445523
 20
2.425175266588273
 30
0.0
 10
125.5587246445523
 20
2.298135266588297
 30
0.0
 10
125.8645656445523
 20
2.983767266588292
 30
0.0
 10
125.7819756445523
 20
3.280909266588286
 30
0.0
  0
SPLINE
  5
95
330
1F
100
AcDbEntity
  8
LAYER1
 62
     1
 48
25.39999961853027
100
AcDbSpline
210
0.0
220
0.0
230
1.0
 70
     8
 71
     3
 72
     8
 73
     4
 74
     0
 42
0.000000001
 43
0.0000001
 40
0.0
 40
0.0
 40
0.0
 40
0.0
 40
1.0
 40
1.0
 40
1.0
 40
1.0
 10
125.7819756445523
 20
3.280909266588286
 30
0.0
 10
125.8083786445523
 20
4.472825266588279
 30
0.0
 10
125.7255046445523
 20
5.673317266588275
 30
0.0
 10
125.8304276445523
 20
6.859152266588288
 30
0.0
  0
SPLINE
  5
96
330
1F
100
AcDbEntity
  8
LAYER1
 62
     1
 48
25.39999961853027
100
AcDbSpline
210
0.0
220
0.0
230
1.0
 70
     8
 71
     3
 72
     8
 73
     4
 74
     0
 42
0.000000001
 43
0.0000001
 40
0.0
 40
0.0
 40
0.0
 40
0.0
 40
1.0
 40
1.0
 40
1.0
 40
1.0
 10
125.8304276445523
 20
6.859152266588288
 30
0.0
 10
126.1048296445523
 20
7.863564266588289
 30
0.0
 10
127.2770926445523
 20
7.709086266588277
 30
0.0
 10
128.0862646445523
 20
7.680992266588282
 30
0.0
  0
SPLINE
  5
97
330
1F
100
AcDbEntity
  8
LAYER1
 62
     1
 48
25.39999961853027
100
AcDbSpline
210
0.0
220
0.0
230
1.0
 70
     8
 71
     3
 72
     8
 73
     4
 74
     0
 42
0.000000001
 43
0.0000001
 40
0.0
 40
0.0
 40
0.0
 40
0.0
 40
1.0
 40
1.0
 40
1.0
 40
1.0
 10
128.0862646445523
 20
7.680992266588282
 30
0.0
 10
129.0149136445523
 20
7.680992266588282
 30
0.0
 10
129.2737956445523
 20
6.702734266588305
 30
0.0
 10
129.1747266445523
 20
5.945006266588301
 30
0.0
  0
SPLINE
  5
98
330
1F
100
AcDbEntity
  8
LAYER1
 62
     1
 48
25.39999961853027
100
AcDbSpline
210
0.0
220
0.0
230
1.0
 70
    24
 71
     3
 72
     8
 73
     4
 74
     0
 42
0.000000001
 43
0.0000001
 40
0.0
 40
0.0
 40
0.0
 40
0.0
 40
1.0
 40
1.0
 40
1.0
 40
1.0
 10
129.1747266445523
 20
5.945006266588301
 30
0.0
 10
129.1747266445523
 20
4.771708266588296
 30
0.0
 10
129.1747266445523
 20
3.598442266588302
 30
0.0
 10
129.1747266445523
 20
2.425175266588273
 30
0.0
  0
SPLINE
  5
99
330
1F
100
AcDbEntity
  8
LAYER1
 62
     1
 48
25.39999961853027
100
AcDbSpline
210
0.0
220
0.0
230
1.0
 70
    24
 71
     3
 72
     8
 73
     4
 74
     0
 42
0.000000001
 43
0.0000001
 40
0.0
 40
0.0
 40
0.0
 40
0.0
 40
1.0
 40
1.0
 40
1.0
 40
1.0
 10
129.1747266445523
 20
2.425175266588273
 30
0.0
 10
129.0734336445523
 20
2.425175266588273
 30
0.0
 10
128.9721406445523
 20
2.425175266588273
 30
0.0
 10
128.8708436445523
 20
2.425175266588273
 30
0.0
  0
SPLINE
  5
9A
330
1F
100
AcDbEntity
  8
LAYER1
 62
     1
 48
25.39999961853027
100
AcDbSpline
210
0.0
220
0.0
230
1.0
 70
     8
 71
     3
 72
     8
 73
     4
 74
     0
 42
0.000000001
 43
0.0000001
 40
0.0
 40
0.0
 40
0.0
 40
0.0
 40
1.0
 40
1.0
 40
1.0
 40
1.0
 10
146.1622326445523
 20
2.425175266588273
 30
0.0
 10
146.1512016445523
 20
3.838249266588303
 30
0.0
 10
146.1847476445523
 20
5.253090266588296
 30
0.0
 10
146.1446466445523
 20
6.6650162665883
 30
0.0
  0
SPLINE
  5
9B
330
1F
100
AcDbEntity
  8
LAYER1
 62
     1
 48
25.39999961853027
100
AcDbSpline
210
0.0
220
0.0
230
1.0
 70
     8
 71
     3
 72
     8
 73
     4
 74
     0
 42
0.000000001
 43
0.0000001
 40
0.0
 40
0.0
 40
0.0
 40
0.0
 40
1.0
 40
1.0
 40
1.0
 40
1.0
 10
146.1446466445523
 20
6.6650162665883
 30
0.0
 10
145.9674906445523
 20
7.547908266588271
 30
0.0
 10
144.9154236445523
 20
7.385654266588296
 30
0.0
 10
144.2342986445523
 20
7.371693266588286
 30
0.0
  0
SPLINE
  5
9C
330
1F
100
AcDbEntity
  8
LAYER1
 62
     1
 48
25.39999961853027
100
AcDbSpline
210
0.0
220
0.0
230
1.0
 70
     8
 71
     3
 72
     8
 73
     4
 74
     0
 42
0.000000001
 43
0.0000001
 40
0.0
 40
0.0
 40
0.0
 40
0.0
 40
1.0
 40
1.0
 40
1.0
 40
1.0
 10
144.2342986445523
 20
7.371693266588286
 30
0.0
 10
143.3108806445523
 20
7.362651266588292
 30
0.0
 10
143.3219386445523
 20
6.381798266588281
 30
0.0
 10
143.3572936445523
 20
5.710688266588281
 30
0.0
  0
SPLINE
  5
9D
330
1F
100
AcDbEntity
  8
LAYER1
 62
     1
 48
25.39999961853027
100
AcDbSpline
210
0.0
220
0.0
230
1.0
 70
    24
 71
     3
 72
     8
 73
     4
 74
     0
 42
0.000000001
 43
0.0000001
 40
0.0
 40
0.0
 40
0.0
 40
0.0
 40
1.0
 40
1.0
 40
1.0
 40
1.0
 10
143.3572936445523
 20
5.710688266588281
 30
0.0
 10
143.3572936445523
 20
4.615494266588275
 30
0.0
 10
143.3572936445523
 20
3.520337266588292
 30
0.0
 10
143.3572936445523
 20
2.425175266588273
 30
0.0
  0
SPLINE
  5
9E
330
1F
100
AcDbEntity
  8
LAYER1
 62
     1
 48
25.39999961853027
100
AcDbSpline
210
0.0
220
0.0
230
1.0
 70
     8
 71
     3
 72
     8
 73
     4
 74
     0
 42
0.000000001
 43
0.0000001
 40
0.0
 40
0.0
 40
0.0
 40
0.0
 40
1.0
 40
1.0
 40
1.0
 40
1.0
 10
143.3572936445523
 20
2.425175266588273
 30
0.0
 10
142.8505076445523
 20
2.298135266588297
 30
0.0
 10
143.1563526445523
 20
2.983767266588292
 30
0.0
 10
143.0737586445523
 20
3.280909266588286
 30
0.0
  0
SPLINE
  5
9F
330
1F
100
AcDbEntity
  8
LAYER1
 62
     1
 48
25.39999961853027
100
AcDbSpline
210
0.0
220
0.0
230
1.0
 70
     8
 71
     3
 72
     8
 73
     4
 74
     0
 42
0.000000001
 43
0.0000001
 40
0.0
 40
0.0
 40
0.0
 40
0.0
 40
1.0
 40
1.0
 40
1.0
 40
1.0
 10
143.0737586445523
 20
3.280909266588286
 30
0.0
 10
143.1002066445523
 20
4.472825266588279
 30
0.0
 10
143.0172916445523
 20
5.673317266588275
 30
0.0
 10
143.1222146445523
 20
6.859152266588288
 30
0.0
  0
SPLINE
  5
A0
330
1F
100
AcDbEntity
  8
LAYER1
 62
     1
 48
25.39999961853027
100
AcDbSpline
210
0.0
220
0.0
230
1.0
 70
     8
 71
     3
 72
     8
 73
     4
 74
     0
 42
0.000000001
 43
0.0000001
 40
0.0
 40
0.0
 40
0.0
 40
0.0
 40
1.0
 40
1.0
 40
1.0
 40
1.0
 10
143.1222146445523
 20
6.859152266588288
 30
0.0
 10
143.3965446445523
 20
7.863392266588302
 30
0.0
 10
144.5685586445523
 20
7.7091582665883
 30
0.0
 10
145.3776316445523
 20
7.680992266588282
 30
0.0
  0
SPLINE
  5
A1
330
1F
100
AcDbEntity
  8
LAYER1
 62
     1
 48
25.39999961853027
100
AcDbSpline
210
0.0
220
0.0
230
1.0
 70
     8
 71
     3
 72
     8
 73
     4
 74
     0
 42
0.000000001
 43
0.0000001
 40
0.0
 40
0.0
 40
0.0
 40
0.0
 40
1.0
 40
1.0
 40
1.0
 40
1.0
 10
145.3776316445523
 20
7.680992266588282
 30
0.0
 10
146.3062806445523
 20
7.680992266588282
 30
0.0
 10
146.5651576445523
 20
6.702734266588305
 30
0.0
 10
146.4660936445523
 20
5.945006266588301
 30
0.0
  0
SPLINE
  5
A2
330
1F
100
AcDbEntity
  8
LAYER1
 62
     1
 48
25.39999961853027
100
AcDbSpline
210
0.0
220
0.0
230
1.0
 70
    24
 71
     3
 72
     8
 73
     4
 74
     0
 42
0.000000001
 43
0.0000001
 40
0.0
 40
0.0
 40
0.0
 40
0.0
 40
1.0
 40
1.0
 40
1.0
 40
1.0
 10
146.4660936445523
 20
5.945006266588301
 30
0.0
 10
146.4660936445523
 20
4.771708266588296
 30
0.0
 10
146.4660936445523
 20
3.598442266588302
 30
0.0
 10
146.4660936445523
 20
2.425175266588273
 30
0.0
  0
SPLINE
  5
A3
330
1F
100
AcDbEntity
  8
LAYER1
 62
     1
 48
25.39999961853027
100
AcDbSpline
210
0.0
220
0.0
230
1.0
 70
    24
 71
     3
 72
     8
 73
     4
 74
     0
 42
0.000000001
 43
0.0000001
 40
0.0
 40
0.0
 40
0.0
 40
0.0
 40
1.0
 40
1.0
 40
1.0
 40
1.0
 10
146.4660936445523
 20
2.425175266588273
 30
0.0
 10
146.3648006445523
 20
2.425175266588273
 30
0.0
 10
146.2635076445523
 20
2.425175266588273
 30
0.0
 10
146.1622106445523
 20
2.425175266588273
 30
0.0
  0
SPLINE
  5
A4
330
1F
100
AcDbEntity
  8
LAYER1
 62
     1
 48
25.39999961853027
100
AcDbSpline
210
0.0
220
0.0
230
1.0
 70
    24
 71
     3
 72
     8
 73
     4
 74
     0
 42
0.000000001
 43
0.0000001
 40
0.0
 40
0.0
 40
0.0
 40
0.0
 40
1.0
 40
1.0
 40
1.0
 40
1.0
 10
130.6299446445523
 20
7.386278266588302
 30
0.0
 10
130.6299446445523
 20
5.732533266588301
 30
0.0
 10
130.6299446445523
 20
4.078820266588298
 30
0.0
 10
130.6299446445523
 20
2.425071266588296
 30
0.0
  0
SPLINE
  5
A5
330
1F
100
AcDbEntity
  8
LAYER1
 62
     1
 48
25.39999961853027
100
AcDbSpline
210
0.0
220
0.0
230
1.0
 70
    24
 71
     3
 72
     8
 73
     4
 74
     0
 42
0.000000001
 43
0.0000001
 40
0.0
 40
0.0
 40
0.0
 40
0.0
 40
1.0
 40
1.0
 40
1.0
 40
1.0
 10
130.6299446445523
 20
2.425071266588296
 30
0.0
 10
130.5214506445523
 20
2.425071266588296
 30
0.0
 10
130.4129556445523
 20
2.425071266588296
 30
0.0
 10
130.3044606445523
 20
2.425071266588296
 30
0.0
  0
SPLINE
  5
A6
330
1F
100
AcDbEntity
  8
LAYER1
 62
     1
 48
25.39999961853027
100
AcDbSpline
210
0.0
220
0.0
230
1.0
 70
    24
 71
     3
 72
     8
 73
     4
 74
     0
 42
0.000000001
 43
0.0000001
 40
0.0
 40
0.0
 40
0.0
 40
0.0
 40
1.0
 40
1.0
 40
1.0
 40
1.0
 10
130.3044606445523
 20
2.425071266588296
 30
0.0
 10
130.3044606445523
 20
4.716832266588294
 30
0.0
 10
130.3044606445523
 20
7.008630266588292
 30
0.0
 10
130.3044606445523
 20
9.300391266588301
 30
0.0
  0
SPLINE
  5
A7
330
1F
100
AcDbEntity
  8
LAYER1
 62
     1
 48
25.39999961853027
100
AcDbSpline
210
0.0
220
0.0
230
1.0
 70
    24
 71
     3
 72
     8
 73
     4
 74
     0
 42
0.000000001
 43
0.0000001
 40
0.0
 40
0.0
 40
0.0
 40
0.0
 40
1.0
 40
1.0
 40
1.0
 40
1.0
 10
130.3044606445523
 20
9.300391266588301
 30
0.0
 10
130.4129556445523
 20
9.300391266588301
 30
0.0
 10
130.5214506445523
 20
9.300391266588301
 30
0.0
 10
130.6299446445523
 20
9.300391266588301
 30
0.0
  0
SPLINE
  5
A8
330
1F
100
AcDbEntity
  8
LAYER1
 62
     1
 48
25.39999961853027
100
AcDbSpline
210
0.0
220
0.0
230
1.0
 70
    24
 71
     3
 72
     8
 73
     4
 74
     0
 42
0.000000001
 43
0.0000001
 40
0.0
 40
0.0
 40
0.0
 40
0.0
 40
1.0
 40
1.0
 40
1.0
 40
1.0
 10
130.6299446445523
 20
9.300391266588301
 30
0.0
 10
130.6299446445523
 20
8.766913266588267
 30
0.0
 10
130.6299446445523
 20
8.2333992665883
 30
0.0
 10
130.6299446445523
 20
7.699917266588277
 30
0.0
  0
SPLINE
  5
A9
330
1F
100
AcDbEntity
  8
LAYER1
 62
     1
 48
25.39999961853027
100
AcDbSpline
210
0.0
220
0.0
230
1.0
 70
    24
 71
     3
 72
     8
 73
     4
 74
     0
 42
0.000000001
 43
0.0000001
 40
0.0
 40
0.0
 40
0.0
 40
0.0
 40
1.0
 40
1.0
 40
1.0
 40
1.0
 10
130.6299446445523
 20
7.699917266588277
 30
0.0
 10
131.0991296445523
 20
7.699917266588277
 30
0.0
 10
131.5683096445523
 20
7.699917266588277
 30
0.0
 10
132.0374946445523
 20
7.699917266588277
 30
0.0
  0
SPLINE
  5
AA
330
1F
100
AcDbEntity
  8
LAYER1
 62
     1
 48
25.39999961853027
100
AcDbSpline
210
0.0
220
0.0
230
1.0
 70
     8
 71
     3
 72
     8
 73
     4
 74
     0
 42
0.000000001
 43
0.0000001
 40
0.0
 40
0.0
 40
0.0
 40
0.0
 40
1.0
 40
1.0
 40
1.0
 40
1.0
 10
132.0374946445523
 20
7.699917266588277
 30
0.0
 10
132.0257846445523
 20
7.601219266588296
 30
0.0
 10
132.0609586445523
 20
7.455702266588298
 30
0.0
 10
132.0199076445523
 20
7.386278266588302
 30
0.0
  0
SPLINE
  5
AB
330
1F
100
AcDbEntity
  8
LAYER1
 62
     1
 48
25.39999961853027
100
AcDbSpline
210
0.0
220
0.0
230
1.0
 70
    24
 71
     3
 72
     8
 73
     4
 74
     0
 42
0.000000001
 43
0.0000001
 40
0.0
 40
0.0
 40
0.0
 40
0.0
 40
1.0
 40
1.0
 40
1.0
 40
1.0
 10
132.0199076445523
 20
7.386278266588302
 30
0.0
 10
131.5565776445523
 20
7.386278266588302
 30
0.0
 10
131.0932476445523
 20
7.386278266588302
 30
0.0
 10
130.6299136445523
 20
7.386278266588302
 30
0.0
  0
SPLINE
  5
AC
330
1F
100
AcDbEntity
  8
LAYER1
 62
     1
 48
25.39999961853027
100
AcDbSpline
210
0.0
220
0.0
230
1.0
 70
     8
 71
     3
 72
     8
 73
     4
 74
     0
 42
0.000000001
 43
0.0000001
 40
0.0
 40
0.0
 40
0.0
 40
0.0
 40
1.0
 40
1.0
 40
1.0
 40
1.0
 10
135.4490026445523
 20
2.425175266588273
 30
0.0
 10
135.4467416445523
 20
3.7377062665883
 30
0.0
 10
135.4541566445523
 20
5.050410266588292
 30
0.0
 10
135.4449336445523
 20
6.362837266588263
 30
0.0
  0
SPLINE
  5
AD
330
1F
100
AcDbEntity
  8
LAYER1
 62
     1
 48
25.39999961853027
100
AcDbSpline
210
0.0
220
0.0
230
1.0
 70
     8
 71
     3
 72
     8
 73
     4
 74
     0
 42
0.000000001
 43
0.0000001
 40
0.0
 40
0.0
 40
0.0
 40
0.0
 40
1.0
 40
1.0
 40
1.0
 40
1.0
 10
135.4449336445523
 20
6.362837266588263
 30
0.0
 10
135.4431246445523
 20
6.748261266588295
 30
0.0
 10
135.2684836445523
 20
7.185681266588293
 30
0.0
 10
134.8670736445523
 20
7.303204266588306
 30
0.0
  0
SPLINE
  5
AE
330
1F
100
AcDbEntity
  8
LAYER1
 62
     1
 48
25.39999961853027
100
AcDbSpline
210
0.0
220
0.0
230
1.0
 70
     8
 71
     3
 72
     8
 73
     4
 74
     0
 42
0.000000001
 43
0.0000001
 40
0.0
 40
0.0
 40
0.0
 40
0.0
 40
1.0
 40
1.0
 40
1.0
 40
1.0
 10
134.8670736445523
 20
7.303204266588306
 30
0.0
 10
134.4243776445523
 20
7.4371932665883
 30
0.0
 10
133.9570196445523
 20
7.3699212665883
 30
0.0
 10
133.5015146445523
 20
7.386418266588302
 30
0.0
  0
SPLINE
  5
AF
330
1F
100
AcDbEntity
  8
LAYER1
 62
     1
 48
25.39999961853027
100
AcDbSpline
210
0.0
220
0.0
230
1.0
 70
    24
 71
     3
 72
     8
 73
     4
 74
     0
 42
0.000000001
 43
0.0000001
 40
0.0
 40
0.0
 40
0.0
 40
0.0
 40
1.0
 40
1.0
 40
1.0
 40
1.0
 10
133.5015146445523
 20
7.386418266588302
 30
0.0
 10
133.2750036445523
 20
7.386418266588302
 30
0.0
 10
133.0484976445523
 20
7.386418266588302
 30
0.0
 10
132.8219916445523
 20
7.386418266588302
 30
0.0
  0
SPLINE
  5
B0
330
1F
100
AcDbEntity
  8
LAYER1
 62
     1
 48
25.39999961853027
100
AcDbSpline
210
0.0
220
0.0
230
1.0
 70
    24
 71
     3
 72
     8
 73
     4
 74
     0
 42
0.000000001
 43
0.0000001
 40
0.0
 40
0.0
 40
0.0
 40
0.0
 40
1.0
 40
1.0
 40
1.0
 40
1.0
 10
132.8219916445523
 20
7.386418266588302
 30
0.0
 10
132.8219916445523
 20
5.732669266588299
 30
0.0
 10
132.8219916445523
 20
4.078924266588298
 30
0.0
 10
132.8219916445523
 20
2.425175266588273
 30
0.0
  0
SPLINE
  5
B1
330
1F
100
AcDbEntity
  8
LAYER1
 62
     1
 48
25.39999961853027
100
AcDbSpline
210
0.0
220
0.0
230
1.0
 70
    24
 71
     3
 72
     8
 73
     4
 74
     0
 42
0.000000001
 43
0.0000001
 40
0.0
 40
0.0
 40
0.0
 40
0.0
 40
1.0
 40
1.0
 40
1.0
 40
1.0
 10
132.8219916445523
 20
2.425175266588273
 30
0.0
 10
132.7134966445523
 20
2.425175266588273
 30
0.0
 10
132.6050016445523
 20
2.425175266588273
 30
0.0
 10
132.4965066445523
 20
2.425175266588273
 30
0.0
  0
SPLINE
  5
B2
330
1F
100
AcDbEntity
  8
LAYER1
 62
     1
 48
25.39999961853027
100
AcDbSpline
210
0.0
220
0.0
230
1.0
 70
    24
 71
     3
 72
     8
 73
     4
 74
     0
 42
0.000000001
 43
0.0000001
 40
0.0
 40
0.0
 40
0.0
 40
0.0
 40
1.0
 40
1.0
 40
1.0
 40
1.0
 10
132.4965066445523
 20
2.425175266588273
 30
0.0
 10
132.4965066445523
 20
4.716972266588293
 30
0.0
 10
132.4965066445523
 20
7.008734266588302
 30
0.0
 10
132.4965066445523
 20
9.3005312665883
 30
0.0
  0
SPLINE
  5
B3
330
1F
100
AcDbEntity
  8
LAYER1
 62
     1
 48
25.39999961853027
100
AcDbSpline
210
0.0
220
0.0
230
1.0
 70
    24
 71
     3
 72
     8
 73
     4
 74
     0
 42
0.000000001
 43
0.0000001
 40
0.0
 40
0.0
 40
0.0
 40
0.0
 40
1.0
 40
1.0
 40
1.0
 40
1.0
 10
132.4965066445523
 20
9.3005312665883
 30
0.0
 10
132.6050016445523
 20
9.3005312665883
 30
0.0
 10
132.7134966445523
 20
9.3005312665883
 30
0.0
 10
132.8219916445523
 20
9.3005312665883
 30
0.0
  0
SPLINE
  5
B4
330
1F
100
AcDbEntity
  8
LAYER1
 62
     1
 48
25.39999961853027
100
AcDbSpline
210
0.0
220
0.0
230
1.0
 70
    24
 71
     3
 72
     8
 73
     4
 74
     0
 42
0.000000001
 43
0.0000001
 40
0.0
 40
0.0
 40
0.0
 40
0.0
 40
1.0
 40
1.0
 40
1.0
 40
1.0
 10
132.8219916445523
 20
9.3005312665883
 30
0.0
 10
132.8219916445523
 20
8.767049266588264
 30
0.0
 10
132.8219916445523
 20
8.233535266588298
 30
0.0
 10
132.8219916445523
 20
7.700057266588299
 30
0.0
  0
SPLINE
  5
B5
330
1F
100
AcDbEntity
  8
LAYER1
 62
     1
 48
25.39999961853027
100
AcDbSpline
210
0.0
220
0.0
230
1.0
 70
     8
 71
     3
 72
     8
 73
     4
 74
     0
 42
0.000000001
 43
0.0000001
 40
0.0
 40
0.0
 40
0.0
 40
0.0
 40
1.0
 40
1.0
 40
1.0
 40
1.0
 10
132.8219916445523
 20
7.700057266588299
 30
0.0
 10
133.4232976445523
 20
7.690337266588293
 30
0.0
 10
134.0267236445523
 20
7.725058266588283
 30
0.0
 10
134.6260546445523
 20
7.669495266588276
 30
0.0
  0
SPLINE
  5
B6
330
1F
100
AcDbEntity
  8
LAYER1
 62
     1
 48
25.39999961853027
100
AcDbSpline
210
0.0
220
0.0
230
1.0
 70
     8
 71
     3
 72
     8
 73
     4
 74
     0
 42
0.000000001
 43
0.0000001
 40
0.0
 40
0.0
 40
0.0
 40
0.0
 40
1.0
 40
1.0
 40
1.0
 40
1.0
 10
134.6260546445523
 20
7.669495266588276
 30
0.0
 10
135.0657986445523
 20
7.627450266588275
 30
0.0
 10
135.5329886445523
 20
7.393918266588291
 30
0.0
 10
135.6640026445523
 20
6.940666266588286
 30
0.0
  0
SPLINE
  5
B7
330
1F
100
AcDbEntity
  8
LAYER1
 62
     1
 48
25.39999961853027
100
AcDbSpline
210
0.0
220
0.0
230
1.0
 70
     8
 71
     3
 72
     8
 73
     4
 74
     0
 42
0.000000001
 43
0.0000001
 40
0.0
 40
0.0
 40
0.0
 40
0.0
 40
1.0
 40
1.0
 40
1.0
 40
1.0
 10
135.6640026445523
 20
6.940666266588286
 30
0.0
 10
135.8186396445523
 20
6.446810266588297
 30
0.0
 10
135.7451006445523
 20
5.923125266588293
 30
0.0
 10
135.7625336445523
 20
5.414133266588304
 30
0.0
  0
SPLINE
  5
B8
330
1F
100
AcDbEntity
  8
LAYER1
 62
     1
 48
25.39999961853027
100
AcDbSpline
210
0.0
220
0.0
230
1.0
 70
    24
 71
     3
 72
     8
 73
     4
 74
     0
 42
0.000000001
 43
0.0000001
 40
0.0
 40
0.0
 40
0.0
 40
0.0
 40
1.0
 40
1.0
 40
1.0
 40
1.0
 10
135.7625336445523
 20
5.414133266588304
 30
0.0
 10
135.7625336445523
 20
4.417850266588279
 30
0.0
 10
135.7625336445523
 20
3.421567266588287
 30
0.0
 10
135.7625336445523
 20
2.425279266588294
 30
0.0
  0
SPLINE
  5
B9
330
1F
100
AcDbEntity
  8
LAYER1
 62
     1
 48
25.39999961853027
100
AcDbSpline
210
0.0
220
0.0
230
1.0
 70
     8
 71
     3
 72
     8
 73
     4
 74
     0
 42
0.000000001
 43
0.0000001
 40
0.0
 40
0.0
 40
0.0
 40
0.0
 40
1.0
 40
1.0
 40
1.0
 40
1.0
 10
135.7625336445523
 20
2.425279266588294
 30
0.0
 10
135.6579946445523
 20
2.425279266588294
 30
0.0
 10
135.5533646445523
 20
2.425351266588283
 30
0.0
 10
135.4488896445523
 20
2.425247266588296
 30
0.0
  0
SPLINE
  5
BA
330
1F
100
AcDbEntity
  8
LAYER1
 62
     1
 48
25.39999961853027
100
AcDbSpline
210
0.0
220
0.0
230
1.0
 70
     8
 71
     3
 72
     8
 73
     4
 74
     0
 42
0.000000001
 43
0.0000001
 40
0.0
 40
0.0
 40
0.0
 40
0.0
 40
1.0
 40
1.0
 40
1.0
 40
1.0
 10
141.5770826445523
 20
5.745450266588284
 30
0.0
 10
140.8132736445523
 20
5.697351266588289
 30
0.0
 10
140.0158196445523
 20
5.863045266588297
 30
0.0
 10
139.2816056445523
 20
5.615597266588306
 30
0.0
  0
SPLINE
  5
BB
330
1F
100
AcDbEntity
  8
LAYER1
 62
     1
 48
25.39999961853027
100
AcDbSpline
210
0.0
220
0.0
230
1.0
 70
     8
 71
     3
 72
     8
 73
     4
 74
     0
 42
0.000000001
 43
0.0000001
 40
0.0
 40
0.0
 40
0.0
 40
0.0
 40
1.0
 40
1.0
 40
1.0
 40
1.0
 10
139.2816056445523
 20
5.615597266588306
 30
0.0
 10
138.5998206445523
 20
5.228641266588274
 30
0.0
 10
138.8653206445523
 20
4.364954266588263
 30
0.0
 10
138.8111596445523
 20
3.721417266588296
 30
0.0
  0
SPLINE
  5
BC
330
1F
100
AcDbEntity
  8
LAYER1
 62
     1
 48
25.39999961853027
100
AcDbSpline
210
0.0
220
0.0
230
1.0
 70
     8
 71
     3
 72
     8
 73
     4
 74
     0
 42
0.000000001
 43
0.0000001
 40
0.0
 40
0.0
 40
0.0
 40
0.0
 40
1.0
 40
1.0
 40
1.0
 40
1.0
 10
138.8111596445523
 20
3.721417266588296
 30
0.0
 10
138.7341486445523
 20
2.799871266588294
 30
0.0
 10
139.7492576445523
 20
2.648453266588295
 30
0.0
 10
140.4455316445523
 20
2.719094266588293
 30
0.0
  0
SPLINE
  5
BD
330
1F
100
AcDbEntity
  8
LAYER1
 62
     1
 48
25.39999961853027
100
AcDbSpline
210
0.0
220
0.0
230
1.0
 70
     8
 71
     3
 72
     8
 73
     4
 74
     0
 42
0.000000001
 43
0.0000001
 40
0.0
 40
0.0
 40
0.0
 40
0.0
 40
1.0
 40
1.0
 40
1.0
 40
1.0
 10
140.4455316445523
 20
2.719094266588293
 30
0.0
 10
141.3537496445523
 20
2.538394266588295
 30
0.0
 10
141.6943936445523
 20
3.459213266588303
 30
0.0
 10
141.5770826445523
 20
4.190579266588298
 30
0.0
  0
SPLINE
  5
BE
330
1F
100
AcDbEntity
  8
LAYER1
 62
     1
 48
25.39999961853027
100
AcDbSpline
210
0.0
220
0.0
230
1.0
 70
    24
 71
     3
 72
     8
 73
     4
 74
     0
 42
0.000000001
 43
0.0000001
 40
0.0
 40
0.0
 40
0.0
 40
0.0
 40
1.0
 40
1.0
 40
1.0
 40
1.0
 10
141.5770826445523
 20
4.190579266588298
 30
0.0
 10
141.5770826445523
 20
4.708880266588285
 30
0.0
 10
141.5770826445523
 20
5.227149266588274
 30
0.0
 10
141.5770826445523
 20
5.745450266588284
 30
0.0
  0
LINE
  5
BF
330
1F
100
AcDbEntity
  8
LAYER1
 62
     1
 48
25.39999961853027
100
AcDbLine
 10
135.4488896445523
 20
2.425247266588296
 30
0.0
 11
135.4490026445523
 21
2.425175266588273
 31
0.0
  0
SPLINE
  5
C0
330
1F
100
AcDbEntity
  8
LAYER1
 62
     1
 48
25.39999961853027
100
AcDbSpline
210
0.0
220
0.0
230
1.0
 70
     8
 71
     3
 72
     8
 73
     4
 74
     0
 42
0.000000001
 43
0.0000001
 40
0.0
 40
0.0
 40
0.0
 40
0.0
 40
1.0
 40
1.0
 40
1.0
 40
1.0
 10
141.5770826445523
 20
2.820432266588289
 30
0.0
 10
141.0493426445523
 20
2.242359266588302
 30
0.0
 10
140.1772236445523
 20
2.437924266588293
 30
0.0
 10
139.4844266445523
 20
2.470778266588287
 30
0.0
  0
SPLINE
  5
C1
330
1F
100
AcDbEntity
  8
LAYER1
 62
     1
 48
25.39999961853027
100
AcDbSpline
210
0.0
220
0.0
230
1.0
 70
     8
 71
     3
 72
     8
 73
     4
 74
     0
 42
0.000000001
 43
0.0000001
 40
0.0
 40
0.0
 40
0.0
 40
0.0
 40
1.0
 40
1.0
 40
1.0
 40
1.0
 10
139.4844266445523
 20
2.470778266588287
 30
0.0
 10
138.5595706445523
 20
2.626468266588299
 30
0.0
 10
138.4751186445523
 20
3.619939266588301
 30
0.0
 10
138.5276296445523
 20
4.374123266588274
 30
0.0
  0
SPLINE
  5
C2
330
1F
100
AcDbEntity
  8
LAYER1
 62
     1
 48
25.39999961853027
100
AcDbSpline
210
0.0
220
0.0
230
1.0
 70
     8
 71
     3
 72
     8
 73
     4
 74
     0
 42
0.000000001
 43
0.0000001
 40
0.0
 40
0.0
 40
0.0
 40
0.0
 40
1.0
 40
1.0
 40
1.0
 40
1.0
 10
138.5276296445523
 20
4.374123266588274
 30
0.0
 10
138.4106036445523
 20
5.124590266588263
 30
0.0
 10
138.8228236445523
 20
6.019499266588292
 30
0.0
 10
139.6776896445523
 20
6.023391266588297
 30
0.0
  0
SPLINE
  5
C3
330
1F
100
AcDbEntity
  8
LAYER1
 62
     1
 48
25.39999961853027
100
AcDbSpline
210
0.0
220
0.0
230
1.0
 70
     8
 71
     3
 72
     8
 73
     4
 74
     0
 42
0.000000001
 43
0.0000001
 40
0.0
 40
0.0
 40
0.0
 40
0.0
 40
1.0
 40
1.0
 40
1.0
 40
1.0
 10
139.6776896445523
 20
6.023391266588297
 30
0.0
 10
140.3106026445523
 20
6.036231266588278
 30
0.0
 10
140.9439806445523
 20
6.027008266588273
 30
0.0
 10
141.5770826445523
 20
6.029314266588294
 30
0.0
  0
SPLINE
  5
C4
330
1F
100
AcDbEntity
  8
LAYER1
 62
     1
 48
25.39999961853027
100
AcDbSpline
210
0.0
220
0.0
230
1.0
 70
     8
 71
     3
 72
     8
 73
     4
 74
     0
 42
0.000000001
 43
0.0000001
 40
0.0
 40
0.0
 40
0.0
 40
0.0
 40
1.0
 40
1.0
 40
1.0
 40
1.0
 10
141.5770826445523
 20
6.029314266588294
 30
0.0
 10
141.7460236445523
 20
6.856706266588279
 30
0.0
 10
141.0726566445523
 20
7.569111266588301
 30
0.0
 10
140.2284286445523
 20
7.386504266588295
 30
0.0
  0
SPLINE
  5
C5
330
1F
100
AcDbEntity
  8
LAYER1
 62
     1
 48
25.39999961853027
100
AcDbSpline
210
0.0
220
0.0
230
1.0
 70
    24
 71
     3
 72
     8
 73
     4
 74
     0
 42
0.000000001
 43
0.0000001
 40
0.0
 40
0.0
 40
0.0
 40
0.0
 40
1.0
 40
1.0
 40
1.0
 40
1.0
 10
140.2284286445523
 20
7.386504266588295
 30
0.0
 10
139.6614956445523
 20
7.386504266588295
 30
0.0
 10
139.0945626445523
 20
7.386504266588295
 30
0.0
 10
138.5276296445523
 20
7.386504266588295
 30
0.0
  0
SPLINE
  5
C6
330
1F
100
AcDbEntity
  8
LAYER1
 62
     1
 48
25.39999961853027
100
AcDbSpline
210
0.0
220
0.0
230
1.0
 70
     8
 71
     3
 72
     8
 73
     4
 74
     0
 42
0.000000001
 43
0.0000001
 40
0.0
 40
0.0
 40
0.0
 40
0.0
 40
1.0
 40
1.0
 40
1.0
 40
1.0
 10
138.5276296445523
 20
7.386504266588295
 30
0.0
 10
138.3690106445523
 20
7.914529266588278
 30
0.0
 10
139.0227606445523
 20
7.630199266588301
 30
0.0
 10
139.3222486445523
 20
7.700143266588293
 30
0.0
  0
SPLINE
  5
C7
330
1F
100
AcDbEntity
  8
LAYER1
 62
     1
 48
25.39999961853027
100
AcDbSpline
210
0.0
220
0.0
230
1.0
 70
     8
 71
     3
 72
     8
 73
     4
 74
     0
 42
0.000000001
 43
0.0000001
 40
0.0
 40
0.0
 40
0.0
 40
0.0
 40
1.0
 40
1.0
 40
1.0
 40
1.0
 10
139.3222486445523
 20
7.700143266588293
 30
0.0
 10
140.1498176445523
 20
7.657465266588293
 30
0.0
 10
141.2651886445523
 20
7.918037266588276
 30
0.0
 10
141.7394496445523
 20
7.039802266588271
 30
0.0
  0
SPLINE
  5
C8
330
1F
100
AcDbEntity
  8
LAYER1
 62
     1
 48
25.39999961853027
100
AcDbSpline
210
0.0
220
0.0
230
1.0
 70
     8
 71
     3
 72
     8
 73
     4
 74
     0
 42
0.000000001
 43
0.0000001
 40
0.0
 40
0.0
 40
0.0
 40
0.0
 40
1.0
 40
1.0
 40
1.0
 40
1.0
 10
141.7394496445523
 20
7.039802266588271
 30
0.0
 10
142.0028066445523
 20
6.174167266588261
 30
0.0
 10
141.8319226445523
 20
5.243072266588275
 30
0.0
 10
141.8809616445523
 20
4.34670726658829
 30
0.0
  0
SPLINE
  5
C9
330
1F
100
AcDbEntity
  8
LAYER1
 62
     1
 48
25.39999961853027
100
AcDbSpline
210
0.0
220
0.0
230
1.0
 70
     8
 71
     3
 72
     8
 73
     4
 74
     0
 42
0.000000001
 43
0.0000001
 40
0.0
 40
0.0
 40
0.0
 40
0.0
 40
1.0
 40
1.0
 40
1.0
 40
1.0
 10
141.8809616445523
 20
4.34670726658829
 30
0.0
 10
141.8587186445523
 20
3.82854226658829
 30
0.0
 10
141.9855956445523
 20
3.228836266588294
 30
0.0
 10
141.5770826445523
 20
2.820731266588271
 30
0.0
  0
SPLINE
  5
CA
330
1F
100
AcDbEntity
  8
LAYER1
 62
     1
 48
25.39999961853027
100
AcDbSpline
210
0.0
220
0.0
230
1.0
 70
     8
 71
     3
 72
     8
 73
     4
 74
     0
 42
0.000000001
 43
0.0000001
 40
0.0
 40
0.0
 40
0.0
 40
0.0
 40
1.0
 40
1.0
 40
1.0
 40
1.0
 10
117.3015166445523
 20
2.423963266588294
 30
0.0
 10
118.1781926445523
 20
2.453847266588293
 30
0.0
 10
119.0679196445523
 20
2.356067266588288
 30
0.0
 10
119.9343826445523
 20
2.489427266588284
 30
0.0
  0
SPLINE
  5
CB
330
1F
100
AcDbEntity
  8
LAYER1
 62
     1
 48
25.39999961853027
100
AcDbSpline
210
0.0
220
0.0
230
1.0
 70
     8
 71
     3
 72
     8
 73
     4
 74
     0
 42
0.000000001
 43
0.0000001
 40
0.0
 40
0.0
 40
0.0
 40
0.0
 40
1.0
 40
1.0
 40
1.0
 40
1.0
 10
119.9343826445523
 20
2.489427266588284
 30
0.0
 10
120.4792666445523
 20
2.801227266588262
 30
0.0
 10
120.2348666445523
 20
3.507868266588293
 30
0.0
 10
120.2911976445523
 20
4.025789266588296
 30
0.0
  0
SPLINE
  5
CC
330
1F
100
AcDbEntity
  8
LAYER1
 62
     1
 48
25.39999961853027
100
AcDbSpline
210
0.0
220
0.0
230
1.0
 70
     8
 71
     3
 72
     8
 73
     4
 74
     0
 42
0.000000001
 43
0.0000001
 40
0.0
 40
0.0
 40
0.0
 40
0.0
 40
1.0
 40
1.0
 40
1.0
 40
1.0
 10
120.2911976445523
 20
4.025789266588296
 30
0.0
 10
119.7644476445523
 20
4.186031266588298
 30
0.0
 10
120.0320766445523
 20
3.551902266588294
 30
0.0
 10
119.9695336445523
 20
3.247951266588293
 30
0.0
  0
SPLINE
  5
CD
330
1F
100
AcDbEntity
  8
LAYER1
 62
     1
 48
25.39999961853027
100
AcDbSpline
210
0.0
220
0.0
230
1.0
 70
     8
 71
     3
 72
     8
 73
     4
 74
     0
 42
0.000000001
 43
0.0000001
 40
0.0
 40
0.0
 40
0.0
 40
0.0
 40
1.0
 40
1.0
 40
1.0
 40
1.0
 10
119.9695336445523
 20
3.247951266588293
 30
0.0
 10
120.0500526445523
 20
2.578473266588293
 30
0.0
 10
119.2314086445523
 20
2.741491266588274
 30
0.0
 10
118.7953626445523
 20
2.723710266588292
 30
0.0
  0
SPLINE
  5
CE
330
1F
100
AcDbEntity
  8
LAYER1
 62
     1
 48
25.39999961853027
100
AcDbSpline
210
0.0
220
0.0
230
1.0
 70
    24
 71
     3
 72
     8
 73
     4
 74
     0
 42
0.000000001
 43
0.0000001
 40
0.0
 40
0.0
 40
0.0
 40
0.0
 40
1.0
 40
1.0
 40
1.0
 40
1.0
 10
118.7953626445523
 20
2.723710266588292
 30
0.0
 10
118.3019136445523
 20
2.723710266588292
 30
0.0
 10
117.8084696445523
 20
2.723710266588292
 30
0.0
 10
117.3150256445523
 20
2.723710266588292
 30
0.0
  0
SPLINE
  5
CF
330
1F
100
AcDbEntity
  8
LAYER1
 62
     1
 48
25.39999961853027
100
AcDbSpline
210
0.0
220
0.0
230
1.0
 70
     8
 71
     3
 72
     8
 73
     4
 74
     0
 42
0.000000001
 43
0.0000001
 40
0.0
 40
0.0
 40
0.0
 40
0.0
 40
1.0
 40
1.0
 40
1.0
 40
1.0
 10
117.3150256445523
 20
2.723710266588292
 30
0.0
 10
118.2635036445523
 20
4.282193266588298
 30
0.0
 10
119.2958736445523
 20
5.800321266588274
 30
0.0
 10
120.1948106445523
 20
7.382629266588306
 30
0.0
  0
SPLINE
  5
D0
330
1F
100
AcDbEntity
  8
LAYER1
 62
     1
 48
25.39999961853027
100
AcDbSpline
210
0.0
220
0.0
230
1.0
 70
     8
 71
     3
 72
     8
 73
     4
 74
     0
 42
0.000000001
 43
0.0000001
 40
0.0
 40
0.0
 40
0.0
 40
0.0
 40
1.0
 40
1.0
 40
1.0
 40
1.0
 10
120.1948106445523
 20
7.382629266588306
 30
0.0
 10
120.0599126445523
 20
7.910659266588291
 30
0.0
 10
119.3488136445523
 20
7.610768266588304
 30
0.0
 10
118.9308656445523
 20
7.689985266588272
 30
0.0
  0
SPLINE
  5
D1
330
1F
100
AcDbEntity
  8
LAYER1
 62
     1
 48
25.39999961853027
100
AcDbSpline
210
0.0
220
0.0
230
1.0
 70
    24
 71
     3
 72
     8
 73
     4
 74
     0
 42
0.000000001
 43
0.0000001
 40
0.0
 40
0.0
 40
0.0
 40
0.0
 40
1.0
 40
1.0
 40
1.0
 40
1.0
 10
118.9308656445523
 20
7.689985266588272
 30
0.0
 10
118.2699056445523
 20
7.689985266588272
 30
0.0
 10
117.6089356445523
 20
7.689985266588272
 30
0.0
 10
116.9479706445523
 20
7.689985266588272
 30
0.0
  0
SPLINE
  5
D2
330
1F
100
AcDbEntity
  8
LAYER1
 62
     1
 48
25.39999961853027
100
AcDbSpline
210
0.0
220
0.0
230
1.0
 70
     8
 71
     3
 72
     8
 73
     4
 74
     0
 42
0.000000001
 43
0.0000001
 40
0.0
 40
0.0
 40
0.0
 40
0.0
 40
1.0
 40
1.0
 40
1.0
 40
1.0
 10
116.9479706445523
 20
7.689985266588272
 30
0.0
 10
116.8127246445523
 20
7.169460266588278
 30
0.0
 10
117.4960556445523
 20
7.467542266588288
 30
0.0
 10
117.8037136445523
 20
7.389926266588299
 30
0.0
  0
SPLINE
  5
D3
330
1F
100
AcDbEntity
  8
LAYER1
 62
     1
 48
25.39999961853027
100
AcDbSpline
210
0.0
220
0.0
230
1.0
 70
    24
 71
     3
 72
     8
 73
     4
 74
     0
 42
0.000000001
 43
0.0000001
 40
0.0
 40
0.0
 40
0.0
 40
0.0
 40
1.0
 40
1.0
 40
1.0
 40
1.0
 10
117.8037136445523
 20
7.389926266588299
 30
0.0
 10
118.4842326445523
 20
7.389926266588299
 30
0.0
 10
119.1647556445523
 20
7.389926266588299
 30
0.0
 10
119.8452736445523
 20
7.389926266588299
 30
0.0
  0
SPLINE
  5
D4
330
1F
100
AcDbEntity
  8
LAYER1
 62
     1
 48
25.39999961853027
100
AcDbSpline
210
0.0
220
0.0
230
1.0
 70
     8
 71
     3
 72
     8
 73
     4
 74
     0
 42
0.000000001
 43
0.0000001
 40
0.0
 40
0.0
 40
0.0
 40
0.0
 40
1.0
 40
1.0
 40
1.0
 40
1.0
 10
119.8452736445523
 20
7.389926266588299
 30
0.0
 10
118.8945626445523
 20
5.830331266588279
 30
0.0
 10
117.8858646445523
 20
4.301818266588289
 30
0.0
 10
116.9676186445523
 20
2.725170266588282
 30
0.0
  0
SPLINE
  5
D5
330
1F
100
AcDbEntity
  8
LAYER1
 62
     1
 48
25.39999961853027
100
AcDbSpline
210
0.0
220
0.0
230
1.0
 70
     8
 71
     3
 72
     8
 73
     4
 74
     0
 42
0.000000001
 43
0.0000001
 40
0.0
 40
0.0
 40
0.0
 40
0.0
 40
1.0
 40
1.0
 40
1.0
 40
1.0
 10
116.9676186445523
 20
2.725170266588282
 30
0.0
 10
116.8849386445523
 20
2.519745266588298
 30
0.0
 10
117.1342486445523
 20
2.38909326658828
 30
0.0
 10
117.3014446445523
 20
2.424031266588293
 30
0.0
  0
SPLINE
  5
D6
330
1F
100
AcDbEntity
  8
LAYER1
 62
     1
 48
25.39999961853027
100
AcDbSpline
210
0.0
220
0.0
230
1.0
 70
    24
 71
     3
 72
     8
 73
     4
 74
     0
 42
0.000000001
 43
0.0000001
 40
0.0
 40
0.0
 40
0.0
 40
0.0
 40
1.0
 40
1.0
 40
1.0
 40
1.0
 10
136.9919956445523
 20
2.425175266588273
 30
0.0
 10
136.9919956445523
 20
4.183459266588294
 30
0.0
 10
136.9919956445523
 20
5.94177426658829
 30
0.0
 10
136.9919956445523
 20
7.700057266588299
 30
0.0
  0
SPLINE
  5
D7
330
1F
100
AcDbEntity
  8
LAYER1
 62
     1
 48
25.39999961853027
100
AcDbSpline
210
0.0
220
0.0
230
1.0
 70
     8
 71
     3
 72
     8
 73
     4
 74
     0
 42
0.000000001
 43
0.0000001
 40
0.0
 40
0.0
 40
0.0
 40
0.0
 40
1.0
 40
1.0
 40
1.0
 40
1.0
 10
136.9919956445523
 20
7.700057266588299
 30
0.0
 10
137.5046186445523
 20
7.860232266588291
 30
0.0
 10
137.2463656445523
 20
7.249581266588284
 30
0.0
 10
137.3077556445523
 20
6.958551266588278
 30
0.0
  0
SPLINE
  5
D8
330
1F
100
AcDbEntity
  8
LAYER1
 62
     1
 48
25.39999961853027
100
AcDbSpline
210
0.0
220
0.0
230
1.0
 70
    24
 71
     3
 72
     8
 73
     4
 74
     0
 42
0.000000001
 43
0.0000001
 40
0.0
 40
0.0
 40
0.0
 40
0.0
 40
1.0
 40
1.0
 40
1.0
 40
1.0
 10
137.3077556445523
 20
6.958551266588278
 30
0.0
 10
137.3077556445523
 20
5.447403266588307
 30
0.0
 10
137.3077556445523
 20
3.93629126658829
 30
0.0
 10
137.3077556445523
 20
2.425175266588273
 30
0.0
  0
SPLINE
  5
D9
330
1F
100
AcDbEntity
  8
LAYER1
 62
     1
 48
25.39999961853027
100
AcDbSpline
210
0.0
220
0.0
230
1.0
 70
    24
 71
     3
 72
     8
 73
     4
 74
     0
 42
0.000000001
 43
0.0000001
 40
0.0
 40
0.0
 40
0.0
 40
0.0
 40
1.0
 40
1.0
 40
1.0
 40
1.0
 10
137.3077556445523
 20
2.425175266588273
 30
0.0
 10
137.2025026445523
 20
2.425175266588273
 30
0.0
 10
137.0972496445523
 20
2.425175266588273
 30
0.0
 10
136.9919956445523
 20
2.425175266588273
 30
0.0
  0
SPLINE
  5
DA
330
1F
100
AcDbEntity
  8
LAYER1
 62
     1
 48
25.39999961853027
100
AcDbSpline
210
0.0
220
0.0
230
1.0
 70
    11
 71
     3
 72
     8
 73
     4
 74
     0
 42
0.000000001
 43
0.0000001
 40
0.0
 40
0.0
 40
0.0
 40
0.0
 40
1.0
 40
1.0
 40
1.0
 40
1.0
 10
137.4109026445523
 20
8.444033266588269
 30
0.0
 10
136.7662806445523
 20
7.437609266588273
 30
0.0
 10
136.7608016445523
 20
9.428231266588293
 30
0.0
 10
137.4109026445523
 20
8.444033266588269
 30
0.0
  0
SPLINE
  5
DB
330
1F
100
AcDbEntity
  8
LAYER1
 62
     1
 48
25.39999961853027
100
AcDbSpline
210
0.0
220
0.0
230
1.0
 70
     8
 71
     3
 72
     8
 73
     4
 74
     0
 42
0.000000001
 43
0.0000001
 40
0.0
 40
0.0
 40
0.0
 40
0.0
 40
1.0
 40
1.0
 40
1.0
 40
1.0
 10
142.0737916445523
 20
12.8593972665883
 30
0.0
 10
135.0528826445523
 20
12.87088026658828
 30
0.0
 10
128.0305016445523
 20
12.8364042665883
 30
0.0
 10
121.0105106445523
 20
12.87712426658829
 30
0.0
  0
SPLINE
  5
DC
330
1F
100
AcDbEntity
  8
LAYER1
 62
     1
 48
25.39999961853027
100
AcDbSpline
210
0.0
220
0.0
230
1.0
 70
     8
 71
     3
 72
     8
 73
     4
 74
     0
 42
0.000000001
 43
0.0000001
 40
0.0
 40
0.0
 40
0.0
 40
0.0
 40
1.0
 40
1.0
 40
1.0
 40
1.0
 10
121.0105106445523
 20
12.87712426658829
 30
0.0
 10
119.1386446445523
 20
13.0160272665883
 30
0.0
 10
117.7418376445523
 20
14.87765726658829
 30
0.0
 10
117.9667466445523
 20
16.70923826658827
 30
0.0
  0
SPLINE
  5
DD
330
1F
100
AcDbEntity
  8
LAYER1
 62
     1
 48
25.39999961853027
100
AcDbSpline
210
0.0
220
0.0
230
1.0
 70
    24
 71
     3
 72
     8
 73
     4
 74
     0
 42
0.000000001
 43
0.0000001
 40
0.0
 40
0.0
 40
0.0
 40
0.0
 40
1.0
 40
1.0
 40
1.0
 40
1.0
 10
117.9667466445523
 20
16.70923826658827
 30
0.0
 10
117.9667466445523
 20
19.49707326658828
 30
0.0
 10
117.9667466445523
 20
22.28491626658826
 30
0.0
 10
117.9667466445523
 20
25.07272726658828
 30
0.0
  0
SPLINE
  5
DE
330
1F
100
AcDbEntity
  8
LAYER1
 62
     1
 48
25.39999961853027
100
AcDbSpline
210
0.0
220
0.0
230
1.0
 70
     8
 71
     3
 72
     8
 73
     4
 74
     0
 42
0.000000001
 43
0.0000001
 40
0.0
 40
0.0
 40
0.0
 40
0.0
 40
1.0
 40
1.0
 40
1.0
 40
1.0
 10
117.9667466445523
 20
25.07272726658828
 30
0.0
 10
119.1921246445523
 20
25.0399272665883
 30
0.0
 10
120.4334276445523
 20
25.14080726658829
 30
0.0
 10
121.6480186445523
 20
25.01693726658829
 30
0.0
  0
SPLINE
  5
DF
330
1F
100
AcDbEntity
  8
LAYER1
 62
     1
 48
25.39999961853027
100
AcDbSpline
210
0.0
220
0.0
230
1.0
 70
     8
 71
     3
 72
     8
 73
     4
 74
     0
 42
0.000000001
 43
0.0000001
 40
0.0
 40
0.0
 40
0.0
 40
0.0
 40
1.0
 40
1.0
 40
1.0
 40
1.0
 10
121.6480186445523
 20
25.01693726658829
 30
0.0
 10
122.1032986445523
 20
24.5648732665883
 30
0.0
 10
121.8252846445523
 20
23.80566226658829
 30
0.0
 10
121.9020826445523
 20
23.2129052665883
 30
0.0
  0
SPLINE
  5
E0
330
1F
100
AcDbEntity
  8
LAYER1
 62
     1
 48
25.39999961853027
100
AcDbSpline
210
0.0
220
0.0
230
1.0
 70
     8
 71
     3
 72
     8
 73
     4
 74
     0
 42
0.000000001
 43
0.0000001
 40
0.0
 40
0.0
 40
0.0
 40
0.0
 40
1.0
 40
1.0
 40
1.0
 40
1.0
 10
121.9020826445523
 20
23.2129052665883
 30
0.0
 10
121.9159466445523
 20
22.16108626658828
 30
0.0
 10
121.7034646445523
 20
20.8021142665883
 30
0.0
 10
122.8158316445523
 20
20.21122026658829
 30
0.0
  0
SPLINE
  5
E1
330
1F
100
AcDbEntity
  8
LAYER1
 62
     1
 48
25.39999961853027
100
AcDbSpline
210
0.0
220
0.0
230
1.0
 70
     8
 71
     3
 72
     8
 73
     4
 74
     0
 42
0.000000001
 43
0.0000001
 40
0.0
 40
0.0
 40
0.0
 40
0.0
 40
1.0
 40
1.0
 40
1.0
 40
1.0
 10
122.8158316445523
 20
20.21122026658829
 30
0.0
 10
123.8659896445523
 20
19.5453802665883
 30
0.0
 10
125.2846056445523
 20
20.45537526658829
 30
0.0
 10
125.2364066445523
 20
21.67117326658829
 30
0.0
  0
SPLINE
  5
E2
330
1F
100
AcDbEntity
  8
LAYER1
 62
     1
 48
25.39999961853027
100
AcDbSpline
210
0.0
220
0.0
230
1.0
 70
     8
 71
     3
 72
     8
 73
     4
 74
     0
 42
0.000000001
 43
0.0000001
 40
0.0
 40
0.0
 40
0.0
 40
0.0
 40
1.0
 40
1.0
 40
1.0
 40
1.0
 10
125.2364066445523
 20
21.67117326658829
 30
0.0
 10
125.2727736445523
 20
23.72070626658827
 30
0.0
 10
125.2109276445523
 20
25.77350026658826
 30
0.0
 10
125.2679186445523
 20
27.8216772665883
 30
0.0
  0
SPLINE
  5
E3
330
1F
100
AcDbEntity
  8
LAYER1
 62
     1
 48
25.39999961853027
100
AcDbSpline
210
0.0
220
0.0
230
1.0
 70
     8
 71
     3
 72
     8
 73
     4
 74
     0
 42
0.000000001
 43
0.0000001
 40
0.0
 40
0.0
 40
0.0
 40
0.0
 40
1.0
 40
1.0
 40
1.0
 40
1.0
 10
125.2679186445523
 20
27.8216772665883
 30
0.0
 10
125.4187446445523
 20
29.55396526658827
 30
0.0
 10
127.6750846445523
 20
28.61376526658829
 30
0.0
 10
127.1984986445523
 20
27.19615726658828
 30
0.0
  0
SPLINE
  5
E4
330
1F
100
AcDbEntity
  8
LAYER1
 62
     1
 48
25.39999961853027
100
AcDbSpline
210
0.0
220
0.0
230
1.0
 70
     8
 71
     3
 72
     8
 73
     4
 74
     0
 42
0.000000001
 43
0.0000001
 40
0.0
 40
0.0
 40
0.0
 40
0.0
 40
1.0
 40
1.0
 40
1.0
 40
1.0
 10
127.1984986445523
 20
27.19615726658828
 30
0.0
 10
127.2054306445523
 20
24.3155032665883
 30
0.0
 10
127.1850316445523
 20
21.43429126658827
 30
0.0
 10
127.2088966445523
 20
18.55406926658829
 30
0.0
  0
SPLINE
  5
E5
330
1F
100
AcDbEntity
  8
LAYER1
 62
     1
 48
25.39999961853027
100
AcDbSpline
210
0.0
220
0.0
230
1.0
 70
     8
 71
     3
 72
     8
 73
     4
 74
     0
 42
0.000000001
 43
0.0000001
 40
0.0
 40
0.0
 40
0.0
 40
0.0
 40
1.0
 40
1.0
 40
1.0
 40
1.0
 10
127.2088966445523
 20
18.55406926658829
 30
0.0
 10
127.1736166445523
 20
17.14627126658828
 30
0.0
 10
128.9777106445523
 20
16.12077226658829
 30
0.0
 10
130.0820096445523
 20
17.0898462665883
 30
0.0
  0
SPLINE
  5
E6
330
1F
100
AcDbEntity
  8
LAYER1
 62
     1
 48
25.39999961853027
100
AcDbSpline
210
0.0
220
0.0
230
1.0
 70
     8
 71
     3
 72
     8
 73
     4
 74
     0
 42
0.000000001
 43
0.0000001
 40
0.0
 40
0.0
 40
0.0
 40
0.0
 40
1.0
 40
1.0
 40
1.0
 40
1.0
 10
130.0820096445523
 20
17.0898462665883
 30
0.0
 10
131.0988536445523
 20
18.01897526658826
 30
0.0
 10
130.6819836445523
 20
19.49346426658829
 30
0.0
 10
130.7707626445523
 20
20.7120052665883
 30
0.0
  0
SPLINE
  5
E7
330
1F
100
AcDbEntity
  8
LAYER1
 62
     1
 48
25.39999961853027
100
AcDbSpline
210
0.0
220
0.0
230
1.0
 70
     8
 71
     3
 72
     8
 73
     4
 74
     0
 42
0.000000001
 43
0.0000001
 40
0.0
 40
0.0
 40
0.0
 40
0.0
 40
1.0
 40
1.0
 40
1.0
 40
1.0
 10
130.7707626445523
 20
20.7120052665883
 30
0.0
 10
130.7776946445523
 20
23.93057126658828
 30
0.0
 10
130.7565016445523
 20
27.14991026658829
 30
0.0
 10
130.7811606445523
 20
30.3678442665883
 30
0.0
  0
SPLINE
  5
E8
330
1F
100
AcDbEntity
  8
LAYER1
 62
     1
 48
25.39999961853027
100
AcDbSpline
210
0.0
220
0.0
230
1.0
 70
     8
 71
     3
 72
     8
 73
     4
 74
     0
 42
0.000000001
 43
0.0000001
 40
0.0
 40
0.0
 40
0.0
 40
0.0
 40
1.0
 40
1.0
 40
1.0
 40
1.0
 10
130.7811606445523
 20
30.3678442665883
 30
0.0
 10
130.9805716445523
 20
31.72619126658829
 30
0.0
 10
133.0218876445523
 20
31.13866826658827
 30
0.0
 10
132.6603456445523
 20
29.89698626658828
 30
0.0
  0
SPLINE
  5
E9
330
1F
100
AcDbEntity
  8
LAYER1
 62
     1
 48
25.39999961853027
100
AcDbSpline
210
0.0
220
0.0
230
1.0
 70
     8
 71
     3
 72
     8
 73
     4
 74
     0
 42
0.000000001
 43
0.0000001
 40
0.0
 40
0.0
 40
0.0
 40
0.0
 40
1.0
 40
1.0
 40
1.0
 40
1.0
 10
132.6603456445523
 20
29.89698626658828
 30
0.0
 10
132.6672776445523
 20
26.11128026658828
 30
0.0
 10
132.6467716445523
 20
22.32514126658829
 30
0.0
 10
132.6707436445523
 20
18.53989026658828
 30
0.0
  0
SPLINE
  5
EA
330
1F
100
AcDbEntity
  8
LAYER1
 62
     1
 48
25.39999961853027
100
AcDbSpline
210
0.0
220
0.0
230
1.0
 70
     8
 71
     3
 72
     8
 73
     4
 74
     0
 42
0.000000001
 43
0.0000001
 40
0.0
 40
0.0
 40
0.0
 40
0.0
 40
1.0
 40
1.0
 40
1.0
 40
1.0
 10
132.6707436445523
 20
18.53989026658828
 30
0.0
 10
132.6250576445523
 20
17.25028426658828
 30
0.0
 10
134.1189326445523
 20
16.2274292665883
 30
0.0
 10
135.2564496445523
 20
16.9338402665883
 30
0.0
  0
SPLINE
  5
EB
330
1F
100
AcDbEntity
  8
LAYER1
 62
     1
 48
25.39999961853027
100
AcDbSpline
210
0.0
220
0.0
230
1.0
 70
     8
 71
     3
 72
     8
 73
     4
 74
     0
 42
0.000000001
 43
0.0000001
 40
0.0
 40
0.0
 40
0.0
 40
0.0
 40
1.0
 40
1.0
 40
1.0
 40
1.0
 10
135.2564496445523
 20
16.9338402665883
 30
0.0
 10
136.5124666445523
 20
17.63971426658829
 30
0.0
 10
136.1896616445523
 20
19.20368726658828
 30
0.0
 10
136.2325216445523
 20
20.40601426658829
 30
0.0
  0
SPLINE
  5
EC
330
1F
100
AcDbEntity
  8
LAYER1
 62
     1
 48
25.39999961853027
100
AcDbSpline
210
0.0
220
0.0
230
1.0
 70
     8
 71
     3
 72
     8
 73
     4
 74
     0
 42
0.000000001
 43
0.0000001
 40
0.0
 40
0.0
 40
0.0
 40
0.0
 40
1.0
 40
1.0
 40
1.0
 40
1.0
 10
136.2325216445523
 20
20.40601426658829
 30
0.0
 10
136.2467036445523
 20
22.86917926658829
 30
0.0
 10
136.2039816445523
 20
25.3343532665883
 30
0.0
 10
136.2544296445523
 20
27.7960812665883
 30
0.0
  0
SPLINE
  5
ED
330
1F
100
AcDbEntity
  8
LAYER1
 62
     1
 48
25.39999961853027
100
AcDbSpline
210
0.0
220
0.0
230
1.0
 70
     8
 71
     3
 72
     8
 73
     4
 74
     0
 42
0.000000001
 43
0.0000001
 40
0.0
 40
0.0
 40
0.0
 40
0.0
 40
1.0
 40
1.0
 40
1.0
 40
1.0
 10
136.2544296445523
 20
27.7960812665883
 30
0.0
 10
136.4111686445523
 20
29.4710502665883
 30
0.0
 10
138.6287336445523
 20
28.72432726658829
 30
0.0
 10
138.1849986445523
 20
27.27260026658829
 30
0.0
  0
SPLINE
  5
EE
330
1F
100
AcDbEntity
  8
LAYER1
 62
     1
 48
25.39999961853027
100
AcDbSpline
210
0.0
220
0.0
230
1.0
 70
     8
 71
     3
 72
     8
 73
     4
 74
     0
 42
0.000000001
 43
0.0000001
 40
0.0
 40
0.0
 40
0.0
 40
0.0
 40
1.0
 40
1.0
 40
1.0
 40
1.0
 10
138.1849986445523
 20
27.27260026658829
 30
0.0
 10
138.2077796445523
 20
25.33028126658829
 30
0.0
 10
138.1380266445523
 20
23.3832622665883
 30
0.0
 10
138.2226566445523
 20
21.4441232665883
 30
0.0
  0
SPLINE
  5
EF
330
1F
100
AcDbEntity
  8
LAYER1
 62
     1
 48
25.39999961853027
100
AcDbSpline
210
0.0
220
0.0
230
1.0
 70
     8
 71
     3
 72
     8
 73
     4
 74
     0
 42
0.000000001
 43
0.0000001
 40
0.0
 40
0.0
 40
0.0
 40
0.0
 40
1.0
 40
1.0
 40
1.0
 40
1.0
 10
138.2226566445523
 20
21.4441232665883
 30
0.0
 10
138.2965816445523
 20
20.16638926658826
 30
0.0
 10
139.9650116445523
 20
19.52615626658829
 30
0.0
 10
140.8842616445523
 20
20.39663026658829
 30
0.0
  0
SPLINE
  5
F0
330
1F
100
AcDbEntity
  8
LAYER1
 62
     1
 48
25.39999961853027
100
AcDbSpline
210
0.0
220
0.0
230
1.0
 70
     8
 71
     3
 72
     8
 73
     4
 74
     0
 42
0.000000001
 43
0.0000001
 40
0.0
 40
0.0
 40
0.0
 40
0.0
 40
1.0
 40
1.0
 40
1.0
 40
1.0
 10
140.8842616445523
 20
20.39663026658829
 30
0.0
 10
141.8434166445523
 20
21.24285726658828
 30
0.0
 10
141.4430066445523
 20
22.60809926658829
 30
0.0
 10
141.5290036445523
 20
23.73026926658827
 30
0.0
  0
SPLINE
  5
F1
330
1F
100
AcDbEntity
  8
LAYER1
 62
     1
 48
25.39999961853027
100
AcDbSpline
210
0.0
220
0.0
230
1.0
 70
     8
 71
     3
 72
     8
 73
     4
 74
     0
 42
0.000000001
 43
0.0000001
 40
0.0
 40
0.0
 40
0.0
 40
0.0
 40
1.0
 40
1.0
 40
1.0
 40
1.0
 10
141.5290036445523
 20
23.73026926658827
 30
0.0
 10
141.4635006445523
 20
24.36899626658829
 30
0.0
 10
141.5200876445523
 20
25.30874626658829
 30
0.0
 10
142.4166596445523
 20
25.07310626658827
 30
0.0
  0
SPLINE
  5
F2
330
1F
100
AcDbEntity
  8
LAYER1
 62
     1
 48
25.39999961853027
100
AcDbSpline
210
0.0
220
0.0
230
1.0
 70
    24
 71
     3
 72
     8
 73
     4
 74
     0
 42
0.000000001
 43
0.0000001
 40
0.0
 40
0.0
 40
0.0
 40
0.0
 40
1.0
 40
1.0
 40
1.0
 40
1.0
 10
142.4166596445523
 20
25.07310626658827
 30
0.0
 10
143.4325406445523
 20
25.07310626658827
 30
0.0
 10
144.4484376445523
 20
25.07310626658827
 30
0.0
 10
145.4643366445523
 20
25.07310626658827
 30
0.0
  0
SPLINE
  5
F3
330
1F
100
AcDbEntity
  8
LAYER1
 62
     1
 48
25.39999961853027
100
AcDbSpline
210
0.0
220
0.0
230
1.0
 70
     8
 71
     3
 72
     8
 73
     4
 74
     0
 42
0.000000001
 43
0.0000001
 40
0.0
 40
0.0
 40
0.0
 40
0.0
 40
1.0
 40
1.0
 40
1.0
 40
1.0
 10
145.4643366445523
 20
25.07310626658827
 30
0.0
 10
145.4528276445523
 20
22.01685126658828
 30
0.0
 10
145.4873296445523
 20
18.95909526658828
 30
0.0
 10
145.4467946445523
 20
15.9037222665883
 30
0.0
  0
SPLINE
  5
F4
330
1F
100
AcDbEntity
  8
LAYER1
 62
     1
 48
25.39999961853027
100
AcDbSpline
210
0.0
220
0.0
230
1.0
 70
     8
 71
     3
 72
     8
 73
     4
 74
     0
 42
0.000000001
 43
0.0000001
 40
0.0
 40
0.0
 40
0.0
 40
0.0
 40
1.0
 40
1.0
 40
1.0
 40
1.0
 10
145.4467946445523
 20
15.9037222665883
 30
0.0
 10
145.3046026445523
 20
14.2143122665883
 30
0.0
 10
143.7703496445523
 20
12.8279832665883
 30
0.0
 10
142.0738766445523
 20
12.8599602665883
 30
0.0
  0
SPLINE
  5
F5
330
1F
100
AcDbEntity
  8
LAYER1
 62
     1
 48
25.39999961853027
100
AcDbSpline
210
0.0
220
0.0
230
1.0
 70
     8
 71
     3
 72
     8
 73
     4
 74
     0
 42
0.000000001
 43
0.0000001
 40
0.0
 40
0.0
 40
0.0
 40
0.0
 40
1.0
 40
1.0
 40
1.0
 40
1.0
 10
121.3571596445523
 20
35.89846426658828
 30
0.0
 10
128.3781436445523
 20
35.88695526658829
 30
0.0
 10
135.4005686445523
 20
35.92145626658828
 30
0.0
 10
142.4206316445523
 20
35.88073726658828
 30
0.0
  0
SPLINE
  5
F6
330
1F
100
AcDbEntity
  8
LAYER1
 62
     1
 48
25.39999961853027
100
AcDbSpline
210
0.0
220
0.0
230
1.0
 70
     8
 71
     3
 72
     8
 73
     4
 74
     0
 42
0.000000001
 43
0.0000001
 40
0.0
 40
0.0
 40
0.0
 40
0.0
 40
1.0
 40
1.0
 40
1.0
 40
1.0
 10
142.4206316445523
 20
35.88073726658828
 30
0.0
 10
144.2926166445523
 20
35.74140726658829
 30
0.0
 10
145.6888836445523
 20
33.87915626658828
 30
0.0
 10
145.4642126445523
 20
32.04766326658829
 30
0.0
  0
SPLINE
  5
F7
330
1F
100
AcDbEntity
  8
LAYER1
 62
     1
 48
25.39999961853027
100
AcDbSpline
210
0.0
220
0.0
230
1.0
 70
    24
 71
     3
 72
     8
 73
     4
 74
     0
 42
0.000000001
 43
0.0000001
 40
0.0
 40
0.0
 40
0.0
 40
0.0
 40
1.0
 40
1.0
 40
1.0
 40
1.0
 10
145.4642126445523
 20
32.04766326658829
 30
0.0
 10
145.4642126445523
 20
30.0133662665883
 30
0.0
 10
145.4642126445523
 20
27.97908526658829
 30
0.0
 10
145.4642126445523
 20
25.9447892665883
 30
0.0
  0
SPLINE
  5
F8
330
1F
100
AcDbEntity
  8
LAYER1
 62
     1
 48
25.39999961853027
100
AcDbSpline
210
0.0
220
0.0
230
1.0
 70
     8
 71
     3
 72
     8
 73
     4
 74
     0
 42
0.000000001
 43
0.0000001
 40
0.0
 40
0.0
 40
0.0
 40
0.0
 40
1.0
 40
1.0
 40
1.0
 40
1.0
 10
145.4642126445523
 20
25.9447892665883
 30
0.0
 10
144.1489266445523
 20
25.90405926658829
 30
0.0
 10
142.8173026445523
 20
26.04101226658826
 30
0.0
 10
141.5157406445523
 20
25.84377126658827
 30
0.0
  0
SPLINE
  5
F9
330
1F
100
AcDbEntity
  8
LAYER1
 62
     1
 48
25.39999961853027
100
AcDbSpline
210
0.0
220
0.0
230
1.0
 70
     8
 71
     3
 72
     8
 73
     4
 74
     0
 42
0.000000001
 43
0.0000001
 40
0.0
 40
0.0
 40
0.0
 40
0.0
 40
1.0
 40
1.0
 40
1.0
 40
1.0
 10
141.5157406445523
 20
25.84377126658827
 30
0.0
 10
140.3985846445523
 20
25.43864326658828
 30
0.0
 10
140.7042286445523
 20
24.07571126658829
 30
0.0
 10
140.6564446445523
 20
23.12912226658829
 30
0.0
  0
SPLINE
  5
FA
330
1F
100
AcDbEntity
  8
LAYER1
 62
     1
 48
25.39999961853027
100
AcDbSpline
210
0.0
220
0.0
230
1.0
 70
     8
 71
     3
 72
     8
 73
     4
 74
     0
 42
0.000000001
 43
0.0000001
 40
0.0
 40
0.0
 40
0.0
 40
0.0
 40
1.0
 40
1.0
 40
1.0
 40
1.0
 10
140.6564446445523
 20
23.12912226658829
 30
0.0
 10
140.5892566445523
 20
22.3596372665883
 30
0.0
 10
140.9358076445523
 20
21.2173512665883
 30
0.0
 10
139.9977406445523
 20
20.87566326658828
 30
0.0
  0
SPLINE
  5
FB
330
1F
100
AcDbEntity
  8
LAYER1
 62
     1
 48
25.39999961853027
100
AcDbSpline
210
0.0
220
0.0
230
1.0
 70
     8
 71
     3
 72
     8
 73
     4
 74
     0
 42
0.000000001
 43
0.0000001
 40
0.0
 40
0.0
 40
0.0
 40
0.0
 40
1.0
 40
1.0
 40
1.0
 40
1.0
 10
139.9977406445523
 20
20.87566326658828
 30
0.0
 10
138.9294676445523
 20
20.7237182665883
 30
0.0
 10
139.0174256445523
 20
21.99375326658829
 30
0.0
 10
139.0369486445523
 20
22.71452026658827
 30
0.0
  0
SPLINE
  5
FC
330
1F
100
AcDbEntity
  8
LAYER1
 62
     1
 48
25.39999961853027
100
AcDbSpline
210
0.0
220
0.0
230
1.0
 70
     8
 71
     3
 72
     8
 73
     4
 74
     0
 42
0.000000001
 43
0.0000001
 40
0.0
 40
0.0
 40
0.0
 40
0.0
 40
1.0
 40
1.0
 40
1.0
 40
1.0
 10
139.0369486445523
 20
22.71452026658827
 30
0.0
 10
139.0139566445523
 20
24.4894112665883
 30
0.0
 10
139.0859996445523
 20
26.2690732665883
 30
0.0
 10
138.9954256445523
 20
28.04051426658828
 30
0.0
  0
SPLINE
  5
FD
330
1F
100
AcDbEntity
  8
LAYER1
 62
     1
 48
25.39999961853027
100
AcDbSpline
210
0.0
220
0.0
230
1.0
 70
     8
 71
     3
 72
     8
 73
     4
 74
     0
 42
0.000000001
 43
0.0000001
 40
0.0
 40
0.0
 40
0.0
 40
0.0
 40
1.0
 40
1.0
 40
1.0
 40
1.0
 10
138.9954256445523
 20
28.04051426658828
 30
0.0
 10
138.9122856445523
 20
29.43608026658827
 30
0.0
 10
137.0892266445523
 20
30.24189526658829
 30
0.0
 10
136.0523776445523
 20
29.26669326658829
 30
0.0
  0
SPLINE
  5
FE
330
1F
100
AcDbEntity
  8
LAYER1
 62
     1
 48
25.39999961853027
100
AcDbSpline
210
0.0
220
0.0
230
1.0
 70
     8
 71
     3
 72
     8
 73
     4
 74
     0
 42
0.000000001
 43
0.0000001
 40
0.0
 40
0.0
 40
0.0
 40
0.0
 40
1.0
 40
1.0
 40
1.0
 40
1.0
 10
136.0523776445523
 20
29.26669326658829
 30
0.0
 10
134.9265016445523
 20
28.23143426658827
 30
0.0
 10
135.4698576445523
 20
26.55787926658828
 30
0.0
 10
135.3476726445523
 20
25.21964026658829
 30
0.0
  0
SPLINE
  5
FF
330
1F
100
AcDbEntity
  8
LAYER1
 62
     1
 48
25.39999961853027
100
AcDbSpline
210
0.0
220
0.0
230
1.0
 70
     8
 71
     3
 72
     8
 73
     4
 74
     0
 42
0.000000001
 43
0.0000001
 40
0.0
 40
0.0
 40
0.0
 40
0.0
 40
1.0
 40
1.0
 40
1.0
 40
1.0
 10
135.3476726445523
 20
25.21964026658829
 30
0.0
 10
135.3447096445523
 20
22.9993332665883
 30
0.0
 10
135.4049496445523
 20
20.77706326658826
 30
0.0
 10
135.3612466445523
 20
18.55788726658827
 30
0.0
  0
SPLINE
  5
100
330
1F
100
AcDbEntity
  8
LAYER1
 62
     1
 48
25.39999961853027
100
AcDbSpline
210
0.0
220
0.0
230
1.0
 70
     8
 71
     3
 72
     8
 73
     4
 74
     0
 42
0.000000001
 43
0.0000001
 40
0.0
 40
0.0
 40
0.0
 40
0.0
 40
1.0
 40
1.0
 40
1.0
 40
1.0
 10
135.3612466445523
 20
18.55788726658827
 30
0.0
 10
135.1952126445523
 20
16.91914526658829
 30
0.0
 10
133.0561116445523
 20
17.72532526658829
 30
0.0
 10
133.5332346445523
 20
19.12591826658828
 30
0.0
  0
SPLINE
  5
101
330
1F
100
AcDbEntity
  8
LAYER1
 62
     1
 48
25.39999961853027
100
AcDbSpline
210
0.0
220
0.0
230
1.0
 70
     8
 71
     3
 72
     8
 73
     4
 74
     0
 42
0.000000001
 43
0.0000001
 40
0.0
 40
0.0
 40
0.0
 40
0.0
 40
1.0
 40
1.0
 40
1.0
 40
1.0
 10
133.5332346445523
 20
19.12591826658828
 30
0.0
 10
133.5272816445523
 20
22.86547526658828
 30
0.0
 10
133.5458286445523
 20
26.60562526658829
 30
0.0
 10
133.5243186445523
 20
30.34482526658828
 30
0.0
  0
SPLINE
  5
102
330
1F
100
AcDbEntity
  8
LAYER1
 62
     1
 48
25.39999961853027
100
AcDbSpline
210
0.0
220
0.0
230
1.0
 70
     8
 71
     3
 72
     8
 73
     4
 74
     0
 42
0.000000001
 43
0.0000001
 40
0.0
 40
0.0
 40
0.0
 40
0.0
 40
1.0
 40
1.0
 40
1.0
 40
1.0
 10
133.5243186445523
 20
30.34482526658828
 30
0.0
 10
133.5411726445523
 20
31.8762762665883
 30
0.0
 10
131.4575706445523
 20
32.61467326658829
 30
0.0
 10
130.4339526445523
 20
31.54956626658829
 30
0.0
  0
SPLINE
  5
103
330
1F
100
AcDbEntity
  8
LAYER1
 62
     1
 48
25.39999961853027
100
AcDbSpline
210
0.0
220
0.0
230
1.0
 70
     8
 71
     3
 72
     8
 73
     4
 74
     0
 42
0.000000001
 43
0.0000001
 40
0.0
 40
0.0
 40
0.0
 40
0.0
 40
1.0
 40
1.0
 40
1.0
 40
1.0
 10
130.4339526445523
 20
31.54956626658829
 30
0.0
 10
129.6023726445523
 20
30.63548626658828
 30
0.0
 10
129.9890346445523
 20
29.32604526658828
 30
0.0
 10
129.8990266445523
 20
28.20716426658828
 30
0.0
  0
SPLINE
  5
104
330
1F
100
AcDbEntity
  8
LAYER1
 62
     1
 48
25.39999961853027
100
AcDbSpline
210
0.0
220
0.0
230
1.0
 70
     8
 71
     3
 72
     8
 73
     4
 74
     0
 42
0.000000001
 43
0.0000001
 40
0.0
 40
0.0
 40
0.0
 40
0.0
 40
1.0
 40
1.0
 40
1.0
 40
1.0
 10
129.8990266445523
 20
28.20716426658828
 30
0.0
 10
129.8854536445523
 20
24.97895426658828
 30
0.0
 10
129.9263766445523
 20
21.7489732665883
 30
0.0
 10
129.8782306445523
 20
18.52200426658828
 30
0.0
  0
SPLINE
  5
105
330
1F
100
AcDbEntity
  8
LAYER1
 62
     1
 48
25.39999961853027
100
AcDbSpline
210
0.0
220
0.0
230
1.0
 70
     8
 71
     3
 72
     8
 73
     4
 74
     0
 42
0.000000001
 43
0.0000001
 40
0.0
 40
0.0
 40
0.0
 40
0.0
 40
1.0
 40
1.0
 40
1.0
 40
1.0
 10
129.8782306445523
 20
18.52200426658828
 30
0.0
 10
129.6692936445523
 20
16.78245026658829
 30
0.0
 10
127.4797376445523
 20
17.9245592665883
 30
0.0
 10
128.0523566445523
 20
19.29681026658828
 30
0.0
  0
SPLINE
  5
106
330
1F
100
AcDbEntity
  8
LAYER1
 62
     1
 48
25.39999961853027
100
AcDbSpline
210
0.0
220
0.0
230
1.0
 70
     8
 71
     3
 72
     8
 73
     4
 74
     0
 42
0.000000001
 43
0.0000001
 40
0.0
 40
0.0
 40
0.0
 40
0.0
 40
1.0
 40
1.0
 40
1.0
 40
1.0
 10
128.0523566445523
 20
19.29681026658828
 30
0.0
 10
128.0370106445523
 20
22.20538226658829
 30
0.0
 10
128.1430316445523
 20
25.11954326658827
 30
0.0
 10
128.0493936445523
 20
28.02474726658828
 30
0.0
  0
SPLINE
  5
107
330
1F
100
AcDbEntity
  8
LAYER1
 62
     1
 48
25.39999961853027
100
AcDbSpline
210
0.0
220
0.0
230
1.0
 70
     8
 71
     3
 72
     8
 73
     4
 74
     0
 42
0.000000001
 43
0.0000001
 40
0.0
 40
0.0
 40
0.0
 40
0.0
 40
1.0
 40
1.0
 40
1.0
 40
1.0
 10
128.0493936445523
 20
28.02474726658828
 30
0.0
 10
127.9473326445523
 20
29.39390526658828
 30
0.0
 10
126.1592226445523
 20
30.24190226658828
 30
0.0
 10
125.1063426445523
 20
29.29388726658827
 30
0.0
  0
SPLINE
  5
108
330
1F
100
AcDbEntity
  8
LAYER1
 62
     1
 48
25.39999961853027
100
AcDbSpline
210
0.0
220
0.0
230
1.0
 70
     8
 71
     3
 72
     8
 73
     4
 74
     0
 42
0.000000001
 43
0.0000001
 40
0.0
 40
0.0
 40
0.0
 40
0.0
 40
1.0
 40
1.0
 40
1.0
 40
1.0
 10
125.1063426445523
 20
29.29388726658827
 30
0.0
 10
124.0681096445523
 20
28.3499732665883
 30
0.0
 10
124.4784366445523
 20
26.85208726658829
 30
0.0
 10
124.3934336445523
 20
25.6110332665883
 30
0.0
  0
SPLINE
  5
109
330
1F
100
AcDbEntity
  8
LAYER1
 62
     1
 48
25.39999961853027
100
AcDbSpline
210
0.0
220
0.0
230
1.0
 70
     8
 71
     3
 72
     8
 73
     4
 74
     0
 42
0.000000001
 43
0.0000001
 40
0.0
 40
0.0
 40
0.0
 40
0.0
 40
1.0
 40
1.0
 40
1.0
 40
1.0
 10
124.3934336445523
 20
25.6110332665883
 30
0.0
 10
124.3561726445523
 20
24.2117702665883
 30
0.0
 10
124.4734036445523
 20
22.7973452665883
 30
0.0
 10
124.3238666445523
 20
21.40896526658826
 30
0.0
  0
SPLINE
  5
10A
330
1F
100
AcDbEntity
  8
LAYER1
 62
     1
 48
25.39999961853027
100
AcDbSpline
210
0.0
220
0.0
230
1.0
 70
     8
 71
     3
 72
     8
 73
     4
 74
     0
 42
0.000000001
 43
0.0000001
 40
0.0
 40
0.0
 40
0.0
 40
0.0
 40
1.0
 40
1.0
 40
1.0
 40
1.0
 10
124.3238666445523
 20
21.40896526658826
 30
0.0
 10
123.7929536445523
 20
20.15568926658826
 30
0.0
 10
122.4136806445523
 20
21.33811026658829
 30
0.0
 10
122.7739456445523
 20
22.33206726658829
 30
0.0
  0
SPLINE
  5
10B
330
1F
100
AcDbEntity
  8
LAYER1
 62
     1
 48
25.39999961853027
100
AcDbSpline
210
0.0
220
0.0
230
1.0
 70
     8
 71
     3
 72
     8
 73
     4
 74
     0
 42
0.000000001
 43
0.0000001
 40
0.0
 40
0.0
 40
0.0
 40
0.0
 40
1.0
 40
1.0
 40
1.0
 40
1.0
 10
122.7739456445523
 20
22.33206726658829
 30
0.0
 10
122.6986316445523
 20
23.38833726658828
 30
0.0
 10
122.9936816445523
 20
24.5552312665883
 30
0.0
 10
122.4416336445523
 20
25.51074526658826
 30
0.0
  0
SPLINE
  5
10C
330
1F
100
AcDbEntity
  8
LAYER1
 62
     1
 48
25.39999961853027
100
AcDbSpline
210
0.0
220
0.0
230
1.0
 70
     8
 71
     3
 72
     8
 73
     4
 74
     0
 42
0.000000001
 43
0.0000001
 40
0.0
 40
0.0
 40
0.0
 40
0.0
 40
1.0
 40
1.0
 40
1.0
 40
1.0
 10
122.4416336445523
 20
25.51074526658826
 30
0.0
 10
121.6457916445523
 20
26.21406326658829
 30
0.0
 10
120.4914646445523
 20
25.85696026658828
 30
0.0
 10
119.5196526445523
 20
25.9448282665883
 30
0.0
  0
SPLINE
  5
10D
330
1F
100
AcDbEntity
  8
LAYER1
 62
     1
 48
25.39999961853027
100
AcDbSpline
210
0.0
220
0.0
230
1.0
 70
    24
 71
     3
 72
     8
 73
     4
 74
     0
 42
0.000000001
 43
0.0000001
 40
0.0
 40
0.0
 40
0.0
 40
0.0
 40
1.0
 40
1.0
 40
1.0
 40
1.0
 10
119.5196526445523
 20
25.9448282665883
 30
0.0
 10
119.0018156445523
 20
25.9448282665883
 30
0.0
 10
118.4839676445523
 20
25.9448282665883
 30
0.0
 10
117.9660986445523
 20
25.9448282665883
 30
0.0
  0
SPLINE
  5
10E
330
1F
100
AcDbEntity
  8
LAYER1
 62
     1
 48
25.39999961853027
100
AcDbSpline
210
0.0
220
0.0
230
1.0
 70
     8
 71
     3
 72
     8
 73
     4
 74
     0
 42
0.000000001
 43
0.0000001
 40
0.0
 40
0.0
 40
0.0
 40
0.0
 40
1.0
 40
1.0
 40
1.0
 40
1.0
 10
117.9660986445523
 20
25.9448282665883
 30
0.0
 10
117.9898846445523
 20
28.3037242665883
 30
0.0
 10
117.9171456445523
 20
30.66730526658829
 30
0.0
 10
118.0052406445523
 20
33.02299126658827
 30
0.0
  0
SPLINE
  5
10F
330
1F
100
AcDbEntity
  8
LAYER1
 62
     1
 48
25.39999961853027
100
AcDbSpline
210
0.0
220
0.0
230
1.0
 70
     8
 71
     3
 72
     8
 73
     4
 74
     0
 42
0.000000001
 43
0.0000001
 40
0.0
 40
0.0
 40
0.0
 40
0.0
 40
1.0
 40
1.0
 40
1.0
 40
1.0
 10
118.0052406445523
 20
33.02299126658827
 30
0.0
 10
118.2248876445523
 20
34.63806826658827
 30
0.0
 10
119.7253286445523
 20
35.92873026658828
 30
0.0
 10
121.3565986445523
 20
35.89825826658826
 30
0.0
  0
LINE
  5
110
330
1F
100
AcDbEntity
  8
LAYER1
 62
     1
 48
25.39999961853027
100
AcDbLine
 10
142.0738766445523
 20
12.8599602665883
 30
0.0
 11
142.0737916445523
 21
12.8593972665883
 31
0.0
  0
SPLINE
  5
111
330
1F
100
AcDbEntity
  8
LAYER1
 62
     1
 48
25.39999961853027
100
AcDbSpline
210
0.0
220
0.0
230
1.0
 70
     8
 71
     3
 72
     8
 73
     4
 74
     0
 42
0.000000001
 43
0.0000001
 40
0.0
 40
0.0
 40
0.0
 40
0.0
 40
1.0
 40
1.0
 40
1.0
 40
1.0
 10
142.1614026445523
 20
36.74068626658828
 30
0.0
 10
135.1264316445523
 20
36.74068626658828
 30
0.0
 10
128.0912586445523
 20
36.74960226658828
 30
0.0
 10
121.0563846445523
 20
36.73176926658829
 30
0.0
  0
SPLINE
  5
112
330
1F
100
AcDbEntity
  8
LAYER1
 62
     1
 48
25.39999961853027
100
AcDbSpline
210
0.0
220
0.0
230
1.0
 70
     8
 71
     3
 72
     8
 73
     4
 74
     0
 42
0.000000001
 43
0.0000001
 40
0.0
 40
0.0
 40
0.0
 40
0.0
 40
1.0
 40
1.0
 40
1.0
 40
1.0
 10
121.0563846445523
 20
36.73176926658829
 30
0.0
 10
118.7658016445523
 20
36.67865426658829
 30
0.0
 10
116.8944036445523
 20
34.47158726658829
 30
0.0
 10
117.1246226445523
 20
32.20934926658828
 30
0.0
  0
SPLINE
  5
113
330
1F
100
AcDbEntity
  8
LAYER1
 62
     1
 48
25.39999961853027
100
AcDbSpline
210
0.0
220
0.0
230
1.0
 70
     8
 71
     3
 72
     8
 73
     4
 74
     0
 42
0.000000001
 43
0.0000001
 40
0.0
 40
0.0
 40
0.0
 40
0.0
 40
1.0
 40
1.0
 40
1.0
 40
1.0
 10
117.1246226445523
 20
32.20934926658828
 30
0.0
 10
117.1386986445523
 20
26.71812126658829
 30
0.0
 10
117.0963816445523
 20
21.22512226658828
 30
0.0
 10
117.1460276445523
 20
15.73494426658829
 30
0.0
  0
SPLINE
  5
114
330
1F
100
AcDbEntity
  8
LAYER1
 62
     1
 48
25.39999961853027
100
AcDbSpline
210
0.0
220
0.0
230
1.0
 70
     8
 71
     3
 72
     8
 73
     4
 74
     0
 42
0.000000001
 43
0.0000001
 40
0.0
 40
0.0
 40
0.0
 40
0.0
 40
1.0
 40
1.0
 40
1.0
 40
1.0
 10
117.1460276445523
 20
15.73494426658829
 30
0.0
 10
117.3150566445523
 20
13.4934472665883
 30
0.0
 10
119.5198196445523
 20
11.77134826658828
 30
0.0
 10
121.7286136445523
 20
12.01364026658826
 30
0.0
  0
SPLINE
  5
115
330
1F
100
AcDbEntity
  8
LAYER1
 62
     1
 48
25.39999961853027
100
AcDbSpline
210
0.0
220
0.0
230
1.0
 70
     8
 71
     3
 72
     8
 73
     4
 74
     0
 42
0.000000001
 43
0.0000001
 40
0.0
 40
0.0
 40
0.0
 40
0.0
 40
1.0
 40
1.0
 40
1.0
 40
1.0
 10
121.7286136445523
 20
12.01364026658826
 30
0.0
 10
128.6106136445523
 20
12.01364026658826
 30
0.0
 10
135.4927816445523
 20
12.00472426658827
 30
0.0
 10
142.3746706445523
 20
12.02255726658827
 30
0.0
  0
SPLINE
  5
116
330
1F
100
AcDbEntity
  8
LAYER1
 62
     1
 48
25.39999961853027
100
AcDbSpline
210
0.0
220
0.0
230
1.0
 70
     8
 71
     3
 72
     8
 73
     4
 74
     0
 42
0.000000001
 43
0.0000001
 40
0.0
 40
0.0
 40
0.0
 40
0.0
 40
1.0
 40
1.0
 40
1.0
 40
1.0
 10
142.3746706445523
 20
12.02255726658827
 30
0.0
 10
144.6652476445523
 20
12.07567226658829
 30
0.0
 10
146.5366376445523
 20
14.28265926658829
 30
0.0
 10
146.3064476445523
 20
16.5448862665883
 30
0.0
  0
SPLINE
  5
117
330
1F
100
AcDbEntity
  8
LAYER1
 62
     1
 48
25.39999961853027
100
AcDbSpline
210
0.0
220
0.0
230
1.0
 70
     8
 71
     3
 72
     8
 73
     4
 74
     0
 42
0.000000001
 43
0.0000001
 40
0.0
 40
0.0
 40
0.0
 40
0.0
 40
1.0
 40
1.0
 40
1.0
 40
1.0
 10
146.3064476445523
 20
16.5448862665883
 30
0.0
 10
146.2923716445523
 20
22.03611526658829
 30
0.0
 10
146.3346896445523
 20
27.52920126658826
 30
0.0
 10
146.2850426445523
 20
33.0192922665883
 30
0.0
  0
SPLINE
  5
118
330
1F
100
AcDbEntity
  8
LAYER1
 62
     1
 48
25.39999961853027
100
AcDbSpline
210
0.0
220
0.0
230
1.0
 70
     8
 71
     3
 72
     8
 73
     4
 74
     0
 42
0.000000001
 43
0.0000001
 40
0.0
 40
0.0
 40
0.0
 40
0.0
 40
1.0
 40
1.0
 40
1.0
 40
1.0
 10
146.2850426445523
 20
33.0192922665883
 30
0.0
 10
146.1105816445523
 20
35.08414026658829
 30
0.0
 10
144.2349906445523
 20
36.77922526658829
 30
0.0
 10
142.1614026445523
 20
36.74067526658829
 30
0.0
  0
LINE
  5
119
330
1F
100
AcDbEntity
  8
LAYER1
 62
     1
 48
25.39999961853027
100
AcDbLine
 10
121.3565986445523
 20
35.89825826658826
 30
0.0
 11
121.3571596445523
 21
35.89846426658828
 31
0.0
  0
ENDSEC
  0
SECTION
  2
OBJECTS
  0
DICTIONARY
  5
C
330
0
100
AcDbDictionary
  3
ACAD_GROUP
350
D
  3
ACAD_LAYOUT
350
1A
  3
ACAD_MATERIAL
350
43
  3
ACAD_MLEADERSTYLE
350
6B
  3
ACAD_MLINESTYLE
350
17
  3
ACAD_PLOTSETTINGS
350
19
  3
ACAD_SCALELIST
350
47
  3
ACAD_VISUALSTYLE
350
2A
  3
ACDBVARIABLEDICTIONARY
350
11A
1001
ACAD
1000
TREAT_AS_HARD
1070
     0
  0
DICTIONARY
  5
D
102
{ACAD_REACTORS
330
C
102
}
330
C
100
AcDbDictionary
1001
ACAD
1000
TREAT_AS_HARD
1070
     0
  0
DICTIONARY
  5
1A
102
{ACAD_REACTORS
330
C
102
}
330
C
100
AcDbDictionary
1001
ACAD
1000
TREAT_AS_HARD
1070
     0
  0
DICTIONARY
  5
43
102
{ACAD_REACTORS
330
C
102
}
330
C
100
AcDbDictionary
  3
BYBLOCK
350
45
  3
BYLAYER
350
44
  3
GLOBAL
350
46
1001
ACAD
1000
TREAT_AS_HARD
1070
     0
  0
DICTIONARY
  5
6B
102
{ACAD_REACTORS
330
C
102
}
330
C
100
AcDbDictionary
  3
STANDARD
350
6C
1001
ACAD
1000
TREAT_AS_HARD
1070
     0
  0
DICTIONARY
  5
17
102
{ACAD_REACTORS
330
C
102
}
330
C
100
AcDbDictionary
  3
STANDARD
350
18
1001
ACAD
1000
TREAT_AS_HARD
1070
     0
  0
DICTIONARY
  5
19
102
{ACAD_REACTORS
330
C
102
}
330
C
100
AcDbDictionary
1001
ACAD
1000
TREAT_AS_HARD
1070
     0
  0
DICTIONARY
  5
47
102
{ACAD_REACTORS
330
C
102
}
330
C
100
AcDbDictionary
  3
A0
350
48
  3
A1
350
49
  3
A2
350
4A
  3
A3
350
4B
  3
A4
350
4C
  3
A5
350
4D
  3
A6
350
4E
  3
A7
350
4F
  3
A8
350
50
  3
A9
350
51
  3
B0
350
52
  3
B1
350
53
  3
B2
350
54
  3
B3
350
55
  3
B4
350
56
  3
B5
350
57
  3
B6
350
58
  3
B7
350
59
  3
B8
350
5A
  3
B9
350
5B
  3
C0
350
5C
  3
C1
350
5D
  3
C2
350
5E
  3
C3
350
5F
  3
C4
350
60
  3
C5
350
61
  3
C6
350
62
  3
C7
350
63
  3
C8
350
64
  3
C9
350
65
  3
D0
350
66
  3
D1
350
67
  3
D2
350
68
1001
ACAD
1000
TREAT_AS_HARD
1070
     0
  0
DICTIONARY
  5
2A
102
{ACAD_REACTORS
330
C
102
}
330
C
100
AcDbDictionary
  3
2DWIREFRAME
350
2F
  3
BASIC
350
32
  3
BRIGHTEN
350
36
  3
COLORCHANGE
350
3A
  3
CONCEPTUAL
350
34
  3
DIM
350
35
  3
EDGECOLOROFF
350
3D
  3
FACEPATTERN
350
39
  3
FLAT
350
2B
  3
FLATWITHEDGES
350
2C
  3
GOURAUD
350
2D
  3
GOURAUDWITHEDGES
350
2E
  3
HIDDEN
350
31
  3
JITTEROFF
350
3B
  3
LINEPATTERN
350
38
  3
OVERHANGOFF
350
3C
  3
REALISTIC
350
33
  3
SHADED
350
42
  3
SHADED_WITH_EDGES
350
41
  3
SHADES_OF_GRAY
350
3E
  3
SKETCHY
350
3F
  3
THICKEN
350
37
  3
WIREFRAME
350
30
  3
X-RAY
350
40
1001
ACAD
1000
TREAT_AS_HARD
1070
     0
  0
DICTIONARY
  5
11A
102
{ACAD_REACTORS
330
C
102
}
330
C
100
AcDbDictionary
  3
CANNOSCALE
350
125
  3
CENTEREXE
350
121
  3
CENTERLTYPEFILE
350
122
  3
CMLEADERSTYLE
350
11C
  3
CTABLESTYLE
350
11B
  3
DIMASSOC
350
123
  3
HIDETEXT
350
124
  3
MSLTSCALE
350
126
  3
PSOLHEIGHT
350
11E
  3
PSOLWIDTH
350
11D
1001
ACAD
1000
TREAT_AS_HARD
1070
     0
  0
MATERIAL
  5
45
102
{ACAD_REACTORS
330
43
102
}
102
{ACAD_XDICTIONARY
360
129
102
}
330
43
100
AcDbMaterial
  1
BYBLOCK
  0
MATERIAL
  5
44
102
{ACAD_REACTORS
330
43
102
}
102
{ACAD_XDICTIONARY
360
127
102
}
330
43
100
AcDbMaterial
  1
BYLAYER
  0
MATERIAL
  5
46
102
{ACAD_REACTORS
330
43
102
}
102
{ACAD_XDICTIONARY
360
12B
102
}
330
43
100
AcDbMaterial
  1
GLOBAL
  0
ACAD_PROXY_OBJECT
  5
6C
102
{ACAD_REACTORS
330
6B
102
}
330
6B
100
AcDbZombieObject
 90
      499
 91
      505
 93
      610
310
40901902A4063FBFFFFFE0000000000000020400000000000020404214DD185B99185C990000000000000104090141901A00000000000004100000000000000041025764000000000000039000
340
14
340
0
340
11
340
0
 94
        0
1001
ACAD_MLEADERVER
1070
     2
  0
MLINESTYLE
  5
18
102
{ACAD_REACTORS
330
17
102
}
330
17
100
AcDbMlineStyle
  2
Standard
 70
     0
  3

 62
   256
 51
90.0
 52
90.0
 71
     2
 49
0.5
 62
   256
  6
BYLAYER
 49
-0.5
 62
   256
  6
BYLAYER
  0
ACAD_PROXY_OBJECT
  5
48
102
{ACAD_REACTORS
330
47
102
}
330
47
100
AcDbZombieObject
 90
      499
 91
      503
 93
       41
310
903313A31580
  0
ACAD_PROXY_OBJECT
  5
49
102
{ACAD_REACTORS
330
47
102
}
330
47
100
AcDbZombieObject
 90
      499
 91
      503
 93
      105
310
903313A324000000000000004000
  0
ACAD_PROXY_OBJECT
  5
4A
102
{ACAD_REACTORS
330
47
102
}
330
47
100
AcDbZombieObject
 90
      499
 91
      503
 93
      105
310
903313A344000000000000104000
  0
ACAD_PROXY_OBJECT
  5
4B
102
{ACAD_REACTORS
330
47
102
}
330
47
100
AcDbZombieObject
 90
      499
 91
      503
 93
      105
310
903313A354000000000000144000
  0
ACAD_PROXY_OBJECT
  5
4C
102
{ACAD_REACTORS
330
47
102
}
330
47
100
AcDbZombieObject
 90
      499
 91
      503
 93
      105
310
903313A384000000000000204000
  0
ACAD_PROXY_OBJECT
  5
4D
102
{ACAD_REACTORS
330
47
102
}
330
47
100
AcDbZombieObject
 90
      499
 91
      503
 93
      113
310
904313A31304000000000000244000
  0
ACAD_PROXY_OBJECT
  5
4E
102
{ACAD_REACTORS
330
47
102
}
330
47
100
AcDbZombieObject
 90
      499
 91
      503
 93
      113
310
904313A31364000000000000304000
  0
ACAD_PROXY_OBJECT
  5
4F
102
{ACAD_REACTORS
330
47
102
}
330
47
100
AcDbZombieObject
 90
      499
 91
      503
 93
      113
310
904313A32304000000000000344000
  0
ACAD_PROXY_OBJECT
  5
50
102
{ACAD_REACTORS
330
47
102
}
330
47
100
AcDbZombieObject
 90
      499
 91
      503
 93
      113
310
904313A333040000000000003E4000
  0
ACAD_PROXY_OBJECT
  5
51
102
{ACAD_REACTORS
330
47
102
}
330
47
100
AcDbZombieObject
 90
      499
 91
      503
 93
      113
310
904313A34304000000000000444000
  0
ACAD_PROXY_OBJECT
  5
52
102
{ACAD_REACTORS
330
47
102
}
330
47
100
AcDbZombieObject
 90
      499
 91
      503
 93
      113
310
904313A35304000000000000494000
  0
ACAD_PROXY_OBJECT
  5
53
102
{ACAD_REACTORS
330
47
102
}
330
47
100
AcDbZombieObject
 90
      499
 91
      503
 93
      121
310
905313A3130304000000000000594000
  0
ACAD_PROXY_OBJECT
  5
54
102
{ACAD_REACTORS
330
47
102
}
330
47
100
AcDbZombieObject
 90
      499
 91
      503
 93
      105
310
903323A310000000000000010100
  0
ACAD_PROXY_OBJECT
  5
55
102
{ACAD_REACTORS
330
47
102
}
330
47
100
AcDbZombieObject
 90
      499
 91
      503
 93
      105
310
903343A310000000000000410100
  0
ACAD_PROXY_OBJECT
  5
56
102
{ACAD_REACTORS
330
47
102
}
330
47
100
AcDbZombieObject
 90
      499
 91
      503
 93
      105
310
903383A310000000000000810100
  0
ACAD_PROXY_OBJECT
  5
57
102
{ACAD_REACTORS
330
47
102
}
330
47
100
AcDbZombieObject
 90
      499
 91
      503
 93
      113
310
90431303A310000000000000910100
  0
ACAD_PROXY_OBJECT
  5
58
102
{ACAD_REACTORS
330
47
102
}
330
47
100
AcDbZombieObject
 90
      499
 91
      503
 93
      121
310
9053130303A310000000000001650100
  0
ACAD_PROXY_OBJECT
  5
59
102
{ACAD_REACTORS
330
47
102
}
330
47
100
AcDbZombieObject
 90
      499
 91
      503
 93
      257
310
90E312F31323822203D2031272D3022000000000000200FC000000000000284000
  0
ACAD_PROXY_OBJECT
  5
5A
102
{ACAD_REACTORS
330
47
102
}
330
47
100
AcDbZombieObject
 90
      499
 91
      503
 93
      249
310
90D312F363422203D2031272D3022000000000000240FC000000000000284000
  0
ACAD_PROXY_OBJECT
  5
5B
102
{ACAD_REACTORS
330
47
102
}
330
47
100
AcDbZombieObject
 90
      499
 91
      503
 93
      249
310
90D312F333222203D2031272D3022000000000000280FC000000000000284000
  0
ACAD_PROXY_OBJECT
  5
5C
102
{ACAD_REACTORS
330
47
102
}
330
47
100
AcDbZombieObject
 90
      499
 91
      503
 93
      249
310
90D312F313622203D2031272D30220000000000002C0FC000000000000284000
  0
ACAD_PROXY_OBJECT
  5
5D
102
{ACAD_REACTORS
330
47
102
}
330
47
100
AcDbZombieObject
 90
      499
 91
      503
 93
      249
310
90D332F333222203D2031272D30220000000000002E0FC000000000000284000
  0
ACAD_PROXY_OBJECT
  5
5E
102
{ACAD_REACTORS
330
47
102
}
330
47
100
AcDbZombieObject
 90
      499
 91
      503
 93
      241
310
90C312F3822203D2031272D3022000000000000300FC000000000000284000
  0
ACAD_PROXY_OBJECT
  5
5F
102
{ACAD_REACTORS
330
47
102
}
330
47
100
AcDbZombieObject
 90
      499
 91
      503
 93
      249
310
90D332F313622203D2031272D3022000000000000320FC000000000000284000
  0
ACAD_PROXY_OBJECT
  5
60
102
{ACAD_REACTORS
330
47
102
}
330
47
100
AcDbZombieObject
 90
      499
 91
      503
 93
      241
310
90C312F3422203D2031272D3022000000000000340FC000000000000284000
  0
ACAD_PROXY_OBJECT
  5
61
102
{ACAD_REACTORS
330
47
102
}
330
47
100
AcDbZombieObject
 90
      499
 91
      503
 93
      241
310
90C332F3822203D2031272D3022000000000000360FC000000000000284000
  0
ACAD_PROXY_OBJECT
  5
62
102
{ACAD_REACTORS
330
47
102
}
330
47
100
AcDbZombieObject
 90
      499
 91
      503
 93
      241
310
90C312F3222203D2031272D3022000000000000380FC000000000000284000
  0
ACAD_PROXY_OBJECT
  5
63
102
{ACAD_REACTORS
330
47
102
}
330
47
100
AcDbZombieObject
 90
      499
 91
      503
 93
      241
310
90C332F3422203D2031272D30220000000000003A0FC000000000000284000
  0
ACAD_PROXY_OBJECT
  5
64
102
{ACAD_REACTORS
330
47
102
}
330
47
100
AcDbZombieObject
 90
      499
 91
      503
 93
      161
310
90A3122203D2031272D30224000000000000284000
  0
ACAD_PROXY_OBJECT
  5
65
102
{ACAD_REACTORS
330
47
102
}
330
47
100
AcDbZombieObject
 90
      499
 91
      503
 93
      257
310
90E312D312F3222203D2031272D30220000000000003E0FC000000000000284000
  0
ACAD_PROXY_OBJECT
  5
66
102
{ACAD_REACTORS
330
47
102
}
330
47
100
AcDbZombieObject
 90
      499
 91
      503
 93
      225
310
90A3322203D2031272D302200000000000002100000000000000284000
  0
ACAD_PROXY_OBJECT
  5
67
102
{ACAD_REACTORS
330
47
102
}
330
47
100
AcDbZombieObject
 90
      499
 91
      503
 93
      225
310
90A3622203D2031272D302200000000000006100000000000000284000
  0
ACAD_PROXY_OBJECT
  5
68
102
{ACAD_REACTORS
330
47
102
}
330
47
100
AcDbZombieObject
 90
      499
 91
      503
 93
      249
310
90D31272D3022203D2031272D30220000000000000A100000000000000284000
  0
ACAD_PROXY_OBJECT
  5
2F
102
{ACAD_REACTORS
330
2A
102
}
330
2A
100
AcDbZombieObject
 90
      499
 91
      501
 93
      436
310
42CC9915DA5C99599C985B595049028333333333333E33F0000000000000F90107901411070040501600405405064090741402480A0340
1001
ACAD
1000
AcDbSavedByObjectVersion
1070
     0
  0
ACAD_PROXY_OBJECT
  5
32
102
{ACAD_REACTORS
330
2A
102
}
330
2A
100
AcDbZombieObject
 90
      499
 91
      501
 93
      388
310
4150985CDA58D07406404333333333333E33F0000000000000F90107A41107004050150841D405064090741402480A0350
1001
ACAD
1000
AcDbSavedByObjectVersion
1070
     0
  0
ACAD_PROXY_OBJECT
  5
36
102
{ACAD_REACTORS
330
2A
102
}
330
2A
100
AcDbZombieObject
 90
      499
 91
      501
 93
      428
310
42109C9A59DA1D195B90C409028333333333333E33F0000000000000F9010790141107004050150841D405064090741402480A029950
1001
ACAD
1000
AcDbSavedByObjectVersion
1070
     0
  0
ACAD_PROXY_OBJECT
  5
3A
102
{ACAD_REACTORS
330
2A
102
}
330
2A
100
AcDbZombieObject
 90
      499
 91
      501
 93
      452
310
42D0DBDB1BDC90DA185B99D95104090240C333333333333E33F0000000000000F90108901411070040501508421405064090741402480A0350
1001
ACAD
1000
AcDbSavedByObjectVersion
1070
     0
  0
ACAD_PROXY_OBJECT
  5
34
102
{ACAD_REACTORS
330
2A
102
}
330
2A
100
AcDbZombieObject
 90
      499
 91
      501
 93
      500
310
4290DBDB98D95C1D1D585B10940D028333333333333E33F0000000000000F90107902409070040501000000000018199010841D405064090740C02480A0340
1001
ACAD
1000
AcDbSavedByObjectVersion
1070
     0
  0
ACAD_PROXY_OBJECT
  5
35
102
{ACAD_REACTORS
330
2A
102
}
330
2A
100
AcDbZombieObject
 90
      499
 91
      501
 93
      412
310
40D11A5B50B409028333333333333E33F0000000000000F9010790141107004050150841D405064090741402480A02677FFFFFD0
1001
ACAD
1000
AcDbSavedByObjectVersion
1070
     0
  0
ACAD_PROXY_OBJECT
  5
3D
102
{ACAD_REACTORS
330
2A
102
}
330
2A
100
AcDbZombieObject
 90
      499
 91
      501
 93
      452
310
43115919D950DBDB1BDC93D999916409028333333333333E33F0000000000000F9010790141107004050150841D405064090741402480A0350
1001
ACAD
1000
AcDbSavedByObjectVersion
1070
     0
  0
ACAD_PROXY_OBJECT
  5
39
102
{ACAD_REACTORS
330
2A
102
}
330
2A
100
AcDbZombieObject
 90
      499
 91
      501
 93
      444
310
42D19858D95C185D1D195C9B90F409028333333333333E33F0000000000000F9010790141107004050150841D405064090741402480A0350
1001
ACAD
1000
AcDbSavedByObjectVersion
1070
     0
  0
ACAD_PROXY_OBJECT
  5
2B
102
{ACAD_REACTORS
330
2A
102
}
330
2A
100
AcDbZombieObject
 90
      499
 91
      501
 93
      380
310
41119B185D240901404333333333333E33F0000000000000F9010740A907004050150841D405064090741402480A1B50
1001
ACAD
1000
AcDbSavedByObjectVersion
1070
     0
  0
ACAD_PROXY_OBJECT
  5
2C
102
{ACAD_REACTORS
330
2A
102
}
330
2A
100
AcDbZombieObject
 90
      499
 91
      501
 93
      468
310
43519B185D15DA5D1A115919D95CD0140901404333333333333E33F0000000000000F90107409019070040501600405405064090741402480A1B50
1001
ACAD
1000
AcDbSavedByObjectVersion
1070
     0
  0
ACAD_PROXY_OBJECT
  5
2D
102
{ACAD_REACTORS
330
2A
102
}
330
2A
100
AcDbZombieObject
 90
      499
 91
      501
 93
      404
310
41D1DBDD5C985D5910240902404333333333333E33F0000000000000F9010740A9070040501641D405064090741402480A1B50
1001
ACAD
1000
AcDbSavedByObjectVersion
1070
     0
  0
ACAD_PROXY_OBJECT
  5
2E
102
{ACAD_REACTORS
330
2A
102
}
330
2A
100
AcDbZombieObject
 90
      499
 91
      501
 93
      492
310
4411DBDD5C985D5915DA5D1A115919D95CD0340902404333333333333E33F0000000000000F90107409019070040501600405405064090741402480A1B50
1001
ACAD
1000
AcDbSavedByObjectVersion
1070
     0
  0
ACAD_PROXY_OBJECT
  5
31
102
{ACAD_REACTORS
330
2A
102
}
330
2A
100
AcDbZombieObject
 90
      499
 91
      501
 93
      476
310
41921A5919195B90640502408333333333333E33F0000000000000F901079024090700405020000000000001110200405405064090740C02480A0340
1001
ACAD
1000
AcDbSavedByObjectVersion
1070
     0
  0
ACAD_PROXY_OBJECT
  5
3B
102
{ACAD_REACTORS
330
2A
102
}
330
2A
100
AcDbZombieObject
 90
      499
 91
      501
 93
      428
310
42529A5D1D195C93D999914409028333333333333E33F0000000000000F9010790141107004050150A41D405064090741402480A0350
1001
ACAD
1000
AcDbSavedByObjectVersion
1070
     0
  0
ACAD_PROXY_OBJECT
  5
38
102
{ACAD_REACTORS
330
2A
102
}
330
2A
100
AcDbZombieObject
 90
      499
 91
      501
 93
      444
310
42D31A5B995C185D1D195C9B90E409028333333333333E33F0000000000000F9010790141107004050750841D405064090741402483A0350
1001
ACAD
1000
AcDbSavedByObjectVersion
1070
     0
  0
ACAD_PROXY_OBJECT
  5
3C
102
{ACAD_REACTORS
330
2A
102
}
330
2A
100
AcDbZombieObject
 90
      499
 91
      501
 93
      444
310
42D3DD995C9A185B99D3D999915409028333333333333E33F0000000000000F9010790141107004050150941D405064090741402480A0350
1001
ACAD
1000
AcDbSavedByObjectVersion
1070
     0
  0
ACAD_PROXY_OBJECT
  5
33
102
{ACAD_REACTORS
330
2A
102
}
330
2A
100
AcDbZombieObject
 90
      499
 91
      501
 93
      428
310
425499585B1A5CDD1A58D08409038333333333333E33F0000000000000F9010740A907004050150800405405064090740C02480A1B40
1001
ACAD
1000
AcDbSavedByObjectVersion
1070
     0
  0
ACAD_PROXY_OBJECT
  5
42
102
{ACAD_REACTORS
330
2A
102
}
330
2A
100
AcDbZombieObject
 90
      499
 91
      501
 93
      420
310
4194DA1859195911B40902404333333333333E33F0000000000000F9010740A41107004050150800405405064090840C02480A0B40
1001
ACAD
1000
AcDbSavedByObjectVersion
1070
     0
  0
ACAD_PROXY_OBJECT
  5
41
102
{ACAD_REACTORS
330
2A
102
}
330
2A
100
AcDbZombieObject
 90
      499
 91
      501
 93
      516
310
4454DA18591959081DDA5D1A08195919D95CD1A40902404333333333333E33F0000000000000F901074090142907004050250800405405064090740C02480A0B40
1001
ACAD
1000
AcDbSavedByObjectVersion
1070
     0
  0
ACAD_PROXY_OBJECT
  5
3E
102
{ACAD_REACTORS
330
2A
102
}
330
2A
100
AcDbZombieObject
 90
      499
 91
      501
 93
      532
310
4394DA1859195CC81BD98811DC985E5174090240C333333333333E33F0000000000000F901079024090741D01000000000000111010841D405064090740C02480A0340
1001
ACAD
1000
AcDbSavedByObjectVersion
1070
     0
  0
ACAD_PROXY_OBJECT
  5
3F
102
{ACAD_REACTORS
330
2A
102
}
330
2A
100
AcDbZombieObject
 90
      499
 91
      501
 93
      476
310
41D4DAD95D18DA1E51840502408333333333333E33F0000000000000F901079024090741D01000000000000111010B41D405064090741802480A0340
1001
ACAD
1000
AcDbSavedByObjectVersion
1070
     0
  0
ACAD_PROXY_OBJECT
  5
37
102
{ACAD_REACTORS
330
2A
102
}
330
2A
100
AcDbZombieObject
 90
      499
 91
      501
 93
      412
310
41D51A1A58DAD95B90D409028333333333333E33F0000000000000F9010790141107004050150C41D405064090741402480A0350
1001
ACAD
1000
AcDbSavedByObjectVersion
1070
     0
  0
ACAD_PROXY_OBJECT
  5
30
102
{ACAD_REACTORS
330
2A
102
}
330
2A
100
AcDbZombieObject
 90
      499
 91
      501
 93
      420
310
4255DA5C99599C985B595059028333333333333E33F0000000000000F90107901411070040501600405405064090740C02480A0340
1001
ACAD
1000
AcDbSavedByObjectVersion
1070
     0
  0
ACAD_PROXY_OBJECT
  5
40
102
{ACAD_REACTORS
330
2A
102
}
330
2A
100
AcDbZombieObject
 90
      499
 91
      501
 93
      404
310
41560B54985E51940902404000000000000E03F0000000000000F9010740501907004050150841D405064090740C02480A1B40
1001
ACAD
1000
AcDbSavedByObjectVersion
1070
     0
  0
DICTIONARYVAR
  5
125
102
{ACAD_REACTORS
330
11A
102
}
330
11A
100
DictionaryVariables
280
     0
  1
1:1
  0
DICTIONARYVAR
  5
121
102
{ACAD_REACTORS
330
11A
102
}
330
11A
100
DictionaryVariables
280
     0
  1
3.500000
  0
DICTIONARYVAR
  5
122
102
{ACAD_REACTORS
330
11A
102
}
330
11A
100
DictionaryVariables
280
     0
  1
acadiso.lin
  0
DICTIONARYVAR
  5
11C
102
{ACAD_REACTORS
330
11A
102
}
330
11A
100
DictionaryVariables
280
     0
  1
Standard
  0
DICTIONARYVAR
  5
11B
102
{ACAD_REACTORS
330
11A
102
}
330
11A
100
DictionaryVariables
280
     0
  1
Standard
  0
DICTIONARYVAR
  5
123
102
{ACAD_REACTORS
330
11A
102
}
330
11A
100
DictionaryVariables
280
     0
  1
2
  0
DICTIONARYVAR
  5
124
102
{ACAD_REACTORS
330
11A
102
}
330
11A
100
DictionaryVariables
280
     0
  1
1
  0
DICTIONARYVAR
  5
126
102
{ACAD_REACTORS
330
11A
102
}
330
11A
100
DictionaryVariables
280
     0
  1
1
  0
DICTIONARYVAR
  5
11E
102
{ACAD_REACTORS
330
11A
102
}
330
11A
100
DictionaryVariables
280
     0
  1
80.000000
  0
DICTIONARYVAR
  5
11D
102
{ACAD_REACTORS
330
11A
102
}
330
11A
100
DictionaryVariables
280
     0
  1
5.000000
  0
DICTIONARY
  5
129
330
45
100
AcDbDictionary
  3
ACAD_XREC_ROUNDTRIP
360
12A
1001
ACAD
1000
TREAT_AS_HARD
1070
     1
  0
DICTIONARY
  5
127
330
44
100
AcDbDictionary
  3
ACAD_XREC_ROUNDTRIP
360
128
1001
ACAD
1000
TREAT_AS_HARD
1070
     1
  0
DICTIONARY
  5
12B
330
46
100
AcDbDictionary
  3
ACAD_XREC_ROUNDTRIP
360
12C
1001
ACAD
1000
TREAT_AS_HARD
1070
     1
  0
XRECORD
  5
12A
102
{ACAD_REACTORS
330
129
102
}
330
129
100
AcDbXrecord
102
MATERIAL
148
0.0
149
0.0
149
0.0
 93
        0
 94
      127
282
     0
 72
     1
 77
     1
171
     1
175
     1
179
     1
273
     0
  0
XRECORD
  5
128
102
{ACAD_REACTORS
330
127
102
}
330
127
100
AcDbXrecord
102
MATERIAL
148
0.0
149
0.0
149
0.0
 93
        0
 94
      127
282
     0
 72
     1
 77
     1
171
     1
175
     1
179
     1
273
     0
  0
XRECORD
  5
12C
102
{ACAD_REACTORS
330
12B
102
}
330
12B
100
AcDbXrecord
102
MATERIAL
148
0.0
149
0.0
149
0.0
 93
        0
 94
      127
282
     0
 72
     1
 77
     1
171
     1
175
     1
179
     1
273
     0
  0
ENDSEC
  0
EOF
