999
DXF file: S:\mis documentos\BESMON\CLIENTS\ZAUBER\ZHINTYAN_BOX\v06\3D_v06_minijack\zynthian_box_2p_v06_mjack_5.dxf
999
Pro/ENGINEER 2013230 by Parametric Technology Corporation
  0
SECTION
  2
HEADER
  9
$ACADVER
  1
AC1015
  9
$DWGCODEPAGE
  3
ANSI_1252
  9
$EXTMAX
 10
11.6929133858
 20
8.2677165354
 30
0.0
  9
$EXTMIN
 10
0.0
 20
0.0
 30
0.0
  9
$LIMMIN
 10
0.0
 20
0.0
  9
$LIMMAX
 10
11.6929133858
 20
8.2677165354
  9
$VIEWCTR
 10
5.8464566929
 20
4.1338582677
  9
$VIEWSIZE
 40
8.2677165354
  9
$CLAYER
  8
0
  9
$LTSCALE
 40
0.6431102362
  9
$CELTYPE
  6
BYLAYER
  9
$DIMSCALE
 40
1.0
  9
$DIMASZ
 40
0.1875
  9
$DIMEXO
 40
0.0625
  9
$DIMDLI
 40
0.4443307087
  9
$DIMEXE
 40
0.125
  9
$DIMCEN
 40
0.1052362205
  9
$DIMLFAC
 40
1.0
  9
$DIMBLK
  1
_CLOSED
  9
$DIMTXT
 40
0.15625
  9
$DIMTOL
 70
0
  9
$DIMLIM
 70
0
  9
$DIMTFAC
 40
1.0
  9
$DIMGAP
 40
0.09
  9
$DIMDSEP
 70
46
  9
$PDMODE
 70
3
  9
$PDSIZE
 40
0.3125
  9
$HANDSEED
  5
3AC
  9
$TILEMODE
 70
1
  9
$MEASUREMENT
 70
0
  9
$INSUNITS
 70
1
  0
ENDSEC
  0
SECTION
  2
CLASSES
  0
CLASS
  1
ACDBDICTIONARYWDFLT
  2
AcDbDictionaryWithDefault
  3
AutoCAD 2000
 90
0
280
0
281
0
  0
CLASS
  1
ACDBPLACEHOLDER
  2
AcDbPlaceHolder
  3
AutoCAD 2000
 90
0
280
0
281
0
  0
CLASS
  1
LAYOUT
  2
AcDbLayout
  3
AutoCAD 2000
 90
0
280
0
281
0
  0
ENDSEC
  0
SECTION
  2
TABLES
  0
TABLE
  2
VPORT
  5
8
100
AcDbSymbolTable
 70
2
  0
VPORT
  5
1F4
100
AcDbSymbolTableRecord
100
AcDbViewportTableRecord
  2
*ACTIVE
 70
0
 10
0.0
 20
0.0
 11
1.0
 21
1.0
 12
5.8464566929
 22
4.1338582677
 13
0.0
 23
0.0
 14
1.0
 24
1.0
 15
0.0
 25
0.0
 16
0.0
 26
0.0
 36
1.0
 17
0.0
 27
0.0
 37
0.0
 40
8.2677165354
 41
1.4142857143
 42
50.0
 43
0.0
 44
0.0
 50
0.0
 51
0.0
 71
0
 72
100
 73
1
 74
1
 75
0
 76
0
 77
0
 78
0
  0
ENDTAB
  0
TABLE
  2
LTYPE
  5
5
100
AcDbSymbolTable
 70
6
  0
LTYPE
  5
14
100
AcDbSymbolTableRecord
100
AcDbLinetypeTableRecord
  2
BYBLOCK
 70
0
  3

 72
65
 73
0
 40
0.0
  0
LTYPE
  5
15
100
AcDbSymbolTableRecord
100
AcDbLinetypeTableRecord
  2
BYLAYER
 70
0
  3

 72
65
 73
0
 40
0.0
  0
LTYPE
  5
16
100
AcDbSymbolTableRecord
100
AcDbLinetypeTableRecord
  2
CONTINUOUS
 70
64
  3
Solid line
 72
65
 73
0
 40
0.0
  0
LTYPE
  5
1F5
100
AcDbSymbolTableRecord
100
AcDbLinetypeTableRecord
  2
CENTER
 70
64
  3
____ _ ____ _ ____ _ ____ _ ____ _ ____ _ ____
 72
65
 73
4
 40
0.6
 49
0.375
 74
0
 49
-0.075
 74
0
 49
0.075
 74
0
 49
-0.075
 74
0
  0
LTYPE
  5
1F6
100
AcDbSymbolTableRecord
100
AcDbLinetypeTableRecord
  2
HIDDEN
 70
64
  3
- - - - - - - - - - - - - - - - - - - -
 72
65
 73
2
 40
0.2
 49
0.1
 74
0
 49
-0.1
 74
0
  0
LTYPE
  5
1F7
100
AcDbSymbolTableRecord
100
AcDbLinetypeTableRecord
  2
PHANTOM
 70
64
  3
_____ _ _ _____ _ _ _____ _ _ _____
 72
65
 73
6
 40
0.8
 49
0.45
 74
0
 49
-0.05
 74
0
 49
0.1
 74
0
 49
-0.05
 74
0
 49
0.1
 74
0
 49
-0.05
 74
0
  0
LTYPE
  5
1F8
100
AcDbSymbolTableRecord
100
AcDbLinetypeTableRecord
  2
DOT
 70
64
  3
. . . . . . . . . . . . . . . . . . . .
 72
65
 73
2
 40
0.2
 49
0.1
 74
0
 49
-0.1
 74
0
  0
LTYPE
  5
1F9
100
AcDbSymbolTableRecord
100
AcDbLinetypeTableRecord
  2
DASHED
 70
64
  3
- - - - - - - - - - - - - - - - - - - -
 72
65
 73
2
 40
0.2
 49
0.1
 74
0
 49
-0.1
 74
0
  0
ENDTAB
  0
TABLE
  2
LAYER
  5
2
100
AcDbSymbolTable
 70
36
  0
LAYER
  5
10
100
AcDbSymbolTableRecord
100
AcDbLayerTableRecord
  2
0
 70
0
 62
7
  6
CONTINUOUS
370
-3
390
F
  0
LAYER
  5
1FA
100
AcDbSymbolTableRecord
100
AcDbLayerTableRecord
  2
DEFAULT_1
 70
0
 62
7
  6
CENTER
370
-3
390
F
  0
LAYER
  5
1FB
100
AcDbSymbolTableRecord
100
AcDbLayerTableRecord
  2
DEFAULT_2
 70
0
 62
8
  6
HIDDEN
370
-3
390
F
  0
LAYER
  5
1FC
100
AcDbSymbolTableRecord
100
AcDbLayerTableRecord
  2
DEFAULT_3
 70
0
 62
7
  6
PHANTOM
370
-3
390
F
  0
LAYER
  5
1FD
100
AcDbSymbolTableRecord
100
AcDbLayerTableRecord
  2
01_ALL_DTM_PLN
 70
0
 62
7
  6
CONTINUOUS
370
-3
390
F
  0
LAYER
  5
1FE
100
AcDbSymbolTableRecord
100
AcDbLayerTableRecord
  2
01__ASM_ALL_DTM_PLN
 70
0
 62
7
  6
CONTINUOUS
370
-3
390
F
  0
LAYER
  5
1FF
100
AcDbSymbolTableRecord
100
AcDbLayerTableRecord
  2
01__ASM_DEF_DTM_PLN
 70
0
 62
7
  6
CONTINUOUS
370
-3
390
F
  0
LAYER
  5
200
100
AcDbSymbolTableRecord
100
AcDbLayerTableRecord
  2
01___PRT_ALL_DTM_PLN
 70
0
 62
7
  6
CONTINUOUS
370
-3
390
F
  0
LAYER
  5
201
100
AcDbSymbolTableRecord
100
AcDbLayerTableRecord
  2
01___PRT_DEF_DTM_PLN
 70
0
 62
7
  6
CONTINUOUS
370
-3
390
F
  0
LAYER
  5
202
100
AcDbSymbolTableRecord
100
AcDbLayerTableRecord
  2
02_ALL_AXES
 70
0
 62
7
  6
CONTINUOUS
370
-3
390
F
  0
LAYER
  5
203
100
AcDbSymbolTableRecord
100
AcDbLayerTableRecord
  2
02__ASM_ALL_AXES
 70
0
 62
7
  6
CONTINUOUS
370
-3
390
F
  0
LAYER
  5
204
100
AcDbSymbolTableRecord
100
AcDbLayerTableRecord
  2
02___PRT_ALL_AXES
 70
0
 62
7
  6
CONTINUOUS
370
-3
390
F
  0
LAYER
  5
205
100
AcDbSymbolTableRecord
100
AcDbLayerTableRecord
  2
03_ALL_CURVES
 70
0
 62
7
  6
CONTINUOUS
370
-3
390
F
  0
LAYER
  5
206
100
AcDbSymbolTableRecord
100
AcDbLayerTableRecord
  2
03__ASM_ALL_CURVES
 70
0
 62
7
  6
CONTINUOUS
370
-3
390
F
  0
LAYER
  5
207
100
AcDbSymbolTableRecord
100
AcDbLayerTableRecord
  2
03___PRT_ALL_CURVES
 70
0
 62
7
  6
CONTINUOUS
370
-3
390
F
  0
LAYER
  5
208
100
AcDbSymbolTableRecord
100
AcDbLayerTableRecord
  2
04_ALL_DTM_PNT
 70
0
 62
7
  6
CONTINUOUS
370
-3
390
F
  0
LAYER
  5
209
100
AcDbSymbolTableRecord
100
AcDbLayerTableRecord
  2
04__ASM_ALL_DTM_PNT
 70
0
 62
7
  6
CONTINUOUS
370
-3
390
F
  0
LAYER
  5
20A
100
AcDbSymbolTableRecord
100
AcDbLayerTableRecord
  2
04___PRT_ALL_DTM_PNT
 70
0
 62
7
  6
CONTINUOUS
370
-3
390
F
  0
LAYER
  5
20B
100
AcDbSymbolTableRecord
100
AcDbLayerTableRecord
  2
05_ALL_DTM_CSYS
 70
0
 62
7
  6
CONTINUOUS
370
-3
390
F
  0
LAYER
  5
20C
100
AcDbSymbolTableRecord
100
AcDbLayerTableRecord
  2
05__ASM_ALL_DTM_CSYS
 70
0
 62
7
  6
CONTINUOUS
370
-3
390
F
  0
LAYER
  5
20D
100
AcDbSymbolTableRecord
100
AcDbLayerTableRecord
  2
05__ASM_DEF_DTM_CSYS
 70
0
 62
7
  6
CONTINUOUS
370
-3
390
F
  0
LAYER
  5
20E
100
AcDbSymbolTableRecord
100
AcDbLayerTableRecord
  2
05___PRT_ALL_DTM_CSYS
 70
0
 62
7
  6
CONTINUOUS
370
-3
390
F
  0
LAYER
  5
20F
100
AcDbSymbolTableRecord
100
AcDbLayerTableRecord
  2
05___PRT_DEF_DTM_CSYS
 70
0
 62
7
  6
CONTINUOUS
370
-3
390
F
  0
LAYER
  5
210
100
AcDbSymbolTableRecord
100
AcDbLayerTableRecord
  2
06_ALL_SURFS
 70
0
 62
7
  6
CONTINUOUS
370
-3
390
F
  0
LAYER
  5
211
100
AcDbSymbolTableRecord
100
AcDbLayerTableRecord
  2
06__ASM_ALL_SURFS
 70
0
 62
7
  6
CONTINUOUS
370
-3
390
F
  0
LAYER
  5
212
100
AcDbSymbolTableRecord
100
AcDbLayerTableRecord
  2
06___PRT_ALL_SURFS
 70
0
 62
7
  6
CONTINUOUS
370
-3
390
F
  0
LAYER
  5
213
100
AcDbSymbolTableRecord
100
AcDbLayerTableRecord
  2
07__ASM_ALL_SKELETONS
 70
0
 62
7
  6
CONTINUOUS
370
-3
390
F
  0
LAYER
  5
214
100
AcDbSymbolTableRecord
100
AcDbLayerTableRecord
  2
BOARD
 70
0
 62
7
  6
CONTINUOUS
370
-3
390
F
  0
LAYER
  5
215
100
AcDbSymbolTableRecord
100
AcDbLayerTableRecord
  2
BOTTOM_COMPONENTS
 70
0
 62
7
  6
CONTINUOUS
370
-3
390
F
  0
LAYER
  5
216
100
AcDbSymbolTableRecord
100
AcDbLayerTableRecord
  2
BOTTOM_PINS
 70
0
 62
7
  6
CONTINUOUS
370
-3
390
F
  0
LAYER
  5
217
100
AcDbSymbolTableRecord
100
AcDbLayerTableRecord
  2
EIXOS
 70
0
 62
7
  6
CONTINUOUS
370
-3
390
F
  0
LAYER
  5
218
100
AcDbSymbolTableRecord
100
AcDbLayerTableRecord
  2
INTFCLR_5
 70
0
 62
7
  6
CONTINUOUS
370
-3
390
F
  0
LAYER
  5
219
100
AcDbSymbolTableRecord
100
AcDbLayerTableRecord
  2
INTFCLR_6
 70
0
 62
7
  6
CONTINUOUS
370
-3
390
F
  0
LAYER
  5
21A
100
AcDbSymbolTableRecord
100
AcDbLayerTableRecord
  2
INTFCLR_7
 70
0
 62
7
  6
CONTINUOUS
370
-3
390
F
  0
LAYER
  5
21B
100
AcDbSymbolTableRecord
100
AcDbLayerTableRecord
  2
INTF_BLUE
 70
0
 62
7
  6
CONTINUOUS
370
-3
390
F
  0
LAYER
  5
21C
100
AcDbSymbolTableRecord
100
AcDbLayerTableRecord
  2
INTF_RED
 70
0
 62
7
  6
CONTINUOUS
370
-3
390
F
  0
LAYER
  5
21D
100
AcDbSymbolTableRecord
100
AcDbLayerTableRecord
  2
LAY0001
 70
0
 62
7
  6
CONTINUOUS
370
-3
390
F
  0
LAYER
  5
21E
100
AcDbSymbolTableRecord
100
AcDbLayerTableRecord
  2
NONE
 70
0
 62
7
  6
CONTINUOUS
370
-3
390
F
  0
LAYER
  5
21F
100
AcDbSymbolTableRecord
100
AcDbLayerTableRecord
  2
PLANS_INICI
 70
0
 62
7
  6
CONTINUOUS
370
-3
390
F
  0
LAYER
  5
220
100
AcDbSymbolTableRecord
100
AcDbLayerTableRecord
  2
SCOOR
 70
0
 62
7
  6
CONTINUOUS
370
-3
390
F
  0
LAYER
  5
221
100
AcDbSymbolTableRecord
100
AcDbLayerTableRecord
  2
TOP_COMPONENTS
 70
0
 62
7
  6
CONTINUOUS
370
-3
390
F
  0
LAYER
  5
222
100
AcDbSymbolTableRecord
100
AcDbLayerTableRecord
  2
TOP_PINS
 70
0
 62
7
  6
CONTINUOUS
370
-3
390
F
  0
LAYER
  5
223
100
AcDbSymbolTableRecord
100
AcDbLayerTableRecord
  2
WHITE
 70
0
 62
7
  6
CONTINUOUS
370
-3
390
F
  0
ENDTAB
  0
TABLE
  2
STYLE
  5
3
100
AcDbSymbolTable
 70
1
  0
STYLE
  5
11
100
AcDbSymbolTableRecord
100
AcDbTextStyleTableRecord
  2
STANDARD
 70
0
 40
0.0
 41
0.8
 50
0.0
 71
0
 42
0.2
  3
txt
  4

  0
STYLE
  5
224
100
AcDbSymbolTableRecord
100
AcDbTextStyleTableRecord
  2
TEXTSTYLE_1
 70
0
 40
0.0
 41
0.8
 50
0.0
 71
0
 42
0.2
  3
gdt
  4

  0
ENDTAB
  0
TABLE
  2
VIEW
  5
6
100
AcDbSymbolTable
 70
0
  0
ENDTAB
  0
TABLE
  2
UCS
  5
7
100
AcDbSymbolTable
 70
0
  0
ENDTAB
  0
TABLE
  2
APPID
  5
9
100
AcDbSymbolTable
 70
1
  0
APPID
  5
225
100
AcDbSymbolTableRecord
100
AcDbRegAppTableRecord
  2
ACAD
 70
0
  0
ENDTAB
  0
TABLE
  2
BLOCK_RECORD
  5
1
100
AcDbSymbolTable
 70
0
  0
BLOCK_RECORD
  5
226
100
AcDbSymbolTableRecord
100
AcDbBlockTableRecord
  2
*Model_Space
  0
BLOCK_RECORD
  5
227
100
AcDbSymbolTableRecord
100
AcDbBlockTableRecord
  2
*Paper_Space
  0
ENDTAB
  0
TABLE
  2
DIMSTYLE
  5
A
100
AcDbSymbolTable
 70
1
100
AcDbDimStyleTable
 71
0
  0
DIMSTYLE
105
228
100
AcDbSymbolTableRecord
100
AcDbDimStyleTableRecord
  2
STANDARD
 70
0
  3

  4

 40
1.0
 41
0.1875
 42
0.0625
 43
0.38
 44
0.125
 45
0.0
 46
0.0
 47
0.01
 48
0.01
140
0.15625
141
0.09
142
0.0
143
25.4
144
1.0
145
0.0
146
1.0
147
0.09
 71
0.0
 72
0.0
 73
1
 74
1
 75
0
 76
0
 77
0
 78
4
170
0
171
2
172
0
173
0
174
0
175
0
176
0
177
0
178
0
270
2
271
2
272
2
273
2
274
2
275
0
280
0
281
0
282
0
283
1
284
4
285
0
286
0
287
3
288
0
340
11
278
46
  0
ENDTAB
  0
ENDSEC
  0
SECTION
  2
BLOCKS
  0
BLOCK
  5
20
100
AcDbEntity
  8
0
100
AcDbBlockBegin
  2
*Model_Space
 70
0
 10
0.0
 20
0.0
 30
0.0
  3
*Model_Space
  1

  0
ENDBLK
  5
21
100
AcDbEntity
  8
0
100
AcDbBlockEnd
  0
BLOCK
  5
1C
100
AcDbEntity
  8
0
100
AcDbBlockBegin
  2
*Paper_Space
 70
0
 10
0.0
 20
0.0
 30
0.0
  3
*Paper_Space
  1

  0
ENDBLK
  5
1D
100
AcDbEntity
  8
0
100
AcDbBlockEnd
  0
ENDSEC
  0
SECTION
  2
ENTITIES
  0
MTEXT
  5
229
100
AcDbEntity
  8
0
100
AcDbMText
 62
2
  6
CONTINUOUS
  7
STANDARD
 71
3
 72
1
 10
3.5860771809
 20
1.5590573669
 30
0.0
 11
1.0
 21
0.0
 31
0.0
 44
0.9
  1
ESCALA 1.000
 40
0.15625
 41
1.5
  0
LINE
  5
22A
100
AcDbEntity
  8
0
100
AcDbLine
 62
7
  6
CONTINUOUS
 10
0.0
 20
0.0
 11
0.0
 21
8.2677165354
  0
LINE
  5
22B
100
AcDbEntity
  8
0
100
AcDbLine
 62
7
  6
CONTINUOUS
 10
0.0
 20
0.0
 11
11.6929133858
 21
0.0
  0
LINE
  5
22C
100
AcDbEntity
  8
0
100
AcDbLine
 62
7
  6
CONTINUOUS
 10
0.0
 20
8.2677165354
 11
11.6929133858
 21
8.2677165354
  0
LINE
  5
22D
100
AcDbEntity
  8
0
100
AcDbLine
 62
7
  6
CONTINUOUS
 10
11.6929133858
 20
0.0
 11
11.6929133858
 21
8.2677165354
  0
LINE
  5
22E
100
AcDbEntity
  8
0
100
AcDbLine
 62
3
  6
CONTINUOUS
 10
2.4453966357
 20
2.6506222059
 11
2.4453966357
 21
2.8868426784
  0
LINE
  5
22F
100
AcDbEntity
  8
0
100
AcDbLine
 62
3
  6
CONTINUOUS
 10
2.4453966357
 20
2.9655828359
 11
2.4453966357
 21
4.5797560642
  0
LINE
  5
230
100
AcDbEntity
  8
0
100
AcDbLine
 62
3
  6
CONTINUOUS
 10
2.4453966357
 20
4.6584962217
 11
2.4453966357
 21
4.7372363792
  0
LINE
  5
231
100
AcDbEntity
  8
0
100
AcDbLine
 62
3
  6
CONTINUOUS
 10
2.563506872
 20
4.6092836233
 11
2.563506872
 21
2.9360552768
  0
LINE
  5
232
100
AcDbEntity
  8
0
100
AcDbLine
 62
3
  6
CONTINUOUS
 10
3.063506872
 20
3.6956559405
 11
3.063506872
 21
3.6978391732
  0
LINE
  5
233
100
AcDbEntity
  8
0
100
AcDbLine
 62
7
  6
CONTINUOUS
 10
3.0654753759
 20
4.2692240201
 11
3.0654753759
 21
4.2057403162
  0
LINE
  5
234
100
AcDbEntity
  8
0
100
AcDbLine
 62
7
  6
CONTINUOUS
 10
3.1639005727
 20
4.2692240201
 11
3.1639005727
 21
4.2057403162
  0
LINE
  5
235
100
AcDbEntity
  8
0
100
AcDbLine
 62
3
  6
CONTINUOUS
 10
3.1658690767
 20
3.6978391743
 11
3.1658690767
 21
3.6956559405
  0
LINE
  5
236
100
AcDbEntity
  8
0
100
AcDbLine
 62
7
  6
CONTINUOUS
 10
3.2327982105
 20
4.0630237808
 11
3.2327982105
 21
4.0334962217
  0
LINE
  5
237
100
AcDbEntity
  8
0
100
AcDbLine
 62
7
  6
CONTINUOUS
 10
2.9061617157
 20
3.988073936
 11
2.9162607357
 21
3.9603271067
  0
LINE
  5
238
100
AcDbEntity
  8
0
100
AcDbLine
 62
7
  6
CONTINUOUS
 10
3.0087501669
 20
3.9939905066
 11
2.9986511469
 21
4.021737336
  0
LINE
  5
239
100
AcDbEntity
  8
0
100
AcDbLine
 62
7
  6
CONTINUOUS
 10
3.1377494731
 20
3.8324505245
 11
3.1206581171
 21
3.9293804215
  0
LINE
  5
23A
100
AcDbEntity
  8
0
100
AcDbLine
 62
7
  6
CONTINUOUS
 10
3.1668284422
 20
3.8375779313
 11
3.1497370861
 21
3.9345078283
  0
LINE
  5
23B
100
AcDbEntity
  8
0
100
AcDbLine
 62
7
  6
CONTINUOUS
 10
3.3312234074
 20
4.0334962217
 11
3.3312234074
 21
4.0630237808
  0
LINE
  5
23C
100
AcDbEntity
  8
0
100
AcDbLine
 62
7
  6
CONTINUOUS
 10
3.0428470481
 20
3.953355426
 11
2.9936344497
 21
3.8681167051
  0
LINE
  5
23D
100
AcDbEntity
  8
0
100
AcDbLine
 62
7
  6
CONTINUOUS
 10
3.0192060659
 20
3.8533529256
 11
3.0684186643
 21
3.9385916464
  0
LINE
  5
23E
100
AcDbEntity
  8
0
100
AcDbLine
 62
3
  6
CONTINUOUS
 10
4.0477588405
 20
3.6956559405
 11
4.0477588405
 21
3.6978391732
  0
LINE
  5
23F
100
AcDbEntity
  8
0
100
AcDbLine
 62
7
  6
CONTINUOUS
 10
4.0497273444
 20
4.2692240201
 11
4.0497273444
 21
4.2057403162
  0
LINE
  5
240
100
AcDbEntity
  8
0
100
AcDbLine
 62
7
  6
CONTINUOUS
 10
3.214655639
 20
3.9836499161
 11
3.1956756899
 21
3.9610304935
  0
LINE
  5
241
100
AcDbEntity
  8
0
100
AcDbLine
 62
7
  6
CONTINUOUS
 10
3.271073765
 20
3.8977639965
 11
3.2900537141
 21
3.9203834191
  0
LINE
  5
242
100
AcDbEntity
  8
0
100
AcDbLine
 62
7
  6
CONTINUOUS
 10
3.8904136842
 20
3.988073936
 11
3.9005127042
 21
3.9603271067
  0
LINE
  5
243
100
AcDbEntity
  8
0
100
AcDbLine
 62
7
  6
CONTINUOUS
 10
4.1481525413
 20
4.2692240201
 11
4.1481525413
 21
4.2057403162
  0
LINE
  5
244
100
AcDbEntity
  8
0
100
AcDbLine
 62
3
  6
CONTINUOUS
 10
4.1501210452
 20
3.6978391743
 11
4.1501210452
 21
3.6956559405
  0
LINE
  5
245
100
AcDbEntity
  8
0
100
AcDbLine
 62
7
  6
CONTINUOUS
 10
4.217050179
 20
4.0630237808
 11
4.217050179
 21
4.0334962217
  0
LINE
  5
246
100
AcDbEntity
  8
0
100
AcDbLine
 62
7
  6
CONTINUOUS
 10
4.3154753759
 20
4.0334962217
 11
4.3154753759
 21
4.0630237808
  0
LINE
  5
247
100
AcDbEntity
  8
0
100
AcDbLine
 62
7
  6
CONTINUOUS
 10
4.0270990166
 20
3.953355426
 11
3.9778864182
 21
3.8681167051
  0
LINE
  5
248
100
AcDbEntity
  8
0
100
AcDbLine
 62
7
  6
CONTINUOUS
 10
2.9936344497
 20
3.8681167051
 11
3.0192060659
 21
3.8533529256
  0
LINE
  5
249
100
AcDbEntity
  8
0
100
AcDbLine
 62
7
  6
CONTINUOUS
 10
3.1956756899
 20
3.9610304935
 11
3.271073765
 21
3.8977639965
  0
LINE
  5
24A
100
AcDbEntity
  8
0
100
AcDbLine
 62
7
  6
CONTINUOUS
 10
3.2900537141
 20
3.9203834191
 11
3.214655639
 21
3.9836499161
  0
LINE
  5
24B
100
AcDbEntity
  8
0
100
AcDbLine
 62
7
  6
CONTINUOUS
 10
3.9930021354
 20
3.9939905066
 11
3.9829031154
 21
4.021737336
  0
LINE
  5
24C
100
AcDbEntity
  8
0
100
AcDbLine
 62
7
  6
CONTINUOUS
 10
4.1220014416
 20
3.8324505245
 11
4.1049100856
 21
3.9293804215
  0
LINE
  5
24D
100
AcDbEntity
  8
0
100
AcDbLine
 62
7
  6
CONTINUOUS
 10
4.1510804107
 20
3.8375779313
 11
4.1339890547
 21
3.9345078283
  0
LINE
  5
24E
100
AcDbEntity
  8
0
100
AcDbLine
 62
7
  6
CONTINUOUS
 10
4.0034580344
 20
3.8533529256
 11
4.0526706328
 21
3.9385916464
  0
LINE
  5
24F
100
AcDbEntity
  8
0
100
AcDbLine
 62
3
  6
CONTINUOUS
 10
2.4453966357
 20
2.6506222059
 11
9.1383100216
 21
2.6506222059
  0
LINE
  5
250
100
AcDbEntity
  8
0
100
AcDbLine
 62
3
  6
CONTINUOUS
 10
2.4453966357
 20
2.7687324422
 11
9.1383100216
 21
2.7687324422
  0
LINE
  5
251
100
AcDbEntity
  8
0
100
AcDbLine
 62
7
  6
CONTINUOUS
 10
3.0684186643
 20
3.9385916464
 11
3.0428470481
 21
3.953355426
  0
LINE
  5
252
100
AcDbEntity
  8
0
100
AcDbLine
 62
7
  6
CONTINUOUS
 10
4.1989076075
 20
3.9836499161
 11
4.1799276584
 21
3.9610304935
  0
LINE
  5
253
100
AcDbEntity
  8
0
100
AcDbLine
 62
7
  6
CONTINUOUS
 10
4.2553257335
 20
3.8977639965
 11
4.2743056826
 21
3.9203834191
  0
LINE
  5
254
100
AcDbEntity
  8
0
100
AcDbLine
 62
3
  6
CONTINUOUS
 10
2.4650816751
 20
2.9065277178
 11
2.5339793129
 21
2.9065277178
  0
LINE
  5
255
100
AcDbEntity
  8
0
100
AcDbLine
 62
3
  6
CONTINUOUS
 10
2.4453966357
 20
2.9655828359
 11
2.5197770656
 21
2.9655828359
  0
LINE
  5
256
100
AcDbEntity
  8
02___PRT_ALL_AXES
100
AcDbLine
 62
3
  6
CONTINUOUS
 10
6.2721047941
 20
2.9695198437
 11
6.0556963514
 21
2.9695198437
  0
LINE
  5
257
100
AcDbEntity
  8
02___PRT_ALL_AXES
100
AcDbLine
 62
3
  6
CONTINUOUS
 10
7.2465025431
 20
2.9852678752
 11
6.7663379725
 21
2.9852678752
  0
LINE
  5
258
100
AcDbEntity
  8
0
100
AcDbLine
 62
7
  6
CONTINUOUS
 10
6.0105760256
 20
2.9950710248
 11
6.3172251199
 21
2.9950710248
  0
LINE
  5
259
100
AcDbEntity
  8
0
100
AcDbLine
 62
7
  6
CONTINUOUS
 10
6.7209871869
 20
2.9950710248
 11
6.734479732
 21
2.9950710248
  0
LINE
  5
25A
100
AcDbEntity
  8
0
100
AcDbLine
 62
7
  6
CONTINUOUS
 10
6.734479732
 20
2.9950710248
 11
7.2783607835
 21
2.9950710248
  0
LINE
  5
25B
100
AcDbEntity
  8
0
100
AcDbLine
 62
7
  6
CONTINUOUS
 10
7.2783607835
 20
2.9950710248
 11
7.2918533287
 21
2.9950710248
  0
LINE
  5
25C
100
AcDbEntity
  8
0
100
AcDbLine
 62
7
  6
CONTINUOUS
 10
7.7347667145
 20
2.9950710248
 11
7.7756441707
 21
2.9950710248
  0
LINE
  5
25D
100
AcDbEntity
  8
0
100
AcDbLine
 62
7
  6
CONTINUOUS
 10
7.9301097307
 20
2.9950710248
 11
7.9709871869
 21
2.9950710248
  0
LINE
  5
25E
100
AcDbEntity
  8
0
100
AcDbLine
 62
7
  6
CONTINUOUS
 10
7.7756441707
 20
2.9950710248
 11
7.9301097307
 21
2.9950710248
  0
LINE
  5
25F
100
AcDbEntity
  8
0
100
AcDbLine
 62
7
  6
CONTINUOUS
 10
9.1698060846
 20
2.9950710248
 11
9.1717745885
 21
2.9950710248
  0
LINE
  5
260
100
AcDbEntity
  8
0
100
AcDbLine
 62
7
  6
CONTINUOUS
 10
7.9301723878
 20
2.9951103949
 11
7.7755815136
 21
2.9951103949
  0
LINE
  5
261
100
AcDbEntity
  8
0
100
AcDbLine
 62
7
  6
CONTINUOUS
 10
7.2784206428
 20
2.9951103949
 11
7.2327982105
 21
2.9951103949
  0
LINE
  5
262
100
AcDbEntity
  8
0
100
AcDbLine
 62
7
  6
CONTINUOUS
 10
6.780042305
 20
2.9951103949
 11
6.7344198727
 21
2.9951103949
  0
LINE
  5
263
100
AcDbEntity
  8
0
100
AcDbLine
 62
7
  6
CONTINUOUS
 10
6.2661228802
 20
2.9951103949
 11
6.1650816751
 21
2.9951103949
  0
LINE
  5
264
100
AcDbEntity
  8
0
100
AcDbLine
 62
7
  6
CONTINUOUS
 10
6.1639005727
 20
2.9951103949
 11
6.0616782653
 21
2.9951103949
  0
LINE
  5
265
100
AcDbEntity
  8
0
100
AcDbLine
 62
7
  6
CONTINUOUS
 10
9.1383100216
 20
2.9951103949
 11
9.1698060846
 21
2.9951103949
  0
LINE
  5
266
100
AcDbEntity
  8
0
100
AcDbLine
 62
7
  6
CONTINUOUS
 10
7.2390974231
 20
2.9990474028
 11
7.2367745885
 21
2.9990474028
  0
LINE
  5
267
100
AcDbEntity
  8
0
100
AcDbLine
 62
7
  6
CONTINUOUS
 10
6.7760659271
 20
2.9990474028
 11
6.7737430924
 21
2.9990474028
  0
LINE
  5
268
100
AcDbEntity
  8
0
100
AcDbLine
 62
7
  6
CONTINUOUS
 10
9.1776801003
 20
3.0029844107
 11
9.1383100216
 21
3.0029844107
  0
LINE
  5
269
100
AcDbEntity
  8
0
100
AcDbLine
 62
7
  6
CONTINUOUS
 10
6.0616782653
 20
3.0069214185
 11
6.1639005727
 21
3.0069214185
  0
LINE
  5
26A
100
AcDbEntity
  8
0
100
AcDbLine
 62
7
  6
CONTINUOUS
 10
6.1650816751
 20
3.0069214185
 11
6.2661228802
 21
3.0069214185
  0
LINE
  5
26B
100
AcDbEntity
  8
0
100
AcDbLine
 62
7
  6
CONTINUOUS
 10
7.282010809
 20
3.0108584264
 11
7.2623257696
 21
3.0108584264
  0
LINE
  5
26C
100
AcDbEntity
  8
0
100
AcDbLine
 62
7
  6
CONTINUOUS
 10
6.750514746
 20
3.0108584264
 11
6.7308297066
 21
3.0108584264
  0
LINE
  5
26D
100
AcDbEntity
  8
0
100
AcDbLine
 62
7
  6
CONTINUOUS
 10
6.3363408801
 20
3.0187324422
 11
6.3221682893
 21
3.0187324422
  0
LINE
  5
26E
100
AcDbEntity
  8
0
100
AcDbLine
 62
7
  6
CONTINUOUS
 10
6.817861983
 20
3.0199135445
 11
7.0237430924
 21
3.0199135445
  0
LINE
  5
26F
100
AcDbEntity
  8
0
100
AcDbLine
 62
7
  6
CONTINUOUS
 10
7.0241367932
 20
3.0199135445
 11
7.1949785326
 21
3.0199135445
  0
LINE
  5
270
100
AcDbEntity
  8
0
100
AcDbLine
 62
7
  6
CONTINUOUS
 10
6.0056328562
 20
3.0344804737
 11
5.9946092342
 21
3.0344804737
  0
LINE
  5
271
100
AcDbEntity
  8
0
100
AcDbLine
 62
7
  6
CONTINUOUS
 10
7.1949785326
 20
3.0395985839
 11
7.0241367932
 21
3.0395985839
  0
LINE
  5
272
100
AcDbEntity
  8
0
100
AcDbLine
 62
7
  6
CONTINUOUS
 10
7.0237430924
 20
3.0395985839
 11
6.817861983
 21
3.0395985839
  0
LINE
  5
273
100
AcDbEntity
  8
0
100
AcDbLine
 62
7
  6
CONTINUOUS
 10
3.9778864182
 20
3.8681167051
 11
4.0034580344
 21
3.8533529256
  0
LINE
  5
274
100
AcDbEntity
  8
0
100
AcDbLine
 62
7
  6
CONTINUOUS
 10
4.1799276584
 20
3.9610304935
 11
4.2553257335
 21
3.8977639965
  0
LINE
  5
275
100
AcDbEntity
  8
0
100
AcDbLine
 62
7
  6
CONTINUOUS
 10
4.2743056826
 20
3.9203834191
 11
4.1989076075
 21
3.9836499161
  0
LINE
  5
276
100
AcDbEntity
  8
0
100
AcDbLine
 62
3
  6
CONTINUOUS
 10
5.032010809
 20
3.6956559405
 11
5.032010809
 21
3.6978391732
  0
LINE
  5
277
100
AcDbEntity
  8
0
100
AcDbLine
 62
7
  6
CONTINUOUS
 10
5.0339793129
 20
4.2692240201
 11
5.0339793129
 21
4.2057403162
  0
LINE
  5
278
100
AcDbEntity
  8
0
100
AcDbLine
 62
7
  6
CONTINUOUS
 10
2.9986511469
 20
4.021737336
 11
2.9061617157
 21
3.988073936
  0
LINE
  5
279
100
AcDbEntity
  8
0
100
AcDbLine
 62
7
  6
CONTINUOUS
 10
2.9162607357
 20
3.9603271067
 11
3.0087501669
 21
3.9939905066
  0
LINE
  5
27A
100
AcDbEntity
  8
0
100
AcDbLine
 62
7
  6
CONTINUOUS
 10
6.7111446672
 20
3.0443229933
 11
6.6859886181
 21
3.0443229933
  0
LINE
  5
27B
100
AcDbEntity
  8
0
100
AcDbLine
 62
7
  6
CONTINUOUS
 10
7.3064202578
 20
3.0581025209
 11
7.3016958483
 21
3.0581025209
  0
LINE
  5
27C
100
AcDbEntity
  8
0
100
AcDbLine
 62
7
  6
CONTINUOUS
 10
6.7064202578
 20
3.0581025209
 11
6.682466593
 21
3.0581025209
  0
LINE
  5
27D
100
AcDbEntity
  8
0
100
AcDbLine
 62
7
  6
CONTINUOUS
 10
6.2898848247
 20
3.0797560642
 11
6.0379163208
 21
3.0797560642
  0
LINE
  5
27E
100
AcDbEntity
  8
0
100
AcDbLine
 62
7
  6
CONTINUOUS
 10
6.2898848247
 20
3.0915670878
 11
6.0379163208
 21
3.0915670878
  0
LINE
  5
27F
100
AcDbEntity
  8
0
100
AcDbLine
 62
7
  6
CONTINUOUS
 10
6.3221682893
 20
3.0934962217
 11
6.3363834883
 21
3.0934962217
  0
LINE
  5
280
100
AcDbEntity
  8
0
100
AcDbLine
 62
7
  6
CONTINUOUS
 10
6.6816171082
 20
3.0934962217
 11
6.7111446672
 21
3.0934962217
  0
LINE
  5
281
100
AcDbEntity
  8
0
100
AcDbLine
 62
7
  6
CONTINUOUS
 10
7.3016958483
 20
3.0934962217
 11
7.3312234074
 21
3.0934962217
  0
LINE
  5
282
100
AcDbEntity
  8
0
100
AcDbLine
 62
7
  6
CONTINUOUS
 10
6.0082931165
 20
3.1131812611
 11
6.319508029
 21
3.1131812611
  0
LINE
  5
283
100
AcDbEntity
  8
02___PRT_ALL_AXES
100
AcDbLine
 62
3
  6
CONTINUOUS
 10
6.0339793129
 20
3.1210946469
 11
6.2938218326
 21
3.1210946469
  0
LINE
  5
284
100
AcDbEntity
  8
0
100
AcDbLine
 62
7
  6
CONTINUOUS
 10
7.3312234074
 20
3.1525513398
 11
7.3016958483
 21
3.1525513398
  0
LINE
  5
285
100
AcDbEntity
  8
0
100
AcDbLine
 62
7
  6
CONTINUOUS
 10
6.7111446672
 20
3.1525513398
 11
6.6816171082
 21
3.1525513398
  0
LINE
  5
286
100
AcDbEntity
  8
0
100
AcDbLine
 62
7
  6
CONTINUOUS
 10
6.7426407302
 20
3.2187324422
 11
7.2701997853
 21
3.2187324422
  0
LINE
  5
287
100
AcDbEntity
  8
02___PRT_ALL_AXES
100
AcDbLine
 62
7
  6
CONTINUOUS
 10
7.7692531443
 20
3.2312914973
 11
7.833508437
 21
3.2312914973
  0
LINE
  5
288
100
AcDbEntity
  8
02___PRT_ALL_AXES
100
AcDbLine
 62
7
  6
CONTINUOUS
 10
7.8722454644
 20
3.2312914973
 11
7.9365007571
 21
3.2312914973
  0
LINE
  5
289
100
AcDbEntity
  8
0
100
AcDbLine
 62
7
  6
CONTINUOUS
 10
7.2701997853
 20
3.2384174815
 11
6.7426407302
 21
3.2384174815
  0
LINE
  5
28A
100
AcDbEntity
  8
0
100
AcDbLine
 62
7
  6
CONTINUOUS
 10
7.7818472257
 20
3.2392048831
 11
7.9239066757
 21
3.2392048831
  0
LINE
  5
28B
100
AcDbEntity
  8
0
100
AcDbLine
 62
7
  6
CONTINUOUS
 10
6.7603572657
 20
3.2509765367
 11
7.2524832499
 21
3.2509765367
  0
LINE
  5
28C
100
AcDbEntity
  8
02___PRT_ALL_AXES
100
AcDbLine
 62
3
  6
CONTINUOUS
 10
6.7406722263
 20
3.2679450406
 11
7.2721682893
 21
3.2679450406
  0
LINE
  5
28D
100
AcDbEntity
  8
0
100
AcDbLine
 62
7
  6
CONTINUOUS
 10
4.0526706328
 20
3.9385916464
 11
4.0270990166
 21
3.953355426
  0
LINE
  5
28E
100
AcDbEntity
  8
0
100
AcDbLine
 62
7
  6
CONTINUOUS
 10
4.8746656527
 20
3.988073936
 11
4.8847646727
 21
3.9603271067
  0
LINE
  5
28F
100
AcDbEntity
  8
0
100
AcDbLine
 62
7
  6
CONTINUOUS
 10
4.9772541039
 20
3.9939905066
 11
4.9671550839
 21
4.021737336
  0
LINE
  5
290
100
AcDbEntity
  8
0
100
AcDbLine
 62
7
  6
CONTINUOUS
 10
5.1324045098
 20
4.2692240201
 11
5.1324045098
 21
4.2057403162
  0
LINE
  5
291
100
AcDbEntity
  8
0
100
AcDbLine
 62
3
  6
CONTINUOUS
 10
5.1343730137
 20
3.6978391743
 11
5.1343730137
 21
3.6956559405
  0
LINE
  5
292
100
AcDbEntity
  8
0
100
AcDbLine
 62
7
  6
CONTINUOUS
 10
5.2013021476
 20
4.0630237808
 11
5.2013021476
 21
4.0334962217
  0
LINE
  5
293
100
AcDbEntity
  8
0
100
AcDbLine
 62
7
  6
CONTINUOUS
 10
5.2997273444
 20
4.0334962217
 11
5.2997273444
 21
4.0630237808
  0
LINE
  5
294
100
AcDbEntity
  8
0
100
AcDbLine
 62
7
  6
CONTINUOUS
 10
5.0113509851
 20
3.953355426
 11
4.9621383867
 21
3.8681167051
  0
LINE
  5
295
100
AcDbEntity
  8
0
100
AcDbLine
 62
7
  6
CONTINUOUS
 10
4.9877100029
 20
3.8533529256
 11
5.0369226013
 21
3.9385916464
  0
LINE
  5
296
100
AcDbEntity
  8
0
100
AcDbLine
 62
7
  6
CONTINUOUS
 10
3.9829031154
 20
4.021737336
 11
3.8904136842
 21
3.988073936
  0
LINE
  5
297
100
AcDbEntity
  8
0
100
AcDbLine
 62
7
  6
CONTINUOUS
 10
3.9005127042
 20
3.9603271067
 11
3.9930021354
 21
3.9939905066
  0
LINE
  5
298
100
AcDbEntity
  8
0
100
AcDbLine
 62
7
  6
CONTINUOUS
 10
6.3694380803
 20
3.4675119697
 11
6.4465520415
 21
3.4675119697
  0
LINE
  5
299
100
AcDbEntity
  8
02___PRT_ALL_AXES
100
AcDbLine
 62
7
  6
CONTINUOUS
 10
6.3044744827
 20
3.5068820485
 11
6.3427071714
 21
3.5068820485
  0
LINE
  5
29A
100
AcDbEntity
  8
02___PRT_ALL_AXES
100
AcDbLine
 62
7
  6
CONTINUOUS
 10
6.4732829505
 20
3.5068820485
 11
6.5115156392
 21
3.5068820485
  0
LINE
  5
29B
100
AcDbEntity
  8
0
100
AcDbLine
 62
7
  6
CONTINUOUS
 10
9.1379982412
 20
3.5187324422
 11
9.1776801003
 21
3.5187324422
  0
LINE
  5
29C
100
AcDbEntity
  8
0
100
AcDbLine
 62
7
  6
CONTINUOUS
 10
9.1698060846
 20
3.5266064579
 11
9.1354310022
 21
3.5266064579
  0
LINE
  5
29D
100
AcDbEntity
  8
0
100
AcDbLine
 62
3
  6
CONTINUOUS
 10
9.1186249822
 20
3.5364489776
 11
9.0497273444
 21
3.5364489776
  0
LINE
  5
29E
100
AcDbEntity
  8
0
100
AcDbLine
 62
7
  6
CONTINUOUS
 10
6.7333781838
 20
3.0792422528
 11
6.7575799145
 21
3.0717955664
  0
LINE
  5
29F
100
AcDbEntity
  8
0
100
AcDbLine
 62
7
  6
CONTINUOUS
 10
6.763369006
 20
3.0906101138
 11
6.7391593905
 21
3.0980592263
  0
LINE
  5
2A0
100
AcDbEntity
  8
0
100
AcDbLine
 62
7
  6
CONTINUOUS
 10
4.9621383867
 20
3.8681167051
 11
4.9877100029
 21
3.8533529256
  0
LINE
  5
2A1
100
AcDbEntity
  8
02___PRT_ALL_AXES
100
AcDbLine
 62
3
  6
CONTINUOUS
 10
6.0222897318
 20
2.9833573186
 11
6.0005726933
 21
3.0050743572
  0
LINE
  5
2A2
100
AcDbEntity
  8
0
100
AcDbLine
 62
7
  6
CONTINUOUS
 10
6.0226049535
 20
3.0252145154
 11
6.046366898
 21
3.0014525709
  0
LINE
  5
2A3
100
AcDbEntity
  8
0
100
AcDbLine
 62
7
  6
CONTINUOUS
 10
6.0547185529
 20
3.0098042258
 11
6.0309566084
 21
3.0335661703
  0
LINE
  5
2A4
100
AcDbEntity
  8
0
100
AcDbLine
 62
7
  6
CONTINUOUS
 10
5.1062534101
 20
3.8324505245
 11
5.0891620541
 21
3.9293804215
  0
LINE
  5
2A5
100
AcDbEntity
  8
0
100
AcDbLine
 62
7
  6
CONTINUOUS
 10
5.1353323792
 20
3.8375779313
 11
5.1182410232
 21
3.9345078283
  0
LINE
  5
2A6
100
AcDbEntity
  8
0
100
AcDbLine
 62
7
  6
CONTINUOUS
 10
5.183159576
 20
3.9836499161
 11
5.1641796269
 21
3.9610304935
  0
LINE
  5
2A7
100
AcDbEntity
  8
0
100
AcDbLine
 62
7
  6
CONTINUOUS
 10
5.239577702
 20
3.8977639965
 11
5.2585576511
 21
3.9203834191
  0
LINE
  5
2A8
100
AcDbEntity
  8
0
100
AcDbLine
 62
7
  6
CONTINUOUS
 10
4.9671550839
 20
4.021737336
 11
4.8746656527
 21
3.988073936
  0
LINE
  5
2A9
100
AcDbEntity
  8
0
100
AcDbLine
 62
7
  6
CONTINUOUS
 10
4.8847646727
 20
3.9603271067
 11
4.9772541039
 21
3.9939905066
  0
LINE
  5
2AA
100
AcDbEntity
  8
0
100
AcDbLine
 62
7
  6
CONTINUOUS
 10
9.150514746
 20
3.5596773241
 11
9.1520895491
 21
3.5596773241
  0
LINE
  5
2AB
100
AcDbEntity
  8
0
100
AcDbLine
 62
7
  6
CONTINUOUS
 10
9.1387037224
 20
3.5714883477
 11
9.1520895491
 21
3.5714883477
  0
LINE
  5
2AC
100
AcDbEntity
  8
0
100
AcDbLine
 62
3
  6
CONTINUOUS
 10
9.0639295917
 20
3.5955040957
 11
9.1383100216
 21
3.5955040957
  0
LINE
  5
2AD
100
AcDbEntity
  8
0
100
AcDbLine
 62
7
  6
CONTINUOUS
 10
9.1383100216
 20
3.6013702374
 11
9.1717745885
 21
3.6013702374
  0
LINE
  5
2AE
100
AcDbEntity
  8
0
100
AcDbLine
 62
7
  6
CONTINUOUS
 10
9.150514746
 20
3.6210946469
 11
9.1623257696
 21
3.6210946469
  0
LINE
  5
2AF
100
AcDbEntity
  8
0
100
AcDbLine
 62
7
  6
CONTINUOUS
 10
9.1623257696
 20
3.6329056705
 11
9.150514746
 21
3.6329056705
  0
LINE
  5
2B0
100
AcDbEntity
  8
02___PRT_ALL_AXES
100
AcDbLine
 62
7
  6
CONTINUOUS
 10
6.5115156392
 20
3.7037324422
 11
6.4732829505
 21
3.7037324422
  0
LINE
  5
2B1
100
AcDbEntity
  8
02___PRT_ALL_AXES
100
AcDbLine
 62
7
  6
CONTINUOUS
 10
6.3427071714
 20
3.7037324422
 11
6.3044744827
 21
3.7037324422
  0
LINE
  5
2B2
100
AcDbEntity
  8
0
100
AcDbLine
 62
7
  6
CONTINUOUS
 10
5.0369226013
 20
3.9385916464
 11
5.0113509851
 21
3.953355426
  0
LINE
  5
2B3
100
AcDbEntity
  8
0
100
AcDbLine
 62
7
  6
CONTINUOUS
 10
5.1641796269
 20
3.9610304935
 11
5.239577702
 21
3.8977639965
  0
LINE
  5
2B4
100
AcDbEntity
  8
0
100
AcDbLine
 62
7
  6
CONTINUOUS
 10
5.2585576511
 20
3.9203834191
 11
5.183159576
 21
3.9836499161
  0
LINE
  5
2B5
100
AcDbEntity
  8
0
100
AcDbLine
 62
3
  6
CONTINUOUS
 10
5.6343730137
 20
4.5797560642
 11
5.6343730137
 21
4.1860552768
  0
LINE
  5
2B6
100
AcDbEntity
  8
0
100
AcDbLine
 62
3
  6
CONTINUOUS
 10
5.7131131712
 20
4.1860552768
 11
5.7131131712
 21
4.5797560642
  0
LINE
  5
2B7
100
AcDbEntity
  8
0
100
AcDbLine
 62
3
  6
CONTINUOUS
 10
5.7918533287
 20
4.5797560642
 11
5.7918533287
 21
4.1860552768
  0
LINE
  5
2B8
100
AcDbEntity
  8
0
100
AcDbLine
 62
7
  6
CONTINUOUS
 10
5.1062534101
 20
3.8324505245
 11
5.1353323792
 21
3.8375779313
  0
LINE
  5
2B9
100
AcDbEntity
  8
0
100
AcDbLine
 62
7
  6
CONTINUOUS
 10
5.2997273444
 20
4.0334962217
 11
5.2013021476
 21
4.0334962217
  0
LINE
  5
2BA
100
AcDbEntity
  8
0
100
AcDbLine
 62
7
  6
CONTINUOUS
 10
4.3154753759
 20
4.0334962217
 11
4.217050179
 21
4.0334962217
  0
LINE
  5
2BB
100
AcDbEntity
  8
0
100
AcDbLine
 62
7
  6
CONTINUOUS
 10
3.3312234074
 20
4.0334962217
 11
3.2327982105
 21
4.0334962217
  0
LINE
  5
2BC
100
AcDbEntity
  8
02___PRT_ALL_AXES
100
AcDbLine
 62
3
  6
CONTINUOUS
 10
6.7283780743
 20
2.9990841483
 11
6.7027123281
 21
3.0206202665
  0
LINE
  5
2BD
100
AcDbEntity
  8
0
100
AcDbLine
 62
7
  6
CONTINUOUS
 10
6.780042305
 20
2.9950710248
 11
6.732518416
 21
3.0425949139
  0
LINE
  5
2BE
100
AcDbEntity
  8
0
100
AcDbLine
 62
3
  6
CONTINUOUS
 10
5.8705934861
 20
4.1860552768
 11
5.8705934861
 21
4.5797560642
  0
LINE
  5
2BF
100
AcDbEntity
  8
0
100
AcDbLine
 62
3
  6
CONTINUOUS
 10
5.9493336436
 20
4.5797560642
 11
5.9493336436
 21
4.1860552768
  0
LINE
  5
2C0
100
AcDbEntity
  8
02___PRT_ALL_AXES
100
AcDbLine
 62
3
  6
CONTINUOUS
 10
5.9867352184
 20
3.0384809767
 11
5.9867352184
 21
3.0738505524
  0
LINE
  5
2C1
100
AcDbEntity
  8
0
100
AcDbLine
 62
7
  6
CONTINUOUS
 10
5.9946092342
 20
3.0128460884
 11
5.9946092342
 21
3.0344804737
  0
LINE
  5
2C2
100
AcDbEntity
  8
0
100
AcDbLine
 62
7
  6
CONTINUOUS
 10
6.0056328562
 20
3.0000141943
 11
6.0056328562
 21
3.1111399715
  0
LINE
  5
2C3
100
AcDbEntity
  8
0
100
AcDbLine
 62
7
  6
CONTINUOUS
 10
6.0162627775
 20
3.0699135445
 11
6.0162627775
 21
3.0405258827
  0
LINE
  5
2C4
100
AcDbEntity
  8
0
100
AcDbLine
 62
7
  6
CONTINUOUS
 10
6.0280738011
 20
3.0405258827
 11
6.0280738011
 21
3.0699135445
  0
LINE
  5
2C5
100
AcDbEntity
  8
0
100
AcDbLine
 62
3
  6
CONTINUOUS
 10
6.0280738011
 20
4.1860552768
 11
6.0280738011
 21
4.5797560642
  0
LINE
  5
2C6
100
AcDbEntity
  8
02___PRT_ALL_AXES
100
AcDbLine
 62
7
  6
CONTINUOUS
 10
6.0446092342
 20
3.1131812611
 11
6.0446092342
 21
3.1210946469
  0
LINE
  5
2C7
100
AcDbEntity
  8
0
100
AcDbLine
 62
7
  6
CONTINUOUS
 10
6.0662627775
 20
3.1210946469
 11
6.0662627775
 21
3.1131812611
  0
LINE
  5
2C8
100
AcDbEntity
  8
0
100
AcDbLine
 62
7
  6
CONTINUOUS
 10
5.1182410232
 20
3.9345078283
 11
5.0891620541
 21
3.9293804215
  0
LINE
  5
2C9
100
AcDbEntity
  8
0
100
AcDbLine
 62
7
  6
CONTINUOUS
 10
4.1220014416
 20
3.8324505245
 11
4.1510804107
 21
3.8375779313
  0
LINE
  5
2CA
100
AcDbEntity
  8
0
100
AcDbLine
 62
7
  6
CONTINUOUS
 10
4.1339890547
 20
3.9345078283
 11
4.1049100856
 21
3.9293804215
  0
LINE
  5
2CB
100
AcDbEntity
  8
0
100
AcDbLine
 62
7
  6
CONTINUOUS
 10
3.1377494731
 20
3.8324505245
 11
3.1668284422
 21
3.8375779313
  0
LINE
  5
2CC
100
AcDbEntity
  8
0
100
AcDbLine
 62
7
  6
CONTINUOUS
 10
5.2997273444
 20
4.0630237808
 11
5.2013021476
 21
4.0630237808
  0
LINE
  5
2CD
100
AcDbEntity
  8
0
100
AcDbLine
 62
7
  6
CONTINUOUS
 10
4.3154753759
 20
4.0630237808
 11
4.217050179
 21
4.0630237808
  0
LINE
  5
2CE
100
AcDbEntity
  8
0
100
AcDbLine
 62
7
  6
CONTINUOUS
 10
3.3312234074
 20
4.0630237808
 11
3.2327982105
 21
4.0630237808
  0
LINE
  5
2CF
100
AcDbEntity
  8
0
100
AcDbLine
 62
7
  6
CONTINUOUS
 10
6.8154753759
 20
4.2018033083
 11
6.7367352184
 21
4.2018033083
  0
LINE
  5
2D0
100
AcDbEntity
  8
0
100
AcDbLine
 62
7
  6
CONTINUOUS
 10
6.6579950609
 20
4.2018033083
 11
6.5792549035
 21
4.2018033083
  0
LINE
  5
2D1
100
AcDbEntity
  8
0
100
AcDbLine
 62
7
  6
CONTINUOUS
 10
6.500514746
 20
4.2018033083
 11
6.4217745885
 21
4.2018033083
  0
LINE
  5
2D2
100
AcDbEntity
  8
0
100
AcDbLine
 62
7
  6
CONTINUOUS
 10
6.343034431
 20
4.2018033083
 11
6.2642942735
 21
4.2018033083
  0
LINE
  5
2D3
100
AcDbEntity
  8
0
100
AcDbLine
 62
7
  6
CONTINUOUS
 10
6.1855541161
 20
4.2018033083
 11
6.1068139586
 21
4.2018033083
  0
LINE
  5
2D4
100
AcDbEntity
  8
0
100
AcDbLine
 62
7
  6
CONTINUOUS
 10
6.0280738011
 20
4.2018033083
 11
5.9493336436
 21
4.2018033083
  0
LINE
  5
2D5
100
AcDbEntity
  8
0
100
AcDbLine
 62
7
  6
CONTINUOUS
 10
5.8705934861
 20
4.2018033083
 11
5.7918533287
 21
4.2018033083
  0
LINE
  5
2D6
100
AcDbEntity
  8
0
100
AcDbLine
 62
7
  6
CONTINUOUS
 10
5.7131131712
 20
4.2018033083
 11
5.6343730137
 21
4.2018033083
  0
LINE
  5
2D7
100
AcDbEntity
  8
0
100
AcDbLine
 62
7
  6
CONTINUOUS
 10
3.0654753759
 20
4.2057403162
 11
3.1639005727
 21
4.2057403162
  0
LINE
  5
2D8
100
AcDbEntity
  8
0
100
AcDbLine
 62
7
  6
CONTINUOUS
 10
4.0497273444
 20
4.2057403162
 11
4.1481525413
 21
4.2057403162
  0
LINE
  5
2D9
100
AcDbEntity
  8
0
100
AcDbLine
 62
7
  6
CONTINUOUS
 10
5.0339793129
 20
4.2057403162
 11
5.1324045098
 21
4.2057403162
  0
LINE
  5
2DA
100
AcDbEntity
  8
0
100
AcDbLine
 62
7
  6
CONTINUOUS
 10
6.7584787879
 20
3.0712145603
 11
6.7942174627
 21
3.0306024297
  0
LINE
  5
2DB
100
AcDbEntity
  8
0
100
AcDbLine
 62
7
  6
CONTINUOUS
 10
6.8089952879
 20
3.0436069159
 11
6.773256613
 21
3.0842190464
  0
LINE
  5
2DC
100
AcDbEntity
  8
0
100
AcDbLine
 62
7
  6
CONTINUOUS
 10
6.0859478168
 20
3.1210946469
 11
6.0859478168
 21
3.1131812611
  0
LINE
  5
2DD
100
AcDbEntity
  8
0
100
AcDbLine
 62
3
  6
CONTINUOUS
 10
6.1068139586
 20
4.5797560642
 11
6.1068139586
 21
4.1860552768
  0
LINE
  5
2DE
100
AcDbEntity
  8
02___PRT_ALL_AXES
100
AcDbLine
 62
7
  6
CONTINUOUS
 10
6.1076013601
 20
3.1131812611
 11
6.1076013601
 21
3.1210946469
  0
LINE
  5
2DF
100
AcDbEntity
  8
02___PRT_ALL_AXES
100
AcDbLine
 62
7
  6
CONTINUOUS
 10
6.1446092342
 20
3.1131812611
 11
6.1446092342
 21
3.1210946469
  0
LINE
  5
2E0
100
AcDbEntity
  8
0
100
AcDbLine
 62
7
  6
CONTINUOUS
 10
6.1639005727
 20
3.0069214185
 11
6.1639005727
 21
2.9951103949
  0
LINE
  5
2E1
100
AcDbEntity
  8
0
100
AcDbLine
 62
7
  6
CONTINUOUS
 10
6.1650816751
 20
2.9951103949
 11
6.1650816751
 21
3.0069214185
  0
LINE
  5
2E2
100
AcDbEntity
  8
0
100
AcDbLine
 62
3
  6
CONTINUOUS
 10
6.1855541161
 20
4.1860552768
 11
6.1855541161
 21
4.5797560642
  0
LINE
  5
2E3
100
AcDbEntity
  8
02___PRT_ALL_AXES
100
AcDbLine
 62
7
  6
CONTINUOUS
 10
6.2076013601
 20
3.1131812611
 11
6.2076013601
 21
3.1210946469
  0
LINE
  5
2E4
100
AcDbEntity
  8
02___PRT_ALL_AXES
100
AcDbLine
 62
7
  6
CONTINUOUS
 10
6.2446092342
 20
3.1131812611
 11
6.2446092342
 21
3.1210946469
  0
LINE
  5
2E5
100
AcDbEntity
  8
0
100
AcDbLine
 62
3
  6
CONTINUOUS
 10
6.2642942735
 20
4.5797560642
 11
6.2642942735
 21
4.1860552768
  0
LINE
  5
2E6
100
AcDbEntity
  8
0
100
AcDbLine
 62
7
  6
CONTINUOUS
 10
6.2997273444
 20
3.0699135445
 11
6.2997273444
 21
3.0405258827
  0
LINE
  5
2E7
100
AcDbEntity
  8
02___PRT_ALL_AXES
100
AcDbLine
 62
7
  6
CONTINUOUS
 10
6.3076013601
 20
3.1131812611
 11
6.3076013601
 21
3.1188420436
  0
LINE
  5
2E8
100
AcDbEntity
  8
0
100
AcDbLine
 62
7
  6
CONTINUOUS
 10
6.311538368
 20
3.0699135445
 11
6.311538368
 21
3.0405258827
  0
LINE
  5
2E9
100
AcDbEntity
  8
0
100
AcDbLine
 62
7
  6
CONTINUOUS
 10
6.3221682893
 20
3.0000141943
 11
6.3221682893
 21
3.1111399715
  0
LINE
  5
2EA
100
AcDbEntity
  8
0
100
AcDbLine
 62
7
  6
CONTINUOUS
 10
3.1497370861
 20
3.9345078283
 11
3.1206581171
 21
3.9293804215
  0
LINE
  5
2EB
100
AcDbEntity
  8
0
100
AcDbLine
 62
7
  6
CONTINUOUS
 10
6.3351604153
 20
3.015882548
 11
6.3351604153
 21
3.0187324422
  0
LINE
  5
2EC
100
AcDbEntity
  8
02___PRT_ALL_AXES
100
AcDbLine
 62
3
  6
CONTINUOUS
 10
6.3410659271
 20
3.0738505524
 11
6.3410659271
 21
3.0384809767
  0
LINE
  5
2ED
100
AcDbEntity
  8
0
100
AcDbLine
 62
3
  6
CONTINUOUS
 10
6.343034431
 20
4.1860552768
 11
6.343034431
 21
4.5797560642
  0
LINE
  5
2EE
100
AcDbEntity
  8
0
100
AcDbLine
 62
3
  6
CONTINUOUS
 10
6.4217745885
 20
4.5797560642
 11
6.4217745885
 21
4.1860552768
  0
LINE
  5
2EF
100
AcDbEntity
  8
0
100
AcDbLine
 62
3
  6
CONTINUOUS
 10
6.500514746
 20
4.1860552768
 11
6.500514746
 21
4.5797560642
  0
LINE
  5
2F0
100
AcDbEntity
  8
0
100
AcDbLine
 62
3
  6
CONTINUOUS
 10
9.1383100216
 20
4.5797560642
 11
9.0639295917
 21
4.5797560642
  0
LINE
  5
2F1
100
AcDbEntity
  8
0
100
AcDbLine
 62
3
  6
CONTINUOUS
 10
2.5197770656
 20
4.5797560642
 11
2.4453966357
 21
4.5797560642
  0
LINE
  5
2F2
100
AcDbEntity
  8
0
100
AcDbLine
 62
3
  6
CONTINUOUS
 10
9.1186249822
 20
4.6388111823
 11
9.0497273444
 21
4.6388111823
  0
LINE
  5
2F3
100
AcDbEntity
  8
0
100
AcDbLine
 62
3
  6
CONTINUOUS
 10
2.4650816751
 20
4.6388111823
 11
2.5339793129
 21
4.6388111823
  0
LINE
  5
2F4
100
AcDbEntity
  8
0
100
AcDbLine
 62
3
  6
CONTINUOUS
 10
6.5792549035
 20
4.5797560642
 11
6.5792549035
 21
4.1860552768
  0
LINE
  5
2F5
100
AcDbEntity
  8
0
100
AcDbLine
 62
3
  6
CONTINUOUS
 10
6.6579950609
 20
4.1860552768
 11
6.6579950609
 21
4.5797560642
  0
LINE
  5
2F6
100
AcDbEntity
  8
02___PRT_ALL_AXES
100
AcDbLine
 62
3
  6
CONTINUOUS
 10
6.6816171082
 20
3.0658591115
 11
6.6816171082
 21
3.2088899225
  0
LINE
  5
2F7
100
AcDbEntity
  8
0
100
AcDbLine
 62
7
  6
CONTINUOUS
 10
6.7064202578
 20
3.0443229933
 11
6.7064202578
 21
3.0581025209
  0
LINE
  5
2F8
100
AcDbEntity
  8
02___PRT_ALL_AXES
100
AcDbLine
 62
7
  6
CONTINUOUS
 10
6.7076013601
 20
3.0934962217
 11
6.7076013601
 21
3.1525513398
  0
LINE
  5
2F9
100
AcDbEntity
  8
0
100
AcDbLine
 62
7
  6
CONTINUOUS
 10
6.7111446672
 20
3.0135446938
 11
6.7111446672
 21
3.2069214185
  0
LINE
  5
2FA
100
AcDbEntity
  8
0
100
AcDbLine
 62
7
  6
CONTINUOUS
 10
6.7209871869
 20
3.0704337635
 11
6.7209871869
 21
3.2116064579
  0
LINE
  5
2FB
100
AcDbEntity
  8
0
100
AcDbLine
 62
7
  6
CONTINUOUS
 10
6.7308297066
 20
2.9974716843
 11
6.7308297066
 21
3.0447956828
  0
LINE
  5
2FC
100
AcDbEntity
  8
0
100
AcDbLine
 62
7
  6
CONTINUOUS
 10
6.7308297066
 20
3.1093455286
 11
6.7308297066
 21
3.2069214185
  0
LINE
  5
2FD
100
AcDbEntity
  8
0
100
AcDbLine
 62
3
  6
CONTINUOUS
 10
6.7367352184
 20
4.5797560642
 11
6.7367352184
 21
4.1860552768
  0
LINE
  5
2FE
100
AcDbEntity
  8
0
100
AcDbLine
 62
7
  6
CONTINUOUS
 10
6.7367352184
 20
3.0108584264
 11
6.7367352184
 21
3.0383781115
  0
LINE
  5
2FF
100
AcDbEntity
  8
0
100
AcDbLine
 62
7
  6
CONTINUOUS
 10
6.750514746
 20
3.0108584264
 11
6.750514746
 21
2.9951103949
  0
LINE
  5
300
100
AcDbEntity
  8
0
100
AcDbLine
 62
7
  6
CONTINUOUS
 10
6.7737430924
 20
2.9951103949
 11
6.7737430924
 21
2.9990474028
  0
LINE
  5
301
100
AcDbEntity
  8
0
100
AcDbLine
 62
3
  6
CONTINUOUS
 10
6.8154753759
 20
4.1860552768
 11
6.8154753759
 21
4.5797560642
  0
LINE
  5
302
100
AcDbEntity
  8
0
100
AcDbLine
 62
3
  6
CONTINUOUS
 10
2.5241367932
 20
4.8159765367
 11
9.0595698641
 21
4.8159765367
  0
LINE
  5
303
100
AcDbEntity
  8
0
100
AcDbLine
 62
7
  6
CONTINUOUS
 10
7.0237430924
 20
3.0199135445
 11
7.0237430924
 21
3.0395985839
  0
LINE
  5
304
100
AcDbEntity
  8
0
100
AcDbLine
 62
7
  6
CONTINUOUS
 10
7.0241367932
 20
3.0395985839
 11
7.0241367932
 21
3.0199135445
  0
LINE
  5
305
100
AcDbEntity
  8
0
100
AcDbLine
 62
7
  6
CONTINUOUS
 10
6.2968445371
 20
3.0335661703
 11
6.2730825926
 21
3.0098042258
  0
LINE
  5
306
100
AcDbEntity
  8
0
100
AcDbLine
 62
7
  6
CONTINUOUS
 10
6.2814342475
 20
3.0014525709
 11
6.305196192
 21
3.0252145154
  0
LINE
  5
307
100
AcDbEntity
  8
02___PRT_ALL_AXES
100
AcDbLine
 62
3
  6
CONTINUOUS
 10
6.3272284522
 20
3.0050743572
 11
6.3055114137
 21
2.9833573186
  0
LINE
  5
308
100
AcDbEntity
  8
0
100
AcDbLine
 62
7
  6
CONTINUOUS
 10
7.2347667145
 20
2.9951103949
 11
7.2347667145
 21
2.9970395288
  0
LINE
  5
309
100
AcDbEntity
  8
0
100
AcDbLine
 62
7
  6
CONTINUOUS
 10
7.2390974231
 20
2.9990474028
 11
7.2390974231
 21
2.9951103949
  0
LINE
  5
30A
100
AcDbEntity
  8
0
100
AcDbLine
 62
7
  6
CONTINUOUS
 10
7.2623257696
 20
2.9951103949
 11
7.2623257696
 21
3.0108584264
  0
LINE
  5
30B
100
AcDbEntity
  8
0
100
AcDbLine
 62
7
  6
CONTINUOUS
 10
7.2761052972
 20
3.0383781115
 11
7.2761052972
 21
3.0108584264
  0
LINE
  5
30C
100
AcDbEntity
  8
0
100
AcDbLine
 62
7
  6
CONTINUOUS
 10
7.282010809
 20
3.2069214185
 11
7.282010809
 21
3.1093455286
  0
LINE
  5
30D
100
AcDbEntity
  8
0
100
AcDbLine
 62
7
  6
CONTINUOUS
 10
7.282010809
 20
3.0447956828
 11
7.282010809
 21
2.9974716843
  0
LINE
  5
30E
100
AcDbEntity
  8
0
100
AcDbLine
 62
7
  6
CONTINUOUS
 10
7.2918533287
 20
3.0704337635
 11
7.2918533287
 21
3.2116064579
  0
LINE
  5
30F
100
AcDbEntity
  8
0
100
AcDbLine
 62
7
  6
CONTINUOUS
 10
7.3016958483
 20
3.0135446938
 11
7.3016958483
 21
3.2069214185
  0
LINE
  5
310
100
AcDbEntity
  8
0
100
AcDbLine
 62
7
  6
CONTINUOUS
 10
7.3064202578
 20
3.017508944
 11
7.3064202578
 21
3.0581025209
  0
LINE
  5
311
100
AcDbEntity
  8
02___PRT_ALL_AXES
100
AcDbLine
 62
7
  6
CONTINUOUS
 10
7.3076013601
 20
3.0934962217
 11
7.3076013601
 21
3.1525513398
  0
LINE
  5
312
100
AcDbEntity
  8
0
100
AcDbLine
 62
7
  6
CONTINUOUS
 10
7.273681125
 20
3.0980592263
 11
7.2494715096
 21
3.0906101138
  0
LINE
  5
313
100
AcDbEntity
  8
0
100
AcDbLine
 62
7
  6
CONTINUOUS
 10
7.2552606011
 20
3.0717955664
 11
7.2794623318
 21
3.0792422528
  0
LINE
  5
314
100
AcDbEntity
  8
02___PRT_ALL_AXES
100
AcDbLine
 62
3
  6
CONTINUOUS
 10
7.3312234074
 20
3.2088899225
 11
7.3312234074
 21
3.0658591115
  0
LINE
  5
315
100
AcDbEntity
  8
0
100
AcDbLine
 62
7
  6
CONTINUOUS
 10
7.2395839026
 20
3.0842190464
 11
7.2038452277
 21
3.0436069159
  0
LINE
  5
316
100
AcDbEntity
  8
0
100
AcDbLine
 62
7
  6
CONTINUOUS
 10
7.2186230528
 20
3.0306024297
 11
7.2543617277
 21
3.0712145603
  0
LINE
  5
317
100
AcDbEntity
  8
0
100
AcDbLine
 62
7
  6
CONTINUOUS
 10
7.2803220996
 20
3.0425949139
 11
7.2327982105
 21
2.9950710248
  0
LINE
  5
318
100
AcDbEntity
  8
02___PRT_ALL_AXES
100
AcDbLine
 62
3
  6
CONTINUOUS
 10
7.3101281875
 20
3.0206202665
 11
7.2844624413
 21
2.9990841483
  0
LINE
  5
319
100
AcDbEntity
  8
0
100
AcDbLine
 62
7
  6
CONTINUOUS
 10
7.7111446672
 20
3.0977181794
 11
7.7111446672
 21
3.1326600907
  0
LINE
  5
31A
100
AcDbEntity
  8
0
100
AcDbLine
 62
7
  6
CONTINUOUS
 10
7.7150816751
 20
3.0766321545
 11
7.7150816751
 21
3.1537461157
  0
LINE
  5
31B
100
AcDbEntity
  8
0
100
AcDbLine
 62
7
  6
CONTINUOUS
 10
7.9906722263
 20
3.0766321545
 11
7.9906722263
 21
3.1537461157
  0
LINE
  5
31C
100
AcDbEntity
  8
0
100
AcDbLine
 62
7
  6
CONTINUOUS
 10
7.9946092342
 20
3.1326600907
 11
7.9946092342
 21
3.0977181794
  0
LINE
  5
31D
100
AcDbEntity
  8
0
100
AcDbLine
 62
3
  6
CONTINUOUS
 10
9.0201997853
 20
3.5659765367
 11
9.0201997853
 21
4.6092836233
  0
LINE
  5
31E
100
AcDbEntity
  8
0
100
AcDbLine
 62
3
  6
CONTINUOUS
 10
9.1383100216
 20
4.5797560642
 11
9.1383100216
 21
3.5955040957
  0
LINE
  5
31F
100
AcDbEntity
  8
0
100
AcDbLine
 62
3
  6
CONTINUOUS
 10
9.1383100216
 20
2.6506222059
 11
9.1383100216
 21
3.5167639382
  0
LINE
  5
320
100
AcDbEntity
  8
0
100
AcDbLine
 62
3
  6
CONTINUOUS
 10
9.1383100216
 20
4.6584962217
 11
9.1383100216
 21
4.7372363792
  0
LINE
  5
321
100
AcDbEntity
  8
0
100
AcDbLine
 62
7
  6
CONTINUOUS
 10
9.150514746
 20
3.5266064579
 11
9.150514746
 21
3.5714883477
  0
LINE
  5
322
100
AcDbEntity
  8
0
100
AcDbLine
 62
7
  6
CONTINUOUS
 10
9.150514746
 20
3.617157639
 11
9.150514746
 21
3.6329056705
  0
LINE
  5
323
100
AcDbEntity
  8
0
100
AcDbLine
 62
7
  6
CONTINUOUS
 10
9.1520895491
 20
3.5266064579
 11
9.1520895491
 21
3.6013702374
  0
LINE
  5
324
100
AcDbEntity
  8
0
100
AcDbLine
 62
7
  6
CONTINUOUS
 10
9.1623257696
 20
3.6329056705
 11
9.1623257696
 21
3.617157639
  0
LINE
  5
325
100
AcDbEntity
  8
0
100
AcDbLine
 62
7
  6
CONTINUOUS
 10
9.1698060846
 20
3.5266064579
 11
9.1698060846
 21
2.9951103949
  0
LINE
  5
326
100
AcDbEntity
  8
0
100
AcDbLine
 62
7
  6
CONTINUOUS
 10
9.1717745885
 20
3.5266064579
 11
9.1717745885
 21
3.6013702374
  0
LINE
  5
327
100
AcDbEntity
  8
0
100
AcDbLine
 62
7
  6
CONTINUOUS
 10
9.1776801003
 20
3.5187324422
 11
9.1776801003
 21
3.0029844107
  0
CIRCLE
  5
328
100
AcDbEntity
  8
02___PRT_ALL_AXES
100
AcDbCircle
 62
3
  6
CONTINUOUS
 10
3.095002935
 20
3.054165513
 40
0.2066929134
  0
CIRCLE
  5
329
100
AcDbEntity
  8
02___PRT_ALL_AXES
100
AcDbCircle
 62
3
  6
CONTINUOUS
 10
3.7839793129
 20
3.054165513
 40
0.2066929134
  0
CIRCLE
  5
32A
100
AcDbEntity
  8
02___PRT_ALL_AXES
100
AcDbCircle
 62
3
  6
CONTINUOUS
 10
4.4729556909
 20
3.054165513
 40
0.2066929134
  0
CIRCLE
  5
32B
100
AcDbEntity
  8
0
100
AcDbCircle
 62
7
  6
CONTINUOUS
 10
4.4729556909
 20
3.054165513
 40
0.1771653543
  0
CIRCLE
  5
32C
100
AcDbEntity
  8
0
100
AcDbCircle
 62
7
  6
CONTINUOUS
 10
3.7839793129
 20
3.054165513
 40
0.1771653543
  0
CIRCLE
  5
32D
100
AcDbEntity
  8
0
100
AcDbCircle
 62
7
  6
CONTINUOUS
 10
3.095002935
 20
3.054165513
 40
0.1771653543
  0
CIRCLE
  5
32E
100
AcDbEntity
  8
0
100
AcDbCircle
 62
7
  6
CONTINUOUS
 10
4.4729556909
 20
3.054165513
 40
0.157480315
  0
CIRCLE
  5
32F
100
AcDbEntity
  8
0
100
AcDbCircle
 62
7
  6
CONTINUOUS
 10
3.7839793129
 20
3.054165513
 40
0.157480315
  0
CIRCLE
  5
330
100
AcDbEntity
  8
0
100
AcDbCircle
 62
7
  6
CONTINUOUS
 10
3.095002935
 20
3.054165513
 40
0.157480315
  0
CIRCLE
  5
331
100
AcDbEntity
  8
0
100
AcDbCircle
 62
7
  6
CONTINUOUS
 10
4.4729556909
 20
3.054165513
 40
0.1279527559
  0
CIRCLE
  5
332
100
AcDbEntity
  8
0
100
AcDbCircle
 62
7
  6
CONTINUOUS
 10
3.7839793129
 20
3.054165513
 40
0.1279527559
  0
CIRCLE
  5
333
100
AcDbEntity
  8
0
100
AcDbCircle
 62
7
  6
CONTINUOUS
 10
3.095002935
 20
3.054165513
 40
0.1279527559
  0
ARC
  5
334
100
AcDbEntity
  8
0
100
AcDbCircle
 62
3
  6
CONTINUOUS
 10
2.5339793129
 20
2.9360552768
 40
0.0295275591
100
AcDbArc
 50
270.0
 51
360.0
  0
ARC
  5
335
100
AcDbEntity
  8
0
100
AcDbCircle
 62
3
  6
CONTINUOUS
 10
2.4650816751
 20
2.8868426784
 40
0.0196850394
100
AcDbArc
 50
90.0
 51
180.0
  0
ARC
  5
336
100
AcDbEntity
  8
0
100
AcDbCircle
 62
3
  6
CONTINUOUS
 10
3.1146879743
 20
4.0482600012
 40
0.3562992126
100
AcDbArc
 50
261.7410964237
 51
278.2589035763
  0
CIRCLE
  5
337
100
AcDbEntity
  8
0
100
AcDbCircle
 62
7
  6
CONTINUOUS
 10
3.1146879743
 20
4.0482600012
 40
0.3543307087
  0
CIRCLE
  5
338
100
AcDbEntity
  8
0
100
AcDbCircle
 62
7
  6
CONTINUOUS
 10
3.1146879743
 20
4.0482600012
 40
0.342519685
  0
CIRCLE
  5
339
100
AcDbEntity
  8
0
100
AcDbCircle
 62
7
  6
CONTINUOUS
 10
3.1146879743
 20
4.0482600012
 40
0.2755905512
  0
ARC
  5
33A
100
AcDbEntity
  8
0
100
AcDbCircle
 62
7
  6
CONTINUOUS
 10
3.1146879743
 20
4.0482600012
 40
0.2263779528
100
AcDbArc
 50
102.5558577986
 51
77.4441422014
  0
CIRCLE
  5
33B
100
AcDbEntity
  8
02___PRT_ALL_AXES
100
AcDbCircle
 62
7
  6
CONTINUOUS
 10
3.3902785255
 20
4.5600710248
 40
0.094488189
  0
ARC
  5
33C
100
AcDbEntity
  8
0
100
AcDbCircle
 62
3
  6
CONTINUOUS
 10
2.5241367932
 20
4.7372363792
 40
0.0787401575
100
AcDbArc
 50
90.0
 51
180.0
  0
CIRCLE
  5
33D
100
AcDbEntity
  8
02___PRT_ALL_AXES
100
AcDbCircle
 62
7
  6
CONTINUOUS
 10
3.3902785255
 20
4.5600710248
 40
0.0590551181
  0
ARC
  5
33E
100
AcDbEntity
  8
0
100
AcDbCircle
 62
3
  6
CONTINUOUS
 10
2.5339793129
 20
4.6092836233
 40
0.0295275591
100
AcDbArc
 50
0.0
 51
90.0
  0
ARC
  5
33F
100
AcDbEntity
  8
0
100
AcDbCircle
 62
3
  6
CONTINUOUS
 10
2.4650816751
 20
4.6584962217
 40
0.0196850394
100
AcDbArc
 50
180.0
 51
270.0
  0
ARC
  5
340
100
AcDbEntity
  8
0
100
AcDbCircle
 62
3
  6
CONTINUOUS
 10
4.0989399428
 20
4.0482600012
 40
0.3562992126
100
AcDbArc
 50
261.7410964237
 51
278.2589035763
  0
ARC
  5
341
100
AcDbEntity
  8
0
100
AcDbCircle
 62
3
  6
CONTINUOUS
 10
5.0831919113
 20
4.0482600012
 40
0.3562992126
100
AcDbArc
 50
261.7410964237
 51
278.2589035763
  0
CIRCLE
  5
342
100
AcDbEntity
  8
0
100
AcDbCircle
 62
7
  6
CONTINUOUS
 10
4.0989399428
 20
4.0482600012
 40
0.3543307087
  0
CIRCLE
  5
343
100
AcDbEntity
  8
0
100
AcDbCircle
 62
7
  6
CONTINUOUS
 10
5.0831919113
 20
4.0482600012
 40
0.3543307087
  0
CIRCLE
  5
344
100
AcDbEntity
  8
0
100
AcDbCircle
 62
7
  6
CONTINUOUS
 10
4.0989399428
 20
4.0482600012
 40
0.342519685
  0
CIRCLE
  5
345
100
AcDbEntity
  8
0
100
AcDbCircle
 62
7
  6
CONTINUOUS
 10
5.0831919113
 20
4.0482600012
 40
0.342519685
  0
CIRCLE
  5
346
100
AcDbEntity
  8
0
100
AcDbCircle
 62
7
  6
CONTINUOUS
 10
4.0989399428
 20
4.0482600012
 40
0.2755905512
  0
CIRCLE
  5
347
100
AcDbEntity
  8
0
100
AcDbCircle
 62
7
  6
CONTINUOUS
 10
5.0831919113
 20
4.0482600012
 40
0.2755905512
  0
ARC
  5
348
100
AcDbEntity
  8
0
100
AcDbCircle
 62
7
  6
CONTINUOUS
 10
4.0989399428
 20
4.0482600012
 40
0.2263779528
100
AcDbArc
 50
102.5558577986
 51
77.4441422014
  0
ARC
  5
349
100
AcDbEntity
  8
0
100
AcDbCircle
 62
7
  6
CONTINUOUS
 10
5.0831919113
 20
4.0482600012
 40
0.2263779528
100
AcDbArc
 50
102.5558577986
 51
77.4441422014
  0
ARC
  5
34A
100
AcDbEntity
  8
0
100
AcDbCircle
 62
3
  6
CONTINUOUS
 10
5.6737430924
 20
4.1860552768
 40
0.0393700787
100
AcDbArc
 50
180.0
 51
360.0
  0
CIRCLE
  5
34B
100
AcDbEntity
  8
02___PRT_ALL_AXES
100
AcDbCircle
 62
7
  6
CONTINUOUS
 10
5.3587824625
 20
4.5600710248
 40
0.094488189
  0
CIRCLE
  5
34C
100
AcDbEntity
  8
02___PRT_ALL_AXES
100
AcDbCircle
 62
7
  6
CONTINUOUS
 10
4.374530494
 20
4.5600710248
 40
0.094488189
  0
CIRCLE
  5
34D
100
AcDbEntity
  8
02___PRT_ALL_AXES
100
AcDbCircle
 62
7
  6
CONTINUOUS
 10
5.3587824625
 20
4.5600710248
 40
0.0590551181
  0
CIRCLE
  5
34E
100
AcDbEntity
  8
02___PRT_ALL_AXES
100
AcDbCircle
 62
7
  6
CONTINUOUS
 10
4.374530494
 20
4.5600710248
 40
0.0590551181
  0
ARC
  5
34F
100
AcDbEntity
  8
0
100
AcDbCircle
 62
3
  6
CONTINUOUS
 10
5.6737430924
 20
4.5797560642
 40
0.0393700787
100
AcDbArc
 50
0.0
 51
180.0
  0
ARC
  5
350
100
AcDbEntity
  8
02___PRT_ALL_AXES
100
AcDbCircle
 62
3
  6
CONTINUOUS
 10
6.2938218326
 20
3.0738505524
 40
0.0472440945
100
AcDbArc
 50
0.0
 51
90.0
  0
ARC
  5
351
100
AcDbEntity
  8
02___PRT_ALL_AXES
100
AcDbCircle
 62
3
  6
CONTINUOUS
 10
6.0339793129
 20
3.0738505524
 40
0.0472440945
100
AcDbArc
 50
90.0
 51
180.0
  0
ARC
  5
352
100
AcDbEntity
  8
02___PRT_ALL_AXES
100
AcDbCircle
 62
3
  6
CONTINUOUS
 10
6.0339793129
 20
3.0384809767
 40
0.0472440945
100
AcDbArc
 50
180.0
 51
225.0
  0
ARC
  5
353
100
AcDbEntity
  8
02___PRT_ALL_AXES
100
AcDbCircle
 62
3
  6
CONTINUOUS
 10
6.0556963514
 20
3.0167639382
 40
0.0472440945
100
AcDbArc
 50
225.0
 51
270.0
  0
ARC
  5
354
100
AcDbEntity
  8
02___PRT_ALL_AXES
100
AcDbCircle
 62
3
  6
CONTINUOUS
 10
6.2721047941
 20
3.0167639382
 40
0.0472440945
100
AcDbArc
 50
270.0
 51
315.0
  0
ARC
  5
355
100
AcDbEntity
  8
02___PRT_ALL_AXES
100
AcDbCircle
 62
3
  6
CONTINUOUS
 10
6.2938218326
 20
3.0384809767
 40
0.0472440945
100
AcDbArc
 50
315.0
 51
360.0
  0
ARC
  5
356
100
AcDbEntity
  8
0
100
AcDbCircle
 62
7
  6
CONTINUOUS
 10
6.0616782653
 20
3.0167639382
 40
0.0216535433
100
AcDbArc
 50
225.0000000002
 51
270.0
  0
ARC
  5
357
100
AcDbEntity
  8
0
100
AcDbCircle
 62
7
  6
CONTINUOUS
 10
6.0379163208
 20
3.0405258827
 40
0.0216535433
100
AcDbArc
 50
180.0
 51
225.0000000003
  0
ARC
  5
358
100
AcDbEntity
  8
0
100
AcDbCircle
 62
7
  6
CONTINUOUS
 10
6.0379163208
 20
3.0699135445
 40
0.0216535433
100
AcDbArc
 50
90.0
 51
180.0
  0
ARC
  5
359
100
AcDbEntity
  8
0
100
AcDbCircle
 62
7
  6
CONTINUOUS
 10
6.2898848247
 20
3.0699135445
 40
0.0216535433
100
AcDbArc
 50
0.0
 51
90.0
  0
ARC
  5
35A
100
AcDbEntity
  8
0
100
AcDbCircle
 62
7
  6
CONTINUOUS
 10
6.2898848247
 20
3.0405258827
 40
0.0216535433
100
AcDbArc
 50
314.9999999997
 51
360.0
  0
ARC
  5
35B
100
AcDbEntity
  8
0
100
AcDbCircle
 62
7
  6
CONTINUOUS
 10
6.2661228802
 20
3.0167639382
 40
0.0216535433
100
AcDbArc
 50
270.0
 51
314.9999999998
  0
ARC
  5
35C
100
AcDbEntity
  8
0
100
AcDbCircle
 62
7
  6
CONTINUOUS
 10
6.2661228802
 20
3.0167639382
 40
0.0098425197
100
AcDbArc
 50
270.0
 51
314.9999999992
  0
ARC
  5
35D
100
AcDbEntity
  8
0
100
AcDbCircle
 62
7
  6
CONTINUOUS
 10
6.2898848247
 20
3.0405258827
 40
0.0098425197
100
AcDbArc
 50
314.9999999995
 51
360.0
  0
ARC
  5
35E
100
AcDbEntity
  8
0
100
AcDbCircle
 62
7
  6
CONTINUOUS
 10
6.2898848247
 20
3.0699135445
 40
0.0098425197
100
AcDbArc
 50
0.0
 51
90.0
  0
ARC
  5
35F
100
AcDbEntity
  8
0
100
AcDbCircle
 62
7
  6
CONTINUOUS
 10
6.0379163208
 20
3.0699135445
 40
0.0098425197
100
AcDbArc
 50
90.0
 51
180.0
  0
ARC
  5
360
100
AcDbEntity
  8
0
100
AcDbCircle
 62
7
  6
CONTINUOUS
 10
6.0379163208
 20
3.0405258827
 40
0.0098425197
100
AcDbArc
 50
180.0
 51
225.0000000005
  0
ARC
  5
361
100
AcDbEntity
  8
0
100
AcDbCircle
 62
7
  6
CONTINUOUS
 10
6.0616782653
 20
3.0167639382
 40
0.0098425197
100
AcDbArc
 50
225.0000000008
 51
270.0
  0
ARC
  5
362
100
AcDbEntity
  8
02___PRT_ALL_AXES
100
AcDbCircle
 62
3
  6
CONTINUOUS
 10
6.7406722263
 20
3.0658591115
 40
0.0590551181
100
AcDbArc
 50
180.0
 51
230.0
  0
ARC
  5
363
100
AcDbEntity
  8
02___PRT_ALL_AXES
100
AcDbCircle
 62
3
  6
CONTINUOUS
 10
6.7663379725
 20
3.0443229933
 40
0.0590551181
100
AcDbArc
 50
230.0
 51
270.0
  0
ARC
  5
364
100
AcDbEntity
  8
02___PRT_ALL_AXES
100
AcDbCircle
 62
3
  6
CONTINUOUS
 10
7.2465025431
 20
3.0443229933
 40
0.0590551181
100
AcDbArc
 50
270.0
 51
310.0
  0
ARC
  5
365
100
AcDbEntity
  8
02___PRT_ALL_AXES
100
AcDbCircle
 62
3
  6
CONTINUOUS
 10
7.2721682893
 20
3.0658591115
 40
0.0590551181
100
AcDbArc
 50
310.0
 51
360.0
  0
ARC
  5
366
100
AcDbEntity
  8
0
100
AcDbCircle
 62
7
  6
CONTINUOUS
 10
7.2524832499
 20
3.0704337635
 40
0.0393700787
100
AcDbArc
 50
315.0
 51
360.0
  0
ARC
  5
367
100
AcDbEntity
  8
0
100
AcDbCircle
 62
7
  6
CONTINUOUS
 10
6.7603572657
 20
3.0704337635
 40
0.0393700787
100
AcDbArc
 50
180.0
 51
225.0
  0
ARC
  5
368
100
AcDbEntity
  8
0
100
AcDbCircle
 62
7
  6
CONTINUOUS
 10
6.817861983
 20
3.0514096075
 40
0.031496063
100
AcDbArc
 50
221.3477772197
 51
270.0
  0
ARC
  5
369
100
AcDbEntity
  8
0
100
AcDbCircle
 62
7
  6
CONTINUOUS
 10
6.7426407302
 20
3.1093455286
 40
0.031496063
100
AcDbArc
 50
180.0
 51
252.897271031
  0
ARC
  5
36A
100
AcDbEntity
  8
0
100
AcDbCircle
 62
7
  6
CONTINUOUS
 10
7.2701997853
 20
3.1093455286
 40
0.031496063
100
AcDbArc
 50
287.102728969
 51
360.0
  0
ARC
  5
36B
100
AcDbEntity
  8
0
100
AcDbCircle
 62
7
  6
CONTINUOUS
 10
7.1949785326
 20
3.0514096075
 40
0.031496063
100
AcDbArc
 50
270.0
 51
318.6522227803
  0
ARC
  5
36C
100
AcDbEntity
  8
0
100
AcDbCircle
 62
7
  6
CONTINUOUS
 10
7.2558395102
 20
3.0699141117
 40
0.0216535433
100
AcDbArc
 50
107.1027289696
 51
138.6522227809
  0
ARC
  5
36D
100
AcDbEntity
  8
0
100
AcDbCircle
 62
7
  6
CONTINUOUS
 10
6.7570010053
 20
3.0699141117
 40
0.0216535433
100
AcDbArc
 50
41.3477772191
 51
72.8972710304
  0
ARC
  5
36E
100
AcDbEntity
  8
0
100
AcDbCircle
 62
7
  6
CONTINUOUS
 10
7.1949785326
 20
3.0514096075
 40
0.0118110236
100
AcDbArc
 50
270.0
 51
318.6522227796
  0
ARC
  5
36F
100
AcDbEntity
  8
0
100
AcDbCircle
 62
7
  6
CONTINUOUS
 10
7.2701997853
 20
3.1093455286
 40
0.0118110236
100
AcDbArc
 50
287.1427480647
 51
360.0
  0
ARC
  5
370
100
AcDbEntity
  8
0
100
AcDbCircle
 62
7
  6
CONTINUOUS
 10
6.7426407302
 20
3.1093455286
 40
0.0118110236
100
AcDbArc
 50
180.0
 51
252.8572519264
  0
ARC
  5
371
100
AcDbEntity
  8
0
100
AcDbCircle
 62
7
  6
CONTINUOUS
 10
6.817861983
 20
3.0514096075
 40
0.0118110236
100
AcDbArc
 50
221.3477772204
 51
270.0
  0
ARC
  5
372
100
AcDbEntity
  8
0
100
AcDbCircle
 62
7
  6
CONTINUOUS
 10
6.7570010053
 20
3.0699141117
 40
0.0019685039
100
AcDbArc
 50
41.347777219
 51
72.8972710335
  0
ARC
  5
373
100
AcDbEntity
  8
0
100
AcDbCircle
 62
7
  6
CONTINUOUS
 10
7.2558395102
 20
3.0699141117
 40
0.0019685039
100
AcDbArc
 50
107.1027289665
 51
138.652222781
  0
ARC
  5
374
100
AcDbEntity
  8
02___PRT_ALL_AXES
100
AcDbCircle
 62
3
  6
CONTINUOUS
 10
7.2721682893
 20
3.2088899225
 40
0.0590551181
100
AcDbArc
 50
0.0
 51
90.0
  0
ARC
  5
375
100
AcDbEntity
  8
02___PRT_ALL_AXES
100
AcDbCircle
 62
3
  6
CONTINUOUS
 10
6.7406722263
 20
3.2088899225
 40
0.0590551181
100
AcDbArc
 50
90.0
 51
180.0
  0
ARC
  5
376
100
AcDbEntity
  8
0
100
AcDbCircle
 62
7
  6
CONTINUOUS
 10
6.7603572657
 20
3.2116064579
 40
0.0393700787
100
AcDbArc
 50
90.0
 51
180.0
  0
ARC
  5
377
100
AcDbEntity
  8
0
100
AcDbCircle
 62
7
  6
CONTINUOUS
 10
7.2524832499
 20
3.2116064579
 40
0.0393700787
100
AcDbArc
 50
0.0
 51
90.0
  0
ARC
  5
378
100
AcDbEntity
  8
0
100
AcDbCircle
 62
7
  6
CONTINUOUS
 10
6.7426407302
 20
3.2069214185
 40
0.031496063
100
AcDbArc
 50
90.0
 51
180.0
  0
ARC
  5
379
100
AcDbEntity
  8
0
100
AcDbCircle
 62
7
  6
CONTINUOUS
 10
7.2701997853
 20
3.2069214185
 40
0.031496063
100
AcDbArc
 50
0.0
 51
90.0
  0
ARC
  5
37A
100
AcDbEntity
  8
0
100
AcDbCircle
 62
7
  6
CONTINUOUS
 10
7.2701997853
 20
3.2069214185
 40
0.0118110236
100
AcDbArc
 50
0.0
 51
90.0
  0
ARC
  5
37B
100
AcDbEntity
  8
0
100
AcDbCircle
 62
7
  6
CONTINUOUS
 10
6.7426407302
 20
3.2069214185
 40
0.0118110236
100
AcDbArc
 50
90.0
 51
180.0
  0
CIRCLE
  5
37C
100
AcDbEntity
  8
02___PRT_ALL_AXES
100
AcDbCircle
 62
3
  6
CONTINUOUS
 10
6.4079950609
 20
3.6053072453
 40
0.1437007874
  0
CIRCLE
  5
37D
100
AcDbEntity
  8
02___PRT_ALL_AXES
100
AcDbCircle
 62
7
  6
CONTINUOUS
 10
6.4079950609
 20
3.6053072453
 40
0.1181102362
  0
CIRCLE
  5
37E
100
AcDbEntity
  8
0
100
AcDbCircle
 62
7
  6
CONTINUOUS
 10
6.4079950609
 20
3.6053072453
 40
0.0905511811
  0
CIRCLE
  5
37F
100
AcDbEntity
  8
0
100
AcDbCircle
 62
7
  6
CONTINUOUS
 10
6.4079950609
 20
3.6053072453
 40
0.0708661417
  0
CIRCLE
  5
380
100
AcDbEntity
  8
02___PRT_ALL_AXES
100
AcDbCircle
 62
3
  6
CONTINUOUS
 10
7.8528769507
 20
3.1151891351
 40
0.1437007874
  0
CIRCLE
  5
381
100
AcDbEntity
  8
0
100
AcDbCircle
 62
7
  6
CONTINUOUS
 10
7.8528769507
 20
3.1151891351
 40
0.1181102362
  0
ARC
  5
382
100
AcDbEntity
  8
0
100
AcDbCircle
 62
7
  6
CONTINUOUS
 10
7.8528769507
 20
3.1131812611
 40
0.1181102362
100
AcDbArc
 50
179.4811596832
 51
0.3989597314
  0
CIRCLE
  5
383
100
AcDbEntity
  8
0
100
AcDbCircle
 62
7
  6
CONTINUOUS
 10
7.8528769507
 20
3.1151891351
 40
0.1102362205
  0
CIRCLE
  5
384
100
AcDbEntity
  8
0
100
AcDbCircle
 62
7
  6
CONTINUOUS
 10
7.8528769507
 20
3.1131812611
 40
0.0984251969
  0
CIRCLE
  5
385
100
AcDbEntity
  8
0
100
AcDbCircle
 62
7
  6
CONTINUOUS
 10
7.8528769507
 20
3.1151891351
 40
0.0688976378
  0
CIRCLE
  5
386
100
AcDbEntity
  8
02___PRT_ALL_AXES
100
AcDbCircle
 62
7
  6
CONTINUOUS
 10
7.8528769507
 20
3.1131812611
 40
0.0590551181
  0
ARC
  5
387
100
AcDbEntity
  8
0
100
AcDbCircle
 62
7
  6
CONTINUOUS
 10
9.1698060846
 20
3.0029844107
 40
0.0078740157
100
AcDbArc
 50
270.0
 51
360.0
  0
ARC
  5
388
100
AcDbEntity
  8
0
100
AcDbCircle
 62
3
  6
CONTINUOUS
 10
9.0497273444
 20
3.5659765367
 40
0.0295275591
100
AcDbArc
 50
180.0
 51
270.0
  0
ARC
  5
389
100
AcDbEntity
  8
0
100
AcDbCircle
 62
7
  6
CONTINUOUS
 10
9.1387037224
 20
3.617157639
 40
0.0236220472
100
AcDbArc
 50
317.7647412275
 51
360.0
  0
ARC
  5
38A
100
AcDbEntity
  8
0
100
AcDbCircle
 62
3
  6
CONTINUOUS
 10
9.1186249822
 20
3.5167639382
 40
0.0196850394
100
AcDbArc
 50
0.0
 51
90.0
  0
ARC
  5
38B
100
AcDbEntity
  8
0
100
AcDbCircle
 62
7
  6
CONTINUOUS
 10
9.1387037224
 20
3.617157639
 40
0.0118110236
100
AcDbArc
 50
270.0
 51
360.0
  0
ARC
  5
38C
100
AcDbEntity
  8
0
100
AcDbCircle
 62
7
  6
CONTINUOUS
 10
9.1698060846
 20
3.5187324422
 40
0.0078740157
100
AcDbArc
 50
0.0
 51
90.0
  0
CIRCLE
  5
38D
100
AcDbEntity
  8
02___PRT_ALL_AXES
100
AcDbCircle
 62
3
  6
CONTINUOUS
 10
7.093034431
 20
3.8218426784
 40
0.1968503937
  0
CIRCLE
  5
38E
100
AcDbEntity
  8
0
100
AcDbCircle
 62
7
  6
CONTINUOUS
 10
7.093034431
 20
3.8218426784
 40
0.1633858268
  0
CIRCLE
  5
38F
100
AcDbEntity
  8
0
100
AcDbCircle
 62
7
  6
CONTINUOUS
 10
7.093034431
 20
3.8218426784
 40
0.124015748
  0
CIRCLE
  5
390
100
AcDbEntity
  8
0
100
AcDbCircle
 62
7
  6
CONTINUOUS
 10
7.093034431
 20
3.8218426784
 40
0.0688976378
  0
ARC
  5
391
100
AcDbEntity
  8
0
100
AcDbCircle
 62
3
  6
CONTINUOUS
 10
6.7761052972
 20
4.1860552768
 40
0.0393700787
100
AcDbArc
 50
180.0
 51
360.0
  0
ARC
  5
392
100
AcDbEntity
  8
0
100
AcDbCircle
 62
3
  6
CONTINUOUS
 10
6.6186249822
 20
4.1860552768
 40
0.0393700787
100
AcDbArc
 50
180.0
 51
360.0
  0
ARC
  5
393
100
AcDbEntity
  8
0
100
AcDbCircle
 62
3
  6
CONTINUOUS
 10
6.4611446672
 20
4.1860552768
 40
0.0393700787
100
AcDbArc
 50
180.0
 51
360.0
  0
ARC
  5
394
100
AcDbEntity
  8
0
100
AcDbCircle
 62
3
  6
CONTINUOUS
 10
6.3036643523
 20
4.1860552768
 40
0.0393700787
100
AcDbArc
 50
180.0
 51
360.0
  0
ARC
  5
395
100
AcDbEntity
  8
0
100
AcDbCircle
 62
3
  6
CONTINUOUS
 10
6.1461840373
 20
4.1860552768
 40
0.0393700787
100
AcDbArc
 50
180.0
 51
360.0
  0
ARC
  5
396
100
AcDbEntity
  8
0
100
AcDbCircle
 62
3
  6
CONTINUOUS
 10
5.9887037224
 20
4.1860552768
 40
0.0393700787
100
AcDbArc
 50
180.0
 51
360.0
  0
ARC
  5
397
100
AcDbEntity
  8
0
100
AcDbCircle
 62
3
  6
CONTINUOUS
 10
5.8312234074
 20
4.1860552768
 40
0.0393700787
100
AcDbArc
 50
180.0
 51
360.0
  0
ARC
  5
398
100
AcDbEntity
  8
0
100
AcDbCircle
 62
3
  6
CONTINUOUS
 10
6.7761052972
 20
4.5797560642
 40
0.0393700787
100
AcDbArc
 50
0.0
 51
180.0
  0
ARC
  5
399
100
AcDbEntity
  8
0
100
AcDbCircle
 62
3
  6
CONTINUOUS
 10
6.6186249822
 20
4.5797560642
 40
0.0393700787
100
AcDbArc
 50
0.0
 51
180.0
  0
ARC
  5
39A
100
AcDbEntity
  8
0
100
AcDbCircle
 62
3
  6
CONTINUOUS
 10
6.4611446672
 20
4.5797560642
 40
0.0393700787
100
AcDbArc
 50
0.0
 51
180.0
  0
ARC
  5
39B
100
AcDbEntity
  8
0
100
AcDbCircle
 62
3
  6
CONTINUOUS
 10
6.3036643523
 20
4.5797560642
 40
0.0393700787
100
AcDbArc
 50
0.0
 51
180.0
  0
ARC
  5
39C
100
AcDbEntity
  8
0
100
AcDbCircle
 62
3
  6
CONTINUOUS
 10
6.1461840373
 20
4.5797560642
 40
0.0393700787
100
AcDbArc
 50
0.0
 51
180.0
  0
ARC
  5
39D
100
AcDbEntity
  8
0
100
AcDbCircle
 62
3
  6
CONTINUOUS
 10
5.9887037224
 20
4.5797560642
 40
0.0393700787
100
AcDbArc
 50
0.0
 51
180.0
  0
ARC
  5
39E
100
AcDbEntity
  8
0
100
AcDbCircle
 62
3
  6
CONTINUOUS
 10
5.8312234074
 20
4.5797560642
 40
0.0393700787
100
AcDbArc
 50
0.0
 51
180.0
  0
CIRCLE
  5
39F
100
AcDbEntity
  8
02___PRT_ALL_AXES
100
AcDbCircle
 62
3
  6
CONTINUOUS
 10
7.7741367932
 20
3.8218426784
 40
0.1968503937
  0
CIRCLE
  5
3A0
100
AcDbEntity
  8
0
100
AcDbCircle
 62
7
  6
CONTINUOUS
 10
7.7741367932
 20
3.8218426784
 40
0.1633858268
  0
CIRCLE
  5
3A1
100
AcDbEntity
  8
0
100
AcDbCircle
 62
7
  6
CONTINUOUS
 10
7.7741367932
 20
3.8218426784
 40
0.124015748
  0
CIRCLE
  5
3A2
100
AcDbEntity
  8
0
100
AcDbCircle
 62
7
  6
CONTINUOUS
 10
7.7741367932
 20
3.8218426784
 40
0.0688976378
  0
ARC
  5
3A3
100
AcDbEntity
  8
0
100
AcDbCircle
 62
3
  6
CONTINUOUS
 10
9.0595698641
 20
4.7372363792
 40
0.0787401575
100
AcDbArc
 50
0.0
 51
90.0
  0
ARC
  5
3A4
100
AcDbEntity
  8
0
100
AcDbCircle
 62
3
  6
CONTINUOUS
 10
9.0497273444
 20
4.6092836233
 40
0.0295275591
100
AcDbArc
 50
90.0
 51
180.0
  0
ARC
  5
3A5
100
AcDbEntity
  8
0
100
AcDbCircle
 62
3
  6
CONTINUOUS
 10
9.1186249822
 20
4.6584962217
 40
0.0196850394
100
AcDbArc
 50
270.0
 51
360.0
  0
SPLINE
  5
3A6
100
AcDbEntity
  8
0
100
AcDbSpline
 62
3
  6
CONTINUOUS
 70
0
 71
3
 72
13
 73
9
 74
0
 42
0.0000001
 43
0.0000001
 44
0.0000000001
 40
0.0
 40
0.0
 40
0.0
 40
0.0
 40
0.1271955953
 40
0.2544937529
 40
0.3816976734
 40
0.5085039845
 40
0.7582385994
 40
1.0
 40
1.0
 40
1.0
 40
1.0
 10
2.563506872
 20
4.6092836233
 30
0.0
 10
2.563506872
 20
4.6068336169
 30
0.0
 10
2.5625364027
 20
4.6018917669
 30
0.0
 10
2.5587217932
 20
4.5954844825
 30
0.0
 10
2.5534289719
 20
4.5903021348
 30
0.0
 10
2.5452589272
 20
4.584984254
 30
0.0
 10
2.5339230567
 20
4.580868568
 30
0.0
 10
2.5244338069
 20
4.5797560642
 30
0.0
 10
2.5197770656
 20
4.5797560642
 30
0.0
  0
SPLINE
  5
3A7
100
AcDbEntity
  8
0
100
AcDbSpline
 62
3
  6
CONTINUOUS
 70
0
 71
3
 72
13
 73
9
 74
0
 42
0.0000001
 43
0.0000001
 44
0.0000000001
 40
0.0
 40
0.0
 40
0.0
 40
0.0
 40
0.1271955953
 40
0.2544937529
 40
0.3816976734
 40
0.5085039845
 40
0.7582385994
 40
1.0
 40
1.0
 40
1.0
 40
1.0
 10
2.563506872
 20
2.9360552768
 30
0.0
 10
2.563506872
 20
2.9385052832
 30
0.0
 10
2.5625364027
 20
2.9434471332
 30
0.0
 10
2.5587217932
 20
2.9498544176
 30
0.0
 10
2.5534289719
 20
2.9550367652
 30
0.0
 10
2.5452589272
 20
2.9603546461
 30
0.0
 10
2.5339230567
 20
2.9644703321
 30
0.0
 10
2.5244338069
 20
2.9655828359
 30
0.0
 10
2.5197770656
 20
2.9655828359
 30
0.0
  0
SPLINE
  5
3A8
100
AcDbEntity
  8
0
100
AcDbSpline
 62
3
  6
CONTINUOUS
 70
0
 71
3
 72
13
 73
9
 74
0
 42
0.0000001
 43
0.0000001
 44
0.0000000001
 40
0.0
 40
0.0
 40
0.0
 40
0.0
 40
0.1271955771
 40
0.254493723
 40
0.3816976406
 40
0.5085039503
 40
0.7582385792
 40
1.0
 40
1.0
 40
1.0
 40
1.0
 10
9.0201997853
 20
3.5659765367
 30
0.0
 10
9.0201997853
 20
3.5684265427
 30
0.0
 10
9.0211702544
 20
3.573368392
 30
0.0
 10
9.0249848628
 20
3.5797756764
 30
0.0
 10
9.030277684
 20
3.5849580237
 30
0.0
 10
9.0384477286
 20
3.5902759049
 30
0.0
 10
9.0497835995
 20
3.594391592
 30
0.0
 10
9.05927285
 20
3.5955040957
 30
0.0
 10
9.0639295917
 20
3.5955040957
 30
0.0
  0
SPLINE
  5
3A9
100
AcDbEntity
  8
0
100
AcDbSpline
 62
3
  6
CONTINUOUS
 70
0
 71
3
 72
13
 73
9
 74
0
 42
0.0000001
 43
0.0000001
 44
0.0000000001
 40
0.0
 40
0.0
 40
0.0
 40
0.0
 40
0.1271955771
 40
0.254493723
 40
0.3816976406
 40
0.5085039503
 40
0.7582385792
 40
1.0
 40
1.0
 40
1.0
 40
1.0
 10
9.0201997853
 20
4.6092836233
 30
0.0
 10
9.0201997853
 20
4.6068336172
 30
0.0
 10
9.0211702544
 20
4.6018917679
 30
0.0
 10
9.0249848628
 20
4.5954844835
 30
0.0
 10
9.030277684
 20
4.5903021362
 30
0.0
 10
9.0384477286
 20
4.584984255
 30
0.0
 10
9.0497835995
 20
4.5808685679
 30
0.0
 10
9.05927285
 20
4.5797560642
 30
0.0
 10
9.0639295917
 20
4.5797560642
 30
0.0
  0
ENDSEC
  0
SECTION
  2
OBJECTS
  0
DICTIONARY
  5
C
100
AcDbDictionary
280
0
281
1
  3
ACAD_GROUP
350
D
  3
ACAD_MLINESTYLE
350
17
  3
ACAD_LAYOUT
350
1A
  3
ACAD_PLOTSETTINGS
350
19
  3
ACAD_PLOTSTYLENAME
350
E
  0
DICTIONARY
  5
D
102
{ACAD_REACTORS
330
C
102
}
100
AcDbDictionary
280
0
281
1
  0
ACDBDICTIONARYWDFLT
  5
E
102
{ACAD_REACTORS
330
C
102
}
100
AcDbDictionary
281
1
  3
Normal
350
F
100
AcDbDictionaryWithDefault
340
F
  0
DICTIONARY
  5
17
102
{ACAD_REACTORS
330
C
102
}
100
AcDbDictionary
280
0
281
1
  3
Standard
350
18
  0
DICTIONARY
  5
19
102
{ACAD_REACTORS
330
C
102
}
100
AcDbDictionary
281
1
  0
DICTIONARY
  5
1A
102
{ACAD_REACTORS
330
C
102
}
100
AcDbDictionary
281
1
  3
Model
350
3AA
  3
Layout1
350
3AB
  0
ACDBPLACEHOLDER
  5
F
102
{ACAD_REACTORS
330
E
102
}
  0
MLINESTYLE
  5
18
102
{ACAD_REACTORS
330
17
102
}
100
AcDbMlineStyle
  2
STANDARD
 70
0
  3

 62
256
 51
90.0
 52
90.0
 71
2
 49
0.5
 62
256
  6
BYLAYER
 49
-0.5
 62
256
  6
BYLAYER
  0
LAYOUT
  5
3AA
102
{ACAD_REACTORS
330
1A
102
}
100
AcDbPlotSettings
  1

  2
none_device
  4
ISO_A4_(297.00_x_210.00_MM)
  6

 40
0.0
 41
0.0
 42
0.0
 43
0.0
 44
297.0
 45
210.0
 46
0.0
 47
0.0
 48
0.0
 49
0.0
140
0.0
141
0.0
142
1.0
143
1.0
 70
1024
 72
0
 73
0
 74
0
  7

 75
0
147
1.0
148
0.0
149
0.0
100
AcDbLayout
  1
Model
 70
0
 71
0
 10
0.0
 20
0.0
 11
11.6929133858
 21
8.2677165354
 12
0.0
 22
0.0
 32
0.0
 14
0.0
 24
0.0
 34
0.0
 15
0.0
 25
0.0
 35
0.0
146
0.0
 13
0.0
 23
0.0
 33
0.0
 16
1.0
 26
0.0
 36
0.0
 17
0.0
 27
1.0
 37
0.0
 76
0
330
226
345
0
346
0
  0
LAYOUT
  5
3AB
102
{ACAD_REACTORS
330
1A
102
}
100
AcDbPlotSettings
  1

  2
none_device
  4
ISO_A4_(297.00_x_210.00_MM)
  6

 40
0.0
 41
0.0
 42
0.0
 43
0.0
 44
297.0
 45
210.0
 46
0.0
 47
0.0
 48
0.0
 49
0.0
140
0.0
141
0.0
142
1.0
143
1.0
 70
0
 72
0
 73
0
 74
0
  7

 75
0
147
1.0
148
0.0
149
0.0
100
AcDbLayout
  1
Layout1
 70
0
 71
1
 10
0.0
 20
0.0
 11
11.6929133858
 21
8.2677165354
 12
0.0
 22
0.0
 32
0.0
 14
0.0
 24
0.0
 34
0.0
 15
0.0
 25
0.0
 35
0.0
146
0.0
 13
0.0
 23
0.0
 33
0.0
 16
1.0
 26
0.0
 36
0.0
 17
0.0
 27
1.0
 37
0.0
 76
0
330
227
345
0
346
0
  0
ENDSEC
  0
EOF
