  0
SECTION
  2
HEADER
  9
$ACADVER
  1
AC1014
  9
$HANDSEED
  5
FFFF
  9
$MEASUREMENT
 70
     1
  0
ENDSEC
  0
SECTION
  2
TABLES
  0
TABLE
  2
VPORT
  5
8
330
0
100
AcDbSymbolTable
 70
     4
  0
VPORT
  5
2E
330
8
100
AcDbSymbolTableRecord
100
AcDbViewportTableRecord
  2
*ACTIVE
 70
     0
 10
0.0
 20
0.0
 11
1.0
 21
1.0
 12
210.0
 22
148.5
 13
0.0
 23
0.0
 14
10.0
 24
10.0
 15
10.0
 25
10.0
 16
0.0
 26
0.0
 36
1.0
 17
0.0
 27
0.0
 37
0.0
 40
341.0
 41
1.24
 42
50.0
 43
0.0
 44
0.0
 50
0.0
 51
0.0
 71
     0
 72
   100
 73
     1
 74
     3
 75
     0
 76
     0
 77
     0
 78
     0
  0
ENDTAB
  0
TABLE
  2
LTYPE
  5
5
330
0
100
AcDbSymbolTable
 70
     1
  0
LTYPE
  5
14
330
5
100
AcDbSymbolTableRecord
100
AcDbLinetypeTableRecord
  2
BYBLOCK
 70
     0
  3

 72
    65
 73
     0
 40
0.0
  0
LTYPE
  5
15
330
5
100
AcDbSymbolTableRecord
100
AcDbLinetypeTableRecord
  2
BYLAYER
 70
     0
  3

 72
    65
 73
     0
 40
0.0
  0
LTYPE
  5
16
330
5
100
AcDbSymbolTableRecord
100
AcDbLinetypeTableRecord
  2
CONTINUOUS
 70
     0
  3
Solid line
 72
    65
 73
     0
 40
0.0
  0
ENDTAB
  0
TABLE
  2
LAYER
  5
2
100
AcDbSymbolTable
 70
2
  0
LAYER
  5
50
100
AcDbSymbolTableRecord
100
AcDbLayerTableRecord
  2
0
 70
0
  6
CONTINUOUS
  0
LAYER
  5
51
100
AcDbSymbolTableRecord
100
AcDbLayerTableRecord
  2
Capa_1
 70
0
  6
CONTINUOUS
  0
ENDTAB
  0
TABLE
  2
STYLE
  5
3
330
0
100
AcDbSymbolTable
 70
     1
  0
STYLE
  5
11
330
3
100
AcDbSymbolTableRecord
100
AcDbTextStyleTableRecord
  2
STANDARD
 70
     0
 40
0.0
 41
1.0
 50
0.0
 71
     0
 42
2.5
  3
txt
  4

  0
ENDTAB
  0
TABLE
  2
VIEW
  5
6
330
0
100
AcDbSymbolTable
 70
     0
  0
ENDTAB
  0
TABLE
  2
UCS
  5
7
330
0
100
AcDbSymbolTable
 70
     0
  0
ENDTAB
  0
TABLE
  2
APPID
  5
9
330
0
100
AcDbSymbolTable
 70
     2
  0
APPID
  5
12
330
9
100
AcDbSymbolTableRecord
100
AcDbRegAppTableRecord
  2
ACAD
 70
     0
  0
ENDTAB
  0
TABLE
  2
DIMSTYLE
  5
A
330
0
100
AcDbSymbolTable
 70
     1
  0
DIMSTYLE
105
27
330
A
100
AcDbSymbolTableRecord
100
AcDbDimStyleTableRecord
  2
ISO-25
 70
     0
  3

  4

  5

  6

  7

 40
1.0
 41
2.5
 42
0.625
 43
3.75
 44
1.25
 45
0.0
 46
0.0
 47
0.0
 48
0.0
140
2.5
141
2.5
142
0.0
143
0.03937007874016
144
1.0
145
0.0
146
1.0
147
0.625
 71
     0
 72
     0
 73
     0
 74
     0
 75
     0
 76
     0
 77
     1
 78
     8
170
     0
171
     3
172
     1
173
     0
174
     0
175
     0
176
     0
177
     0
178
     0
270
     2
271
     2
272
     2
273
     2
274
     3
340
11
275
     0
280
     0
281
     0
282
     0
283
     0
284
     8
285
     0
286
     0
287
     3
288
     0
  0
ENDTAB
  0
TABLE
  2
BLOCK_RECORD
  5
1
330
0
100
AcDbSymbolTable
 70
     1
  0
BLOCK_RECORD
  5
1F
330
1
100
AcDbSymbolTableRecord
100
AcDbBlockTableRecord
  2
*MODEL_SPACE
  0
BLOCK_RECORD
  5
1B
330
1
100
AcDbSymbolTableRecord
100
AcDbBlockTableRecord
  2
*PAPER_SPACE
  0
ENDTAB
  0
ENDSEC
  0
SECTION
  2
BLOCKS
  0
BLOCK
  5
20
330
1F
100
AcDbEntity
  8
0
100
AcDbBlockBegin
  2
*MODEL_SPACE
 70
     0
 10
0.0
 20
0.0
 30
0.0
  3
*MODEL_SPACE
  1

  0
ENDBLK
  5
21
330
1F
100
AcDbEntity
  8
0
100
AcDbBlockEnd
  0
BLOCK
  5
1C
330
1B
100
AcDbEntity
 67
     1
  8
0
100
AcDbBlockBegin
  2
*PAPER_SPACE
  1

  0
ENDBLK
  5
1D
330
1B
100
AcDbEntity
 67
     1
  8
0
100
AcDbBlockEnd
  0
ENDSEC
  0
SECTION
  2
ENTITIES
  0
LWPOLYLINE
  5
100
100
AcDbEntity
  8
Capa_1
 62
3
100
AcDbPolyline
 90
2
 70
0
 10
22.470218
 20
107.468660
 30
0.0
 10
22.470218
 20
113.468660
 30
0.0
  0
LWPOLYLINE
  5
101
100
AcDbEntity
  8
Capa_1
 62
3
100
AcDbPolyline
 90
2
 70
0
 10
22.470218
 20
115.468660
 30
0.0
 10
22.470218
 20
156.468660
 30
0.0
  0
LWPOLYLINE
  5
102
100
AcDbEntity
  8
Capa_1
 62
3
100
AcDbPolyline
 90
2
 70
0
 10
22.470218
 20
158.468660
 30
0.0
 10
22.470218
 20
160.468660
 30
0.0
  0
LWPOLYLINE
  5
103
100
AcDbEntity
  8
Capa_1
 62
3
100
AcDbPolyline
 90
2
 70
0
 10
38.170217
 20
134.012520
 30
0.0
 10
38.170217
 20
134.973670
 30
0.0
  0
LWPOLYLINE
  5
104
100
AcDbEntity
  8
Capa_1
 62
3
100
AcDbPolyline
 90
2
 70
0
 10
40.770216
 20
134.973670
 30
0.0
 10
40.770216
 20
134.012520
 30
0.0
  0
LWPOLYLINE
  5
105
100
AcDbEntity
  8
Capa_1
 62
3
100
AcDbPolyline
 90
2
 70
0
 10
63.170217
 20
134.012520
 30
0.0
 10
63.170217
 20
134.973670
 30
0.0
  0
LWPOLYLINE
  5
106
100
AcDbEntity
  8
Capa_1
 62
3
100
AcDbPolyline
 90
2
 70
0
 10
65.770216
 20
134.973670
 30
0.0
 10
65.770216
 20
134.012520
 30
0.0
  0
LWPOLYLINE
  5
107
100
AcDbEntity
  8
Capa_1
 62
3
100
AcDbPolyline
 90
2
 70
0
 10
22.470218
 20
107.468660
 30
0.0
 10
192.470210
 20
107.468660
 30
0.0
  0
LWPOLYLINE
  5
108
100
AcDbEntity
  8
Capa_1
 62
3
100
AcDbPolyline
 90
2
 70
0
 10
22.970217
 20
113.968660
 30
0.0
 10
24.720216
 20
113.968660
 30
0.0
  0
LWPOLYLINE
  5
109
100
AcDbEntity
  8
Capa_1
 62
3
100
AcDbPolyline
 90
2
 70
0
 10
22.470218
 20
115.468660
 30
0.0
 10
24.359480
 20
115.468660
 30
0.0
  0
LWPOLYLINE
  5
10a
100
AcDbEntity
  8
Capa_1
 62
3
100
AcDbPolyline
 90
2
 70
0
 10
88.170217
 20
134.012520
 30
0.0
 10
88.170217
 20
134.973670
 30
0.0
  0
LWPOLYLINE
  5
10b
100
AcDbEntity
  8
Capa_1
 62
3
100
AcDbPolyline
 90
2
 70
0
 10
90.770216
 20
134.973670
 30
0.0
 10
90.770216
 20
134.012520
 30
0.0
  0
LWPOLYLINE
  5
10c
100
AcDbEntity
  8
Capa_1
 62
3
100
AcDbPolyline
 90
2
 70
0
 10
103.470220
 20
156.468660
 30
0.0
 10
103.470220
 20
146.468660
 30
0.0
  0
LWPOLYLINE
  5
10d
100
AcDbEntity
  8
Capa_1
 62
3
100
AcDbPolyline
 90
2
 70
0
 10
105.470210
 20
146.468660
 30
0.0
 10
105.470210
 20
156.468660
 30
0.0
  0
LWPOLYLINE
  5
10e
100
AcDbEntity
  8
Capa_1
 62
3
100
AcDbPolyline
 90
2
 70
0
 10
107.470220
 20
156.468660
 30
0.0
 10
107.470220
 20
146.468660
 30
0.0
  0
LWPOLYLINE
  5
10f
100
AcDbEntity
  8
Capa_1
 62
3
100
AcDbPolyline
 90
2
 70
0
 10
109.470210
 20
146.468660
 30
0.0
 10
109.470210
 20
156.468660
 30
0.0
  0
LWPOLYLINE
  5
110
100
AcDbEntity
  8
Capa_1
 62
3
100
AcDbPolyline
 90
2
 70
0
 10
111.470220
 20
156.468660
 30
0.0
 10
111.470220
 20
146.468660
 30
0.0
  0
LWPOLYLINE
  5
111
100
AcDbEntity
  8
Capa_1
 62
3
100
AcDbPolyline
 90
2
 70
0
 10
113.470210
 20
146.468660
 30
0.0
 10
113.470210
 20
156.468660
 30
0.0
  0
LWPOLYLINE
  5
112
100
AcDbEntity
  8
Capa_1
 62
3
100
AcDbPolyline
 90
2
 70
0
 10
115.470220
 20
156.468660
 30
0.0
 10
115.470220
 20
146.468660
 30
0.0
  0
LWPOLYLINE
  5
113
100
AcDbEntity
  8
Capa_1
 62
3
100
AcDbPolyline
 90
2
 70
0
 10
117.470210
 20
146.468660
 30
0.0
 10
117.470210
 20
156.468660
 30
0.0
  0
LWPOLYLINE
  5
114
100
AcDbEntity
  8
Capa_1
 62
3
100
AcDbPolyline
 90
2
 70
0
 10
119.470220
 20
156.468660
 30
0.0
 10
119.470220
 20
146.468660
 30
0.0
  0
LWPOLYLINE
  5
115
100
AcDbEntity
  8
Capa_1
 62
3
100
AcDbPolyline
 90
2
 70
0
 10
121.470210
 20
146.468660
 30
0.0
 10
121.470210
 20
156.468660
 30
0.0
  0
LWPOLYLINE
  5
116
100
AcDbEntity
  8
Capa_1
 62
3
100
AcDbPolyline
 90
2
 70
0
 10
123.470220
 20
156.468660
 30
0.0
 10
123.470220
 20
146.468660
 30
0.0
  0
LWPOLYLINE
  5
117
100
AcDbEntity
  8
Capa_1
 62
3
100
AcDbPolyline
 90
2
 70
0
 10
125.470220
 20
146.468660
 30
0.0
 10
125.470220
 20
156.468660
 30
0.0
  0
LWPOLYLINE
  5
118
100
AcDbEntity
  8
Capa_1
 62
3
100
AcDbPolyline
 90
2
 70
0
 10
192.470210
 20
156.468660
 30
0.0
 10
190.580950
 20
156.468660
 30
0.0
  0
LWPOLYLINE
  5
119
100
AcDbEntity
  8
Capa_1
 62
3
100
AcDbPolyline
 90
2
 70
0
 10
24.359480
 20
156.468660
 30
0.0
 10
22.470218
 20
156.468660
 30
0.0
  0
LWPOLYLINE
  5
11a
100
AcDbEntity
  8
Capa_1
 62
3
100
AcDbPolyline
 90
2
 70
0
 10
191.970220
 20
157.968660
 30
0.0
 10
190.220210
 20
157.968660
 30
0.0
  0
LWPOLYLINE
  5
11b
100
AcDbEntity
  8
Capa_1
 62
3
100
AcDbPolyline
 90
2
 70
0
 10
22.970217
 20
157.968660
 30
0.0
 10
24.720216
 20
157.968660
 30
0.0
  0
LWPOLYLINE
  5
11c
100
AcDbEntity
  8
Capa_1
 62
3
100
AcDbPolyline
 90
2
 70
0
 10
127.470220
 20
156.468660
 30
0.0
 10
127.470220
 20
146.468660
 30
0.0
  0
LWPOLYLINE
  5
11d
100
AcDbEntity
  8
Capa_1
 62
3
100
AcDbPolyline
 90
2
 70
0
 10
129.470220
 20
146.468660
 30
0.0
 10
129.470220
 20
156.468660
 30
0.0
  0
LWPOLYLINE
  5
11e
100
AcDbEntity
  8
Capa_1
 62
3
100
AcDbPolyline
 90
2
 70
0
 10
131.470220
 20
156.468660
 30
0.0
 10
131.470220
 20
146.468660
 30
0.0
  0
LWPOLYLINE
  5
11f
100
AcDbEntity
  8
Capa_1
 62
3
100
AcDbPolyline
 90
2
 70
0
 10
133.470220
 20
146.468660
 30
0.0
 10
133.470220
 20
156.468660
 30
0.0
  0
LWPOLYLINE
  5
120
100
AcDbEntity
  8
Capa_1
 62
3
100
AcDbPolyline
 90
2
 70
0
 10
24.470216
 20
162.468660
 30
0.0
 10
190.470220
 20
162.468660
 30
0.0
  0
LWPOLYLINE
  5
121
100
AcDbEntity
  8
Capa_1
 62
3
100
AcDbPolyline
 90
2
 70
0
 10
192.470210
 20
107.468660
 30
0.0
 10
192.470210
 20
156.468660
 30
0.0
  0
SPLINE
  5
122
100
AcDbEntity
  8
Capa_1
 62
3
100
AcDbSpline
 70
8
 71
3
 72
8
 73
4
 74
0
 40
0
 40
0
 40
0
 40
0
 40
1
 40
1
 40
1
 40
1
 10
24.720216
 20
113.968660
 30
0.0
 10
24.919129
 20
113.968660
 30
0.0
 10
25.109894
 20
114.047677
 30
0.0
 10
25.250547
 20
114.188330
 30
0.0
  0
SPLINE
  5
123
100
AcDbEntity
  8
Capa_1
 62
3
100
AcDbSpline
 70
8
 71
3
 72
8
 73
4
 74
0
 40
0
 40
0
 40
0
 40
0
 40
1
 40
1
 40
1
 40
1
 10
25.250547
 20
114.188330
 30
0.0
 10
25.391199
 20
114.328982
 30
0.0
 10
25.470217
 20
114.519747
 30
0.0
 10
25.470217
 20
114.718660
 30
0.0
  0
SPLINE
  5
124
100
AcDbEntity
  8
Capa_1
 62
3
100
AcDbSpline
 70
8
 71
3
 72
8
 73
4
 74
0
 40
0
 40
0
 40
0
 40
0
 40
1
 40
1
 40
1
 40
1
 10
22.970217
 20
113.968660
 30
0.0
 10
22.694075
 20
113.968659
 30
0.0
 10
22.470218
 20
113.744802
 30
0.0
 10
22.470218
 20
113.468660
 30
0.0
  0
SPLINE
  5
125
100
AcDbEntity
  8
Capa_1
 62
3
100
AcDbSpline
 70
8
 71
3
 72
8
 73
4
 74
0
 40
0
 40
0
 40
0
 40
0
 40
1
 40
1
 40
1
 40
1
 10
38.170217
 20
134.012520
 30
0.0
 10
39.032366
 20
133.887378
 30
0.0
 10
39.908067
 20
133.887378
 30
0.0
 10
40.770216
 20
134.012520
 30
0.0
  0
SPLINE
  5
126
100
AcDbEntity
  8
Capa_1
 62
3
100
AcDbSpline
 70
8
 71
3
 72
8
 73
4
 74
0
 40
0
 40
0
 40
0
 40
0
 40
1
 40
1
 40
1
 40
1
 10
63.170217
 20
134.012520
 30
0.0
 10
64.032366
 20
133.887378
 30
0.0
 10
64.908067
 20
133.887378
 30
0.0
 10
65.770216
 20
134.012520
 30
0.0
  0
SPLINE
  5
127
100
AcDbEntity
  8
Capa_1
 62
3
100
AcDbSpline
 70
8
 71
3
 72
8
 73
4
 74
0
 40
0
 40
0
 40
0
 40
0
 40
1
 40
1
 40
1
 40
1
 10
88.170217
 20
134.012520
 30
0.0
 10
89.032366
 20
133.887378
 30
0.0
 10
89.908067
 20
133.887378
 30
0.0
 10
90.770216
 20
134.012520
 30
0.0
  0
SPLINE
  5
128
100
AcDbEntity
  8
Capa_1
 62
3
100
AcDbSpline
 70
8
 71
3
 72
8
 73
4
 74
0
 40
0
 40
0
 40
0
 40
0
 40
1
 40
1
 40
1
 40
1
 10
40.770216
 20
134.973670
 30
0.0
 10
44.936143
 20
135.651056
 30
0.0
 10
47.883719
 20
139.413846
 30
0.0
 10
47.543923
 20
143.620785
 30
0.0
  0
SPLINE
  5
129
100
AcDbEntity
  8
Capa_1
 62
3
100
AcDbSpline
 70
8
 71
3
 72
8
 73
4
 74
0
 40
0
 40
0
 40
0
 40
0
 40
1
 40
1
 40
1
 40
1
 10
47.543923
 20
143.620785
 30
0.0
 10
47.204127
 20
147.827724
 30
0.0
 10
43.690856
 20
151.068668
 30
0.0
 10
39.470217
 20
151.068668
 30
0.0
  0
SPLINE
  5
12a
100
AcDbEntity
  8
Capa_1
 62
3
100
AcDbSpline
 70
8
 71
3
 72
8
 73
4
 74
0
 40
0
 40
0
 40
0
 40
0
 40
1
 40
1
 40
1
 40
1
 10
39.470217
 20
151.068668
 30
0.0
 10
35.249577
 20
151.068668
 30
0.0
 10
31.736306
 20
147.827724
 30
0.0
 10
31.396510
 20
143.620785
 30
0.0
  0
SPLINE
  5
12b
100
AcDbEntity
  8
Capa_1
 62
3
100
AcDbSpline
 70
8
 71
3
 72
8
 73
4
 74
0
 40
0
 40
0
 40
0
 40
0
 40
1
 40
1
 40
1
 40
1
 10
31.396510
 20
143.620785
 30
0.0
 10
31.056714
 20
139.413846
 30
0.0
 10
34.004290
 20
135.651056
 30
0.0
 10
38.170217
 20
134.973670
 30
0.0
  0
SPLINE
  5
12c
100
AcDbEntity
  8
Capa_1
 62
3
100
AcDbSpline
 70
8
 71
3
 72
8
 73
4
 74
0
 40
0
 40
0
 40
0
 40
0
 40
1
 40
1
 40
1
 40
1
 10
65.770216
 20
134.973670
 30
0.0
 10
69.936143
 20
135.651056
 30
0.0
 10
72.883719
 20
139.413846
 30
0.0
 10
72.543923
 20
143.620785
 30
0.0
  0
SPLINE
  5
12d
100
AcDbEntity
  8
Capa_1
 62
3
100
AcDbSpline
 70
8
 71
3
 72
8
 73
4
 74
0
 40
0
 40
0
 40
0
 40
0
 40
1
 40
1
 40
1
 40
1
 10
72.543923
 20
143.620785
 30
0.0
 10
72.204127
 20
147.827724
 30
0.0
 10
68.690856
 20
151.068668
 30
0.0
 10
64.470217
 20
151.068668
 30
0.0
  0
SPLINE
  5
12e
100
AcDbEntity
  8
Capa_1
 62
3
100
AcDbSpline
 70
8
 71
3
 72
8
 73
4
 74
0
 40
0
 40
0
 40
0
 40
0
 40
1
 40
1
 40
1
 40
1
 10
64.470217
 20
151.068668
 30
0.0
 10
60.249577
 20
151.068668
 30
0.0
 10
56.736306
 20
147.827724
 30
0.0
 10
56.396510
 20
143.620785
 30
0.0
  0
SPLINE
  5
12f
100
AcDbEntity
  8
Capa_1
 62
3
100
AcDbSpline
 70
8
 71
3
 72
8
 73
4
 74
0
 40
0
 40
0
 40
0
 40
0
 40
1
 40
1
 40
1
 40
1
 10
56.396510
 20
143.620785
 30
0.0
 10
56.056714
 20
139.413846
 30
0.0
 10
59.004290
 20
135.651056
 30
0.0
 10
63.170217
 20
134.973670
 30
0.0
  0
SPLINE
  5
130
100
AcDbEntity
  8
Capa_1
 62
3
100
AcDbSpline
 70
8
 71
3
 72
8
 73
4
 74
0
 40
0
 40
0
 40
0
 40
0
 40
1
 40
1
 40
1
 40
1
 10
90.770216
 20
134.973670
 30
0.0
 10
94.936143
 20
135.651056
 30
0.0
 10
97.883719
 20
139.413846
 30
0.0
 10
97.543923
 20
143.620785
 30
0.0
  0
SPLINE
  5
131
100
AcDbEntity
  8
Capa_1
 62
3
100
AcDbSpline
 70
8
 71
3
 72
8
 73
4
 74
0
 40
0
 40
0
 40
0
 40
0
 40
1
 40
1
 40
1
 40
1
 10
97.543923
 20
143.620785
 30
0.0
 10
97.204127
 20
147.827724
 30
0.0
 10
93.690856
 20
151.068668
 30
0.0
 10
89.470217
 20
151.068668
 30
0.0
  0
SPLINE
  5
132
100
AcDbEntity
  8
Capa_1
 62
3
100
AcDbSpline
 70
8
 71
3
 72
8
 73
4
 74
0
 40
0
 40
0
 40
0
 40
0
 40
1
 40
1
 40
1
 40
1
 10
89.470217
 20
151.068668
 30
0.0
 10
85.249577
 20
151.068668
 30
0.0
 10
81.736306
 20
147.827724
 30
0.0
 10
81.396510
 20
143.620785
 30
0.0
  0
SPLINE
  5
133
100
AcDbEntity
  8
Capa_1
 62
3
100
AcDbSpline
 70
8
 71
3
 72
8
 73
4
 74
0
 40
0
 40
0
 40
0
 40
0
 40
1
 40
1
 40
1
 40
1
 10
81.396510
 20
143.620785
 30
0.0
 10
81.056714
 20
139.413846
 30
0.0
 10
84.004290
 20
135.651056
 30
0.0
 10
88.170217
 20
134.973670
 30
0.0
  0
SPLINE
  5
134
100
AcDbEntity
  8
Capa_1
 62
3
100
AcDbSpline
 70
8
 71
3
 72
8
 73
4
 74
0
 40
0
 40
0
 40
0
 40
0
 40
1
 40
1
 40
1
 40
1
 10
24.470216
 20
162.468660
 30
0.0
 10
23.365647
 20
162.468659
 30
0.0
 10
22.470218
 20
161.573229
 30
0.0
 10
22.470218
 20
160.468660
 30
0.0
  0
SPLINE
  5
135
100
AcDbEntity
  8
Capa_1
 62
3
100
AcDbSpline
 70
8
 71
3
 72
8
 73
4
 74
0
 40
0
 40
0
 40
0
 40
0
 40
1
 40
1
 40
1
 40
1
 10
105.470210
 20
156.468660
 30
0.0
 10
105.468450
 20
157.019695
 30
0.0
 10
105.021253
 20
157.465466
 30
0.0
 10
104.470215
 20
157.465466
 30
0.0
  0
SPLINE
  5
136
100
AcDbEntity
  8
Capa_1
 62
3
100
AcDbSpline
 70
8
 71
3
 72
8
 73
4
 74
0
 40
0
 40
0
 40
0
 40
0
 40
1
 40
1
 40
1
 40
1
 10
104.470215
 20
157.465466
 30
0.0
 10
103.919177
 20
157.465466
 30
0.0
 10
103.471980
 20
157.019695
 30
0.0
 10
103.470220
 20
156.468660
 30
0.0
  0
SPLINE
  5
137
100
AcDbEntity
  8
Capa_1
 62
3
100
AcDbSpline
 70
8
 71
3
 72
8
 73
4
 74
0
 40
0
 40
0
 40
0
 40
0
 40
1
 40
1
 40
1
 40
1
 10
103.470220
 20
146.468660
 30
0.0
 10
103.471980
 20
145.917625
 30
0.0
 10
103.919177
 20
145.471854
 30
0.0
 10
104.470215
 20
145.471854
 30
0.0
  0
SPLINE
  5
138
100
AcDbEntity
  8
Capa_1
 62
3
100
AcDbSpline
 70
8
 71
3
 72
8
 73
4
 74
0
 40
0
 40
0
 40
0
 40
0
 40
1
 40
1
 40
1
 40
1
 10
104.470215
 20
145.471854
 30
0.0
 10
105.021253
 20
145.471854
 30
0.0
 10
105.468450
 20
145.917625
 30
0.0
 10
105.470210
 20
146.468660
 30
0.0
  0
SPLINE
  5
139
100
AcDbEntity
  8
Capa_1
 62
3
100
AcDbSpline
 70
8
 71
3
 72
8
 73
4
 74
0
 40
0
 40
0
 40
0
 40
0
 40
1
 40
1
 40
1
 40
1
 10
25.470217
 20
157.218660
 30
0.0
 10
25.470217
 20
157.417573
 30
0.0
 10
25.391199
 20
157.608338
 30
0.0
 10
25.250547
 20
157.748990
 30
0.0
  0
SPLINE
  5
13a
100
AcDbEntity
  8
Capa_1
 62
3
100
AcDbSpline
 70
8
 71
3
 72
8
 73
4
 74
0
 40
0
 40
0
 40
0
 40
0
 40
1
 40
1
 40
1
 40
1
 10
25.250547
 20
157.748990
 30
0.0
 10
25.109894
 20
157.889643
 30
0.0
 10
24.919129
 20
157.968660
 30
0.0
 10
24.720216
 20
157.968660
 30
0.0
  0
SPLINE
  5
13b
100
AcDbEntity
  8
Capa_1
 62
3
100
AcDbSpline
 70
8
 71
3
 72
8
 73
4
 74
0
 40
0
 40
0
 40
0
 40
0
 40
1
 40
1
 40
1
 40
1
 10
22.470218
 20
158.468660
 30
0.0
 10
22.470218
 20
158.192518
 30
0.0
 10
22.694075
 20
157.968661
 30
0.0
 10
22.970217
 20
157.968660
 30
0.0
  0
SPLINE
  5
13c
100
AcDbEntity
  8
Capa_1
 62
3
100
AcDbSpline
 70
8
 71
3
 72
8
 73
4
 74
0
 40
0
 40
0
 40
0
 40
0
 40
1
 40
1
 40
1
 40
1
 10
192.470210
 20
160.468660
 30
0.0
 10
192.470210
 20
161.573226
 30
0.0
 10
191.574786
 20
162.468655
 30
0.0
 10
190.470220
 20
162.468660
 30
0.0
  0
SPLINE
  5
13d
100
AcDbEntity
  8
Capa_1
 62
3
100
AcDbSpline
 70
8
 71
3
 72
8
 73
4
 74
0
 40
0
 40
0
 40
0
 40
0
 40
1
 40
1
 40
1
 40
1
 10
133.470220
 20
156.468660
 30
0.0
 10
133.469615
 20
157.020517
 30
0.0
 10
133.022077
 20
157.467565
 30
0.0
 10
132.470220
 20
157.467565
 30
0.0
  0
SPLINE
  5
13e
100
AcDbEntity
  8
Capa_1
 62
3
100
AcDbSpline
 70
8
 71
3
 72
8
 73
4
 74
0
 40
0
 40
0
 40
0
 40
0
 40
1
 40
1
 40
1
 40
1
 10
132.470220
 20
157.467565
 30
0.0
 10
131.918363
 20
157.467565
 30
0.0
 10
131.470825
 20
157.020517
 30
0.0
 10
131.470220
 20
156.468660
 30
0.0
  0
SPLINE
  5
13f
100
AcDbEntity
  8
Capa_1
 62
3
100
AcDbSpline
 70
8
 71
3
 72
8
 73
4
 74
0
 40
0
 40
0
 40
0
 40
0
 40
1
 40
1
 40
1
 40
1
 10
131.470220
 20
146.468660
 30
0.0
 10
131.470825
 20
145.916803
 30
0.0
 10
131.918363
 20
145.469755
 30
0.0
 10
132.470220
 20
145.469755
 30
0.0
  0
SPLINE
  5
140
100
AcDbEntity
  8
Capa_1
 62
3
100
AcDbSpline
 70
8
 71
3
 72
8
 73
4
 74
0
 40
0
 40
0
 40
0
 40
0
 40
1
 40
1
 40
1
 40
1
 10
132.470220
 20
145.469755
 30
0.0
 10
133.022077
 20
145.469755
 30
0.0
 10
133.469615
 20
145.916803
 30
0.0
 10
133.470220
 20
146.468660
 30
0.0
  0
SPLINE
  5
141
100
AcDbEntity
  8
Capa_1
 62
3
100
AcDbSpline
 70
8
 71
3
 72
8
 73
4
 74
0
 40
0
 40
0
 40
0
 40
0
 40
1
 40
1
 40
1
 40
1
 10
129.470220
 20
156.468660
 30
0.0
 10
129.469615
 20
157.020517
 30
0.0
 10
129.022077
 20
157.467565
 30
0.0
 10
128.470220
 20
157.467565
 30
0.0
  0
SPLINE
  5
142
100
AcDbEntity
  8
Capa_1
 62
3
100
AcDbSpline
 70
8
 71
3
 72
8
 73
4
 74
0
 40
0
 40
0
 40
0
 40
0
 40
1
 40
1
 40
1
 40
1
 10
128.470220
 20
157.467565
 30
0.0
 10
127.918363
 20
157.467565
 30
0.0
 10
127.470825
 20
157.020517
 30
0.0
 10
127.470220
 20
156.468660
 30
0.0
  0
SPLINE
  5
143
100
AcDbEntity
  8
Capa_1
 62
3
100
AcDbSpline
 70
8
 71
3
 72
8
 73
4
 74
0
 40
0
 40
0
 40
0
 40
0
 40
1
 40
1
 40
1
 40
1
 10
127.470220
 20
146.468660
 30
0.0
 10
127.470825
 20
145.916803
 30
0.0
 10
127.918363
 20
145.469755
 30
0.0
 10
128.470220
 20
145.469755
 30
0.0
  0
SPLINE
  5
144
100
AcDbEntity
  8
Capa_1
 62
3
100
AcDbSpline
 70
8
 71
3
 72
8
 73
4
 74
0
 40
0
 40
0
 40
0
 40
0
 40
1
 40
1
 40
1
 40
1
 10
128.470220
 20
145.469755
 30
0.0
 10
129.022077
 20
145.469755
 30
0.0
 10
129.469615
 20
145.916803
 30
0.0
 10
129.470220
 20
146.468660
 30
0.0
  0
SPLINE
  5
145
100
AcDbEntity
  8
Capa_1
 62
3
100
AcDbSpline
 70
8
 71
3
 72
8
 73
4
 74
0
 40
0
 40
0
 40
0
 40
0
 40
1
 40
1
 40
1
 40
1
 10
125.470220
 20
156.468660
 30
0.0
 10
125.469615
 20
157.020517
 30
0.0
 10
125.022077
 20
157.467565
 30
0.0
 10
124.470220
 20
157.467565
 30
0.0
  0
SPLINE
  5
146
100
AcDbEntity
  8
Capa_1
 62
3
100
AcDbSpline
 70
8
 71
3
 72
8
 73
4
 74
0
 40
0
 40
0
 40
0
 40
0
 40
1
 40
1
 40
1
 40
1
 10
124.470220
 20
157.467565
 30
0.0
 10
123.918363
 20
157.467565
 30
0.0
 10
123.470825
 20
157.020517
 30
0.0
 10
123.470220
 20
156.468660
 30
0.0
  0
SPLINE
  5
147
100
AcDbEntity
  8
Capa_1
 62
3
100
AcDbSpline
 70
8
 71
3
 72
8
 73
4
 74
0
 40
0
 40
0
 40
0
 40
0
 40
1
 40
1
 40
1
 40
1
 10
123.470220
 20
146.468660
 30
0.0
 10
123.470825
 20
145.916803
 30
0.0
 10
123.918363
 20
145.469755
 30
0.0
 10
124.470220
 20
145.469755
 30
0.0
  0
SPLINE
  5
148
100
AcDbEntity
  8
Capa_1
 62
3
100
AcDbSpline
 70
8
 71
3
 72
8
 73
4
 74
0
 40
0
 40
0
 40
0
 40
0
 40
1
 40
1
 40
1
 40
1
 10
124.470220
 20
145.469755
 30
0.0
 10
125.022077
 20
145.469755
 30
0.0
 10
125.469615
 20
145.916803
 30
0.0
 10
125.470220
 20
146.468660
 30
0.0
  0
SPLINE
  5
149
100
AcDbEntity
  8
Capa_1
 62
3
100
AcDbSpline
 70
8
 71
3
 72
8
 73
4
 74
0
 40
0
 40
0
 40
0
 40
0
 40
1
 40
1
 40
1
 40
1
 10
121.470210
 20
156.468660
 30
0.0
 10
121.468450
 20
157.019695
 30
0.0
 10
121.021253
 20
157.465466
 30
0.0
 10
120.470215
 20
157.465466
 30
0.0
  0
SPLINE
  5
14a
100
AcDbEntity
  8
Capa_1
 62
3
100
AcDbSpline
 70
8
 71
3
 72
8
 73
4
 74
0
 40
0
 40
0
 40
0
 40
0
 40
1
 40
1
 40
1
 40
1
 10
120.470215
 20
157.465466
 30
0.0
 10
119.919177
 20
157.465466
 30
0.0
 10
119.471980
 20
157.019695
 30
0.0
 10
119.470220
 20
156.468660
 30
0.0
  0
SPLINE
  5
14b
100
AcDbEntity
  8
Capa_1
 62
3
100
AcDbSpline
 70
8
 71
3
 72
8
 73
4
 74
0
 40
0
 40
0
 40
0
 40
0
 40
1
 40
1
 40
1
 40
1
 10
119.470220
 20
146.468660
 30
0.0
 10
119.471980
 20
145.917625
 30
0.0
 10
119.919177
 20
145.471854
 30
0.0
 10
120.470215
 20
145.471854
 30
0.0
  0
SPLINE
  5
14c
100
AcDbEntity
  8
Capa_1
 62
3
100
AcDbSpline
 70
8
 71
3
 72
8
 73
4
 74
0
 40
0
 40
0
 40
0
 40
0
 40
1
 40
1
 40
1
 40
1
 10
120.470215
 20
145.471854
 30
0.0
 10
121.021253
 20
145.471854
 30
0.0
 10
121.468450
 20
145.917625
 30
0.0
 10
121.470210
 20
146.468660
 30
0.0
  0
SPLINE
  5
14d
100
AcDbEntity
  8
Capa_1
 62
3
100
AcDbSpline
 70
8
 71
3
 72
8
 73
4
 74
0
 40
0
 40
0
 40
0
 40
0
 40
1
 40
1
 40
1
 40
1
 10
117.470210
 20
156.468660
 30
0.0
 10
117.468450
 20
157.019695
 30
0.0
 10
117.021253
 20
157.465466
 30
0.0
 10
116.470215
 20
157.465466
 30
0.0
  0
SPLINE
  5
14e
100
AcDbEntity
  8
Capa_1
 62
3
100
AcDbSpline
 70
8
 71
3
 72
8
 73
4
 74
0
 40
0
 40
0
 40
0
 40
0
 40
1
 40
1
 40
1
 40
1
 10
116.470215
 20
157.465466
 30
0.0
 10
115.919177
 20
157.465466
 30
0.0
 10
115.471980
 20
157.019695
 30
0.0
 10
115.470220
 20
156.468660
 30
0.0
  0
SPLINE
  5
14f
100
AcDbEntity
  8
Capa_1
 62
3
100
AcDbSpline
 70
8
 71
3
 72
8
 73
4
 74
0
 40
0
 40
0
 40
0
 40
0
 40
1
 40
1
 40
1
 40
1
 10
115.470220
 20
146.468660
 30
0.0
 10
115.471980
 20
145.917625
 30
0.0
 10
115.919177
 20
145.471854
 30
0.0
 10
116.470215
 20
145.471854
 30
0.0
  0
SPLINE
  5
150
100
AcDbEntity
  8
Capa_1
 62
3
100
AcDbSpline
 70
8
 71
3
 72
8
 73
4
 74
0
 40
0
 40
0
 40
0
 40
0
 40
1
 40
1
 40
1
 40
1
 10
116.470215
 20
145.471854
 30
0.0
 10
117.021253
 20
145.471854
 30
0.0
 10
117.468450
 20
145.917625
 30
0.0
 10
117.470210
 20
146.468660
 30
0.0
  0
SPLINE
  5
151
100
AcDbEntity
  8
Capa_1
 62
3
100
AcDbSpline
 70
8
 71
3
 72
8
 73
4
 74
0
 40
0
 40
0
 40
0
 40
0
 40
1
 40
1
 40
1
 40
1
 10
113.470210
 20
156.468660
 30
0.0
 10
113.468450
 20
157.019695
 30
0.0
 10
113.021253
 20
157.465466
 30
0.0
 10
112.470215
 20
157.465466
 30
0.0
  0
SPLINE
  5
152
100
AcDbEntity
  8
Capa_1
 62
3
100
AcDbSpline
 70
8
 71
3
 72
8
 73
4
 74
0
 40
0
 40
0
 40
0
 40
0
 40
1
 40
1
 40
1
 40
1
 10
112.470215
 20
157.465466
 30
0.0
 10
111.919177
 20
157.465466
 30
0.0
 10
111.471980
 20
157.019695
 30
0.0
 10
111.470220
 20
156.468660
 30
0.0
  0
SPLINE
  5
153
100
AcDbEntity
  8
Capa_1
 62
3
100
AcDbSpline
 70
8
 71
3
 72
8
 73
4
 74
0
 40
0
 40
0
 40
0
 40
0
 40
1
 40
1
 40
1
 40
1
 10
111.470220
 20
146.468660
 30
0.0
 10
111.471980
 20
145.917625
 30
0.0
 10
111.919177
 20
145.471854
 30
0.0
 10
112.470215
 20
145.471854
 30
0.0
  0
SPLINE
  5
154
100
AcDbEntity
  8
Capa_1
 62
3
100
AcDbSpline
 70
8
 71
3
 72
8
 73
4
 74
0
 40
0
 40
0
 40
0
 40
0
 40
1
 40
1
 40
1
 40
1
 10
112.470215
 20
145.471854
 30
0.0
 10
113.021253
 20
145.471854
 30
0.0
 10
113.468450
 20
145.917625
 30
0.0
 10
113.470210
 20
146.468660
 30
0.0
  0
SPLINE
  5
155
100
AcDbEntity
  8
Capa_1
 62
3
100
AcDbSpline
 70
8
 71
3
 72
8
 73
4
 74
0
 40
0
 40
0
 40
0
 40
0
 40
1
 40
1
 40
1
 40
1
 10
109.470210
 20
156.468660
 30
0.0
 10
109.468450
 20
157.019695
 30
0.0
 10
109.021253
 20
157.465466
 30
0.0
 10
108.470215
 20
157.465466
 30
0.0
  0
SPLINE
  5
156
100
AcDbEntity
  8
Capa_1
 62
3
100
AcDbSpline
 70
8
 71
3
 72
8
 73
4
 74
0
 40
0
 40
0
 40
0
 40
0
 40
1
 40
1
 40
1
 40
1
 10
108.470215
 20
157.465466
 30
0.0
 10
107.919177
 20
157.465466
 30
0.0
 10
107.471980
 20
157.019695
 30
0.0
 10
107.470220
 20
156.468660
 30
0.0
  0
SPLINE
  5
157
100
AcDbEntity
  8
Capa_1
 62
3
100
AcDbSpline
 70
8
 71
3
 72
8
 73
4
 74
0
 40
0
 40
0
 40
0
 40
0
 40
1
 40
1
 40
1
 40
1
 10
107.470220
 20
146.468660
 30
0.0
 10
107.471980
 20
145.917625
 30
0.0
 10
107.919177
 20
145.471854
 30
0.0
 10
108.470215
 20
145.471854
 30
0.0
  0
SPLINE
  5
158
100
AcDbEntity
  8
Capa_1
 62
3
100
AcDbSpline
 70
8
 71
3
 72
8
 73
4
 74
0
 40
0
 40
0
 40
0
 40
0
 40
1
 40
1
 40
1
 40
1
 10
108.470215
 20
145.471854
 30
0.0
 10
109.021253
 20
145.471854
 30
0.0
 10
109.468450
 20
145.917625
 30
0.0
 10
109.470210
 20
146.468660
 30
0.0
  0
SPLINE
  5
159
100
AcDbEntity
  8
Capa_1
 62
3
100
AcDbSpline
 70
8
 71
3
 72
8
 73
4
 74
0
 40
0
 40
0
 40
0
 40
0
 40
1
 40
1
 40
1
 40
1
 10
190.220210
 20
157.968660
 30
0.0
 10
189.805996
 20
157.968660
 30
0.0
 10
189.470210
 20
157.632874
 30
0.0
 10
189.470210
 20
157.218660
 30
0.0
  0
SPLINE
  5
15a
100
AcDbEntity
  8
Capa_1
 62
3
100
AcDbSpline
 70
8
 71
3
 72
8
 73
4
 74
0
 40
0
 40
0
 40
0
 40
0
 40
1
 40
1
 40
1
 40
1
 10
191.970220
 20
157.968660
 30
0.0
 10
192.246358
 20
157.968666
 30
0.0
 10
192.470210
 20
158.192522
 30
0.0
 10
192.470210
 20
158.468660
 30
0.0
  0
SPLINE
  5
15b
100
AcDbEntity
  8
Capa_1
 62
3
100
AcDbSpline
 70
8
 71
3
 72
8
 73
4
 74
0
 40
0
 40
0
 40
0
 40
0
 40
1
 40
1
 40
1
 40
1
 10
25.470217
 20
157.218660
 30
0.0
 10
25.470217
 20
157.156460
 30
0.0
 10
25.457887
 20
157.093700
 30
0.0
 10
25.435597
 20
157.035210
 30
0.0
  0
SPLINE
  5
15c
100
AcDbEntity
  8
Capa_1
 62
3
100
AcDbSpline
 70
8
 71
3
 72
8
 73
4
 74
0
 40
0
 40
0
 40
0
 40
0
 40
1
 40
1
 40
1
 40
1
 10
25.435597
 20
157.035210
 30
0.0
 10
25.413267
 20
156.976710
 30
0.0
 10
25.380967
 20
156.922400
 30
0.0
 10
25.342367
 20
156.873290
 30
0.0
  0
SPLINE
  5
15d
100
AcDbEntity
  8
Capa_1
 62
3
100
AcDbSpline
 70
8
 71
3
 72
8
 73
4
 74
0
 40
0
 40
0
 40
0
 40
0
 40
1
 40
1
 40
1
 40
1
 10
25.342367
 20
156.873290
 30
0.0
 10
25.303797
 20
156.824190
 30
0.0
 10
25.258947
 20
156.780290
 30
0.0
 10
25.210316
 20
156.741310
 30
0.0
  0
SPLINE
  5
15e
100
AcDbEntity
  8
Capa_1
 62
3
100
AcDbSpline
 70
8
 71
3
 72
8
 73
4
 74
0
 40
0
 40
0
 40
0
 40
0
 40
1
 40
1
 40
1
 40
1
 10
25.210316
 20
156.741310
 30
0.0
 10
25.161836
 20
156.702410
 30
0.0
 10
25.109600
 20
156.668410
 30
0.0
 10
25.055066
 20
156.638650
 30
0.0
  0
SPLINE
  5
15f
100
AcDbEntity
  8
Capa_1
 62
3
100
AcDbSpline
 70
8
 71
3
 72
8
 73
4
 74
0
 40
0
 40
0
 40
0
 40
0
 40
1
 40
1
 40
1
 40
1
 10
25.055066
 20
156.638650
 30
0.0
 10
24.947669
 20
156.580050
 30
0.0
 10
24.831374
 20
156.537800
 30
0.0
 10
24.711942
 20
156.509730
 30
0.0
  0
SPLINE
  5
160
100
AcDbEntity
  8
Capa_1
 62
3
100
AcDbSpline
 70
8
 71
3
 72
8
 73
4
 74
0
 40
0
 40
0
 40
0
 40
0
 40
1
 40
1
 40
1
 40
1
 10
24.711942
 20
156.509730
 30
0.0
 10
24.596321
 20
156.482530
 30
0.0
 10
24.477761
 20
156.468630
 30
0.0
 10
24.359482
 20
156.468630
 30
0.0
  0
SPLINE
  5
161
100
AcDbEntity
  8
Capa_1
 62
3
100
AcDbSpline
 70
8
 71
3
 72
8
 73
4
 74
0
 40
0
 40
0
 40
0
 40
0
 40
1
 40
1
 40
1
 40
1
 10
25.470217
 20
114.718660
 30
0.0
 10
25.470217
 20
114.780860
 30
0.0
 10
25.457887
 20
114.843630
 30
0.0
 10
25.435597
 20
114.902120
 30
0.0
  0
SPLINE
  5
162
100
AcDbEntity
  8
Capa_1
 62
3
100
AcDbSpline
 70
8
 71
3
 72
8
 73
4
 74
0
 40
0
 40
0
 40
0
 40
0
 40
1
 40
1
 40
1
 40
1
 10
25.435597
 20
114.902120
 30
0.0
 10
25.413267
 20
114.960620
 30
0.0
 10
25.380967
 20
115.014930
 30
0.0
 10
25.342367
 20
115.064030
 30
0.0
  0
SPLINE
  5
163
100
AcDbEntity
  8
Capa_1
 62
3
100
AcDbSpline
 70
8
 71
3
 72
8
 73
4
 74
0
 40
0
 40
0
 40
0
 40
0
 40
1
 40
1
 40
1
 40
1
 10
25.342367
 20
115.064030
 30
0.0
 10
25.303797
 20
115.113130
 30
0.0
 10
25.258947
 20
115.157030
 30
0.0
 10
25.210316
 20
115.196020
 30
0.0
  0
SPLINE
  5
164
100
AcDbEntity
  8
Capa_1
 62
3
100
AcDbSpline
 70
8
 71
3
 72
8
 73
4
 74
0
 40
0
 40
0
 40
0
 40
0
 40
1
 40
1
 40
1
 40
1
 10
25.210316
 20
115.196020
 30
0.0
 10
25.161836
 20
115.234920
 30
0.0
 10
25.109600
 20
115.268920
 30
0.0
 10
25.055066
 20
115.298680
 30
0.0
  0
SPLINE
  5
165
100
AcDbEntity
  8
Capa_1
 62
3
100
AcDbSpline
 70
8
 71
3
 72
8
 73
4
 74
0
 40
0
 40
0
 40
0
 40
0
 40
1
 40
1
 40
1
 40
1
 10
25.055066
 20
115.298680
 30
0.0
 10
24.947669
 20
115.357280
 30
0.0
 10
24.831374
 20
115.399530
 30
0.0
 10
24.711942
 20
115.427600
 30
0.0
  0
SPLINE
  5
166
100
AcDbEntity
  8
Capa_1
 62
3
100
AcDbSpline
 70
8
 71
3
 72
8
 73
4
 74
0
 40
0
 40
0
 40
0
 40
0
 40
1
 40
1
 40
1
 40
1
 10
24.711942
 20
115.427600
 30
0.0
 10
24.596321
 20
115.454800
 30
0.0
 10
24.477761
 20
115.468700
 30
0.0
 10
24.359482
 20
115.468700
 30
0.0
  0
SPLINE
  5
167
100
AcDbEntity
  8
Capa_1
 62
3
100
AcDbSpline
 70
8
 71
3
 72
8
 73
4
 74
0
 40
0
 40
0
 40
0
 40
0
 40
1
 40
1
 40
1
 40
1
 10
189.470210
 20
157.218660
 30
0.0
 10
189.470210
 20
157.156460
 30
0.0
 10
189.482510
 20
157.093700
 30
0.0
 10
189.504810
 20
157.035210
 30
0.0
  0
SPLINE
  5
168
100
AcDbEntity
  8
Capa_1
 62
3
100
AcDbSpline
 70
8
 71
3
 72
8
 73
4
 74
0
 40
0
 40
0
 40
0
 40
0
 40
1
 40
1
 40
1
 40
1
 10
189.504810
 20
157.035210
 30
0.0
 10
189.527110
 20
156.976710
 30
0.0
 10
189.559410
 20
156.922400
 30
0.0
 10
189.598010
 20
156.873290
 30
0.0
  0
SPLINE
  5
169
100
AcDbEntity
  8
Capa_1
 62
3
100
AcDbSpline
 70
8
 71
3
 72
8
 73
4
 74
0
 40
0
 40
0
 40
0
 40
0
 40
1
 40
1
 40
1
 40
1
 10
189.598010
 20
156.873290
 30
0.0
 10
189.636610
 20
156.824190
 30
0.0
 10
189.681410
 20
156.780290
 30
0.0
 10
189.730060
 20
156.741310
 30
0.0
  0
SPLINE
  5
16a
100
AcDbEntity
  8
Capa_1
 62
3
100
AcDbSpline
 70
8
 71
3
 72
8
 73
4
 74
0
 40
0
 40
0
 40
0
 40
0
 40
1
 40
1
 40
1
 40
1
 10
189.730060
 20
156.741310
 30
0.0
 10
189.778560
 20
156.702410
 30
0.0
 10
189.830770
 20
156.668410
 30
0.0
 10
189.885310
 20
156.638650
 30
0.0
  0
SPLINE
  5
16b
100
AcDbEntity
  8
Capa_1
 62
3
100
AcDbSpline
 70
8
 71
3
 72
8
 73
4
 74
0
 40
0
 40
0
 40
0
 40
0
 40
1
 40
1
 40
1
 40
1
 10
189.885310
 20
156.638650
 30
0.0
 10
189.992700
 20
156.580050
 30
0.0
 10
190.109000
 20
156.537800
 30
0.0
 10
190.228430
 20
156.509730
 30
0.0
  0
SPLINE
  5
16c
100
AcDbEntity
  8
Capa_1
 62
3
100
AcDbSpline
 70
8
 71
3
 72
8
 73
4
 74
0
 40
0
 40
0
 40
0
 40
0
 40
1
 40
1
 40
1
 40
1
 10
190.228430
 20
156.509730
 30
0.0
 10
190.344050
 20
156.482530
 30
0.0
 10
190.462610
 20
156.468630
 30
0.0
 10
190.580890
 20
156.468630
 30
0.0
  0
LWPOLYLINE
  5
16d
100
AcDbEntity
  8
Capa_1
 62
3
100
AcDbPolyline
 90
2
 70
0
 10
192.470210
 20
158.468660
 30
0.0
 10
192.470210
 20
160.468660
 30
0.0
  0
LWPOLYLINE
  5
16e
100
AcDbEntity
  8
Capa_1
 62
3
100
AcDbPolyline
 90
2
 70
0
 10
119.668600
 20
115.568660
 30
0.0
 10
114.171830
 20
115.568660
 30
0.0
  0
LWPOLYLINE
  5
16f
100
AcDbEntity
  8
Capa_1
 62
3
100
AcDbPolyline
 90
2
 70
0
 10
144.418300
 20
115.968660
 30
0.0
 10
132.222120
 20
115.968660
 30
0.0
  0
LWPOLYLINE
  5
170
100
AcDbEntity
  8
Capa_1
 62
3
100
AcDbPolyline
 90
2
 70
0
 10
113.620210
 20
119.418660
 30
0.0
 10
120.220220
 20
119.418660
 30
0.0
  0
LWPOLYLINE
  5
171
100
AcDbEntity
  8
Capa_1
 62
3
100
AcDbPolyline
 90
2
 70
0
 10
131.570210
 20
123.148660
 30
0.0
 10
145.070220
 20
123.148660
 30
0.0
  0
LWPOLYLINE
  5
172
100
AcDbEntity
  8
Capa_1
 62
3
100
AcDbPolyline
 90
2
 70
0
 10
113.323300
 20
115.920140
 30
0.0
 10
112.771690
 20
116.471750
 30
0.0
  0
LWPOLYLINE
  5
173
100
AcDbEntity
  8
Capa_1
 62
3
100
AcDbPolyline
 90
2
 70
0
 10
131.257950
 20
116.319600
 30
0.0
 10
130.606030
 20
116.866610
 30
0.0
  0
LWPOLYLINE
  5
174
100
AcDbEntity
  8
Capa_1
 62
3
100
AcDbPolyline
 90
2
 70
0
 10
112.420220
 20
117.320280
 30
0.0
 10
112.420220
 20
118.218660
 30
0.0
  0
LWPOLYLINE
  5
175
100
AcDbEntity
  8
Capa_1
 62
3
100
AcDbPolyline
 90
2
 70
0
 10
121.420220
 20
118.218660
 30
0.0
 10
121.420220
 20
117.320280
 30
0.0
  0
LWPOLYLINE
  5
176
100
AcDbEntity
  8
Capa_1
 62
3
100
AcDbPolyline
 90
2
 70
0
 10
130.070210
 20
118.015680
 30
0.0
 10
130.070210
 20
121.648660
 30
0.0
  0
LWPOLYLINE
  5
177
100
AcDbEntity
  8
Capa_1
 62
3
100
AcDbPolyline
 90
2
 70
0
 10
121.068740
 20
116.471750
 30
0.0
 10
120.517130
 20
115.920140
 30
0.0
  0
LWPOLYLINE
  5
178
100
AcDbEntity
  8
Capa_1
 62
3
100
AcDbPolyline
 90
2
 70
0
 10
146.570220
 20
121.648660
 30
0.0
 10
146.570220
 20
118.015680
 30
0.0
  0
SPLINE
  5
179
100
AcDbEntity
  8
Capa_1
 62
3
100
AcDbSpline
 70
8
 71
3
 72
8
 73
4
 74
0
 40
0
 40
0
 40
0
 40
0
 40
1
 40
1
 40
1
 40
1
 10
44.220216
 20
117.718660
 30
0.0
 10
44.220216
 20
119.594304
 30
0.0
 10
43.219572
 20
121.327471
 30
0.0
 10
41.595216
 20
122.265293
 30
0.0
  0
SPLINE
  5
17a
100
AcDbEntity
  8
Capa_1
 62
3
100
AcDbSpline
 70
8
 71
3
 72
8
 73
4
 74
0
 40
0
 40
0
 40
0
 40
0
 40
1
 40
1
 40
1
 40
1
 10
41.595216
 20
122.265293
 30
0.0
 10
39.970860
 20
123.203116
 30
0.0
 10
37.969572
 20
123.203116
 30
0.0
 10
36.345216
 20
122.265293
 30
0.0
  0
SPLINE
  5
17b
100
AcDbEntity
  8
Capa_1
 62
3
100
AcDbSpline
 70
8
 71
3
 72
8
 73
4
 74
0
 40
0
 40
0
 40
0
 40
0
 40
1
 40
1
 40
1
 40
1
 10
36.345216
 20
122.265293
 30
0.0
 10
34.720860
 20
121.327471
 30
0.0
 10
33.720216
 20
119.594304
 30
0.0
 10
33.720216
 20
117.718660
 30
0.0
  0
SPLINE
  5
17c
100
AcDbEntity
  8
Capa_1
 62
3
100
AcDbSpline
 70
8
 71
3
 72
8
 73
4
 74
0
 40
0
 40
0
 40
0
 40
0
 40
1
 40
1
 40
1
 40
1
 10
33.720216
 20
117.718660
 30
0.0
 10
33.720216
 20
115.843016
 30
0.0
 10
34.720860
 20
114.109849
 30
0.0
 10
36.345216
 20
113.172027
 30
0.0
  0
SPLINE
  5
17d
100
AcDbEntity
  8
Capa_1
 62
3
100
AcDbSpline
 70
8
 71
3
 72
8
 73
4
 74
0
 40
0
 40
0
 40
0
 40
0
 40
1
 40
1
 40
1
 40
1
 10
36.345216
 20
113.172027
 30
0.0
 10
37.969572
 20
112.234204
 30
0.0
 10
39.970860
 20
112.234204
 30
0.0
 10
41.595216
 20
113.172027
 30
0.0
  0
SPLINE
  5
17e
100
AcDbEntity
  8
Capa_1
 62
3
100
AcDbSpline
 70
8
 71
3
 72
8
 73
4
 74
0
 40
0
 40
0
 40
0
 40
0
 40
1
 40
1
 40
1
 40
1
 10
41.595216
 20
113.172027
 30
0.0
 10
43.219572
 20
114.109849
 30
0.0
 10
44.220216
 20
115.843016
 30
0.0
 10
44.220216
 20
117.718660
 30
0.0
  0
LWPOLYLINE
  5
17f
100
AcDbEntity
  8
Capa_1
 62
3
100
AcDbPolyline
 90
2
 70
0
 10
146.034400
 20
116.866610
 30
0.0
 10
145.382490
 20
116.319600
 30
0.0
  0
SPLINE
  5
180
100
AcDbEntity
  8
Capa_1
 62
3
100
AcDbSpline
 70
8
 71
3
 72
8
 73
4
 74
0
 40
0
 40
0
 40
0
 40
0
 40
1
 40
1
 40
1
 40
1
 10
61.720215
 20
117.718660
 30
0.0
 10
61.720215
 20
119.594304
 30
0.0
 10
60.719571
 20
121.327471
 30
0.0
 10
59.095215
 20
122.265293
 30
0.0
  0
SPLINE
  5
181
100
AcDbEntity
  8
Capa_1
 62
3
100
AcDbSpline
 70
8
 71
3
 72
8
 73
4
 74
0
 40
0
 40
0
 40
0
 40
0
 40
1
 40
1
 40
1
 40
1
 10
59.095215
 20
122.265293
 30
0.0
 10
57.470859
 20
123.203116
 30
0.0
 10
55.469571
 20
123.203116
 30
0.0
 10
53.845215
 20
122.265293
 30
0.0
  0
SPLINE
  5
182
100
AcDbEntity
  8
Capa_1
 62
3
100
AcDbSpline
 70
8
 71
3
 72
8
 73
4
 74
0
 40
0
 40
0
 40
0
 40
0
 40
1
 40
1
 40
1
 40
1
 10
53.845215
 20
122.265293
 30
0.0
 10
52.220859
 20
121.327471
 30
0.0
 10
51.220215
 20
119.594304
 30
0.0
 10
51.220215
 20
117.718660
 30
0.0
  0
SPLINE
  5
183
100
AcDbEntity
  8
Capa_1
 62
3
100
AcDbSpline
 70
8
 71
3
 72
8
 73
4
 74
0
 40
0
 40
0
 40
0
 40
0
 40
1
 40
1
 40
1
 40
1
 10
51.220215
 20
117.718660
 30
0.0
 10
51.220215
 20
115.843016
 30
0.0
 10
52.220859
 20
114.109849
 30
0.0
 10
53.845215
 20
113.172027
 30
0.0
  0
SPLINE
  5
184
100
AcDbEntity
  8
Capa_1
 62
3
100
AcDbSpline
 70
8
 71
3
 72
8
 73
4
 74
0
 40
0
 40
0
 40
0
 40
0
 40
1
 40
1
 40
1
 40
1
 10
53.845215
 20
113.172027
 30
0.0
 10
55.469571
 20
112.234204
 30
0.0
 10
57.470859
 20
112.234204
 30
0.0
 10
59.095215
 20
113.172027
 30
0.0
  0
SPLINE
  5
185
100
AcDbEntity
  8
Capa_1
 62
3
100
AcDbSpline
 70
8
 71
3
 72
8
 73
4
 74
0
 40
0
 40
0
 40
0
 40
0
 40
1
 40
1
 40
1
 40
1
 10
59.095215
 20
113.172027
 30
0.0
 10
60.719571
 20
114.109849
 30
0.0
 10
61.720215
 20
115.843016
 30
0.0
 10
61.720215
 20
117.718660
 30
0.0
  0
LWPOLYLINE
  5
186
100
AcDbEntity
  8
Capa_1
 62
3
100
AcDbPolyline
 90
1
 70
1
 10
44.220216
 20
117.718660
 30
0.0
  0
SPLINE
  5
187
100
AcDbEntity
  8
Capa_1
 62
3
100
AcDbSpline
 70
8
 71
3
 72
8
 73
4
 74
0
 40
0
 40
0
 40
0
 40
0
 40
1
 40
1
 40
1
 40
1
 10
79.220217
 20
117.718660
 30
0.0
 10
79.220217
 20
119.594304
 30
0.0
 10
78.219573
 20
121.327471
 30
0.0
 10
76.595217
 20
122.265293
 30
0.0
  0
SPLINE
  5
188
100
AcDbEntity
  8
Capa_1
 62
3
100
AcDbSpline
 70
8
 71
3
 72
8
 73
4
 74
0
 40
0
 40
0
 40
0
 40
0
 40
1
 40
1
 40
1
 40
1
 10
76.595217
 20
122.265293
 30
0.0
 10
74.970861
 20
123.203116
 30
0.0
 10
72.969573
 20
123.203116
 30
0.0
 10
71.345217
 20
122.265293
 30
0.0
  0
SPLINE
  5
189
100
AcDbEntity
  8
Capa_1
 62
3
100
AcDbSpline
 70
8
 71
3
 72
8
 73
4
 74
0
 40
0
 40
0
 40
0
 40
0
 40
1
 40
1
 40
1
 40
1
 10
71.345217
 20
122.265293
 30
0.0
 10
69.720861
 20
121.327471
 30
0.0
 10
68.720217
 20
119.594304
 30
0.0
 10
68.720217
 20
117.718660
 30
0.0
  0
SPLINE
  5
18a
100
AcDbEntity
  8
Capa_1
 62
3
100
AcDbSpline
 70
8
 71
3
 72
8
 73
4
 74
0
 40
0
 40
0
 40
0
 40
0
 40
1
 40
1
 40
1
 40
1
 10
68.720217
 20
117.718660
 30
0.0
 10
68.720217
 20
115.843016
 30
0.0
 10
69.720861
 20
114.109849
 30
0.0
 10
71.345217
 20
113.172027
 30
0.0
  0
SPLINE
  5
18b
100
AcDbEntity
  8
Capa_1
 62
3
100
AcDbSpline
 70
8
 71
3
 72
8
 73
4
 74
0
 40
0
 40
0
 40
0
 40
0
 40
1
 40
1
 40
1
 40
1
 10
71.345217
 20
113.172027
 30
0.0
 10
72.969573
 20
112.234204
 30
0.0
 10
74.970861
 20
112.234204
 30
0.0
 10
76.595217
 20
113.172027
 30
0.0
  0
SPLINE
  5
18c
100
AcDbEntity
  8
Capa_1
 62
3
100
AcDbSpline
 70
8
 71
3
 72
8
 73
4
 74
0
 40
0
 40
0
 40
0
 40
0
 40
1
 40
1
 40
1
 40
1
 10
76.595217
 20
113.172027
 30
0.0
 10
78.219573
 20
114.109849
 30
0.0
 10
79.220217
 20
115.843016
 30
0.0
 10
79.220217
 20
117.718660
 30
0.0
  0
LWPOLYLINE
  5
18d
100
AcDbEntity
  8
Capa_1
 62
3
100
AcDbPolyline
 90
1
 70
1
 10
61.720215
 20
117.718660
 30
0.0
  0
SPLINE
  5
18e
100
AcDbEntity
  8
Capa_1
 62
3
100
AcDbSpline
 70
8
 71
3
 72
8
 73
4
 74
0
 40
0
 40
0
 40
0
 40
0
 40
1
 40
1
 40
1
 40
1
 10
48.470215
 20
155.968660
 30
0.0
 10
48.470769
 20
156.683560
 30
0.0
 10
48.089692
 20
157.344392
 30
0.0
 10
47.470663
 20
157.702002
 30
0.0
  0
SPLINE
  5
18f
100
AcDbEntity
  8
Capa_1
 62
3
100
AcDbSpline
 70
8
 71
3
 72
8
 73
4
 74
0
 40
0
 40
0
 40
0
 40
0
 40
1
 40
1
 40
1
 40
1
 10
47.470663
 20
157.702002
 30
0.0
 10
46.851633
 20
158.059612
 30
0.0
 10
46.088798
 20
158.059612
 30
0.0
 10
45.469768
 20
157.702002
 30
0.0
  0
SPLINE
  5
190
100
AcDbEntity
  8
Capa_1
 62
3
100
AcDbSpline
 70
8
 71
3
 72
8
 73
4
 74
0
 40
0
 40
0
 40
0
 40
0
 40
1
 40
1
 40
1
 40
1
 10
45.469768
 20
157.702002
 30
0.0
 10
44.850739
 20
157.344392
 30
0.0
 10
44.469662
 20
156.683560
 30
0.0
 10
44.470216
 20
155.968660
 30
0.0
  0
SPLINE
  5
191
100
AcDbEntity
  8
Capa_1
 62
3
100
AcDbSpline
 70
8
 71
3
 72
8
 73
4
 74
0
 40
0
 40
0
 40
0
 40
0
 40
1
 40
1
 40
1
 40
1
 10
44.470216
 20
155.968660
 30
0.0
 10
44.469662
 20
155.253760
 30
0.0
 10
44.850739
 20
154.592928
 30
0.0
 10
45.469768
 20
154.235318
 30
0.0
  0
SPLINE
  5
192
100
AcDbEntity
  8
Capa_1
 62
3
100
AcDbSpline
 70
8
 71
3
 72
8
 73
4
 74
0
 40
0
 40
0
 40
0
 40
0
 40
1
 40
1
 40
1
 40
1
 10
45.469768
 20
154.235318
 30
0.0
 10
46.088798
 20
153.877708
 30
0.0
 10
46.851633
 20
153.877708
 30
0.0
 10
47.470663
 20
154.235318
 30
0.0
  0
SPLINE
  5
193
100
AcDbEntity
  8
Capa_1
 62
3
100
AcDbSpline
 70
8
 71
3
 72
8
 73
4
 74
0
 40
0
 40
0
 40
0
 40
0
 40
1
 40
1
 40
1
 40
1
 10
47.470663
 20
154.235318
 30
0.0
 10
48.089692
 20
154.592928
 30
0.0
 10
48.470769
 20
155.253760
 30
0.0
 10
48.470215
 20
155.968660
 30
0.0
  0
LWPOLYLINE
  5
194
100
AcDbEntity
  8
Capa_1
 62
3
100
AcDbPolyline
 90
1
 70
1
 10
79.220217
 20
117.718660
 30
0.0
  0
SPLINE
  5
195
100
AcDbEntity
  8
Capa_1
 62
3
100
AcDbSpline
 70
8
 71
3
 72
8
 73
4
 74
0
 40
0
 40
0
 40
0
 40
0
 40
1
 40
1
 40
1
 40
1
 10
73.470215
 20
155.968660
 30
0.0
 10
73.470769
 20
156.683560
 30
0.0
 10
73.089692
 20
157.344392
 30
0.0
 10
72.470663
 20
157.702002
 30
0.0
  0
SPLINE
  5
196
100
AcDbEntity
  8
Capa_1
 62
3
100
AcDbSpline
 70
8
 71
3
 72
8
 73
4
 74
0
 40
0
 40
0
 40
0
 40
0
 40
1
 40
1
 40
1
 40
1
 10
72.470663
 20
157.702002
 30
0.0
 10
71.851633
 20
158.059612
 30
0.0
 10
71.088798
 20
158.059612
 30
0.0
 10
70.469768
 20
157.702002
 30
0.0
  0
SPLINE
  5
197
100
AcDbEntity
  8
Capa_1
 62
3
100
AcDbSpline
 70
8
 71
3
 72
8
 73
4
 74
0
 40
0
 40
0
 40
0
 40
0
 40
1
 40
1
 40
1
 40
1
 10
70.469768
 20
157.702002
 30
0.0
 10
69.850739
 20
157.344392
 30
0.0
 10
69.469662
 20
156.683560
 30
0.0
 10
69.470216
 20
155.968660
 30
0.0
  0
SPLINE
  5
198
100
AcDbEntity
  8
Capa_1
 62
3
100
AcDbSpline
 70
8
 71
3
 72
8
 73
4
 74
0
 40
0
 40
0
 40
0
 40
0
 40
1
 40
1
 40
1
 40
1
 10
69.470216
 20
155.968660
 30
0.0
 10
69.469662
 20
155.253760
 30
0.0
 10
69.850739
 20
154.592928
 30
0.0
 10
70.469768
 20
154.235318
 30
0.0
  0
SPLINE
  5
199
100
AcDbEntity
  8
Capa_1
 62
3
100
AcDbSpline
 70
8
 71
3
 72
8
 73
4
 74
0
 40
0
 40
0
 40
0
 40
0
 40
1
 40
1
 40
1
 40
1
 10
70.469768
 20
154.235318
 30
0.0
 10
71.088798
 20
153.877708
 30
0.0
 10
71.851633
 20
153.877708
 30
0.0
 10
72.470663
 20
154.235318
 30
0.0
  0
SPLINE
  5
19a
100
AcDbEntity
  8
Capa_1
 62
3
100
AcDbSpline
 70
8
 71
3
 72
8
 73
4
 74
0
 40
0
 40
0
 40
0
 40
0
 40
1
 40
1
 40
1
 40
1
 10
72.470663
 20
154.235318
 30
0.0
 10
73.089692
 20
154.592928
 30
0.0
 10
73.470769
 20
155.253760
 30
0.0
 10
73.470215
 20
155.968660
 30
0.0
  0
LWPOLYLINE
  5
19b
100
AcDbEntity
  8
Capa_1
 62
3
100
AcDbPolyline
 90
1
 70
1
 10
48.470215
 20
155.968660
 30
0.0
  0
SPLINE
  5
19c
100
AcDbEntity
  8
Capa_1
 62
3
100
AcDbSpline
 70
8
 71
3
 72
8
 73
4
 74
0
 40
0
 40
0
 40
0
 40
0
 40
1
 40
1
 40
1
 40
1
 10
98.470215
 20
155.968660
 30
0.0
 10
98.470769
 20
156.683560
 30
0.0
 10
98.089692
 20
157.344392
 30
0.0
 10
97.470663
 20
157.702002
 30
0.0
  0
SPLINE
  5
19d
100
AcDbEntity
  8
Capa_1
 62
3
100
AcDbSpline
 70
8
 71
3
 72
8
 73
4
 74
0
 40
0
 40
0
 40
0
 40
0
 40
1
 40
1
 40
1
 40
1
 10
97.470663
 20
157.702002
 30
0.0
 10
96.851633
 20
158.059612
 30
0.0
 10
96.088798
 20
158.059612
 30
0.0
 10
95.469768
 20
157.702002
 30
0.0
  0
SPLINE
  5
19e
100
AcDbEntity
  8
Capa_1
 62
3
100
AcDbSpline
 70
8
 71
3
 72
8
 73
4
 74
0
 40
0
 40
0
 40
0
 40
0
 40
1
 40
1
 40
1
 40
1
 10
95.469768
 20
157.702002
 30
0.0
 10
94.850739
 20
157.344392
 30
0.0
 10
94.469662
 20
156.683560
 30
0.0
 10
94.470216
 20
155.968660
 30
0.0
  0
SPLINE
  5
19f
100
AcDbEntity
  8
Capa_1
 62
3
100
AcDbSpline
 70
8
 71
3
 72
8
 73
4
 74
0
 40
0
 40
0
 40
0
 40
0
 40
1
 40
1
 40
1
 40
1
 10
94.470216
 20
155.968660
 30
0.0
 10
94.469662
 20
155.253760
 30
0.0
 10
94.850739
 20
154.592928
 30
0.0
 10
95.469768
 20
154.235318
 30
0.0
  0
SPLINE
  5
1a0
100
AcDbEntity
  8
Capa_1
 62
3
100
AcDbSpline
 70
8
 71
3
 72
8
 73
4
 74
0
 40
0
 40
0
 40
0
 40
0
 40
1
 40
1
 40
1
 40
1
 10
95.469768
 20
154.235318
 30
0.0
 10
96.088798
 20
153.877708
 30
0.0
 10
96.851633
 20
153.877708
 30
0.0
 10
97.470663
 20
154.235318
 30
0.0
  0
SPLINE
  5
1a1
100
AcDbEntity
  8
Capa_1
 62
3
100
AcDbSpline
 70
8
 71
3
 72
8
 73
4
 74
0
 40
0
 40
0
 40
0
 40
0
 40
1
 40
1
 40
1
 40
1
 10
97.470663
 20
154.235318
 30
0.0
 10
98.089692
 20
154.592928
 30
0.0
 10
98.470769
 20
155.253760
 30
0.0
 10
98.470215
 20
155.968660
 30
0.0
  0
LWPOLYLINE
  5
1a2
100
AcDbEntity
  8
Capa_1
 62
3
100
AcDbPolyline
 90
1
 70
1
 10
73.470215
 20
155.968660
 30
0.0
  0
SPLINE
  5
1a3
100
AcDbEntity
  8
Capa_1
 62
3
100
AcDbSpline
 70
8
 71
3
 72
8
 73
4
 74
0
 40
0
 40
0
 40
0
 40
0
 40
1
 40
1
 40
1
 40
1
 10
163.470210
 20
119.268660
 30
0.0
 10
163.470515
 20
120.572883
 30
0.0
 10
162.774896
 20
121.778165
 30
0.0
 10
161.645457
 20
122.430365
 30
0.0
  0
SPLINE
  5
1a4
100
AcDbEntity
  8
Capa_1
 62
3
100
AcDbSpline
 70
8
 71
3
 72
8
 73
4
 74
0
 40
0
 40
0
 40
0
 40
0
 40
1
 40
1
 40
1
 40
1
 10
161.645457
 20
122.430365
 30
0.0
 10
160.516017
 20
123.082564
 30
0.0
 10
159.124403
 20
123.082564
 30
0.0
 10
157.994963
 20
122.430365
 30
0.0
  0
SPLINE
  5
1a5
100
AcDbEntity
  8
Capa_1
 62
3
100
AcDbSpline
 70
8
 71
3
 72
8
 73
4
 74
0
 40
0
 40
0
 40
0
 40
0
 40
1
 40
1
 40
1
 40
1
 10
157.994963
 20
122.430365
 30
0.0
 10
156.865524
 20
121.778165
 30
0.0
 10
156.169905
 20
120.572883
 30
0.0
 10
156.170210
 20
119.268660
 30
0.0
  0
SPLINE
  5
1a6
100
AcDbEntity
  8
Capa_1
 62
3
100
AcDbSpline
 70
8
 71
3
 72
8
 73
4
 74
0
 40
0
 40
0
 40
0
 40
0
 40
1
 40
1
 40
1
 40
1
 10
156.170210
 20
119.268660
 30
0.0
 10
156.169905
 20
117.964437
 30
0.0
 10
156.865524
 20
116.759155
 30
0.0
 10
157.994963
 20
116.106955
 30
0.0
  0
SPLINE
  5
1a7
100
AcDbEntity
  8
Capa_1
 62
3
100
AcDbSpline
 70
8
 71
3
 72
8
 73
4
 74
0
 40
0
 40
0
 40
0
 40
0
 40
1
 40
1
 40
1
 40
1
 10
157.994963
 20
116.106955
 30
0.0
 10
159.124403
 20
115.454756
 30
0.0
 10
160.516017
 20
115.454756
 30
0.0
 10
161.645457
 20
116.106955
 30
0.0
  0
SPLINE
  5
1a8
100
AcDbEntity
  8
Capa_1
 62
3
100
AcDbSpline
 70
8
 71
3
 72
8
 73
4
 74
0
 40
0
 40
0
 40
0
 40
0
 40
1
 40
1
 40
1
 40
1
 10
161.645457
 20
116.106955
 30
0.0
 10
162.774896
 20
116.759155
 30
0.0
 10
163.470515
 20
117.964437
 30
0.0
 10
163.470210
 20
119.268660
 30
0.0
  0
LWPOLYLINE
  5
1a9
100
AcDbEntity
  8
Capa_1
 62
3
100
AcDbPolyline
 90
1
 70
1
 10
98.470215
 20
155.968660
 30
0.0
  0
SPLINE
  5
1aa
100
AcDbEntity
  8
Capa_1
 62
3
100
AcDbSpline
 70
8
 71
3
 72
8
 73
4
 74
0
 40
0
 40
0
 40
0
 40
0
 40
1
 40
1
 40
1
 40
1
 10
126.520220
 20
132.217660
 30
0.0
 10
126.520525
 20
133.521883
 30
0.0
 10
125.824906
 20
134.727165
 30
0.0
 10
124.695467
 20
135.379365
 30
0.0
  0
SPLINE
  5
1ab
100
AcDbEntity
  8
Capa_1
 62
3
100
AcDbSpline
 70
8
 71
3
 72
8
 73
4
 74
0
 40
0
 40
0
 40
0
 40
0
 40
1
 40
1
 40
1
 40
1
 10
124.695467
 20
135.379365
 30
0.0
 10
123.566027
 20
136.031564
 30
0.0
 10
122.174413
 20
136.031564
 30
0.0
 10
121.044973
 20
135.379365
 30
0.0
  0
SPLINE
  5
1ac
100
AcDbEntity
  8
Capa_1
 62
3
100
AcDbSpline
 70
8
 71
3
 72
8
 73
4
 74
0
 40
0
 40
0
 40
0
 40
0
 40
1
 40
1
 40
1
 40
1
 10
121.044973
 20
135.379365
 30
0.0
 10
119.915534
 20
134.727165
 30
0.0
 10
119.219915
 20
133.521883
 30
0.0
 10
119.220220
 20
132.217660
 30
0.0
  0
SPLINE
  5
1ad
100
AcDbEntity
  8
Capa_1
 62
3
100
AcDbSpline
 70
8
 71
3
 72
8
 73
4
 74
0
 40
0
 40
0
 40
0
 40
0
 40
1
 40
1
 40
1
 40
1
 10
119.220220
 20
132.217660
 30
0.0
 10
119.219915
 20
130.913437
 30
0.0
 10
119.915534
 20
129.708155
 30
0.0
 10
121.044973
 20
129.055955
 30
0.0
  0
SPLINE
  5
1ae
100
AcDbEntity
  8
Capa_1
 62
3
100
AcDbSpline
 70
8
 71
3
 72
8
 73
4
 74
0
 40
0
 40
0
 40
0
 40
0
 40
1
 40
1
 40
1
 40
1
 10
121.044973
 20
129.055955
 30
0.0
 10
122.174413
 20
128.403756
 30
0.0
 10
123.566027
 20
128.403756
 30
0.0
 10
124.695467
 20
129.055955
 30
0.0
  0
SPLINE
  5
1af
100
AcDbEntity
  8
Capa_1
 62
3
100
AcDbSpline
 70
8
 71
3
 72
8
 73
4
 74
0
 40
0
 40
0
 40
0
 40
0
 40
1
 40
1
 40
1
 40
1
 10
124.695467
 20
129.055955
 30
0.0
 10
125.824906
 20
129.708155
 30
0.0
 10
126.520525
 20
130.913437
 30
0.0
 10
126.520220
 20
132.217660
 30
0.0
  0
LWPOLYLINE
  5
1b0
100
AcDbEntity
  8
Capa_1
 62
3
100
AcDbPolyline
 90
1
 70
1
 10
163.470210
 20
119.268660
 30
0.0
  0
SPLINE
  5
1b1
100
AcDbEntity
  8
Capa_1
 62
3
100
AcDbSpline
 70
8
 71
3
 72
8
 73
4
 74
0
 40
0
 40
0
 40
0
 40
0
 40
1
 40
1
 40
1
 40
1
 10
146.570220
 20
121.648660
 30
0.0
 10
146.570220
 20
122.046485
 30
0.0
 10
146.412185
 20
122.428016
 30
0.0
 10
146.130880
 20
122.709320
 30
0.0
  0
SPLINE
  5
1b2
100
AcDbEntity
  8
Capa_1
 62
3
100
AcDbSpline
 70
8
 71
3
 72
8
 73
4
 74
0
 40
0
 40
0
 40
0
 40
0
 40
1
 40
1
 40
1
 40
1
 10
146.130880
 20
122.709320
 30
0.0
 10
145.849576
 20
122.990625
 30
0.0
 10
145.468045
 20
123.148660
 30
0.0
 10
145.070220
 20
123.148660
 30
0.0
  0
SPLINE
  5
1b3
100
AcDbEntity
  8
Capa_1
 62
3
100
AcDbSpline
 70
8
 71
3
 72
8
 73
4
 74
0
 40
0
 40
0
 40
0
 40
0
 40
1
 40
1
 40
1
 40
1
 10
131.570210
 20
123.148660
 30
0.0
 10
131.172385
 20
123.148660
 30
0.0
 10
130.790854
 20
122.990625
 30
0.0
 10
130.509550
 20
122.709320
 30
0.0
  0
SPLINE
  5
1b4
100
AcDbEntity
  8
Capa_1
 62
3
100
AcDbSpline
 70
8
 71
3
 72
8
 73
4
 74
0
 40
0
 40
0
 40
0
 40
0
 40
1
 40
1
 40
1
 40
1
 10
130.509550
 20
122.709320
 30
0.0
 10
130.228245
 20
122.428016
 30
0.0
 10
130.070210
 20
122.046485
 30
0.0
 10
130.070210
 20
121.648660
 30
0.0
  0
SPLINE
  5
1b5
100
AcDbEntity
  8
Capa_1
 62
3
100
AcDbSpline
 70
8
 71
3
 72
8
 73
4
 74
0
 40
0
 40
0
 40
0
 40
0
 40
1
 40
1
 40
1
 40
1
 10
130.070210
 20
118.015680
 30
0.0
 10
130.070209
 20
117.572289
 30
0.0
 10
130.266373
 20
117.151616
 30
0.0
 10
130.606030
 20
116.866610
 30
0.0
  0
SPLINE
  5
1b6
100
AcDbEntity
  8
Capa_1
 62
3
100
AcDbSpline
 70
8
 71
3
 72
8
 73
4
 74
0
 40
0
 40
0
 40
0
 40
0
 40
1
 40
1
 40
1
 40
1
 10
131.257950
 20
116.319600
 30
0.0
 10
131.528095
 20
116.092919
 30
0.0
 10
131.869469
 20
115.968665
 30
0.0
 10
132.222120
 20
115.968660
 30
0.0
  0
SPLINE
  5
1b7
100
AcDbEntity
  8
Capa_1
 62
3
100
AcDbSpline
 70
8
 71
3
 72
8
 73
4
 74
0
 40
0
 40
0
 40
0
 40
0
 40
1
 40
1
 40
1
 40
1
 10
144.418300
 20
115.968660
 30
0.0
 10
144.770958
 20
115.968660
 30
0.0
 10
145.112340
 20
116.092914
 30
0.0
 10
145.382490
 20
116.319600
 30
0.0
  0
SPLINE
  5
1b8
100
AcDbEntity
  8
Capa_1
 62
3
100
AcDbSpline
 70
8
 71
3
 72
8
 73
4
 74
0
 40
0
 40
0
 40
0
 40
0
 40
1
 40
1
 40
1
 40
1
 10
146.034400
 20
116.866610
 30
0.0
 10
146.374057
 20
117.151616
 30
0.0
 10
146.570221
 20
117.572289
 30
0.0
 10
146.570220
 20
118.015680
 30
0.0
  0
SPLINE
  5
1b9
100
AcDbEntity
  8
Capa_1
 62
3
100
AcDbSpline
 70
8
 71
3
 72
8
 73
4
 74
0
 40
0
 40
0
 40
0
 40
0
 40
1
 40
1
 40
1
 40
1
 10
121.420220
 20
118.218660
 30
0.0
 10
121.420220
 20
118.536920
 30
0.0
 10
121.293792
 20
118.842144
 30
0.0
 10
121.068748
 20
119.067188
 30
0.0
  0
SPLINE
  5
1ba
100
AcDbEntity
  8
Capa_1
 62
3
100
AcDbSpline
 70
8
 71
3
 72
8
 73
4
 74
0
 40
0
 40
0
 40
0
 40
0
 40
1
 40
1
 40
1
 40
1
 10
121.068748
 20
119.067188
 30
0.0
 10
120.843704
 20
119.292232
 30
0.0
 10
120.538480
 20
119.418660
 30
0.0
 10
120.220220
 20
119.418660
 30
0.0
  0
SPLINE
  5
1bb
100
AcDbEntity
  8
Capa_1
 62
3
100
AcDbSpline
 70
8
 71
3
 72
8
 73
4
 74
0
 40
0
 40
0
 40
0
 40
0
 40
1
 40
1
 40
1
 40
1
 10
113.620210
 20
119.418660
 30
0.0
 10
112.957472
 20
119.418654
 30
0.0
 10
112.420220
 20
118.881398
 30
0.0
 10
112.420220
 20
118.218660
 30
0.0
  0
SPLINE
  5
1bc
100
AcDbEntity
  8
Capa_1
 62
3
100
AcDbSpline
 70
8
 71
3
 72
8
 73
4
 74
0
 40
0
 40
0
 40
0
 40
0
 40
1
 40
1
 40
1
 40
1
 10
112.420220
 20
117.320280
 30
0.0
 10
112.420219
 20
117.002020
 30
0.0
 10
112.546647
 20
116.696794
 30
0.0
 10
112.771690
 20
116.471750
 30
0.0
  0
SPLINE
  5
1bd
100
AcDbEntity
  8
Capa_1
 62
3
100
AcDbSpline
 70
8
 71
3
 72
8
 73
4
 74
0
 40
0
 40
0
 40
0
 40
0
 40
1
 40
1
 40
1
 40
1
 10
113.323300
 20
115.920140
 30
0.0
 10
113.548343
 20
115.695093
 30
0.0
 10
113.853568
 20
115.568662
 30
0.0
 10
114.171830
 20
115.568660
 30
0.0
  0
SPLINE
  5
1be
100
AcDbEntity
  8
Capa_1
 62
3
100
AcDbSpline
 70
8
 71
3
 72
8
 73
4
 74
0
 40
0
 40
0
 40
0
 40
0
 40
1
 40
1
 40
1
 40
1
 10
119.668600
 20
115.568660
 30
0.0
 10
119.986862
 20
115.568662
 30
0.0
 10
120.292087
 20
115.695093
 30
0.0
 10
120.517130
 20
115.920140
 30
0.0
  0
SPLINE
  5
1bf
100
AcDbEntity
  8
Capa_1
 62
3
100
AcDbSpline
 70
8
 71
3
 72
8
 73
4
 74
0
 40
0
 40
0
 40
0
 40
0
 40
1
 40
1
 40
1
 40
1
 10
121.068740
 20
116.471750
 30
0.0
 10
121.293787
 20
116.696793
 30
0.0
 10
121.420218
 20
117.002018
 30
0.0
 10
121.420220
 20
117.320280
 30
0.0
  0
SPLINE
  5
1c0
100
AcDbEntity
  8
Capa_1
 62
3
100
AcDbSpline
 70
8
 71
3
 72
8
 73
4
 74
0
 40
0
 40
0
 40
0
 40
0
 40
1
 40
1
 40
1
 40
1
 10
162.820220
 20
137.217660
 30
0.0
 10
162.820220
 20
139.003990
 30
0.0
 10
161.867224
 20
140.654626
 30
0.0
 10
160.320218
 20
141.547791
 30
0.0
  0
SPLINE
  5
1c1
100
AcDbEntity
  8
Capa_1
 62
3
100
AcDbSpline
 70
8
 71
3
 72
8
 73
4
 74
0
 40
0
 40
0
 40
0
 40
0
 40
1
 40
1
 40
1
 40
1
 10
160.320218
 20
141.547791
 30
0.0
 10
158.773211
 20
142.440956
 30
0.0
 10
156.867219
 20
142.440956
 30
0.0
 10
155.320213
 20
141.547791
 30
0.0
  0
SPLINE
  5
1c2
100
AcDbEntity
  8
Capa_1
 62
3
100
AcDbSpline
 70
8
 71
3
 72
8
 73
4
 74
0
 40
0
 40
0
 40
0
 40
0
 40
1
 40
1
 40
1
 40
1
 10
155.320213
 20
141.547791
 30
0.0
 10
153.773206
 20
140.654626
 30
0.0
 10
152.820210
 20
139.003990
 30
0.0
 10
152.820210
 20
137.217660
 30
0.0
  0
SPLINE
  5
1c3
100
AcDbEntity
  8
Capa_1
 62
3
100
AcDbSpline
 70
8
 71
3
 72
8
 73
4
 74
0
 40
0
 40
0
 40
0
 40
0
 40
1
 40
1
 40
1
 40
1
 10
152.820210
 20
137.217660
 30
0.0
 10
152.820210
 20
135.431330
 30
0.0
 10
153.773205
 20
133.780693
 30
0.0
 10
155.320212
 20
132.887528
 30
0.0
  0
SPLINE
  5
1c4
100
AcDbEntity
  8
Capa_1
 62
3
100
AcDbSpline
 70
8
 71
3
 72
8
 73
4
 74
0
 40
0
 40
0
 40
0
 40
0
 40
1
 40
1
 40
1
 40
1
 10
155.320212
 20
132.887528
 30
0.0
 10
156.867219
 20
131.994363
 30
0.0
 10
158.773211
 20
131.994363
 30
0.0
 10
160.320218
 20
132.887528
 30
0.0
  0
SPLINE
  5
1c5
100
AcDbEntity
  8
Capa_1
 62
3
100
AcDbSpline
 70
8
 71
3
 72
8
 73
4
 74
0
 40
0
 40
0
 40
0
 40
0
 40
1
 40
1
 40
1
 40
1
 10
160.320218
 20
132.887528
 30
0.0
 10
161.867225
 20
133.780693
 30
0.0
 10
162.820220
 20
135.431330
 30
0.0
 10
162.820220
 20
137.217660
 30
0.0
  0
LWPOLYLINE
  5
1c6
100
AcDbEntity
  8
Capa_1
 62
3
100
AcDbPolyline
 90
1
 70
1
 10
126.520220
 20
132.217660
 30
0.0
  0
SPLINE
  5
1c7
100
AcDbEntity
  8
Capa_1
 62
3
100
AcDbSpline
 70
8
 71
3
 72
8
 73
4
 74
0
 40
0
 40
0
 40
0
 40
0
 40
1
 40
1
 40
1
 40
1
 10
145.520210
 20
137.217660
 30
0.0
 10
145.522739
 20
139.005670
 30
0.0
 10
144.570298
 20
140.658943
 30
0.0
 10
143.022256
 20
141.553679
 30
0.0
  0
SPLINE
  5
1c8
100
AcDbEntity
  8
Capa_1
 62
3
100
AcDbSpline
 70
8
 71
3
 72
8
 73
4
 74
0
 40
0
 40
0
 40
0
 40
0
 40
1
 40
1
 40
1
 40
1
 10
143.022256
 20
141.553679
 30
0.0
 10
141.474214
 20
142.448415
 30
0.0
 10
139.566216
 20
142.448415
 30
0.0
 10
138.018174
 20
141.553679
 30
0.0
  0
SPLINE
  5
1c9
100
AcDbEntity
  8
Capa_1
 62
3
100
AcDbSpline
 70
8
 71
3
 72
8
 73
4
 74
0
 40
0
 40
0
 40
0
 40
0
 40
1
 40
1
 40
1
 40
1
 10
138.018174
 20
141.553679
 30
0.0
 10
136.470132
 20
140.658943
 30
0.0
 10
135.517691
 20
139.005670
 30
0.0
 10
135.520220
 20
137.217660
 30
0.0
  0
SPLINE
  5
1ca
100
AcDbEntity
  8
Capa_1
 62
3
100
AcDbSpline
 70
8
 71
3
 72
8
 73
4
 74
0
 40
0
 40
0
 40
0
 40
0
 40
1
 40
1
 40
1
 40
1
 10
135.520220
 20
137.217660
 30
0.0
 10
135.517691
 20
135.429650
 30
0.0
 10
136.470132
 20
133.776377
 30
0.0
 10
138.018174
 20
132.881641
 30
0.0
  0
SPLINE
  5
1cb
100
AcDbEntity
  8
Capa_1
 62
3
100
AcDbSpline
 70
8
 71
3
 72
8
 73
4
 74
0
 40
0
 40
0
 40
0
 40
0
 40
1
 40
1
 40
1
 40
1
 10
138.018174
 20
132.881641
 30
0.0
 10
139.566216
 20
131.986905
 30
0.0
 10
141.474214
 20
131.986905
 30
0.0
 10
143.022256
 20
132.881641
 30
0.0
  0
SPLINE
  5
1cc
100
AcDbEntity
  8
Capa_1
 62
3
100
AcDbSpline
 70
8
 71
3
 72
8
 73
4
 74
0
 40
0
 40
0
 40
0
 40
0
 40
1
 40
1
 40
1
 40
1
 10
143.022256
 20
132.881641
 30
0.0
 10
144.570298
 20
133.776377
 30
0.0
 10
145.522739
 20
135.429650
 30
0.0
 10
145.520210
 20
137.217660
 30
0.0
  0
LWPOLYLINE
  5
1cd
100
AcDbEntity
  8
Capa_1
 62
3
100
AcDbPolyline
 90
1
 70
1
 10
162.820220
 20
137.217660
 30
0.0
  0
LWPOLYLINE
  5
1ce
100
AcDbEntity
  8
Capa_1
 62
3
100
AcDbPolyline
 90
1
 70
1
 10
145.520210
 20
137.217660
 30
0.0
  0
ENDSEC
  0
SECTION
  2
OBJECTS
  0
DICTIONARY
  5
C
330
0
100
AcDbDictionary
  3
ACAD_GROUP
350
D
  3
ACAD_MLINESTYLE
350
17
  0
DICTIONARY
  5
D
330
C
100
AcDbDictionary
  0
DICTIONARY
  5
1A
330
C
100
AcDbDictionary
  0
DICTIONARY
  5
17
330
C
100
AcDbDictionary
  3
STANDARD
350
18
  0
DICTIONARY
  5
19
330
C
100
AcDbDictionary
  0
ENDSEC
  0
EOF
