<?xml version="1.0" encoding="UTF-8" standalone="no"?>
<!-- Created with Inkscape (http://www.inkscape.org/) -->

<svg
   xmlns:dc="http://purl.org/dc/elements/1.1/"
   xmlns:cc="http://creativecommons.org/ns#"
   xmlns:rdf="http://www.w3.org/1999/02/22-rdf-syntax-ns#"
   xmlns:svg="http://www.w3.org/2000/svg"
   xmlns="http://www.w3.org/2000/svg"
   xmlns:sodipodi="http://sodipodi.sourceforge.net/DTD/sodipodi-0.dtd"
   xmlns:inkscape="http://www.inkscape.org/namespaces/inkscape"
   width="8.3356438mm"
   height="7.5561571mm"
   viewBox="0 0 8.3356438 7.5561571"
   version="1.1"
   id="svg4885"
   inkscape:version="0.92+devel unknown"
   sodipodi:docname="oshw-logo.svg">
  <defs
     id="defs4879" />
  <sodipodi:namedview
     id="base"
     pagecolor="#ffffff"
     bordercolor="#666666"
     borderopacity="1.0"
     inkscape:pageopacity="0.0"
     inkscape:pageshadow="2"
     inkscape:zoom="11.2"
     inkscape:cx="10.20399"
     inkscape:cy="2.1172362"
     inkscape:document-units="mm"
     inkscape:current-layer="layer1"
     inkscape:document-rotation="0"
     showgrid="false"
     inkscape:window-width="1920"
     inkscape:window-height="1136"
     inkscape:window-x="0"
     inkscape:window-y="0"
     inkscape:window-maximized="1"
     fit-margin-top="0"
     fit-margin-left="0"
     fit-margin-right="0"
     fit-margin-bottom="0" />
  <metadata
     id="metadata4882">
    <rdf:RDF>
      <cc:Work
         rdf:about="">
        <dc:format>image/svg+xml</dc:format>
        <dc:type
           rdf:resource="http://purl.org/dc/dcmitype/StillImage" />
        <dc:title></dc:title>
      </cc:Work>
    </rdf:RDF>
  </metadata>
  <g
     inkscape:label="Capa 1"
     inkscape:groupmode="layer"
     id="layer1"
     transform="translate(-89.570219,-132.95987)">
    <path
       style="display:inline;opacity:1;fill:none;stroke:#000000;stroke-width:0.26458332;stroke-miterlimit:4;stroke-dasharray:none;stroke-opacity:1"
       d="m 96.114296,140.31889 c -0.09544,-0.05 -0.168117,-0.0948 -0.29046,-0.17917 -0.05091,-0.0351 -0.146156,-0.0997 -0.211614,-0.14354 -0.06548,-0.0439 -0.130307,-0.0912 -0.144065,-0.10529 -0.03953,-0.0404 -0.07305,-0.0549 -0.12708,-0.0552 -0.05384,-2.5e-4 -0.08051,0.009 -0.212381,0.0765 -0.08319,0.0423 -0.153776,0.0655 -0.199892,0.0655 -0.01773,0 -0.02328,-0.006 -0.05958,-0.0678 -0.06681,-0.11297 -0.133615,-0.26003 -0.241115,-0.53072 -0.05633,-0.14186 -0.114724,-0.28581 -0.129779,-0.31989 -0.01508,-0.0341 -0.04093,-0.0977 -0.05752,-0.14128 -0.01667,-0.0436 -0.05929,-0.14382 -0.09488,-0.22266 -0.107791,-0.23873 -0.14769,-0.3493 -0.166502,-0.46116 -0.0061,-0.0355 -0.0063,-0.0518 -0.0027,-0.0534 0.004,-0.001 0.03654,-0.022 0.07258,-0.0461 0.347138,-0.23184 0.561794,-0.57657 0.575844,-0.9247 0.0042,-0.10508 -0.0053,-0.25384 -0.02117,-0.33061 -0.06141,-0.29743 -0.271251,-0.55672 -0.573246,-0.70839 -0.258181,-0.12968 -0.526574,-0.15494 -0.825262,-0.0777 -0.456724,0.11817 -0.781156,0.59119 -0.758217,1.10549 0.005,0.11407 0.02037,0.19713 0.05797,0.31538 0.06588,0.20706 0.12917,0.28912 0.425953,0.55226 0.0472,0.0419 0.103241,0.0945 0.124513,0.11703 l 0.03868,0.0409 -0.02802,0.0847 c -0.07313,0.22082 -0.152929,0.42676 -0.294217,0.75924 -0.128957,0.30341 -0.17272,0.40794 -0.215132,0.51383 -0.02143,0.0534 -0.04919,0.11743 -0.0617,0.14219 -0.01244,0.0248 -0.03151,0.0733 -0.0422,0.10783 -0.0435,0.1403 -0.07617,0.17408 -0.153062,0.1582 -0.04411,-0.009 -0.08411,-0.0285 -0.158009,-0.0764 -0.09914,-0.0643 -0.13081,-0.0779 -0.183171,-0.0782 -0.0444,-2.7e-4 -0.04871,10e-4 -0.105807,0.0353 -0.09022,0.0539 -0.178329,0.11255 -0.324061,0.21566 -0.199073,0.14087 -0.29636,0.20037 -0.400368,0.24489 l -0.05429,0.0232 -0.0372,-0.0315 c -0.164386,-0.13913 -0.448892,-0.41829 -0.671089,-0.6585 l -0.06514,-0.0704 0.03598,-0.0679 c 0.05517,-0.10423 0.10324,-0.17887 0.222329,-0.34516 0.06014,-0.084 0.133826,-0.18987 0.163777,-0.23534 0.02992,-0.0455 0.06175,-0.0916 0.07075,-0.10261 0.07043,-0.0861 0.06752,-0.16835 -0.01244,-0.35134 -0.02037,-0.0468 -0.04699,-0.11331 -0.059,-0.14786 -0.06265,-0.18 -0.118242,-0.32395 -0.137424,-0.35587 -0.03871,-0.0645 -0.104378,-0.10707 -0.164994,-0.10707 -0.01085,0 -0.04244,-0.006 -0.07033,-0.0129 -0.08956,-0.0228 -0.172243,-0.0388 -0.360389,-0.0697 -0.201691,-0.0331 -0.328824,-0.063 -0.414787,-0.0975 l -0.05591,-0.0224 -0.004,-0.18811 c -0.01058,-0.4932 -0.01402,-0.79503 -0.0095,-0.84744 l 0.0048,-0.0575 0.06062,-0.0201 c 0.08445,-0.0279 0.201216,-0.0551 0.371422,-0.0865 0.363008,-0.0669 0.402061,-0.0752 0.534617,-0.11428 l 0.07168,-0.0211 0.03035,-0.0431 c 0.05162,-0.0733 0.122766,-0.22028 0.200077,-0.41342 0.04077,-0.10184 0.08572,-0.21095 0.09991,-0.24246 l 0.02566,-0.0573 -0.101229,-0.14773 c -0.05567,-0.0812 -0.132557,-0.19237 -0.170842,-0.24693 -0.117237,-0.16709 -0.207804,-0.30146 -0.26969,-0.40007 l -0.05911,-0.0942 0.02408,-0.0339 c 0.05061,-0.0716 0.124301,-0.15228 0.234314,-0.25647 0.208651,-0.19762 0.264108,-0.25321 0.302446,-0.30324 0.05442,-0.071 0.120438,-0.13038 0.171794,-0.15452 0.03641,-0.0171 0.05143,-0.0204 0.09332,-0.0205 0.0663,-8e-5 0.117739,0.0244 0.178964,0.0854 0.02408,0.0238 0.07067,0.0605 0.103796,0.0814 0.03315,0.0209 0.115226,0.0804 0.182404,0.13212 0.195368,0.15046 0.279082,0.19989 0.383725,0.22656 0.0713,0.0182 0.08572,0.0172 0.181663,-0.0124 0.218758,-0.0675 0.373433,-0.13404 0.514906,-0.22136 l 0.05445,-0.0336 0.02249,-0.0564 c 0.05564,-0.13901 0.08739,-0.27912 0.13335,-0.58871 0.03342,-0.22492 0.0654,-0.39459 0.07837,-0.41558 0.0027,-0.003 0.01508,-0.0116 0.02868,-0.0184 0.02302,-0.0114 0.05003,-0.0125 0.378698,-0.0149 0.559144,-0.004 0.566949,-0.004 0.670878,0.0311 l 0.05252,0.0176 0.01879,0.0628 c 0.03154,0.10544 0.06916,0.27751 0.107711,0.4927 0.03712,0.20731 0.07797,0.41719 0.08946,0.45963 0.005,0.0188 0.01535,0.029 0.05424,0.0543 0.06413,0.0416 0.192511,0.10169 0.305938,0.14326 0.05091,0.0187 0.156554,0.0573 0.234712,0.0858 l 0.142161,0.0518 0.02738,-0.0121 c 0.05551,-0.0246 0.141949,-0.0769 0.297921,-0.18047 0.08792,-0.0584 0.177218,-0.11596 0.198384,-0.12794 0.02117,-0.012 0.06234,-0.0412 0.09141,-0.0648 0.0291,-0.0237 0.07755,-0.063 0.107659,-0.0873 0.112395,-0.091 0.176107,-0.11757 0.239104,-0.0999 0.03,0.008 0.05009,0.0259 0.220054,0.19114 0.339302,0.3299 0.407405,0.40216 0.493448,0.52348 l 0.04061,0.0572 -0.03109,0.0552 c -0.0172,0.0304 -0.113189,0.17871 -0.213572,0.32966 -0.10033,0.15095 -0.199469,0.30168 -0.220239,0.33496 -0.0209,0.0333 -0.04265,0.0645 -0.0486,0.0694 -0.0061,0.005 -0.01932,0.0268 -0.02958,0.0486 -0.03556,0.0751 -0.02434,0.15132 0.04146,0.28255 0.01799,0.0358 0.05019,0.11187 0.0716,0.16903 0.07501,0.20016 0.105516,0.25843 0.169042,0.32277 0.05294,0.0536 0.09673,0.0772 0.169995,0.0917 0.02654,0.005 0.08099,0.017 0.120994,0.0262 0.04001,0.009 0.155787,0.0302 0.257254,0.0468 0.258393,0.0421 0.355733,0.065 0.468551,0.11002 l 0.05128,0.0205 0.0026,0.25222 c 0.0027,0.3012 -0.0026,0.69194 -0.0074,0.77457 l -0.004,0.0594 -0.0794,0.0242 c -0.103587,0.0316 -0.195424,0.0519 -0.400582,0.0886 -0.337793,0.0605 -0.387932,0.07 -0.471487,0.0901 l -0.08514,0.0204 -0.03294,0.0703 c -0.0445,0.095 -0.07477,0.17144 -0.148273,0.37452 -0.03424,0.0946 -0.0716,0.18973 -0.08305,0.21146 -0.01667,0.0315 -0.02143,0.0497 -0.02381,0.0898 -0.005,0.086 0.01297,0.12919 0.122634,0.29549 0.03548,0.0538 0.0798,0.12305 0.09853,0.15392 0.01879,0.0309 0.06609,0.0993 0.105305,0.15202 0.115781,0.15576 0.168566,0.247 0.188224,0.32533 l 0.0077,0.031 -0.102261,0.11446 c -0.249578,0.27941 -0.434865,0.45907 -0.610575,0.59206 l -0.05345,0.0404 -0.07882,-0.0413 z m -4.701144,-0.31987 c 0.123614,-0.0743 0.58428,-0.38678 0.61005,-0.41385 0.03294,-0.0346 0.06199,-0.0459 0.10885,-0.0425 0.03379,0.002 0.05511,0.0109 0.144462,0.0571 0.06173,0.0319 0.116523,0.0558 0.133297,0.0581 l 0.02847,0.004 0.04045,-0.0751 c 0.120598,-0.22385 0.20455,-0.41629 0.337106,-0.77263 0.05752,-0.15457 0.179335,-0.49007 0.182695,-0.50311 0,-0.003 -0.04024,-0.0493 -0.09118,-0.10285 -0.166609,-0.17524 -0.244661,-0.27172 -0.325888,-0.40298 -0.10959,-0.17707 -0.167111,-0.37196 -0.177694,-0.60217 -0.01693,-0.36836 0.134832,-0.75397 0.395393,-1.00472 0.178329,-0.17158 0.351102,-0.27438 0.567743,-0.33778 0.386265,-0.11304 0.814599,-0.0435 1.125882,0.18271 0.06686,0.0486 0.191664,0.16019 0.254264,0.22738 0.09705,0.10413 0.19394,0.27199 0.238866,0.41381 0.05046,0.1593 0.06204,0.26376 0.05837,0.52577 -0.0029,0.21637 -0.0079,0.25065 -0.05651,0.38632 -0.07078,0.19818 -0.207936,0.39319 -0.460878,0.65529 l -0.06062,0.0628 0.06789,0.18187 c 0.122714,0.32876 0.235718,0.60542 0.367374,0.89942 0.03339,0.0746 0.0694,0.15633 0.08006,0.18169 0.03852,0.0919 0.0594,0.0963 0.180764,0.0382 0.07797,-0.0373 0.08057,-0.038 0.135704,-0.0376 0.06808,5.3e-4 0.139991,0.0193 0.211641,0.0554 0.08231,0.0415 0.09578,0.0508 0.330649,0.22925 0.109141,0.0829 0.173673,0.12254 0.244105,0.14995 0.06244,0.0243 0.07586,0.0218 0.152162,-0.0283 0.07527,-0.0494 0.137557,-0.10881 0.284744,-0.27147 l 0.116973,-0.12926 -0.02775,-0.0658 c -0.05202,-0.12331 -0.112104,-0.22364 -0.281781,-0.47063 -0.123772,-0.18013 -0.190765,-0.28542 -0.190818,-0.29992 0,-0.0208 0.0598,-0.17391 0.153856,-0.39353 0.128534,-0.30004 0.173407,-0.42501 0.200527,-0.5584 0.0063,-0.0309 0.01482,-0.0595 0.01879,-0.0636 0.01191,-0.0122 0.101706,-0.0462 0.17915,-0.0679 0.09168,-0.0257 0.159887,-0.0396 0.358457,-0.0734 0.201692,-0.0343 0.341974,-0.0694 0.433229,-0.10865 0.01984,-0.009 0.02593,-0.0156 0.03188,-0.0378 0.04009,-0.14879 0.04485,-0.35206 0.01297,-0.55341 l -0.01482,-0.0937 -0.08019,-0.0261 c -0.118427,-0.0385 -0.235664,-0.0665 -0.5266,-0.12595 -0.143669,-0.0293 -0.282019,-0.0587 -0.307446,-0.0652 -0.04591,-0.0118 -0.04643,-0.0122 -0.06866,-0.0512 -0.03238,-0.0568 -0.08734,-0.17873 -0.175578,-0.38979 -0.0816,-0.19524 -0.172878,-0.38849 -0.22434,-0.47506 -0.01693,-0.0285 -0.0308,-0.0542 -0.0308,-0.0573 0,-0.0113 0.0885,-0.17076 0.130175,-0.23458 0.02381,-0.0365 0.09075,-0.13547 0.148696,-0.21989 0.122397,-0.17841 0.177165,-0.26624 0.22315,-0.35783 l 0.03305,-0.0659 -0.03344,-0.0487 c -0.07758,-0.1129 -0.179468,-0.22693 -0.307526,-0.34415 -0.133085,-0.12182 -0.12319,-0.11542 -0.155945,-0.10065 -0.05702,0.0257 -0.201639,0.11714 -0.410396,0.25946 -0.238257,0.16243 -0.324326,0.2169 -0.413147,0.26152 l -0.05903,0.0296 -0.05228,-0.0301 c -0.06781,-0.0391 -0.194573,-0.0973 -0.306915,-0.14113 -0.339276,-0.13225 -0.396082,-0.15708 -0.500116,-0.21855 l -0.06691,-0.0396 -0.02011,-0.0511 c -0.0462,-0.11695 -0.06921,-0.21337 -0.117264,-0.49085 -0.03312,-0.19126 -0.0486,-0.2647 -0.0739,-0.35051 -0.01376,-0.0463 -0.02117,-0.0605 -0.04278,-0.0806 -0.05196,-0.0484 -0.116205,-0.0579 -0.372586,-0.0552 -0.182007,0.002 -0.219631,0.006 -0.290036,0.028 -0.02903,0.009 -0.03355,0.0135 -0.0471,0.0442 -0.02302,0.0521 -0.04098,0.13321 -0.0631,0.28527 -0.01111,0.0764 -0.03035,0.17757 -0.0427,0.22485 -0.01243,0.0473 -0.02879,0.12913 -0.03646,0.18187 -0.03514,0.24121 -0.06469,0.28548 -0.235558,0.3531 -0.05416,0.0214 -0.168407,0.0701 -0.253894,0.10819 -0.238363,0.10616 -0.374227,0.16355 -0.448284,0.18932 l -0.06747,0.0235 -0.05387,-0.0231 c -0.115676,-0.0495 -0.232674,-0.12246 -0.455427,-0.28391 -0.15121,-0.10959 -0.228785,-0.16227 -0.306732,-0.20832 l -0.05665,-0.0335 -0.03821,0.0214 c -0.124618,0.0698 -0.243072,0.17961 -0.414761,0.38461 l -0.06559,0.0783 0.03151,0.0639 c 0.04561,0.0925 0.130361,0.23213 0.221298,0.36478 0.04363,0.0637 0.1261,0.18464 0.183224,0.26885 l 0.103875,0.15312 -0.04477,0.11473 c -0.06024,0.15445 -0.167057,0.40543 -0.286464,0.67306 -0.08067,0.1808 -0.101494,0.22212 -0.114432,0.22691 -0.06797,0.0251 -0.316918,0.0787 -0.620951,0.13371 -0.256725,0.0464 -0.331364,0.0639 -0.337555,0.0791 -0.0079,0.0195 -0.02619,0.21431 -0.03061,0.32791 -0.0042,0.10883 0.004,0.20845 0.02513,0.30067 l 0.01455,0.0629 0.06876,0.0269 c 0.09969,0.039 0.247677,0.0747 0.435557,0.10511 0.238072,0.0385 0.428096,0.0737 0.436933,0.0808 0.01111,0.009 0.06527,0.1431 0.161793,0.40118 0.113294,0.30283 0.173064,0.44032 0.248232,0.57094 l 0.02913,0.0506 -0.0371,0.0684 c -0.02037,0.0376 -0.112316,0.1815 -0.204232,0.31972 -0.175075,0.26325 -0.229473,0.35141 -0.265324,0.43009 l -0.0217,0.0474 0.179599,0.17832 c 0.217355,0.21583 0.306308,0.29983 0.317447,0.29983 0.0045,0 0.04691,-0.0232 0.09398,-0.0514 z"
       id="path4560"
       inkscape:connector-curvature="0"
       sodipodi:nodetypes="ccccccscscccccscccsccccccscccccccsccccccscccccscsccccccsccccccccsccscccsccccsccccccccccccscccccsccccccccccccccssccccccccccccccccccccccccccccccccccscscccccccccccccccccccsccccssccccccccccsccsccccccccccccccccccccscccccsccccccccccscscccccccccccscccscc" />
  </g>
</svg>
