  0
SECTION
  2
HEADER
  9
$ACADVER
  1
AC1014
  9
$HANDSEED
  5
FFFF
  9
$MEASUREMENT
 70
     1
  0
ENDSEC
  0
SECTION
  2
TABLES
  0
TABLE
  2
VPORT
  5
8
330
0
100
AcDbSymbolTable
 70
     4
  0
VPORT
  5
2E
330
8
100
AcDbSymbolTableRecord
100
AcDbViewportTableRecord
  2
*ACTIVE
 70
     0
 10
0.0
 20
0.0
 11
1.0
 21
1.0
 12
210.0
 22
148.5
 13
0.0
 23
0.0
 14
10.0
 24
10.0
 15
10.0
 25
10.0
 16
0.0
 26
0.0
 36
1.0
 17
0.0
 27
0.0
 37
0.0
 40
341.0
 41
1.24
 42
50.0
 43
0.0
 44
0.0
 50
0.0
 51
0.0
 71
     0
 72
   100
 73
     1
 74
     3
 75
     0
 76
     0
 77
     0
 78
     0
  0
ENDTAB
  0
TABLE
  2
LTYPE
  5
5
330
0
100
AcDbSymbolTable
 70
     1
  0
LTYPE
  5
14
330
5
100
AcDbSymbolTableRecord
100
AcDbLinetypeTableRecord
  2
BYBLOCK
 70
     0
  3

 72
    65
 73
     0
 40
0.0
  0
LTYPE
  5
15
330
5
100
AcDbSymbolTableRecord
100
AcDbLinetypeTableRecord
  2
BYLAYER
 70
     0
  3

 72
    65
 73
     0
 40
0.0
  0
LTYPE
  5
16
330
5
100
AcDbSymbolTableRecord
100
AcDbLinetypeTableRecord
  2
CONTINUOUS
 70
     0
  3
Solid line
 72
    65
 73
     0
 40
0.0
  0
ENDTAB
  0
TABLE
  2
LAYER
  5
2
100
AcDbSymbolTable
 70
2
  0
LAYER
  5
50
100
AcDbSymbolTableRecord
100
AcDbLayerTableRecord
  2
0
 70
0
  6
CONTINUOUS
  0
LAYER
  5
51
100
AcDbSymbolTableRecord
100
AcDbLayerTableRecord
  2
Imprimir
 70
0
  6
CONTINUOUS
  0
ENDTAB
  0
TABLE
  2
STYLE
  5
3
330
0
100
AcDbSymbolTable
 70
     1
  0
STYLE
  5
11
330
3
100
AcDbSymbolTableRecord
100
AcDbTextStyleTableRecord
  2
STANDARD
 70
     0
 40
0.0
 41
1.0
 50
0.0
 71
     0
 42
2.5
  3
txt
  4

  0
ENDTAB
  0
TABLE
  2
VIEW
  5
6
330
0
100
AcDbSymbolTable
 70
     0
  0
ENDTAB
  0
TABLE
  2
UCS
  5
7
330
0
100
AcDbSymbolTable
 70
     0
  0
ENDTAB
  0
TABLE
  2
APPID
  5
9
330
0
100
AcDbSymbolTable
 70
     2
  0
APPID
  5
12
330
9
100
AcDbSymbolTableRecord
100
AcDbRegAppTableRecord
  2
ACAD
 70
     0
  0
ENDTAB
  0
TABLE
  2
DIMSTYLE
  5
A
330
0
100
AcDbSymbolTable
 70
     1
  0
DIMSTYLE
105
27
330
A
100
AcDbSymbolTableRecord
100
AcDbDimStyleTableRecord
  2
ISO-25
 70
     0
  3

  4

  5

  6

  7

 40
1.0
 41
2.5
 42
0.625
 43
3.75
 44
1.25
 45
0.0
 46
0.0
 47
0.0
 48
0.0
140
2.5
141
2.5
142
0.0
143
0.03937007874016
144
1.0
145
0.0
146
1.0
147
0.625
 71
     0
 72
     0
 73
     0
 74
     0
 75
     0
 76
     0
 77
     1
 78
     8
170
     0
171
     3
172
     1
173
     0
174
     0
175
     0
176
     0
177
     0
178
     0
270
     2
271
     2
272
     2
273
     2
274
     3
340
11
275
     0
280
     0
281
     0
282
     0
283
     0
284
     8
285
     0
286
     0
287
     3
288
     0
  0
ENDTAB
  0
TABLE
  2
BLOCK_RECORD
  5
1
330
0
100
AcDbSymbolTable
 70
     1
  0
BLOCK_RECORD
  5
1F
330
1
100
AcDbSymbolTableRecord
100
AcDbBlockTableRecord
  2
*MODEL_SPACE
  0
BLOCK_RECORD
  5
1B
330
1
100
AcDbSymbolTableRecord
100
AcDbBlockTableRecord
  2
*PAPER_SPACE
  0
ENDTAB
  0
ENDSEC
  0
SECTION
  2
BLOCKS
  0
BLOCK
  5
20
330
1F
100
AcDbEntity
  8
0
100
AcDbBlockBegin
  2
*MODEL_SPACE
 70
     0
 10
0.0
 20
0.0
 30
0.0
  3
*MODEL_SPACE
  1

  0
ENDBLK
  5
21
330
1F
100
AcDbEntity
  8
0
100
AcDbBlockEnd
  0
BLOCK
  5
1C
330
1B
100
AcDbEntity
 67
     1
  8
0
100
AcDbBlockBegin
  2
*PAPER_SPACE
  1

  0
ENDBLK
  5
1D
330
1B
100
AcDbEntity
 67
     1
  8
0
100
AcDbBlockEnd
  0
ENDSEC
  0
SECTION
  2
ENTITIES
  0
SPLINE
  5
100
100
AcDbEntity
  8
Imprimir
 62
5
100
AcDbSpline
 70
8
 71
3
 72
8
 73
4
 74
0
 40
0
 40
0
 40
0
 40
0
 40
1
 40
1
 40
1
 40
1
 10
44.098072
 20
38.648338
 30
0.0
 10
42.780429
 20
38.648338
 30
0.0
 10
41.516754
 20
39.171741
 30
0.0
 10
40.585041
 20
40.103404
 30
0.0
  0
SPLINE
  5
101
100
AcDbEntity
  8
Imprimir
 62
5
100
AcDbSpline
 70
8
 71
3
 72
8
 73
4
 74
0
 40
0
 40
0
 40
0
 40
0
 40
1
 40
1
 40
1
 40
1
 10
40.585041
 20
40.103404
 30
0.0
 10
39.653328
 20
41.035066
 30
0.0
 10
39.129899
 20
42.298671
 30
0.0
 10
39.129902
 20
43.616240
 30
0.0
  0
SPLINE
  5
102
100
AcDbEntity
  8
Imprimir
 62
5
100
AcDbSpline
 70
8
 71
3
 72
8
 73
4
 74
0
 40
0
 40
0
 40
0
 40
0
 40
1
 40
1
 40
1
 40
1
 10
39.129902
 20
43.616240
 30
0.0
 10
39.129911
 20
46.359923
 30
0.0
 10
41.354234
 20
48.584113
 30
0.0
 10
44.098072
 20
48.584113
 30
0.0
  0
SPLINE
  5
103
100
AcDbEntity
  8
Imprimir
 62
5
100
AcDbSpline
 70
8
 71
3
 72
8
 73
4
 74
0
 40
0
 40
0
 40
0
 40
0
 40
1
 40
1
 40
1
 40
1
 10
44.098072
 20
48.584113
 30
0.0
 10
46.841908
 20
48.584112
 30
0.0
 10
49.066229
 20
46.359922
 30
0.0
 10
49.066238
 20
43.616240
 30
0.0
  0
SPLINE
  5
104
100
AcDbEntity
  8
Imprimir
 62
5
100
AcDbSpline
 70
8
 71
3
 72
8
 73
4
 74
0
 40
0
 40
0
 40
0
 40
0
 40
1
 40
1
 40
1
 40
1
 10
49.066238
 20
43.616240
 30
0.0
 10
49.066242
 20
42.298672
 30
0.0
 10
48.542813
 20
41.035067
 30
0.0
 10
47.611100
 20
40.103405
 30
0.0
  0
SPLINE
  5
105
100
AcDbEntity
  8
Imprimir
 62
5
100
AcDbSpline
 70
8
 71
3
 72
8
 73
4
 74
0
 40
0
 40
0
 40
0
 40
0
 40
1
 40
1
 40
1
 40
1
 10
47.611100
 20
40.103405
 30
0.0
 10
46.679388
 20
39.171742
 30
0.0
 10
45.415714
 20
38.648339
 30
0.0
 10
44.098072
 20
38.648338
 30
0.0
  0
SPLINE
  5
106
100
AcDbEntity
  8
Imprimir
 62
5
100
AcDbSpline
 70
8
 71
3
 72
8
 73
4
 74
0
 40
0
 40
0
 40
0
 40
0
 40
1
 40
1
 40
1
 40
1
 10
44.117494
 20
18.299862
 30
0.0
 10
41.373655
 20
18.299860
 30
0.0
 10
39.149331
 20
20.524051
 30
0.0
 10
39.149322
 20
23.267735
 30
0.0
  0
SPLINE
  5
107
100
AcDbEntity
  8
Imprimir
 62
5
100
AcDbSpline
 70
8
 71
3
 72
8
 73
4
 74
0
 40
0
 40
0
 40
0
 40
0
 40
1
 40
1
 40
1
 40
1
 10
39.149322
 20
23.267735
 30
0.0
 10
39.149319
 20
24.585304
 30
0.0
 10
39.672748
 20
25.848910
 30
0.0
 10
40.604462
 20
26.780573
 30
0.0
  0
SPLINE
  5
108
100
AcDbEntity
  8
Imprimir
 62
5
100
AcDbSpline
 70
8
 71
3
 72
8
 73
4
 74
0
 40
0
 40
0
 40
0
 40
0
 40
1
 40
1
 40
1
 40
1
 10
40.604462
 20
26.780573
 30
0.0
 10
41.536175
 20
27.712235
 30
0.0
 10
42.799851
 20
28.235638
 30
0.0
 10
44.117494
 20
28.235637
 30
0.0
  0
SPLINE
  5
109
100
AcDbEntity
  8
Imprimir
 62
5
100
AcDbSpline
 70
8
 71
3
 72
8
 73
4
 74
0
 40
0
 40
0
 40
0
 40
0
 40
1
 40
1
 40
1
 40
1
 10
44.117494
 20
28.235637
 30
0.0
 10
45.435136
 20
28.235636
 30
0.0
 10
46.698811
 20
27.712233
 30
0.0
 10
47.630523
 20
26.780571
 30
0.0
  0
SPLINE
  5
10a
100
AcDbEntity
  8
Imprimir
 62
5
100
AcDbSpline
 70
8
 71
3
 72
8
 73
4
 74
0
 40
0
 40
0
 40
0
 40
0
 40
1
 40
1
 40
1
 40
1
 10
47.630523
 20
26.780571
 30
0.0
 10
48.562235
 20
25.848908
 30
0.0
 10
49.085664
 20
24.585303
 30
0.0
 10
49.085661
 20
23.267735
 30
0.0
  0
SPLINE
  5
10b
100
AcDbEntity
  8
Imprimir
 62
5
100
AcDbSpline
 70
8
 71
3
 72
8
 73
4
 74
0
 40
0
 40
0
 40
0
 40
0
 40
1
 40
1
 40
1
 40
1
 10
49.085661
 20
23.267735
 30
0.0
 10
49.085652
 20
20.524053
 30
0.0
 10
46.861331
 20
18.299863
 30
0.0
 10
44.117494
 20
18.299862
 30
0.0
  0
LWPOLYLINE
  5
10c
100
AcDbEntity
  8
Imprimir
 62
5
100
AcDbPolyline
 90
2
 70
1
 10
44.098072
 20
38.648338
 30
0.0
 10
44.098072
 20
38.648338
 30
0.0
  0
SPLINE
  5
10d
100
AcDbEntity
  8
Imprimir
 62
5
100
AcDbSpline
 70
8
 71
3
 72
8
 73
4
 74
0
 40
0
 40
0
 40
0
 40
0
 40
1
 40
1
 40
1
 40
1
 10
25.807965
 20
111.995444
 30
0.0
 10
24.404689
 20
111.995444
 30
0.0
 10
23.058887
 20
112.552862
 30
0.0
 10
22.066621
 20
113.545073
 30
0.0
  0
SPLINE
  5
10e
100
AcDbEntity
  8
Imprimir
 62
5
100
AcDbSpline
 70
8
 71
3
 72
8
 73
4
 74
0
 40
0
 40
0
 40
0
 40
0
 40
1
 40
1
 40
1
 40
1
 10
22.066621
 20
113.545073
 30
0.0
 10
21.074354
 20
114.537284
 30
0.0
 10
20.516905
 20
115.883010
 30
0.0
 10
20.516905
 20
117.286208
 30
0.0
  0
SPLINE
  5
10f
100
AcDbEntity
  8
Imprimir
 62
5
100
AcDbSpline
 70
8
 71
3
 72
8
 73
4
 74
0
 40
0
 40
0
 40
0
 40
0
 40
1
 40
1
 40
1
 40
1
 10
20.516905
 20
117.286208
 30
0.0
 10
20.516905
 20
118.689406
 30
0.0
 10
21.074354
 20
120.035132
 30
0.0
 10
22.066621
 20
121.027343
 30
0.0
  0
SPLINE
  5
110
100
AcDbEntity
  8
Imprimir
 62
5
100
AcDbSpline
 70
8
 71
3
 72
8
 73
4
 74
0
 40
0
 40
0
 40
0
 40
0
 40
1
 40
1
 40
1
 40
1
 10
22.066621
 20
121.027343
 30
0.0
 10
23.058887
 20
122.019553
 30
0.0
 10
24.404689
 20
122.576972
 30
0.0
 10
25.807965
 20
122.576971
 30
0.0
  0
SPLINE
  5
111
100
AcDbEntity
  8
Imprimir
 62
5
100
AcDbSpline
 70
8
 71
3
 72
8
 73
4
 74
0
 40
0
 40
0
 40
0
 40
0
 40
1
 40
1
 40
1
 40
1
 10
25.807965
 20
122.576971
 30
0.0
 10
28.730137
 20
122.576971
 30
0.0
 10
31.099024
 20
120.208215
 30
0.0
 10
31.099023
 20
117.286208
 30
0.0
  0
SPLINE
  5
112
100
AcDbEntity
  8
Imprimir
 62
5
100
AcDbSpline
 70
8
 71
3
 72
8
 73
4
 74
0
 40
0
 40
0
 40
0
 40
0
 40
1
 40
1
 40
1
 40
1
 10
31.099023
 20
117.286208
 30
0.0
 10
31.099024
 20
114.364201
 30
0.0
 10
28.730137
 20
111.995445
 30
0.0
 10
25.807965
 20
111.995444
 30
0.0
  0
LWPOLYLINE
  5
113
100
AcDbEntity
  8
Imprimir
 62
5
100
AcDbPolyline
 90
2
 70
1
 10
44.117494
 20
18.299862
 30
0.0
 10
44.117494
 20
18.299862
 30
0.0
  0
SPLINE
  5
114
100
AcDbEntity
  8
Imprimir
 62
5
100
AcDbSpline
 70
8
 71
3
 72
8
 73
4
 74
0
 40
0
 40
0
 40
0
 40
0
 40
1
 40
1
 40
1
 40
1
 10
43.560718
 20
127.066949
 30
0.0
 10
41.485604
 20
127.066948
 30
0.0
 10
39.803391
 20
128.749064
 30
0.0
 10
39.803389
 20
130.824061
 30
0.0
  0
SPLINE
  5
115
100
AcDbEntity
  8
Imprimir
 62
5
100
AcDbSpline
 70
8
 71
3
 72
8
 73
4
 74
0
 40
0
 40
0
 40
0
 40
0
 40
1
 40
1
 40
1
 40
1
 10
39.803389
 20
130.824061
 30
0.0
 10
39.803382
 20
131.820514
 30
0.0
 10
40.199240
 20
132.776158
 30
0.0
 10
40.903876
 20
133.480759
 30
0.0
  0
SPLINE
  5
116
100
AcDbEntity
  8
Imprimir
 62
5
100
AcDbSpline
 70
8
 71
3
 72
8
 73
4
 74
0
 40
0
 40
0
 40
0
 40
0
 40
1
 40
1
 40
1
 40
1
 10
40.903876
 20
133.480759
 30
0.0
 10
41.608513
 20
134.185360
 30
0.0
 10
42.564208
 20
134.581201
 30
0.0
 10
43.560718
 20
134.581201
 30
0.0
  0
SPLINE
  5
117
100
AcDbEntity
  8
Imprimir
 62
5
100
AcDbSpline
 70
8
 71
3
 72
8
 73
4
 74
0
 40
0
 40
0
 40
0
 40
0
 40
1
 40
1
 40
1
 40
1
 10
43.560718
 20
134.581201
 30
0.0
 10
44.557227
 20
134.581201
 30
0.0
 10
45.512921
 20
134.185359
 30
0.0
 10
46.217557
 20
133.480758
 30
0.0
  0
SPLINE
  5
118
100
AcDbEntity
  8
Imprimir
 62
5
100
AcDbSpline
 70
8
 71
3
 72
8
 73
4
 74
0
 40
0
 40
0
 40
0
 40
0
 40
1
 40
1
 40
1
 40
1
 10
46.217557
 20
133.480758
 30
0.0
 10
46.922193
 20
132.776157
 30
0.0
 10
47.318050
 20
131.820514
 30
0.0
 10
47.318044
 20
130.824061
 30
0.0
  0
SPLINE
  5
119
100
AcDbEntity
  8
Imprimir
 62
5
100
AcDbSpline
 70
8
 71
3
 72
8
 73
4
 74
0
 40
0
 40
0
 40
0
 40
0
 40
1
 40
1
 40
1
 40
1
 10
47.318044
 20
130.824061
 30
0.0
 10
47.318042
 20
128.749065
 30
0.0
 10
45.635830
 20
127.066949
 30
0.0
 10
43.560718
 20
127.066949
 30
0.0
  0
LWPOLYLINE
  5
11a
100
AcDbEntity
  8
Imprimir
 62
5
100
AcDbPolyline
 90
2
 70
1
 10
25.807965
 20
111.995444
 30
0.0
 10
25.807965
 20
111.995444
 30
0.0
  0
SPLINE
  5
11b
100
AcDbEntity
  8
Imprimir
 62
5
100
AcDbSpline
 70
8
 71
3
 72
8
 73
4
 74
0
 40
0
 40
0
 40
0
 40
0
 40
1
 40
1
 40
1
 40
1
 10
30.201449
 20
49.009532
 30
0.0
 10
29.005459
 20
51.978281
 30
0.0
 10
25.929225
 20
53.882330
 30
0.0
 10
22.796186
 20
54.093147
 30
0.0
  0
SPLINE
  5
11c
100
AcDbEntity
  8
Imprimir
 62
5
100
AcDbSpline
 70
8
 71
3
 72
8
 73
4
 74
0
 40
0
 40
0
 40
0
 40
0
 40
1
 40
1
 40
1
 40
1
 10
22.796186
 20
54.093147
 30
0.0
 10
19.192936
 20
54.454070
 30
0.0
 10
15.467394
 20
52.414568
 30
0.0
 10
13.921431
 20
49.122847
 30
0.0
  0
SPLINE
  5
11d
100
AcDbEntity
  8
Imprimir
 62
5
100
AcDbSpline
 70
8
 71
3
 72
8
 73
4
 74
0
 40
0
 40
0
 40
0
 40
0
 40
1
 40
1
 40
1
 40
1
 10
13.921431
 20
49.122847
 30
0.0
 10
13.921431
 20
46.578069
 30
0.0
 10
13.921431
 20
44.033288
 30
0.0
 10
13.921431
 20
41.488510
 30
0.0
  0
SPLINE
  5
11e
100
AcDbEntity
  8
Imprimir
 62
5
100
AcDbSpline
 70
8
 71
3
 72
8
 73
4
 74
0
 40
0
 40
0
 40
0
 40
0
 40
1
 40
1
 40
1
 40
1
 10
13.921431
 20
41.488510
 30
0.0
 10
15.510498
 20
38.089606
 30
0.0
 10
19.421034
 20
36.035824
 30
0.0
 10
23.122172
 20
36.544747
 30
0.0
  0
SPLINE
  5
11f
100
AcDbEntity
  8
Imprimir
 62
5
100
AcDbSpline
 70
8
 71
3
 72
8
 73
4
 74
0
 40
0
 40
0
 40
0
 40
0
 40
1
 40
1
 40
1
 40
1
 10
23.122172
 20
36.544747
 30
0.0
 10
26.158279
 20
36.874905
 30
0.0
 10
29.086991
 20
38.831402
 30
0.0
 10
30.201449
 20
41.721834
 30
0.0
  0
SPLINE
  5
120
100
AcDbEntity
  8
Imprimir
 62
5
100
AcDbSpline
 70
8
 71
3
 72
8
 73
4
 74
0
 40
0
 40
0
 40
0
 40
0
 40
1
 40
1
 40
1
 40
1
 10
30.201449
 20
41.721834
 30
0.0
 10
30.201449
 20
44.151068
 30
0.0
 10
30.201449
 20
46.580298
 30
0.0
 10
30.201449
 20
49.009532
 30
0.0
  0
LWPOLYLINE
  5
121
100
AcDbEntity
  8
Imprimir
 62
5
100
AcDbPolyline
 90
2
 70
1
 10
43.560718
 20
127.066949
 30
0.0
 10
43.560718
 20
127.066949
 30
0.0
  0
SPLINE
  5
122
100
AcDbEntity
  8
Imprimir
 62
5
100
AcDbSpline
 70
8
 71
3
 72
8
 73
4
 74
0
 40
0
 40
0
 40
0
 40
0
 40
1
 40
1
 40
1
 40
1
 10
20.563830
 20
90.675918
 30
0.0
 10
20.567979
 20
90.378043
 30
0.0
 10
20.599328
 20
90.013954
 30
0.0
 10
20.302998
 20
89.834715
 30
0.0
  0
SPLINE
  5
123
100
AcDbEntity
  8
Imprimir
 62
5
100
AcDbSpline
 70
8
 71
3
 72
8
 73
4
 74
0
 40
0
 40
0
 40
0
 40
0
 40
1
 40
1
 40
1
 40
1
 10
20.302998
 20
89.834715
 30
0.0
 10
20.014053
 20
89.664309
 30
0.0
 10
19.665269
 20
89.758139
 30
0.0
 10
19.346228
 20
89.733772
 30
0.0
  0
SPLINE
  5
124
100
AcDbEntity
  8
Imprimir
 62
5
100
AcDbSpline
 70
8
 71
3
 72
8
 73
4
 74
0
 40
0
 40
0
 40
0
 40
0
 40
1
 40
1
 40
1
 40
1
 10
19.346228
 20
89.733772
 30
0.0
 10
16.143474
 20
89.735748
 30
0.0
 10
12.940514
 20
89.729708
 30
0.0
 10
9.737888
 20
89.736820
 30
0.0
  0
SPLINE
  5
125
100
AcDbEntity
  8
Imprimir
 62
5
100
AcDbSpline
 70
8
 71
3
 72
8
 73
4
 74
0
 40
0
 40
0
 40
0
 40
0
 40
1
 40
1
 40
1
 40
1
 10
9.737888
 20
89.736820
 30
0.0
 10
9.366009
 20
89.761769
 30
0.0
 10
9.154495
 20
90.146139
 30
0.0
 10
9.206031
 20
90.488421
 30
0.0
  0
SPLINE
  5
126
100
AcDbEntity
  8
Imprimir
 62
5
100
AcDbSpline
 70
8
 71
3
 72
8
 73
4
 74
0
 40
0
 40
0
 40
0
 40
0
 40
1
 40
1
 40
1
 40
1
 10
9.206031
 20
90.488421
 30
0.0
 10
9.169904
 20
90.796545
 30
0.0
 10
9.292575
 20
91.153347
 30
0.0
 10
9.622044
 20
91.241974
 30
0.0
  0
SPLINE
  5
127
100
AcDbEntity
  8
Imprimir
 62
5
100
AcDbSpline
 70
8
 71
3
 72
8
 73
4
 74
0
 40
0
 40
0
 40
0
 40
0
 40
1
 40
1
 40
1
 40
1
 10
9.622044
 20
91.241974
 30
0.0
 10
10.038962
 20
91.297512
 30
0.0
 10
10.465527
 20
91.255379
 30
0.0
 10
10.886588
 20
91.268531
 30
0.0
  0
SPLINE
  5
128
100
AcDbEntity
  8
Imprimir
 62
5
100
AcDbSpline
 70
8
 71
3
 72
8
 73
4
 74
0
 40
0
 40
0
 40
0
 40
0
 40
1
 40
1
 40
1
 40
1
 10
10.886588
 20
91.268531
 30
0.0
 10
13.935023
 20
91.266555
 30
0.0
 10
16.983664
 20
91.272595
 30
0.0
 10
20.031974
 20
91.265483
 30
0.0
  0
SPLINE
  5
129
100
AcDbEntity
  8
Imprimir
 62
5
100
AcDbSpline
 70
8
 71
3
 72
8
 73
4
 74
0
 40
0
 40
0
 40
0
 40
0
 40
1
 40
1
 40
1
 40
1
 10
20.031974
 20
91.265483
 30
0.0
 10
20.327133
 20
91.241466
 30
0.0
 10
20.570115
 20
90.972062
 30
0.0
 10
20.563830
 20
90.675920
 30
0.0
  0
LWPOLYLINE
  5
12a
100
AcDbEntity
  8
Imprimir
 62
5
100
AcDbPolyline
 90
2
 70
1
 10
30.201449
 20
49.009532
 30
0.0
 10
30.201449
 20
49.009532
 30
0.0
  0
SPLINE
  5
12b
100
AcDbEntity
  8
Imprimir
 62
5
100
AcDbSpline
 70
8
 71
3
 72
8
 73
4
 74
0
 40
0
 40
0
 40
0
 40
0
 40
1
 40
1
 40
1
 40
1
 10
20.507536
 20
86.769254
 30
0.0
 10
20.511684
 20
86.471382
 30
0.0
 10
20.543028
 20
86.107299
 30
0.0
 10
20.246703
 20
85.928062
 30
0.0
  0
SPLINE
  5
12c
100
AcDbEntity
  8
Imprimir
 62
5
100
AcDbSpline
 70
8
 71
3
 72
8
 73
4
 74
0
 40
0
 40
0
 40
0
 40
0
 40
1
 40
1
 40
1
 40
1
 10
20.246703
 20
85.928062
 30
0.0
 10
19.957758
 20
85.757656
 30
0.0
 10
19.608974
 20
85.851487
 30
0.0
 10
19.289933
 20
85.827120
 30
0.0
  0
SPLINE
  5
12d
100
AcDbEntity
  8
Imprimir
 62
5
100
AcDbSpline
 70
8
 71
3
 72
8
 73
4
 74
0
 40
0
 40
0
 40
0
 40
0
 40
1
 40
1
 40
1
 40
1
 10
19.289933
 20
85.827120
 30
0.0
 10
16.087179
 20
85.829095
 30
0.0
 10
12.884219
 20
85.823056
 30
0.0
 10
9.681593
 20
85.830168
 30
0.0
  0
SPLINE
  5
12e
100
AcDbEntity
  8
Imprimir
 62
5
100
AcDbSpline
 70
8
 71
3
 72
8
 73
4
 74
0
 40
0
 40
0
 40
0
 40
0
 40
1
 40
1
 40
1
 40
1
 10
9.681593
 20
85.830168
 30
0.0
 10
9.309711
 20
85.855116
 30
0.0
 10
9.098200
 20
86.239492
 30
0.0
 10
9.149736
 20
86.581771
 30
0.0
  0
SPLINE
  5
12f
100
AcDbEntity
  8
Imprimir
 62
5
100
AcDbSpline
 70
8
 71
3
 72
8
 73
4
 74
0
 40
0
 40
0
 40
0
 40
0
 40
1
 40
1
 40
1
 40
1
 10
9.149736
 20
86.581771
 30
0.0
 10
9.113609
 20
86.889895
 30
0.0
 10
9.236288
 20
87.246689
 30
0.0
 10
9.565749
 20
87.335315
 30
0.0
  0
SPLINE
  5
130
100
AcDbEntity
  8
Imprimir
 62
5
100
AcDbSpline
 70
8
 71
3
 72
8
 73
4
 74
0
 40
0
 40
0
 40
0
 40
0
 40
1
 40
1
 40
1
 40
1
 10
9.565749
 20
87.335315
 30
0.0
 10
9.982667
 20
87.390857
 30
0.0
 10
10.409232
 20
87.348721
 30
0.0
 10
10.830294
 20
87.361872
 30
0.0
  0
SPLINE
  5
131
100
AcDbEntity
  8
Imprimir
 62
5
100
AcDbSpline
 70
8
 71
3
 72
8
 73
4
 74
0
 40
0
 40
0
 40
0
 40
0
 40
1
 40
1
 40
1
 40
1
 10
10.830294
 20
87.361872
 30
0.0
 10
13.878728
 20
87.359897
 30
0.0
 10
16.927369
 20
87.365936
 30
0.0
 10
19.975679
 20
87.358824
 30
0.0
  0
SPLINE
  5
132
100
AcDbEntity
  8
Imprimir
 62
5
100
AcDbSpline
 70
8
 71
3
 72
8
 73
4
 74
0
 40
0
 40
0
 40
0
 40
0
 40
1
 40
1
 40
1
 40
1
 10
19.975679
 20
87.358824
 30
0.0
 10
20.270841
 20
87.334807
 30
0.0
 10
20.513821
 20
87.065395
 30
0.0
 10
20.507536
 20
86.769254
 30
0.0
  0
LWPOLYLINE
  5
133
100
AcDbEntity
  8
Imprimir
 62
5
100
AcDbPolyline
 90
2
 70
1
 10
20.563830
 20
90.675920
 30
0.0
 10
20.563830
 20
90.675918
 30
0.0
  0
SPLINE
  5
134
100
AcDbEntity
  8
Imprimir
 62
5
100
AcDbSpline
 70
8
 71
3
 72
8
 73
4
 74
0
 40
0
 40
0
 40
0
 40
0
 40
1
 40
1
 40
1
 40
1
 10
20.563830
 20
82.862629
 30
0.0
 10
20.567979
 20
82.564758
 30
0.0
 10
20.599323
 20
82.200674
 30
0.0
 10
20.302998
 20
82.021438
 30
0.0
  0
SPLINE
  5
135
100
AcDbEntity
  8
Imprimir
 62
5
100
AcDbSpline
 70
8
 71
3
 72
8
 73
4
 74
0
 40
0
 40
0
 40
0
 40
0
 40
1
 40
1
 40
1
 40
1
 10
20.302998
 20
82.021438
 30
0.0
 10
20.014053
 20
81.851032
 30
0.0
 10
19.665269
 20
81.944862
 30
0.0
 10
19.346228
 20
81.920495
 30
0.0
  0
SPLINE
  5
136
100
AcDbEntity
  8
Imprimir
 62
5
100
AcDbSpline
 70
8
 71
3
 72
8
 73
4
 74
0
 40
0
 40
0
 40
0
 40
0
 40
1
 40
1
 40
1
 40
1
 10
19.346228
 20
81.920495
 30
0.0
 10
16.143474
 20
81.922471
 30
0.0
 10
12.940514
 20
81.916431
 30
0.0
 10
9.737888
 20
81.923543
 30
0.0
  0
SPLINE
  5
137
100
AcDbEntity
  8
Imprimir
 62
5
100
AcDbSpline
 70
8
 71
3
 72
8
 73
4
 74
0
 40
0
 40
0
 40
0
 40
0
 40
1
 40
1
 40
1
 40
1
 10
9.737888
 20
81.923543
 30
0.0
 10
9.366006
 20
81.948492
 30
0.0
 10
9.154495
 20
82.332864
 30
0.0
 10
9.206031
 20
82.675143
 30
0.0
  0
SPLINE
  5
138
100
AcDbEntity
  8
Imprimir
 62
5
100
AcDbSpline
 70
8
 71
3
 72
8
 73
4
 74
0
 40
0
 40
0
 40
0
 40
0
 40
1
 40
1
 40
1
 40
1
 10
9.206031
 20
82.675143
 30
0.0
 10
9.169904
 20
82.983268
 30
0.0
 10
9.292583
 20
83.340062
 30
0.0
 10
9.622044
 20
83.428688
 30
0.0
  0
SPLINE
  5
139
100
AcDbEntity
  8
Imprimir
 62
5
100
AcDbSpline
 70
8
 71
3
 72
8
 73
4
 74
0
 40
0
 40
0
 40
0
 40
0
 40
1
 40
1
 40
1
 40
1
 10
9.622044
 20
83.428688
 30
0.0
 10
10.038962
 20
83.484229
 30
0.0
 10
10.465527
 20
83.442094
 30
0.0
 10
10.886588
 20
83.455245
 30
0.0
  0
SPLINE
  5
13a
100
AcDbEntity
  8
Imprimir
 62
5
100
AcDbSpline
 70
8
 71
3
 72
8
 73
4
 74
0
 40
0
 40
0
 40
0
 40
0
 40
1
 40
1
 40
1
 40
1
 10
10.886588
 20
83.455245
 30
0.0
 10
13.935023
 20
83.453270
 30
0.0
 10
16.983664
 20
83.459309
 30
0.0
 10
20.031974
 20
83.452197
 30
0.0
  0
SPLINE
  5
13b
100
AcDbEntity
  8
Imprimir
 62
5
100
AcDbSpline
 70
8
 71
3
 72
8
 73
4
 74
0
 40
0
 40
0
 40
0
 40
0
 40
1
 40
1
 40
1
 40
1
 10
20.031974
 20
83.452197
 30
0.0
 10
20.327133
 20
83.428180
 30
0.0
 10
20.570115
 20
83.158771
 30
0.0
 10
20.563830
 20
82.862629
 30
0.0
  0
LWPOLYLINE
  5
13c
100
AcDbEntity
  8
Imprimir
 62
5
100
AcDbPolyline
 90
2
 70
1
 10
20.507536
 20
86.769254
 30
0.0
 10
20.507536
 20
86.769254
 30
0.0
  0
SPLINE
  5
13d
100
AcDbEntity
  8
Imprimir
 62
5
100
AcDbSpline
 70
8
 71
3
 72
8
 73
4
 74
0
 40
0
 40
0
 40
0
 40
0
 40
1
 40
1
 40
1
 40
1
 10
20.563830
 20
78.955985
 30
0.0
 10
20.567979
 20
78.658114
 30
0.0
 10
20.599323
 20
78.294030
 30
0.0
 10
20.302998
 20
78.114791
 30
0.0
  0
SPLINE
  5
13e
100
AcDbEntity
  8
Imprimir
 62
5
100
AcDbSpline
 70
8
 71
3
 72
8
 73
4
 74
0
 40
0
 40
0
 40
0
 40
0
 40
1
 40
1
 40
1
 40
1
 10
20.302998
 20
78.114791
 30
0.0
 10
20.014056
 20
77.944385
 30
0.0
 10
19.665269
 20
78.038215
 30
0.0
 10
19.346228
 20
78.013848
 30
0.0
  0
SPLINE
  5
13f
100
AcDbEntity
  8
Imprimir
 62
5
100
AcDbSpline
 70
8
 71
3
 72
8
 73
4
 74
0
 40
0
 40
0
 40
0
 40
0
 40
1
 40
1
 40
1
 40
1
 10
19.346228
 20
78.013848
 30
0.0
 10
16.143474
 20
78.015824
 30
0.0
 10
12.940514
 20
78.009784
 30
0.0
 10
9.737888
 20
78.016896
 30
0.0
  0
SPLINE
  5
140
100
AcDbEntity
  8
Imprimir
 62
5
100
AcDbSpline
 70
8
 71
3
 72
8
 73
4
 74
0
 40
0
 40
0
 40
0
 40
0
 40
1
 40
1
 40
1
 40
1
 10
9.737888
 20
78.016896
 30
0.0
 10
9.366006
 20
78.041845
 30
0.0
 10
9.154495
 20
78.426220
 30
0.0
 10
9.206031
 20
78.768502
 30
0.0
  0
SPLINE
  5
141
100
AcDbEntity
  8
Imprimir
 62
5
100
AcDbSpline
 70
8
 71
3
 72
8
 73
4
 74
0
 40
0
 40
0
 40
0
 40
0
 40
1
 40
1
 40
1
 40
1
 10
9.206031
 20
78.768502
 30
0.0
 10
9.169904
 20
79.076624
 30
0.0
 10
9.292583
 20
79.433418
 30
0.0
 10
9.622044
 20
79.522047
 30
0.0
  0
SPLINE
  5
142
100
AcDbEntity
  8
Imprimir
 62
5
100
AcDbSpline
 70
8
 71
3
 72
8
 73
4
 74
0
 40
0
 40
0
 40
0
 40
0
 40
1
 40
1
 40
1
 40
1
 10
9.622044
 20
79.522047
 30
0.0
 10
10.038962
 20
79.577588
 30
0.0
 10
10.465527
 20
79.535452
 30
0.0
 10
10.886588
 20
79.548604
 30
0.0
  0
SPLINE
  5
143
100
AcDbEntity
  8
Imprimir
 62
5
100
AcDbSpline
 70
8
 71
3
 72
8
 73
4
 74
0
 40
0
 40
0
 40
0
 40
0
 40
1
 40
1
 40
1
 40
1
 10
10.886588
 20
79.548604
 30
0.0
 10
13.935023
 20
79.546628
 30
0.0
 10
16.983664
 20
79.552668
 30
0.0
 10
20.031974
 20
79.545556
 30
0.0
  0
SPLINE
  5
144
100
AcDbEntity
  8
Imprimir
 62
5
100
AcDbSpline
 70
8
 71
3
 72
8
 73
4
 74
0
 40
0
 40
0
 40
0
 40
0
 40
1
 40
1
 40
1
 40
1
 10
20.031974
 20
79.545556
 30
0.0
 10
20.327133
 20
79.521539
 30
0.0
 10
20.570115
 20
79.252127
 30
0.0
 10
20.563830
 20
78.955985
 30
0.0
  0
LWPOLYLINE
  5
145
100
AcDbEntity
  8
Imprimir
 62
5
100
AcDbPolyline
 90
2
 70
1
 10
20.563830
 20
82.862629
 30
0.0
 10
20.563830
 20
82.862629
 30
0.0
  0
SPLINE
  5
146
100
AcDbEntity
  8
Imprimir
 62
5
100
AcDbSpline
 70
8
 71
3
 72
8
 73
4
 74
0
 40
0
 40
0
 40
0
 40
0
 40
1
 40
1
 40
1
 40
1
 10
20.563830
 20
75.049330
 30
0.0
 10
20.567979
 20
74.751458
 30
0.0
 10
20.599314
 20
74.387380
 30
0.0
 10
20.302998
 20
74.208135
 30
0.0
  0
SPLINE
  5
147
100
AcDbEntity
  8
Imprimir
 62
5
100
AcDbSpline
 70
8
 71
3
 72
8
 73
4
 74
0
 40
0
 40
0
 40
0
 40
0
 40
1
 40
1
 40
1
 40
1
 10
20.302998
 20
74.208135
 30
0.0
 10
20.014059
 20
74.037721
 30
0.0
 10
19.665269
 20
74.131554
 30
0.0
 10
19.346228
 20
74.107187
 30
0.0
  0
SPLINE
  5
148
100
AcDbEntity
  8
Imprimir
 62
5
100
AcDbSpline
 70
8
 71
3
 72
8
 73
4
 74
0
 40
0
 40
0
 40
0
 40
0
 40
1
 40
1
 40
1
 40
1
 10
19.346228
 20
74.107187
 30
0.0
 10
16.143474
 20
74.109163
 30
0.0
 10
12.940514
 20
74.103123
 30
0.0
 10
9.737888
 20
74.110235
 30
0.0
  0
SPLINE
  5
149
100
AcDbEntity
  8
Imprimir
 62
5
100
AcDbSpline
 70
8
 71
3
 72
8
 73
4
 74
0
 40
0
 40
0
 40
0
 40
0
 40
1
 40
1
 40
1
 40
1
 10
9.737888
 20
74.110235
 30
0.0
 10
9.366003
 20
74.135184
 30
0.0
 10
9.154498
 20
74.519576
 30
0.0
 10
9.206031
 20
74.861858
 30
0.0
  0
SPLINE
  5
14a
100
AcDbEntity
  8
Imprimir
 62
5
100
AcDbSpline
 70
8
 71
3
 72
8
 73
4
 74
0
 40
0
 40
0
 40
0
 40
0
 40
1
 40
1
 40
1
 40
1
 10
9.206031
 20
74.861858
 30
0.0
 10
9.169904
 20
75.169977
 30
0.0
 10
9.292589
 20
75.526762
 30
0.0
 10
9.622044
 20
75.615386
 30
0.0
  0
SPLINE
  5
14b
100
AcDbEntity
  8
Imprimir
 62
5
100
AcDbSpline
 70
8
 71
3
 72
8
 73
4
 74
0
 40
0
 40
0
 40
0
 40
0
 40
1
 40
1
 40
1
 40
1
 10
9.622044
 20
75.615386
 30
0.0
 10
10.038962
 20
75.670924
 30
0.0
 10
10.465527
 20
75.628791
 30
0.0
 10
10.886588
 20
75.641943
 30
0.0
  0
SPLINE
  5
14c
100
AcDbEntity
  8
Imprimir
 62
5
100
AcDbSpline
 70
8
 71
3
 72
8
 73
4
 74
0
 40
0
 40
0
 40
0
 40
0
 40
1
 40
1
 40
1
 40
1
 10
10.886588
 20
75.641943
 30
0.0
 10
13.935023
 20
75.639967
 30
0.0
 10
16.983664
 20
75.646007
 30
0.0
 10
20.031974
 20
75.638895
 30
0.0
  0
SPLINE
  5
14d
100
AcDbEntity
  8
Imprimir
 62
5
100
AcDbSpline
 70
8
 71
3
 72
8
 73
4
 74
0
 40
0
 40
0
 40
0
 40
0
 40
1
 40
1
 40
1
 40
1
 10
20.031974
 20
75.638895
 30
0.0
 10
20.327133
 20
75.614878
 30
0.0
 10
20.570115
 20
75.345474
 30
0.0
 10
20.563830
 20
75.049332
 30
0.0
  0
LWPOLYLINE
  5
14e
100
AcDbEntity
  8
Imprimir
 62
5
100
AcDbPolyline
 90
2
 70
1
 10
20.563830
 20
78.955985
 30
0.0
 10
20.563830
 20
78.955985
 30
0.0
  0
SPLINE
  5
14f
100
AcDbEntity
  8
Imprimir
 62
5
100
AcDbSpline
 70
8
 71
3
 72
8
 73
4
 74
0
 40
0
 40
0
 40
0
 40
0
 40
1
 40
1
 40
1
 40
1
 10
20.604722
 20
71.142697
 30
0.0
 10
20.608870
 20
70.844825
 30
0.0
 10
20.640211
 20
70.480736
 30
0.0
 10
20.343889
 20
70.301497
 30
0.0
  0
SPLINE
  5
150
100
AcDbEntity
  8
Imprimir
 62
5
100
AcDbSpline
 70
8
 71
3
 72
8
 73
4
 74
0
 40
0
 40
0
 40
0
 40
0
 40
1
 40
1
 40
1
 40
1
 10
20.343889
 20
70.301497
 30
0.0
 10
20.054944
 20
70.131094
 30
0.0
 10
19.706160
 20
70.224924
 30
0.0
 10
19.387119
 20
70.200557
 30
0.0
  0
SPLINE
  5
151
100
AcDbEntity
  8
Imprimir
 62
5
100
AcDbSpline
 70
8
 71
3
 72
8
 73
4
 74
0
 40
0
 40
0
 40
0
 40
0
 40
1
 40
1
 40
1
 40
1
 10
19.387119
 20
70.200557
 30
0.0
 10
16.184365
 20
70.202533
 30
0.0
 10
12.981405
 20
70.196493
 30
0.0
 10
9.778779
 20
70.203605
 30
0.0
  0
SPLINE
  5
152
100
AcDbEntity
  8
Imprimir
 62
5
100
AcDbSpline
 70
8
 71
3
 72
8
 73
4
 74
0
 40
0
 40
0
 40
0
 40
0
 40
1
 40
1
 40
1
 40
1
 10
9.778779
 20
70.203605
 30
0.0
 10
9.406886
 20
70.228554
 30
0.0
 10
9.195386
 20
70.612943
 30
0.0
 10
9.246922
 20
70.955225
 30
0.0
  0
SPLINE
  5
153
100
AcDbEntity
  8
Imprimir
 62
5
100
AcDbSpline
 70
8
 71
3
 72
8
 73
4
 74
0
 40
0
 40
0
 40
0
 40
0
 40
1
 40
1
 40
1
 40
1
 10
9.246922
 20
70.955225
 30
0.0
 10
9.210795
 20
71.263344
 30
0.0
 10
9.333480
 20
71.620129
 30
0.0
 10
9.662935
 20
71.708753
 30
0.0
  0
SPLINE
  5
154
100
AcDbEntity
  8
Imprimir
 62
5
100
AcDbSpline
 70
8
 71
3
 72
8
 73
4
 74
0
 40
0
 40
0
 40
0
 40
0
 40
1
 40
1
 40
1
 40
1
 10
9.662935
 20
71.708753
 30
0.0
 10
10.079853
 20
71.764291
 30
0.0
 10
10.506418
 20
71.722158
 30
0.0
 10
10.927480
 20
71.735310
 30
0.0
  0
SPLINE
  5
155
100
AcDbEntity
  8
Imprimir
 62
5
100
AcDbSpline
 70
8
 71
3
 72
8
 73
4
 74
0
 40
0
 40
0
 40
0
 40
0
 40
1
 40
1
 40
1
 40
1
 10
10.927480
 20
71.735310
 30
0.0
 10
13.975914
 20
71.733334
 30
0.0
 10
17.024555
 20
71.739374
 30
0.0
 10
20.072865
 20
71.732262
 30
0.0
  0
SPLINE
  5
156
100
AcDbEntity
  8
Imprimir
 62
5
100
AcDbSpline
 70
8
 71
3
 72
8
 73
4
 74
0
 40
0
 40
0
 40
0
 40
0
 40
1
 40
1
 40
1
 40
1
 10
20.072865
 20
71.732262
 30
0.0
 10
20.368025
 20
71.708245
 30
0.0
 10
20.611007
 20
71.438841
 30
0.0
 10
20.604722
 20
71.142700
 30
0.0
  0
LWPOLYLINE
  5
157
100
AcDbEntity
  8
Imprimir
 62
5
100
AcDbPolyline
 90
2
 70
1
 10
20.563830
 20
75.049332
 30
0.0
 10
20.563830
 20
75.049330
 30
0.0
  0
SPLINE
  5
158
100
AcDbEntity
  8
Imprimir
 62
5
100
AcDbSpline
 70
8
 71
3
 72
8
 73
4
 74
0
 40
0
 40
0
 40
0
 40
0
 40
1
 40
1
 40
1
 40
1
 10
20.548430
 20
67.236038
 30
0.0
 10
20.552578
 20
66.938173
 30
0.0
 10
20.583916
 20
66.574095
 30
0.0
 10
20.287597
 20
66.394864
 30
0.0
  0
SPLINE
  5
159
100
AcDbEntity
  8
Imprimir
 62
5
100
AcDbSpline
 70
8
 71
3
 72
8
 73
4
 74
0
 40
0
 40
0
 40
0
 40
0
 40
1
 40
1
 40
1
 40
1
 10
20.287597
 20
66.394864
 30
0.0
 10
19.998652
 20
66.224464
 30
0.0
 10
19.649865
 20
66.318291
 30
0.0
 10
19.330824
 20
66.293924
 30
0.0
  0
SPLINE
  5
15a
100
AcDbEntity
  8
Imprimir
 62
5
100
AcDbSpline
 70
8
 71
3
 72
8
 73
4
 74
0
 40
0
 40
0
 40
0
 40
0
 40
1
 40
1
 40
1
 40
1
 10
19.330824
 20
66.293924
 30
0.0
 10
16.128070
 20
66.295900
 30
0.0
 10
12.925113
 20
66.289860
 30
0.0
 10
9.722487
 20
66.296972
 30
0.0
  0
SPLINE
  5
15b
100
AcDbEntity
  8
Imprimir
 62
5
100
AcDbSpline
 70
8
 71
3
 72
8
 73
4
 74
0
 40
0
 40
0
 40
0
 40
0
 40
1
 40
1
 40
1
 40
1
 10
9.722487
 20
66.296972
 30
0.0
 10
9.350608
 20
66.321921
 30
0.0
 10
9.139091
 20
66.706288
 30
0.0
 10
9.190630
 20
67.048567
 30
0.0
  0
SPLINE
  5
15c
100
AcDbEntity
  8
Imprimir
 62
5
100
AcDbSpline
 70
8
 71
3
 72
8
 73
4
 74
0
 40
0
 40
0
 40
0
 40
0
 40
1
 40
1
 40
1
 40
1
 10
9.190630
 20
67.048567
 30
0.0
 10
9.154506
 20
67.356691
 30
0.0
 10
9.277188
 20
67.713482
 30
0.0
 10
9.606643
 20
67.802120
 30
0.0
  0
SPLINE
  5
15d
100
AcDbEntity
  8
Imprimir
 62
5
100
AcDbSpline
 70
8
 71
3
 72
8
 73
4
 74
0
 40
0
 40
0
 40
0
 40
0
 40
1
 40
1
 40
1
 40
1
 10
9.606643
 20
67.802120
 30
0.0
 10
10.023561
 20
67.857664
 30
0.0
 10
10.450126
 20
67.815525
 30
0.0
 10
10.871188
 20
67.828677
 30
0.0
  0
SPLINE
  5
15e
100
AcDbEntity
  8
Imprimir
 62
5
100
AcDbSpline
 70
8
 71
3
 72
8
 73
4
 74
0
 40
0
 40
0
 40
0
 40
0
 40
1
 40
1
 40
1
 40
1
 10
10.871188
 20
67.828677
 30
0.0
 10
13.919622
 20
67.826701
 30
0.0
 10
16.968263
 20
67.832741
 30
0.0
 10
20.016570
 20
67.825629
 30
0.0
  0
SPLINE
  5
15f
100
AcDbEntity
  8
Imprimir
 62
5
100
AcDbSpline
 70
8
 71
3
 72
8
 73
4
 74
0
 40
0
 40
0
 40
0
 40
0
 40
1
 40
1
 40
1
 40
1
 10
20.016570
 20
67.825629
 30
0.0
 10
20.311735
 20
67.801612
 30
0.0
 10
20.554712
 20
67.532183
 30
0.0
 10
20.548430
 20
67.236038
 30
0.0
  0
LWPOLYLINE
  5
160
100
AcDbEntity
  8
Imprimir
 62
5
100
AcDbPolyline
 90
2
 70
1
 10
20.604722
 20
71.142700
 30
0.0
 10
20.604722
 20
71.142697
 30
0.0
  0
SPLINE
  5
161
100
AcDbEntity
  8
Imprimir
 62
5
100
AcDbSpline
 70
8
 71
3
 72
8
 73
4
 74
0
 40
0
 40
0
 40
0
 40
0
 40
1
 40
1
 40
1
 40
1
 10
20.507536
 20
63.329406
 30
0.0
 10
20.511684
 20
63.031531
 30
0.0
 10
20.543033
 20
62.667439
 30
0.0
 10
20.246703
 20
62.488203
 30
0.0
  0
SPLINE
  5
162
100
AcDbEntity
  8
Imprimir
 62
5
100
AcDbSpline
 70
8
 71
3
 72
8
 73
4
 74
0
 40
0
 40
0
 40
0
 40
0
 40
1
 40
1
 40
1
 40
1
 10
20.246703
 20
62.488203
 30
0.0
 10
19.957758
 20
62.317803
 30
0.0
 10
19.608974
 20
62.411630
 30
0.0
 10
19.289933
 20
62.387263
 30
0.0
  0
SPLINE
  5
163
100
AcDbEntity
  8
Imprimir
 62
5
100
AcDbSpline
 70
8
 71
3
 72
8
 73
4
 74
0
 40
0
 40
0
 40
0
 40
0
 40
1
 40
1
 40
1
 40
1
 10
19.289933
 20
62.387263
 30
0.0
 10
16.087179
 20
62.389239
 30
0.0
 10
12.884219
 20
62.383199
 30
0.0
 10
9.681593
 20
62.390311
 30
0.0
  0
SPLINE
  5
164
100
AcDbEntity
  8
Imprimir
 62
5
100
AcDbSpline
 70
8
 71
3
 72
8
 73
4
 74
0
 40
0
 40
0
 40
0
 40
0
 40
1
 40
1
 40
1
 40
1
 10
9.681593
 20
62.390311
 30
0.0
 10
9.309714
 20
62.415260
 30
0.0
 10
9.098197
 20
62.799627
 30
0.0
 10
9.149736
 20
63.141906
 30
0.0
  0
SPLINE
  5
165
100
AcDbEntity
  8
Imprimir
 62
5
100
AcDbSpline
 70
8
 71
3
 72
8
 73
4
 74
0
 40
0
 40
0
 40
0
 40
0
 40
1
 40
1
 40
1
 40
1
 10
9.149736
 20
63.141906
 30
0.0
 10
9.113609
 20
63.450033
 30
0.0
 10
9.236280
 20
63.806835
 30
0.0
 10
9.565749
 20
63.895462
 30
0.0
  0
SPLINE
  5
166
100
AcDbEntity
  8
Imprimir
 62
5
100
AcDbSpline
 70
8
 71
3
 72
8
 73
4
 74
0
 40
0
 40
0
 40
0
 40
0
 40
1
 40
1
 40
1
 40
1
 10
9.565749
 20
63.895462
 30
0.0
 10
9.982667
 20
63.951000
 30
0.0
 10
10.409232
 20
63.908867
 30
0.0
 10
10.830294
 20
63.922019
 30
0.0
  0
SPLINE
  5
167
100
AcDbEntity
  8
Imprimir
 62
5
100
AcDbSpline
 70
8
 71
3
 72
8
 73
4
 74
0
 40
0
 40
0
 40
0
 40
0
 40
1
 40
1
 40
1
 40
1
 10
10.830294
 20
63.922019
 30
0.0
 10
13.878728
 20
63.920043
 30
0.0
 10
16.927369
 20
63.926083
 30
0.0
 10
19.975679
 20
63.918971
 30
0.0
  0
SPLINE
  5
168
100
AcDbEntity
  8
Imprimir
 62
5
100
AcDbSpline
 70
8
 71
3
 72
8
 73
4
 74
0
 40
0
 40
0
 40
0
 40
0
 40
1
 40
1
 40
1
 40
1
 10
19.975679
 20
63.918971
 30
0.0
 10
20.270839
 20
63.894954
 30
0.0
 10
20.513821
 20
63.625550
 30
0.0
 10
20.507536
 20
63.329408
 30
0.0
  0
LWPOLYLINE
  5
169
100
AcDbEntity
  8
Imprimir
 62
5
100
AcDbPolyline
 90
2
 70
1
 10
20.548430
 20
67.236038
 30
0.0
 10
20.548430
 20
67.236038
 30
0.0
  0
LWPOLYLINE
  5
16a
100
AcDbEntity
  8
Imprimir
 62
5
100
AcDbPolyline
 90
2
 70
1
 10
20.507536
 20
63.329408
 30
0.0
 10
20.507536
 20
63.329406
 30
0.0
  0
LWPOLYLINE
  5
16b
100
AcDbEntity
  8
Imprimir
 62
5
100
AcDbPolyline
 90
9
 70
1
 10
45.259408
 20
117.311436
 30
0.0
 10
46.732938
 20
115.581639
 30
0.0
 10
46.732932
 20
102.832335
 30
0.0
 10
45.323466
 20
101.294732
 30
0.0
 10
40.710663
 20
101.166603
 30
0.0
 10
39.685595
 20
102.512013
 30
0.0
 10
39.685595
 20
116.094127
 30
0.0
 10
40.582528
 20
117.375469
 30
0.0
 10
45.259408
 20
117.311436
 30
0.0
  0
LWPOLYLINE
  5
16c
100
AcDbEntity
  8
Imprimir
 62
5
100
AcDbPolyline
 90
9
 70
1
 10
48.438404
 20
93.230715
 30
0.0
 10
48.545250
 20
83.097486
 30
0.0
 10
46.301225
 20
80.816688
 30
0.0
 10
42.988617
 20
80.941935
 30
0.0
 10
41.920033
 20
82.758526
 30
0.0
 10
41.813172
 20
93.658055
 30
0.0
 10
43.416048
 20
95.474635
 30
0.0
 10
46.247806
 20
95.474692
 30
0.0
 10
48.438404
 20
93.230715
 30
0.0
  0
SPLINE
  5
16d
100
AcDbEntity
  8
Imprimir
 62
5
100
AcDbSpline
 70
8
 71
3
 72
8
 73
4
 74
0
 40
0
 40
0
 40
0
 40
0
 40
1
 40
1
 40
1
 40
1
 10
30.201449
 20
25.199846
 30
0.0
 10
28.912033
 20
28.388768
 30
0.0
 10
25.518230
 20
30.402457
 30
0.0
 10
22.134866
 20
30.416478
 30
0.0
  0
SPLINE
  5
16e
100
AcDbEntity
  8
Imprimir
 62
5
100
AcDbSpline
 70
8
 71
3
 72
8
 73
4
 74
0
 40
0
 40
0
 40
0
 40
0
 40
1
 40
1
 40
1
 40
1
 10
22.134866
 20
30.416478
 30
0.0
 10
18.739162
 20
30.501571
 30
0.0
 10
15.315222
 20
28.482008
 30
0.0
 10
13.921431
 20
25.365248
 30
0.0
  0
SPLINE
  5
16f
100
AcDbEntity
  8
Imprimir
 62
5
100
AcDbSpline
 70
8
 71
3
 72
8
 73
4
 74
0
 40
0
 40
0
 40
0
 40
0
 40
1
 40
1
 40
1
 40
1
 10
13.921431
 20
25.365248
 30
0.0
 10
13.921431
 20
22.836570
 30
0.0
 10
13.921431
 20
20.307896
 30
0.0
 10
13.921431
 20
17.779219
 30
0.0
  0
SPLINE
  5
170
100
AcDbEntity
  8
Imprimir
 62
5
100
AcDbSpline
 70
8
 71
3
 72
8
 73
4
 74
0
 40
0
 40
0
 40
0
 40
0
 40
1
 40
1
 40
1
 40
1
 10
13.921431
 20
17.779219
 30
0.0
 10
15.555868
 20
14.277357
 30
0.0
 10
19.655930
 20
12.211544
 30
0.0
 10
23.446736
 20
12.885166
 30
0.0
  0
SPLINE
  5
171
100
AcDbEntity
  8
Imprimir
 62
5
100
AcDbSpline
 70
8
 71
3
 72
8
 73
4
 74
0
 40
0
 40
0
 40
0
 40
0
 40
1
 40
1
 40
1
 40
1
 10
23.446736
 20
12.885166
 30
0.0
 10
26.378720
 20
13.335952
 30
0.0
 10
29.117846
 20
15.322466
 30
0.0
 10
30.201449
 20
18.113147
 30
0.0
  0
SPLINE
  5
172
100
AcDbEntity
  8
Imprimir
 62
5
100
AcDbSpline
 70
8
 71
3
 72
8
 73
4
 74
0
 40
0
 40
0
 40
0
 40
0
 40
1
 40
1
 40
1
 40
1
 10
30.201449
 20
18.113147
 30
0.0
 10
30.201449
 20
20.475381
 30
0.0
 10
30.201449
 20
22.837612
 30
0.0
 10
30.201449
 20
25.199846
 30
0.0
  0
LWPOLYLINE
  5
173
100
AcDbEntity
  8
Imprimir
 62
5
100
AcDbPolyline
 90
125
 70
1
 10
57.050054
 20
110.049948
 30
0.0
 10
57.050054
 20
104.049943
 30
0.0
 10
54.050051
 20
104.049943
 30
0.0
 10
54.050051
 20
98.049938
 30
0.0
 10
57.050054
 20
98.049938
 30
0.0
 10
57.050054
 20
92.049933
 30
0.0
 10
54.050051
 20
92.049933
 30
0.0
 10
54.050051
 20
86.049929
 30
0.0
 10
57.050054
 20
86.049929
 30
0.0
 10
57.050054
 20
80.049924
 30
0.0
 10
54.050051
 20
80.049924
 30
0.0
 10
54.050051
 20
74.049919
 30
0.0
 10
57.050054
 20
74.049919
 30
0.0
 10
57.050054
 20
68.049917
 30
0.0
 10
54.050051
 20
68.049917
 30
0.0
 10
54.050051
 20
62.049912
 30
0.0
 10
57.050054
 20
62.049912
 30
0.0
 10
57.050054
 20
56.049907
 30
0.0
 10
54.050051
 20
56.049907
 30
0.0
 10
54.050051
 20
50.049902
 30
0.0
 10
57.050054
 20
50.049902
 30
0.0
 10
57.050054
 20
44.049897
 30
0.0
 10
54.050051
 20
44.049897
 30
0.0
 10
54.050051
 20
38.049892
 30
0.0
 10
57.050054
 20
38.049892
 30
0.0
 10
57.050054
 20
32.049887
 30
0.0
 10
54.050051
 20
32.049887
 30
0.0
 10
54.050051
 20
26.049882
 30
0.0
 10
57.050054
 20
26.049882
 30
0.0
 10
57.050054
 20
20.049877
 30
0.0
 10
54.050051
 20
20.049877
 30
0.0
 10
54.050051
 20
10.049869
 30
0.0
 10
57.050054
 20
10.049869
 30
0.0
 10
57.050054
 20
3.049866
 30
0.0
 10
47.300047
 20
3.049866
 30
0.0
 10
47.300047
 20
0.049863
 30
0.0
 10
37.550034
 20
0.049863
 30
0.0
 10
37.550034
 20
3.049866
 30
0.0
 10
31.550029
 20
3.049866
 30
0.0
 10
31.550029
 20
0.049863
 30
0.0
 10
25.550025
 20
0.049863
 30
0.0
 10
25.550025
 20
3.049866
 30
0.0
 10
19.550018
 20
3.049866
 30
0.0
 10
19.550018
 20
0.049863
 30
0.0
 10
9.800007
 20
0.049863
 30
0.0
 10
9.800007
 20
3.049866
 30
0.0
 10
0.050000
 20
3.049866
 30
0.0
 10
0.050000
 20
10.049869
 30
0.0
 10
3.050003
 20
10.049869
 30
0.0
 10
3.050003
 20
20.049877
 30
0.0
 10
0.050000
 20
20.049877
 30
0.0
 10
0.050000
 20
26.049882
 30
0.0
 10
3.050003
 20
26.049882
 30
0.0
 10
3.050003
 20
32.049887
 30
0.0
 10
0.050000
 20
32.049887
 30
0.0
 10
0.050000
 20
38.049892
 30
0.0
 10
3.050003
 20
38.049892
 30
0.0
 10
3.050003
 20
44.049897
 30
0.0
 10
0.050000
 20
44.049897
 30
0.0
 10
0.050000
 20
50.049902
 30
0.0
 10
3.050003
 20
50.049902
 30
0.0
 10
3.050003
 20
56.049907
 30
0.0
 10
0.050000
 20
56.049907
 30
0.0
 10
0.050000
 20
62.049912
 30
0.0
 10
3.050003
 20
62.049912
 30
0.0
 10
3.050003
 20
68.049917
 30
0.0
 10
0.050000
 20
68.049917
 30
0.0
 10
0.050000
 20
74.049919
 30
0.0
 10
3.050003
 20
74.049919
 30
0.0
 10
3.050003
 20
80.049924
 30
0.0
 10
0.050000
 20
80.049924
 30
0.0
 10
0.050000
 20
86.049929
 30
0.0
 10
3.050003
 20
86.049929
 30
0.0
 10
3.050003
 20
92.049933
 30
0.0
 10
0.050000
 20
92.049933
 30
0.0
 10
0.050000
 20
98.049938
 30
0.0
 10
3.050003
 20
98.049938
 30
0.0
 10
3.050003
 20
104.049943
 30
0.0
 10
0.050000
 20
104.049943
 30
0.0
 10
0.050000
 20
110.049948
 30
0.0
 10
3.050003
 20
110.049948
 30
0.0
 10
3.050003
 20
116.049953
 30
0.0
 10
0.050000
 20
116.049953
 30
0.0
 10
0.050000
 20
122.049955
 30
0.0
 10
3.050003
 20
122.049955
 30
0.0
 10
3.050003
 20
128.049960
 30
0.0
 10
0.050000
 20
128.049960
 30
0.0
 10
0.050000
 20
134.049965
 30
0.0
 10
3.050003
 20
134.049965
 30
0.0
 10
3.050003
 20
140.049970
 30
0.0
 10
0.050000
 20
140.049970
 30
0.0
 10
0.050000
 20
146.049975
 30
0.0
 10
3.050003
 20
146.049975
 30
0.0
 10
3.050003
 20
156.049982
 30
0.0
 10
0.050000
 20
156.049982
 30
0.0
 10
0.050000
 20
163.049988
 30
0.0
 10
9.800007
 20
163.049988
 30
0.0
 10
9.800007
 20
166.049990
 30
0.0
 10
19.550018
 20
166.049990
 30
0.0
 10
19.550018
 20
163.049988
 30
0.0
 10
25.550025
 20
163.049988
 30
0.0
 10
25.550025
 20
166.049990
 30
0.0
 10
31.550029
 20
166.049990
 30
0.0
 10
31.550029
 20
163.049988
 30
0.0
 10
37.550034
 20
163.049988
 30
0.0
 10
37.550034
 20
166.049990
 30
0.0
 10
47.300047
 20
166.049990
 30
0.0
 10
47.300047
 20
163.049988
 30
0.0
 10
57.050054
 20
163.049988
 30
0.0
 10
57.050054
 20
156.049982
 30
0.0
 10
54.050051
 20
156.049982
 30
0.0
 10
54.050051
 20
146.049975
 30
0.0
 10
57.050054
 20
146.049975
 30
0.0
 10
57.050054
 20
140.049970
 30
0.0
 10
54.050051
 20
140.049970
 30
0.0
 10
54.050051
 20
134.049965
 30
0.0
 10
57.050054
 20
134.049965
 30
0.0
 10
57.050054
 20
128.049960
 30
0.0
 10
54.050051
 20
128.049960
 30
0.0
 10
54.050051
 20
122.049955
 30
0.0
 10
57.050054
 20
122.049955
 30
0.0
 10
57.050054
 20
116.049953
 30
0.0
 10
54.050051
 20
116.049953
 30
0.0
 10
54.050051
 20
110.049948
 30
0.0
 10
57.050054
 20
110.049948
 30
0.0
  0
SPLINE
  5
174
100
AcDbEntity
  8
Imprimir
 62
7
100
AcDbSpline
 70
8
 71
3
 72
8
 73
4
 74
0
 40
0
 40
0
 40
0
 40
0
 40
1
 40
1
 40
1
 40
1
 10
36.173684
 20
22.504257
 30
0.0
 10
36.173684
 20
22.504257
 30
0.0
 10
37.108861
 20
22.495931
 30
0.0
 10
37.573972
 20
22.508687
 30
0.0
  0
SPLINE
  5
175
100
AcDbEntity
  8
Imprimir
 62
7
100
AcDbSpline
 70
8
 71
3
 72
8
 73
4
 74
0
 40
0
 40
0
 40
0
 40
0
 40
1
 40
1
 40
1
 40
1
 10
37.573972
 20
22.508687
 30
0.0
 10
37.618738
 20
22.509816
 30
0.0
 10
37.665539
 20
22.512667
 30
0.0
 10
37.706489
 20
22.530785
 30
0.0
  0
SPLINE
  5
176
100
AcDbEntity
  8
Imprimir
 62
7
100
AcDbSpline
 70
8
 71
3
 72
8
 73
4
 74
0
 40
0
 40
0
 40
0
 40
0
 40
1
 40
1
 40
1
 40
1
 10
37.706489
 20
22.530785
 30
0.0
 10
37.739083
 20
22.545207
 30
0.0
 10
37.766526
 20
22.570596
 30
0.0
 10
37.790419
 20
22.597046
 30
0.0
  0
SPLINE
  5
177
100
AcDbEntity
  8
Imprimir
 62
7
100
AcDbSpline
 70
8
 71
3
 72
8
 73
4
 74
0
 40
0
 40
0
 40
0
 40
0
 40
1
 40
1
 40
1
 40
1
 10
37.790419
 20
22.597046
 30
0.0
 10
37.816158
 20
22.625539
 30
0.0
 10
37.835998
 20
22.659445
 30
0.0
 10
37.852263
 20
22.694226
 30
0.0
  0
SPLINE
  5
178
100
AcDbEntity
  8
Imprimir
 62
7
100
AcDbSpline
 70
8
 71
3
 72
8
 73
4
 74
0
 40
0
 40
0
 40
0
 40
0
 40
1
 40
1
 40
1
 40
1
 10
37.852263
 20
22.694226
 30
0.0
 10
37.866656
 20
22.725022
 30
0.0
 10
37.877973
 20
22.757816
 30
0.0
 10
37.883183
 20
22.791409
 30
0.0
  0
SPLINE
  5
179
100
AcDbEntity
  8
Imprimir
 62
7
100
AcDbSpline
 70
8
 71
3
 72
8
 73
4
 74
0
 40
0
 40
0
 40
0
 40
0
 40
1
 40
1
 40
1
 40
1
 10
37.883183
 20
22.791409
 30
0.0
 10
37.888376
 20
22.824875
 30
0.0
 10
37.883183
 20
22.859140
 30
0.0
 10
37.883183
 20
22.893006
 30
0.0
  0
LWPOLYLINE
  5
17a
100
AcDbEntity
  8
Imprimir
 62
5
100
AcDbPolyline
 90
2
 70
1
 10
30.201449
 20
25.199846
 30
0.0
 10
30.201449
 20
25.199846
 30
0.0
  0
LWPOLYLINE
  5
17b
100
AcDbEntity
  8
Imprimir
 62
7
100
AcDbPolyline
 90
2
 70
0
 10
37.883183
 20
22.893006
 30
0.0
 10
37.883183
 20
23.613031
 30
0.0
  0
SPLINE
  5
17c
100
AcDbEntity
  8
Imprimir
 62
7
100
AcDbSpline
 70
8
 71
3
 72
8
 73
4
 74
0
 40
0
 40
0
 40
0
 40
0
 40
1
 40
1
 40
1
 40
1
 10
9.323190
 20
20.411014
 30
0.0
 10
11.063116
 20
20.411014
 30
0.0
 10
11.088061
 20
20.404777
 30
0.0
 10
11.088061
 20
20.404777
 30
0.0
  0
LWPOLYLINE
  5
17d
100
AcDbEntity
  8
Imprimir
 62
7
100
AcDbPolyline
 90
5
 70
0
 10
11.075590
 20
18.284439
 30
0.0
 10
9.323190
 20
18.284439
 30
0.0
 10
11.031933
 20
19.138813
 30
0.0
 10
9.366844
 20
19.962002
 30
0.0
 10
11.088061
 20
19.968239
 30
0.0
  0
SPLINE
  5
17e
100
AcDbEntity
  8
Imprimir
 62
7
100
AcDbSpline
 70
8
 71
3
 72
8
 73
4
 74
0
 40
0
 40
0
 40
0
 40
0
 40
1
 40
1
 40
1
 40
1
 10
11.038170
 20
20.835081
 30
0.0
 10
11.038170
 20
20.835081
 30
0.0
 10
11.054624
 20
21.413806
 30
0.0
 10
11.031933
 20
21.714401
 30
0.0
  0
SPLINE
  5
17f
100
AcDbEntity
  8
Imprimir
 62
7
100
AcDbSpline
 70
8
 71
3
 72
8
 73
4
 74
0
 40
0
 40
0
 40
0
 40
0
 40
1
 40
1
 40
1
 40
1
 10
11.031933
 20
21.714401
 30
0.0
 10
11.027079
 20
21.778694
 30
0.0
 10
11.001820
 20
21.843526
 30
0.0
 10
10.963333
 20
21.895255
 30
0.0
  0
SPLINE
  5
180
100
AcDbEntity
  8
Imprimir
 62
7
100
AcDbSpline
 70
8
 71
3
 72
8
 73
4
 74
0
 40
0
 40
0
 40
0
 40
0
 40
1
 40
1
 40
1
 40
1
 10
10.963333
 20
21.895255
 30
0.0
 10
10.916428
 20
21.958303
 30
0.0
 10
10.854816
 20
22.037461
 30
0.0
 10
10.776245
 20
22.038689
 30
0.0
  0
SPLINE
  5
181
100
AcDbEntity
  8
Imprimir
 62
7
100
AcDbSpline
 70
8
 71
3
 72
8
 73
4
 74
0
 40
0
 40
0
 40
0
 40
0
 40
1
 40
1
 40
1
 40
1
 10
10.776245
 20
22.038689
 30
0.0
 10
10.410087
 20
22.044418
 30
0.0
 10
10.005708
 20
22.061266
 30
0.0
 10
9.622532
 20
22.038689
 30
0.0
  0
SPLINE
  5
182
100
AcDbEntity
  8
Imprimir
 62
7
100
AcDbSpline
 70
8
 71
3
 72
8
 73
4
 74
0
 40
0
 40
0
 40
0
 40
0
 40
1
 40
1
 40
1
 40
1
 10
9.622532
 20
22.038689
 30
0.0
 10
9.573030
 20
22.035782
 30
0.0
 10
9.504284
 20
21.999144
 30
0.0
 10
9.460387
 20
21.957617
 30
0.0
  0
SPLINE
  5
183
100
AcDbEntity
  8
Imprimir
 62
7
100
AcDbSpline
 70
8
 71
3
 72
8
 73
4
 74
0
 40
0
 40
0
 40
0
 40
0
 40
1
 40
1
 40
1
 40
1
 10
9.460387
 20
21.957617
 30
0.0
 10
9.411687
 20
21.911548
 30
0.0
 10
9.362224
 20
21.857005
 30
0.0
 10
9.360607
 20
21.783001
 30
0.0
  0
SPLINE
  5
184
100
AcDbEntity
  8
Imprimir
 62
7
100
AcDbSpline
 70
8
 71
3
 72
8
 73
4
 74
0
 40
0
 40
0
 40
0
 40
0
 40
1
 40
1
 40
1
 40
1
 10
9.360607
 20
21.783001
 30
0.0
 10
9.353157
 20
21.442012
 30
0.0
 10
9.366844
 20
20.835081
 30
0.0
 10
9.366844
 20
20.835081
 30
0.0
  0
LWPOLYLINE
  5
185
100
AcDbEntity
  8
Imprimir
 62
7
100
AcDbPolyline
 90
2
 70
1
 10
9.366844
 20
20.835081
 30
0.0
 10
11.038170
 20
20.835081
 30
0.0
  0
SPLINE
  5
186
100
AcDbEntity
  8
Imprimir
 62
7
100
AcDbSpline
 70
8
 71
3
 72
8
 73
4
 74
0
 40
0
 40
0
 40
0
 40
0
 40
1
 40
1
 40
1
 40
1
 10
9.316953
 20
22.468993
 30
0.0
 10
11.056879
 20
22.468993
 30
0.0
 10
11.081824
 20
22.462756
 30
0.0
 10
11.081824
 20
22.462756
 30
0.0
  0
SPLINE
  5
187
100
AcDbEntity
  8
Imprimir
 62
7
100
AcDbSpline
 70
8
 71
3
 72
8
 73
4
 74
0
 40
0
 40
0
 40
0
 40
0
 40
1
 40
1
 40
1
 40
1
 10
9.310716
 20
23.616472
 30
0.0
 10
11.050644
 20
23.616472
 30
0.0
 10
11.075590
 20
23.610235
 30
0.0
 10
11.075590
 20
23.610235
 30
0.0
  0
LWPOLYLINE
  5
188
100
AcDbEntity
  8
Imprimir
 62
7
100
AcDbPolyline
 90
2
 70
1
 10
9.366844
 20
20.835081
 30
0.0
 10
9.366844
 20
20.835081
 30
0.0
  0
LWPOLYLINE
  5
189
100
AcDbEntity
  8
Imprimir
 62
7
100
AcDbPolyline
 90
6
 70
0
 10
11.088061
 20
24.046773
 30
0.0
 10
9.373081
 20
24.053010
 30
0.0
 10
11.088061
 20
25.231669
 30
0.0
 10
9.323190
 20
25.231672
 30
0.0
 10
9.323190
 20
25.231672
 30
0.0
 10
9.323190
 20
25.231672
 30
0.0
  0
SPLINE
  5
18a
100
AcDbEntity
  8
Imprimir
 62
7
100
AcDbSpline
 70
8
 71
3
 72
8
 73
4
 74
0
 40
0
 40
0
 40
0
 40
0
 40
1
 40
1
 40
1
 40
1
 10
9.341899
 20
42.995817
 30
0.0
 10
11.081824
 20
42.995817
 30
0.0
 10
11.106770
 20
42.989579
 30
0.0
 10
11.106770
 20
42.989579
 30
0.0
  0
LWPOLYLINE
  5
18b
100
AcDbEntity
  8
Imprimir
 62
7
100
AcDbPolyline
 90
5
 70
0
 10
11.094298
 20
40.869241
 30
0.0
 10
9.341899
 20
40.869241
 30
0.0
 10
11.050644
 20
41.723615
 30
0.0
 10
9.385553
 20
42.546804
 30
0.0
 10
11.106770
 20
42.553041
 30
0.0
  0
SPLINE
  5
18c
100
AcDbEntity
  8
Imprimir
 62
7
100
AcDbSpline
 70
8
 71
3
 72
8
 73
4
 74
0
 40
0
 40
0
 40
0
 40
0
 40
1
 40
1
 40
1
 40
1
 10
11.056879
 20
43.419884
 30
0.0
 10
11.056879
 20
43.419884
 30
0.0
 10
11.073332
 20
43.998609
 30
0.0
 10
11.050641
 20
44.299203
 30
0.0
  0
SPLINE
  5
18d
100
AcDbEntity
  8
Imprimir
 62
7
100
AcDbSpline
 70
8
 71
3
 72
8
 73
4
 74
0
 40
0
 40
0
 40
0
 40
0
 40
1
 40
1
 40
1
 40
1
 10
11.050641
 20
44.299203
 30
0.0
 10
11.045787
 20
44.363497
 30
0.0
 10
11.020528
 20
44.428329
 30
0.0
 10
10.982042
 20
44.480057
 30
0.0
  0
SPLINE
  5
18e
100
AcDbEntity
  8
Imprimir
 62
7
100
AcDbSpline
 70
8
 71
3
 72
8
 73
4
 74
0
 40
0
 40
0
 40
0
 40
0
 40
1
 40
1
 40
1
 40
1
 10
10.982042
 20
44.480057
 30
0.0
 10
10.935136
 20
44.543106
 30
0.0
 10
10.873527
 20
44.622263
 30
0.0
 10
10.794954
 20
44.623491
 30
0.0
  0
SPLINE
  5
18f
100
AcDbEntity
  8
Imprimir
 62
7
100
AcDbSpline
 70
8
 71
3
 72
8
 73
4
 74
0
 40
0
 40
0
 40
0
 40
0
 40
1
 40
1
 40
1
 40
1
 10
10.794954
 20
44.623491
 30
0.0
 10
10.428799
 20
44.629220
 30
0.0
 10
10.024416
 20
44.646069
 30
0.0
 10
9.641241
 20
44.623491
 30
0.0
  0
SPLINE
  5
190
100
AcDbEntity
  8
Imprimir
 62
7
100
AcDbSpline
 70
8
 71
3
 72
8
 73
4
 74
0
 40
0
 40
0
 40
0
 40
0
 40
1
 40
1
 40
1
 40
1
 10
9.641241
 20
44.623491
 30
0.0
 10
9.591739
 20
44.620584
 30
0.0
 10
9.522995
 20
44.583946
 30
0.0
 10
9.479095
 20
44.542420
 30
0.0
  0
SPLINE
  5
191
100
AcDbEntity
  8
Imprimir
 62
7
100
AcDbSpline
 70
8
 71
3
 72
8
 73
4
 74
0
 40
0
 40
0
 40
0
 40
0
 40
1
 40
1
 40
1
 40
1
 10
9.479095
 20
44.542420
 30
0.0
 10
9.430395
 20
44.496350
 30
0.0
 10
9.380933
 20
44.441808
 30
0.0
 10
9.379316
 20
44.367803
 30
0.0
  0
SPLINE
  5
192
100
AcDbEntity
  8
Imprimir
 62
7
100
AcDbSpline
 70
8
 71
3
 72
8
 73
4
 74
0
 40
0
 40
0
 40
0
 40
0
 40
1
 40
1
 40
1
 40
1
 10
9.379316
 20
44.367803
 30
0.0
 10
9.371865
 20
44.026814
 30
0.0
 10
9.385553
 20
43.419884
 30
0.0
 10
9.385553
 20
43.419884
 30
0.0
  0
LWPOLYLINE
  5
193
100
AcDbEntity
  8
Imprimir
 62
7
100
AcDbPolyline
 90
2
 70
1
 10
9.385553
 20
43.419884
 30
0.0
 10
11.056879
 20
43.419884
 30
0.0
  0
SPLINE
  5
194
100
AcDbEntity
  8
Imprimir
 62
7
100
AcDbSpline
 70
8
 71
3
 72
8
 73
4
 74
0
 40
0
 40
0
 40
0
 40
0
 40
1
 40
1
 40
1
 40
1
 10
9.335662
 20
45.053795
 30
0.0
 10
11.075587
 20
45.053795
 30
0.0
 10
11.100533
 20
45.047558
 30
0.0
 10
11.100533
 20
45.047558
 30
0.0
  0
SPLINE
  5
195
100
AcDbEntity
  8
Imprimir
 62
7
100
AcDbSpline
 70
8
 71
3
 72
8
 73
4
 74
0
 40
0
 40
0
 40
0
 40
0
 40
1
 40
1
 40
1
 40
1
 10
9.298245
 20
47.804000
 30
0.0
 10
9.298245
 20
47.804000
 30
0.0
 10
10.228170
 20
47.779221
 30
0.0
 10
10.720120
 20
47.804000
 30
0.0
  0
SPLINE
  5
196
100
AcDbEntity
  8
Imprimir
 62
7
100
AcDbSpline
 70
8
 71
3
 72
8
 73
4
 74
0
 40
0
 40
0
 40
0
 40
0
 40
1
 40
1
 40
1
 40
1
 10
10.720120
 20
47.804000
 30
0.0
 10
10.781847
 20
47.807104
 30
0.0
 10
10.843637
 20
47.831601
 30
0.0
 10
10.894736
 20
47.866363
 30
0.0
  0
SPLINE
  5
197
100
AcDbEntity
  8
Imprimir
 62
7
100
AcDbSpline
 70
8
 71
3
 72
8
 73
4
 74
0
 40
0
 40
0
 40
0
 40
0
 40
1
 40
1
 40
1
 40
1
 10
10.894736
 20
47.866363
 30
0.0
 10
10.949544
 20
47.903658
 30
0.0
 10
11.017621
 20
47.950233
 30
0.0
 10
11.025699
 20
48.016033
 30
0.0
  0
SPLINE
  5
198
100
AcDbEntity
  8
Imprimir
 62
7
100
AcDbSpline
 70
8
 71
3
 72
8
 73
4
 74
0
 40
0
 40
0
 40
0
 40
0
 40
1
 40
1
 40
1
 40
1
 10
11.025699
 20
48.016033
 30
0.0
 10
11.063547
 20
48.324384
 30
0.0
 10
11.055371
 20
48.511449
 30
0.0
 10
11.025699
 20
48.764388
 30
0.0
  0
SPLINE
  5
199
100
AcDbEntity
  8
Imprimir
 62
7
100
AcDbSpline
 70
8
 71
3
 72
8
 73
4
 74
0
 40
0
 40
0
 40
0
 40
0
 40
1
 40
1
 40
1
 40
1
 10
11.025699
 20
48.764388
 30
0.0
 10
11.017458
 20
48.834707
 30
0.0
 10
10.946465
 20
48.885876
 30
0.0
 10
10.888499
 20
48.926530
 30
0.0
  0
SPLINE
  5
19a
100
AcDbEntity
  8
Imprimir
 62
7
100
AcDbSpline
 70
8
 71
3
 72
8
 73
4
 74
0
 40
0
 40
0
 40
0
 40
0
 40
1
 40
1
 40
1
 40
1
 10
10.888499
 20
48.926530
 30
0.0
 10
10.839497
 20
48.960897
 30
0.0
 10
10.779971
 20
48.988563
 30
0.0
 10
10.720120
 20
48.988896
 30
0.0
  0
SPLINE
  5
19b
100
AcDbEntity
  8
Imprimir
 62
7
100
AcDbSpline
 70
8
 71
3
 72
8
 73
4
 74
0
 40
0
 40
0
 40
0
 40
0
 40
1
 40
1
 40
1
 40
1
 10
10.720120
 20
48.988896
 30
0.0
 10
10.259832
 20
48.991436
 30
0.0
 10
9.298245
 20
48.988896
 30
0.0
 10
9.298245
 20
48.988896
 30
0.0
  0
LWPOLYLINE
  5
19c
100
AcDbEntity
  8
Imprimir
 62
7
100
AcDbPolyline
 90
2
 70
1
 10
9.385553
 20
43.419884
 30
0.0
 10
9.385553
 20
43.419884
 30
0.0
  0
SPLINE
  5
19d
100
AcDbEntity
  8
Imprimir
 62
7
100
AcDbSpline
 70
8
 71
3
 72
8
 73
4
 74
0
 40
0
 40
0
 40
0
 40
0
 40
1
 40
1
 40
1
 40
1
 10
9.572641
 20
46.195034
 30
0.0
 10
9.517760
 20
46.197010
 30
0.0
 10
9.468890
 20
46.238138
 30
0.0
 10
9.429207
 20
46.276105
 30
0.0
  0
SPLINE
  5
19e
100
AcDbEntity
  8
Imprimir
 62
7
100
AcDbSpline
 70
8
 71
3
 72
8
 73
4
 74
0
 40
0
 40
0
 40
0
 40
0
 40
1
 40
1
 40
1
 40
1
 10
9.429207
 20
46.276105
 30
0.0
 10
9.386699
 20
46.316779
 30
0.0
 10
9.343646
 20
46.367486
 30
0.0
 10
9.335662
 20
46.425776
 30
0.0
  0
SPLINE
  5
19f
100
AcDbEntity
  8
Imprimir
 62
7
100
AcDbSpline
 70
8
 71
3
 72
8
 73
4
 74
0
 40
0
 40
0
 40
0
 40
0
 40
1
 40
1
 40
1
 40
1
 10
9.335662
 20
46.425776
 30
0.0
 10
9.305523
 20
46.645822
 30
0.0
 10
9.305523
 20
46.879254
 30
0.0
 10
9.335662
 20
47.093062
 30
0.0
  0
SPLINE
  5
1a0
100
AcDbEntity
  8
Imprimir
 62
7
100
AcDbSpline
 70
8
 71
3
 72
8
 73
4
 74
0
 40
0
 40
0
 40
0
 40
0
 40
1
 40
1
 40
1
 40
1
 10
9.335662
 20
47.093062
 30
0.0
 10
9.343874
 20
47.151319
 30
0.0
 10
9.387873
 20
47.200868
 30
0.0
 10
9.429207
 20
47.242733
 30
0.0
  0
SPLINE
  5
1a1
100
AcDbEntity
  8
Imprimir
 62
7
100
AcDbSpline
 70
8
 71
3
 72
8
 73
4
 74
0
 40
0
 40
0
 40
0
 40
0
 40
1
 40
1
 40
1
 40
1
 10
9.429207
 20
47.242733
 30
0.0
 10
9.477823
 20
47.291973
 30
0.0
 10
9.534896
 20
47.348902
 30
0.0
 10
9.603824
 20
47.354987
 30
0.0
  0
SPLINE
  5
1a2
100
AcDbEntity
  8
Imprimir
 62
7
100
AcDbSpline
 70
8
 71
3
 72
8
 73
4
 74
0
 40
0
 40
0
 40
0
 40
0
 40
1
 40
1
 40
1
 40
1
 10
9.603824
 20
47.354987
 30
0.0
 10
9.977051
 20
47.387939
 30
0.0
 10
10.360989
 20
47.352052
 30
0.0
 10
10.751302
 20
47.354987
 30
0.0
  0
SPLINE
  5
1a3
100
AcDbEntity
  8
Imprimir
 62
7
100
AcDbSpline
 70
8
 71
3
 72
8
 73
4
 74
0
 40
0
 40
0
 40
0
 40
0
 40
1
 40
1
 40
1
 40
1
 10
10.751302
 20
47.354987
 30
0.0
 10
10.814523
 20
47.355552
 30
0.0
 10
10.873146
 20
47.310478
 30
0.0
 10
10.919682
 20
47.267679
 30
0.0
  0
SPLINE
  5
1a4
100
AcDbEntity
  8
Imprimir
 62
7
100
AcDbSpline
 70
8
 71
3
 72
8
 73
4
 74
0
 40
0
 40
0
 40
0
 40
0
 40
1
 40
1
 40
1
 40
1
 10
10.919682
 20
47.267679
 30
0.0
 10
10.968498
 20
47.222780
 30
0.0
 10
11.020511
 20
47.165421
 30
0.0
 10
11.025699
 20
47.099299
 30
0.0
  0
SPLINE
  5
1a5
100
AcDbEntity
  8
Imprimir
 62
7
100
AcDbSpline
 70
8
 71
3
 72
8
 73
4
 74
0
 40
0
 40
0
 40
0
 40
0
 40
1
 40
1
 40
1
 40
1
 10
11.025699
 20
47.099299
 30
0.0
 10
11.041983
 20
46.891584
 30
0.0
 10
11.057398
 20
46.690543
 30
0.0
 10
11.025699
 20
46.450722
 30
0.0
  0
SPLINE
  5
1a6
100
AcDbEntity
  8
Imprimir
 62
7
100
AcDbSpline
 70
8
 71
3
 72
8
 73
4
 74
0
 40
0
 40
0
 40
0
 40
0
 40
1
 40
1
 40
1
 40
1
 10
11.025699
 20
46.450722
 30
0.0
 10
11.016526
 20
46.381448
 30
0.0
 10
10.970380
 20
46.317959
 30
0.0
 10
10.919682
 20
46.269871
 30
0.0
  0
SPLINE
  5
1a7
100
AcDbEntity
  8
Imprimir
 62
7
100
AcDbSpline
 70
8
 71
3
 72
8
 73
4
 74
0
 40
0
 40
0
 40
0
 40
0
 40
1
 40
1
 40
1
 40
1
 10
10.919682
 20
46.269871
 30
0.0
 10
10.870437
 20
46.223163
 30
0.0
 10
10.806672
 20
46.174373
 30
0.0
 10
10.738828
 20
46.176326
 30
0.0
  0
SPLINE
  5
1a8
100
AcDbEntity
  8
Imprimir
 62
7
100
AcDbSpline
 70
8
 71
3
 72
8
 73
4
 74
0
 40
0
 40
0
 40
0
 40
0
 40
1
 40
1
 40
1
 40
1
 10
10.738828
 20
46.176326
 30
0.0
 10
10.360346
 20
46.187219
 30
0.0
 10
9.960296
 20
46.180418
 30
0.0
 10
9.572641
 20
46.195037
 30
0.0
  0
LWPOLYLINE
  5
1a9
100
AcDbEntity
  8
Imprimir
 62
7
100
AcDbPolyline
 90
3
 70
0
 10
9.298245
 20
48.988896
 30
0.0
 10
9.298245
 20
48.988896
 30
0.0
 10
9.298245
 20
48.988896
 30
0.0
  0
LWPOLYLINE
  5
1aa
100
AcDbEntity
  8
Imprimir
 62
7
100
AcDbPolyline
 90
2
 70
1
 10
9.572641
 20
46.195037
 30
0.0
 10
9.572641
 20
46.195034
 30
0.0
  0
LWPOLYLINE
  5
1ab
100
AcDbEntity
  8
Imprimir
 62
7
100
AcDbPolyline
 90
2
 70
0
 10
9.335662
 20
49.213401
 30
0.0
 10
9.335662
 20
50.367117
 30
0.0
  0
LWPOLYLINE
  5
1ac
100
AcDbEntity
  8
Imprimir
 62
7
100
AcDbPolyline
 90
2
 70
0
 10
9.335662
 20
49.780904
 30
0.0
 10
11.088061
 20
49.793379
 30
0.0
  0
SPLINE
  5
1ad
100
AcDbEntity
  8
Imprimir
 62
7
100
AcDbSpline
 70
8
 71
3
 72
8
 73
4
 74
0
 40
0
 40
0
 40
0
 40
0
 40
1
 40
1
 40
1
 40
1
 10
39.097503
 20
87.057242
 30
0.0
 10
39.097503
 20
87.057242
 30
0.0
 10
39.113957
 20
87.635967
 30
0.0
 10
39.091266
 20
87.936562
 30
0.0
  0
SPLINE
  5
1ae
100
AcDbEntity
  8
Imprimir
 62
7
100
AcDbSpline
 70
8
 71
3
 72
8
 73
4
 74
0
 40
0
 40
0
 40
0
 40
0
 40
1
 40
1
 40
1
 40
1
 10
39.091266
 20
87.936562
 30
0.0
 10
39.086412
 20
88.000855
 30
0.0
 10
39.061150
 20
88.065687
 30
0.0
 10
39.022666
 20
88.117415
 30
0.0
  0
SPLINE
  5
1af
100
AcDbEntity
  8
Imprimir
 62
7
100
AcDbSpline
 70
8
 71
3
 72
8
 73
4
 74
0
 40
0
 40
0
 40
0
 40
0
 40
1
 40
1
 40
1
 40
1
 10
39.022666
 20
88.117415
 30
0.0
 10
38.975761
 20
88.180464
 30
0.0
 10
38.914149
 20
88.259621
 30
0.0
 10
38.835578
 20
88.260849
 30
0.0
  0
SPLINE
  5
1b0
100
AcDbEntity
  8
Imprimir
 62
7
100
AcDbSpline
 70
8
 71
3
 72
8
 73
4
 74
0
 40
0
 40
0
 40
0
 40
0
 40
1
 40
1
 40
1
 40
1
 10
38.835578
 20
88.260849
 30
0.0
 10
38.469420
 20
88.266578
 30
0.0
 10
38.065041
 20
88.283427
 30
0.0
 10
37.681862
 20
88.260849
 30
0.0
  0
SPLINE
  5
1b1
100
AcDbEntity
  8
Imprimir
 62
7
100
AcDbSpline
 70
8
 71
3
 72
8
 73
4
 74
0
 40
0
 40
0
 40
0
 40
0
 40
1
 40
1
 40
1
 40
1
 10
37.681862
 20
88.260849
 30
0.0
 10
37.632363
 20
88.257942
 30
0.0
 10
37.563617
 20
88.221304
 30
0.0
 10
37.519720
 20
88.179778
 30
0.0
  0
SPLINE
  5
1b2
100
AcDbEntity
  8
Imprimir
 62
7
100
AcDbSpline
 70
8
 71
3
 72
8
 73
4
 74
0
 40
0
 40
0
 40
0
 40
0
 40
1
 40
1
 40
1
 40
1
 10
37.519720
 20
88.179778
 30
0.0
 10
37.471020
 20
88.133708
 30
0.0
 10
37.421558
 20
88.079166
 30
0.0
 10
37.419938
 20
88.005161
 30
0.0
  0
SPLINE
  5
1b3
100
AcDbEntity
  8
Imprimir
 62
7
100
AcDbSpline
 70
8
 71
3
 72
8
 73
4
 74
0
 40
0
 40
0
 40
0
 40
0
 40
1
 40
1
 40
1
 40
1
 10
37.419938
 20
88.005161
 30
0.0
 10
37.412487
 20
87.664172
 30
0.0
 10
37.426175
 20
87.057242
 30
0.0
 10
37.426175
 20
87.057242
 30
0.0
  0
LWPOLYLINE
  5
1b4
100
AcDbEntity
  8
Imprimir
 62
7
100
AcDbPolyline
 90
2
 70
1
 10
37.426175
 20
87.057242
 30
0.0
 10
39.097503
 20
87.057242
 30
0.0
  0
LWPOLYLINE
  5
1b5
100
AcDbEntity
  8
Imprimir
 62
7
100
AcDbPolyline
 90
2
 70
1
 10
37.426175
 20
87.057242
 30
0.0
 10
37.426175
 20
87.057242
 30
0.0
  0
SPLINE
  5
1b6
100
AcDbEntity
  8
Imprimir
 62
7
100
AcDbSpline
 70
8
 71
3
 72
8
 73
4
 74
0
 40
0
 40
0
 40
0
 40
0
 40
1
 40
1
 40
1
 40
1
 10
36.839725
 20
108.114152
 30
0.0
 10
36.839725
 20
108.114152
 30
0.0
 10
36.856179
 20
108.692877
 30
0.0
 10
36.833488
 20
108.993472
 30
0.0
  0
SPLINE
  5
1b7
100
AcDbEntity
  8
Imprimir
 62
7
100
AcDbSpline
 70
8
 71
3
 72
8
 73
4
 74
0
 40
0
 40
0
 40
0
 40
0
 40
1
 40
1
 40
1
 40
1
 10
36.833488
 20
108.993472
 30
0.0
 10
36.828634
 20
109.057762
 30
0.0
 10
36.803372
 20
109.122589
 30
0.0
 10
36.764889
 20
109.174320
 30
0.0
  0
SPLINE
  5
1b8
100
AcDbEntity
  8
Imprimir
 62
7
100
AcDbSpline
 70
8
 71
3
 72
8
 73
4
 74
0
 40
0
 40
0
 40
0
 40
0
 40
1
 40
1
 40
1
 40
1
 10
36.764889
 20
109.174320
 30
0.0
 10
36.717983
 20
109.237368
 30
0.0
 10
36.656371
 20
109.316532
 30
0.0
 10
36.577801
 20
109.317745
 30
0.0
  0
SPLINE
  5
1b9
100
AcDbEntity
  8
Imprimir
 62
7
100
AcDbSpline
 70
8
 71
3
 72
8
 73
4
 74
0
 40
0
 40
0
 40
0
 40
0
 40
1
 40
1
 40
1
 40
1
 10
36.577801
 20
109.317745
 30
0.0
 10
36.211643
 20
109.323390
 30
0.0
 10
35.807263
 20
109.340323
 30
0.0
 10
35.424085
 20
109.317745
 30
0.0
  0
SPLINE
  5
1ba
100
AcDbEntity
  8
Imprimir
 62
7
100
AcDbSpline
 70
8
 71
3
 72
8
 73
4
 74
0
 40
0
 40
0
 40
0
 40
0
 40
1
 40
1
 40
1
 40
1
 10
35.424085
 20
109.317745
 30
0.0
 10
35.374586
 20
109.314923
 30
0.0
 10
35.305839
 20
109.278206
 30
0.0
 10
35.261942
 20
109.236663
 30
0.0
  0
SPLINE
  5
1bb
100
AcDbEntity
  8
Imprimir
 62
7
100
AcDbSpline
 70
8
 71
3
 72
8
 73
4
 74
0
 40
0
 40
0
 40
0
 40
0
 40
1
 40
1
 40
1
 40
1
 10
35.261942
 20
109.236663
 30
0.0
 10
35.213242
 20
109.190604
 30
0.0
 10
35.163780
 20
109.136051
 30
0.0
 10
35.162160
 20
109.062052
 30
0.0
  0
SPLINE
  5
1bc
100
AcDbEntity
  8
Imprimir
 62
7
100
AcDbSpline
 70
8
 71
3
 72
8
 73
4
 74
0
 40
0
 40
0
 40
0
 40
0
 40
1
 40
1
 40
1
 40
1
 10
35.162160
 20
109.062052
 30
0.0
 10
35.154709
 20
108.721071
 30
0.0
 10
35.168397
 20
108.114152
 30
0.0
 10
35.168397
 20
108.114152
 30
0.0
  0
LWPOLYLINE
  5
1bd
100
AcDbEntity
  8
Imprimir
 62
7
100
AcDbPolyline
 90
2
 70
1
 10
35.168397
 20
108.114152
 30
0.0
 10
36.839725
 20
108.114152
 30
0.0
  0
LWPOLYLINE
  5
1be
100
AcDbEntity
  8
Imprimir
 62
7
100
AcDbPolyline
 90
2
 70
1
 10
35.168397
 20
108.114152
 30
0.0
 10
35.168397
 20
108.114152
 30
0.0
  0
SPLINE
  5
1bf
100
AcDbEntity
  8
Imprimir
 62
7
100
AcDbSpline
 70
8
 71
3
 72
8
 73
4
 74
0
 40
0
 40
0
 40
0
 40
0
 40
1
 40
1
 40
1
 40
1
 10
35.118508
 20
111.855911
 30
0.0
 10
36.858434
 20
111.855911
 30
0.0
 10
36.883380
 20
111.849702
 30
0.0
 10
36.883380
 20
111.849702
 30
0.0
  0
SPLINE
  5
1c0
100
AcDbEntity
  8
Imprimir
 62
7
100
AcDbSpline
 70
8
 71
3
 72
8
 73
4
 74
0
 40
0
 40
0
 40
0
 40
0
 40
1
 40
1
 40
1
 40
1
 10
37.432533
 20
89.775282
 30
0.0
 10
37.432533
 20
89.775282
 30
0.0
 10
37.408544
 20
89.188623
 30
0.0
 10
37.432533
 20
88.910976
 30
0.0
  0
SPLINE
  5
1c1
100
AcDbEntity
  8
Imprimir
 62
7
100
AcDbSpline
 70
8
 71
3
 72
8
 73
4
 74
0
 40
0
 40
0
 40
0
 40
0
 40
1
 40
1
 40
1
 40
1
 10
37.432533
 20
88.910976
 30
0.0
 10
37.436964
 20
88.859741
 30
0.0
 10
37.477700
 20
88.817084
 30
0.0
 10
37.511908
 20
88.778684
 30
0.0
  0
SPLINE
  5
1c2
100
AcDbEntity
  8
Imprimir
 62
7
100
AcDbSpline
 70
8
 71
3
 72
8
 73
4
 74
0
 40
0
 40
0
 40
0
 40
0
 40
1
 40
1
 40
1
 40
1
 10
37.511908
 20
88.778684
 30
0.0
 10
37.543983
 20
88.742684
 30
0.0
 10
37.578490
 20
88.694241
 30
0.0
 10
37.626561
 20
88.690490
 30
0.0
  0
SPLINE
  5
1c3
100
AcDbEntity
  8
Imprimir
 62
7
100
AcDbSpline
 70
8
 71
3
 72
8
 73
4
 74
0
 40
0
 40
0
 40
0
 40
0
 40
1
 40
1
 40
1
 40
1
 10
37.626561
 20
88.690490
 30
0.0
 10
37.996732
 20
88.661602
 30
0.0
 10
38.407080
 20
88.676774
 30
0.0
 10
38.799550
 20
88.690490
 30
0.0
  0
SPLINE
  5
1c4
100
AcDbEntity
  8
Imprimir
 62
7
100
AcDbSpline
 70
8
 71
3
 72
8
 73
4
 74
0
 40
0
 40
0
 40
0
 40
0
 40
1
 40
1
 40
1
 40
1
 10
38.799550
 20
88.690490
 30
0.0
 10
38.869386
 20
88.693030
 30
0.0
 10
38.940940
 20
88.723905
 30
0.0
 10
38.993578
 20
88.769865
 30
0.0
  0
SPLINE
  5
1c5
100
AcDbEntity
  8
Imprimir
 62
7
100
AcDbSpline
 70
8
 71
3
 72
8
 73
4
 74
0
 40
0
 40
0
 40
0
 40
0
 40
1
 40
1
 40
1
 40
1
 10
38.993578
 20
88.769865
 30
0.0
 10
39.039467
 20
88.809932
 30
0.0
 10
39.079083
 20
88.867505
 30
0.0
 10
39.084958
 20
88.928141
 30
0.0
  0
SPLINE
  5
1c6
100
AcDbEntity
  8
Imprimir
 62
7
100
AcDbSpline
 70
8
 71
3
 72
8
 73
4
 74
0
 40
0
 40
0
 40
0
 40
0
 40
1
 40
1
 40
1
 40
1
 10
39.084958
 20
88.928141
 30
0.0
 10
39.113945
 20
89.227358
 30
0.0
 10
39.084958
 20
89.775282
 30
0.0
 10
39.084958
 20
89.775282
 30
0.0
  0
LWPOLYLINE
  5
1c7
100
AcDbEntity
  8
Imprimir
 62
7
100
AcDbPolyline
 90
5
 70
0
 10
36.859504
 20
109.743929
 30
0.0
 10
35.107104
 20
109.743929
 30
0.0
 10
36.815849
 20
110.598300
 30
0.0
 10
35.150758
 20
111.421486
 30
0.0
 10
36.871978
 20
111.427695
 30
0.0
  0
LWPOLYLINE
  5
1c8
100
AcDbEntity
  8
Imprimir
 62
7
100
AcDbPolyline
 90
2
 70
0
 10
35.148297
 20
106.510650
 30
0.0
 10
36.868092
 20
106.510650
 30
0.0
  0
LWPOLYLINE
  5
1c9
100
AcDbEntity
  8
Imprimir
 62
7
100
AcDbPolyline
 90
2
 70
0
 10
35.139478
 20
107.692456
 30
0.0
 10
36.859272
 20
107.692456
 30
0.0
  0
SPLINE
  5
1ca
100
AcDbEntity
  8
Imprimir
 62
7
100
AcDbSpline
 70
8
 71
3
 72
8
 73
4
 74
0
 40
0
 40
0
 40
0
 40
0
 40
1
 40
1
 40
1
 40
1
 10
35.571630
 20
127.646436
 30
0.0
 10
35.571630
 20
127.646436
 30
0.0
 10
36.233642
 20
127.598628
 30
0.0
 10
36.559411
 20
127.646436
 30
0.0
  0
SPLINE
  5
1cb
100
AcDbEntity
  8
Imprimir
 62
7
100
AcDbSpline
 70
8
 71
3
 72
8
 73
4
 74
0
 40
0
 40
0
 40
0
 40
0
 40
1
 40
1
 40
1
 40
1
 10
36.559411
 20
127.646436
 30
0.0
 10
36.620145
 20
127.655467
 30
0.0
 10
36.687658
 20
127.661394
 30
0.0
 10
36.735800
 20
127.699353
 30
0.0
  0
SPLINE
  5
1cc
100
AcDbEntity
  8
Imprimir
 62
7
100
AcDbSpline
 70
8
 71
3
 72
8
 73
4
 74
0
 40
0
 40
0
 40
0
 40
0
 40
1
 40
1
 40
1
 40
1
 10
36.735800
 20
127.699353
 30
0.0
 10
36.783267
 20
127.736917
 30
0.0
 10
36.821697
 20
127.796268
 30
0.0
 10
36.826591
 20
127.856607
 30
0.0
  0
SPLINE
  5
1cd
100
AcDbEntity
  8
Imprimir
 62
7
100
AcDbSpline
 70
8
 71
3
 72
8
 73
4
 74
0
 40
0
 40
0
 40
0
 40
0
 40
1
 40
1
 40
1
 40
1
 10
36.826591
 20
127.856607
 30
0.0
 10
36.848830
 20
128.130588
 30
0.0
 10
36.826591
 20
128.625409
 30
0.0
 10
36.826591
 20
128.625409
 30
0.0
  0
SPLINE
  5
1ce
100
AcDbEntity
  8
Imprimir
 62
7
100
AcDbSpline
 70
8
 71
3
 72
8
 73
4
 74
0
 40
0
 40
0
 40
0
 40
0
 40
1
 40
1
 40
1
 40
1
 10
36.826591
 20
128.625409
 30
0.0
 10
36.826591
 20
128.625409
 30
0.0
 10
37.028744
 20
128.659162
 30
0.0
 10
37.115036
 20
128.616660
 30
0.0
  0
SPLINE
  5
1cf
100
AcDbEntity
  8
Imprimir
 62
7
100
AcDbSpline
 70
8
 71
3
 72
8
 73
4
 74
0
 40
0
 40
0
 40
0
 40
0
 40
1
 40
1
 40
1
 40
1
 10
37.115036
 20
128.616660
 30
0.0
 10
37.190000
 20
128.579745
 30
0.0
 10
37.264715
 20
128.505690
 30
0.0
 10
37.273786
 20
128.422632
 30
0.0
  0
SPLINE
  5
1d0
100
AcDbEntity
  8
Imprimir
 62
7
100
AcDbSpline
 70
8
 71
3
 72
8
 73
4
 74
0
 40
0
 40
0
 40
0
 40
0
 40
1
 40
1
 40
1
 40
1
 10
37.273786
 20
128.422632
 30
0.0
 10
37.303783
 20
128.147945
 30
0.0
 10
37.291425
 20
127.628882
 30
0.0
 10
37.291425
 20
127.628882
 30
0.0
  0
LWPOLYLINE
  5
1d1
100
AcDbEntity
  8
Imprimir
 62
7
100
AcDbPolyline
 90
2
 70
0
 10
36.012603
 20
106.519484
 30
0.0
 10
36.012603
 20
107.674845
 30
0.0
  0
LWPOLYLINE
  5
1d2
100
AcDbEntity
  8
Imprimir
 62
7
100
AcDbPolyline
 90
2
 70
0
 10
35.562811
 20
128.625409
 30
0.0
 10
36.823994
 20
128.625409
 30
0.0
  0
SPLINE
  5
1d3
100
AcDbEntity
  8
Imprimir
 62
7
100
AcDbSpline
 70
8
 71
3
 72
8
 73
4
 74
0
 40
0
 40
0
 40
0
 40
0
 40
1
 40
1
 40
1
 40
1
 10
35.880311
 20
129.066381
 30
0.0
 10
35.880311
 20
129.066381
 30
0.0
 10
35.735082
 20
129.088959
 30
0.0
 10
35.695103
 20
129.119297
 30
0.0
  0
SPLINE
  5
1d4
100
AcDbEntity
  8
Imprimir
 62
7
100
AcDbSpline
 70
8
 71
3
 72
8
 73
4
 74
0
 40
0
 40
0
 40
0
 40
0
 40
1
 40
1
 40
1
 40
1
 10
35.695103
 20
129.119297
 30
0.0
 10
35.631456
 20
129.167727
 30
0.0
 10
35.598089
 20
129.313325
 30
0.0
 10
35.598089
 20
129.313325
 30
0.0
  0
SPLINE
  5
1d5
100
AcDbEntity
  8
Imprimir
 62
7
100
AcDbSpline
 70
8
 71
3
 72
8
 73
4
 74
0
 40
0
 40
0
 40
0
 40
0
 40
1
 40
1
 40
1
 40
1
 10
35.598089
 20
129.313325
 30
0.0
 10
35.598089
 20
129.313325
 30
0.0
 10
35.576188
 20
129.682105
 30
0.0
 10
35.615728
 20
129.860131
 30
0.0
  0
SPLINE
  5
1d6
100
AcDbEntity
  8
Imprimir
 62
7
100
AcDbSpline
 70
8
 71
3
 72
8
 73
4
 74
0
 40
0
 40
0
 40
0
 40
0
 40
1
 40
1
 40
1
 40
1
 10
35.615728
 20
129.860131
 30
0.0
 10
35.625436
 20
129.903847
 30
0.0
 10
35.637910
 20
129.951035
 30
0.0
 10
35.668644
 20
129.983603
 30
0.0
  0
SPLINE
  5
1d7
100
AcDbEntity
  8
Imprimir
 62
7
100
AcDbSpline
 70
8
 71
3
 72
8
 73
4
 74
0
 40
0
 40
0
 40
0
 40
0
 40
1
 40
1
 40
1
 40
1
 10
35.668644
 20
129.983603
 30
0.0
 10
35.700214
 20
130.017075
 30
0.0
 10
35.792116
 20
130.045325
 30
0.0
 10
35.792116
 20
130.045325
 30
0.0
  0
LWPOLYLINE
  5
1d8
100
AcDbEntity
  8
Imprimir
 62
7
100
AcDbPolyline
 90
2
 70
0
 10
36.868092
 20
129.066381
 30
0.0
 10
35.880311
 20
129.066381
 30
0.0
  0
LWPOLYLINE
  5
1d9
100
AcDbEntity
  8
Imprimir
 62
7
100
AcDbPolyline
 90
2
 70
0
 10
35.792116
 20
130.045325
 30
0.0
 10
36.876911
 20
130.071854
 30
0.0
  0
SPLINE
  5
1da
100
AcDbEntity
  8
Imprimir
 62
7
100
AcDbSpline
 70
8
 71
3
 72
8
 73
4
 74
0
 40
0
 40
0
 40
0
 40
0
 40
1
 40
1
 40
1
 40
1
 10
35.589269
 20
130.662686
 30
0.0
 10
35.589269
 20
130.662686
 30
0.0
 10
35.641040
 20
130.556373
 30
0.0
 10
35.686283
 20
130.521575
 30
0.0
  0
SPLINE
  5
1db
100
AcDbEntity
  8
Imprimir
 62
7
100
AcDbSpline
 70
8
 71
3
 72
8
 73
4
 74
0
 40
0
 40
0
 40
0
 40
0
 40
1
 40
1
 40
1
 40
1
 10
35.686283
 20
130.521575
 30
0.0
 10
35.720923
 20
130.495046
 30
0.0
 10
35.809755
 20
130.477492
 30
0.0
 10
35.809755
 20
130.477492
 30
0.0
  0
LWPOLYLINE
  5
1dc
100
AcDbEntity
  8
Imprimir
 62
7
100
AcDbPolyline
 90
2
 70
0
 10
35.589269
 20
131.271242
 30
0.0
 10
35.589269
 20
130.662686
 30
0.0
  0
SPLINE
  5
1dd
100
AcDbEntity
  8
Imprimir
 62
7
100
AcDbSpline
 70
8
 71
3
 72
8
 73
4
 74
0
 40
0
 40
0
 40
0
 40
0
 40
1
 40
1
 40
1
 40
1
 10
36.621147
 20
130.477492
 30
0.0
 10
36.621147
 20
130.477492
 30
0.0
 10
36.747461
 20
130.510822
 30
0.0
 10
36.788717
 20
130.556853
 30
0.0
  0
SPLINE
  5
1de
100
AcDbEntity
  8
Imprimir
 62
7
100
AcDbSpline
 70
8
 71
3
 72
8
 73
4
 74
0
 40
0
 40
0
 40
0
 40
0
 40
1
 40
1
 40
1
 40
1
 10
36.788717
 20
130.556853
 30
0.0
 10
36.842708
 20
130.617079
 30
0.0
 10
36.868092
 20
130.786158
 30
0.0
 10
36.868092
 20
130.786158
 30
0.0
  0
LWPOLYLINE
  5
1df
100
AcDbEntity
  8
Imprimir
 62
7
100
AcDbPolyline
 90
2
 70
0
 10
35.809755
 20
130.477492
 30
0.0
 10
36.621147
 20
130.477492
 30
0.0
  0
LWPOLYLINE
  5
1e0
100
AcDbEntity
  8
Imprimir
 62
7
100
AcDbPolyline
 90
2
 70
0
 10
36.868092
 20
130.786158
 30
0.0
 10
36.850453
 20
131.297686
 30
0.0
  0
SPLINE
  5
1e1
100
AcDbEntity
  8
Imprimir
 62
7
100
AcDbSpline
 70
8
 71
3
 72
8
 73
4
 74
0
 40
0
 40
0
 40
0
 40
0
 40
1
 40
1
 40
1
 40
1
 10
35.606908
 20
132.638242
 30
0.0
 10
35.546033
 20
132.837914
 30
0.0
 10
35.615713
 20
133.264436
 30
0.0
 10
35.615713
 20
133.264436
 30
0.0
  0
SPLINE
  5
1e2
100
AcDbEntity
  8
Imprimir
 62
7
100
AcDbSpline
 70
8
 71
3
 72
8
 73
4
 74
0
 40
0
 40
0
 40
0
 40
0
 40
1
 40
1
 40
1
 40
1
 10
35.615713
 20
133.264436
 30
0.0
 10
35.615713
 20
133.264436
 30
0.0
 10
35.619919
 20
133.317014
 30
0.0
 10
35.635130
 20
133.336855
 30
0.0
  0
SPLINE
  5
1e3
100
AcDbEntity
  8
Imprimir
 62
7
100
AcDbSpline
 70
8
 71
3
 72
8
 73
4
 74
0
 40
0
 40
0
 40
0
 40
0
 40
1
 40
1
 40
1
 40
1
 10
35.635130
 20
133.336855
 30
0.0
 10
35.666587
 20
133.377861
 30
0.0
 10
35.769369
 20
133.414381
 30
0.0
 10
35.769369
 20
133.414381
 30
0.0
  0
LWPOLYLINE
  5
1e4
100
AcDbEntity
  8
Imprimir
 62
7
100
AcDbPolyline
 90
2
 70
0
 10
36.162533
 20
131.526992
 30
0.0
 10
36.162533
 20
132.153186
 30
0.0
  0
SPLINE
  5
1e5
100
AcDbEntity
  8
Imprimir
 62
7
100
AcDbSpline
 70
8
 71
3
 72
8
 73
4
 74
0
 40
0
 40
0
 40
0
 40
0
 40
1
 40
1
 40
1
 40
1
 10
36.621139
 20
133.414381
 30
0.0
 10
36.621139
 20
133.414381
 30
0.0
 10
36.711097
 20
133.414381
 30
0.0
 10
36.744611
 20
133.387852
 30
0.0
  0
SPLINE
  5
1e6
100
AcDbEntity
  8
Imprimir
 62
7
100
AcDbSpline
 70
8
 71
3
 72
8
 73
4
 74
0
 40
0
 40
0
 40
0
 40
0
 40
1
 40
1
 40
1
 40
1
 10
36.744611
 20
133.387852
 30
0.0
 10
36.800096
 20
133.345660
 30
0.0
 10
36.838791
 20
133.272254
 30
0.0
 10
36.841625
 20
133.202630
 30
0.0
  0
SPLINE
  5
1e7
100
AcDbEntity
  8
Imprimir
 62
7
100
AcDbSpline
 70
8
 71
3
 72
8
 73
4
 74
0
 40
0
 40
0
 40
0
 40
0
 40
1
 40
1
 40
1
 40
1
 10
36.841625
 20
133.202630
 30
0.0
 10
36.848257
 20
133.039929
 30
0.0
 10
36.858445
 20
132.862608
 30
0.0
 10
36.841625
 20
132.699935
 30
0.0
  0
SPLINE
  5
1e8
100
AcDbEntity
  8
Imprimir
 62
7
100
AcDbSpline
 70
8
 71
3
 72
8
 73
4
 74
0
 40
0
 40
0
 40
0
 40
0
 40
1
 40
1
 40
1
 40
1
 10
36.841625
 20
132.699935
 30
0.0
 10
36.835134
 20
132.637141
 30
0.0
 10
36.796543
 20
132.578467
 30
0.0
 10
36.753430
 20
132.532352
 30
0.0
  0
SPLINE
  5
1e9
100
AcDbEntity
  8
Imprimir
 62
7
100
AcDbSpline
 70
8
 71
3
 72
8
 73
4
 74
0
 40
0
 40
0
 40
0
 40
0
 40
1
 40
1
 40
1
 40
1
 10
36.753430
 20
132.532352
 30
0.0
 10
36.722784
 20
132.499586
 30
0.0
 10
36.683250
 20
132.467779
 30
0.0
 10
36.638778
 20
132.461796
 30
0.0
  0
SPLINE
  5
1ea
100
AcDbEntity
  8
Imprimir
 62
7
100
AcDbSpline
 70
8
 71
3
 72
8
 73
4
 74
0
 40
0
 40
0
 40
0
 40
0
 40
1
 40
1
 40
1
 40
1
 10
36.638778
 20
132.461796
 30
0.0
 10
36.362315
 20
132.424599
 30
0.0
 10
36.062169
 20
132.431965
 30
0.0
 10
35.774469
 20
132.444299
 30
0.0
  0
SPLINE
  5
1eb
100
AcDbEntity
  8
Imprimir
 62
7
100
AcDbSpline
 70
8
 71
3
 72
8
 73
4
 74
0
 40
0
 40
0
 40
0
 40
0
 40
1
 40
1
 40
1
 40
1
 10
35.774469
 20
132.444299
 30
0.0
 10
35.734952
 20
132.447121
 30
0.0
 10
35.712411
 20
132.493998
 30
0.0
 10
35.686275
 20
132.523688
 30
0.0
  0
SPLINE
  5
1ec
100
AcDbEntity
  8
Imprimir
 62
7
100
AcDbSpline
 70
8
 71
3
 72
8
 73
4
 74
0
 40
0
 40
0
 40
0
 40
0
 40
1
 40
1
 40
1
 40
1
 10
35.686275
 20
132.523688
 30
0.0
 10
35.655577
 20
132.558542
 30
0.0
 10
35.620455
 20
132.593820
 30
0.0
 10
35.606908
 20
132.638242
 30
0.0
  0
LWPOLYLINE
  5
1ed
100
AcDbEntity
  8
Imprimir
 62
7
100
AcDbPolyline
 90
2
 70
1
 10
35.769369
 20
133.414381
 30
0.0
 10
36.621139
 20
133.414381
 30
0.0
  0
LWPOLYLINE
  5
1ee
100
AcDbEntity
  8
Imprimir
 62
7
100
AcDbPolyline
 90
2
 70
1
 10
35.606908
 20
132.638242
 30
0.0
 10
35.606908
 20
132.638242
 30
0.0
  0
SPLINE
  5
1ef
100
AcDbEntity
  8
Imprimir
 62
7
100
AcDbSpline
 70
8
 71
3
 72
8
 73
4
 74
0
 40
0
 40
0
 40
0
 40
0
 40
1
 40
1
 40
1
 40
1
 10
36.656425
 20
133.881797
 30
0.0
 10
36.656425
 20
133.881797
 30
0.0
 10
36.733003
 20
133.928167
 30
0.0
 10
36.762258
 20
133.961158
 30
0.0
  0
SPLINE
  5
1f0
100
AcDbEntity
  8
Imprimir
 62
7
100
AcDbSpline
 70
8
 71
3
 72
8
 73
4
 74
0
 40
0
 40
0
 40
0
 40
0
 40
1
 40
1
 40
1
 40
1
 10
36.762258
 20
133.961158
 30
0.0
 10
36.805083
 20
134.009447
 30
0.0
 10
36.859749
 20
134.064339
 30
0.0
 10
36.859072
 20
134.128855
 30
0.0
  0
SPLINE
  5
1f1
100
AcDbEntity
  8
Imprimir
 62
7
100
AcDbSpline
 70
8
 71
3
 72
8
 73
4
 74
0
 40
0
 40
0
 40
0
 40
0
 40
1
 40
1
 40
1
 40
1
 10
36.859072
 20
134.128855
 30
0.0
 10
36.856249
 20
134.386778
 30
0.0
 10
36.873860
 20
134.502573
 30
0.0
 10
36.859072
 20
134.710825
 30
0.0
  0
SPLINE
  5
1f2
100
AcDbEntity
  8
Imprimir
 62
7
100
AcDbSpline
 70
8
 71
3
 72
8
 73
4
 74
0
 40
0
 40
0
 40
0
 40
0
 40
1
 40
1
 40
1
 40
1
 10
36.859072
 20
134.710825
 30
0.0
 10
36.854923
 20
134.768991
 30
0.0
 10
36.792566
 20
134.809913
 30
0.0
 10
36.744619
 20
134.843103
 30
0.0
  0
SPLINE
  5
1f3
100
AcDbEntity
  8
Imprimir
 62
7
100
AcDbSpline
 70
8
 71
3
 72
8
 73
4
 74
0
 40
0
 40
0
 40
0
 40
0
 40
1
 40
1
 40
1
 40
1
 10
36.744619
 20
134.843103
 30
0.0
 10
36.695668
 20
134.876969
 30
0.0
 10
36.636579
 20
134.904853
 30
0.0
 10
36.577050
 20
134.904853
 30
0.0
  0
SPLINE
  5
1f4
100
AcDbEntity
  8
Imprimir
 62
7
100
AcDbSpline
 70
8
 71
3
 72
8
 73
4
 74
0
 40
0
 40
0
 40
0
 40
0
 40
1
 40
1
 40
1
 40
1
 10
36.577050
 20
134.904853
 30
0.0
 10
36.249463
 20
134.904853
 30
0.0
 10
35.580450
 20
134.896104
 30
0.0
 10
35.580450
 20
134.896104
 30
0.0
  0
SPLINE
  5
1f5
100
AcDbEntity
  8
Imprimir
 62
7
100
AcDbSpline
 70
8
 71
3
 72
8
 73
4
 74
0
 40
0
 40
0
 40
0
 40
0
 40
1
 40
1
 40
1
 40
1
 10
35.130658
 20
135.336992
 30
0.0
 10
35.165936
 20
135.336992
 30
0.0
 10
36.868092
 20
135.336992
 30
0.0
 10
36.868092
 20
135.336992
 30
0.0
  0
LWPOLYLINE
  5
1f6
100
AcDbEntity
  8
Imprimir
 62
7
100
AcDbPolyline
 90
2
 70
0
 10
35.571630
 20
133.881797
 30
0.0
 10
36.656425
 20
133.881797
 30
0.0
  0
LWPOLYLINE
  5
1f7
100
AcDbEntity
  8
Imprimir
 62
7
100
AcDbPolyline
 90
2
 70
0
 10
36.868092
 20
135.336992
 30
0.0
 10
36.868092
 20
135.354489
 30
0.0
  0
SPLINE
  5
1f8
100
AcDbEntity
  8
Imprimir
 62
7
100
AcDbSpline
 70
8
 71
3
 72
8
 73
4
 74
0
 40
0
 40
0
 40
0
 40
0
 40
1
 40
1
 40
1
 40
1
 10
35.592766
 20
127.267920
 30
0.0
 10
35.592766
 20
127.267920
 30
0.0
 10
35.545892
 20
126.795282
 30
0.0
 10
35.612776
 20
126.545685
 30
0.0
  0
SPLINE
  5
1f9
100
AcDbEntity
  8
Imprimir
 62
7
100
AcDbSpline
 70
8
 71
3
 72
8
 73
4
 74
0
 40
0
 40
0
 40
0
 40
0
 40
1
 40
1
 40
1
 40
1
 10
35.612776
 20
126.545685
 30
0.0
 10
35.629173
 20
126.484443
 30
0.0
 10
35.655885
 20
126.420519
 30
0.0
 10
35.704763
 20
126.380952
 30
0.0
  0
SPLINE
  5
1fa
100
AcDbEntity
  8
Imprimir
 62
7
100
AcDbSpline
 70
8
 71
3
 72
8
 73
4
 74
0
 40
0
 40
0
 40
0
 40
0
 40
1
 40
1
 40
1
 40
1
 10
35.704763
 20
126.380952
 30
0.0
 10
35.732421
 20
126.358656
 30
0.0
 10
35.766539
 20
126.354705
 30
0.0
 10
35.806778
 20
126.349427
 30
0.0
  0
SPLINE
  5
1fb
100
AcDbEntity
  8
Imprimir
 62
7
100
AcDbSpline
 70
8
 71
3
 72
8
 73
4
 74
0
 40
0
 40
0
 40
0
 40
0
 40
1
 40
1
 40
1
 40
1
 10
35.806778
 20
126.349427
 30
0.0
 10
35.873707
 20
126.340679
 30
0.0
 10
35.944090
 20
126.331930
 30
0.0
 10
36.009295
 20
126.349427
 30
0.0
  0
SPLINE
  5
1fc
100
AcDbEntity
  8
Imprimir
 62
7
100
AcDbSpline
 70
8
 71
3
 72
8
 73
4
 74
0
 40
0
 40
0
 40
0
 40
0
 40
1
 40
1
 40
1
 40
1
 10
36.009295
 20
126.349427
 30
0.0
 10
36.069874
 20
126.365796
 30
0.0
 10
36.134048
 20
126.393765
 30
0.0
 10
36.172225
 20
126.443520
 30
0.0
  0
SPLINE
  5
1fd
100
AcDbEntity
  8
Imprimir
 62
7
100
AcDbSpline
 70
8
 71
3
 72
8
 73
4
 74
0
 40
0
 40
0
 40
0
 40
0
 40
1
 40
1
 40
1
 40
1
 10
36.172225
 20
126.443520
 30
0.0
 10
36.215224
 20
126.499570
 30
0.0
 10
36.217857
 20
126.578169
 30
0.0
 10
36.227077
 20
126.648216
 30
0.0
  0
SPLINE
  5
1fe
100
AcDbEntity
  8
Imprimir
 62
7
100
AcDbSpline
 70
8
 71
3
 72
8
 73
4
 74
0
 40
0
 40
0
 40
0
 40
0
 40
1
 40
1
 40
1
 40
1
 10
36.227077
 20
126.648216
 30
0.0
 10
36.245394
 20
126.787323
 30
0.0
 10
36.190767
 20
126.933599
 30
0.0
 10
36.227077
 20
127.069122
 30
0.0
  0
SPLINE
  5
1ff
100
AcDbEntity
  8
Imprimir
 62
7
100
AcDbSpline
 70
8
 71
3
 72
8
 73
4
 74
0
 40
0
 40
0
 40
0
 40
0
 40
1
 40
1
 40
1
 40
1
 10
36.227077
 20
127.069122
 30
0.0
 10
36.242092
 20
127.125115
 30
0.0
 10
36.268031
 20
127.184438
 30
0.0
 10
36.314013
 20
127.219716
 30
0.0
  0
SPLINE
  5
200
100
AcDbEntity
  8
Imprimir
 62
7
100
AcDbSpline
 70
8
 71
3
 72
8
 73
4
 74
0
 40
0
 40
0
 40
0
 40
0
 40
1
 40
1
 40
1
 40
1
 10
36.314013
 20
127.219716
 30
0.0
 10
36.360289
 20
127.255220
 30
0.0
 10
36.424712
 20
127.265013
 30
0.0
 10
36.483044
 20
127.265013
 30
0.0
  0
SPLINE
  5
201
100
AcDbEntity
  8
Imprimir
 62
7
100
AcDbSpline
 70
8
 71
3
 72
8
 73
4
 74
0
 40
0
 40
0
 40
0
 40
0
 40
1
 40
1
 40
1
 40
1
 10
36.483044
 20
127.265013
 30
0.0
 10
36.571781
 20
127.265013
 30
0.0
 10
36.669777
 20
127.250055
 30
0.0
 10
36.740174
 20
127.196094
 30
0.0
  0
SPLINE
  5
202
100
AcDbEntity
  8
Imprimir
 62
7
100
AcDbSpline
 70
8
 71
3
 72
8
 73
4
 74
0
 40
0
 40
0
 40
0
 40
0
 40
1
 40
1
 40
1
 40
1
 10
36.740174
 20
127.196094
 30
0.0
 10
36.781065
 20
127.164711
 30
0.0
 10
36.804213
 20
127.111992
 30
0.0
 10
36.817489
 20
127.062180
 30
0.0
  0
SPLINE
  5
203
100
AcDbEntity
  8
Imprimir
 62
7
100
AcDbSpline
 70
8
 71
3
 72
8
 73
4
 74
0
 40
0
 40
0
 40
0
 40
0
 40
1
 40
1
 40
1
 40
1
 10
36.817489
 20
127.062180
 30
0.0
 10
36.881737
 20
126.821134
 30
0.0
 10
36.849812
 20
126.313783
 30
0.0
 10
36.849812
 20
126.313783
 30
0.0
  0
SPLINE
  5
204
100
AcDbEntity
  8
Imprimir
 62
7
100
AcDbSpline
 70
8
 71
3
 72
8
 73
4
 74
0
 40
0
 40
0
 40
0
 40
0
 40
1
 40
1
 40
1
 40
1
 10
8.695175
 20
140.479587
 30
0.0
 10
8.695175
 20
140.479587
 30
0.0
 10
8.597842
 20
142.429970
 30
0.0
 10
8.906842
 20
142.243478
 30
0.0
  0
SPLINE
  5
205
100
AcDbEntity
  8
Imprimir
 62
7
100
AcDbSpline
 70
8
 71
3
 72
8
 73
4
 74
0
 40
0
 40
0
 40
0
 40
0
 40
1
 40
1
 40
1
 40
1
 10
8.906842
 20
142.243478
 30
0.0
 10
9.976732
 20
141.597725
 30
0.0
 10
10.625321
 20
141.128897
 30
0.0
 10
11.376289
 20
140.691254
 30
0.0
  0
SPLINE
  5
206
100
AcDbEntity
  8
Imprimir
 62
7
100
AcDbSpline
 70
8
 71
3
 72
8
 73
4
 74
0
 40
0
 40
0
 40
0
 40
0
 40
1
 40
1
 40
1
 40
1
 10
11.376289
 20
140.691254
 30
0.0
 10
11.761040
 20
140.467029
 30
0.0
 10
11.552678
 20
142.278756
 30
0.0
 10
11.552678
 20
142.278756
 30
0.0
  0
LWPOLYLINE
  5
207
100
AcDbEntity
  8
Imprimir
 62
7
100
AcDbPolyline
 90
2
 70
0
 10
35.589269
 20
135.354631
 30
0.0
 10
35.589269
 20
135.725047
 30
0.0
  0
SPLINE
  5
208
100
AcDbEntity
  8
Imprimir
 62
7
100
AcDbSpline
 70
8
 71
3
 72
8
 73
4
 74
0
 40
0
 40
0
 40
0
 40
0
 40
1
 40
1
 40
1
 40
1
 10
8.624620
 20
143.019590
 30
0.0
 10
8.624620
 20
143.019590
 30
0.0
 10
10.384597
 20
142.937068
 30
0.0
 10
11.199900
 20
143.054867
 30
0.0
  0
SPLINE
  5
209
100
AcDbEntity
  8
Imprimir
 62
7
100
AcDbSpline
 70
8
 71
3
 72
8
 73
4
 74
0
 40
0
 40
0
 40
0
 40
0
 40
1
 40
1
 40
1
 40
1
 10
11.199900
 20
143.054867
 30
0.0
 10
11.397408
 20
143.083400
 30
0.0
 10
11.509032
 20
143.294898
 30
0.0
 10
11.587956
 20
143.478201
 30
0.0
  0
SPLINE
  5
20a
100
AcDbEntity
  8
Imprimir
 62
7
100
AcDbSpline
 70
8
 71
3
 72
8
 73
4
 74
0
 40
0
 40
0
 40
0
 40
0
 40
1
 40
1
 40
1
 40
1
 10
11.587956
 20
143.478201
 30
0.0
 10
11.755438
 20
143.867161
 30
0.0
 10
11.623234
 20
144.748202
 30
0.0
 10
11.623234
 20
144.748202
 30
0.0
  0
LWPOLYLINE
  5
20b
100
AcDbEntity
  8
Imprimir
 62
7
100
AcDbPolyline
 90
3
 70
0
 10
11.552678
 20
142.278756
 30
0.0
 10
10.811842
 20
142.314034
 30
0.0
 10
10.811842
 20
142.314034
 30
0.0
  0
SPLINE
  5
20c
100
AcDbEntity
  8
Imprimir
 62
7
100
AcDbSpline
 70
8
 71
3
 72
8
 73
4
 74
0
 40
0
 40
0
 40
0
 40
0
 40
1
 40
1
 40
1
 40
1
 10
11.552678
 20
144.748202
 30
0.0
 10
11.552678
 20
144.748202
 30
0.0
 10
12.040951
 20
144.838203
 30
0.0
 10
12.258234
 20
144.748202
 30
0.0
  0
SPLINE
  5
20d
100
AcDbEntity
  8
Imprimir
 62
7
100
AcDbSpline
 70
8
 71
3
 72
8
 73
4
 74
0
 40
0
 40
0
 40
0
 40
0
 40
1
 40
1
 40
1
 40
1
 10
12.258234
 20
144.748202
 30
0.0
 10
12.365783
 20
144.703668
 30
0.0
 10
12.459289
 20
144.608248
 30
0.0
 10
12.505178
 20
144.501258
 30
0.0
  0
SPLINE
  5
20e
100
AcDbEntity
  8
Imprimir
 62
7
100
AcDbSpline
 70
8
 71
3
 72
8
 73
4
 74
0
 40
0
 40
0
 40
0
 40
0
 40
1
 40
1
 40
1
 40
1
 10
12.505178
 20
144.501258
 30
0.0
 10
12.690657
 20
144.068837
 30
0.0
 10
12.540456
 20
143.090145
 30
0.0
 10
12.540456
 20
143.090145
 30
0.0
  0
LWPOLYLINE
  5
20f
100
AcDbEntity
  8
Imprimir
 62
7
100
AcDbPolyline
 90
4
 70
0
 10
11.623234
 20
144.748202
 30
0.0
 10
8.659897
 20
144.748202
 30
0.0
 10
8.624620
 20
144.748202
 30
0.0
 10
8.624620
 20
144.748202
 30
0.0
  0
SPLINE
  5
210
100
AcDbEntity
  8
Imprimir
 62
7
100
AcDbSpline
 70
8
 71
3
 72
8
 73
4
 74
0
 40
0
 40
0
 40
0
 40
0
 40
1
 40
1
 40
1
 40
1
 10
11.587956
 20
145.665426
 30
0.0
 10
11.587956
 20
145.665426
 30
0.0
 10
9.932706
 20
145.509751
 30
0.0
 10
8.977397
 20
145.700704
 30
0.0
  0
SPLINE
  5
211
100
AcDbEntity
  8
Imprimir
 62
7
100
AcDbSpline
 70
8
 71
3
 72
8
 73
4
 74
0
 40
0
 40
0
 40
0
 40
0
 40
1
 40
1
 40
1
 40
1
 10
8.977397
 20
145.700704
 30
0.0
 10
8.740799
 20
145.748004
 30
0.0
 10
8.744623
 20
145.686310
 30
0.0
 10
8.659897
 20
145.912370
 30
0.0
  0
SPLINE
  5
212
100
AcDbEntity
  8
Imprimir
 62
7
100
AcDbSpline
 70
8
 71
3
 72
8
 73
4
 74
0
 40
0
 40
0
 40
0
 40
0
 40
1
 40
1
 40
1
 40
1
 10
8.659897
 20
145.912370
 30
0.0
 10
8.535948
 20
146.242853
 30
0.0
 10
8.500332
 20
146.938080
 30
0.0
 10
8.659897
 20
147.252928
 30
0.0
  0
SPLINE
  5
213
100
AcDbEntity
  8
Imprimir
 62
7
100
AcDbSpline
 70
8
 71
3
 72
8
 73
4
 74
0
 40
0
 40
0
 40
0
 40
0
 40
1
 40
1
 40
1
 40
1
 10
8.659897
 20
147.252928
 30
0.0
 10
8.754543
 20
147.439674
 30
0.0
 10
8.804875
 20
147.509580
 30
0.0
 10
9.012675
 20
147.535150
 30
0.0
  0
SPLINE
  5
214
100
AcDbEntity
  8
Imprimir
 62
7
100
AcDbSpline
 70
8
 71
3
 72
8
 73
4
 74
0
 40
0
 40
0
 40
0
 40
0
 40
1
 40
1
 40
1
 40
1
 10
9.012675
 20
147.535150
 30
0.0
 10
9.859226
 20
147.639346
 30
0.0
 10
11.658511
 20
147.605705
 30
0.0
 10
11.658511
 20
147.605705
 30
0.0
  0
LWPOLYLINE
  5
215
100
AcDbEntity
  8
Imprimir
 62
7
100
AcDbPolyline
 90
3
 70
0
 10
12.540456
 20
143.090145
 30
0.0
 10
12.540456
 20
143.090145
 30
0.0
 10
12.540456
 20
143.090145
 30
0.0
  0
LWPOLYLINE
  5
216
100
AcDbEntity
  8
Imprimir
 62
7
100
AcDbPolyline
 90
4
 70
0
 10
7.636839
 20
148.311261
 30
0.0
 10
11.658511
 20
148.346540
 30
0.0
 10
11.658511
 20
148.346540
 30
0.0
 10
11.658511
 20
148.346540
 30
0.0
  0
LWPOLYLINE
  5
217
100
AcDbEntity
  8
Imprimir
 62
7
100
AcDbPolyline
 90
2
 70
0
 10
8.659897
 20
148.311261
 30
0.0
 10
8.695175
 20
149.334318
 30
0.0
  0
SPLINE
  5
218
100
AcDbEntity
  8
Imprimir
 62
7
100
AcDbSpline
 70
8
 71
3
 72
8
 73
4
 74
0
 40
0
 40
0
 40
0
 40
0
 40
1
 40
1
 40
1
 40
1
 10
8.659897
 20
149.651819
 30
0.0
 10
8.659897
 20
149.651819
 30
0.0
 10
8.543910
 20
150.608045
 30
0.0
 10
8.730453
 20
151.027653
 30
0.0
  0
SPLINE
  5
219
100
AcDbEntity
  8
Imprimir
 62
7
100
AcDbSpline
 70
8
 71
3
 72
8
 73
4
 74
0
 40
0
 40
0
 40
0
 40
0
 40
1
 40
1
 40
1
 40
1
 10
8.730453
 20
151.027653
 30
0.0
 10
8.818275
 20
151.225209
 30
0.0
 10
8.972899
 20
151.489680
 30
0.0
 10
9.189064
 20
151.486265
 30
0.0
  0
SPLINE
  5
21a
100
AcDbEntity
  8
Imprimir
 62
7
100
AcDbSpline
 70
8
 71
3
 72
8
 73
4
 74
0
 40
0
 40
0
 40
0
 40
0
 40
1
 40
1
 40
1
 40
1
 10
9.189064
 20
151.486265
 30
0.0
 10
9.976278
 20
151.473847
 30
0.0
 10
11.658511
 20
151.521543
 30
0.0
 10
11.658511
 20
151.521543
 30
0.0
  0
LWPOLYLINE
  5
21b
100
AcDbEntity
  8
Imprimir
 62
7
100
AcDbPolyline
 90
2
 70
0
 10
7.601561
 20
149.651819
 30
0.0
 10
11.693789
 20
149.651819
 30
0.0
  0
SPLINE
  5
21c
100
AcDbEntity
  8
Imprimir
 62
7
100
AcDbSpline
 70
8
 71
3
 72
8
 73
4
 74
0
 40
0
 40
0
 40
0
 40
0
 40
1
 40
1
 40
1
 40
1
 10
8.730453
 20
153.073794
 30
0.0
 10
8.730453
 20
153.073794
 30
0.0
 10
8.514251
 20
154.155946
 30
0.0
 10
8.730453
 20
154.626016
 30
0.0
  0
SPLINE
  5
21d
100
AcDbEntity
  8
Imprimir
 62
7
100
AcDbSpline
 70
8
 71
3
 72
8
 73
4
 74
0
 40
0
 40
0
 40
0
 40
0
 40
1
 40
1
 40
1
 40
1
 10
8.730453
 20
154.626016
 30
0.0
 10
8.821058
 20
154.823007
 30
0.0
 10
9.008115
 20
155.033178
 30
0.0
 10
9.224342
 20
155.049349
 30
0.0
  0
SPLINE
  5
21e
100
AcDbEntity
  8
Imprimir
 62
7
100
AcDbSpline
 70
8
 71
3
 72
8
 73
4
 74
0
 40
0
 40
0
 40
0
 40
0
 40
1
 40
1
 40
1
 40
1
 10
9.224342
 20
155.049349
 30
0.0
 10
9.866206
 20
155.097355
 30
0.0
 10
10.470463
 20
155.071080
 30
0.0
 10
11.164622
 20
155.049349
 30
0.0
  0
SPLINE
  5
21f
100
AcDbEntity
  8
Imprimir
 62
7
100
AcDbSpline
 70
8
 71
3
 72
8
 73
4
 74
0
 40
0
 40
0
 40
0
 40
0
 40
1
 40
1
 40
1
 40
1
 10
11.164622
 20
155.049349
 30
0.0
 10
11.397921
 20
155.042011
 30
0.0
 10
11.544973
 20
154.740090
 30
0.0
 10
11.623234
 20
154.520182
 30
0.0
  0
SPLINE
  5
220
100
AcDbEntity
  8
Imprimir
 62
7
100
AcDbSpline
 70
8
 71
3
 72
8
 73
4
 74
0
 40
0
 40
0
 40
0
 40
0
 40
1
 40
1
 40
1
 40
1
 10
11.623234
 20
154.520182
 30
0.0
 10
11.753397
 20
154.154422
 30
0.0
 10
11.769346
 20
153.699254
 30
0.0
 10
11.587956
 20
153.356016
 30
0.0
  0
SPLINE
  5
221
100
AcDbEntity
  8
Imprimir
 62
7
100
AcDbSpline
 70
8
 71
3
 72
8
 73
4
 74
0
 40
0
 40
0
 40
0
 40
0
 40
1
 40
1
 40
1
 40
1
 10
11.587956
 20
153.356016
 30
0.0
 10
11.513226
 20
153.214594
 30
0.0
 10
11.352712
 20
153.121009
 30
0.0
 10
11.199900
 20
153.073794
 30
0.0
  0
SPLINE
  5
222
100
AcDbEntity
  8
Imprimir
 62
7
100
AcDbSpline
 70
8
 71
3
 72
8
 73
4
 74
0
 40
0
 40
0
 40
0
 40
0
 40
1
 40
1
 40
1
 40
1
 10
11.199900
 20
153.073794
 30
0.0
 10
10.817740
 20
152.955712
 30
0.0
 10
10.364709
 20
152.943830
 30
0.0
 10
10.000453
 20
153.109071
 30
0.0
  0
SPLINE
  5
223
100
AcDbEntity
  8
Imprimir
 62
7
100
AcDbSpline
 70
8
 71
3
 72
8
 73
4
 74
0
 40
0
 40
0
 40
0
 40
0
 40
1
 40
1
 40
1
 40
1
 10
10.000453
 20
153.109071
 30
0.0
 10
9.795864
 20
153.201894
 30
0.0
 10
9.626633
 20
153.394906
 30
0.0
 10
9.541842
 20
153.602960
 30
0.0
  0
SPLINE
  5
224
100
AcDbEntity
  8
Imprimir
 62
7
100
AcDbSpline
 70
8
 71
3
 72
8
 73
4
 74
0
 40
0
 40
0
 40
0
 40
0
 40
1
 40
1
 40
1
 40
1
 10
9.541842
 20
153.602960
 30
0.0
 10
9.368696
 20
154.027789
 30
0.0
 10
9.506564
 20
154.978794
 30
0.0
 10
9.506564
 20
154.978794
 30
0.0
  0
SPLINE
  5
225
100
AcDbEntity
  8
Imprimir
 62
7
100
AcDbSpline
 70
8
 71
3
 72
8
 73
4
 74
0
 40
0
 40
0
 40
0
 40
0
 40
1
 40
1
 40
1
 40
1
 10
11.693789
 20
155.860710
 30
0.0
 10
11.693789
 20
155.860710
 30
0.0
 10
10.038539
 20
155.705036
 30
0.0
 10
9.083231
 20
155.895988
 30
0.0
  0
SPLINE
  5
226
100
AcDbEntity
  8
Imprimir
 62
7
100
AcDbSpline
 70
8
 71
3
 72
8
 73
4
 74
0
 40
0
 40
0
 40
0
 40
0
 40
1
 40
1
 40
1
 40
1
 10
9.083231
 20
155.895988
 30
0.0
 10
8.846633
 20
155.943288
 30
0.0
 10
8.850457
 20
155.881594
 30
0.0
 10
8.765731
 20
156.107654
 30
0.0
  0
SPLINE
  5
227
100
AcDbEntity
  8
Imprimir
 62
7
100
AcDbSpline
 70
8
 71
3
 72
8
 73
4
 74
0
 40
0
 40
0
 40
0
 40
0
 40
1
 40
1
 40
1
 40
1
 10
8.765731
 20
156.107654
 30
0.0
 10
8.641782
 20
156.438136
 30
0.0
 10
8.606165
 20
157.133362
 30
0.0
 10
8.765731
 20
157.448210
 30
0.0
  0
SPLINE
  5
228
100
AcDbEntity
  8
Imprimir
 62
7
100
AcDbSpline
 70
8
 71
3
 72
8
 73
4
 74
0
 40
0
 40
0
 40
0
 40
0
 40
1
 40
1
 40
1
 40
1
 10
8.765731
 20
157.448210
 30
0.0
 10
8.860377
 20
157.634956
 30
0.0
 10
8.910708
 20
157.704862
 30
0.0
 10
9.118509
 20
157.730432
 30
0.0
  0
SPLINE
  5
229
100
AcDbEntity
  8
Imprimir
 62
7
100
AcDbSpline
 70
8
 71
3
 72
8
 73
4
 74
0
 40
0
 40
0
 40
0
 40
0
 40
1
 40
1
 40
1
 40
1
 10
9.118509
 20
157.730432
 30
0.0
 10
9.965060
 20
157.834628
 30
0.0
 10
11.764345
 20
157.800987
 30
0.0
 10
11.764345
 20
157.800987
 30
0.0
  0
SPLINE
  5
22a
100
AcDbEntity
  8
Imprimir
 62
7
100
AcDbSpline
 70
8
 71
3
 72
8
 73
4
 74
0
 40
0
 40
0
 40
0
 40
0
 40
1
 40
1
 40
1
 40
1
 10
14.306941
 20
152.538503
 30
0.0
 10
14.306941
 20
152.538503
 30
0.0
 10
14.224448
 20
152.951394
 30
0.0
 10
14.306941
 20
153.130746
 30
0.0
  0
SPLINE
  5
22b
100
AcDbEntity
  8
Imprimir
 62
7
100
AcDbSpline
 70
8
 71
3
 72
8
 73
4
 74
0
 40
0
 40
0
 40
0
 40
0
 40
1
 40
1
 40
1
 40
1
 10
14.306941
 20
153.130746
 30
0.0
 10
14.341513
 20
153.205930
 30
0.0
 10
14.412887
 20
153.286109
 30
0.0
 10
14.495389
 20
153.292290
 30
0.0
  0
SPLINE
  5
22c
100
AcDbEntity
  8
Imprimir
 62
7
100
AcDbSpline
 70
8
 71
3
 72
8
 73
4
 74
0
 40
0
 40
0
 40
0
 40
0
 40
1
 40
1
 40
1
 40
1
 10
14.495389
 20
153.292290
 30
0.0
 10
14.740299
 20
153.310352
 30
0.0
 10
14.970858
 20
153.300474
 30
0.0
 10
15.235720
 20
153.292290
 30
0.0
  0
SPLINE
  5
22d
100
AcDbEntity
  8
Imprimir
 62
7
100
AcDbSpline
 70
8
 71
3
 72
8
 73
4
 74
0
 40
0
 40
0
 40
0
 40
0
 40
1
 40
1
 40
1
 40
1
 10
15.235720
 20
153.292290
 30
0.0
 10
15.324736
 20
153.288621
 30
0.0
 10
15.380848
 20
153.174293
 30
0.0
 10
15.410707
 20
153.090388
 30
0.0
  0
SPLINE
  5
22e
100
AcDbEntity
  8
Imprimir
 62
7
100
AcDbSpline
 70
8
 71
3
 72
8
 73
4
 74
0
 40
0
 40
0
 40
0
 40
0
 40
1
 40
1
 40
1
 40
1
 10
15.410707
 20
153.090388
 30
0.0
 10
15.460372
 20
152.950801
 30
0.0
 10
15.466457
 20
152.777122
 30
0.0
 10
15.397245
 20
152.646142
 30
0.0
  0
SPLINE
  5
22f
100
AcDbEntity
  8
Imprimir
 62
7
100
AcDbSpline
 70
8
 71
3
 72
8
 73
4
 74
0
 40
0
 40
0
 40
0
 40
0
 40
1
 40
1
 40
1
 40
1
 10
15.397245
 20
152.646142
 30
0.0
 10
15.368732
 20
152.592210
 30
0.0
 10
15.307487
 20
152.556480
 30
0.0
 10
15.249180
 20
152.538503
 30
0.0
  0
SPLINE
  5
230
100
AcDbEntity
  8
Imprimir
 62
7
100
AcDbSpline
 70
8
 71
3
 72
8
 73
4
 74
0
 40
0
 40
0
 40
0
 40
0
 40
1
 40
1
 40
1
 40
1
 10
15.249180
 20
152.538503
 30
0.0
 10
15.103361
 20
152.493460
 30
0.0
 10
14.930506
 20
152.488888
 30
0.0
 10
14.791520
 20
152.552049
 30
0.0
  0
SPLINE
  5
231
100
AcDbEntity
  8
Imprimir
 62
7
100
AcDbSpline
 70
8
 71
3
 72
8
 73
4
 74
0
 40
0
 40
0
 40
0
 40
0
 40
1
 40
1
 40
1
 40
1
 10
14.791520
 20
152.552049
 30
0.0
 10
14.713457
 20
152.587440
 30
0.0
 10
14.648884
 20
152.661100
 30
0.0
 10
14.616533
 20
152.740517
 30
0.0
  0
SPLINE
  5
232
100
AcDbEntity
  8
Imprimir
 62
7
100
AcDbSpline
 70
8
 71
3
 72
8
 73
4
 74
0
 40
0
 40
0
 40
0
 40
0
 40
1
 40
1
 40
1
 40
1
 10
14.616533
 20
152.740517
 30
0.0
 10
14.550468
 20
152.902569
 30
0.0
 10
14.603071
 20
153.265422
 30
0.0
 10
14.603071
 20
153.265422
 30
0.0
  0
SPLINE
  5
233
100
AcDbEntity
  8
Imprimir
 62
7
100
AcDbSpline
 70
8
 71
3
 72
8
 73
4
 74
0
 40
0
 40
0
 40
0
 40
0
 40
1
 40
1
 40
1
 40
1
 10
15.408277
 20
147.619873
 30
0.0
 10
15.408277
 20
147.619873
 30
0.0
 10
14.832160
 20
147.554877
 30
0.0
 10
14.499659
 20
147.634266
 30
0.0
  0
SPLINE
  5
234
100
AcDbEntity
  8
Imprimir
 62
7
100
AcDbSpline
 70
8
 71
3
 72
8
 73
4
 74
0
 40
0
 40
0
 40
0
 40
0
 40
1
 40
1
 40
1
 40
1
 10
14.499659
 20
147.634266
 30
0.0
 10
14.417313
 20
147.654304
 30
0.0
 10
14.418642
 20
147.628057
 30
0.0
 10
14.389152
 20
147.722574
 30
0.0
  0
SPLINE
  5
235
100
AcDbEntity
  8
Imprimir
 62
7
100
AcDbSpline
 70
8
 71
3
 72
8
 73
4
 74
0
 40
0
 40
0
 40
0
 40
0
 40
1
 40
1
 40
1
 40
1
 10
14.389152
 20
147.722574
 30
0.0
 10
14.346012
 20
147.860553
 30
0.0
 10
14.333617
 20
148.150790
 30
0.0
 10
14.389152
 20
148.282193
 30
0.0
  0
SPLINE
  5
236
100
AcDbEntity
  8
Imprimir
 62
7
100
AcDbSpline
 70
8
 71
3
 72
8
 73
4
 74
0
 40
0
 40
0
 40
0
 40
0
 40
1
 40
1
 40
1
 40
1
 10
14.389152
 20
148.282193
 30
0.0
 10
14.422096
 20
148.360171
 30
0.0
 10
14.439614
 20
148.389325
 30
0.0
 10
14.511939
 20
148.400021
 30
0.0
  0
SPLINE
  5
237
100
AcDbEntity
  8
Imprimir
 62
7
100
AcDbSpline
 70
8
 71
3
 72
8
 73
4
 74
0
 40
0
 40
0
 40
0
 40
0
 40
1
 40
1
 40
1
 40
1
 10
14.511939
 20
148.400021
 30
0.0
 10
14.806585
 20
148.443511
 30
0.0
 10
15.432833
 20
148.429428
 30
0.0
 10
15.432833
 20
148.429428
 30
0.0
  0
SPLINE
  5
238
100
AcDbEntity
  8
Imprimir
 62
7
100
AcDbSpline
 70
8
 71
3
 72
8
 73
4
 74
0
 40
0
 40
0
 40
0
 40
0
 40
1
 40
1
 40
1
 40
1
 10
15.442310
 20
143.704290
 30
0.0
 10
15.442310
 20
143.704290
 30
0.0
 10
14.828699
 20
143.639378
 30
0.0
 10
14.474564
 20
143.718683
 30
0.0
  0
SPLINE
  5
239
100
AcDbEntity
  8
Imprimir
 62
7
100
AcDbSpline
 70
8
 71
3
 72
8
 73
4
 74
0
 40
0
 40
0
 40
0
 40
0
 40
1
 40
1
 40
1
 40
1
 10
14.474564
 20
143.718683
 30
0.0
 10
14.386858
 20
143.738721
 30
0.0
 10
14.388275
 20
143.712474
 30
0.0
 10
14.356866
 20
143.806906
 30
0.0
  0
SPLINE
  5
23a
100
AcDbEntity
  8
Imprimir
 62
7
100
AcDbSpline
 70
8
 71
3
 72
8
 73
4
 74
0
 40
0
 40
0
 40
0
 40
0
 40
1
 40
1
 40
1
 40
1
 10
14.356866
 20
143.806906
 30
0.0
 10
14.310918
 20
143.944800
 30
0.0
 10
14.297715
 20
144.234811
 30
0.0
 10
14.356866
 20
144.366129
 30
0.0
  0
SPLINE
  5
23b
100
AcDbEntity
  8
Imprimir
 62
7
100
AcDbSpline
 70
8
 71
3
 72
8
 73
4
 74
0
 40
0
 40
0
 40
0
 40
0
 40
1
 40
1
 40
1
 40
1
 10
14.356866
 20
144.366129
 30
0.0
 10
14.391952
 20
144.444052
 30
0.0
 10
14.410610
 20
144.473205
 30
0.0
 10
14.487642
 20
144.483873
 30
0.0
  0
SPLINE
  5
23c
100
AcDbEntity
  8
Imprimir
 62
7
100
AcDbSpline
 70
8
 71
3
 72
8
 73
4
 74
0
 40
0
 40
0
 40
0
 40
0
 40
1
 40
1
 40
1
 40
1
 10
14.487642
 20
144.483873
 30
0.0
 10
14.801462
 20
144.527335
 30
0.0
 10
15.468463
 20
144.513252
 30
0.0
 10
15.468463
 20
144.513252
 30
0.0
  0
LWPOLYLINE
  5
23d
100
AcDbEntity
  8
Imprimir
 62
7
100
AcDbPolyline
 90
2
 70
0
 10
8.624620
 20
152.262376
 30
0.0
 10
11.764345
 20
152.262376
 30
0.0
  0
LWPOLYLINE
  5
23e
100
AcDbEntity
  8
Imprimir
 62
7
100
AcDbPolyline
 90
4
 70
0
 10
14.036691
 20
148.745743
 30
0.0
 10
15.421321
 20
148.756185
 30
0.0
 10
15.421321
 20
148.756185
 30
0.0
 10
15.421321
 20
148.756185
 30
0.0
  0
LWPOLYLINE
  5
23f
100
AcDbEntity
  8
Imprimir
 62
7
100
AcDbPolyline
 90
2
 70
0
 10
14.388921
 20
148.745743
 30
0.0
 10
14.401057
 20
149.052547
 30
0.0
  0
LWPOLYLINE
  5
240
100
AcDbEntity
  8
Imprimir
 62
7
100
AcDbPolyline
 90
4
 70
0
 10
13.966135
 20
153.649386
 30
0.0
 10
15.350765
 20
153.659828
 30
0.0
 10
15.350765
 20
153.659828
 30
0.0
 10
15.350765
 20
153.659828
 30
0.0
  0
LWPOLYLINE
  5
241
100
AcDbEntity
  8
Imprimir
 62
7
100
AcDbPolyline
 90
2
 70
0
 10
14.318366
 20
153.649386
 30
0.0
 10
14.330501
 20
153.956190
 30
0.0
  0
SPLINE
  5
242
100
AcDbEntity
  8
Imprimir
 62
7
100
AcDbSpline
 70
8
 71
3
 72
8
 73
4
 74
0
 40
0
 40
0
 40
0
 40
0
 40
1
 40
1
 40
1
 40
1
 10
14.278081
 20
149.208955
 30
0.0
 10
14.278081
 20
149.208955
 30
0.0
 10
14.235265
 20
149.631470
 30
0.0
 10
14.304130
 20
149.816890
 30
0.0
  0
SPLINE
  5
243
100
AcDbEntity
  8
Imprimir
 62
7
100
AcDbSpline
 70
8
 71
3
 72
8
 73
4
 74
0
 40
0
 40
0
 40
0
 40
0
 40
1
 40
1
 40
1
 40
1
 10
14.304130
 20
149.816890
 30
0.0
 10
14.336546
 20
149.904182
 30
0.0
 10
14.393623
 20
150.021050
 30
0.0
 10
14.473413
 20
150.019554
 30
0.0
  0
SPLINE
  5
244
100
AcDbEntity
  8
Imprimir
 62
7
100
AcDbSpline
 70
8
 71
3
 72
8
 73
4
 74
0
 40
0
 40
0
 40
0
 40
0
 40
1
 40
1
 40
1
 40
1
 10
14.473413
 20
150.019554
 30
0.0
 10
14.763992
 20
150.013910
 30
0.0
 10
15.384945
 20
150.035076
 30
0.0
 10
15.384945
 20
150.035076
 30
0.0
  0
SPLINE
  5
245
100
AcDbEntity
  8
Imprimir
 62
7
100
AcDbSpline
 70
8
 71
3
 72
8
 73
4
 74
0
 40
0
 40
0
 40
0
 40
0
 40
1
 40
1
 40
1
 40
1
 10
14.287059
 20
146.405667
 30
0.0
 10
14.287059
 20
146.405667
 30
0.0
 10
14.892199
 20
146.366579
 30
0.0
 10
15.172528
 20
146.422318
 30
0.0
  0
SPLINE
  5
246
100
AcDbEntity
  8
Imprimir
 62
7
100
AcDbSpline
 70
8
 71
3
 72
8
 73
4
 74
0
 40
0
 40
0
 40
0
 40
0
 40
1
 40
1
 40
1
 40
1
 10
15.172528
 20
146.422318
 30
0.0
 10
15.240439
 20
146.435865
 30
0.0
 10
15.278819
 20
146.536054
 30
0.0
 10
15.305957
 20
146.622865
 30
0.0
  0
SPLINE
  5
247
100
AcDbEntity
  8
Imprimir
 62
7
100
AcDbSpline
 70
8
 71
3
 72
8
 73
4
 74
0
 40
0
 40
0
 40
0
 40
0
 40
1
 40
1
 40
1
 40
1
 10
15.305957
 20
146.622865
 30
0.0
 10
15.363542
 20
146.807129
 30
0.0
 10
15.318093
 20
147.224508
 30
0.0
 10
15.318093
 20
147.224508
 30
0.0
  0
LWPOLYLINE
  5
248
100
AcDbEntity
  8
Imprimir
 62
7
100
AcDbPolyline
 90
2
 70
0
 10
13.887423
 20
149.208955
 30
0.0
 10
15.397961
 20
149.208955
 30
0.0
  0
SPLINE
  5
249
100
AcDbEntity
  8
Imprimir
 62
7
100
AcDbSpline
 70
8
 71
3
 72
8
 73
4
 74
0
 40
0
 40
0
 40
0
 40
0
 40
1
 40
1
 40
1
 40
1
 10
15.293827
 20
147.224564
 30
0.0
 10
15.293827
 20
147.224564
 30
0.0
 10
15.461713
 20
147.267208
 30
0.0
 10
15.536420
 20
147.224564
 30
0.0
  0
SPLINE
  5
24a
100
AcDbEntity
  8
Imprimir
 62
7
100
AcDbSpline
 70
8
 71
3
 72
8
 73
4
 74
0
 40
0
 40
0
 40
0
 40
0
 40
1
 40
1
 40
1
 40
1
 10
15.536420
 20
147.224564
 30
0.0
 10
15.573399
 20
147.203398
 30
0.0
 10
15.605550
 20
147.158270
 30
0.0
 10
15.621329
 20
147.107583
 30
0.0
  0
SPLINE
  5
24b
100
AcDbEntity
  8
Imprimir
 62
7
100
AcDbSpline
 70
8
 71
3
 72
8
 73
4
 74
0
 40
0
 40
0
 40
0
 40
0
 40
1
 40
1
 40
1
 40
1
 10
15.621329
 20
147.107583
 30
0.0
 10
15.685103
 20
146.902717
 30
0.0
 10
15.633465
 20
146.439110
 30
0.0
 10
15.633465
 20
146.439110
 30
0.0
  0
LWPOLYLINE
  5
24c
100
AcDbEntity
  8
Imprimir
 62
7
100
AcDbPolyline
 90
4
 70
0
 10
15.318093
 20
147.224508
 30
0.0
 10
14.299194
 20
147.224508
 30
0.0
 10
14.287059
 20
147.224508
 30
0.0
 10
14.287059
 20
147.224508
 30
0.0
  0
LWPOLYLINE
  5
24d
100
AcDbEntity
  8
Imprimir
 62
7
100
AcDbPolyline
 90
3
 70
0
 10
15.633465
 20
146.439110
 30
0.0
 10
15.633465
 20
146.439110
 30
0.0
 10
15.633465
 20
146.439110
 30
0.0
  0
SPLINE
  5
24e
100
AcDbEntity
  8
Imprimir
 62
7
100
AcDbSpline
 70
8
 71
3
 72
8
 73
4
 74
0
 40
0
 40
0
 40
0
 40
0
 40
1
 40
1
 40
1
 40
1
 10
14.337170
 20
146.114244
 30
0.0
 10
14.337170
 20
146.114244
 30
0.0
 10
14.219097
 20
145.653065
 30
0.0
 10
14.312222
 20
145.453194
 30
0.0
  0
SPLINE
  5
24f
100
AcDbEntity
  8
Imprimir
 62
7
100
AcDbSpline
 70
8
 71
3
 72
8
 73
4
 74
0
 40
0
 40
0
 40
0
 40
0
 40
1
 40
1
 40
1
 40
1
 10
14.312222
 20
145.453194
 30
0.0
 10
14.352263
 20
145.367257
 30
0.0
 10
14.442385
 20
145.287925
 30
0.0
 10
14.536729
 20
145.278583
 30
0.0
  0
SPLINE
  5
250
100
AcDbEntity
  8
Imprimir
 62
7
100
AcDbSpline
 70
8
 71
3
 72
8
 73
4
 74
0
 40
0
 40
0
 40
0
 40
0
 40
1
 40
1
 40
1
 40
1
 10
14.536729
 20
145.278583
 30
0.0
 10
14.656998
 20
145.266730
 30
0.0
 10
14.727263
 20
145.347699
 30
0.0
 10
14.786180
 20
145.453222
 30
0.0
  0
SPLINE
  5
251
100
AcDbEntity
  8
Imprimir
 62
7
100
AcDbSpline
 70
8
 71
3
 72
8
 73
4
 74
0
 40
0
 40
0
 40
0
 40
0
 40
1
 40
1
 40
1
 40
1
 10
14.786180
 20
145.453222
 30
0.0
 10
14.877744
 20
145.617222
 30
0.0
 10
14.715856
 20
145.840150
 30
0.0
 10
14.811128
 20
146.002004
 30
0.0
  0
SPLINE
  5
252
100
AcDbEntity
  8
Imprimir
 62
7
100
AcDbSpline
 70
8
 71
3
 72
8
 73
4
 74
0
 40
0
 40
0
 40
0
 40
0
 40
1
 40
1
 40
1
 40
1
 10
14.811128
 20
146.002004
 30
0.0
 10
14.873437
 20
146.107866
 30
0.0
 10
15.029201
 20
146.183332
 30
0.0
 10
15.147890
 20
146.151667
 30
0.0
  0
SPLINE
  5
253
100
AcDbEntity
  8
Imprimir
 62
7
100
AcDbSpline
 70
8
 71
3
 72
8
 73
4
 74
0
 40
0
 40
0
 40
0
 40
0
 40
1
 40
1
 40
1
 40
1
 10
15.147890
 20
146.151667
 30
0.0
 10
15.277244
 20
146.117151
 30
0.0
 10
15.346512
 20
145.955663
 30
0.0
 10
15.384869
 20
145.827393
 30
0.0
  0
SPLINE
  5
254
100
AcDbEntity
  8
Imprimir
 62
7
100
AcDbSpline
 70
8
 71
3
 72
8
 73
4
 74
0
 40
0
 40
0
 40
0
 40
0
 40
1
 40
1
 40
1
 40
1
 10
15.384869
 20
145.827393
 30
0.0
 10
15.432573
 20
145.667853
 30
0.0
 10
15.359921
 20
145.328480
 30
0.0
 10
15.359921
 20
145.328480
 30
0.0
  0
SPLINE
  5
255
100
AcDbEntity
  8
Imprimir
 62
7
100
AcDbSpline
 70
8
 71
3
 72
8
 73
4
 74
0
 40
0
 40
0
 40
0
 40
0
 40
1
 40
1
 40
1
 40
1
 10
14.474369
 20
140.239670
 30
0.0
 10
14.382300
 20
140.287902
 30
0.0
 10
14.299753
 20
140.426755
 30
0.0
 10
14.299753
 20
140.426755
 30
0.0
  0
SPLINE
  5
256
100
AcDbEntity
  8
Imprimir
 62
7
100
AcDbSpline
 70
8
 71
3
 72
8
 73
4
 74
0
 40
0
 40
0
 40
0
 40
0
 40
1
 40
1
 40
1
 40
1
 10
14.299753
 20
140.426755
 30
0.0
 10
14.299753
 20
140.426755
 30
0.0
 10
14.239572
 20
140.737143
 30
0.0
 10
14.312227
 20
140.863297
 30
0.0
  0
SPLINE
  5
257
100
AcDbEntity
  8
Imprimir
 62
7
100
AcDbSpline
 70
8
 71
3
 72
8
 73
4
 74
0
 40
0
 40
0
 40
0
 40
0
 40
1
 40
1
 40
1
 40
1
 10
14.312227
 20
140.863297
 30
0.0
 10
14.363473
 20
140.952281
 30
0.0
 10
14.433219
 20
140.983693
 30
0.0
 10
14.574152
 20
141.025434
 30
0.0
  0
SPLINE
  5
258
100
AcDbEntity
  8
Imprimir
 62
7
100
AcDbSpline
 70
8
 71
3
 72
8
 73
4
 74
0
 40
0
 40
0
 40
0
 40
0
 40
1
 40
1
 40
1
 40
1
 10
14.574152
 20
141.025434
 30
0.0
 10
14.715085
 20
141.067175
 30
0.0
 10
14.826828
 20
141.060458
 30
0.0
 10
15.073056
 20
141.025378
 30
0.0
  0
SPLINE
  5
259
100
AcDbEntity
  8
Imprimir
 62
7
100
AcDbSpline
 70
8
 71
3
 72
8
 73
4
 74
0
 40
0
 40
0
 40
0
 40
0
 40
1
 40
1
 40
1
 40
1
 10
15.073056
 20
141.025378
 30
0.0
 10
15.185025
 20
141.009573
 30
0.0
 10
15.314062
 20
140.871509
 30
0.0
 10
15.347452
 20
140.763447
 30
0.0
  0
SPLINE
  5
25a
100
AcDbEntity
  8
Imprimir
 62
7
100
AcDbSpline
 70
8
 71
3
 72
8
 73
4
 74
0
 40
0
 40
0
 40
0
 40
0
 40
1
 40
1
 40
1
 40
1
 10
15.347452
 20
140.763447
 30
0.0
 10
15.389201
 20
140.628347
 30
0.0
 10
15.391010
 20
140.469230
 30
0.0
 10
15.334978
 20
140.339379
 30
0.0
  0
SPLINE
  5
25b
100
AcDbEntity
  8
Imprimir
 62
7
100
AcDbSpline
 70
8
 71
3
 72
8
 73
4
 74
0
 40
0
 40
0
 40
0
 40
0
 40
1
 40
1
 40
1
 40
1
 10
15.334978
 20
140.339379
 30
0.0
 10
15.300033
 20
140.258409
 30
0.0
 10
15.223407
 20
140.220620
 30
0.0
 10
15.135416
 20
140.214665
 30
0.0
  0
SPLINE
  5
25c
100
AcDbEntity
  8
Imprimir
 62
7
100
AcDbSpline
 70
8
 71
3
 72
8
 73
4
 74
0
 40
0
 40
0
 40
0
 40
0
 40
1
 40
1
 40
1
 40
1
 10
15.135416
 20
140.214665
 30
0.0
 10
14.867773
 20
140.196603
 30
0.0
 10
14.669698
 20
140.137336
 30
0.0
 10
14.474372
 20
140.239783
 30
0.0
  0
LWPOLYLINE
  5
25d
100
AcDbEntity
  8
Imprimir
 62
7
100
AcDbPolyline
 90
2
 70
0
 10
13.974376
 20
152.161369
 30
0.0
 10
15.420765
 20
152.161369
 30
0.0
  0
SPLINE
  5
25e
100
AcDbEntity
  8
Imprimir
 62
7
100
AcDbSpline
 70
8
 71
3
 72
8
 73
4
 74
0
 40
0
 40
0
 40
0
 40
0
 40
1
 40
1
 40
1
 40
1
 10
14.486841
 20
154.583146
 30
0.0
 10
14.394772
 20
154.631378
 30
0.0
 10
14.312224
 20
154.770231
 30
0.0
 10
14.312224
 20
154.770231
 30
0.0
  0
SPLINE
  5
25f
100
AcDbEntity
  8
Imprimir
 62
7
100
AcDbSpline
 70
8
 71
3
 72
8
 73
4
 74
0
 40
0
 40
0
 40
0
 40
0
 40
1
 40
1
 40
1
 40
1
 10
14.312224
 20
154.770231
 30
0.0
 10
14.312224
 20
154.770231
 30
0.0
 10
14.252043
 20
155.080619
 30
0.0
 10
14.324699
 20
155.206773
 30
0.0
  0
SPLINE
  5
260
100
AcDbEntity
  8
Imprimir
 62
7
100
AcDbSpline
 70
8
 71
3
 72
8
 73
4
 74
0
 40
0
 40
0
 40
0
 40
0
 40
1
 40
1
 40
1
 40
1
 10
14.324699
 20
155.206773
 30
0.0
 10
14.375947
 20
155.295757
 30
0.0
 10
14.445690
 20
155.327169
 30
0.0
 10
14.586623
 20
155.368909
 30
0.0
  0
SPLINE
  5
261
100
AcDbEntity
  8
Imprimir
 62
7
100
AcDbSpline
 70
8
 71
3
 72
8
 73
4
 74
0
 40
0
 40
0
 40
0
 40
0
 40
1
 40
1
 40
1
 40
1
 10
14.586623
 20
155.368909
 30
0.0
 10
14.727560
 20
155.410650
 30
0.0
 10
14.839303
 20
155.403933
 30
0.0
 10
15.085527
 20
155.368853
 30
0.0
  0
SPLINE
  5
262
100
AcDbEntity
  8
Imprimir
 62
7
100
AcDbSpline
 70
8
 71
3
 72
8
 73
4
 74
0
 40
0
 40
0
 40
0
 40
0
 40
1
 40
1
 40
1
 40
1
 10
15.085527
 20
155.368853
 30
0.0
 10
15.197496
 20
155.353048
 30
0.0
 10
15.326537
 20
155.214985
 30
0.0
 10
15.359924
 20
155.106922
 30
0.0
  0
SPLINE
  5
263
100
AcDbEntity
  8
Imprimir
 62
7
100
AcDbSpline
 70
8
 71
3
 72
8
 73
4
 74
0
 40
0
 40
0
 40
0
 40
0
 40
1
 40
1
 40
1
 40
1
 10
15.359924
 20
155.106922
 30
0.0
 10
15.401676
 20
154.971823
 30
0.0
 10
15.403485
 20
154.812706
 30
0.0
 10
15.347449
 20
154.682855
 30
0.0
  0
SPLINE
  5
264
100
AcDbEntity
  8
Imprimir
 62
7
100
AcDbSpline
 70
8
 71
3
 72
8
 73
4
 74
0
 40
0
 40
0
 40
0
 40
0
 40
1
 40
1
 40
1
 40
1
 10
15.347449
 20
154.682855
 30
0.0
 10
15.312505
 20
154.601886
 30
0.0
 10
15.235881
 20
154.564096
 30
0.0
 10
15.147890
 20
154.558141
 30
0.0
  0
SPLINE
  5
265
100
AcDbEntity
  8
Imprimir
 62
7
100
AcDbSpline
 70
8
 71
3
 72
8
 73
4
 74
0
 40
0
 40
0
 40
0
 40
0
 40
1
 40
1
 40
1
 40
1
 10
15.147890
 20
154.558141
 30
0.0
 10
14.880247
 20
154.540079
 30
0.0
 10
14.682173
 20
154.480812
 30
0.0
 10
14.486844
 20
154.583259
 30
0.0
  0
LWPOLYLINE
  5
266
100
AcDbEntity
  8
Imprimir
 62
7
100
AcDbPolyline
 90
2
 70
1
 10
14.474372
 20
140.239783
 30
0.0
 10
14.474369
 20
140.239670
 30
0.0
  0
SPLINE
  5
267
100
AcDbEntity
  8
Imprimir
 62
7
100
AcDbSpline
 70
8
 71
3
 72
8
 73
4
 74
0
 40
0
 40
0
 40
0
 40
0
 40
1
 40
1
 40
1
 40
1
 10
15.808936
 20
141.412107
 30
0.0
 10
15.808936
 20
141.412107
 30
0.0
 10
14.875850
 20
141.186075
 30
0.0
 10
14.511787
 20
141.349848
 30
0.0
  0
SPLINE
  5
268
100
AcDbEntity
  8
Imprimir
 62
7
100
AcDbSpline
 70
8
 71
3
 72
8
 73
4
 74
0
 40
0
 40
0
 40
0
 40
0
 40
1
 40
1
 40
1
 40
1
 10
14.511787
 20
141.349848
 30
0.0
 10
14.412269
 20
141.394609
 30
0.0
 10
14.299753
 20
141.599277
 30
0.0
 10
14.299753
 20
141.599277
 30
0.0
  0
LWPOLYLINE
  5
269
100
AcDbEntity
  8
Imprimir
 62
7
100
AcDbPolyline
 90
2
 70
1
 10
14.486844
 20
154.583259
 30
0.0
 10
14.486841
 20
154.583146
 30
0.0
  0
SPLINE
  5
26a
100
AcDbEntity
  8
Imprimir
 62
7
100
AcDbSpline
 70
8
 71
3
 72
8
 73
4
 74
0
 40
0
 40
0
 40
0
 40
0
 40
1
 40
1
 40
1
 40
1
 10
14.324701
 20
141.961001
 30
0.0
 10
14.324701
 20
141.961001
 30
0.0
 10
14.443698
 20
142.177240
 30
0.0
 10
14.549209
 20
142.185510
 30
0.0
  0
SPLINE
  5
26b
100
AcDbEntity
  8
Imprimir
 62
7
100
AcDbSpline
 70
8
 71
3
 72
8
 73
4
 74
0
 40
0
 40
0
 40
0
 40
0
 40
1
 40
1
 40
1
 40
1
 10
14.549209
 20
142.185510
 30
0.0
 10
14.736910
 20
142.200185
 30
0.0
 10
14.910262
 20
142.224964
 30
0.0
 10
15.122947
 20
142.210345
 30
0.0
  0
SPLINE
  5
26c
100
AcDbEntity
  8
Imprimir
 62
7
100
AcDbSpline
 70
8
 71
3
 72
8
 73
4
 74
0
 40
0
 40
0
 40
0
 40
0
 40
1
 40
1
 40
1
 40
1
 10
15.122947
 20
142.210345
 30
0.0
 10
15.225975
 20
142.203290
 30
0.0
 10
15.287102
 20
142.070362
 30
0.0
 10
15.322509
 20
141.973363
 30
0.0
  0
SPLINE
  5
26d
100
AcDbEntity
  8
Imprimir
 62
7
100
AcDbSpline
 70
8
 71
3
 72
8
 73
4
 74
0
 40
0
 40
0
 40
0
 40
0
 40
1
 40
1
 40
1
 40
1
 10
15.322509
 20
141.973363
 30
0.0
 10
15.392351
 20
141.781988
 30
0.0
 10
15.322509
 20
141.362210
 30
0.0
 10
15.322509
 20
141.362210
 30
0.0
  0
SPLINE
  5
26e
100
AcDbEntity
  8
Imprimir
 62
7
100
AcDbSpline
 70
8
 71
3
 72
8
 73
4
 74
0
 40
0
 40
0
 40
0
 40
0
 40
1
 40
1
 40
1
 40
1
 10
15.796465
 20
151.053420
 30
0.0
 10
15.796465
 20
151.053420
 30
0.0
 10
14.863376
 20
150.827388
 30
0.0
 10
14.499315
 20
150.991162
 30
0.0
  0
SPLINE
  5
26f
100
AcDbEntity
  8
Imprimir
 62
7
100
AcDbSpline
 70
8
 71
3
 72
8
 73
4
 74
0
 40
0
 40
0
 40
0
 40
0
 40
1
 40
1
 40
1
 40
1
 10
14.499315
 20
150.991162
 30
0.0
 10
14.399798
 20
151.035922
 30
0.0
 10
14.287282
 20
151.240590
 30
0.0
 10
14.287282
 20
151.240590
 30
0.0
  0
LWPOLYLINE
  5
270
100
AcDbEntity
  8
Imprimir
 62
7
100
AcDbPolyline
 90
2
 70
0
 10
14.299753
 20
141.599277
 30
0.0
 10
14.324701
 20
141.961001
 30
0.0
  0
SPLINE
  5
271
100
AcDbEntity
  8
Imprimir
 62
7
100
AcDbSpline
 70
8
 71
3
 72
8
 73
4
 74
0
 40
0
 40
0
 40
0
 40
0
 40
1
 40
1
 40
1
 40
1
 10
14.312230
 20
151.602315
 30
0.0
 10
14.312230
 20
151.602315
 30
0.0
 10
14.431226
 20
151.818554
 30
0.0
 10
14.536735
 20
151.826823
 30
0.0
  0
SPLINE
  5
272
100
AcDbEntity
  8
Imprimir
 62
7
100
AcDbSpline
 70
8
 71
3
 72
8
 73
4
 74
0
 40
0
 40
0
 40
0
 40
0
 40
1
 40
1
 40
1
 40
1
 10
14.536735
 20
151.826823
 30
0.0
 10
14.724435
 20
151.841498
 30
0.0
 10
14.897790
 20
151.866278
 30
0.0
 10
15.110476
 20
151.851658
 30
0.0
  0
SPLINE
  5
273
100
AcDbEntity
  8
Imprimir
 62
7
100
AcDbSpline
 70
8
 71
3
 72
8
 73
4
 74
0
 40
0
 40
0
 40
0
 40
0
 40
1
 40
1
 40
1
 40
1
 10
15.110476
 20
151.851658
 30
0.0
 10
15.213504
 20
151.844603
 30
0.0
 10
15.274630
 20
151.711676
 30
0.0
 10
15.310035
 20
151.614676
 30
0.0
  0
SPLINE
  5
274
100
AcDbEntity
  8
Imprimir
 62
7
100
AcDbSpline
 70
8
 71
3
 72
8
 73
4
 74
0
 40
0
 40
0
 40
0
 40
0
 40
1
 40
1
 40
1
 40
1
 10
15.310035
 20
151.614676
 30
0.0
 10
15.379879
 20
151.423301
 30
0.0
 10
15.310035
 20
151.003523
 30
0.0
 10
15.310035
 20
151.003523
 30
0.0
  0
SPLINE
  5
275
100
AcDbEntity
  8
Imprimir
 62
7
100
AcDbSpline
 70
8
 71
3
 72
8
 73
4
 74
0
 40
0
 40
0
 40
0
 40
0
 40
1
 40
1
 40
1
 40
1
 10
14.998219
 20
142.572041
 30
0.0
 10
14.998219
 20
142.572041
 30
0.0
 10
14.870578
 20
143.331079
 30
0.0
 10
14.574149
 20
143.357805
 30
0.0
  0
SPLINE
  5
276
100
AcDbEntity
  8
Imprimir
 62
7
100
AcDbSpline
 70
8
 71
3
 72
8
 73
4
 74
0
 40
0
 40
0
 40
0
 40
0
 40
1
 40
1
 40
1
 40
1
 10
14.574149
 20
143.357805
 30
0.0
 10
14.415072
 20
143.372199
 30
0.0
 10
14.287008
 20
143.142893
 30
0.0
 10
14.274807
 20
142.983635
 30
0.0
  0
SPLINE
  5
277
100
AcDbEntity
  8
Imprimir
 62
7
100
AcDbSpline
 70
8
 71
3
 72
8
 73
4
 74
0
 40
0
 40
0
 40
0
 40
0
 40
1
 40
1
 40
1
 40
1
 10
14.274807
 20
142.983635
 30
0.0
 10
14.260160
 20
142.792373
 30
0.0
 10
14.391927
 20
142.574073
 30
0.0
 10
14.561678
 20
142.484722
 30
0.0
  0
SPLINE
  5
278
100
AcDbEntity
  8
Imprimir
 62
7
100
AcDbSpline
 70
8
 71
3
 72
8
 73
4
 74
0
 40
0
 40
0
 40
0
 40
0
 40
1
 40
1
 40
1
 40
1
 10
14.561678
 20
142.484722
 30
0.0
 10
14.746212
 20
142.387581
 30
0.0
 10
14.999472
 20
142.439989
 30
0.0
 10
15.185307
 20
142.534618
 30
0.0
  0
SPLINE
  5
279
100
AcDbEntity
  8
Imprimir
 62
7
100
AcDbSpline
 70
8
 71
3
 72
8
 73
4
 74
0
 40
0
 40
0
 40
0
 40
0
 40
1
 40
1
 40
1
 40
1
 10
15.185307
 20
142.534618
 30
0.0
 10
15.253619
 20
142.569416
 30
0.0
 10
15.307690
 20
142.637601
 30
0.0
 10
15.334978
 20
142.709230
 30
0.0
  0
SPLINE
  5
27a
100
AcDbEntity
  8
Imprimir
 62
7
100
AcDbSpline
 70
8
 71
3
 72
8
 73
4
 74
0
 40
0
 40
0
 40
0
 40
0
 40
1
 40
1
 40
1
 40
1
 10
15.334978
 20
142.709230
 30
0.0
 10
15.411946
 20
142.911301
 30
0.0
 10
15.347452
 20
143.357805
 30
0.0
 10
15.347452
 20
143.357805
 30
0.0
  0
LWPOLYLINE
  5
27b
100
AcDbEntity
  8
Imprimir
 62
7
100
AcDbPolyline
 90
2
 70
0
 10
14.287282
 20
151.240590
 30
0.0
 10
14.312230
 20
151.602315
 30
0.0
  0
LWPOLYLINE
  5
27c
100
AcDbEntity
  8
Imprimir
 62
7
100
AcDbPolyline
 90
3
 70
0
 10
13.962994
 20
154.383615
 30
0.0
 10
14.062774
 20
154.134159
 30
0.0
 10
15.409812
 20
154.134159
 30
0.0
  0
SPLINE
  5
27d
100
AcDbEntity
  8
Imprimir
 62
7
100
AcDbSpline
 70
8
 71
3
 72
8
 73
4
 74
0
 40
0
 40
0
 40
0
 40
0
 40
1
 40
1
 40
1
 40
1
 10
14.299753
 20
156.017512
 30
0.0
 10
14.299753
 20
156.017512
 30
0.0
 10
14.416522
 20
155.752167
 30
0.0
 10
14.536732
 20
155.693239
 30
0.0
  0
SPLINE
  5
27e
100
AcDbEntity
  8
Imprimir
 62
7
100
AcDbSpline
 70
8
 71
3
 72
8
 73
4
 74
0
 40
0
 40
0
 40
0
 40
0
 40
1
 40
1
 40
1
 40
1
 10
14.536732
 20
155.693239
 30
0.0
 10
14.801883
 20
155.563248
 30
0.0
 10
15.422286
 20
155.718075
 30
0.0
 10
15.422286
 20
155.718075
 30
0.0
  0
LWPOLYLINE
  5
27f
100
AcDbEntity
  8
Imprimir
 62
7
100
AcDbPolyline
 90
2
 70
0
 10
14.299753
 20
154.121685
 30
0.0
 10
14.299753
 20
154.396089
 30
0.0
  0
SPLINE
  5
280
100
AcDbEntity
  8
Imprimir
 62
7
100
AcDbSpline
 70
8
 71
3
 72
8
 73
4
 74
0
 40
0
 40
0
 40
0
 40
0
 40
1
 40
1
 40
1
 40
1
 10
14.511787
 20
156.266912
 30
0.0
 10
14.511787
 20
156.266912
 30
0.0
 10
14.380816
 20
156.330976
 30
0.0
 10
14.349644
 20
156.391626
 30
0.0
  0
SPLINE
  5
281
100
AcDbEntity
  8
Imprimir
 62
7
100
AcDbSpline
 70
8
 71
3
 72
8
 73
4
 74
0
 40
0
 40
0
 40
0
 40
0
 40
1
 40
1
 40
1
 40
1
 10
14.349644
 20
156.391626
 30
0.0
 10
14.294487
 20
156.498927
 30
0.0
 10
14.306772
 20
156.646586
 30
0.0
 10
14.412004
 20
156.728402
 30
0.0
  0
LWPOLYLINE
  5
282
100
AcDbEntity
  8
Imprimir
 62
7
100
AcDbPolyline
 90
2
 70
0
 10
15.372395
 20
156.254494
 30
0.0
 10
14.511787
 20
156.266912
 30
0.0
  0
SPLINE
  5
283
100
AcDbEntity
  8
Imprimir
 62
7
100
AcDbSpline
 70
8
 71
3
 72
8
 73
4
 74
0
 40
0
 40
0
 40
0
 40
0
 40
1
 40
1
 40
1
 40
1
 10
15.384866
 20
156.822184
 30
0.0
 10
15.384866
 20
156.822184
 30
0.0
 10
14.757763
 20
156.783520
 30
0.0
 10
14.486841
 20
156.878205
 30
0.0
  0
SPLINE
  5
284
100
AcDbEntity
  8
Imprimir
 62
7
100
AcDbSpline
 70
8
 71
3
 72
8
 73
4
 74
0
 40
0
 40
0
 40
0
 40
0
 40
1
 40
1
 40
1
 40
1
 10
14.486841
 20
156.878205
 30
0.0
 10
14.427967
 20
156.898808
 30
0.0
 10
14.366899
 20
156.935638
 30
0.0
 10
14.337170
 20
156.990473
 30
0.0
  0
SPLINE
  5
285
100
AcDbEntity
  8
Imprimir
 62
7
100
AcDbSpline
 70
8
 71
3
 72
8
 73
4
 74
0
 40
0
 40
0
 40
0
 40
0
 40
1
 40
1
 40
1
 40
1
 10
14.337170
 20
156.990473
 30
0.0
 10
14.277582
 20
157.100342
 30
0.0
 10
14.274325
 20
157.212808
 30
0.0
 10
14.324696
 20
157.327221
 30
0.0
  0
SPLINE
  5
286
100
AcDbEntity
  8
Imprimir
 62
7
100
AcDbSpline
 70
8
 71
3
 72
8
 73
4
 74
0
 40
0
 40
0
 40
0
 40
0
 40
1
 40
1
 40
1
 40
1
 10
14.324696
 20
157.327221
 30
0.0
 10
14.356878
 20
157.400316
 30
0.0
 10
14.436047
 20
157.451568
 30
0.0
 10
14.511784
 20
157.476883
 30
0.0
  0
SPLINE
  5
287
100
AcDbEntity
  8
Imprimir
 62
7
100
AcDbSpline
 70
8
 71
3
 72
8
 73
4
 74
0
 40
0
 40
0
 40
0
 40
0
 40
1
 40
1
 40
1
 40
1
 10
14.511784
 20
157.476883
 30
0.0
 10
14.780016
 20
157.566574
 30
0.0
 10
15.359921
 20
157.452048
 30
0.0
 10
15.359921
 20
157.452048
 30
0.0
  0
SPLINE
  5
288
100
AcDbEntity
  8
Imprimir
 62
7
100
AcDbSpline
 70
8
 71
3
 72
8
 73
4
 74
0
 40
0
 40
0
 40
0
 40
0
 40
1
 40
1
 40
1
 40
1
 10
14.287282
 20
133.629206
 30
0.0
 10
14.287282
 20
133.629206
 30
0.0
 10
15.044083
 20
133.968465
 30
0.0
 10
15.260144
 20
134.115616
 30
0.0
  0
SPLINE
  5
289
100
AcDbEntity
  8
Imprimir
 62
7
100
AcDbSpline
 70
8
 71
3
 72
8
 73
4
 74
0
 40
0
 40
0
 40
0
 40
0
 40
1
 40
1
 40
1
 40
1
 10
15.260144
 20
134.115616
 30
0.0
 10
15.402093
 20
134.212305
 30
0.0
 10
14.312224
 20
134.627002
 30
0.0
 10
14.312224
 20
134.627002
 30
0.0
  0
SPLINE
  5
28a
100
AcDbEntity
  8
Imprimir
 62
7
100
AcDbSpline
 70
8
 71
3
 72
8
 73
4
 74
0
 40
0
 40
0
 40
0
 40
0
 40
1
 40
1
 40
1
 40
1
 10
13.913103
 20
135.599851
 30
0.0
 10
15.409812
 20
135.624686
 30
0.0
 10
15.409812
 20
135.624686
 30
0.0
 10
15.409812
 20
135.624686
 30
0.0
  0
SPLINE
  5
28b
100
AcDbEntity
  8
Imprimir
 62
7
100
AcDbSpline
 70
8
 71
3
 72
8
 73
4
 74
0
 40
0
 40
0
 40
0
 40
0
 40
1
 40
1
 40
1
 40
1
 10
14.199973
 20
136.872080
 30
0.0
 10
14.108166
 20
136.904649
 30
0.0
 10
13.975466
 20
137.059165
 30
0.0
 10
13.975466
 20
137.059165
 30
0.0
  0
SPLINE
  5
28c
100
AcDbEntity
  8
Imprimir
 62
7
100
AcDbSpline
 70
8
 71
3
 72
8
 73
4
 74
0
 40
0
 40
0
 40
0
 40
0
 40
1
 40
1
 40
1
 40
1
 10
13.975466
 20
137.059165
 30
0.0
 10
13.975466
 20
137.059165
 30
0.0
 10
13.891792
 20
137.418350
 30
0.0
 10
13.950517
 20
137.582998
 30
0.0
  0
SPLINE
  5
28d
100
AcDbEntity
  8
Imprimir
 62
7
100
AcDbSpline
 70
8
 71
3
 72
8
 73
4
 74
0
 40
0
 40
0
 40
0
 40
0
 40
1
 40
1
 40
1
 40
1
 10
13.950517
 20
137.582998
 30
0.0
 10
13.988101
 20
137.688352
 30
0.0
 10
14.072527
 20
137.787637
 30
0.0
 10
14.175025
 20
137.832454
 30
0.0
  0
SPLINE
  5
28e
100
AcDbEntity
  8
Imprimir
 62
7
100
AcDbSpline
 70
8
 71
3
 72
8
 73
4
 74
0
 40
0
 40
0
 40
0
 40
0
 40
1
 40
1
 40
1
 40
1
 10
14.175025
 20
137.832454
 30
0.0
 10
14.456928
 20
137.955729
 30
0.0
 10
14.815940
 20
137.942972
 30
0.0
 10
15.097996
 20
137.820036
 30
0.0
  0
SPLINE
  5
28f
100
AcDbEntity
  8
Imprimir
 62
7
100
AcDbSpline
 70
8
 71
3
 72
8
 73
4
 74
0
 40
0
 40
0
 40
0
 40
0
 40
1
 40
1
 40
1
 40
1
 10
15.097996
 20
137.820036
 30
0.0
 10
15.213910
 20
137.769519
 30
0.0
 10
15.311311
 20
137.662359
 30
0.0
 10
15.359921
 20
137.545632
 30
0.0
  0
SPLINE
  5
290
100
AcDbEntity
  8
Imprimir
 62
7
100
AcDbSpline
 70
8
 71
3
 72
8
 73
4
 74
0
 40
0
 40
0
 40
0
 40
0
 40
1
 40
1
 40
1
 40
1
 10
15.359921
 20
137.545632
 30
0.0
 10
15.419072
 20
137.403589
 30
0.0
 10
15.429347
 20
137.227116
 30
0.0
 10
15.372395
 20
137.084170
 30
0.0
  0
SPLINE
  5
291
100
AcDbEntity
  8
Imprimir
 62
7
100
AcDbSpline
 70
8
 71
3
 72
8
 73
4
 74
0
 40
0
 40
0
 40
0
 40
0
 40
1
 40
1
 40
1
 40
1
 10
15.372395
 20
137.084170
 30
0.0
 10
15.337572
 20
136.996766
 30
0.0
 10
15.259517
 20
136.921159
 30
0.0
 10
15.172833
 20
136.884583
 30
0.0
  0
SPLINE
  5
292
100
AcDbEntity
  8
Imprimir
 62
7
100
AcDbSpline
 70
8
 71
3
 72
8
 73
4
 74
0
 40
0
 40
0
 40
0
 40
0
 40
1
 40
1
 40
1
 40
1
 10
15.172833
 20
136.884583
 30
0.0
 10
14.874013
 20
136.758542
 30
0.0
 10
14.505620
 20
136.763650
 30
0.0
 10
14.199973
 20
136.872165
 30
0.0
  0
LWPOLYLINE
  5
293
100
AcDbEntity
  8
Imprimir
 62
7
100
AcDbPolyline
 90
3
 70
0
 10
14.412004
 20
156.728402
 30
0.0
 10
14.524258
 20
156.815693
 30
0.0
 10
15.384866
 20
156.822184
 30
0.0
  0
LWPOLYLINE
  5
294
100
AcDbEntity
  8
Imprimir
 62
7
100
AcDbPolyline
 90
2
 70
1
 10
14.199973
 20
136.872165
 30
0.0
 10
14.199973
 20
136.872080
 30
0.0
  0
SPLINE
  5
295
100
AcDbEntity
  8
Imprimir
 62
7
100
AcDbSpline
 70
8
 71
3
 72
8
 73
4
 74
0
 40
0
 40
0
 40
0
 40
0
 40
1
 40
1
 40
1
 40
1
 10
9.916562
 20
133.343117
 30
0.0
 10
9.916562
 20
133.343117
 30
0.0
 10
9.852413
 20
133.883432
 30
0.0
 10
9.925396
 20
134.138250
 30
0.0
  0
SPLINE
  5
296
100
AcDbEntity
  8
Imprimir
 62
7
100
AcDbSpline
 70
8
 71
3
 72
8
 73
4
 74
0
 40
0
 40
0
 40
0
 40
0
 40
1
 40
1
 40
1
 40
1
 10
9.925396
 20
134.138250
 30
0.0
 10
9.947240
 20
134.214478
 30
0.0
 10
10.049080
 20
134.341450
 30
0.0
 10
10.049080
 20
134.341450
 30
0.0
  0
LWPOLYLINE
  5
297
100
AcDbEntity
  8
Imprimir
 62
7
100
AcDbPolyline
 90
2
 70
0
 10
14.823603
 20
138.867674
 30
0.0
 10
14.823603
 20
139.404009
 30
0.0
  0
SPLINE
  5
298
100
AcDbEntity
  8
Imprimir
 62
7
100
AcDbSpline
 70
8
 71
3
 72
8
 73
4
 74
0
 40
0
 40
0
 40
0
 40
0
 40
1
 40
1
 40
1
 40
1
 10
10.658669
 20
134.341450
 30
0.0
 10
10.658669
 20
134.341450
 30
0.0
 10
10.909420
 20
134.400378
 30
0.0
 10
10.967883
 20
134.500454
 30
0.0
  0
SPLINE
  5
299
100
AcDbEntity
  8
Imprimir
 62
7
100
AcDbSpline
 70
8
 71
3
 72
8
 73
4
 74
0
 40
0
 40
0
 40
0
 40
0
 40
1
 40
1
 40
1
 40
1
 10
10.967883
 20
134.500454
 30
0.0
 10
11.006530
 20
134.566607
 30
0.0
 10
10.995540
 20
134.662788
 30
0.0
 10
10.959049
 20
134.730155
 30
0.0
  0
SPLINE
  5
29a
100
AcDbEntity
  8
Imprimir
 62
7
100
AcDbSpline
 70
8
 71
3
 72
8
 73
4
 74
0
 40
0
 40
0
 40
0
 40
0
 40
1
 40
1
 40
1
 40
1
 10
10.959049
 20
134.730155
 30
0.0
 10
10.917794
 20
134.806298
 30
0.0
 10
10.747018
 20
134.880353
 30
0.0
 10
10.747018
 20
134.880353
 30
0.0
  0
LWPOLYLINE
  5
29b
100
AcDbEntity
  8
Imprimir
 62
7
100
AcDbPolyline
 90
2
 70
0
 10
10.049080
 20
134.341450
 30
0.0
 10
10.658669
 20
134.341450
 30
0.0
  0
SPLINE
  5
29c
100
AcDbEntity
  8
Imprimir
 62
7
100
AcDbSpline
 70
8
 71
3
 72
8
 73
4
 74
0
 40
0
 40
0
 40
0
 40
0
 40
1
 40
1
 40
1
 40
1
 10
9.457161
 20
134.871604
 30
0.0
 10
9.457161
 20
134.871604
 30
0.0
 10
9.244992
 20
134.935076
 30
0.0
 10
9.192123
 20
135.021775
 30
0.0
  0
SPLINE
  5
29d
100
AcDbEntity
  8
Imprimir
 62
7
100
AcDbSpline
 70
8
 71
3
 72
8
 73
4
 74
0
 40
0
 40
0
 40
0
 40
0
 40
1
 40
1
 40
1
 40
1
 10
9.192123
 20
135.021775
 30
0.0
 10
9.153758
 20
135.084682
 30
0.0
 10
9.155624
 20
135.174344
 30
0.0
 10
9.183290
 20
135.242642
 30
0.0
  0
SPLINE
  5
29e
100
AcDbEntity
  8
Imprimir
 62
7
100
AcDbSpline
 70
8
 71
3
 72
8
 73
4
 74
0
 40
0
 40
0
 40
0
 40
0
 40
1
 40
1
 40
1
 40
1
 10
9.183290
 20
135.242642
 30
0.0
 10
9.215356
 20
135.321805
 30
0.0
 10
9.368817
 20
135.419341
 30
0.0
 10
9.368817
 20
135.419341
 30
0.0
  0
LWPOLYLINE
  5
29f
100
AcDbEntity
  8
Imprimir
 62
7
100
AcDbPolyline
 90
2
 70
0
 10
10.747018
 20
134.880353
 30
0.0
 10
9.457161
 20
134.871604
 30
0.0
  0
SPLINE
  5
2a0
100
AcDbEntity
  8
Imprimir
 62
7
100
AcDbSpline
 70
8
 71
3
 72
8
 73
4
 74
0
 40
0
 40
0
 40
0
 40
0
 40
1
 40
1
 40
1
 40
1
 10
11.285930
 20
135.375174
 30
0.0
 10
11.285930
 20
135.375174
 30
0.0
 10
11.540960
 20
135.462465
 30
0.0
 10
11.603978
 20
135.569540
 30
0.0
  0
SPLINE
  5
2a1
100
AcDbEntity
  8
Imprimir
 62
7
100
AcDbSpline
 70
8
 71
3
 72
8
 73
4
 74
0
 40
0
 40
0
 40
0
 40
0
 40
1
 40
1
 40
1
 40
1
 10
11.603978
 20
135.569540
 30
0.0
 10
11.639856
 20
135.630500
 30
0.0
 10
11.638516
 20
135.715675
 30
0.0
 10
11.612811
 20
135.781574
 30
0.0
  0
SPLINE
  5
2a2
100
AcDbEntity
  8
Imprimir
 62
7
100
AcDbSpline
 70
8
 71
3
 72
8
 73
4
 74
0
 40
0
 40
0
 40
0
 40
0
 40
1
 40
1
 40
1
 40
1
 10
11.612811
 20
135.781574
 30
0.0
 10
11.579517
 20
135.866918
 30
0.0
 10
11.418448
 20
135.975912
 30
0.0
 10
11.418448
 20
135.975912
 30
0.0
  0
LWPOLYLINE
  5
2a3
100
AcDbEntity
  8
Imprimir
 62
7
100
AcDbPolyline
 90
2
 70
0
 10
9.368817
 20
135.419341
 30
0.0
 10
11.285930
 20
135.375174
 30
0.0
  0
SPLINE
  5
2a4
100
AcDbEntity
  8
Imprimir
 62
7
100
AcDbSpline
 70
8
 71
3
 72
8
 73
4
 74
0
 40
0
 40
0
 40
0
 40
0
 40
1
 40
1
 40
1
 40
1
 10
8.812233
 20
135.975912
 30
0.0
 10
8.812233
 20
135.975912
 30
0.0
 10
8.704604
 20
136.095913
 30
0.0
 10
8.679715
 20
136.170278
 30
0.0
  0
SPLINE
  5
2a5
100
AcDbEntity
  8
Imprimir
 62
7
100
AcDbSpline
 70
8
 71
3
 72
8
 73
4
 74
0
 40
0
 40
0
 40
0
 40
0
 40
1
 40
1
 40
1
 40
1
 10
8.679715
 20
136.170278
 30
0.0
 10
8.660072
 20
136.228980
 30
0.0
 10
8.648555
 20
136.298068
 30
0.0
 10
8.670882
 20
136.355811
 30
0.0
  0
SPLINE
  5
2a6
100
AcDbEntity
  8
Imprimir
 62
7
100
AcDbSpline
 70
8
 71
3
 72
8
 73
4
 74
0
 40
0
 40
0
 40
0
 40
0
 40
1
 40
1
 40
1
 40
1
 10
8.670882
 20
136.355811
 30
0.0
 10
8.691907
 20
136.410195
 30
0.0
 10
8.794565
 20
136.479509
 30
0.0
 10
8.794565
 20
136.479509
 30
0.0
  0
LWPOLYLINE
  5
2a7
100
AcDbEntity
  8
Imprimir
 62
7
100
AcDbPolyline
 90
2
 70
0
 10
11.418448
 20
135.975912
 30
0.0
 10
8.812233
 20
135.975912
 30
0.0
  0
SPLINE
  5
2a8
100
AcDbEntity
  8
Imprimir
 62
7
100
AcDbSpline
 70
8
 71
3
 72
8
 73
4
 74
0
 40
0
 40
0
 40
0
 40
0
 40
1
 40
1
 40
1
 40
1
 10
11.347773
 20
136.479509
 30
0.0
 10
11.347773
 20
136.479509
 30
0.0
 10
11.548168
 20
136.552492
 30
0.0
 10
11.595141
 20
136.638513
 30
0.0
  0
SPLINE
  5
2a9
100
AcDbEntity
  8
Imprimir
 62
7
100
AcDbSpline
 70
8
 71
3
 72
8
 73
4
 74
0
 40
0
 40
0
 40
0
 40
0
 40
1
 40
1
 40
1
 40
1
 10
11.595141
 20
136.638513
 30
0.0
 10
11.637477
 20
136.716040
 30
0.0
 10
11.626671
 20
136.821026
 30
0.0
 10
11.595141
 20
136.903548
 30
0.0
  0
SPLINE
  5
2aa
100
AcDbEntity
  8
Imprimir
 62
7
100
AcDbSpline
 70
8
 71
3
 72
8
 73
4
 74
0
 40
0
 40
0
 40
0
 40
0
 40
1
 40
1
 40
1
 40
1
 10
11.595141
 20
136.903548
 30
0.0
 10
11.568330
 20
136.973680
 30
0.0
 10
11.444954
 20
137.071414
 30
0.0
 10
11.444954
 20
137.071414
 30
0.0
  0
LWPOLYLINE
  5
2ab
100
AcDbEntity
  8
Imprimir
 62
7
100
AcDbPolyline
 90
2
 70
0
 10
8.794565
 20
136.479509
 30
0.0
 10
11.347773
 20
136.479509
 30
0.0
  0
SPLINE
  5
2ac
100
AcDbEntity
  8
Imprimir
 62
7
100
AcDbSpline
 70
8
 71
3
 72
8
 73
4
 74
0
 40
0
 40
0
 40
0
 40
0
 40
1
 40
1
 40
1
 40
1
 10
9.421824
 20
137.071414
 30
0.0
 10
9.421824
 20
137.071414
 30
0.0
 10
9.207126
 20
137.136297
 30
0.0
 10
9.155962
 20
137.224914
 30
0.0
  0
SPLINE
  5
2ad
100
AcDbEntity
  8
Imprimir
 62
7
100
AcDbSpline
 70
8
 71
3
 72
8
 73
4
 74
0
 40
0
 40
0
 40
0
 40
0
 40
1
 40
1
 40
1
 40
1
 10
9.155962
 20
137.224914
 30
0.0
 10
9.115283
 20
137.295357
 30
0.0
 10
9.124828
 20
137.393824
 30
0.0
 10
9.155962
 20
137.468980
 30
0.0
  0
SPLINE
  5
2ae
100
AcDbEntity
  8
Imprimir
 62
7
100
AcDbSpline
 70
8
 71
3
 72
8
 73
4
 74
0
 40
0
 40
0
 40
0
 40
0
 40
1
 40
1
 40
1
 40
1
 10
9.155962
 20
137.468980
 30
0.0
 10
9.185519
 20
137.540354
 30
0.0
 10
9.319815
 20
137.632838
 30
0.0
 10
9.319815
 20
137.632838
 30
0.0
  0
LWPOLYLINE
  5
2af
100
AcDbEntity
  8
Imprimir
 62
7
100
AcDbPolyline
 90
2
 70
0
 10
11.444954
 20
137.071414
 30
0.0
 10
9.421824
 20
137.071414
 30
0.0
  0
SPLINE
  5
2b0
100
AcDbEntity
  8
Imprimir
 62
7
100
AcDbSpline
 70
8
 71
3
 72
8
 73
4
 74
0
 40
0
 40
0
 40
0
 40
0
 40
1
 40
1
 40
1
 40
1
 10
10.747018
 20
137.632838
 30
0.0
 10
10.747018
 20
137.632838
 30
0.0
 10
10.890901
 20
137.702547
 30
0.0
 10
10.923709
 20
137.769349
 30
0.0
  0
SPLINE
  5
2b1
100
AcDbEntity
  8
Imprimir
 62
7
100
AcDbSpline
 70
8
 71
3
 72
8
 73
4
 74
0
 40
0
 40
0
 40
0
 40
0
 40
1
 40
1
 40
1
 40
1
 10
10.923709
 20
137.769349
 30
0.0
 10
10.957460
 20
137.838070
 30
0.0
 10
10.953009
 20
137.928297
 30
0.0
 10
10.923709
 20
137.999050
 30
0.0
  0
SPLINE
  5
2b2
100
AcDbEntity
  8
Imprimir
 62
7
100
AcDbSpline
 70
8
 71
3
 72
8
 73
4
 74
0
 40
0
 40
0
 40
0
 40
0
 40
1
 40
1
 40
1
 40
1
 10
10.923709
 20
137.999050
 30
0.0
 10
10.898224
 20
138.060603
 30
0.0
 10
10.782355
 20
138.140415
 30
0.0
 10
10.782355
 20
138.140415
 30
0.0
  0
SPLINE
  5
2b3
100
AcDbEntity
  8
Imprimir
 62
7
100
AcDbSpline
 70
8
 71
3
 72
8
 73
4
 74
0
 40
0
 40
0
 40
0
 40
0
 40
1
 40
1
 40
1
 40
1
 10
10.782355
 20
138.140415
 30
0.0
 10
10.782355
 20
138.140415
 30
0.0
 10
10.291167
 20
138.077903
 30
0.0
 10
10.057916
 20
138.140415
 30
0.0
  0
SPLINE
  5
2b4
100
AcDbEntity
  8
Imprimir
 62
7
100
AcDbSpline
 70
8
 71
3
 72
8
 73
4
 74
0
 40
0
 40
0
 40
0
 40
0
 40
1
 40
1
 40
1
 40
1
 10
10.057916
 20
138.140415
 30
0.0
 10
10.001435
 20
138.155655
 30
0.0
 10
9.905996
 20
138.228130
 30
0.0
 10
9.905996
 20
138.228130
 30
0.0
  0
LWPOLYLINE
  5
2b5
100
AcDbEntity
  8
Imprimir
 62
7
100
AcDbPolyline
 90
2
 70
0
 10
9.319815
 20
137.632838
 30
0.0
 10
10.747018
 20
137.632838
 30
0.0
  0
SPLINE
  5
2b6
100
AcDbEntity
  8
Imprimir
 62
7
100
AcDbSpline
 70
8
 71
3
 72
8
 73
4
 74
0
 40
0
 40
0
 40
0
 40
0
 40
1
 40
1
 40
1
 40
1
 10
11.860182
 20
139.085718
 30
0.0
 10
11.860182
 20
139.085718
 30
0.0
 10
12.190802
 20
139.016913
 30
0.0
 10
12.310747
 20
138.909019
 30
0.0
  0
SPLINE
  5
2b7
100
AcDbEntity
  8
Imprimir
 62
7
100
AcDbSpline
 70
8
 71
3
 72
8
 73
4
 74
0
 40
0
 40
0
 40
0
 40
0
 40
1
 40
1
 40
1
 40
1
 10
12.310747
 20
138.909019
 30
0.0
 10
12.434140
 20
138.798021
 30
0.0
 10
12.540447
 20
138.467285
 30
0.0
 10
12.540447
 20
138.467285
 30
0.0
  0
LWPOLYLINE
  5
2b8
100
AcDbEntity
  8
Imprimir
 62
7
100
AcDbPolyline
 90
3
 70
0
 10
9.905996
 20
138.228130
 30
0.0
 10
9.905996
 20
139.085718
 30
0.0
 10
11.860182
 20
139.085718
 30
0.0
  0
SPLINE
  5
2b9
100
AcDbEntity
  8
Imprimir
 62
7
100
AcDbSpline
 70
8
 71
3
 72
8
 73
4
 74
0
 40
0
 40
0
 40
0
 40
0
 40
1
 40
1
 40
1
 40
1
 10
12.540447
 20
133.961635
 30
0.0
 10
12.540447
 20
133.961635
 30
0.0
 10
12.421748
 20
133.679611
 30
0.0
 10
12.310747
 20
133.581736
 30
0.0
  0
SPLINE
  5
2ba
100
AcDbEntity
  8
Imprimir
 62
7
100
AcDbSpline
 70
8
 71
3
 72
8
 73
4
 74
0
 40
0
 40
0
 40
0
 40
0
 40
1
 40
1
 40
1
 40
1
 10
12.310747
 20
133.581736
 30
0.0
 10
12.201970
 20
133.485837
 30
0.0
 10
11.913189
 20
133.405065
 30
0.0
 10
11.913189
 20
133.405065
 30
0.0
  0
LWPOLYLINE
  5
2bb
100
AcDbEntity
  8
Imprimir
 62
7
100
AcDbPolyline
 90
2
 70
0
 10
12.540447
 20
138.467285
 30
0.0
 10
12.540447
 20
133.961635
 30
0.0
  0
SPLINE
  5
2bc
100
AcDbEntity
  8
Imprimir
 62
7
100
AcDbSpline
 70
8
 71
3
 72
8
 73
4
 74
0
 40
0
 40
0
 40
0
 40
0
 40
1
 40
1
 40
1
 40
1
 10
8.229150
 20
133.405065
 30
0.0
 10
8.229150
 20
133.405065
 30
0.0
 10
8.041582
 20
133.503956
 30
0.0
 10
7.972946
 20
133.581736
 30
0.0
  0
SPLINE
  5
2bd
100
AcDbEntity
  8
Imprimir
 62
7
100
AcDbSpline
 70
8
 71
3
 72
8
 73
4
 74
0
 40
0
 40
0
 40
0
 40
0
 40
1
 40
1
 40
1
 40
1
 10
7.972946
 20
133.581736
 30
0.0
 10
7.858781
 20
133.711107
 30
0.0
 10
7.734409
 20
134.041137
 30
0.0
 10
7.734409
 20
134.041137
 30
0.0
  0
LWPOLYLINE
  5
2be
100
AcDbEntity
  8
Imprimir
 62
7
100
AcDbPolyline
 90
2
 70
0
 10
11.913189
 20
133.405065
 30
0.0
 10
8.229150
 20
133.405065
 30
0.0
  0
SPLINE
  5
2bf
100
AcDbEntity
  8
Imprimir
 62
7
100
AcDbSpline
 70
8
 71
3
 72
8
 73
4
 74
0
 40
0
 40
0
 40
0
 40
0
 40
1
 40
1
 40
1
 40
1
 10
7.734409
 20
138.502619
 30
0.0
 10
7.734409
 20
138.502619
 30
0.0
 10
7.811679
 20
138.750664
 30
0.0
 10
7.893433
 20
138.847184
 30
0.0
  0
SPLINE
  5
2c0
100
AcDbEntity
  8
Imprimir
 62
7
100
AcDbSpline
 70
8
 71
3
 72
8
 73
4
 74
0
 40
0
 40
0
 40
0
 40
0
 40
1
 40
1
 40
1
 40
1
 10
7.893433
 20
138.847184
 30
0.0
 10
8.001651
 20
138.974946
 30
0.0
 10
8.308661
 20
139.129886
 30
0.0
 10
8.308661
 20
139.129886
 30
0.0
  0
LWPOLYLINE
  5
2c1
100
AcDbEntity
  8
Imprimir
 62
7
100
AcDbPolyline
 90
2
 70
0
 10
7.734409
 20
134.041137
 30
0.0
 10
7.734409
 20
138.502619
 30
0.0
  0
LWPOLYLINE
  5
2c2
100
AcDbEntity
  8
Imprimir
 62
7
100
AcDbPolyline
 90
2
 70
0
 10
8.308661
 20
139.129886
 30
0.0
 10
9.907729
 20
139.121137
 30
0.0
  0
SPLINE
  5
2c3
100
AcDbEntity
  8
Imprimir
 62
7
100
AcDbSpline
 70
8
 71
3
 72
8
 73
4
 74
0
 40
0
 40
0
 40
0
 40
0
 40
1
 40
1
 40
1
 40
1
 10
36.208727
 20
42.871021
 30
0.0
 10
36.208727
 20
42.871021
 30
0.0
 10
36.212678
 20
43.416923
 30
0.0
 10
36.227467
 20
43.689381
 30
0.0
  0
SPLINE
  5
2c4
100
AcDbEntity
  8
Imprimir
 62
7
100
AcDbSpline
 70
8
 71
3
 72
8
 73
4
 74
0
 40
0
 40
0
 40
0
 40
0
 40
1
 40
1
 40
1
 40
1
 10
36.227467
 20
43.689381
 30
0.0
 10
36.229442
 20
43.725900
 30
0.0
 10
36.227185
 20
43.763455
 30
0.0
 10
36.236837
 20
43.798702
 30
0.0
  0
SPLINE
  5
2c5
100
AcDbEntity
  8
Imprimir
 62
7
100
AcDbSpline
 70
8
 71
3
 72
8
 73
4
 74
0
 40
0
 40
0
 40
0
 40
0
 40
1
 40
1
 40
1
 40
1
 10
36.236837
 20
43.798702
 30
0.0
 10
36.251371
 20
43.851204
 30
0.0
 10
36.273949
 20
43.903531
 30
0.0
 10
36.308679
 20
43.945508
 30
0.0
  0
SPLINE
  5
2c6
100
AcDbEntity
  8
Imprimir
 62
7
100
AcDbSpline
 70
8
 71
3
 72
8
 73
4
 74
0
 40
0
 40
0
 40
0
 40
0
 40
1
 40
1
 40
1
 40
1
 10
36.308679
 20
43.945508
 30
0.0
 10
36.335236
 20
43.977597
 30
0.0
 10
36.368172
 20
44.010595
 30
0.0
 10
36.408631
 20
44.020472
 30
0.0
  0
SPLINE
  5
2c7
100
AcDbEntity
  8
Imprimir
 62
7
100
AcDbSpline
 70
8
 71
3
 72
8
 73
4
 74
0
 40
0
 40
0
 40
0
 40
0
 40
1
 40
1
 40
1
 40
1
 10
36.408631
 20
44.020472
 30
0.0
 10
36.559134
 20
44.057218
 30
0.0
 10
36.729848
 20
44.046409
 30
0.0
 10
36.886529
 20
44.032975
 30
0.0
  0
SPLINE
  5
2c8
100
AcDbEntity
  8
Imprimir
 62
7
100
AcDbSpline
 70
8
 71
3
 72
8
 73
4
 74
0
 40
0
 40
0
 40
0
 40
0
 40
1
 40
1
 40
1
 40
1
 10
36.886529
 20
44.032975
 30
0.0
 10
36.932571
 20
44.029024
 30
0.0
 10
36.976555
 20
44.006107
 30
0.0
 10
37.014593
 20
43.979875
 30
0.0
  0
SPLINE
  5
2c9
100
AcDbEntity
  8
Imprimir
 62
7
100
AcDbSpline
 70
8
 71
3
 72
8
 73
4
 74
0
 40
0
 40
0
 40
0
 40
0
 40
1
 40
1
 40
1
 40
1
 10
37.014593
 20
43.979875
 30
0.0
 10
37.055817
 20
43.951432
 30
0.0
 10
37.092738
 20
43.913993
 30
0.0
 10
37.117669
 20
43.870553
 30
0.0
  0
SPLINE
  5
2ca
100
AcDbEntity
  8
Imprimir
 62
7
100
AcDbSpline
 70
8
 71
3
 72
8
 73
4
 74
0
 40
0
 40
0
 40
0
 40
0
 40
1
 40
1
 40
1
 40
1
 10
37.117669
 20
43.870553
 30
0.0
 10
37.136042
 20
43.838549
 30
0.0
 10
37.147003
 20
43.801203
 30
0.0
 10
37.148903
 20
43.764353
 30
0.0
  0
SPLINE
  5
2cb
100
AcDbEntity
  8
Imprimir
 62
7
100
AcDbSpline
 70
8
 71
3
 72
8
 73
4
 74
0
 40
0
 40
0
 40
0
 40
0
 40
1
 40
1
 40
1
 40
1
 10
37.148903
 20
43.764353
 30
0.0
 10
37.162844
 20
43.493854
 30
0.0
 10
37.130163
 20
42.945993
 30
0.0
 10
37.130163
 20
42.945993
 30
0.0
  0
LWPOLYLINE
  5
2cc
100
AcDbEntity
  8
Imprimir
 62
7
100
AcDbPolyline
 90
2
 70
0
 10
37.942274
 20
42.871021
 30
0.0
 10
36.208727
 20
42.871021
 30
0.0
  0
SPLINE
  5
2cd
100
AcDbEntity
  8
Imprimir
 62
7
100
AcDbSpline
 70
8
 71
3
 72
8
 73
4
 74
0
 40
0
 40
0
 40
0
 40
0
 40
1
 40
1
 40
1
 40
1
 10
17.331345
 20
101.111598
 30
0.0
 10
17.331345
 20
101.111598
 30
0.0
 10
18.266525
 20
101.103414
 30
0.0
 10
18.731635
 20
101.116114
 30
0.0
  0
SPLINE
  5
2ce
100
AcDbEntity
  8
Imprimir
 62
7
100
AcDbSpline
 70
8
 71
3
 72
8
 73
4
 74
0
 40
0
 40
0
 40
0
 40
0
 40
1
 40
1
 40
1
 40
1
 10
18.731635
 20
101.116114
 30
0.0
 10
18.776401
 20
101.116114
 30
0.0
 10
18.823202
 20
101.120065
 30
0.0
 10
18.864153
 20
101.138127
 30
0.0
  0
SPLINE
  5
2cf
100
AcDbEntity
  8
Imprimir
 62
7
100
AcDbSpline
 70
8
 71
3
 72
8
 73
4
 74
0
 40
0
 40
0
 40
0
 40
0
 40
1
 40
1
 40
1
 40
1
 10
18.864153
 20
101.138127
 30
0.0
 10
18.896747
 20
101.152520
 30
0.0
 10
18.924190
 20
101.177948
 30
0.0
 10
18.948083
 20
101.204393
 30
0.0
  0
SPLINE
  5
2d0
100
AcDbEntity
  8
Imprimir
 62
7
100
AcDbSpline
 70
8
 71
3
 72
8
 73
4
 74
0
 40
0
 40
0
 40
0
 40
0
 40
1
 40
1
 40
1
 40
1
 10
18.948083
 20
101.204393
 30
0.0
 10
18.973821
 20
101.232869
 30
0.0
 10
18.993662
 20
101.266792
 30
0.0
 10
19.009926
 20
101.301562
 30
0.0
  0
SPLINE
  5
2d1
100
AcDbEntity
  8
Imprimir
 62
7
100
AcDbSpline
 70
8
 71
3
 72
8
 73
4
 74
0
 40
0
 40
0
 40
0
 40
0
 40
1
 40
1
 40
1
 40
1
 10
19.009926
 20
101.301562
 30
0.0
 10
19.024319
 20
101.332352
 30
0.0
 10
19.035637
 20
101.365146
 30
0.0
 10
19.040846
 20
101.398759
 30
0.0
  0
SPLINE
  5
2d2
100
AcDbEntity
  8
Imprimir
 62
7
100
AcDbSpline
 70
8
 71
3
 72
8
 73
4
 74
0
 40
0
 40
0
 40
0
 40
0
 40
1
 40
1
 40
1
 40
1
 10
19.040846
 20
101.398759
 30
0.0
 10
19.046039
 20
101.432231
 30
0.0
 10
19.040846
 20
101.466492
 30
0.0
 10
19.040846
 20
101.500359
 30
0.0
  0
LWPOLYLINE
  5
2d3
100
AcDbEntity
  8
Imprimir
 62
7
100
AcDbPolyline
 90
2
 70
0
 10
37.130163
 20
42.945993
 30
0.0
 10
37.929783
 20
43.973629
 30
0.0
  0
LWPOLYLINE
  5
2d4
100
AcDbEntity
  8
Imprimir
 62
7
100
AcDbPolyline
 90
2
 70
0
 10
19.040846
 20
101.500359
 30
0.0
 10
19.040846
 20
102.220364
 30
0.0
  0
SPLINE
  5
2d5
100
AcDbEntity
  8
Imprimir
 62
7
100
AcDbSpline
 70
8
 71
3
 72
8
 73
4
 74
0
 40
0
 40
0
 40
0
 40
0
 40
1
 40
1
 40
1
 40
1
 10
17.377158
 20
116.558746
 30
0.0
 10
17.377158
 20
116.558746
 30
0.0
 10
17.381109
 20
117.104649
 30
0.0
 10
17.395897
 20
117.377106
 30
0.0
  0
SPLINE
  5
2d6
100
AcDbEntity
  8
Imprimir
 62
7
100
AcDbSpline
 70
8
 71
3
 72
8
 73
4
 74
0
 40
0
 40
0
 40
0
 40
0
 40
1
 40
1
 40
1
 40
1
 10
17.395897
 20
117.377106
 30
0.0
 10
17.397873
 20
117.413626
 30
0.0
 10
17.395615
 20
117.451161
 30
0.0
 10
17.405267
 20
117.486411
 30
0.0
  0
SPLINE
  5
2d7
100
AcDbEntity
  8
Imprimir
 62
7
100
AcDbSpline
 70
8
 71
3
 72
8
 73
4
 74
0
 40
0
 40
0
 40
0
 40
0
 40
1
 40
1
 40
1
 40
1
 10
17.405267
 20
117.486411
 30
0.0
 10
17.419801
 20
117.538904
 30
0.0
 10
17.442379
 20
117.591253
 30
0.0
 10
17.477110
 20
117.633220
 30
0.0
  0
SPLINE
  5
2d8
100
AcDbEntity
  8
Imprimir
 62
7
100
AcDbSpline
 70
8
 71
3
 72
8
 73
4
 74
0
 40
0
 40
0
 40
0
 40
0
 40
1
 40
1
 40
1
 40
1
 10
17.477110
 20
117.633220
 30
0.0
 10
17.503667
 20
117.665309
 30
0.0
 10
17.536602
 20
117.698300
 30
0.0
 10
17.577061
 20
117.708178
 30
0.0
  0
SPLINE
  5
2d9
100
AcDbEntity
  8
Imprimir
 62
7
100
AcDbSpline
 70
8
 71
3
 72
8
 73
4
 74
0
 40
0
 40
0
 40
0
 40
0
 40
1
 40
1
 40
1
 40
1
 10
17.577061
 20
117.708178
 30
0.0
 10
17.727565
 20
117.744923
 30
0.0
 10
17.898281
 20
117.734143
 30
0.0
 10
18.054962
 20
117.720596
 30
0.0
  0
SPLINE
  5
2da
100
AcDbEntity
  8
Imprimir
 62
7
100
AcDbSpline
 70
8
 71
3
 72
8
 73
4
 74
0
 40
0
 40
0
 40
0
 40
0
 40
1
 40
1
 40
1
 40
1
 10
18.054962
 20
117.720596
 30
0.0
 10
18.101004
 20
117.716645
 30
0.0
 10
18.144988
 20
117.693785
 30
0.0
 10
18.183026
 20
117.667510
 30
0.0
  0
SPLINE
  5
2db
100
AcDbEntity
  8
Imprimir
 62
7
100
AcDbSpline
 70
8
 71
3
 72
8
 73
4
 74
0
 40
0
 40
0
 40
0
 40
0
 40
1
 40
1
 40
1
 40
1
 10
18.183026
 20
117.667510
 30
0.0
 10
18.224251
 20
117.639062
 30
0.0
 10
18.261171
 20
117.601611
 30
0.0
 10
18.286102
 20
117.558180
 30
0.0
  0
SPLINE
  5
2dc
100
AcDbEntity
  8
Imprimir
 62
7
100
AcDbSpline
 70
8
 71
3
 72
8
 73
4
 74
0
 40
0
 40
0
 40
0
 40
0
 40
1
 40
1
 40
1
 40
1
 10
18.286102
 20
117.558180
 30
0.0
 10
18.304475
 20
117.526176
 30
0.0
 10
18.315437
 20
117.488838
 30
0.0
 10
18.317336
 20
117.451980
 30
0.0
  0
SPLINE
  5
2dd
100
AcDbEntity
  8
Imprimir
 62
7
100
AcDbSpline
 70
8
 71
3
 72
8
 73
4
 74
0
 40
0
 40
0
 40
0
 40
0
 40
1
 40
1
 40
1
 40
1
 10
18.317336
 20
117.451980
 30
0.0
 10
18.331278
 20
117.181470
 30
0.0
 10
18.298596
 20
116.633620
 30
0.0
 10
18.298596
 20
116.633620
 30
0.0
  0
LWPOLYLINE
  5
2de
100
AcDbEntity
  8
Imprimir
 62
7
100
AcDbPolyline
 90
2
 70
0
 10
19.110708
 20
116.558746
 30
0.0
 10
17.377158
 20
116.558746
 30
0.0
  0
SPLINE
  5
2df
100
AcDbEntity
  8
Imprimir
 62
5
100
AcDbSpline
 70
8
 71
3
 72
8
 73
4
 74
0
 40
0
 40
0
 40
0
 40
0
 40
1
 40
1
 40
1
 40
1
 10
26.813419
 20
128.201612
 30
0.0
 10
24.901231
 20
128.201610
 30
0.0
 10
23.351094
 20
129.751656
 30
0.0
 10
23.351092
 20
131.663737
 30
0.0
  0
SPLINE
  5
2e0
100
AcDbEntity
  8
Imprimir
 62
5
100
AcDbSpline
 70
8
 71
3
 72
8
 73
4
 74
0
 40
0
 40
0
 40
0
 40
0
 40
1
 40
1
 40
1
 40
1
 10
23.351092
 20
131.663737
 30
0.0
 10
23.351086
 20
132.581955
 30
0.0
 10
23.715864
 20
133.462567
 30
0.0
 10
24.365177
 20
134.111847
 30
0.0
  0
SPLINE
  5
2e1
100
AcDbEntity
  8
Imprimir
 62
5
100
AcDbSpline
 70
8
 71
3
 72
8
 73
4
 74
0
 40
0
 40
0
 40
0
 40
0
 40
1
 40
1
 40
1
 40
1
 10
24.365177
 20
134.111847
 30
0.0
 10
25.014490
 20
134.761126
 30
0.0
 10
25.895150
 20
135.125888
 30
0.0
 10
26.813419
 20
135.125887
 30
0.0
  0
SPLINE
  5
2e2
100
AcDbEntity
  8
Imprimir
 62
5
100
AcDbSpline
 70
8
 71
3
 72
8
 73
4
 74
0
 40
0
 40
0
 40
0
 40
0
 40
1
 40
1
 40
1
 40
1
 10
26.813419
 20
135.125887
 30
0.0
 10
27.731688
 20
135.125886
 30
0.0
 10
28.612346
 20
134.761124
 30
0.0
 10
29.261658
 20
134.111845
 30
0.0
  0
SPLINE
  5
2e3
100
AcDbEntity
  8
Imprimir
 62
5
100
AcDbSpline
 70
8
 71
3
 72
8
 73
4
 74
0
 40
0
 40
0
 40
0
 40
0
 40
1
 40
1
 40
1
 40
1
 10
29.261658
 20
134.111845
 30
0.0
 10
29.910970
 20
133.462565
 30
0.0
 10
30.275747
 20
132.581954
 30
0.0
 10
30.275742
 20
131.663737
 30
0.0
  0
SPLINE
  5
2e4
100
AcDbEntity
  8
Imprimir
 62
5
100
AcDbSpline
 70
8
 71
3
 72
8
 73
4
 74
0
 40
0
 40
0
 40
0
 40
0
 40
1
 40
1
 40
1
 40
1
 10
30.275742
 20
131.663737
 30
0.0
 10
30.275739
 20
129.751658
 30
0.0
 10
28.725605
 20
128.201613
 30
0.0
 10
26.813419
 20
128.201612
 30
0.0
  0
LWPOLYLINE
  5
2e5
100
AcDbEntity
  8
Imprimir
 62
7
100
AcDbPolyline
 90
2
 70
0
 10
18.298596
 20
116.633620
 30
0.0
 10
19.098217
 20
117.661245
 30
0.0
  0
SPLINE
  5
2e6
100
AcDbEntity
  8
Imprimir
 62
5
100
AcDbSpline
 70
8
 71
3
 72
8
 73
4
 74
0
 40
0
 40
0
 40
0
 40
0
 40
1
 40
1
 40
1
 40
1
 10
30.060022
 20
89.040121
 30
0.0
 10
29.259117
 20
89.040121
 30
0.0
 10
28.491015
 20
89.358261
 30
0.0
 10
27.924690
 20
89.924554
 30
0.0
  0
SPLINE
  5
2e7
100
AcDbEntity
  8
Imprimir
 62
5
100
AcDbSpline
 70
8
 71
3
 72
8
 73
4
 74
0
 40
0
 40
0
 40
0
 40
0
 40
1
 40
1
 40
1
 40
1
 10
27.924690
 20
89.924554
 30
0.0
 10
27.358365
 20
90.490847
 30
0.0
 10
27.040206
 20
91.258906
 30
0.0
 10
27.040206
 20
92.059766
 30
0.0
  0
SPLINE
  5
2e8
100
AcDbEntity
  8
Imprimir
 62
5
100
AcDbSpline
 70
8
 71
3
 72
8
 73
4
 74
0
 40
0
 40
0
 40
0
 40
0
 40
1
 40
1
 40
1
 40
1
 10
27.040206
 20
92.059766
 30
0.0
 10
27.040202
 20
92.860629
 30
0.0
 10
27.358358
 20
93.628692
 30
0.0
 10
27.924684
 20
94.194989
 30
0.0
  0
SPLINE
  5
2e9
100
AcDbEntity
  8
Imprimir
 62
5
100
AcDbSpline
 70
8
 71
3
 72
8
 73
4
 74
0
 40
0
 40
0
 40
0
 40
0
 40
1
 40
1
 40
1
 40
1
 10
27.924684
 20
94.194989
 30
0.0
 10
28.491010
 20
94.761286
 30
0.0
 10
29.259114
 20
95.079428
 30
0.0
 10
30.060022
 20
95.079428
 30
0.0
  0
SPLINE
  5
2ea
100
AcDbEntity
  8
Imprimir
 62
5
100
AcDbSpline
 70
8
 71
3
 72
8
 73
4
 74
0
 40
0
 40
0
 40
0
 40
0
 40
1
 40
1
 40
1
 40
1
 10
30.060022
 20
95.079428
 30
0.0
 10
30.860930
 20
95.079429
 30
0.0
 10
31.629035
 20
94.761286
 30
0.0
 10
32.195361
 20
94.194989
 30
0.0
  0
SPLINE
  5
2eb
100
AcDbEntity
  8
Imprimir
 62
5
100
AcDbSpline
 70
8
 71
3
 72
8
 73
4
 74
0
 40
0
 40
0
 40
0
 40
0
 40
1
 40
1
 40
1
 40
1
 10
32.195361
 20
94.194989
 30
0.0
 10
32.761687
 20
93.628692
 30
0.0
 10
33.079844
 20
92.860629
 30
0.0
 10
33.079840
 20
92.059766
 30
0.0
  0
SPLINE
  5
2ec
100
AcDbEntity
  8
Imprimir
 62
5
100
AcDbSpline
 70
8
 71
3
 72
8
 73
4
 74
0
 40
0
 40
0
 40
0
 40
0
 40
1
 40
1
 40
1
 40
1
 10
33.079840
 20
92.059766
 30
0.0
 10
33.079840
 20
91.258906
 30
0.0
 10
32.761681
 20
90.490847
 30
0.0
 10
32.195355
 20
89.924554
 30
0.0
  0
SPLINE
  5
2ed
100
AcDbEntity
  8
Imprimir
 62
5
100
AcDbSpline
 70
8
 71
3
 72
8
 73
4
 74
0
 40
0
 40
0
 40
0
 40
0
 40
1
 40
1
 40
1
 40
1
 10
32.195355
 20
89.924554
 30
0.0
 10
31.629030
 20
89.358260
 30
0.0
 10
30.860927
 20
89.040120
 30
0.0
 10
30.060022
 20
89.040121
 30
0.0
  0
LWPOLYLINE
  5
2ee
100
AcDbEntity
  8
Imprimir
 62
5
100
AcDbPolyline
 90
2
 70
1
 10
26.813419
 20
128.201612
 30
0.0
 10
26.813419
 20
128.201612
 30
0.0
  0
SPLINE
  5
2ef
100
AcDbEntity
  8
Imprimir
 62
7
100
AcDbSpline
 70
8
 71
3
 72
8
 73
4
 74
0
 40
0
 40
0
 40
0
 40
0
 40
1
 40
1
 40
1
 40
1
 10
36.391579
 20
33.692889
 30
0.0
 10
36.391579
 20
33.692889
 30
0.0
 10
37.321504
 20
33.668110
 30
0.0
 10
37.813454
 20
33.692889
 30
0.0
  0
SPLINE
  5
2f0
100
AcDbEntity
  8
Imprimir
 62
7
100
AcDbSpline
 70
8
 71
3
 72
8
 73
4
 74
0
 40
0
 40
0
 40
0
 40
0
 40
1
 40
1
 40
1
 40
1
 10
37.813454
 20
33.692889
 30
0.0
 10
37.875182
 20
33.695993
 30
0.0
 10
37.936972
 20
33.720490
 30
0.0
 10
37.988071
 20
33.755251
 30
0.0
  0
SPLINE
  5
2f1
100
AcDbEntity
  8
Imprimir
 62
7
100
AcDbSpline
 70
8
 71
3
 72
8
 73
4
 74
0
 40
0
 40
0
 40
0
 40
0
 40
1
 40
1
 40
1
 40
1
 10
37.988071
 20
33.755251
 30
0.0
 10
38.042878
 20
33.792547
 30
0.0
 10
38.110956
 20
33.839122
 30
0.0
 10
38.119033
 20
33.904922
 30
0.0
  0
SPLINE
  5
2f2
100
AcDbEntity
  8
Imprimir
 62
7
100
AcDbSpline
 70
8
 71
3
 72
8
 73
4
 74
0
 40
0
 40
0
 40
0
 40
0
 40
1
 40
1
 40
1
 40
1
 10
38.119033
 20
33.904922
 30
0.0
 10
38.156882
 20
34.213273
 30
0.0
 10
38.148706
 20
34.400338
 30
0.0
 10
38.119033
 20
34.653277
 30
0.0
  0
SPLINE
  5
2f3
100
AcDbEntity
  8
Imprimir
 62
7
100
AcDbSpline
 70
8
 71
3
 72
8
 73
4
 74
0
 40
0
 40
0
 40
0
 40
0
 40
1
 40
1
 40
1
 40
1
 10
38.119033
 20
34.653277
 30
0.0
 10
38.110792
 20
34.723595
 30
0.0
 10
38.039799
 20
34.774765
 30
0.0
 10
37.981834
 20
34.815419
 30
0.0
  0
SPLINE
  5
2f4
100
AcDbEntity
  8
Imprimir
 62
7
100
AcDbSpline
 70
8
 71
3
 72
8
 73
4
 74
0
 40
0
 40
0
 40
0
 40
0
 40
1
 40
1
 40
1
 40
1
 10
37.981834
 20
34.815419
 30
0.0
 10
37.932831
 20
34.849785
 30
0.0
 10
37.873305
 20
34.877452
 30
0.0
 10
37.813454
 20
34.877785
 30
0.0
  0
SPLINE
  5
2f5
100
AcDbEntity
  8
Imprimir
 62
7
100
AcDbSpline
 70
8
 71
3
 72
8
 73
4
 74
0
 40
0
 40
0
 40
0
 40
0
 40
1
 40
1
 40
1
 40
1
 10
37.813454
 20
34.877785
 30
0.0
 10
37.353167
 20
34.880325
 30
0.0
 10
36.391579
 20
34.877785
 30
0.0
 10
36.391579
 20
34.877785
 30
0.0
  0
LWPOLYLINE
  5
2f6
100
AcDbEntity
  8
Imprimir
 62
5
100
AcDbPolyline
 90
2
 70
1
 10
30.060022
 20
89.040121
 30
0.0
 10
30.060022
 20
89.040121
 30
0.0
  0
SPLINE
  5
2f7
100
AcDbEntity
  8
Imprimir
 62
7
100
AcDbSpline
 70
8
 71
3
 72
8
 73
4
 74
0
 40
0
 40
0
 40
0
 40
0
 40
1
 40
1
 40
1
 40
1
 10
36.665975
 20
32.083923
 30
0.0
 10
36.611094
 20
32.085899
 30
0.0
 10
36.562225
 20
32.127027
 30
0.0
 10
36.522541
 20
32.164994
 30
0.0
  0
SPLINE
  5
2f8
100
AcDbEntity
  8
Imprimir
 62
7
100
AcDbSpline
 70
8
 71
3
 72
8
 73
4
 74
0
 40
0
 40
0
 40
0
 40
0
 40
1
 40
1
 40
1
 40
1
 10
36.522541
 20
32.164994
 30
0.0
 10
36.480033
 20
32.205668
 30
0.0
 10
36.436980
 20
32.256375
 30
0.0
 10
36.428996
 20
32.314665
 30
0.0
  0
SPLINE
  5
2f9
100
AcDbEntity
  8
Imprimir
 62
7
100
AcDbSpline
 70
8
 71
3
 72
8
 73
4
 74
0
 40
0
 40
0
 40
0
 40
0
 40
1
 40
1
 40
1
 40
1
 10
36.428996
 20
32.314665
 30
0.0
 10
36.398858
 20
32.534711
 30
0.0
 10
36.398858
 20
32.768143
 30
0.0
 10
36.428996
 20
32.981951
 30
0.0
  0
SPLINE
  5
2fa
100
AcDbEntity
  8
Imprimir
 62
7
100
AcDbSpline
 70
8
 71
3
 72
8
 73
4
 74
0
 40
0
 40
0
 40
0
 40
0
 40
1
 40
1
 40
1
 40
1
 10
36.428996
 20
32.981951
 30
0.0
 10
36.437209
 20
33.040208
 30
0.0
 10
36.481207
 20
33.089757
 30
0.0
 10
36.522541
 20
33.131622
 30
0.0
  0
SPLINE
  5
2fb
100
AcDbEntity
  8
Imprimir
 62
7
100
AcDbSpline
 70
8
 71
3
 72
8
 73
4
 74
0
 40
0
 40
0
 40
0
 40
0
 40
1
 40
1
 40
1
 40
1
 10
36.522541
 20
33.131622
 30
0.0
 10
36.571157
 20
33.180861
 30
0.0
 10
36.628231
 20
33.237791
 30
0.0
 10
36.697158
 20
33.243876
 30
0.0
  0
SPLINE
  5
2fc
100
AcDbEntity
  8
Imprimir
 62
7
100
AcDbSpline
 70
8
 71
3
 72
8
 73
4
 74
0
 40
0
 40
0
 40
0
 40
0
 40
1
 40
1
 40
1
 40
1
 10
36.697158
 20
33.243876
 30
0.0
 10
37.070386
 20
33.276828
 30
0.0
 10
37.454324
 20
33.240941
 30
0.0
 10
37.844637
 20
33.243876
 30
0.0
  0
SPLINE
  5
2fd
100
AcDbEntity
  8
Imprimir
 62
7
100
AcDbSpline
 70
8
 71
3
 72
8
 73
4
 74
0
 40
0
 40
0
 40
0
 40
0
 40
1
 40
1
 40
1
 40
1
 10
37.844637
 20
33.243876
 30
0.0
 10
37.907857
 20
33.244441
 30
0.0
 10
37.966481
 20
33.199367
 30
0.0
 10
38.013016
 20
33.156568
 30
0.0
  0
SPLINE
  5
2fe
100
AcDbEntity
  8
Imprimir
 62
7
100
AcDbSpline
 70
8
 71
3
 72
8
 73
4
 74
0
 40
0
 40
0
 40
0
 40
0
 40
1
 40
1
 40
1
 40
1
 10
38.013016
 20
33.156568
 30
0.0
 10
38.061832
 20
33.111669
 30
0.0
 10
38.113846
 20
33.054310
 30
0.0
 10
38.119033
 20
32.988188
 30
0.0
  0
SPLINE
  5
2ff
100
AcDbEntity
  8
Imprimir
 62
7
100
AcDbSpline
 70
8
 71
3
 72
8
 73
4
 74
0
 40
0
 40
0
 40
0
 40
0
 40
1
 40
1
 40
1
 40
1
 10
38.119033
 20
32.988188
 30
0.0
 10
38.135317
 20
32.780473
 30
0.0
 10
38.150732
 20
32.579432
 30
0.0
 10
38.119033
 20
32.339611
 30
0.0
  0
SPLINE
  5
300
100
AcDbEntity
  8
Imprimir
 62
7
100
AcDbSpline
 70
8
 71
3
 72
8
 73
4
 74
0
 40
0
 40
0
 40
0
 40
0
 40
1
 40
1
 40
1
 40
1
 10
38.119033
 20
32.339611
 30
0.0
 10
38.109861
 20
32.270336
 30
0.0
 10
38.063715
 20
32.206848
 30
0.0
 10
38.013016
 20
32.158760
 30
0.0
  0
SPLINE
  5
301
100
AcDbEntity
  8
Imprimir
 62
7
100
AcDbSpline
 70
8
 71
3
 72
8
 73
4
 74
0
 40
0
 40
0
 40
0
 40
0
 40
1
 40
1
 40
1
 40
1
 10
38.013016
 20
32.158760
 30
0.0
 10
37.963771
 20
32.112052
 30
0.0
 10
37.900006
 20
32.063261
 30
0.0
 10
37.832163
 20
32.065214
 30
0.0
  0
SPLINE
  5
302
100
AcDbEntity
  8
Imprimir
 62
7
100
AcDbSpline
 70
8
 71
3
 72
8
 73
4
 74
0
 40
0
 40
0
 40
0
 40
0
 40
1
 40
1
 40
1
 40
1
 10
37.832163
 20
32.065214
 30
0.0
 10
37.453680
 20
32.076108
 30
0.0
 10
37.053630
 20
32.069307
 30
0.0
 10
36.665975
 20
32.083926
 30
0.0
  0
LWPOLYLINE
  5
303
100
AcDbEntity
  8
Imprimir
 62
7
100
AcDbPolyline
 90
3
 70
0
 10
36.391579
 20
34.877785
 30
0.0
 10
36.391579
 20
34.877785
 30
0.0
 10
36.391579
 20
34.877785
 30
0.0
  0
LWPOLYLINE
  5
304
100
AcDbEntity
  8
Imprimir
 62
7
100
AcDbPolyline
 90
2
 70
1
 10
36.665975
 20
32.083926
 30
0.0
 10
36.665975
 20
32.083923
 30
0.0
  0
LWPOLYLINE
  5
305
100
AcDbEntity
  8
Imprimir
 62
7
100
AcDbPolyline
 90
2
 70
0
 10
36.428996
 20
35.102290
 30
0.0
 10
36.428996
 20
36.256006
 30
0.0
  0
SPLINE
  5
306
100
AcDbEntity
  8
Imprimir
 62
7
100
AcDbSpline
 70
8
 71
3
 72
8
 73
4
 74
0
 40
0
 40
0
 40
0
 40
0
 40
1
 40
1
 40
1
 40
1
 10
17.381865
 20
108.470065
 30
0.0
 10
19.121793
 20
108.470065
 30
0.0
 10
19.146739
 20
108.463828
 30
0.0
 10
19.146739
 20
108.463828
 30
0.0
  0
LWPOLYLINE
  5
307
100
AcDbEntity
  8
Imprimir
 62
7
100
AcDbPolyline
 90
2
 70
0
 10
36.428996
 20
35.669793
 30
0.0
 10
38.181396
 20
35.682268
 30
0.0
  0
SPLINE
  5
308
100
AcDbEntity
  8
Imprimir
 62
5
100
AcDbSpline
 70
8
 71
3
 72
8
 73
4
 74
0
 40
0
 40
0
 40
0
 40
0
 40
1
 40
1
 40
1
 40
1
 10
25.807965
 20
96.949941
 30
0.0
 10
24.404689
 20
96.949941
 30
0.0
 10
23.058887
 20
97.507359
 30
0.0
 10
22.066621
 20
98.499569
 30
0.0
  0
SPLINE
  5
309
100
AcDbEntity
  8
Imprimir
 62
5
100
AcDbSpline
 70
8
 71
3
 72
8
 73
4
 74
0
 40
0
 40
0
 40
0
 40
0
 40
1
 40
1
 40
1
 40
1
 10
22.066621
 20
98.499569
 30
0.0
 10
21.074354
 20
99.491780
 30
0.0
 10
20.516905
 20
100.837506
 30
0.0
 10
20.516905
 20
102.240704
 30
0.0
  0
SPLINE
  5
30a
100
AcDbEntity
  8
Imprimir
 62
5
100
AcDbSpline
 70
8
 71
3
 72
8
 73
4
 74
0
 40
0
 40
0
 40
0
 40
0
 40
1
 40
1
 40
1
 40
1
 10
20.516905
 20
102.240704
 30
0.0
 10
20.516905
 20
103.643902
 30
0.0
 10
21.074354
 20
104.989628
 30
0.0
 10
22.066621
 20
105.981839
 30
0.0
  0
SPLINE
  5
30b
100
AcDbEntity
  8
Imprimir
 62
5
100
AcDbSpline
 70
8
 71
3
 72
8
 73
4
 74
0
 40
0
 40
0
 40
0
 40
0
 40
1
 40
1
 40
1
 40
1
 10
22.066621
 20
105.981839
 30
0.0
 10
23.058887
 20
106.974050
 30
0.0
 10
24.404689
 20
107.531468
 30
0.0
 10
25.807965
 20
107.531468
 30
0.0
  0
SPLINE
  5
30c
100
AcDbEntity
  8
Imprimir
 62
5
100
AcDbSpline
 70
8
 71
3
 72
8
 73
4
 74
0
 40
0
 40
0
 40
0
 40
0
 40
1
 40
1
 40
1
 40
1
 10
25.807965
 20
107.531468
 30
0.0
 10
28.730137
 20
107.531467
 30
0.0
 10
31.099024
 20
105.162712
 30
0.0
 10
31.099023
 20
102.240704
 30
0.0
  0
SPLINE
  5
30d
100
AcDbEntity
  8
Imprimir
 62
5
100
AcDbSpline
 70
8
 71
3
 72
8
 73
4
 74
0
 40
0
 40
0
 40
0
 40
0
 40
1
 40
1
 40
1
 40
1
 10
31.099023
 20
102.240704
 30
0.0
 10
31.099024
 20
99.318697
 30
0.0
 10
28.730137
 20
96.949941
 30
0.0
 10
25.807965
 20
96.949941
 30
0.0
  0
LWPOLYLINE
  5
30e
100
AcDbEntity
  8
Imprimir
 62
7
100
AcDbPolyline
 90
6
 70
0
 10
19.159210
 20
108.900367
 30
0.0
 10
17.444231
 20
108.906604
 30
0.0
 10
19.159210
 20
110.085263
 30
0.0
 10
17.394339
 20
110.085266
 30
0.0
 10
17.394339
 20
110.085266
 30
0.0
 10
17.394339
 20
110.085266
 30
0.0
  0
LWPOLYLINE
  5
30f
100
AcDbEntity
  8
Imprimir
 62
5
100
AcDbPolyline
 90
2
 70
1
 10
25.807965
 20
96.949941
 30
0.0
 10
25.807965
 20
96.949941
 30
0.0
  0
ENDSEC
  0
SECTION
  2
OBJECTS
  0
DICTIONARY
  5
C
330
0
100
AcDbDictionary
  3
ACAD_GROUP
350
D
  3
ACAD_MLINESTYLE
350
17
  0
DICTIONARY
  5
D
330
C
100
AcDbDictionary
  0
DICTIONARY
  5
1A
330
C
100
AcDbDictionary
  0
DICTIONARY
  5
17
330
C
100
AcDbDictionary
  3
STANDARD
350
18
  0
DICTIONARY
  5
19
330
C
100
AcDbDictionary
  0
ENDSEC
  0
EOF
