  0
SECTION
  2
HEADER
  9
$ACADVER
  1
AC1014
  9
$HANDSEED
  5
FFFF
  9
$MEASUREMENT
 70
     1
  0
ENDSEC
  0
SECTION
  2
TABLES
  0
TABLE
  2
VPORT
  5
8
330
0
100
AcDbSymbolTable
 70
     4
  0
VPORT
  5
2E
330
8
100
AcDbSymbolTableRecord
100
AcDbViewportTableRecord
  2
*ACTIVE
 70
     0
 10
0.0
 20
0.0
 11
1.0
 21
1.0
 12
210.0
 22
148.5
 13
0.0
 23
0.0
 14
10.0
 24
10.0
 15
10.0
 25
10.0
 16
0.0
 26
0.0
 36
1.0
 17
0.0
 27
0.0
 37
0.0
 40
341.0
 41
1.24
 42
50.0
 43
0.0
 44
0.0
 50
0.0
 51
0.0
 71
     0
 72
   100
 73
     1
 74
     3
 75
     0
 76
     0
 77
     0
 78
     0
  0
ENDTAB
  0
TABLE
  2
LTYPE
  5
5
330
0
100
AcDbSymbolTable
 70
     1
  0
LTYPE
  5
14
330
5
100
AcDbSymbolTableRecord
100
AcDbLinetypeTableRecord
  2
BYBLOCK
 70
     0
  3

 72
    65
 73
     0
 40
0.0
  0
LTYPE
  5
15
330
5
100
AcDbSymbolTableRecord
100
AcDbLinetypeTableRecord
  2
BYLAYER
 70
     0
  3

 72
    65
 73
     0
 40
0.0
  0
LTYPE
  5
16
330
5
100
AcDbSymbolTableRecord
100
AcDbLinetypeTableRecord
  2
CONTINUOUS
 70
     0
  3
Solid line
 72
    65
 73
     0
 40
0.0
  0
ENDTAB
  0
TABLE
  2
LAYER
  5
2
100
AcDbSymbolTable
 70
2
  0
LAYER
  5
50
100
AcDbSymbolTableRecord
100
AcDbLayerTableRecord
  2
0
 70
0
  6
CONTINUOUS
  0
LAYER
  5
51
100
AcDbSymbolTableRecord
100
AcDbLayerTableRecord
  2
Capa_1
 70
0
  6
CONTINUOUS
  0
ENDTAB
  0
TABLE
  2
STYLE
  5
3
330
0
100
AcDbSymbolTable
 70
     1
  0
STYLE
  5
11
330
3
100
AcDbSymbolTableRecord
100
AcDbTextStyleTableRecord
  2
STANDARD
 70
     0
 40
0.0
 41
1.0
 50
0.0
 71
     0
 42
2.5
  3
txt
  4

  0
ENDTAB
  0
TABLE
  2
VIEW
  5
6
330
0
100
AcDbSymbolTable
 70
     0
  0
ENDTAB
  0
TABLE
  2
UCS
  5
7
330
0
100
AcDbSymbolTable
 70
     0
  0
ENDTAB
  0
TABLE
  2
APPID
  5
9
330
0
100
AcDbSymbolTable
 70
     2
  0
APPID
  5
12
330
9
100
AcDbSymbolTableRecord
100
AcDbRegAppTableRecord
  2
ACAD
 70
     0
  0
ENDTAB
  0
TABLE
  2
DIMSTYLE
  5
A
330
0
100
AcDbSymbolTable
 70
     1
  0
DIMSTYLE
105
27
330
A
100
AcDbSymbolTableRecord
100
AcDbDimStyleTableRecord
  2
ISO-25
 70
     0
  3

  4

  5

  6

  7

 40
1.0
 41
2.5
 42
0.625
 43
3.75
 44
1.25
 45
0.0
 46
0.0
 47
0.0
 48
0.0
140
2.5
141
2.5
142
0.0
143
0.03937007874016
144
1.0
145
0.0
146
1.0
147
0.625
 71
     0
 72
     0
 73
     0
 74
     0
 75
     0
 76
     0
 77
     1
 78
     8
170
     0
171
     3
172
     1
173
     0
174
     0
175
     0
176
     0
177
     0
178
     0
270
     2
271
     2
272
     2
273
     2
274
     3
340
11
275
     0
280
     0
281
     0
282
     0
283
     0
284
     8
285
     0
286
     0
287
     3
288
     0
  0
ENDTAB
  0
TABLE
  2
BLOCK_RECORD
  5
1
330
0
100
AcDbSymbolTable
 70
     1
  0
BLOCK_RECORD
  5
1F
330
1
100
AcDbSymbolTableRecord
100
AcDbBlockTableRecord
  2
*MODEL_SPACE
  0
BLOCK_RECORD
  5
1B
330
1
100
AcDbSymbolTableRecord
100
AcDbBlockTableRecord
  2
*PAPER_SPACE
  0
ENDTAB
  0
ENDSEC
  0
SECTION
  2
BLOCKS
  0
BLOCK
  5
20
330
1F
100
AcDbEntity
  8
0
100
AcDbBlockBegin
  2
*MODEL_SPACE
 70
     0
 10
0.0
 20
0.0
 30
0.0
  3
*MODEL_SPACE
  1

  0
ENDBLK
  5
21
330
1F
100
AcDbEntity
  8
0
100
AcDbBlockEnd
  0
BLOCK
  5
1C
330
1B
100
AcDbEntity
 67
     1
  8
0
100
AcDbBlockBegin
  2
*PAPER_SPACE
  1

  0
ENDBLK
  5
1D
330
1B
100
AcDbEntity
 67
     1
  8
0
100
AcDbBlockEnd
  0
ENDSEC
  0
SECTION
  2
ENTITIES
  0
LWPOLYLINE
  5
100
100
AcDbEntity
  8
Capa_1
 62
3
100
AcDbPolyline
 90
2
 70
0
 10
14.029760
 20
161.707400
 30
0.0
 10
14.029760
 20
159.707400
 30
0.0
  0
LWPOLYLINE
  5
101
100
AcDbEntity
  8
Capa_1
 62
3
100
AcDbPolyline
 90
2
 70
0
 10
14.029760
 20
163.707400
 30
0.0
 10
14.029760
 20
212.707398
 30
0.0
  0
LWPOLYLINE
  5
102
100
AcDbEntity
  8
Capa_1
 62
3
100
AcDbPolyline
 90
2
 70
0
 10
73.029755
 20
173.707400
 30
0.0
 10
73.029755
 20
163.707400
 30
0.0
  0
LWPOLYLINE
  5
103
100
AcDbEntity
  8
Capa_1
 62
3
100
AcDbPolyline
 90
2
 70
0
 10
75.029757
 20
163.707400
 30
0.0
 10
75.029757
 20
173.707400
 30
0.0
  0
LWPOLYLINE
  5
104
100
AcDbEntity
  8
Capa_1
 62
3
100
AcDbPolyline
 90
2
 70
0
 10
182.029750
 20
157.707400
 30
0.0
 10
16.029760
 20
157.707400
 30
0.0
  0
LWPOLYLINE
  5
105
100
AcDbEntity
  8
Capa_1
 62
3
100
AcDbPolyline
 90
2
 70
0
 10
77.029755
 20
173.707400
 30
0.0
 10
77.029755
 20
163.707400
 30
0.0
  0
LWPOLYLINE
  5
106
100
AcDbEntity
  8
Capa_1
 62
3
100
AcDbPolyline
 90
2
 70
0
 10
79.029756
 20
163.707400
 30
0.0
 10
79.029756
 20
173.707400
 30
0.0
  0
LWPOLYLINE
  5
107
100
AcDbEntity
  8
Capa_1
 62
3
100
AcDbPolyline
 90
2
 70
0
 10
81.029758
 20
173.707400
 30
0.0
 10
81.029758
 20
163.707400
 30
0.0
  0
LWPOLYLINE
  5
108
100
AcDbEntity
  8
Capa_1
 62
3
100
AcDbPolyline
 90
2
 70
0
 10
183.529750
 20
162.207400
 30
0.0
 10
181.779750
 20
162.207400
 30
0.0
  0
LWPOLYLINE
  5
109
100
AcDbEntity
  8
Capa_1
 62
3
100
AcDbPolyline
 90
2
 70
0
 10
14.529760
 20
162.207400
 30
0.0
 10
16.279760
 20
162.207400
 30
0.0
  0
LWPOLYLINE
  5
10a
100
AcDbEntity
  8
Capa_1
 62
3
100
AcDbPolyline
 90
2
 70
0
 10
14.029760
 20
163.707400
 30
0.0
 10
15.919020
 20
163.707400
 30
0.0
  0
LWPOLYLINE
  5
10b
100
AcDbEntity
  8
Capa_1
 62
3
100
AcDbPolyline
 90
2
 70
0
 10
182.140480
 20
163.707400
 30
0.0
 10
184.029760
 20
163.707400
 30
0.0
  0
LWPOLYLINE
  5
10c
100
AcDbEntity
  8
Capa_1
 62
3
100
AcDbPolyline
 90
2
 70
0
 10
83.029756
 20
163.707400
 30
0.0
 10
83.029756
 20
173.707400
 30
0.0
  0
LWPOLYLINE
  5
10d
100
AcDbEntity
  8
Capa_1
 62
3
100
AcDbPolyline
 90
2
 70
0
 10
85.029755
 20
173.707400
 30
0.0
 10
85.029755
 20
163.707400
 30
0.0
  0
LWPOLYLINE
  5
10e
100
AcDbEntity
  8
Capa_1
 62
3
100
AcDbPolyline
 90
2
 70
0
 10
87.029756
 20
163.707400
 30
0.0
 10
87.029756
 20
173.707400
 30
0.0
  0
LWPOLYLINE
  5
10f
100
AcDbEntity
  8
Capa_1
 62
3
100
AcDbPolyline
 90
2
 70
0
 10
89.029755
 20
173.707400
 30
0.0
 10
89.029755
 20
163.707400
 30
0.0
  0
LWPOLYLINE
  5
110
100
AcDbEntity
  8
Capa_1
 62
3
100
AcDbPolyline
 90
2
 70
0
 10
91.029759
 20
163.707400
 30
0.0
 10
91.029759
 20
173.707400
 30
0.0
  0
LWPOLYLINE
  5
111
100
AcDbEntity
  8
Capa_1
 62
3
100
AcDbPolyline
 90
2
 70
0
 10
93.029755
 20
173.707400
 30
0.0
 10
93.029755
 20
163.707400
 30
0.0
  0
LWPOLYLINE
  5
112
100
AcDbEntity
  8
Capa_1
 62
3
100
AcDbPolyline
 90
2
 70
0
 10
95.029756
 20
163.707400
 30
0.0
 10
95.029756
 20
173.707400
 30
0.0
  0
LWPOLYLINE
  5
113
100
AcDbEntity
  8
Capa_1
 62
3
100
AcDbPolyline
 90
2
 70
0
 10
97.029755
 20
173.707400
 30
0.0
 10
97.029755
 20
163.707400
 30
0.0
  0
LWPOLYLINE
  5
114
100
AcDbEntity
  8
Capa_1
 62
3
100
AcDbPolyline
 90
2
 70
0
 10
99.029756
 20
163.707400
 30
0.0
 10
99.029756
 20
173.707400
 30
0.0
  0
LWPOLYLINE
  5
115
100
AcDbEntity
  8
Capa_1
 62
3
100
AcDbPolyline
 90
2
 70
0
 10
101.029750
 20
173.707400
 30
0.0
 10
101.029750
 20
163.707400
 30
0.0
  0
LWPOLYLINE
  5
116
100
AcDbEntity
  8
Capa_1
 62
3
100
AcDbPolyline
 90
2
 70
0
 10
103.029760
 20
163.707400
 30
0.0
 10
103.029760
 20
173.707400
 30
0.0
  0
LWPOLYLINE
  5
117
100
AcDbEntity
  8
Capa_1
 62
3
100
AcDbPolyline
 90
2
 70
0
 10
115.729750
 20
185.202400
 30
0.0
 10
115.729750
 20
186.163540
 30
0.0
  0
LWPOLYLINE
  5
118
100
AcDbEntity
  8
Capa_1
 62
3
100
AcDbPolyline
 90
2
 70
0
 10
118.329750
 20
186.163540
 30
0.0
 10
118.329750
 20
185.202400
 30
0.0
  0
LWPOLYLINE
  5
119
100
AcDbEntity
  8
Capa_1
 62
3
100
AcDbPolyline
 90
2
 70
0
 10
184.029760
 20
204.707398
 30
0.0
 10
182.140480
 20
204.707398
 30
0.0
  0
LWPOLYLINE
  5
11a
100
AcDbEntity
  8
Capa_1
 62
3
100
AcDbPolyline
 90
2
 70
0
 10
183.529750
 20
206.207398
 30
0.0
 10
181.779750
 20
206.207398
 30
0.0
  0
LWPOLYLINE
  5
11b
100
AcDbEntity
  8
Capa_1
 62
3
100
AcDbPolyline
 90
2
 70
0
 10
184.029760
 20
212.707398
 30
0.0
 10
14.029760
 20
212.707398
 30
0.0
  0
LWPOLYLINE
  5
11c
100
AcDbEntity
  8
Capa_1
 62
3
100
AcDbPolyline
 90
2
 70
0
 10
140.729750
 20
185.202400
 30
0.0
 10
140.729750
 20
186.163540
 30
0.0
  0
LWPOLYLINE
  5
11d
100
AcDbEntity
  8
Capa_1
 62
3
100
AcDbPolyline
 90
2
 70
0
 10
143.329750
 20
186.163540
 30
0.0
 10
143.329750
 20
185.202400
 30
0.0
  0
LWPOLYLINE
  5
11e
100
AcDbEntity
  8
Capa_1
 62
3
100
AcDbPolyline
 90
2
 70
0
 10
165.729750
 20
185.202400
 30
0.0
 10
165.729750
 20
186.163540
 30
0.0
  0
LWPOLYLINE
  5
11f
100
AcDbEntity
  8
Capa_1
 62
3
100
AcDbPolyline
 90
2
 70
0
 10
168.329760
 20
186.163540
 30
0.0
 10
168.329760
 20
185.202400
 30
0.0
  0
LWPOLYLINE
  5
120
100
AcDbEntity
  8
Capa_1
 62
3
100
AcDbPolyline
 90
2
 70
0
 10
184.029760
 20
212.707398
 30
0.0
 10
184.029760
 20
206.707398
 30
0.0
  0
LWPOLYLINE
  5
121
100
AcDbEntity
  8
Capa_1
 62
3
100
AcDbPolyline
 90
2
 70
0
 10
184.029760
 20
204.707398
 30
0.0
 10
184.029760
 20
163.707400
 30
0.0
  0
SPLINE
  5
122
100
AcDbEntity
  8
Capa_1
 62
3
100
AcDbSpline
 70
8
 71
3
 72
8
 73
4
 74
0
 40
0
 40
0
 40
0
 40
0
 40
1
 40
1
 40
1
 40
1
 10
14.029760
 20
159.707400
 30
0.0
 10
14.029760
 20
159.176967
 30
0.0
 10
14.240474
 20
158.668259
 30
0.0
 10
14.615546
 20
158.293186
 30
0.0
  0
SPLINE
  5
123
100
AcDbEntity
  8
Capa_1
 62
3
100
AcDbSpline
 70
8
 71
3
 72
8
 73
4
 74
0
 40
0
 40
0
 40
0
 40
0
 40
1
 40
1
 40
1
 40
1
 10
14.615546
 20
158.293186
 30
0.0
 10
14.990619
 20
157.918114
 30
0.0
 10
15.499327
 20
157.707400
 30
0.0
 10
16.029760
 20
157.707400
 30
0.0
  0
SPLINE
  5
124
100
AcDbEntity
  8
Capa_1
 62
3
100
AcDbSpline
 70
8
 71
3
 72
8
 73
4
 74
0
 40
0
 40
0
 40
0
 40
0
 40
1
 40
1
 40
1
 40
1
 10
73.029755
 20
163.707400
 30
0.0
 10
73.029755
 20
163.350134
 30
0.0
 10
73.220354
 20
163.020007
 30
0.0
 10
73.529756
 20
162.841374
 30
0.0
  0
SPLINE
  5
125
100
AcDbEntity
  8
Capa_1
 62
3
100
AcDbSpline
 70
8
 71
3
 72
8
 73
4
 74
0
 40
0
 40
0
 40
0
 40
0
 40
1
 40
1
 40
1
 40
1
 10
73.529756
 20
162.841374
 30
0.0
 10
73.839157
 20
162.662741
 30
0.0
 10
74.220355
 20
162.662741
 30
0.0
 10
74.529757
 20
162.841374
 30
0.0
  0
SPLINE
  5
126
100
AcDbEntity
  8
Capa_1
 62
3
100
AcDbSpline
 70
8
 71
3
 72
8
 73
4
 74
0
 40
0
 40
0
 40
0
 40
0
 40
1
 40
1
 40
1
 40
1
 10
74.529757
 20
162.841374
 30
0.0
 10
74.839158
 20
163.020007
 30
0.0
 10
75.029757
 20
163.350134
 30
0.0
 10
75.029757
 20
163.707400
 30
0.0
  0
SPLINE
  5
127
100
AcDbEntity
  8
Capa_1
 62
3
100
AcDbSpline
 70
8
 71
3
 72
8
 73
4
 74
0
 40
0
 40
0
 40
0
 40
0
 40
1
 40
1
 40
1
 40
1
 10
75.029757
 20
173.707400
 30
0.0
 10
75.029757
 20
174.064666
 30
0.0
 10
74.839158
 20
174.394793
 30
0.0
 10
74.529757
 20
174.573426
 30
0.0
  0
SPLINE
  5
128
100
AcDbEntity
  8
Capa_1
 62
3
100
AcDbSpline
 70
8
 71
3
 72
8
 73
4
 74
0
 40
0
 40
0
 40
0
 40
0
 40
1
 40
1
 40
1
 40
1
 10
74.529757
 20
174.573426
 30
0.0
 10
74.220355
 20
174.752059
 30
0.0
 10
73.839157
 20
174.752059
 30
0.0
 10
73.529756
 20
174.573426
 30
0.0
  0
SPLINE
  5
129
100
AcDbEntity
  8
Capa_1
 62
3
100
AcDbSpline
 70
8
 71
3
 72
8
 73
4
 74
0
 40
0
 40
0
 40
0
 40
0
 40
1
 40
1
 40
1
 40
1
 10
73.529756
 20
174.573426
 30
0.0
 10
73.220354
 20
174.394793
 30
0.0
 10
73.029755
 20
174.064666
 30
0.0
 10
73.029755
 20
173.707400
 30
0.0
  0
SPLINE
  5
12a
100
AcDbEntity
  8
Capa_1
 62
3
100
AcDbSpline
 70
8
 71
3
 72
8
 73
4
 74
0
 40
0
 40
0
 40
0
 40
0
 40
1
 40
1
 40
1
 40
1
 10
77.029755
 20
163.707400
 30
0.0
 10
77.030002
 20
163.155290
 30
0.0
 10
77.477645
 20
162.707847
 30
0.0
 10
78.029756
 20
162.707847
 30
0.0
  0
SPLINE
  5
12b
100
AcDbEntity
  8
Capa_1
 62
3
100
AcDbSpline
 70
8
 71
3
 72
8
 73
4
 74
0
 40
0
 40
0
 40
0
 40
0
 40
1
 40
1
 40
1
 40
1
 10
78.029756
 20
162.707847
 30
0.0
 10
78.581866
 20
162.707847
 30
0.0
 10
79.029509
 20
163.155290
 30
0.0
 10
79.029756
 20
163.707400
 30
0.0
  0
SPLINE
  5
12c
100
AcDbEntity
  8
Capa_1
 62
3
100
AcDbSpline
 70
8
 71
3
 72
8
 73
4
 74
0
 40
0
 40
0
 40
0
 40
0
 40
1
 40
1
 40
1
 40
1
 10
79.029756
 20
173.707400
 30
0.0
 10
79.029509
 20
174.259510
 30
0.0
 10
78.581866
 20
174.706953
 30
0.0
 10
78.029756
 20
174.706953
 30
0.0
  0
SPLINE
  5
12d
100
AcDbEntity
  8
Capa_1
 62
3
100
AcDbSpline
 70
8
 71
3
 72
8
 73
4
 74
0
 40
0
 40
0
 40
0
 40
0
 40
1
 40
1
 40
1
 40
1
 10
78.029756
 20
174.706953
 30
0.0
 10
77.477645
 20
174.706953
 30
0.0
 10
77.030002
 20
174.259510
 30
0.0
 10
77.029755
 20
173.707400
 30
0.0
  0
SPLINE
  5
12e
100
AcDbEntity
  8
Capa_1
 62
3
100
AcDbSpline
 70
8
 71
3
 72
8
 73
4
 74
0
 40
0
 40
0
 40
0
 40
0
 40
1
 40
1
 40
1
 40
1
 10
81.029758
 20
163.707400
 30
0.0
 10
81.030745
 20
163.155814
 30
0.0
 10
81.478170
 20
162.709188
 30
0.0
 10
82.029757
 20
162.709188
 30
0.0
  0
SPLINE
  5
12f
100
AcDbEntity
  8
Capa_1
 62
3
100
AcDbSpline
 70
8
 71
3
 72
8
 73
4
 74
0
 40
0
 40
0
 40
0
 40
0
 40
1
 40
1
 40
1
 40
1
 10
82.029757
 20
162.709188
 30
0.0
 10
82.581344
 20
162.709188
 30
0.0
 10
83.028769
 20
163.155814
 30
0.0
 10
83.029756
 20
163.707400
 30
0.0
  0
SPLINE
  5
130
100
AcDbEntity
  8
Capa_1
 62
3
100
AcDbSpline
 70
8
 71
3
 72
8
 73
4
 74
0
 40
0
 40
0
 40
0
 40
0
 40
1
 40
1
 40
1
 40
1
 10
83.029756
 20
173.707400
 30
0.0
 10
83.028769
 20
174.258986
 30
0.0
 10
82.581344
 20
174.705612
 30
0.0
 10
82.029757
 20
174.705612
 30
0.0
  0
SPLINE
  5
131
100
AcDbEntity
  8
Capa_1
 62
3
100
AcDbSpline
 70
8
 71
3
 72
8
 73
4
 74
0
 40
0
 40
0
 40
0
 40
0
 40
1
 40
1
 40
1
 40
1
 10
82.029757
 20
174.705612
 30
0.0
 10
81.478170
 20
174.705612
 30
0.0
 10
81.030745
 20
174.258986
 30
0.0
 10
81.029758
 20
173.707400
 30
0.0
  0
SPLINE
  5
132
100
AcDbEntity
  8
Capa_1
 62
3
100
AcDbSpline
 70
8
 71
3
 72
8
 73
4
 74
0
 40
0
 40
0
 40
0
 40
0
 40
1
 40
1
 40
1
 40
1
 10
85.029755
 20
163.707400
 30
0.0
 10
85.030307
 20
163.155505
 30
0.0
 10
85.477861
 20
162.708399
 30
0.0
 10
86.029756
 20
162.708399
 30
0.0
  0
SPLINE
  5
133
100
AcDbEntity
  8
Capa_1
 62
3
100
AcDbSpline
 70
8
 71
3
 72
8
 73
4
 74
0
 40
0
 40
0
 40
0
 40
0
 40
1
 40
1
 40
1
 40
1
 10
86.029756
 20
162.708399
 30
0.0
 10
86.581650
 20
162.708399
 30
0.0
 10
87.029204
 20
163.155505
 30
0.0
 10
87.029756
 20
163.707400
 30
0.0
  0
SPLINE
  5
134
100
AcDbEntity
  8
Capa_1
 62
3
100
AcDbSpline
 70
8
 71
3
 72
8
 73
4
 74
0
 40
0
 40
0
 40
0
 40
0
 40
1
 40
1
 40
1
 40
1
 10
87.029756
 20
173.707400
 30
0.0
 10
87.029204
 20
174.259295
 30
0.0
 10
86.581650
 20
174.706401
 30
0.0
 10
86.029756
 20
174.706401
 30
0.0
  0
SPLINE
  5
135
100
AcDbEntity
  8
Capa_1
 62
3
100
AcDbSpline
 70
8
 71
3
 72
8
 73
4
 74
0
 40
0
 40
0
 40
0
 40
0
 40
1
 40
1
 40
1
 40
1
 10
86.029756
 20
174.706401
 30
0.0
 10
85.477861
 20
174.706401
 30
0.0
 10
85.030307
 20
174.259295
 30
0.0
 10
85.029755
 20
173.707400
 30
0.0
  0
SPLINE
  5
136
100
AcDbEntity
  8
Capa_1
 62
3
100
AcDbSpline
 70
8
 71
3
 72
8
 73
4
 74
0
 40
0
 40
0
 40
0
 40
0
 40
1
 40
1
 40
1
 40
1
 10
89.029755
 20
163.707400
 30
0.0
 10
89.029755
 20
163.350134
 30
0.0
 10
89.220354
 20
163.020006
 30
0.0
 10
89.529756
 20
162.841373
 30
0.0
  0
SPLINE
  5
137
100
AcDbEntity
  8
Capa_1
 62
3
100
AcDbSpline
 70
8
 71
3
 72
8
 73
4
 74
0
 40
0
 40
0
 40
0
 40
0
 40
1
 40
1
 40
1
 40
1
 10
89.529756
 20
162.841373
 30
0.0
 10
89.839158
 20
162.662740
 30
0.0
 10
90.220356
 20
162.662740
 30
0.0
 10
90.529758
 20
162.841373
 30
0.0
  0
SPLINE
  5
138
100
AcDbEntity
  8
Capa_1
 62
3
100
AcDbSpline
 70
8
 71
3
 72
8
 73
4
 74
0
 40
0
 40
0
 40
0
 40
0
 40
1
 40
1
 40
1
 40
1
 10
90.529758
 20
162.841373
 30
0.0
 10
90.839160
 20
163.020006
 30
0.0
 10
91.029759
 20
163.350134
 30
0.0
 10
91.029759
 20
163.707400
 30
0.0
  0
SPLINE
  5
139
100
AcDbEntity
  8
Capa_1
 62
3
100
AcDbSpline
 70
8
 71
3
 72
8
 73
4
 74
0
 40
0
 40
0
 40
0
 40
0
 40
1
 40
1
 40
1
 40
1
 10
91.029759
 20
173.707400
 30
0.0
 10
91.029759
 20
174.064666
 30
0.0
 10
90.839160
 20
174.394794
 30
0.0
 10
90.529758
 20
174.573427
 30
0.0
  0
SPLINE
  5
13a
100
AcDbEntity
  8
Capa_1
 62
3
100
AcDbSpline
 70
8
 71
3
 72
8
 73
4
 74
0
 40
0
 40
0
 40
0
 40
0
 40
1
 40
1
 40
1
 40
1
 10
90.529758
 20
174.573427
 30
0.0
 10
90.220356
 20
174.752060
 30
0.0
 10
89.839158
 20
174.752060
 30
0.0
 10
89.529756
 20
174.573427
 30
0.0
  0
SPLINE
  5
13b
100
AcDbEntity
  8
Capa_1
 62
3
100
AcDbSpline
 70
8
 71
3
 72
8
 73
4
 74
0
 40
0
 40
0
 40
0
 40
0
 40
1
 40
1
 40
1
 40
1
 10
89.529756
 20
174.573427
 30
0.0
 10
89.220354
 20
174.394794
 30
0.0
 10
89.029755
 20
174.064666
 30
0.0
 10
89.029755
 20
173.707400
 30
0.0
  0
SPLINE
  5
13c
100
AcDbEntity
  8
Capa_1
 62
3
100
AcDbSpline
 70
8
 71
3
 72
8
 73
4
 74
0
 40
0
 40
0
 40
0
 40
0
 40
1
 40
1
 40
1
 40
1
 10
93.029755
 20
163.707400
 30
0.0
 10
93.030002
 20
163.155290
 30
0.0
 10
93.477645
 20
162.707847
 30
0.0
 10
94.029756
 20
162.707847
 30
0.0
  0
SPLINE
  5
13d
100
AcDbEntity
  8
Capa_1
 62
3
100
AcDbSpline
 70
8
 71
3
 72
8
 73
4
 74
0
 40
0
 40
0
 40
0
 40
0
 40
1
 40
1
 40
1
 40
1
 10
94.029756
 20
162.707847
 30
0.0
 10
94.581866
 20
162.707847
 30
0.0
 10
95.029509
 20
163.155290
 30
0.0
 10
95.029756
 20
163.707400
 30
0.0
  0
SPLINE
  5
13e
100
AcDbEntity
  8
Capa_1
 62
3
100
AcDbSpline
 70
8
 71
3
 72
8
 73
4
 74
0
 40
0
 40
0
 40
0
 40
0
 40
1
 40
1
 40
1
 40
1
 10
95.029756
 20
173.707400
 30
0.0
 10
95.029509
 20
174.259510
 30
0.0
 10
94.581866
 20
174.706953
 30
0.0
 10
94.029756
 20
174.706953
 30
0.0
  0
SPLINE
  5
13f
100
AcDbEntity
  8
Capa_1
 62
3
100
AcDbSpline
 70
8
 71
3
 72
8
 73
4
 74
0
 40
0
 40
0
 40
0
 40
0
 40
1
 40
1
 40
1
 40
1
 10
94.029756
 20
174.706953
 30
0.0
 10
93.477645
 20
174.706953
 30
0.0
 10
93.030002
 20
174.259510
 30
0.0
 10
93.029755
 20
173.707400
 30
0.0
  0
SPLINE
  5
140
100
AcDbEntity
  8
Capa_1
 62
3
100
AcDbSpline
 70
8
 71
3
 72
8
 73
4
 74
0
 40
0
 40
0
 40
0
 40
0
 40
1
 40
1
 40
1
 40
1
 10
97.029755
 20
163.707400
 30
0.0
 10
97.030002
 20
163.155290
 30
0.0
 10
97.477645
 20
162.707847
 30
0.0
 10
98.029756
 20
162.707847
 30
0.0
  0
SPLINE
  5
141
100
AcDbEntity
  8
Capa_1
 62
3
100
AcDbSpline
 70
8
 71
3
 72
8
 73
4
 74
0
 40
0
 40
0
 40
0
 40
0
 40
1
 40
1
 40
1
 40
1
 10
98.029756
 20
162.707847
 30
0.0
 10
98.581866
 20
162.707847
 30
0.0
 10
99.029509
 20
163.155290
 30
0.0
 10
99.029756
 20
163.707400
 30
0.0
  0
SPLINE
  5
142
100
AcDbEntity
  8
Capa_1
 62
3
100
AcDbSpline
 70
8
 71
3
 72
8
 73
4
 74
0
 40
0
 40
0
 40
0
 40
0
 40
1
 40
1
 40
1
 40
1
 10
99.029756
 20
173.707400
 30
0.0
 10
99.029509
 20
174.259510
 30
0.0
 10
98.581866
 20
174.706953
 30
0.0
 10
98.029756
 20
174.706953
 30
0.0
  0
SPLINE
  5
143
100
AcDbEntity
  8
Capa_1
 62
3
100
AcDbSpline
 70
8
 71
3
 72
8
 73
4
 74
0
 40
0
 40
0
 40
0
 40
0
 40
1
 40
1
 40
1
 40
1
 10
98.029756
 20
174.706953
 30
0.0
 10
97.477645
 20
174.706953
 30
0.0
 10
97.030002
 20
174.259510
 30
0.0
 10
97.029755
 20
173.707400
 30
0.0
  0
SPLINE
  5
144
100
AcDbEntity
  8
Capa_1
 62
3
100
AcDbSpline
 70
8
 71
3
 72
8
 73
4
 74
0
 40
0
 40
0
 40
0
 40
0
 40
1
 40
1
 40
1
 40
1
 10
16.279760
 20
162.207400
 30
0.0
 10
16.693974
 20
162.207400
 30
0.0
 10
17.029760
 20
162.543186
 30
0.0
 10
17.029760
 20
162.957400
 30
0.0
  0
SPLINE
  5
145
100
AcDbEntity
  8
Capa_1
 62
3
100
AcDbSpline
 70
8
 71
3
 72
8
 73
4
 74
0
 40
0
 40
0
 40
0
 40
0
 40
1
 40
1
 40
1
 40
1
 10
14.529760
 20
162.207400
 30
0.0
 10
14.253618
 20
162.207400
 30
0.0
 10
14.029760
 20
161.983542
 30
0.0
 10
14.029760
 20
161.707400
 30
0.0
  0
SPLINE
  5
146
100
AcDbEntity
  8
Capa_1
 62
3
100
AcDbSpline
 70
8
 71
3
 72
8
 73
4
 74
0
 40
0
 40
0
 40
0
 40
0
 40
1
 40
1
 40
1
 40
1
 10
168.329760
 20
186.163540
 30
0.0
 10
167.467608
 20
186.288683
 30
0.0
 10
166.591902
 20
186.288683
 30
0.0
 10
165.729750
 20
186.163540
 30
0.0
  0
SPLINE
  5
147
100
AcDbEntity
  8
Capa_1
 62
3
100
AcDbSpline
 70
8
 71
3
 72
8
 73
4
 74
0
 40
0
 40
0
 40
0
 40
0
 40
1
 40
1
 40
1
 40
1
 10
143.329750
 20
186.163540
 30
0.0
 10
142.467601
 20
186.288682
 30
0.0
 10
141.591899
 20
186.288682
 30
0.0
 10
140.729750
 20
186.163540
 30
0.0
  0
SPLINE
  5
148
100
AcDbEntity
  8
Capa_1
 62
3
100
AcDbSpline
 70
8
 71
3
 72
8
 73
4
 74
0
 40
0
 40
0
 40
0
 40
0
 40
1
 40
1
 40
1
 40
1
 10
118.329750
 20
186.163540
 30
0.0
 10
117.467601
 20
186.288682
 30
0.0
 10
116.591899
 20
186.288682
 30
0.0
 10
115.729750
 20
186.163540
 30
0.0
  0
SPLINE
  5
149
100
AcDbEntity
  8
Capa_1
 62
3
100
AcDbSpline
 70
8
 71
3
 72
8
 73
4
 74
0
 40
0
 40
0
 40
0
 40
0
 40
1
 40
1
 40
1
 40
1
 10
165.729750
 20
185.202400
 30
0.0
 10
161.563825
 20
184.525011
 30
0.0
 10
158.616251
 20
180.762221
 30
0.0
 10
158.956048
 20
176.555283
 30
0.0
  0
SPLINE
  5
14a
100
AcDbEntity
  8
Capa_1
 62
3
100
AcDbSpline
 70
8
 71
3
 72
8
 73
4
 74
0
 40
0
 40
0
 40
0
 40
0
 40
1
 40
1
 40
1
 40
1
 10
158.956048
 20
176.555283
 30
0.0
 10
159.295846
 20
172.348345
 30
0.0
 10
162.809117
 20
169.107403
 30
0.0
 10
167.029755
 20
169.107403
 30
0.0
  0
SPLINE
  5
14b
100
AcDbEntity
  8
Capa_1
 62
3
100
AcDbSpline
 70
8
 71
3
 72
8
 73
4
 74
0
 40
0
 40
0
 40
0
 40
0
 40
1
 40
1
 40
1
 40
1
 10
167.029755
 20
169.107403
 30
0.0
 10
171.250393
 20
169.107403
 30
0.0
 10
174.763664
 20
172.348345
 30
0.0
 10
175.103462
 20
176.555283
 30
0.0
  0
SPLINE
  5
14c
100
AcDbEntity
  8
Capa_1
 62
3
100
AcDbSpline
 70
8
 71
3
 72
8
 73
4
 74
0
 40
0
 40
0
 40
0
 40
0
 40
1
 40
1
 40
1
 40
1
 10
175.103462
 20
176.555283
 30
0.0
 10
175.443259
 20
180.762221
 30
0.0
 10
172.495685
 20
184.525011
 30
0.0
 10
168.329760
 20
185.202400
 30
0.0
  0
SPLINE
  5
14d
100
AcDbEntity
  8
Capa_1
 62
3
100
AcDbSpline
 70
8
 71
3
 72
8
 73
4
 74
0
 40
0
 40
0
 40
0
 40
0
 40
1
 40
1
 40
1
 40
1
 10
140.729750
 20
185.202400
 30
0.0
 10
136.563824
 20
184.525013
 30
0.0
 10
133.616247
 20
180.762224
 30
0.0
 10
133.956043
 20
176.555285
 30
0.0
  0
SPLINE
  5
14e
100
AcDbEntity
  8
Capa_1
 62
3
100
AcDbSpline
 70
8
 71
3
 72
8
 73
4
 74
0
 40
0
 40
0
 40
0
 40
0
 40
1
 40
1
 40
1
 40
1
 10
133.956043
 20
176.555285
 30
0.0
 10
134.295839
 20
172.348346
 30
0.0
 10
137.809111
 20
169.107402
 30
0.0
 10
142.029750
 20
169.107402
 30
0.0
  0
SPLINE
  5
14f
100
AcDbEntity
  8
Capa_1
 62
3
100
AcDbSpline
 70
8
 71
3
 72
8
 73
4
 74
0
 40
0
 40
0
 40
0
 40
0
 40
1
 40
1
 40
1
 40
1
 10
142.029750
 20
169.107402
 30
0.0
 10
146.250389
 20
169.107402
 30
0.0
 10
149.763661
 20
172.348346
 30
0.0
 10
150.103457
 20
176.555285
 30
0.0
  0
SPLINE
  5
150
100
AcDbEntity
  8
Capa_1
 62
3
100
AcDbSpline
 70
8
 71
3
 72
8
 73
4
 74
0
 40
0
 40
0
 40
0
 40
0
 40
1
 40
1
 40
1
 40
1
 10
150.103457
 20
176.555285
 30
0.0
 10
150.443253
 20
180.762224
 30
0.0
 10
147.495676
 20
184.525013
 30
0.0
 10
143.329750
 20
185.202400
 30
0.0
  0
SPLINE
  5
151
100
AcDbEntity
  8
Capa_1
 62
3
100
AcDbSpline
 70
8
 71
3
 72
8
 73
4
 74
0
 40
0
 40
0
 40
0
 40
0
 40
1
 40
1
 40
1
 40
1
 10
115.729750
 20
185.202400
 30
0.0
 10
111.563824
 20
184.525013
 30
0.0
 10
108.616247
 20
180.762224
 30
0.0
 10
108.956043
 20
176.555285
 30
0.0
  0
SPLINE
  5
152
100
AcDbEntity
  8
Capa_1
 62
3
100
AcDbSpline
 70
8
 71
3
 72
8
 73
4
 74
0
 40
0
 40
0
 40
0
 40
0
 40
1
 40
1
 40
1
 40
1
 10
108.956043
 20
176.555285
 30
0.0
 10
109.295839
 20
172.348346
 30
0.0
 10
112.809111
 20
169.107402
 30
0.0
 10
117.029750
 20
169.107402
 30
0.0
  0
SPLINE
  5
153
100
AcDbEntity
  8
Capa_1
 62
3
100
AcDbSpline
 70
8
 71
3
 72
8
 73
4
 74
0
 40
0
 40
0
 40
0
 40
0
 40
1
 40
1
 40
1
 40
1
 10
117.029750
 20
169.107402
 30
0.0
 10
121.250389
 20
169.107402
 30
0.0
 10
124.763661
 20
172.348346
 30
0.0
 10
125.103457
 20
176.555285
 30
0.0
  0
SPLINE
  5
154
100
AcDbEntity
  8
Capa_1
 62
3
100
AcDbSpline
 70
8
 71
3
 72
8
 73
4
 74
0
 40
0
 40
0
 40
0
 40
0
 40
1
 40
1
 40
1
 40
1
 10
125.103457
 20
176.555285
 30
0.0
 10
125.443253
 20
180.762224
 30
0.0
 10
122.495676
 20
184.525013
 30
0.0
 10
118.329750
 20
185.202400
 30
0.0
  0
SPLINE
  5
155
100
AcDbEntity
  8
Capa_1
 62
3
100
AcDbSpline
 70
8
 71
3
 72
8
 73
4
 74
0
 40
0
 40
0
 40
0
 40
0
 40
1
 40
1
 40
1
 40
1
 10
182.029750
 20
157.707400
 30
0.0
 10
182.560185
 20
157.707397
 30
0.0
 10
183.068895
 20
157.918110
 30
0.0
 10
183.443970
 20
158.293183
 30
0.0
  0
SPLINE
  5
156
100
AcDbEntity
  8
Capa_1
 62
3
100
AcDbSpline
 70
8
 71
3
 72
8
 73
4
 74
0
 40
0
 40
0
 40
0
 40
0
 40
1
 40
1
 40
1
 40
1
 10
183.443970
 20
158.293183
 30
0.0
 10
183.819045
 20
158.668256
 30
0.0
 10
184.029760
 20
159.176965
 30
0.0
 10
184.029760
 20
159.707400
 30
0.0
  0
SPLINE
  5
157
100
AcDbEntity
  8
Capa_1
 62
3
100
AcDbSpline
 70
8
 71
3
 72
8
 73
4
 74
0
 40
0
 40
0
 40
0
 40
0
 40
1
 40
1
 40
1
 40
1
 10
101.029754
 20
163.707400
 30
0.0
 10
101.029754
 20
163.350134
 30
0.0
 10
101.220353
 20
163.020007
 30
0.0
 10
101.529755
 20
162.841374
 30
0.0
  0
SPLINE
  5
158
100
AcDbEntity
  8
Capa_1
 62
3
100
AcDbSpline
 70
8
 71
3
 72
8
 73
4
 74
0
 40
0
 40
0
 40
0
 40
0
 40
1
 40
1
 40
1
 40
1
 10
101.529755
 20
162.841374
 30
0.0
 10
101.839156
 20
162.662741
 30
0.0
 10
102.220354
 20
162.662741
 30
0.0
 10
102.529755
 20
162.841374
 30
0.0
  0
SPLINE
  5
159
100
AcDbEntity
  8
Capa_1
 62
3
100
AcDbSpline
 70
8
 71
3
 72
8
 73
4
 74
0
 40
0
 40
0
 40
0
 40
0
 40
1
 40
1
 40
1
 40
1
 10
102.529755
 20
162.841374
 30
0.0
 10
102.839157
 20
163.020007
 30
0.0
 10
103.029756
 20
163.350134
 30
0.0
 10
103.029756
 20
163.707400
 30
0.0
  0
SPLINE
  5
15a
100
AcDbEntity
  8
Capa_1
 62
3
100
AcDbSpline
 70
8
 71
3
 72
8
 73
4
 74
0
 40
0
 40
0
 40
0
 40
0
 40
1
 40
1
 40
1
 40
1
 10
103.029756
 20
173.707400
 30
0.0
 10
103.029756
 20
174.064666
 30
0.0
 10
102.839157
 20
174.394793
 30
0.0
 10
102.529755
 20
174.573426
 30
0.0
  0
SPLINE
  5
15b
100
AcDbEntity
  8
Capa_1
 62
3
100
AcDbSpline
 70
8
 71
3
 72
8
 73
4
 74
0
 40
0
 40
0
 40
0
 40
0
 40
1
 40
1
 40
1
 40
1
 10
102.529755
 20
174.573426
 30
0.0
 10
102.220354
 20
174.752059
 30
0.0
 10
101.839156
 20
174.752059
 30
0.0
 10
101.529755
 20
174.573426
 30
0.0
  0
SPLINE
  5
15c
100
AcDbEntity
  8
Capa_1
 62
3
100
AcDbSpline
 70
8
 71
3
 72
8
 73
4
 74
0
 40
0
 40
0
 40
0
 40
0
 40
1
 40
1
 40
1
 40
1
 10
101.529755
 20
174.573426
 30
0.0
 10
101.220353
 20
174.394793
 30
0.0
 10
101.029754
 20
174.064666
 30
0.0
 10
101.029754
 20
173.707400
 30
0.0
  0
SPLINE
  5
15d
100
AcDbEntity
  8
Capa_1
 62
3
100
AcDbSpline
 70
8
 71
3
 72
8
 73
4
 74
0
 40
0
 40
0
 40
0
 40
0
 40
1
 40
1
 40
1
 40
1
 10
181.029760
 20
162.957400
 30
0.0
 10
181.029760
 20
162.543190
 30
0.0
 10
181.365540
 20
162.207406
 30
0.0
 10
181.779750
 20
162.207400
 30
0.0
  0
SPLINE
  5
15e
100
AcDbEntity
  8
Capa_1
 62
3
100
AcDbSpline
 70
8
 71
3
 72
8
 73
4
 74
0
 40
0
 40
0
 40
0
 40
0
 40
1
 40
1
 40
1
 40
1
 10
184.029760
 20
161.707400
 30
0.0
 10
184.029760
 20
161.840010
 30
0.0
 10
183.977080
 20
161.967188
 30
0.0
 10
183.883310
 20
162.060957
 30
0.0
  0
SPLINE
  5
15f
100
AcDbEntity
  8
Capa_1
 62
3
100
AcDbSpline
 70
8
 71
3
 72
8
 73
4
 74
0
 40
0
 40
0
 40
0
 40
0
 40
1
 40
1
 40
1
 40
1
 10
183.883310
 20
162.060957
 30
0.0
 10
183.789539
 20
162.154725
 30
0.0
 10
183.662360
 20
162.207403
 30
0.0
 10
183.529750
 20
162.207400
 30
0.0
  0
SPLINE
  5
160
100
AcDbEntity
  8
Capa_1
 62
3
100
AcDbSpline
 70
8
 71
3
 72
8
 73
4
 74
0
 40
0
 40
0
 40
0
 40
0
 40
1
 40
1
 40
1
 40
1
 10
181.779750
 20
206.207398
 30
0.0
 10
181.365540
 20
206.207392
 30
0.0
 10
181.029760
 20
205.871608
 30
0.0
 10
181.029760
 20
205.457398
 30
0.0
  0
SPLINE
  5
161
100
AcDbEntity
  8
Capa_1
 62
3
100
AcDbSpline
 70
8
 71
3
 72
8
 73
4
 74
0
 40
0
 40
0
 40
0
 40
0
 40
1
 40
1
 40
1
 40
1
 10
183.529750
 20
206.207398
 30
0.0
 10
183.662360
 20
206.207395
 30
0.0
 10
183.789539
 20
206.260073
 30
0.0
 10
183.883310
 20
206.353841
 30
0.0
  0
SPLINE
  5
162
100
AcDbEntity
  8
Capa_1
 62
3
100
AcDbSpline
 70
8
 71
3
 72
8
 73
4
 74
0
 40
0
 40
0
 40
0
 40
0
 40
1
 40
1
 40
1
 40
1
 10
183.883310
 20
206.353841
 30
0.0
 10
183.977080
 20
206.447610
 30
0.0
 10
184.029760
 20
206.574788
 30
0.0
 10
184.029760
 20
206.707398
 30
0.0
  0
SPLINE
  5
163
100
AcDbEntity
  8
Capa_1
 62
3
100
AcDbSpline
 70
8
 71
3
 72
8
 73
4
 74
0
 40
0
 40
0
 40
0
 40
0
 40
1
 40
1
 40
1
 40
1
 10
181.029760
 20
162.957400
 30
0.0
 10
181.029760
 20
163.019600
 30
0.0
 10
181.042160
 20
163.082370
 30
0.0
 10
181.064360
 20
163.140850
 30
0.0
  0
SPLINE
  5
164
100
AcDbEntity
  8
Capa_1
 62
3
100
AcDbSpline
 70
8
 71
3
 72
8
 73
4
 74
0
 40
0
 40
0
 40
0
 40
0
 40
1
 40
1
 40
1
 40
1
 10
181.064360
 20
163.140850
 30
0.0
 10
181.086560
 20
163.199350
 30
0.0
 10
181.118960
 20
163.253660
 30
0.0
 10
181.157560
 20
163.302770
 30
0.0
  0
SPLINE
  5
165
100
AcDbEntity
  8
Capa_1
 62
3
100
AcDbSpline
 70
8
 71
3
 72
8
 73
4
 74
0
 40
0
 40
0
 40
0
 40
0
 40
1
 40
1
 40
1
 40
1
 10
181.157560
 20
163.302770
 30
0.0
 10
181.196160
 20
163.351870
 30
0.0
 10
181.240960
 20
163.395770
 30
0.0
 10
181.289610
 20
163.434760
 30
0.0
  0
SPLINE
  5
166
100
AcDbEntity
  8
Capa_1
 62
3
100
AcDbSpline
 70
8
 71
3
 72
8
 73
4
 74
0
 40
0
 40
0
 40
0
 40
0
 40
1
 40
1
 40
1
 40
1
 10
181.289610
 20
163.434760
 30
0.0
 10
181.338110
 20
163.473660
 30
0.0
 10
181.390310
 20
163.507660
 30
0.0
 10
181.444870
 20
163.537410
 30
0.0
  0
SPLINE
  5
167
100
AcDbEntity
  8
Capa_1
 62
3
100
AcDbSpline
 70
8
 71
3
 72
8
 73
4
 74
0
 40
0
 40
0
 40
0
 40
0
 40
1
 40
1
 40
1
 40
1
 10
181.444870
 20
163.537410
 30
0.0
 10
181.552260
 20
163.596010
 30
0.0
 10
181.668550
 20
163.638270
 30
0.0
 10
181.787980
 20
163.666330
 30
0.0
  0
SPLINE
  5
168
100
AcDbEntity
  8
Capa_1
 62
3
100
AcDbSpline
 70
8
 71
3
 72
8
 73
4
 74
0
 40
0
 40
0
 40
0
 40
0
 40
1
 40
1
 40
1
 40
1
 10
181.787980
 20
163.666330
 30
0.0
 10
181.903610
 20
163.693530
 30
0.0
 10
182.022160
 20
163.707430
 30
0.0
 10
182.140430
 20
163.707430
 30
0.0
  0
SPLINE
  5
169
100
AcDbEntity
  8
Capa_1
 62
3
100
AcDbSpline
 70
8
 71
3
 72
8
 73
4
 74
0
 40
0
 40
0
 40
0
 40
0
 40
1
 40
1
 40
1
 40
1
 10
181.029760
 20
205.457398
 30
0.0
 10
181.029760
 20
205.395198
 30
0.0
 10
181.042160
 20
205.332428
 30
0.0
 10
181.064360
 20
205.273948
 30
0.0
  0
SPLINE
  5
16a
100
AcDbEntity
  8
Capa_1
 62
3
100
AcDbSpline
 70
8
 71
3
 72
8
 73
4
 74
0
 40
0
 40
0
 40
0
 40
0
 40
1
 40
1
 40
1
 40
1
 10
181.064360
 20
205.273948
 30
0.0
 10
181.086560
 20
205.215448
 30
0.0
 10
181.118960
 20
205.161138
 30
0.0
 10
181.157560
 20
205.112028
 30
0.0
  0
SPLINE
  5
16b
100
AcDbEntity
  8
Capa_1
 62
3
100
AcDbSpline
 70
8
 71
3
 72
8
 73
4
 74
0
 40
0
 40
0
 40
0
 40
0
 40
1
 40
1
 40
1
 40
1
 10
181.157560
 20
205.112028
 30
0.0
 10
181.196160
 20
205.062928
 30
0.0
 10
181.240960
 20
205.019028
 30
0.0
 10
181.289610
 20
204.980038
 30
0.0
  0
SPLINE
  5
16c
100
AcDbEntity
  8
Capa_1
 62
3
100
AcDbSpline
 70
8
 71
3
 72
8
 73
4
 74
0
 40
0
 40
0
 40
0
 40
0
 40
1
 40
1
 40
1
 40
1
 10
181.289610
 20
204.980038
 30
0.0
 10
181.338110
 20
204.941138
 30
0.0
 10
181.390310
 20
204.907138
 30
0.0
 10
181.444870
 20
204.877388
 30
0.0
  0
SPLINE
  5
16d
100
AcDbEntity
  8
Capa_1
 62
3
100
AcDbSpline
 70
8
 71
3
 72
8
 73
4
 74
0
 40
0
 40
0
 40
0
 40
0
 40
1
 40
1
 40
1
 40
1
 10
181.444870
 20
204.877388
 30
0.0
 10
181.552260
 20
204.818788
 30
0.0
 10
181.668550
 20
204.776528
 30
0.0
 10
181.787980
 20
204.748468
 30
0.0
  0
SPLINE
  5
16e
100
AcDbEntity
  8
Capa_1
 62
3
100
AcDbSpline
 70
8
 71
3
 72
8
 73
4
 74
0
 40
0
 40
0
 40
0
 40
0
 40
1
 40
1
 40
1
 40
1
 10
181.787980
 20
204.748468
 30
0.0
 10
181.903610
 20
204.721268
 30
0.0
 10
182.022160
 20
204.707368
 30
0.0
 10
182.140430
 20
204.707368
 30
0.0
  0
SPLINE
  5
16f
100
AcDbEntity
  8
Capa_1
 62
3
100
AcDbSpline
 70
8
 71
3
 72
8
 73
4
 74
0
 40
0
 40
0
 40
0
 40
0
 40
1
 40
1
 40
1
 40
1
 10
17.029760
 20
162.957400
 30
0.0
 10
17.029760
 20
163.019600
 30
0.0
 10
17.017460
 20
163.082370
 30
0.0
 10
16.995160
 20
163.140850
 30
0.0
  0
SPLINE
  5
170
100
AcDbEntity
  8
Capa_1
 62
3
100
AcDbSpline
 70
8
 71
3
 72
8
 73
4
 74
0
 40
0
 40
0
 40
0
 40
0
 40
1
 40
1
 40
1
 40
1
 10
16.995160
 20
163.140850
 30
0.0
 10
16.972860
 20
163.199350
 30
0.0
 10
16.940560
 20
163.253660
 30
0.0
 10
16.901960
 20
163.302770
 30
0.0
  0
SPLINE
  5
171
100
AcDbEntity
  8
Capa_1
 62
3
100
AcDbSpline
 70
8
 71
3
 72
8
 73
4
 74
0
 40
0
 40
0
 40
0
 40
0
 40
1
 40
1
 40
1
 40
1
 10
16.901960
 20
163.302770
 30
0.0
 10
16.863360
 20
163.351870
 30
0.0
 10
16.818560
 20
163.395770
 30
0.0
 10
16.769900
 20
163.434760
 30
0.0
  0
SPLINE
  5
172
100
AcDbEntity
  8
Capa_1
 62
3
100
AcDbSpline
 70
8
 71
3
 72
8
 73
4
 74
0
 40
0
 40
0
 40
0
 40
0
 40
1
 40
1
 40
1
 40
1
 10
16.769900
 20
163.434760
 30
0.0
 10
16.721400
 20
163.473660
 30
0.0
 10
16.669190
 20
163.507660
 30
0.0
 10
16.614650
 20
163.537410
 30
0.0
  0
SPLINE
  5
173
100
AcDbEntity
  8
Capa_1
 62
3
100
AcDbSpline
 70
8
 71
3
 72
8
 73
4
 74
0
 40
0
 40
0
 40
0
 40
0
 40
1
 40
1
 40
1
 40
1
 10
16.614650
 20
163.537410
 30
0.0
 10
16.507260
 20
163.596010
 30
0.0
 10
16.390960
 20
163.638270
 30
0.0
 10
16.271530
 20
163.666330
 30
0.0
  0
SPLINE
  5
174
100
AcDbEntity
  8
Capa_1
 62
3
100
AcDbSpline
 70
8
 71
3
 72
8
 73
4
 74
0
 40
0
 40
0
 40
0
 40
0
 40
1
 40
1
 40
1
 40
1
 10
16.271530
 20
163.666330
 30
0.0
 10
16.155910
 20
163.693530
 30
0.0
 10
16.037350
 20
163.707430
 30
0.0
 10
15.919070
 20
163.707430
 30
0.0
  0
LWPOLYLINE
  5
175
100
AcDbEntity
  8
Capa_1
 62
3
100
AcDbPolyline
 90
2
 70
0
 10
184.029760
 20
161.707400
 30
0.0
 10
184.029760
 20
159.707400
 30
0.0
  0
LWPOLYLINE
  5
176
100
AcDbEntity
  8
Capa_1
 62
3
100
AcDbPolyline
 90
2
 70
0
 10
59.929761
 20
198.527398
 30
0.0
 10
59.929761
 20
202.160378
 30
0.0
  0
LWPOLYLINE
  5
177
100
AcDbEntity
  8
Capa_1
 62
3
100
AcDbPolyline
 90
2
 70
0
 10
60.465571
 20
203.309448
 30
0.0
 10
61.117481
 20
203.856468
 30
0.0
  0
LWPOLYLINE
  5
178
100
AcDbEntity
  8
Capa_1
 62
3
100
AcDbPolyline
 90
2
 70
0
 10
76.429757
 20
202.160378
 30
0.0
 10
76.429757
 20
198.527398
 30
0.0
  0
LWPOLYLINE
  5
179
100
AcDbEntity
  8
Capa_1
 62
3
100
AcDbPolyline
 90
2
 70
0
 10
85.431229
 20
203.704318
 30
0.0
 10
85.982840
 20
204.255928
 30
0.0
  0
LWPOLYLINE
  5
17a
100
AcDbEntity
  8
Capa_1
 62
3
100
AcDbPolyline
 90
2
 70
0
 10
85.079756
 20
201.957398
 30
0.0
 10
85.079756
 20
202.855788
 30
0.0
  0
LWPOLYLINE
  5
17b
100
AcDbEntity
  8
Capa_1
 62
3
100
AcDbPolyline
 90
2
 70
0
 10
94.079757
 20
202.855788
 30
0.0
 10
94.079757
 20
201.957398
 30
0.0
  0
LWPOLYLINE
  5
17c
100
AcDbEntity
  8
Capa_1
 62
3
100
AcDbPolyline
 90
2
 70
0
 10
75.242026
 20
203.856468
 30
0.0
 10
75.893936
 20
203.309448
 30
0.0
  0
LWPOLYLINE
  5
17d
100
AcDbEntity
  8
Capa_1
 62
3
100
AcDbPolyline
 90
2
 70
0
 10
74.929755
 20
197.027398
 30
0.0
 10
61.429760
 20
197.027398
 30
0.0
  0
LWPOLYLINE
  5
17e
100
AcDbEntity
  8
Capa_1
 62
3
100
AcDbPolyline
 90
2
 70
0
 10
93.176670
 20
204.255928
 30
0.0
 10
93.728284
 20
203.704318
 30
0.0
  0
LWPOLYLINE
  5
17f
100
AcDbEntity
  8
Capa_1
 62
3
100
AcDbPolyline
 90
2
 70
0
 10
92.879755
 20
200.757398
 30
0.0
 10
86.279758
 20
200.757398
 30
0.0
  0
LWPOLYLINE
  5
180
100
AcDbEntity
  8
Capa_1
 62
3
100
AcDbPolyline
 90
2
 70
0
 10
62.081670
 20
204.207398
 30
0.0
 10
74.277848
 20
204.207398
 30
0.0
  0
SPLINE
  5
181
100
AcDbEntity
  8
Capa_1
 62
3
100
AcDbSpline
 70
8
 71
3
 72
8
 73
4
 74
0
 40
0
 40
0
 40
0
 40
0
 40
1
 40
1
 40
1
 40
1
 10
53.679760
 20
182.958400
 30
0.0
 10
53.680117
 20
184.744966
 30
0.0
 10
52.727201
 20
186.395975
 30
0.0
 10
51.180048
 20
187.289361
 30
0.0
  0
SPLINE
  5
182
100
AcDbEntity
  8
Capa_1
 62
3
100
AcDbSpline
 70
8
 71
3
 72
8
 73
4
 74
0
 40
0
 40
0
 40
0
 40
0
 40
1
 40
1
 40
1
 40
1
 10
51.180048
 20
187.289361
 30
0.0
 10
49.632896
 20
188.182747
 30
0.0
 10
47.726623
 20
188.182747
 30
0.0
 10
46.179471
 20
187.289361
 30
0.0
  0
SPLINE
  5
183
100
AcDbEntity
  8
Capa_1
 62
3
100
AcDbSpline
 70
8
 71
3
 72
8
 73
4
 74
0
 40
0
 40
0
 40
0
 40
0
 40
1
 40
1
 40
1
 40
1
 10
46.179471
 20
187.289361
 30
0.0
 10
44.632318
 20
186.395975
 30
0.0
 10
43.679402
 20
184.744966
 30
0.0
 10
43.679759
 20
182.958400
 30
0.0
  0
SPLINE
  5
184
100
AcDbEntity
  8
Capa_1
 62
3
100
AcDbSpline
 70
8
 71
3
 72
8
 73
4
 74
0
 40
0
 40
0
 40
0
 40
0
 40
1
 40
1
 40
1
 40
1
 10
43.679759
 20
182.958400
 30
0.0
 10
43.679402
 20
181.171834
 30
0.0
 10
44.632318
 20
179.520825
 30
0.0
 10
46.179471
 20
178.627439
 30
0.0
  0
SPLINE
  5
185
100
AcDbEntity
  8
Capa_1
 62
3
100
AcDbSpline
 70
8
 71
3
 72
8
 73
4
 74
0
 40
0
 40
0
 40
0
 40
0
 40
1
 40
1
 40
1
 40
1
 10
46.179471
 20
178.627439
 30
0.0
 10
47.726623
 20
177.734053
 30
0.0
 10
49.632896
 20
177.734053
 30
0.0
 10
51.180048
 20
178.627439
 30
0.0
  0
SPLINE
  5
186
100
AcDbEntity
  8
Capa_1
 62
3
100
AcDbSpline
 70
8
 71
3
 72
8
 73
4
 74
0
 40
0
 40
0
 40
0
 40
0
 40
1
 40
1
 40
1
 40
1
 10
51.180048
 20
178.627439
 30
0.0
 10
52.727201
 20
179.520825
 30
0.0
 10
53.680117
 20
181.171834
 30
0.0
 10
53.679760
 20
182.958400
 30
0.0
  0
LWPOLYLINE
  5
187
100
AcDbEntity
  8
Capa_1
 62
3
100
AcDbPolyline
 90
2
 70
0
 10
86.831369
 20
204.607398
 30
0.0
 10
92.328143
 20
204.607398
 30
0.0
  0
SPLINE
  5
188
100
AcDbEntity
  8
Capa_1
 62
3
100
AcDbSpline
 70
8
 71
3
 72
8
 73
4
 74
0
 40
0
 40
0
 40
0
 40
0
 40
1
 40
1
 40
1
 40
1
 10
70.979756
 20
182.958400
 30
0.0
 10
70.981579
 20
184.745942
 30
0.0
 10
70.028984
 20
186.398479
 30
0.0
 10
68.481230
 20
187.292776
 30
0.0
  0
SPLINE
  5
189
100
AcDbEntity
  8
Capa_1
 62
3
100
AcDbSpline
 70
8
 71
3
 72
8
 73
4
 74
0
 40
0
 40
0
 40
0
 40
0
 40
1
 40
1
 40
1
 40
1
 10
68.481230
 20
187.292776
 30
0.0
 10
66.933477
 20
188.187074
 30
0.0
 10
65.026039
 20
188.187074
 30
0.0
 10
63.478286
 20
187.292776
 30
0.0
  0
SPLINE
  5
18a
100
AcDbEntity
  8
Capa_1
 62
3
100
AcDbSpline
 70
8
 71
3
 72
8
 73
4
 74
0
 40
0
 40
0
 40
0
 40
0
 40
1
 40
1
 40
1
 40
1
 10
63.478286
 20
187.292776
 30
0.0
 10
61.930532
 20
186.398479
 30
0.0
 10
60.977937
 20
184.745942
 30
0.0
 10
60.979760
 20
182.958400
 30
0.0
  0
SPLINE
  5
18b
100
AcDbEntity
  8
Capa_1
 62
3
100
AcDbSpline
 70
8
 71
3
 72
8
 73
4
 74
0
 40
0
 40
0
 40
0
 40
0
 40
1
 40
1
 40
1
 40
1
 10
60.979760
 20
182.958400
 30
0.0
 10
60.977937
 20
181.170858
 30
0.0
 10
61.930532
 20
179.518321
 30
0.0
 10
63.478286
 20
178.624024
 30
0.0
  0
SPLINE
  5
18c
100
AcDbEntity
  8
Capa_1
 62
3
100
AcDbSpline
 70
8
 71
3
 72
8
 73
4
 74
0
 40
0
 40
0
 40
0
 40
0
 40
1
 40
1
 40
1
 40
1
 10
63.478286
 20
178.624024
 30
0.0
 10
65.026039
 20
177.729726
 30
0.0
 10
66.933477
 20
177.729726
 30
0.0
 10
68.481230
 20
178.624024
 30
0.0
  0
SPLINE
  5
18d
100
AcDbEntity
  8
Capa_1
 62
3
100
AcDbSpline
 70
8
 71
3
 72
8
 73
4
 74
0
 40
0
 40
0
 40
0
 40
0
 40
1
 40
1
 40
1
 40
1
 10
68.481230
 20
178.624024
 30
0.0
 10
70.028984
 20
179.518321
 30
0.0
 10
70.981579
 20
181.170858
 30
0.0
 10
70.979756
 20
182.958400
 30
0.0
  0
LWPOLYLINE
  5
18e
100
AcDbEntity
  8
Capa_1
 62
3
100
AcDbPolyline
 90
1
 70
1
 10
53.679760
 20
182.958400
 30
0.0
  0
SPLINE
  5
18f
100
AcDbEntity
  8
Capa_1
 62
3
100
AcDbSpline
 70
8
 71
3
 72
8
 73
4
 74
0
 40
0
 40
0
 40
0
 40
0
 40
1
 40
1
 40
1
 40
1
 10
50.329759
 20
200.907398
 30
0.0
 10
50.330507
 20
202.211916
 30
0.0
 10
49.634985
 20
203.417660
 30
0.0
 10
48.505364
 20
204.070135
 30
0.0
  0
SPLINE
  5
190
100
AcDbEntity
  8
Capa_1
 62
3
100
AcDbSpline
 70
8
 71
3
 72
8
 73
4
 74
0
 40
0
 40
0
 40
0
 40
0
 40
1
 40
1
 40
1
 40
1
 10
48.505364
 20
204.070135
 30
0.0
 10
47.375743
 20
204.722610
 30
0.0
 10
45.983776
 20
204.722610
 30
0.0
 10
44.854155
 20
204.070135
 30
0.0
  0
SPLINE
  5
191
100
AcDbEntity
  8
Capa_1
 62
3
100
AcDbSpline
 70
8
 71
3
 72
8
 73
4
 74
0
 40
0
 40
0
 40
0
 40
0
 40
1
 40
1
 40
1
 40
1
 10
44.854155
 20
204.070135
 30
0.0
 10
43.724534
 20
203.417660
 30
0.0
 10
43.029012
 20
202.211916
 30
0.0
 10
43.029760
 20
200.907398
 30
0.0
  0
SPLINE
  5
192
100
AcDbEntity
  8
Capa_1
 62
3
100
AcDbSpline
 70
8
 71
3
 72
8
 73
4
 74
0
 40
0
 40
0
 40
0
 40
0
 40
1
 40
1
 40
1
 40
1
 10
43.029760
 20
200.907398
 30
0.0
 10
43.029012
 20
199.602880
 30
0.0
 10
43.724534
 20
198.397136
 30
0.0
 10
44.854155
 20
197.744661
 30
0.0
  0
SPLINE
  5
193
100
AcDbEntity
  8
Capa_1
 62
3
100
AcDbSpline
 70
8
 71
3
 72
8
 73
4
 74
0
 40
0
 40
0
 40
0
 40
0
 40
1
 40
1
 40
1
 40
1
 10
44.854155
 20
197.744661
 30
0.0
 10
45.983776
 20
197.092186
 30
0.0
 10
47.375743
 20
197.092186
 30
0.0
 10
48.505364
 20
197.744661
 30
0.0
  0
SPLINE
  5
194
100
AcDbEntity
  8
Capa_1
 62
3
100
AcDbSpline
 70
8
 71
3
 72
8
 73
4
 74
0
 40
0
 40
0
 40
0
 40
0
 40
1
 40
1
 40
1
 40
1
 10
48.505364
 20
197.744661
 30
0.0
 10
49.634985
 20
198.397136
 30
0.0
 10
50.330507
 20
199.602880
 30
0.0
 10
50.329759
 20
200.907398
 30
0.0
  0
LWPOLYLINE
  5
195
100
AcDbEntity
  8
Capa_1
 62
3
100
AcDbPolyline
 90
1
 70
1
 10
70.979756
 20
182.958400
 30
0.0
  0
SPLINE
  5
196
100
AcDbEntity
  8
Capa_1
 62
3
100
AcDbSpline
 70
8
 71
3
 72
8
 73
4
 74
0
 40
0
 40
0
 40
0
 40
0
 40
1
 40
1
 40
1
 40
1
 10
87.029756
 20
188.458400
 30
0.0
 10
87.030504
 20
189.762918
 30
0.0
 10
86.334982
 20
190.968662
 30
0.0
 10
85.205361
 20
191.621137
 30
0.0
  0
SPLINE
  5
197
100
AcDbEntity
  8
Capa_1
 62
3
100
AcDbSpline
 70
8
 71
3
 72
8
 73
4
 74
0
 40
0
 40
0
 40
0
 40
0
 40
1
 40
1
 40
1
 40
1
 10
85.205361
 20
191.621137
 30
0.0
 10
84.075740
 20
192.273612
 30
0.0
 10
82.683773
 20
192.273612
 30
0.0
 10
81.554152
 20
191.621137
 30
0.0
  0
SPLINE
  5
198
100
AcDbEntity
  8
Capa_1
 62
3
100
AcDbSpline
 70
8
 71
3
 72
8
 73
4
 74
0
 40
0
 40
0
 40
0
 40
0
 40
1
 40
1
 40
1
 40
1
 10
81.554152
 20
191.621137
 30
0.0
 10
80.424531
 20
190.968662
 30
0.0
 10
79.729009
 20
189.762918
 30
0.0
 10
79.729757
 20
188.458400
 30
0.0
  0
SPLINE
  5
199
100
AcDbEntity
  8
Capa_1
 62
3
100
AcDbSpline
 70
8
 71
3
 72
8
 73
4
 74
0
 40
0
 40
0
 40
0
 40
0
 40
1
 40
1
 40
1
 40
1
 10
79.729757
 20
188.458400
 30
0.0
 10
79.729009
 20
187.153882
 30
0.0
 10
80.424531
 20
185.948138
 30
0.0
 10
81.554152
 20
185.295663
 30
0.0
  0
SPLINE
  5
19a
100
AcDbEntity
  8
Capa_1
 62
3
100
AcDbSpline
 70
8
 71
3
 72
8
 73
4
 74
0
 40
0
 40
0
 40
0
 40
0
 40
1
 40
1
 40
1
 40
1
 10
81.554152
 20
185.295663
 30
0.0
 10
82.683773
 20
184.643188
 30
0.0
 10
84.075740
 20
184.643188
 30
0.0
 10
85.205361
 20
185.295663
 30
0.0
  0
SPLINE
  5
19b
100
AcDbEntity
  8
Capa_1
 62
3
100
AcDbSpline
 70
8
 71
3
 72
8
 73
4
 74
0
 40
0
 40
0
 40
0
 40
0
 40
1
 40
1
 40
1
 40
1
 10
85.205361
 20
185.295663
 30
0.0
 10
86.334982
 20
185.948138
 30
0.0
 10
87.030504
 20
187.153882
 30
0.0
 10
87.029756
 20
188.458400
 30
0.0
  0
LWPOLYLINE
  5
19c
100
AcDbEntity
  8
Capa_1
 62
3
100
AcDbPolyline
 90
1
 70
1
 10
50.329759
 20
200.907398
 30
0.0
  0
SPLINE
  5
19d
100
AcDbEntity
  8
Capa_1
 62
3
100
AcDbSpline
 70
8
 71
3
 72
8
 73
4
 74
0
 40
0
 40
0
 40
0
 40
0
 40
1
 40
1
 40
1
 40
1
 10
59.929761
 20
198.527398
 30
0.0
 10
59.929761
 20
197.698971
 30
0.0
 10
60.601333
 20
197.027399
 30
0.0
 10
61.429760
 20
197.027398
 30
0.0
  0
SPLINE
  5
19e
100
AcDbEntity
  8
Capa_1
 62
3
100
AcDbSpline
 70
8
 71
3
 72
8
 73
4
 74
0
 40
0
 40
0
 40
0
 40
0
 40
1
 40
1
 40
1
 40
1
 10
74.929755
 20
197.027398
 30
0.0
 10
75.327580
 20
197.027397
 30
0.0
 10
75.709111
 20
197.185432
 30
0.0
 10
75.990416
 20
197.466737
 30
0.0
  0
SPLINE
  5
19f
100
AcDbEntity
  8
Capa_1
 62
3
100
AcDbSpline
 70
8
 71
3
 72
8
 73
4
 74
0
 40
0
 40
0
 40
0
 40
0
 40
1
 40
1
 40
1
 40
1
 10
75.990416
 20
197.466737
 30
0.0
 10
76.271722
 20
197.748042
 30
0.0
 10
76.429757
 20
198.129573
 30
0.0
 10
76.429757
 20
198.527398
 30
0.0
  0
SPLINE
  5
1a0
100
AcDbEntity
  8
Capa_1
 62
3
100
AcDbSpline
 70
8
 71
3
 72
8
 73
4
 74
0
 40
0
 40
0
 40
0
 40
0
 40
1
 40
1
 40
1
 40
1
 10
76.429757
 20
202.160378
 30
0.0
 10
76.429757
 20
202.603769
 30
0.0
 10
76.233594
 20
203.024443
 30
0.0
 10
75.893936
 20
203.309448
 30
0.0
  0
SPLINE
  5
1a1
100
AcDbEntity
  8
Capa_1
 62
3
100
AcDbSpline
 70
8
 71
3
 72
8
 73
4
 74
0
 40
0
 40
0
 40
0
 40
0
 40
1
 40
1
 40
1
 40
1
 10
75.242026
 20
203.856468
 30
0.0
 10
74.971878
 20
204.083148
 30
0.0
 10
74.630500
 20
204.207398
 30
0.0
 10
74.277848
 20
204.207398
 30
0.0
  0
SPLINE
  5
1a2
100
AcDbEntity
  8
Capa_1
 62
3
100
AcDbSpline
 70
8
 71
3
 72
8
 73
4
 74
0
 40
0
 40
0
 40
0
 40
0
 40
1
 40
1
 40
1
 40
1
 10
62.081670
 20
204.207398
 30
0.0
 10
61.729014
 20
204.207401
 30
0.0
 10
61.387632
 20
204.083150
 30
0.0
 10
61.117481
 20
203.856468
 30
0.0
  0
SPLINE
  5
1a3
100
AcDbEntity
  8
Capa_1
 62
3
100
AcDbSpline
 70
8
 71
3
 72
8
 73
4
 74
0
 40
0
 40
0
 40
0
 40
0
 40
1
 40
1
 40
1
 40
1
 10
60.465571
 20
203.309448
 30
0.0
 10
60.125917
 20
203.024440
 30
0.0
 10
59.929758
 20
202.603767
 30
0.0
 10
59.929761
 20
202.160378
 30
0.0
  0
SPLINE
  5
1a4
100
AcDbEntity
  8
Capa_1
 62
3
100
AcDbSpline
 70
8
 71
3
 72
8
 73
4
 74
0
 40
0
 40
0
 40
0
 40
0
 40
1
 40
1
 40
1
 40
1
 10
85.079756
 20
201.957398
 30
0.0
 10
85.079756
 20
201.639138
 30
0.0
 10
85.206184
 20
201.333913
 30
0.0
 10
85.431229
 20
201.108869
 30
0.0
  0
SPLINE
  5
1a5
100
AcDbEntity
  8
Capa_1
 62
3
100
AcDbSpline
 70
8
 71
3
 72
8
 73
4
 74
0
 40
0
 40
0
 40
0
 40
0
 40
1
 40
1
 40
1
 40
1
 10
85.431229
 20
201.108869
 30
0.0
 10
85.656273
 20
200.883825
 30
0.0
 10
85.961498
 20
200.757397
 30
0.0
 10
86.279758
 20
200.757398
 30
0.0
  0
SPLINE
  5
1a6
100
AcDbEntity
  8
Capa_1
 62
3
100
AcDbSpline
 70
8
 71
3
 72
8
 73
4
 74
0
 40
0
 40
0
 40
0
 40
0
 40
1
 40
1
 40
1
 40
1
 10
92.879755
 20
200.757398
 30
0.0
 10
93.198015
 20
200.757397
 30
0.0
 10
93.503240
 20
200.883825
 30
0.0
 10
93.728284
 20
201.108869
 30
0.0
  0
SPLINE
  5
1a7
100
AcDbEntity
  8
Capa_1
 62
3
100
AcDbSpline
 70
8
 71
3
 72
8
 73
4
 74
0
 40
0
 40
0
 40
0
 40
0
 40
1
 40
1
 40
1
 40
1
 10
93.728284
 20
201.108869
 30
0.0
 10
93.953329
 20
201.333913
 30
0.0
 10
94.079757
 20
201.639138
 30
0.0
 10
94.079757
 20
201.957398
 30
0.0
  0
SPLINE
  5
1a8
100
AcDbEntity
  8
Capa_1
 62
3
100
AcDbSpline
 70
8
 71
3
 72
8
 73
4
 74
0
 40
0
 40
0
 40
0
 40
0
 40
1
 40
1
 40
1
 40
1
 10
94.079757
 20
202.855788
 30
0.0
 10
94.079757
 20
203.174049
 30
0.0
 10
93.953329
 20
203.479274
 30
0.0
 10
93.728284
 20
203.704318
 30
0.0
  0
SPLINE
  5
1a9
100
AcDbEntity
  8
Capa_1
 62
3
100
AcDbSpline
 70
8
 71
3
 72
8
 73
4
 74
0
 40
0
 40
0
 40
0
 40
0
 40
1
 40
1
 40
1
 40
1
 10
93.176670
 20
204.255928
 30
0.0
 10
92.951626
 20
204.480971
 30
0.0
 10
92.646402
 20
204.607398
 30
0.0
 10
92.328143
 20
204.607398
 30
0.0
  0
SPLINE
  5
1aa
100
AcDbEntity
  8
Capa_1
 62
3
100
AcDbSpline
 70
8
 71
3
 72
8
 73
4
 74
0
 40
0
 40
0
 40
0
 40
0
 40
1
 40
1
 40
1
 40
1
 10
86.831369
 20
204.607398
 30
0.0
 10
86.513109
 20
204.607399
 30
0.0
 10
86.207884
 20
204.480971
 30
0.0
 10
85.982840
 20
204.255928
 30
0.0
  0
SPLINE
  5
1ab
100
AcDbEntity
  8
Capa_1
 62
3
100
AcDbSpline
 70
8
 71
3
 72
8
 73
4
 74
0
 40
0
 40
0
 40
0
 40
0
 40
1
 40
1
 40
1
 40
1
 10
85.431229
 20
203.704318
 30
0.0
 10
85.206184
 20
203.479274
 30
0.0
 10
85.079756
 20
203.174049
 30
0.0
 10
85.079756
 20
202.855788
 30
0.0
  0
SPLINE
  5
1ac
100
AcDbEntity
  8
Capa_1
 62
3
100
AcDbSpline
 70
8
 71
3
 72
8
 73
4
 74
0
 40
0
 40
0
 40
0
 40
0
 40
1
 40
1
 40
1
 40
1
 10
162.029760
 20
164.207400
 30
0.0
 10
162.030746
 20
164.922591
 30
0.0
 10
161.649762
 20
165.583878
 30
0.0
 10
161.030552
 20
165.941758
 30
0.0
  0
SPLINE
  5
1ad
100
AcDbEntity
  8
Capa_1
 62
3
100
AcDbSpline
 70
8
 71
3
 72
8
 73
4
 74
0
 40
0
 40
0
 40
0
 40
0
 40
1
 40
1
 40
1
 40
1
 10
161.030552
 20
165.941758
 30
0.0
 10
160.411342
 20
166.299639
 30
0.0
 10
159.648158
 20
166.299639
 30
0.0
 10
159.028948
 20
165.941758
 30
0.0
  0
SPLINE
  5
1ae
100
AcDbEntity
  8
Capa_1
 62
3
100
AcDbSpline
 70
8
 71
3
 72
8
 73
4
 74
0
 40
0
 40
0
 40
0
 40
0
 40
1
 40
1
 40
1
 40
1
 10
159.028948
 20
165.941758
 30
0.0
 10
158.409738
 20
165.583878
 30
0.0
 10
158.028754
 20
164.922591
 30
0.0
 10
158.029740
 20
164.207400
 30
0.0
  0
SPLINE
  5
1af
100
AcDbEntity
  8
Capa_1
 62
3
100
AcDbSpline
 70
8
 71
3
 72
8
 73
4
 74
0
 40
0
 40
0
 40
0
 40
0
 40
1
 40
1
 40
1
 40
1
 10
158.029740
 20
164.207400
 30
0.0
 10
158.028754
 20
163.492209
 30
0.0
 10
158.409738
 20
162.830922
 30
0.0
 10
159.028948
 20
162.473042
 30
0.0
  0
SPLINE
  5
1b0
100
AcDbEntity
  8
Capa_1
 62
3
100
AcDbSpline
 70
8
 71
3
 72
8
 73
4
 74
0
 40
0
 40
0
 40
0
 40
0
 40
1
 40
1
 40
1
 40
1
 10
159.028948
 20
162.473042
 30
0.0
 10
159.648158
 20
162.115161
 30
0.0
 10
160.411342
 20
162.115161
 30
0.0
 10
161.030552
 20
162.473042
 30
0.0
  0
SPLINE
  5
1b1
100
AcDbEntity
  8
Capa_1
 62
3
100
AcDbSpline
 70
8
 71
3
 72
8
 73
4
 74
0
 40
0
 40
0
 40
0
 40
0
 40
1
 40
1
 40
1
 40
1
 10
161.030552
 20
162.473042
 30
0.0
 10
161.649762
 20
162.830922
 30
0.0
 10
162.030746
 20
163.492209
 30
0.0
 10
162.029760
 20
164.207400
 30
0.0
  0
LWPOLYLINE
  5
1b2
100
AcDbEntity
  8
Capa_1
 62
3
100
AcDbPolyline
 90
1
 70
1
 10
87.029756
 20
188.458400
 30
0.0
  0
SPLINE
  5
1b3
100
AcDbEntity
  8
Capa_1
 62
3
100
AcDbSpline
 70
8
 71
3
 72
8
 73
4
 74
0
 40
0
 40
0
 40
0
 40
0
 40
1
 40
1
 40
1
 40
1
 10
137.029750
 20
164.207400
 30
0.0
 10
137.029750
 20
164.921931
 30
0.0
 10
136.648552
 20
165.582185
 30
0.0
 10
136.029750
 20
165.939451
 30
0.0
  0
SPLINE
  5
1b4
100
AcDbEntity
  8
Capa_1
 62
3
100
AcDbSpline
 70
8
 71
3
 72
8
 73
4
 74
0
 40
0
 40
0
 40
0
 40
0
 40
1
 40
1
 40
1
 40
1
 10
136.029750
 20
165.939451
 30
0.0
 10
135.410948
 20
166.296716
 30
0.0
 10
134.648552
 20
166.296716
 30
0.0
 10
134.029750
 20
165.939451
 30
0.0
  0
SPLINE
  5
1b5
100
AcDbEntity
  8
Capa_1
 62
3
100
AcDbSpline
 70
8
 71
3
 72
8
 73
4
 74
0
 40
0
 40
0
 40
0
 40
0
 40
1
 40
1
 40
1
 40
1
 10
134.029750
 20
165.939451
 30
0.0
 10
133.410948
 20
165.582185
 30
0.0
 10
133.029750
 20
164.921931
 30
0.0
 10
133.029750
 20
164.207400
 30
0.0
  0
SPLINE
  5
1b6
100
AcDbEntity
  8
Capa_1
 62
3
100
AcDbSpline
 70
8
 71
3
 72
8
 73
4
 74
0
 40
0
 40
0
 40
0
 40
0
 40
1
 40
1
 40
1
 40
1
 10
133.029750
 20
164.207400
 30
0.0
 10
133.029750
 20
163.492869
 30
0.0
 10
133.410948
 20
162.832615
 30
0.0
 10
134.029750
 20
162.475349
 30
0.0
  0
SPLINE
  5
1b7
100
AcDbEntity
  8
Capa_1
 62
3
100
AcDbSpline
 70
8
 71
3
 72
8
 73
4
 74
0
 40
0
 40
0
 40
0
 40
0
 40
1
 40
1
 40
1
 40
1
 10
134.029750
 20
162.475349
 30
0.0
 10
134.648552
 20
162.118084
 30
0.0
 10
135.410948
 20
162.118084
 30
0.0
 10
136.029750
 20
162.475349
 30
0.0
  0
SPLINE
  5
1b8
100
AcDbEntity
  8
Capa_1
 62
3
100
AcDbSpline
 70
8
 71
3
 72
8
 73
4
 74
0
 40
0
 40
0
 40
0
 40
0
 40
1
 40
1
 40
1
 40
1
 10
136.029750
 20
162.475349
 30
0.0
 10
136.648552
 20
162.832615
 30
0.0
 10
137.029750
 20
163.492869
 30
0.0
 10
137.029750
 20
164.207400
 30
0.0
  0
LWPOLYLINE
  5
1b9
100
AcDbEntity
  8
Capa_1
 62
3
100
AcDbPolyline
 90
1
 70
1
 10
162.029760
 20
164.207400
 30
0.0
  0
SPLINE
  5
1ba
100
AcDbEntity
  8
Capa_1
 62
3
100
AcDbSpline
 70
8
 71
3
 72
8
 73
4
 74
0
 40
0
 40
0
 40
0
 40
0
 40
1
 40
1
 40
1
 40
1
 10
112.029760
 20
164.207400
 30
0.0
 10
112.029760
 20
164.921931
 30
0.0
 10
111.648562
 20
165.582185
 30
0.0
 10
111.029760
 20
165.939451
 30
0.0
  0
SPLINE
  5
1bb
100
AcDbEntity
  8
Capa_1
 62
3
100
AcDbSpline
 70
8
 71
3
 72
8
 73
4
 74
0
 40
0
 40
0
 40
0
 40
0
 40
1
 40
1
 40
1
 40
1
 10
111.029760
 20
165.939451
 30
0.0
 10
110.410958
 20
166.296716
 30
0.0
 10
109.648562
 20
166.296716
 30
0.0
 10
109.029760
 20
165.939451
 30
0.0
  0
SPLINE
  5
1bc
100
AcDbEntity
  8
Capa_1
 62
3
100
AcDbSpline
 70
8
 71
3
 72
8
 73
4
 74
0
 40
0
 40
0
 40
0
 40
0
 40
1
 40
1
 40
1
 40
1
 10
109.029760
 20
165.939451
 30
0.0
 10
108.410958
 20
165.582185
 30
0.0
 10
108.029760
 20
164.921931
 30
0.0
 10
108.029760
 20
164.207400
 30
0.0
  0
SPLINE
  5
1bd
100
AcDbEntity
  8
Capa_1
 62
3
100
AcDbSpline
 70
8
 71
3
 72
8
 73
4
 74
0
 40
0
 40
0
 40
0
 40
0
 40
1
 40
1
 40
1
 40
1
 10
108.029760
 20
164.207400
 30
0.0
 10
108.029760
 20
163.492869
 30
0.0
 10
108.410958
 20
162.832615
 30
0.0
 10
109.029760
 20
162.475349
 30
0.0
  0
SPLINE
  5
1be
100
AcDbEntity
  8
Capa_1
 62
3
100
AcDbSpline
 70
8
 71
3
 72
8
 73
4
 74
0
 40
0
 40
0
 40
0
 40
0
 40
1
 40
1
 40
1
 40
1
 10
109.029760
 20
162.475349
 30
0.0
 10
109.648562
 20
162.118084
 30
0.0
 10
110.410958
 20
162.118084
 30
0.0
 10
111.029760
 20
162.475349
 30
0.0
  0
SPLINE
  5
1bf
100
AcDbEntity
  8
Capa_1
 62
3
100
AcDbSpline
 70
8
 71
3
 72
8
 73
4
 74
0
 40
0
 40
0
 40
0
 40
0
 40
1
 40
1
 40
1
 40
1
 10
111.029760
 20
162.475349
 30
0.0
 10
111.648562
 20
162.832615
 30
0.0
 10
112.029760
 20
163.492869
 30
0.0
 10
112.029760
 20
164.207400
 30
0.0
  0
LWPOLYLINE
  5
1c0
100
AcDbEntity
  8
Capa_1
 62
3
100
AcDbPolyline
 90
1
 70
1
 10
137.029750
 20
164.207400
 30
0.0
  0
SPLINE
  5
1c1
100
AcDbEntity
  8
Capa_1
 62
3
100
AcDbSpline
 70
8
 71
3
 72
8
 73
4
 74
0
 40
0
 40
0
 40
0
 40
0
 40
1
 40
1
 40
1
 40
1
 10
172.779760
 20
202.457398
 30
0.0
 10
172.779760
 20
204.333046
 30
0.0
 10
171.779114
 20
206.066216
 30
0.0
 10
170.154755
 20
207.004040
 30
0.0
  0
SPLINE
  5
1c2
100
AcDbEntity
  8
Capa_1
 62
3
100
AcDbSpline
 70
8
 71
3
 72
8
 73
4
 74
0
 40
0
 40
0
 40
0
 40
0
 40
1
 40
1
 40
1
 40
1
 10
170.154755
 20
207.004040
 30
0.0
 10
168.530396
 20
207.941864
 30
0.0
 10
166.529104
 20
207.941864
 30
0.0
 10
164.904745
 20
207.004040
 30
0.0
  0
SPLINE
  5
1c3
100
AcDbEntity
  8
Capa_1
 62
3
100
AcDbSpline
 70
8
 71
3
 72
8
 73
4
 74
0
 40
0
 40
0
 40
0
 40
0
 40
1
 40
1
 40
1
 40
1
 10
164.904745
 20
207.004040
 30
0.0
 10
163.280386
 20
206.066216
 30
0.0
 10
162.279740
 20
204.333046
 30
0.0
 10
162.279740
 20
202.457398
 30
0.0
  0
SPLINE
  5
1c4
100
AcDbEntity
  8
Capa_1
 62
3
100
AcDbSpline
 70
8
 71
3
 72
8
 73
4
 74
0
 40
0
 40
0
 40
0
 40
0
 40
1
 40
1
 40
1
 40
1
 10
162.279740
 20
202.457398
 30
0.0
 10
162.279740
 20
200.581750
 30
0.0
 10
163.280386
 20
198.848580
 30
0.0
 10
164.904745
 20
197.910756
 30
0.0
  0
SPLINE
  5
1c5
100
AcDbEntity
  8
Capa_1
 62
3
100
AcDbSpline
 70
8
 71
3
 72
8
 73
4
 74
0
 40
0
 40
0
 40
0
 40
0
 40
1
 40
1
 40
1
 40
1
 10
164.904745
 20
197.910756
 30
0.0
 10
166.529104
 20
196.972932
 30
0.0
 10
168.530396
 20
196.972932
 30
0.0
 10
170.154755
 20
197.910756
 30
0.0
  0
SPLINE
  5
1c6
100
AcDbEntity
  8
Capa_1
 62
3
100
AcDbSpline
 70
8
 71
3
 72
8
 73
4
 74
0
 40
0
 40
0
 40
0
 40
0
 40
1
 40
1
 40
1
 40
1
 10
170.154755
 20
197.910756
 30
0.0
 10
171.779114
 20
198.848580
 30
0.0
 10
172.779760
 20
200.581750
 30
0.0
 10
172.779760
 20
202.457398
 30
0.0
  0
LWPOLYLINE
  5
1c7
100
AcDbEntity
  8
Capa_1
 62
3
100
AcDbPolyline
 90
1
 70
1
 10
112.029760
 20
164.207400
 30
0.0
  0
SPLINE
  5
1c8
100
AcDbEntity
  8
Capa_1
 62
3
100
AcDbSpline
 70
8
 71
3
 72
8
 73
4
 74
0
 40
0
 40
0
 40
0
 40
0
 40
1
 40
1
 40
1
 40
1
 10
155.279740
 20
202.457398
 30
0.0
 10
155.282357
 20
204.334784
 30
0.0
 10
154.282286
 20
206.070680
 30
0.0
 10
152.656857
 20
207.010129
 30
0.0
  0
SPLINE
  5
1c9
100
AcDbEntity
  8
Capa_1
 62
3
100
AcDbSpline
 70
8
 71
3
 72
8
 73
4
 74
0
 40
0
 40
0
 40
0
 40
0
 40
1
 40
1
 40
1
 40
1
 10
152.656857
 20
207.010129
 30
0.0
 10
151.031428
 20
207.949578
 30
0.0
 10
149.028062
 20
207.949578
 30
0.0
 10
147.402633
 20
207.010129
 30
0.0
  0
SPLINE
  5
1ca
100
AcDbEntity
  8
Capa_1
 62
3
100
AcDbSpline
 70
8
 71
3
 72
8
 73
4
 74
0
 40
0
 40
0
 40
0
 40
0
 40
1
 40
1
 40
1
 40
1
 10
147.402633
 20
207.010129
 30
0.0
 10
145.777204
 20
206.070680
 30
0.0
 10
144.777133
 20
204.334784
 30
0.0
 10
144.779750
 20
202.457398
 30
0.0
  0
SPLINE
  5
1cb
100
AcDbEntity
  8
Capa_1
 62
3
100
AcDbSpline
 70
8
 71
3
 72
8
 73
4
 74
0
 40
0
 40
0
 40
0
 40
0
 40
1
 40
1
 40
1
 40
1
 10
144.779750
 20
202.457398
 30
0.0
 10
144.777133
 20
200.580012
 30
0.0
 10
145.777204
 20
198.844116
 30
0.0
 10
147.402633
 20
197.904667
 30
0.0
  0
SPLINE
  5
1cc
100
AcDbEntity
  8
Capa_1
 62
3
100
AcDbSpline
 70
8
 71
3
 72
8
 73
4
 74
0
 40
0
 40
0
 40
0
 40
0
 40
1
 40
1
 40
1
 40
1
 10
147.402633
 20
197.904667
 30
0.0
 10
149.028062
 20
196.965218
 30
0.0
 10
151.031428
 20
196.965218
 30
0.0
 10
152.656857
 20
197.904667
 30
0.0
  0
SPLINE
  5
1cd
100
AcDbEntity
  8
Capa_1
 62
3
100
AcDbSpline
 70
8
 71
3
 72
8
 73
4
 74
0
 40
0
 40
0
 40
0
 40
0
 40
1
 40
1
 40
1
 40
1
 10
152.656857
 20
197.904667
 30
0.0
 10
154.282286
 20
198.844116
 30
0.0
 10
155.282357
 20
200.580012
 30
0.0
 10
155.279740
 20
202.457398
 30
0.0
  0
LWPOLYLINE
  5
1ce
100
AcDbEntity
  8
Capa_1
 62
3
100
AcDbPolyline
 90
1
 70
1
 10
172.779760
 20
202.457398
 30
0.0
  0
SPLINE
  5
1cf
100
AcDbEntity
  8
Capa_1
 62
3
100
AcDbSpline
 70
8
 71
3
 72
8
 73
4
 74
0
 40
0
 40
0
 40
0
 40
0
 40
1
 40
1
 40
1
 40
1
 10
137.779750
 20
202.457398
 30
0.0
 10
137.780116
 20
204.333286
 30
0.0
 10
136.779552
 20
206.066835
 30
0.0
 10
135.155046
 20
207.004885
 30
0.0
  0
SPLINE
  5
1d0
100
AcDbEntity
  8
Capa_1
 62
3
100
AcDbSpline
 70
8
 71
3
 72
8
 73
4
 74
0
 40
0
 40
0
 40
0
 40
0
 40
1
 40
1
 40
1
 40
1
 10
135.155046
 20
207.004885
 30
0.0
 10
133.530540
 20
207.942935
 30
0.0
 10
131.528960
 20
207.942935
 30
0.0
 10
129.904454
 20
207.004885
 30
0.0
  0
SPLINE
  5
1d1
100
AcDbEntity
  8
Capa_1
 62
3
100
AcDbSpline
 70
8
 71
3
 72
8
 73
4
 74
0
 40
0
 40
0
 40
0
 40
0
 40
1
 40
1
 40
1
 40
1
 10
129.904454
 20
207.004885
 30
0.0
 10
128.279948
 20
206.066835
 30
0.0
 10
127.279384
 20
204.333286
 30
0.0
 10
127.279750
 20
202.457398
 30
0.0
  0
SPLINE
  5
1d2
100
AcDbEntity
  8
Capa_1
 62
3
100
AcDbSpline
 70
8
 71
3
 72
8
 73
4
 74
0
 40
0
 40
0
 40
0
 40
0
 40
1
 40
1
 40
1
 40
1
 10
127.279750
 20
202.457398
 30
0.0
 10
127.279384
 20
200.581510
 30
0.0
 10
128.279948
 20
198.847961
 30
0.0
 10
129.904454
 20
197.909911
 30
0.0
  0
SPLINE
  5
1d3
100
AcDbEntity
  8
Capa_1
 62
3
100
AcDbSpline
 70
8
 71
3
 72
8
 73
4
 74
0
 40
0
 40
0
 40
0
 40
0
 40
1
 40
1
 40
1
 40
1
 10
129.904454
 20
197.909911
 30
0.0
 10
131.528960
 20
196.971861
 30
0.0
 10
133.530540
 20
196.971861
 30
0.0
 10
135.155046
 20
197.909911
 30
0.0
  0
SPLINE
  5
1d4
100
AcDbEntity
  8
Capa_1
 62
3
100
AcDbSpline
 70
8
 71
3
 72
8
 73
4
 74
0
 40
0
 40
0
 40
0
 40
0
 40
1
 40
1
 40
1
 40
1
 10
135.155046
 20
197.909911
 30
0.0
 10
136.779552
 20
198.847961
 30
0.0
 10
137.780116
 20
200.581510
 30
0.0
 10
137.779750
 20
202.457398
 30
0.0
  0
LWPOLYLINE
  5
1d5
100
AcDbEntity
  8
Capa_1
 62
3
100
AcDbPolyline
 90
1
 70
1
 10
155.279740
 20
202.457398
 30
0.0
  0
LWPOLYLINE
  5
1d6
100
AcDbEntity
  8
Capa_1
 62
3
100
AcDbPolyline
 90
1
 70
1
 10
137.779750
 20
202.457398
 30
0.0
  0
ENDSEC
  0
SECTION
  2
OBJECTS
  0
DICTIONARY
  5
C
330
0
100
AcDbDictionary
  3
ACAD_GROUP
350
D
  3
ACAD_MLINESTYLE
350
17
  0
DICTIONARY
  5
D
330
C
100
AcDbDictionary
  0
DICTIONARY
  5
1A
330
C
100
AcDbDictionary
  0
DICTIONARY
  5
17
330
C
100
AcDbDictionary
  3
STANDARD
350
18
  0
DICTIONARY
  5
19
330
C
100
AcDbDictionary
  0
ENDSEC
  0
EOF
